<svg width="60" height="60" viewBox="0 0 60 60" fill="none" xmlns="http://www.w3.org/2000/svg">
<path d="M30.0114 48.8868C40.7157 48.8868 49.3933 40.2092 49.3933 29.5048C49.3933 18.8004 40.7157 10.1228 30.0114 10.1228C19.307 10.1228 10.6294 18.8004 10.6294 29.5048C10.6294 40.2092 19.307 48.8868 30.0114 48.8868Z" fill="#9ABFDA"/>
<path d="M10.5402 58.9094C10.169 58.9094 9.79712 58.7854 9.48855 58.5322C8.78239 57.9507 8.6802 56.907 9.26107 56.2001L14.4125 49.9384C14.994 49.2329 16.0384 49.1307 16.7439 49.7116C17.4507 50.2931 17.5529 51.3368 16.9714 52.0437L11.82 58.3054C11.4936 58.703 11.0182 58.9094 10.5402 58.9094Z" fill="#454B53"/>
<path d="M49.7882 58.9093C49.3102 58.9093 48.8355 58.703 48.5085 58.3054L43.3551 52.0436C42.7742 51.3375 42.8751 50.2931 43.5819 49.7115C44.2887 49.1307 45.3318 49.2322 45.914 49.9383L51.0667 56.2001C51.6482 56.9063 51.5467 57.9507 50.8406 58.5322C50.5313 58.7854 50.1588 58.9093 49.7882 58.9093Z" fill="#454B53"/>
<path d="M30.1649 55.6417C15.7451 55.6417 4.01416 43.9107 4.01416 29.4909C4.01416 15.0737 15.7451 3.34473 30.1649 3.34473C44.5827 3.34473 56.3131 15.0737 56.3131 29.4909C56.3131 43.9107 44.5827 55.6417 30.1649 55.6417ZM30.1649 6.65791C17.5715 6.65791 7.32735 16.9008 7.32735 29.4909C7.32735 42.0836 17.5715 52.3285 30.1649 52.3285C42.7564 52.3285 52.9999 42.0836 52.9999 29.4909C52.9999 16.9008 42.7564 6.65791 30.1649 6.65791Z" fill="#454B53"/>
<path d="M37.4368 31.1473H30.2414C29.3262 31.1473 28.5845 30.4055 28.5845 29.4904V11.0539C28.5845 10.1387 29.3262 9.39697 30.2414 9.39697C31.1566 9.39697 31.8983 10.1387 31.8983 11.0539V27.8341H37.4368C38.3526 27.8341 39.0944 28.5759 39.0944 29.491C39.0944 30.4062 38.3526 31.1473 37.4368 31.1473Z" fill="#454B53"/>
<path d="M30.2433 49.5587C29.3275 49.5587 28.5857 48.8169 28.5857 47.9017V43.8132C28.5857 42.898 29.3275 42.1562 30.2433 42.1562C31.1578 42.1562 31.8995 42.898 31.8995 43.8132V47.9017C31.8995 48.8169 31.1578 49.5587 30.2433 49.5587Z" fill="#454B53"/>
<path d="M15.734 31.1473H11.7048C10.7896 31.1473 10.0479 30.4056 10.0479 29.4904C10.0479 28.5753 10.7896 27.8335 11.7048 27.8335H15.734C16.6492 27.8335 17.3909 28.5753 17.3909 29.4904C17.3909 30.4056 16.6492 31.1473 15.734 31.1473Z" fill="#454B53"/>
<path d="M48.6238 31.1473H44.5933C43.6788 31.1473 42.937 30.4056 42.937 29.4904C42.937 28.5753 43.6788 27.8335 44.5933 27.8335H48.6238C49.5396 27.8335 50.2814 28.5753 50.2814 29.4904C50.2814 30.4056 49.5396 31.1473 48.6238 31.1473Z" fill="#454B53"/>
<path d="M3.10687 13.1506C2.19171 13.1506 1.44995 12.4088 1.44995 11.4937V7.97149C1.44995 4.05171 4.64116 0.861816 8.56292 0.861816H12.0831C12.9983 0.861816 13.7401 1.60357 13.7401 2.51874C13.7401 3.4339 12.9983 4.17566 12.0831 4.17566H8.56292C6.46753 4.17566 4.76314 5.87874 4.76314 7.97215V11.495C4.7638 12.4089 4.02204 13.1506 3.10687 13.1506Z" fill="#454B53"/>
<path d="M57.2177 13.1505C56.3025 13.1505 55.5607 12.4088 55.5607 11.4936V7.97141C55.5607 5.87801 53.857 4.17493 51.7623 4.17493H48.2421C47.3262 4.17493 46.5845 3.43317 46.5845 2.51801C46.5845 1.60284 47.3262 0.861084 48.2421 0.861084H51.7623C55.6834 0.861084 58.8739 4.05097 58.8739 7.97075V11.4936C58.8746 12.4088 58.1328 13.1505 57.2177 13.1505Z" fill="#454B53"/>
</svg>
