<svg width="60" height="60" viewBox="0 0 60 60" fill="none" xmlns="http://www.w3.org/2000/svg">
<path d="M42.8065 32.6235C39.4128 35.7205 34.963 37.618 30.0911 37.618C25.2641 37.618 20.7232 35.7567 17.3408 32.7066C17.3117 32.7257 17.0236 32.7547 16.99 32.7706C11.4153 35.4989 7.80933 40.2106 7.80933 46.0424V57.8717H51.7484V46.0398C51.7478 40.2304 48.4821 35.3492 42.8065 32.6235Z" fill="#E0F1F8"/>
<path d="M48.1741 20.0157C48.1741 30.0126 40.1229 38.1166 30.188 38.1166C20.2577 38.1166 12.2078 30.0126 12.2078 20.0157C12.2078 10.0214 20.2577 1.91284 30.188 1.91284C40.1236 1.91284 48.1741 10.0214 48.1741 20.0157Z" fill="#FDE9D0"/>
<path d="M30.188 39.7734C19.3603 39.7734 10.5515 30.9106 10.5515 20.0156C10.5515 9.12004 19.3603 0.255859 30.188 0.255859C41.019 0.255859 49.8304 9.11938 49.8304 20.0156C49.8304 30.9106 41.019 39.7734 30.188 39.7734ZM30.188 3.56971C21.1873 3.56971 13.8647 10.9471 13.8647 20.0156C13.8647 29.0829 21.1867 36.4596 30.188 36.4596C39.192 36.4596 46.5172 29.0829 46.5172 20.0156C46.5172 10.9477 39.192 3.56971 30.188 3.56971Z" fill="#454B53"/>
<path d="M52.4923 59.528C51.5765 59.528 50.8347 58.7863 50.8347 57.8711V43.6089C50.8347 38.8636 48.3088 35.5458 43.1112 33.4682C42.262 33.128 41.8485 32.1641 42.1881 31.3148C42.5277 30.4656 43.491 30.0515 44.3415 30.3917C50.7576 32.9572 54.1485 37.5271 54.1485 43.6089V57.8717C54.1485 58.7863 53.4068 59.528 52.4923 59.528Z" fill="#454B53"/>
<path d="M8.17523 59.528C7.26007 59.528 6.51831 58.7862 6.51831 57.871V43.6115C6.51831 37.6266 9.83282 33.0917 16.1051 30.4965C16.9504 30.1464 17.919 30.5486 18.2691 31.3932C18.6185 32.2385 18.217 33.2077 17.3717 33.5572C12.2981 35.6572 9.8315 38.9453 9.8315 43.6108V57.871C9.83216 58.7862 9.0904 59.528 8.17523 59.528Z" fill="#454B53"/>
<path d="M30.19 31.736C26.166 31.736 22.5786 29.1475 21.2638 25.2956C20.9678 24.4299 21.43 23.489 22.2957 23.193C23.1627 22.8982 24.103 23.3604 24.399 24.2255C25.2555 26.7356 27.583 28.4222 30.1893 28.4222C32.7924 28.4222 35.1205 26.7343 35.9836 24.2228C36.2803 23.3571 37.2212 22.8956 38.0876 23.1936C38.9533 23.4903 39.4142 24.4325 39.1168 25.2976C37.7962 29.1488 34.2087 31.736 30.19 31.736Z" fill="#454B53"/>
<path d="M25.0992 19.6246H22.8614C21.9456 19.6246 21.2039 18.8829 21.2039 17.9671C21.2039 17.0525 21.9456 16.3108 22.8614 16.3108H25.0992C26.0144 16.3108 26.7562 17.0525 26.7562 17.9671C26.7562 18.8829 26.0144 19.6246 25.0992 19.6246Z" fill="#454B53"/>
<path d="M37.8033 19.6246H35.5649C34.6497 19.6246 33.908 18.8829 33.908 17.9671C33.908 17.0525 34.6497 16.3108 35.5649 16.3108H37.8033C38.7185 16.3108 39.4603 17.0525 39.4603 17.9671C39.4603 18.8829 38.7185 19.6246 37.8033 19.6246Z" fill="#454B53"/>
</svg>
