<svg width="158.000000" height="158.000000" viewBox="0 0 158 158" fill="none" xmlns="http://www.w3.org/2000/svg" xmlns:xlink="http://www.w3.org/1999/xlink">
	<desc>
			Created with Pixso.
	</desc>
	<defs>
		<clipPath id="clip88_527">
			<rect id="beaver_russia" width="158.000000" height="158.000000" fill="white" fill-opacity="0"/>
		</clipPath>
		<linearGradient x1="49.910515" y1="43.340305" x2="45.306545" y2="31.108570" id="paint_linear_88_556_0" gradientUnits="userSpaceOnUse">
			<stop offset="0.040000" stop-color="#FFFFFF"/>
			<stop offset="0.050000" stop-color="#FDF5F5"/>
			<stop offset="0.120000" stop-color="#F9D7D8"/>
			<stop offset="0.200000" stop-color="#F6BFC0"/>
			<stop offset="0.290000" stop-color="#F4ACAE"/>
			<stop offset="0.390000" stop-color="#F29FA1"/>
			<stop offset="0.520000" stop-color="#F1989A"/>
			<stop offset="0.780000" stop-color="#F19698"/>
		</linearGradient>
		<linearGradient x1="21.569023" y1="38.575726" x2="16.965057" y2="26.343987" id="paint_linear_88_675_0" gradientUnits="userSpaceOnUse">
			<stop offset="0.040000" stop-color="#FFFFFF"/>
			<stop offset="0.050000" stop-color="#FDF5F5"/>
			<stop offset="0.120000" stop-color="#F9D7D8"/>
			<stop offset="0.200000" stop-color="#F6BFC0"/>
			<stop offset="0.290000" stop-color="#F4ACAE"/>
			<stop offset="0.390000" stop-color="#F29FA1"/>
			<stop offset="0.520000" stop-color="#F1989A"/>
			<stop offset="0.780000" stop-color="#F19698"/>
		</linearGradient>
		<radialGradient gradientTransform="translate(77.025 75.0627) rotate(0) scale(15.1016 15.1016)" cx="0.000000" cy="0.000000" r="1.000000" id="paint_radial_88_683_0" gradientUnits="userSpaceOnUse">
			<stop stop-color="#663A1C"/>
			<stop offset="0.700000" stop-color="#000000"/>
		</radialGradient>
	</defs>
	<g clip-path="url(#clip88_527)">
		<path id="path" d="M69.74 85.83C69.74 85.83 65.88 90.15 60.75 96.08C69.73 102.18 79.68 107.9 90.1 112.58C94.08 107.24 97.1 103.08 97.1 103.08L69.74 85.83Z" fill="#000000" fill-opacity="1.000000" fill-rule="nonzero"/>
		<path id="path" d="M45.66 114.12C43.28 117.08 40.27 120.92 39.81 126.4C39.7 127.73 39.56 129.61 40.26 131.83C42.41 138.61 50.25 141.83 55.68 142.5C57.22 142.69 60.14 143.03 63.51 141.88C68.57 140.16 71.36 136.23 72.99 133.98C77.22 128.17 82.66 121.35 90.1 112.58C79.68 107.9 69.73 102.18 60.75 96.08C55.6 101.99 50.65 107.94 45.66 114.12Z" fill="#000000" fill-opacity="1.000000" fill-rule="nonzero"/>
		<path id="path" d="" fill="#000000" fill-opacity="0" fill-rule="nonzero"/>
		<path id="path" d="M43.07 132.4C42.97 127.29 44.64 122.31 47.79 118.32" stroke="#CCCCCC" stroke-opacity="1.000000" stroke-width="1.000000"/>
		<path id="path" d="" fill="#000000" fill-opacity="0" fill-rule="nonzero"/>
		<path id="path" d="M48.18 132.68C50.78 128.85 53.38 125.01 55.98 121.18" stroke="#CCCCCC" stroke-opacity="1.000000" stroke-width="1.000000"/>
		<path id="path" d="" fill="#000000" fill-opacity="0" fill-rule="nonzero"/>
		<path id="path" d="M49.52 137.24C53.59 135.45 56.89 132.45 58.81 128.78" stroke="#CCCCCC" stroke-opacity="1.000000" stroke-width="1.000000"/>
		<path id="path" d="" fill="#000000" fill-opacity="0" fill-rule="nonzero"/>
		<path id="path" d="M55.59 138.79C59.47 136.4 62.9 133.46 65.74 130.1" stroke="#CCCCCC" stroke-opacity="1.000000" stroke-width="1.000000"/>
		<path id="path" d="M92.89 114.98C92.89 114.98 94.42 120.56 96.37 128.16C85.61 129.62 74.16 130.31 62.75 129.85C61.56 123.3 60.71 118.23 60.71 118.23L92.89 114.98Z" fill="#000000" fill-opacity="1.000000" fill-rule="nonzero"/>
		<path id="path" d="M112.12 114.31C114.5 117.27 117.52 121.11 117.97 126.59C118.08 127.92 118.22 129.8 117.52 132.02C115.38 138.8 107.54 142.02 102.1 142.69C100.57 142.88 97.64 143.22 94.27 142.07C89.21 140.35 86.43 136.42 84.79 134.17C80.57 128.35 75.13 121.54 67.69 112.77C78.11 108.09 88.05 102.37 97.04 96.27C102.18 102.18 107.14 108.13 112.12 114.31Z" fill="#000000" fill-opacity="1.000000" fill-rule="nonzero"/>
		<path id="path" d="" fill="#000000" fill-opacity="0" fill-rule="nonzero"/>
		<path id="path" d="M114.72 132.59C114.82 127.48 113.15 122.5 110 118.51" stroke="#CCCCCC" stroke-opacity="1.000000" stroke-width="1.000000"/>
		<path id="path" d="" fill="#000000" fill-opacity="0" fill-rule="nonzero"/>
		<path id="path" d="M109.61 132.87C107.01 129.03 104.41 125.2 101.8 121.36" stroke="#CCCCCC" stroke-opacity="1.000000" stroke-width="1.000000"/>
		<path id="path" d="" fill="#000000" fill-opacity="0" fill-rule="nonzero"/>
		<path id="path" d="M108.26 137.43C104.19 135.64 100.9 132.64 98.97 128.97" stroke="#CCCCCC" stroke-opacity="1.000000" stroke-width="1.000000"/>
		<path id="path" d="" fill="#000000" fill-opacity="0" fill-rule="nonzero"/>
		<path id="path" d="M102.19 138.98C98.31 136.59 94.88 133.65 92.05 130.29" stroke="#CCCCCC" stroke-opacity="1.000000" stroke-width="1.000000"/>
		<ellipse id="ellipse" rx="56.150051" ry="24.824963" transform="matrix(0.254096 -0.967179 0.967179 0.254096 114.732 61.8176)" fill="#593218" fill-opacity="1.000000"/>
		<ellipse id="ellipse" rx="56.150051" ry="24.824963" transform="matrix(0.254096 -0.967179 0.967179 0.254096 114.732 61.8176)" stroke="#1D1D1B" stroke-opacity="1.000000" stroke-width="1.000000"/>
		<path id="path" d="M99.82 139.17C99.82 142.25 104.23 144.75 109.66 144.75C111.44 144.75 113.11 144.48 114.54 144C115.59 145.52 117.42 146.52 119.5 146.52C122.78 146.52 125.43 144.03 125.43 140.95C125.43 137.87 122.78 135.38 119.5 135.38C118.76 135.38 118.06 135.5 117.41 135.74C115.6 134.43 112.81 133.6 109.66 133.6C104.23 133.6 99.82 136.09 99.82 139.17Z" fill="#9F6134" fill-opacity="1.000000" fill-rule="nonzero"/>
		<path id="path" d="M109.66 144.75C111.44 144.75 113.11 144.48 114.54 144C115.59 145.52 117.42 146.52 119.5 146.52C122.78 146.52 125.43 144.03 125.43 140.95C125.43 137.87 122.78 135.38 119.5 135.38C118.76 135.38 118.06 135.5 117.41 135.74C115.6 134.43 112.81 133.6 109.66 133.6C104.23 133.6 99.82 136.09 99.82 139.17C99.82 142.25 104.23 144.75 109.66 144.75Z" stroke="#1D1D1B" stroke-opacity="1.000000" stroke-width="1.000000"/>
		<ellipse id="ellipse" cx="116.629303" cy="142.945801" rx="5.934480" ry="5.577398" fill="#9F6134" fill-opacity="1.000000"/>
		<ellipse id="ellipse" cx="116.629303" cy="142.945801" rx="5.934480" ry="5.577398" stroke="#1D1D1B" stroke-opacity="1.000000" stroke-width="1.000000"/>
		<ellipse id="ellipse" cx="111.683868" cy="143.473389" rx="5.934480" ry="5.577398" fill="#9F6134" fill-opacity="1.000000"/>
		<path id="path" d="M106.05 143.78C106.16 144.92 106.61 146.03 107.44 146.92C109.52 149.19 113.17 149.23 115.58 147.01C117.99 144.79 118.26 141.16 116.17 138.89C115.33 137.98 114.23 137.42 113.07 137.24L106.05 143.78Z" fill="#9F6134" fill-opacity="1.000000" fill-rule="nonzero"/>
		<path id="path" d="M106.05 143.78C106.16 144.92 106.61 146.03 107.44 146.92C109.52 149.19 113.17 149.23 115.58 147.01C117.99 144.79 118.26 141.16 116.17 138.89C115.33 137.98 114.23 137.42 113.07 137.24" stroke="#1D1D1B" stroke-opacity="1.000000" stroke-width="1.000000"/>
		<path id="path" d="M55.86 138.96C55.86 142.04 51.46 144.53 46.02 144.53C44.24 144.53 42.58 144.26 41.14 143.79C40.09 145.31 38.26 146.31 36.18 146.31C32.9 146.31 30.25 143.81 30.25 140.74C30.25 137.66 32.9 135.16 36.18 135.16C36.93 135.16 37.63 135.29 38.28 135.53C40.08 134.22 42.88 133.38 46.02 133.38C51.46 133.38 55.86 135.88 55.86 138.96Z" fill="#9F6134" fill-opacity="1.000000" fill-rule="nonzero"/>
		<path id="path" d="M46.02 144.53C44.24 144.53 42.58 144.26 41.14 143.79C40.09 145.31 38.26 146.31 36.18 146.31C32.9 146.31 30.25 143.81 30.25 140.74C30.25 137.66 32.9 135.16 36.18 135.16C36.93 135.16 37.63 135.29 38.28 135.53C40.08 134.22 42.88 133.38 46.02 133.38C51.46 133.38 55.86 135.88 55.86 138.96C55.86 142.04 51.46 144.53 46.02 144.53Z" stroke="#1D1D1B" stroke-opacity="1.000000" stroke-width="1.000000"/>
		<ellipse id="ellipse" cx="39.060760" cy="142.734131" rx="5.934480" ry="5.577398" fill="#9F6134" fill-opacity="1.000000"/>
		<ellipse id="ellipse" cx="39.060760" cy="142.734131" rx="5.934480" ry="5.577398" stroke="#1D1D1B" stroke-opacity="1.000000" stroke-width="1.000000"/>
		<ellipse id="ellipse" cx="44.006134" cy="143.258545" rx="5.934480" ry="5.577398" fill="#9F6134" fill-opacity="1.000000"/>
		<path id="path" d="M49.63 143.56C49.52 144.71 49.07 145.82 48.25 146.71C46.16 148.98 42.51 149.01 40.1 146.8C37.69 144.58 37.43 140.94 39.51 138.67C40.35 137.76 41.45 137.21 42.61 137.02L49.63 143.56Z" fill="#9F6134" fill-opacity="1.000000" fill-rule="nonzero"/>
		<path id="path" d="M49.63 143.56C49.52 144.71 49.07 145.82 48.25 146.71C46.16 148.98 42.51 149.01 40.1 146.8C37.69 144.58 37.43 140.94 39.51 138.67C40.35 137.76 41.45 137.21 42.61 137.02" stroke="#1D1D1B" stroke-opacity="1.000000" stroke-width="1.000000"/>
		<path id="path" d="M138.66 70.77C130.78 100.76 113.64 122.26 100.38 118.77C97.35 117.97 108.93 110.4 115.82 100.76C123.39 90.16 126.66 76.9 130.1 63.26C134.27 46.68 135.51 30.68 133.29 20.64C131.72 13.53 126.06 9.41 128.92 10.16C142.18 13.64 146.54 40.78 138.66 70.77Z" fill="#2C1A10" fill-opacity="1.000000" fill-rule="nonzero"/>
		<ellipse id="ellipse" rx="7.176358" ry="6.010322" transform="matrix(0.864363 -0.502869 0.502869 0.864363 49.8307 40.3064)" fill="#9F6134" fill-opacity="1.000000"/>
		<ellipse id="ellipse" rx="7.176358" ry="6.010322" transform="matrix(0.864363 -0.502869 0.502869 0.864363 49.8307 40.3064)" stroke="#1D1D1B" stroke-opacity="1.000000" stroke-width="1.000000"/>
		<ellipse id="ellipse" rx="5.403602" ry="4.894841" transform="matrix(0.864363 -0.502869 0.502869 0.864363 50.3908 41.2708)" fill="url(#paint_linear_88_556_0)" fill-opacity="1.000000"/>
		<ellipse id="ellipse" rx="5.403602" ry="4.894841" transform="matrix(0.864363 -0.502869 0.502869 0.864363 50.3908 41.2708)" stroke="#1D1D1B" stroke-opacity="1.000000" stroke-width="1.000000"/>
		<path id="path" d="M49.27 92.73C48.49 91.66 47.91 90.48 47.15 89.4C47.02 89.32 46.89 89.3 46.77 89.36C46.79 89.68 46.54 90.16 46.55 90.4C45.86 89.57 44.91 88.17 44.05 88.75C43.64 87.69 42.59 87.06 42 87.74C41.27 86.78 40.44 85.6 39.36 85.1C39.09 85.6 39.03 86.16 39.3 86.81C38.94 85.66 37.72 84.03 36.29 83.98C36.43 84.26 36.5 84.47 36.74 84.78C36.14 84.19 34.14 81.41 34.23 83.47C33.38 82.19 31.17 81 29.78 80.88C29.76 81.12 29.64 81.38 29.64 81.62C29.1 81.15 28.54 80.68 28 80.22L24.43 83.19L24.31 83.24C23.97 83.79 24.22 84.67 24.98 85.08C24.93 85.66 24.63 87.6 25.73 87.24C25.34 87.38 25.17 87.84 24.85 88.01C25.21 88.65 25.79 89.11 26.44 89.25C26.16 90.3 26.96 91.24 28.05 91.09C27.72 91.8 29.03 92.36 29.84 92.37C28.88 93.56 31.11 94.31 32.19 94.48C32 94.59 31.78 95.2 31.58 95.35C32.27 96.19 33.58 96.43 34.49 96.66C33.63 97.88 35.46 98.91 36.64 99.51C36.35 99.46 36.05 99.48 35.77 99.44C36.52 100.26 37.46 101.04 38.48 101.11C38.16 101.12 37.87 101.29 37.57 101.31C38.45 101.99 39.44 102.43 40.33 102.24C40.05 102.27 39.83 102.39 39.6 102.43C40.27 102.88 41.05 103.05 41.75 103.23L49.27 92.73Z" fill="#9F6134" fill-opacity="1.000000" fill-rule="nonzero"/>
		<path id="path" d="M49.27 92.73C48.49 91.66 47.91 90.48 47.15 89.4C47.02 89.32 46.89 89.3 46.77 89.36C46.79 89.68 46.54 90.16 46.55 90.4C45.86 89.57 44.91 88.17 44.05 88.75C43.64 87.69 42.59 87.06 42 87.74C41.27 86.78 40.44 85.6 39.36 85.1C39.09 85.6 39.03 86.16 39.3 86.81C38.94 85.66 37.72 84.03 36.29 83.98C36.43 84.26 36.5 84.47 36.74 84.78C36.14 84.19 34.14 81.41 34.23 83.47C33.38 82.19 31.17 81 29.78 80.88C29.76 81.12 29.64 81.38 29.64 81.62C29.1 81.15 28.54 80.68 28 80.22L24.43 83.19L24.31 83.24C23.97 83.79 24.22 84.67 24.98 85.08C24.93 85.66 24.63 87.6 25.73 87.24C25.34 87.38 25.17 87.84 24.85 88.01C25.21 88.65 25.79 89.11 26.44 89.25C26.16 90.3 26.96 91.24 28.05 91.09C27.72 91.8 29.03 92.36 29.84 92.37C28.88 93.56 31.11 94.31 32.19 94.48C32 94.59 31.78 95.2 31.58 95.35C32.27 96.19 33.58 96.43 34.49 96.66C33.63 97.88 35.46 98.91 36.64 99.51C36.35 99.46 36.05 99.48 35.77 99.44C36.52 100.26 37.46 101.04 38.48 101.11C38.16 101.12 37.87 101.29 37.57 101.31C38.45 101.99 39.44 102.43 40.33 102.24C40.05 102.27 39.83 102.39 39.6 102.43C40.27 102.88 41.05 103.05 41.75 103.23" stroke="#1D1D1B" stroke-opacity="1.000000" stroke-width="1.000000"/>
		<path id="path" d="M31.04 82.29C31.07 81.66 30.71 80.87 30.02 80.26C29.04 79.38 27.78 79.18 27.22 79.81C26.74 80.36 26.93 81.34 27.63 82.16L31.04 82.29Z" fill="#9F6134" fill-opacity="1.000000" fill-rule="nonzero"/>
		<path id="path" d="M31.04 82.29C31.07 81.66 30.71 80.87 30.02 80.26C29.04 79.38 27.78 79.18 27.22 79.81C26.74 80.36 26.93 81.34 27.63 82.16" stroke="#1D1D1B" stroke-opacity="1.000000" stroke-width="1.000000"/>
		<path id="path" d="M25.88 84.1C24.94 83.37 23.82 83.23 23.3 83.81C22.74 84.44 23.08 85.66 24.06 86.53C24.67 87.08 25.39 87.36 25.98 87.34L25.88 84.1Z" fill="#9F6134" fill-opacity="1.000000" fill-rule="nonzero"/>
		<path id="path" d="M25.88 84.1C24.94 83.37 23.82 83.23 23.3 83.81C22.74 84.44 23.08 85.66 24.06 86.53C24.67 87.08 25.39 87.36 25.98 87.34" stroke="#1D1D1B" stroke-opacity="1.000000" stroke-width="1.000000"/>
		<path id="path" d="M27.99 82.31C27.83 82.07 27.64 81.85 27.4 81.64C26.43 80.77 25.17 80.57 24.61 81.2C24.06 81.83 24.39 83.05 25.38 83.92C25.57 84.09 25.77 84.23 25.98 84.35L27.99 82.31Z" fill="#9F6134" fill-opacity="1.000000" fill-rule="nonzero"/>
		<path id="path" d="M27.99 82.31C27.83 82.07 27.64 81.85 27.4 81.64C26.43 80.77 25.17 80.57 24.61 81.2C24.06 81.83 24.39 83.05 25.38 83.92C25.57 84.09 25.77 84.23 25.98 84.35" stroke="#1D1D1B" stroke-opacity="1.000000" stroke-width="1.000000"/>
		<path id="path" d="M104.55 90.11C105.44 89.12 106.15 88 107.01 87.01C107.16 86.95 107.29 86.95 107.4 87.02C107.35 87.34 107.55 87.86 107.52 88.11C108.3 87.35 109.39 86.05 110.2 86.76C110.72 85.74 111.84 85.24 112.37 86.01C113.19 85.13 114.14 84.04 115.28 83.69C115.5 84.23 115.51 84.81 115.17 85.43C115.65 84.31 117.04 82.82 118.48 82.96C118.31 83.23 118.23 83.42 117.95 83.71C118.62 83.19 120.9 80.64 120.61 82.71C121.59 81.52 123.93 80.61 125.34 80.67C125.34 80.92 125.43 81.2 125.41 81.44C126 81.05 126.61 80.64 127.21 80.24L130.51 83.74L130.62 83.8C130.91 84.4 130.57 85.27 129.76 85.59C129.76 86.18 129.87 88.19 128.8 87.67C129.18 87.87 129.3 88.36 129.61 88.58C129.19 89.17 128.56 89.57 127.89 89.62C128.06 90.72 127.17 91.57 126.09 91.27C126.34 92.04 124.97 92.43 124.16 92.34C125.01 93.67 122.69 94.13 121.59 94.16C121.77 94.31 121.93 94.95 122.11 95.13C121.33 95.89 119.99 95.96 119.05 96.07C119.8 97.42 117.85 98.23 116.61 98.68C116.91 98.67 117.2 98.73 117.49 98.72C116.66 99.45 115.63 100.12 114.6 100.05C114.91 100.11 115.19 100.32 115.5 100.38C114.54 100.95 113.5 101.27 112.63 100.96C112.9 101.02 113.11 101.18 113.34 101.25C112.62 101.61 111.82 101.69 111.09 101.77L104.55 90.11Z" fill="#9F6134" fill-opacity="1.000000" fill-rule="nonzero"/>
		<path id="path" d="M104.55 90.11C105.44 89.12 106.15 88 107.01 87.01C107.16 86.95 107.29 86.95 107.4 87.02C107.35 87.34 107.55 87.86 107.52 88.11C108.3 87.35 109.39 86.05 110.2 86.76C110.72 85.74 111.84 85.24 112.37 86.01C113.19 85.13 114.14 84.04 115.28 83.69C115.5 84.23 115.51 84.81 115.17 85.43C115.65 84.31 117.04 82.82 118.48 82.96C118.31 83.23 118.23 83.42 117.95 83.71C118.62 83.19 120.9 80.64 120.61 82.71C121.59 81.52 123.93 80.61 125.34 80.67C125.34 80.92 125.43 81.2 125.41 81.44C126 81.05 126.61 80.64 127.21 80.24L130.51 83.74L130.62 83.8C130.91 84.4 130.57 85.27 129.76 85.59C129.76 86.18 129.87 88.19 128.8 87.67C129.18 87.87 129.3 88.36 129.61 88.58C129.19 89.17 128.56 89.57 127.89 89.62C128.06 90.72 127.17 91.57 126.09 91.27C126.34 92.04 124.97 92.43 124.16 92.34C125.01 93.67 122.69 94.13 121.59 94.16C121.77 94.31 121.93 94.95 122.11 95.13C121.33 95.89 119.99 95.96 119.05 96.07C119.8 97.42 117.85 98.23 116.61 98.68C116.91 98.67 117.2 98.73 117.49 98.72C116.66 99.45 115.63 100.12 114.6 100.05C114.91 100.11 115.19 100.32 115.5 100.38C114.54 100.95 113.5 101.27 112.63 100.96C112.9 101.02 113.11 101.18 113.34 101.25C112.62 101.61 111.82 101.69 111.09 101.77" stroke="#1D1D1B" stroke-opacity="1.000000" stroke-width="1.000000"/>
		<path id="path" d="M123.94 81.93C123.97 81.29 124.41 80.54 125.17 80.01C126.24 79.25 127.52 79.21 128.02 79.93C128.45 80.54 128.17 81.52 127.38 82.26L123.94 81.93Z" fill="#9F6134" fill-opacity="1.000000" fill-rule="nonzero"/>
		<path id="path" d="M123.94 81.93C123.97 81.29 124.41 80.54 125.17 80.01C126.24 79.25 127.52 79.21 128.02 79.93C128.45 80.54 128.17 81.52 127.38 82.26" stroke="#1D1D1B" stroke-opacity="1.000000" stroke-width="1.000000"/>
		<path id="path" d="M128.95 84.45C129.97 83.84 131.11 83.85 131.58 84.51C132.08 85.22 131.62 86.41 130.54 87.17C129.87 87.64 129.12 87.83 128.53 87.74L128.95 84.45Z" fill="#9F6134" fill-opacity="1.000000" fill-rule="nonzero"/>
		<path id="path" d="M128.95 84.45C129.97 83.84 131.11 83.85 131.58 84.51C132.08 85.22 131.62 86.41 130.54 87.17C129.87 87.64 129.12 87.83 128.53 87.74" stroke="#1D1D1B" stroke-opacity="1.000000" stroke-width="1.000000"/>
		<path id="path" d="M127.01 82.36C127.19 82.14 127.41 81.94 127.66 81.76C128.74 81 130.01 80.96 130.52 81.68C131.02 82.39 130.55 83.58 129.48 84.34C129.27 84.49 129.05 84.6 128.83 84.69L127.01 82.36Z" fill="#9F6134" fill-opacity="1.000000" fill-rule="nonzero"/>
		<path id="path" d="M127.01 82.36C127.19 82.14 127.41 81.94 127.66 81.76C128.74 81 130.01 80.96 130.52 81.68C131.02 82.39 130.55 83.58 129.48 84.34C129.27 84.49 129.05 84.6 128.83 84.69" stroke="#1D1D1B" stroke-opacity="1.000000" stroke-width="1.000000"/>
		<path id="path" d="M39.5 116.92L38.55 120.71C42.42 121.62 49.22 123.12 56.56 124.2C61.6 124.94 65.24 125.24 66.22 125.31C66.22 125.31 68.94 125.53 71.77 125.64C84.01 126.1 90.13 126.33 94.48 125.76C100.64 124.96 105.68 123.36 112.66 121.14C115.47 120.25 117.79 119.42 119.45 118.81L117.55 115.97C117.04 116.15 116.28 116.4 115.37 116.7C111.06 118.1 104.63 119.9 96.73 121.06C93.85 121.48 87.34 122.4 78.94 122.24C70.52 122.09 56.71 120.06 45.5 118.05C42.98 117.6 40.9 117.2 39.5 116.92Z" fill="#ED9C09" fill-opacity="1.000000" fill-rule="nonzero"/>
		<path id="path" d="M38.55 120.71C42.42 121.62 49.22 123.12 56.56 124.2C61.6 124.94 65.24 125.24 66.22 125.31C66.22 125.31 68.94 125.53 71.77 125.64C84.01 126.1 90.13 126.33 94.48 125.76C100.64 124.96 105.68 123.36 112.66 121.14C115.47 120.25 117.79 119.42 119.45 118.81L117.55 115.97C117.04 116.15 116.28 116.4 115.37 116.7C111.06 118.1 104.63 119.9 96.73 121.06C93.85 121.48 87.34 122.4 78.94 122.24C70.52 122.09 56.71 120.06 45.5 118.05C42.98 117.6 40.9 117.2 39.5 116.92L38.55 120.71Z" stroke="#2D1404" stroke-opacity="1.000000" stroke-width="0.250000"/>
		<path id="path" d="M46.79 119.98C46.93 119.79 46.73 119.57 46.36 119.47C46.31 119.46 46.26 119.45 46.21 119.44C46.22 119.43 46.23 119.42 46.24 119.41C46.37 119.22 46.17 119 45.8 118.9C45.42 118.81 45.01 118.89 44.87 119.07C44.86 119.08 44.85 119.1 44.85 119.11C44.78 119.07 44.69 119.04 44.59 119.01C44.21 118.92 43.8 118.99 43.66 119.18C43.55 119.34 43.68 119.53 43.96 119.64C43.79 119.67 43.65 119.73 43.58 119.83C43.45 120.02 43.64 120.24 44.02 120.33C44.26 120.39 44.52 120.39 44.71 120.32C44.76 120.44 44.93 120.56 45.17 120.62C45.54 120.71 45.96 120.63 46.09 120.45C46.15 120.36 46.14 120.26 46.07 120.17C46.38 120.2 46.69 120.13 46.79 119.98Z" fill="#FFB100" fill-opacity="1.000000" fill-rule="nonzero"/>
		<path id="path" d="M46.36 119.47C46.31 119.46 46.26 119.45 46.21 119.44C46.22 119.43 46.23 119.42 46.24 119.41C46.37 119.22 46.17 119 45.8 118.9C45.42 118.81 45.01 118.89 44.87 119.07C44.86 119.08 44.85 119.1 44.85 119.11C44.78 119.07 44.69 119.04 44.59 119.01C44.21 118.92 43.8 118.99 43.66 119.18C43.55 119.34 43.68 119.53 43.96 119.64C43.79 119.67 43.65 119.73 43.58 119.83C43.45 120.02 43.64 120.24 44.02 120.33C44.26 120.39 44.52 120.39 44.71 120.32C44.76 120.44 44.93 120.56 45.17 120.62C45.54 120.71 45.96 120.63 46.09 120.45C46.15 120.36 46.14 120.26 46.07 120.17C46.38 120.2 46.69 120.13 46.79 119.98C46.93 119.79 46.73 119.57 46.36 119.47Z" stroke="#666666" stroke-opacity="1.000000" stroke-width="0.250000"/>
		<path id="path" d="M46.16 119.95C45.99 120.23 45.38 120.36 44.81 120.24C44.23 120.12 43.9 119.78 44.07 119.5C44.24 119.21 44.85 119.08 45.42 119.2C46 119.33 46.33 119.66 46.16 119.95Z" fill="#FF2E2B" fill-opacity="1.000000" fill-rule="nonzero"/>
		<path id="path" d="M44.81 120.24C44.23 120.12 43.9 119.78 44.07 119.5C44.24 119.21 44.85 119.08 45.42 119.2C46 119.33 46.33 119.66 46.16 119.95C45.99 120.23 45.38 120.36 44.81 120.24Z" stroke="#666666" stroke-opacity="1.000000" stroke-width="0.250000"/>
		<path id="path" d="M45.91 119.8C45.79 119.99 45.39 120.08 45 120C44.61 119.91 44.39 119.69 44.51 119.5C44.62 119.3 45.03 119.22 45.41 119.3C45.8 119.38 46.02 119.6 45.91 119.8Z" fill="#FFB100" fill-opacity="1.000000" fill-rule="nonzero"/>
		<path id="path" d="M45 120C44.61 119.91 44.39 119.69 44.51 119.5C44.62 119.3 45.03 119.22 45.41 119.3C45.8 119.38 46.02 119.6 45.91 119.8C45.79 119.99 45.39 120.08 45 120Z" stroke="#666666" stroke-opacity="1.000000" stroke-width="0.250000"/>
		<path id="path" d="M45.59 119.55C45.55 119.63 45.38 119.66 45.22 119.63C45.06 119.6 44.97 119.5 45.02 119.42C45.07 119.35 45.23 119.31 45.39 119.34C45.55 119.38 45.64 119.47 45.59 119.55Z" fill="#FF2E2B" fill-opacity="1.000000" fill-rule="nonzero"/>
		<path id="path" d="M45.22 119.63C45.06 119.6 44.97 119.5 45.02 119.42C45.07 119.35 45.23 119.31 45.39 119.34C45.55 119.38 45.64 119.47 45.59 119.55C45.55 119.63 45.38 119.66 45.22 119.63Z" stroke="#666666" stroke-opacity="1.000000" stroke-width="0.250000"/>
		<path id="path" d="M53.47 121.44C53.43 121.23 53.07 121.05 52.67 121.05C52.62 121.05 52.57 121.05 52.52 121.06C52.52 121.04 52.52 121.03 52.52 121.02C52.48 120.81 52.12 120.63 51.72 120.63C51.32 120.63 51.02 120.79 51.06 121C51.06 121.02 51.07 121.03 51.08 121.05C50.98 121.03 50.88 121.01 50.77 121.01C50.37 121.01 50.07 121.18 50.12 121.38C50.15 121.57 50.43 121.72 50.76 121.76C50.64 121.83 50.57 121.93 50.59 122.03C50.63 122.25 50.99 122.42 51.39 122.42C51.65 122.42 51.87 122.36 51.97 122.25C52.12 122.36 52.36 122.43 52.62 122.43C53.02 122.43 53.31 122.27 53.27 122.06C53.25 121.96 53.16 121.86 53.03 121.79C53.32 121.75 53.51 121.61 53.47 121.44Z" fill="#FFB100" fill-opacity="1.000000" fill-rule="nonzero"/>
		<path id="path" d="M52.67 121.05C52.62 121.05 52.57 121.05 52.52 121.06C52.52 121.04 52.52 121.03 52.52 121.02C52.48 120.81 52.12 120.63 51.72 120.63C51.32 120.63 51.02 120.79 51.06 121C51.06 121.02 51.07 121.03 51.08 121.05C50.98 121.03 50.88 121.01 50.77 121.01C50.37 121.01 50.07 121.18 50.12 121.38C50.15 121.57 50.43 121.72 50.76 121.76C50.64 121.83 50.57 121.93 50.59 122.03C50.63 122.25 50.99 122.42 51.39 122.42C51.65 122.42 51.87 122.36 51.97 122.25C52.12 122.36 52.36 122.43 52.62 122.43C53.02 122.43 53.31 122.27 53.27 122.06C53.25 121.96 53.16 121.86 53.03 121.79C53.32 121.75 53.51 121.61 53.47 121.44C53.43 121.23 53.07 121.05 52.67 121.05Z" stroke="#666666" stroke-opacity="1.000000" stroke-width="0.250000"/>
		<path id="path" d="M52.9 121.55C52.99 121.87 52.58 122.13 51.98 122.14C51.38 122.15 50.82 121.91 50.73 121.59C50.63 121.27 51.04 121.01 51.64 121C52.24 120.99 52.8 121.24 52.9 121.55Z" fill="#FF2E2B" fill-opacity="1.000000" fill-rule="nonzero"/>
		<path id="path" d="M51.98 122.14C51.38 122.15 50.82 121.91 50.73 121.59C50.63 121.27 51.04 121.01 51.64 121C52.24 120.99 52.8 121.24 52.9 121.55C52.99 121.87 52.58 122.13 51.98 122.14Z" stroke="#666666" stroke-opacity="1.000000" stroke-width="0.250000"/>
		<path id="path" d="M52.56 121.46C52.62 121.67 52.34 121.85 51.94 121.86C51.54 121.87 51.16 121.7 51.1 121.49C51.04 121.28 51.31 121.1 51.71 121.09C52.12 121.09 52.5 121.25 52.56 121.46Z" fill="#FFB100" fill-opacity="1.000000" fill-rule="nonzero"/>
		<path id="path" d="M51.94 121.86C51.54 121.87 51.16 121.7 51.1 121.49C51.04 121.28 51.31 121.1 51.71 121.09C52.12 121.09 52.5 121.25 52.56 121.46C52.62 121.67 52.34 121.85 51.94 121.86Z" stroke="#666666" stroke-opacity="1.000000" stroke-width="0.250000"/>
		<path id="path" d="M52.08 121.29C52.1 121.38 51.99 121.45 51.82 121.46C51.65 121.46 51.5 121.39 51.47 121.3C51.45 121.22 51.56 121.14 51.73 121.14C51.89 121.14 52.05 121.21 52.08 121.29Z" fill="#FF2E2B" fill-opacity="1.000000" fill-rule="nonzero"/>
		<path id="path" d="M51.82 121.46C51.65 121.46 51.5 121.39 51.47 121.3C51.45 121.22 51.56 121.14 51.73 121.14C51.89 121.14 52.05 121.21 52.08 121.29C52.1 121.38 51.99 121.45 51.82 121.46Z" stroke="#666666" stroke-opacity="1.000000" stroke-width="0.250000"/>
		<path id="path" d="M59.71 122.24C59.67 122.03 59.31 121.85 58.91 121.85C58.86 121.85 58.81 121.85 58.76 121.85C58.76 121.84 58.76 121.83 58.76 121.82C58.71 121.61 58.36 121.43 57.96 121.43C57.55 121.42 57.26 121.59 57.3 121.8C57.3 121.82 57.31 121.83 57.32 121.85C57.22 121.83 57.12 121.81 57.01 121.81C56.61 121.81 56.31 121.97 56.35 122.18C56.39 122.37 56.66 122.52 57 122.56C56.88 122.63 56.81 122.73 56.83 122.83C56.87 123.05 57.23 123.22 57.63 123.22C57.89 123.22 58.1 123.16 58.21 123.05C58.36 123.16 58.6 123.23 58.86 123.23C59.26 123.23 59.55 123.07 59.51 122.86C59.49 122.76 59.4 122.66 59.27 122.59C59.56 122.55 59.74 122.41 59.71 122.24Z" fill="#FFB100" fill-opacity="1.000000" fill-rule="nonzero"/>
		<path id="path" d="M58.91 121.85C58.86 121.85 58.81 121.85 58.76 121.85C58.76 121.84 58.76 121.83 58.76 121.82C58.71 121.61 58.36 121.43 57.96 121.43C57.55 121.42 57.26 121.59 57.3 121.8C57.3 121.82 57.31 121.83 57.32 121.85C57.22 121.83 57.12 121.81 57.01 121.81C56.61 121.81 56.31 121.97 56.35 122.18C56.39 122.37 56.66 122.52 57 122.56C56.88 122.63 56.81 122.73 56.83 122.83C56.87 123.05 57.23 123.22 57.63 123.22C57.89 123.22 58.1 123.16 58.21 123.05C58.36 123.16 58.6 123.23 58.86 123.23C59.26 123.23 59.55 123.07 59.51 122.86C59.49 122.76 59.4 122.66 59.27 122.59C59.56 122.55 59.74 122.41 59.71 122.24C59.67 122.03 59.31 121.85 58.91 121.85Z" stroke="#666666" stroke-opacity="1.000000" stroke-width="0.250000"/>
		<path id="path" d="M59.13 122.35C59.23 122.67 58.82 122.93 58.22 122.94C57.62 122.95 57.06 122.7 56.96 122.39C56.87 122.07 57.28 121.81 57.88 121.8C58.48 121.79 59.04 122.03 59.13 122.35Z" fill="#FF2E2B" fill-opacity="1.000000" fill-rule="nonzero"/>
		<path id="path" d="M58.22 122.94C57.62 122.95 57.06 122.7 56.96 122.39C56.87 122.07 57.28 121.81 57.88 121.8C58.48 121.79 59.04 122.03 59.13 122.35C59.23 122.67 58.82 122.93 58.22 122.94Z" stroke="#666666" stroke-opacity="1.000000" stroke-width="0.250000"/>
		<path id="path" d="M58.79 122.26C58.86 122.47 58.58 122.65 58.18 122.66C57.78 122.67 57.4 122.5 57.34 122.29C57.27 122.08 57.55 121.9 57.95 121.89C58.35 121.89 58.73 122.05 58.79 122.26Z" fill="#FFB100" fill-opacity="1.000000" fill-rule="nonzero"/>
		<path id="path" d="M58.18 122.66C57.78 122.67 57.4 122.5 57.34 122.29C57.27 122.08 57.55 121.9 57.95 121.89C58.35 121.89 58.73 122.05 58.79 122.26C58.86 122.47 58.58 122.65 58.18 122.66Z" stroke="#666666" stroke-opacity="1.000000" stroke-width="0.250000"/>
		<path id="path" d="M58.31 122.09C58.34 122.18 58.22 122.26 58.06 122.26C57.89 122.26 57.74 122.19 57.71 122.1C57.69 122.02 57.8 121.94 57.97 121.94C58.13 121.94 58.29 122.01 58.31 122.09Z" fill="#FF2E2B" fill-opacity="1.000000" fill-rule="nonzero"/>
		<path id="path" d="M58.06 122.26C57.89 122.26 57.74 122.19 57.71 122.1C57.69 122.02 57.8 121.94 57.97 121.94C58.13 121.94 58.29 122.01 58.31 122.09C58.34 122.18 58.22 122.26 58.06 122.26Z" stroke="#666666" stroke-opacity="1.000000" stroke-width="0.250000"/>
		<path id="path" d="M67.84 123.15C67.8 122.94 67.44 122.76 67.04 122.76C66.98 122.76 66.94 122.76 66.89 122.77C66.89 122.76 66.89 122.74 66.88 122.73C66.84 122.52 66.48 122.34 66.08 122.34C65.68 122.34 65.39 122.51 65.43 122.71C65.43 122.73 65.44 122.75 65.44 122.76C65.35 122.74 65.24 122.72 65.14 122.72C64.73 122.72 64.44 122.89 64.48 123.1C64.52 123.28 64.79 123.43 65.13 123.48C65.01 123.54 64.94 123.64 64.96 123.75C65 123.96 65.36 124.13 65.76 124.14C66.02 124.14 66.23 124.07 66.34 123.96C66.49 124.07 66.73 124.14 66.98 124.14C67.39 124.15 67.68 123.98 67.64 123.77C67.62 123.67 67.53 123.58 67.39 123.51C67.69 123.46 67.87 123.32 67.84 123.15Z" fill="#FFB100" fill-opacity="1.000000" fill-rule="nonzero"/>
		<path id="path" d="M67.04 122.76C66.98 122.76 66.94 122.76 66.89 122.77C66.89 122.76 66.89 122.74 66.88 122.73C66.84 122.52 66.48 122.34 66.08 122.34C65.68 122.34 65.39 122.51 65.43 122.71C65.43 122.73 65.44 122.75 65.44 122.76C65.35 122.74 65.24 122.72 65.14 122.72C64.73 122.72 64.44 122.89 64.48 123.1C64.52 123.28 64.79 123.43 65.13 123.48C65.01 123.54 64.94 123.64 64.96 123.75C65 123.96 65.36 124.13 65.76 124.14C66.02 124.14 66.23 124.07 66.34 123.96C66.49 124.07 66.73 124.14 66.98 124.14C67.39 124.15 67.68 123.98 67.64 123.77C67.62 123.67 67.53 123.58 67.39 123.51C67.69 123.46 67.87 123.32 67.84 123.15C67.8 122.94 67.44 122.76 67.04 122.76Z" stroke="#666666" stroke-opacity="1.000000" stroke-width="0.250000"/>
		<path id="path" d="M67.26 123.26C67.35 123.58 66.94 123.85 66.34 123.86C65.74 123.86 65.18 123.62 65.09 123.3C65 122.99 65.4 122.72 66 122.71C66.6 122.7 67.16 122.95 67.26 123.26Z" fill="#FF2E2B" fill-opacity="1.000000" fill-rule="nonzero"/>
		<path id="path" d="M66.34 123.86C65.74 123.86 65.18 123.62 65.09 123.3C65 122.99 65.4 122.72 66 122.71C66.6 122.7 67.16 122.95 67.26 123.26C67.35 123.58 66.94 123.85 66.34 123.86Z" stroke="#666666" stroke-opacity="1.000000" stroke-width="0.250000"/>
		<path id="path" d="M66.92 123.18C66.98 123.39 66.71 123.56 66.3 123.57C65.9 123.58 65.52 123.42 65.46 123.2C65.4 122.99 65.67 122.82 66.08 122.81C66.48 122.8 66.86 122.96 66.92 123.18Z" fill="#FFB100" fill-opacity="1.000000" fill-rule="nonzero"/>
		<path id="path" d="M66.3 123.57C65.9 123.58 65.52 123.42 65.46 123.2C65.4 122.99 65.67 122.82 66.08 122.81C66.48 122.8 66.86 122.96 66.92 123.18C66.98 123.39 66.71 123.56 66.3 123.57Z" stroke="#666666" stroke-opacity="1.000000" stroke-width="0.250000"/>
		<path id="path" d="M66.44 123C66.47 123.09 66.35 123.17 66.19 123.17C66.02 123.17 65.87 123.1 65.84 123.02C65.81 122.93 65.93 122.86 66.09 122.85C66.26 122.85 66.42 122.92 66.44 123Z" fill="#FF2E2B" fill-opacity="1.000000" fill-rule="nonzero"/>
		<path id="path" d="M66.19 123.17C66.02 123.17 65.87 123.1 65.84 123.02C65.81 122.93 65.93 122.86 66.09 122.85C66.26 122.85 66.42 122.92 66.44 123C66.47 123.09 66.35 123.17 66.19 123.17Z" stroke="#666666" stroke-opacity="1.000000" stroke-width="0.250000"/>
		<path id="path" d="M76.12 123.95C76.08 123.74 75.73 123.57 75.33 123.56C75.28 123.56 75.23 123.56 75.18 123.57C75.18 123.56 75.18 123.55 75.18 123.53C75.14 123.32 74.79 123.15 74.39 123.15C73.99 123.15 73.71 123.31 73.74 123.52C73.74 123.54 73.75 123.55 73.76 123.57C73.66 123.55 73.56 123.53 73.45 123.53C73.05 123.53 72.77 123.69 72.8 123.9C72.84 124.08 73.11 124.23 73.44 124.27C73.32 124.34 73.25 124.43 73.27 124.54C73.31 124.75 73.67 124.92 74.06 124.92C74.32 124.92 74.53 124.86 74.64 124.75C74.79 124.86 75.02 124.93 75.28 124.93C75.67 124.94 75.96 124.77 75.92 124.56C75.9 124.46 75.81 124.37 75.68 124.3C75.97 124.26 76.15 124.12 76.12 123.95Z" fill="#FFB100" fill-opacity="1.000000" fill-rule="nonzero"/>
		<path id="path" d="M75.33 123.56C75.28 123.56 75.23 123.56 75.18 123.57C75.18 123.56 75.18 123.55 75.18 123.53C75.14 123.32 74.79 123.15 74.39 123.15C73.99 123.15 73.71 123.31 73.74 123.52C73.74 123.54 73.75 123.55 73.76 123.57C73.66 123.55 73.56 123.53 73.45 123.53C73.05 123.53 72.77 123.69 72.8 123.9C72.84 124.08 73.11 124.23 73.44 124.27C73.32 124.34 73.25 124.43 73.27 124.54C73.31 124.75 73.67 124.92 74.06 124.92C74.32 124.92 74.53 124.86 74.64 124.75C74.79 124.86 75.02 124.93 75.28 124.93C75.67 124.94 75.96 124.77 75.92 124.56C75.9 124.46 75.81 124.37 75.68 124.3C75.97 124.26 76.15 124.12 76.12 123.95C76.08 123.74 75.73 123.57 75.33 123.56Z" stroke="#666666" stroke-opacity="1.000000" stroke-width="0.250000"/>
		<path id="path" d="M75.55 124.06C75.64 124.37 75.24 124.64 74.64 124.64C74.05 124.65 73.5 124.41 73.41 124.1C73.31 123.79 73.72 123.52 74.31 123.51C74.9 123.5 75.46 123.75 75.55 124.06Z" fill="#FF2E2B" fill-opacity="1.000000" fill-rule="nonzero"/>
		<path id="path" d="M74.64 124.64C74.05 124.65 73.5 124.41 73.41 124.1C73.31 123.79 73.72 123.52 74.31 123.51C74.9 123.5 75.46 123.75 75.55 124.06C75.64 124.37 75.24 124.64 74.64 124.64Z" stroke="#666666" stroke-opacity="1.000000" stroke-width="0.250000"/>
		<path id="path" d="M75.22 123.97C75.28 124.18 75 124.36 74.61 124.36C74.21 124.37 73.83 124.21 73.77 124C73.71 123.79 73.99 123.61 74.38 123.61C74.78 123.6 75.16 123.76 75.22 123.97Z" fill="#FFB100" fill-opacity="1.000000" fill-rule="nonzero"/>
		<path id="path" d="M74.61 124.36C74.21 124.37 73.83 124.21 73.77 124C73.71 123.79 73.99 123.61 74.38 123.61C74.78 123.6 75.16 123.76 75.22 123.97C75.28 124.18 75 124.36 74.61 124.36Z" stroke="#666666" stroke-opacity="1.000000" stroke-width="0.250000"/>
		<path id="path" d="M74.74 123.8C74.77 123.89 74.65 123.96 74.49 123.97C74.32 123.97 74.17 123.9 74.14 123.81C74.12 123.73 74.23 123.66 74.4 123.65C74.56 123.65 74.72 123.72 74.74 123.8Z" fill="#FF2E2B" fill-opacity="1.000000" fill-rule="nonzero"/>
		<path id="path" d="M74.49 123.97C74.32 123.97 74.17 123.9 74.14 123.81C74.12 123.73 74.23 123.66 74.4 123.65C74.56 123.65 74.72 123.72 74.74 123.8C74.77 123.89 74.65 123.96 74.49 123.97Z" stroke="#666666" stroke-opacity="1.000000" stroke-width="0.250000"/>
		<path id="path" d="M127.03 91.95C125.79 91.15 123.67 89.57 121.97 86.85C120.59 84.64 120.02 82.56 119.76 81.21C115.28 83.44 110.81 85.68 106.33 87.92C105.88 87.45 105.41 87.02 104.91 86.62C91.88 76.08 60.29 83.35 48.66 86.38C47.82 86.93 46.97 87.48 46.13 88.04C42.76 86.3 39.39 84.57 36.02 82.84C35.67 83.86 34.7 86.29 32.23 88.27C30.1 89.98 27.92 90.5 26.86 90.69C28.19 93.1 30.44 96.49 34.12 99.62C36.26 101.44 38.35 102.73 40.13 103.64C44.05 106 44.83 107.69 44.71 108.86C44.59 110.06 43.5 110.6 41.55 113.28C40.52 114.7 39.79 115.94 39.34 116.76C42.49 117.54 46.87 118.54 52.14 119.47C58.49 120.59 67.13 122.21 78.3 122.24C87.46 122.27 98.78 122.44 112.18 117.81C114.4 117.05 116.2 116.31 117.39 115.81C117.02 115.25 116.08 113.85 114.86 112.01C113 109.23 112.39 108.57 112.02 107.27C111.73 106.27 111.5 104.63 112.18 102.38L118.81 97.96C121.55 95.95 124.29 93.95 127.03 91.95Z" fill="#FFFFFF" fill-opacity="1.000000" fill-rule="nonzero"/>
		<path id="path" d="M121.97 86.85C120.59 84.64 120.02 82.56 119.76 81.21C115.28 83.44 110.81 85.68 106.33 87.92C105.88 87.45 105.41 87.02 104.91 86.62C91.88 76.08 60.29 83.35 48.66 86.38C47.82 86.93 46.97 87.48 46.13 88.04C42.76 86.3 39.39 84.57 36.02 82.84C35.67 83.86 34.7 86.29 32.23 88.27C30.1 89.98 27.92 90.5 26.86 90.69C28.19 93.1 30.44 96.49 34.12 99.62C36.26 101.44 38.35 102.73 40.13 103.64C44.05 106 44.83 107.69 44.71 108.86C44.59 110.06 43.5 110.6 41.55 113.28C40.52 114.7 39.79 115.94 39.34 116.76C42.49 117.54 46.87 118.54 52.14 119.47C58.49 120.59 67.13 122.21 78.3 122.24C87.46 122.27 98.78 122.44 112.18 117.81C114.4 117.05 116.2 116.31 117.39 115.81C117.02 115.25 116.08 113.85 114.86 112.01C113 109.23 112.39 108.57 112.02 107.27C111.73 106.27 111.5 104.63 112.18 102.38L118.81 97.96C121.55 95.95 124.29 93.95 127.03 91.95C125.79 91.15 123.67 89.57 121.97 86.85Z" stroke="#004A9B" stroke-opacity="1.000000" stroke-width="0.250000"/>
		<path id="path" d="M92.27 105.52C94.48 105.13 96.69 104.74 98.9 104.34L97.01 93C99.17 92.52 102.17 91.63 105.22 89.93C106.79 89.05 108.04 88.14 109.02 87.32C107.22 86.62 105.44 85.91 103.64 85.2C98.84 86.83 90.57 89.08 79.94 89.21C66.21 89.4 55.84 85.97 50.87 84.02C49.71 85.04 48.55 86.06 47.4 87.09C49.42 88.83 52.01 90.63 55.29 92.2C69.28 98.89 85.21 96.24 89.74 95.36C90.58 98.75 91.42 102.14 92.27 105.52Z" fill="#ED9C09" fill-opacity="1.000000" fill-rule="nonzero"/>
		<path id="path" d="M98.9 104.34L97.01 93C99.17 92.52 102.17 91.63 105.22 89.93C106.79 89.05 108.04 88.14 109.02 87.32C107.22 86.62 105.44 85.91 103.64 85.2C98.84 86.83 90.57 89.08 79.94 89.21C66.21 89.4 55.84 85.97 50.87 84.02C49.71 85.04 48.55 86.06 47.4 87.09C49.42 88.83 52.01 90.63 55.29 92.2C69.28 98.89 85.21 96.24 89.74 95.36C90.58 98.75 91.42 102.14 92.27 105.52C94.48 105.13 96.69 104.74 98.9 104.34Z" stroke="#666666" stroke-opacity="1.000000" stroke-width="0.250000"/>
		<path id="path" d="M57.11 89.72C57.31 89.55 57.09 89.33 56.61 89.24C56.55 89.23 56.48 89.22 56.42 89.22C56.44 89.21 56.45 89.2 56.46 89.19C56.66 89.01 56.44 88.8 55.96 88.71C55.48 88.62 54.93 88.69 54.74 88.86C54.72 88.88 54.71 88.89 54.7 88.9C54.61 88.87 54.5 88.83 54.37 88.81C53.89 88.72 53.35 88.79 53.15 88.96C52.97 89.11 53.12 89.3 53.48 89.4C53.25 89.43 53.05 89.49 52.95 89.57C52.75 89.75 52.98 89.96 53.46 90.05C53.77 90.11 54.1 90.1 54.36 90.04C54.41 90.16 54.61 90.26 54.92 90.32C55.39 90.41 55.94 90.34 56.14 90.17C56.23 90.08 56.23 89.99 56.15 89.91C56.55 89.93 56.95 89.87 57.11 89.72Z" fill="#FFB100" fill-opacity="1.000000" fill-rule="nonzero"/>
		<path id="path" d="M56.61 89.24C56.55 89.23 56.48 89.22 56.42 89.22C56.44 89.21 56.45 89.2 56.46 89.19C56.66 89.01 56.44 88.8 55.96 88.71C55.48 88.62 54.93 88.69 54.74 88.86C54.72 88.88 54.71 88.89 54.7 88.9C54.61 88.87 54.5 88.83 54.37 88.81C53.89 88.72 53.35 88.79 53.15 88.96C52.97 89.11 53.12 89.3 53.48 89.4C53.25 89.43 53.05 89.49 52.95 89.57C52.75 89.75 52.98 89.96 53.46 90.05C53.77 90.11 54.1 90.1 54.36 90.04C54.41 90.16 54.61 90.26 54.92 90.32C55.39 90.41 55.94 90.34 56.14 90.17C56.23 90.08 56.23 89.99 56.15 89.91C56.55 89.93 56.95 89.87 57.11 89.72C57.31 89.55 57.09 89.33 56.61 89.24Z" stroke="#666666" stroke-opacity="1.000000" stroke-width="0.250000"/>
		<path id="path" d="M56.29 89.69C56.03 89.96 55.23 90.08 54.5 89.96C53.77 89.84 53.38 89.52 53.64 89.26C53.9 88.99 54.7 88.86 55.43 88.98C56.16 89.1 56.55 89.42 56.29 89.69Z" fill="#FF2E2B" fill-opacity="1.000000" fill-rule="nonzero"/>
		<path id="path" d="M54.5 89.96C53.77 89.84 53.38 89.52 53.64 89.26C53.9 88.99 54.7 88.86 55.43 88.98C56.16 89.1 56.55 89.42 56.29 89.69C56.03 89.96 55.23 90.08 54.5 89.96Z" stroke="#666666" stroke-opacity="1.000000" stroke-width="0.250000"/>
		<path id="path" d="M55.98 89.55C55.81 89.73 55.27 89.81 54.78 89.73C54.29 89.65 54.03 89.44 54.2 89.26C54.38 89.08 54.92 88.99 55.41 89.07C55.9 89.15 56.16 89.37 55.98 89.55Z" fill="#FFB100" fill-opacity="1.000000" fill-rule="nonzero"/>
		<path id="path" d="M54.78 89.73C54.29 89.65 54.03 89.44 54.2 89.26C54.38 89.08 54.92 88.99 55.41 89.07C55.9 89.15 56.16 89.37 55.98 89.55C55.81 89.73 55.27 89.81 54.78 89.73Z" stroke="#666666" stroke-opacity="1.000000" stroke-width="0.250000"/>
		<path id="path" d="M55.61 89.31C55.54 89.39 55.31 89.42 55.11 89.39C54.91 89.35 54.8 89.27 54.87 89.19C54.95 89.11 55.17 89.08 55.37 89.11C55.57 89.15 55.68 89.23 55.61 89.31Z" fill="#FF2E2B" fill-opacity="1.000000" fill-rule="nonzero"/>
		<path id="path" d="M55.11 89.39C54.91 89.35 54.8 89.27 54.87 89.19C54.95 89.11 55.17 89.08 55.37 89.11C55.57 89.15 55.68 89.23 55.61 89.31C55.54 89.39 55.31 89.42 55.11 89.39Z" stroke="#666666" stroke-opacity="1.000000" stroke-width="0.250000"/>
		<path id="path" d="M63.78 92.12C63.98 91.95 63.75 91.74 63.28 91.65C63.21 91.64 63.15 91.63 63.09 91.62C63.1 91.61 63.12 91.6 63.13 91.59C63.33 91.42 63.1 91.2 62.63 91.11C62.15 91.03 61.6 91.09 61.4 91.27C61.39 91.28 61.38 91.29 61.37 91.31C61.28 91.27 61.17 91.24 61.04 91.21C60.56 91.12 60.01 91.19 59.81 91.37C59.64 91.52 59.79 91.7 60.15 91.8C59.92 91.83 59.72 91.89 59.62 91.98C59.42 92.15 59.65 92.37 60.12 92.46C60.43 92.51 60.77 92.5 61.02 92.44C61.08 92.56 61.28 92.67 61.58 92.73C62.06 92.81 62.61 92.74 62.81 92.57C62.9 92.49 62.9 92.4 62.82 92.31C63.22 92.34 63.62 92.27 63.78 92.12Z" fill="#FFB100" fill-opacity="1.000000" fill-rule="nonzero"/>
		<path id="path" d="M63.28 91.65C63.21 91.64 63.15 91.63 63.09 91.62C63.1 91.61 63.12 91.6 63.13 91.59C63.33 91.42 63.1 91.2 62.63 91.11C62.15 91.03 61.6 91.09 61.4 91.27C61.39 91.28 61.38 91.29 61.37 91.31C61.28 91.27 61.17 91.24 61.04 91.21C60.56 91.12 60.01 91.19 59.81 91.37C59.64 91.52 59.79 91.7 60.15 91.8C59.92 91.83 59.72 91.89 59.62 91.98C59.42 92.15 59.65 92.37 60.12 92.46C60.43 92.51 60.77 92.5 61.02 92.44C61.08 92.56 61.28 92.67 61.58 92.73C62.06 92.81 62.61 92.74 62.81 92.57C62.9 92.49 62.9 92.4 62.82 92.31C63.22 92.34 63.62 92.27 63.78 92.12C63.98 91.95 63.75 91.74 63.28 91.65Z" stroke="#666666" stroke-opacity="1.000000" stroke-width="0.250000"/>
		<path id="path" d="M62.95 92.09C62.69 92.36 61.89 92.48 61.16 92.36C60.43 92.24 60.05 91.93 60.31 91.66C60.57 91.39 61.37 91.27 62.1 91.39C62.83 91.51 63.21 91.82 62.95 92.09Z" fill="#FF2E2B" fill-opacity="1.000000" fill-rule="nonzero"/>
		<path id="path" d="M61.16 92.36C60.43 92.24 60.05 91.93 60.31 91.66C60.57 91.39 61.37 91.27 62.1 91.39C62.83 91.51 63.21 91.82 62.95 92.09C62.69 92.36 61.89 92.48 61.16 92.36Z" stroke="#666666" stroke-opacity="1.000000" stroke-width="0.250000"/>
		<path id="path" d="M62.65 91.95C62.48 92.13 61.94 92.21 61.45 92.13C60.96 92.05 60.7 91.84 60.87 91.66C61.05 91.48 61.59 91.39 62.08 91.47C62.57 91.55 62.83 91.77 62.65 91.95Z" fill="#FFB100" fill-opacity="1.000000" fill-rule="nonzero"/>
		<path id="path" d="M61.45 92.13C60.96 92.05 60.7 91.84 60.87 91.66C61.05 91.48 61.59 91.39 62.08 91.47C62.57 91.55 62.83 91.77 62.65 91.95C62.48 92.13 61.94 92.21 61.45 92.13Z" stroke="#666666" stroke-opacity="1.000000" stroke-width="0.250000"/>
		<path id="path" d="M62.27 91.71C62.2 91.79 61.98 91.82 61.78 91.79C61.57 91.75 61.47 91.67 61.54 91.59C61.61 91.52 61.83 91.48 62.04 91.52C62.24 91.55 62.34 91.64 62.27 91.71Z" fill="#FF2E2B" fill-opacity="1.000000" fill-rule="nonzero"/>
		<path id="path" d="M61.78 91.79C61.57 91.75 61.47 91.67 61.54 91.59C61.61 91.52 61.83 91.48 62.04 91.52C62.24 91.55 62.34 91.64 62.27 91.71C62.2 91.79 61.98 91.82 61.78 91.79Z" stroke="#666666" stroke-opacity="1.000000" stroke-width="0.250000"/>
		<path id="path" d="M71.09 93.46C70.91 93.27 70.37 93.16 69.89 93.21C69.82 93.22 69.76 93.23 69.71 93.24C69.7 93.23 69.7 93.22 69.68 93.21C69.51 93.02 68.97 92.91 68.48 92.96C68 93.01 67.75 93.21 67.93 93.4C67.94 93.41 67.95 93.42 67.97 93.44C67.84 93.43 67.71 93.43 67.57 93.45C67.09 93.5 66.84 93.7 67.02 93.88C67.17 94.05 67.59 94.15 68.02 94.14C67.91 94.22 67.89 94.32 67.98 94.42C68.16 94.61 68.69 94.72 69.18 94.66C69.49 94.63 69.7 94.53 69.77 94.42C70.01 94.5 70.35 94.53 70.66 94.5C71.14 94.45 71.39 94.25 71.22 94.07C71.13 93.98 70.97 93.9 70.76 93.86C71.09 93.77 71.23 93.61 71.09 93.46Z" fill="#FFB100" fill-opacity="1.000000" fill-rule="nonzero"/>
		<path id="path" d="M69.89 93.21C69.82 93.22 69.76 93.23 69.71 93.24C69.7 93.23 69.7 93.22 69.68 93.21C69.51 93.02 68.97 92.91 68.48 92.96C68 93.01 67.75 93.21 67.93 93.4C67.94 93.41 67.95 93.42 67.97 93.44C67.84 93.43 67.71 93.43 67.57 93.45C67.09 93.5 66.84 93.7 67.02 93.88C67.17 94.05 67.59 94.15 68.02 94.14C67.91 94.22 67.89 94.32 67.98 94.42C68.16 94.61 68.69 94.72 69.18 94.66C69.49 94.63 69.7 94.53 69.77 94.42C70.01 94.5 70.35 94.53 70.66 94.5C71.14 94.45 71.39 94.25 71.22 94.07C71.13 93.98 70.97 93.9 70.76 93.86C71.09 93.77 71.23 93.61 71.09 93.46C70.91 93.27 70.37 93.16 69.89 93.21Z" stroke="#666666" stroke-opacity="1.000000" stroke-width="0.250000"/>
		<path id="path" d="M70.46 93.64C70.76 93.92 70.43 94.23 69.72 94.32C69 94.42 68.18 94.26 67.87 93.99C67.57 93.71 67.91 93.4 68.62 93.31C69.33 93.22 70.16 93.37 70.46 93.64Z" fill="#FF2E2B" fill-opacity="1.000000" fill-rule="nonzero"/>
		<path id="path" d="M69.72 94.32C69 94.42 68.18 94.26 67.87 93.99C67.57 93.71 67.91 93.4 68.62 93.31C69.33 93.22 70.16 93.37 70.46 93.64C70.76 93.92 70.43 94.23 69.72 94.32Z" stroke="#666666" stroke-opacity="1.000000" stroke-width="0.250000"/>
		<path id="path" d="M70 93.61C70.2 93.8 69.98 94 69.5 94.07C69.02 94.13 68.47 94.03 68.26 93.84C68.06 93.65 68.28 93.45 68.76 93.39C69.24 93.32 69.8 93.42 70 93.61Z" fill="#FFB100" fill-opacity="1.000000" fill-rule="nonzero"/>
		<path id="path" d="M69.5 94.07C69.02 94.13 68.47 94.03 68.26 93.84C68.06 93.65 68.28 93.45 68.76 93.39C69.24 93.32 69.8 93.42 70 93.61C70.2 93.8 69.98 94 69.5 94.07Z" stroke="#666666" stroke-opacity="1.000000" stroke-width="0.250000"/>
		<path id="path" d="M69.32 93.52C69.41 93.6 69.31 93.68 69.12 93.71C68.92 93.73 68.69 93.69 68.61 93.62C68.52 93.54 68.61 93.46 68.81 93.43C69.01 93.4 69.24 93.45 69.32 93.52Z" fill="#FF2E2B" fill-opacity="1.000000" fill-rule="nonzero"/>
		<path id="path" d="M69.12 93.71C68.92 93.73 68.69 93.69 68.61 93.62C68.52 93.54 68.61 93.46 68.81 93.43C69.01 93.4 69.24 93.45 69.32 93.52C69.41 93.6 69.31 93.68 69.12 93.71Z" stroke="#666666" stroke-opacity="1.000000" stroke-width="0.250000"/>
		<path id="path" d="M96.23 97.27C96.06 97.08 95.52 96.97 95.04 97.02C94.97 97.03 94.91 97.04 94.86 97.05C94.85 97.04 94.84 97.03 94.83 97.02C94.65 96.83 94.12 96.72 93.63 96.77C93.15 96.82 92.9 97.02 93.07 97.21C93.09 97.22 93.1 97.23 93.12 97.25C92.99 97.24 92.85 97.24 92.72 97.26C92.24 97.31 91.99 97.51 92.16 97.69C92.31 97.86 92.74 97.96 93.17 97.95C93.06 98.03 93.03 98.13 93.13 98.23C93.3 98.42 93.84 98.53 94.32 98.47C94.64 98.44 94.85 98.34 94.92 98.23C95.16 98.31 95.49 98.34 95.8 98.31C96.29 98.26 96.54 98.06 96.36 97.88C96.28 97.79 96.11 97.72 95.91 97.67C96.23 97.59 96.38 97.42 96.23 97.27Z" fill="#FFB100" fill-opacity="1.000000" fill-rule="nonzero"/>
		<path id="path" d="M95.04 97.02C94.97 97.03 94.91 97.04 94.86 97.05C94.85 97.04 94.84 97.03 94.83 97.02C94.65 96.83 94.12 96.72 93.63 96.77C93.15 96.82 92.9 97.02 93.07 97.21C93.09 97.22 93.1 97.23 93.12 97.25C92.99 97.24 92.85 97.24 92.72 97.26C92.24 97.31 91.99 97.51 92.16 97.69C92.31 97.86 92.74 97.96 93.17 97.95C93.06 98.03 93.03 98.13 93.13 98.23C93.3 98.42 93.84 98.53 94.32 98.47C94.64 98.44 94.85 98.34 94.92 98.23C95.16 98.31 95.49 98.34 95.8 98.31C96.29 98.26 96.54 98.06 96.36 97.88C96.28 97.79 96.11 97.72 95.91 97.67C96.23 97.59 96.38 97.42 96.23 97.27C96.06 97.08 95.52 96.97 95.04 97.02Z" stroke="#666666" stroke-opacity="1.000000" stroke-width="0.250000"/>
		<path id="path" d="M95.61 97.46C95.91 97.73 95.58 98.04 94.86 98.13C94.15 98.23 93.33 98.08 93.02 97.8C92.72 97.52 93.05 97.22 93.76 97.12C94.48 97.03 95.3 97.18 95.61 97.46Z" fill="#FF2E2B" fill-opacity="1.000000" fill-rule="nonzero"/>
		<path id="path" d="M94.86 98.13C94.15 98.23 93.33 98.08 93.02 97.8C92.72 97.52 93.05 97.22 93.76 97.12C94.48 97.03 95.3 97.18 95.61 97.46C95.91 97.73 95.58 98.04 94.86 98.13Z" stroke="#666666" stroke-opacity="1.000000" stroke-width="0.250000"/>
		<path id="path" d="M95.15 97.42C95.35 97.61 95.13 97.81 94.65 97.88C94.17 97.94 93.61 97.84 93.41 97.65C93.21 97.47 93.43 97.26 93.91 97.2C94.39 97.13 94.94 97.23 95.15 97.42Z" fill="#FFB100" fill-opacity="1.000000" fill-rule="nonzero"/>
		<path id="path" d="M94.65 97.88C94.17 97.94 93.61 97.84 93.41 97.65C93.21 97.47 93.43 97.26 93.91 97.2C94.39 97.13 94.94 97.23 95.15 97.42C95.35 97.61 95.13 97.81 94.65 97.88Z" stroke="#666666" stroke-opacity="1.000000" stroke-width="0.250000"/>
		<path id="path" d="M94.47 97.33C94.55 97.41 94.46 97.49 94.26 97.52C94.06 97.54 93.83 97.5 93.75 97.43C93.66 97.35 93.76 97.27 93.95 97.24C94.15 97.22 94.38 97.26 94.47 97.33Z" fill="#FF2E2B" fill-opacity="1.000000" fill-rule="nonzero"/>
		<path id="path" d="M94.26 97.52C94.06 97.54 93.83 97.5 93.75 97.43C93.66 97.35 93.76 97.27 93.95 97.24C94.15 97.22 94.38 97.26 94.47 97.33C94.55 97.41 94.46 97.49 94.26 97.52Z" stroke="#666666" stroke-opacity="1.000000" stroke-width="0.250000"/>
		<path id="path" d="M79.66 94.36C79.48 94.17 78.95 94.06 78.46 94.12C78.4 94.12 78.34 94.13 78.28 94.14C78.28 94.13 78.27 94.12 78.26 94.11C78.08 93.92 77.54 93.81 77.06 93.86C76.57 93.92 76.32 94.11 76.5 94.3C76.51 94.31 76.53 94.33 76.55 94.34C76.42 94.33 76.28 94.33 76.15 94.35C75.66 94.4 75.41 94.6 75.59 94.79C75.74 94.95 76.17 95.05 76.59 95.04C76.49 95.12 76.46 95.22 76.55 95.32C76.73 95.51 77.26 95.62 77.75 95.57C78.06 95.53 78.28 95.44 78.34 95.33C78.59 95.4 78.92 95.44 79.23 95.4C79.71 95.35 79.97 95.16 79.79 94.97C79.71 94.88 79.54 94.81 79.34 94.76C79.66 94.68 79.8 94.52 79.66 94.36Z" fill="#FFB100" fill-opacity="1.000000" fill-rule="nonzero"/>
		<path id="path" d="M78.46 94.12C78.4 94.12 78.34 94.13 78.28 94.14C78.28 94.13 78.27 94.12 78.26 94.11C78.08 93.92 77.54 93.81 77.06 93.86C76.57 93.92 76.32 94.11 76.5 94.3C76.51 94.31 76.53 94.33 76.55 94.34C76.42 94.33 76.28 94.33 76.15 94.35C75.66 94.4 75.41 94.6 75.59 94.79C75.74 94.95 76.17 95.05 76.59 95.04C76.49 95.12 76.46 95.22 76.55 95.32C76.73 95.51 77.26 95.62 77.75 95.57C78.06 95.53 78.28 95.44 78.34 95.33C78.59 95.4 78.92 95.44 79.23 95.4C79.71 95.35 79.97 95.16 79.79 94.97C79.71 94.88 79.54 94.81 79.34 94.76C79.66 94.68 79.8 94.52 79.66 94.36C79.48 94.17 78.95 94.06 78.46 94.12Z" stroke="#666666" stroke-opacity="1.000000" stroke-width="0.250000"/>
		<path id="path" d="M79.03 94.55C79.34 94.83 79 95.13 78.29 95.23C77.58 95.32 76.75 95.17 76.45 94.89C76.14 94.61 76.48 94.31 77.19 94.21C77.9 94.12 78.73 94.27 79.03 94.55Z" fill="#FF2E2B" fill-opacity="1.000000" fill-rule="nonzero"/>
		<path id="path" d="M78.29 95.23C77.58 95.32 76.75 95.17 76.45 94.89C76.14 94.61 76.48 94.31 77.19 94.21C77.9 94.12 78.73 94.27 79.03 94.55C79.34 94.83 79 95.13 78.29 95.23Z" stroke="#666666" stroke-opacity="1.000000" stroke-width="0.250000"/>
		<path id="path" d="M78.57 94.51C78.77 94.7 78.55 94.91 78.07 94.97C77.59 95.03 77.04 94.93 76.84 94.74C76.63 94.56 76.86 94.35 77.34 94.29C77.82 94.23 78.37 94.33 78.57 94.51Z" fill="#FFB100" fill-opacity="1.000000" fill-rule="nonzero"/>
		<path id="path" d="M78.07 94.97C77.59 95.03 77.04 94.93 76.84 94.74C76.63 94.56 76.86 94.35 77.34 94.29C77.82 94.23 78.37 94.33 78.57 94.51C78.77 94.7 78.55 94.91 78.07 94.97Z" stroke="#666666" stroke-opacity="1.000000" stroke-width="0.250000"/>
		<path id="path" d="M77.89 94.43C77.98 94.5 77.88 94.59 77.69 94.61C77.49 94.64 77.26 94.6 77.17 94.52C77.09 94.44 77.18 94.36 77.38 94.33C77.58 94.31 77.81 94.35 77.89 94.43Z" fill="#FF2E2B" fill-opacity="1.000000" fill-rule="nonzero"/>
		<path id="path" d="M77.69 94.61C77.49 94.64 77.26 94.6 77.17 94.52C77.09 94.44 77.18 94.36 77.38 94.33C77.58 94.31 77.81 94.35 77.89 94.43C77.98 94.5 77.88 94.59 77.69 94.61Z" stroke="#666666" stroke-opacity="1.000000" stroke-width="0.250000"/>
		<path id="path" d="M88.12 93.7C88.26 93.52 87.97 93.32 87.48 93.25C87.41 93.24 87.35 93.23 87.28 93.23C87.3 93.22 87.31 93.21 87.32 93.2C87.46 93.01 87.17 92.81 86.67 92.74C86.17 92.67 85.66 92.77 85.52 92.95C85.51 92.97 85.5 92.98 85.49 92.99C85.39 92.96 85.27 92.93 85.14 92.91C84.64 92.84 84.12 92.94 83.98 93.12C83.86 93.28 84.06 93.46 84.45 93.55C84.23 93.58 84.06 93.65 83.98 93.75C83.84 93.93 84.13 94.14 84.63 94.2C84.95 94.25 85.28 94.22 85.51 94.15C85.6 94.26 85.83 94.37 86.15 94.41C86.65 94.48 87.16 94.38 87.3 94.19C87.37 94.11 87.34 94.01 87.24 93.94C87.64 93.95 88.01 93.85 88.12 93.7Z" fill="#FFB100" fill-opacity="1.000000" fill-rule="nonzero"/>
		<path id="path" d="M87.48 93.25C87.41 93.24 87.35 93.23 87.28 93.23C87.3 93.22 87.31 93.21 87.32 93.2C87.46 93.01 87.17 92.81 86.67 92.74C86.17 92.67 85.66 92.77 85.52 92.95C85.51 92.97 85.5 92.98 85.49 92.99C85.39 92.96 85.27 92.93 85.14 92.91C84.64 92.84 84.12 92.94 83.98 93.12C83.86 93.28 84.06 93.46 84.45 93.55C84.23 93.58 84.06 93.65 83.98 93.75C83.84 93.93 84.13 94.14 84.63 94.2C84.95 94.25 85.28 94.22 85.51 94.15C85.6 94.26 85.83 94.37 86.15 94.41C86.65 94.48 87.16 94.38 87.3 94.19C87.37 94.11 87.34 94.01 87.24 93.94C87.64 93.95 88.01 93.85 88.12 93.7C88.26 93.52 87.97 93.32 87.48 93.25Z" stroke="#666666" stroke-opacity="1.000000" stroke-width="0.250000"/>
		<path id="path" d="M87.3 93.71C87.13 93.99 86.37 94.15 85.62 94.06C84.86 93.97 84.39 93.68 84.56 93.4C84.73 93.11 85.48 92.96 86.24 93.04C86.99 93.13 87.47 93.43 87.3 93.71Z" fill="#FF2E2B" fill-opacity="1.000000" fill-rule="nonzero"/>
		<path id="path" d="M85.62 94.06C84.86 93.97 84.39 93.68 84.56 93.4C84.73 93.11 85.48 92.96 86.24 93.04C86.99 93.13 87.47 93.43 87.3 93.71C87.13 93.99 86.37 94.15 85.62 94.06Z" stroke="#666666" stroke-opacity="1.000000" stroke-width="0.250000"/>
		<path id="path" d="M86.96 93.58C86.84 93.77 86.34 93.87 85.83 93.82C85.32 93.76 85 93.56 85.12 93.37C85.23 93.18 85.74 93.07 86.24 93.13C86.75 93.19 87.07 93.39 86.96 93.58Z" fill="#FFB100" fill-opacity="1.000000" fill-rule="nonzero"/>
		<path id="path" d="M85.83 93.82C85.32 93.76 85 93.56 85.12 93.37C85.23 93.18 85.74 93.07 86.24 93.13C86.75 93.19 87.07 93.39 86.96 93.58C86.84 93.77 86.34 93.87 85.83 93.82Z" stroke="#666666" stroke-opacity="1.000000" stroke-width="0.250000"/>
		<path id="path" d="M86.51 93.36C86.46 93.44 86.25 93.48 86.05 93.46C85.84 93.43 85.7 93.35 85.75 93.27C85.8 93.19 86.01 93.15 86.22 93.17C86.42 93.2 86.56 93.28 86.51 93.36Z" fill="#FF2E2B" fill-opacity="1.000000" fill-rule="nonzero"/>
		<path id="path" d="M86.05 93.46C85.84 93.43 85.7 93.35 85.75 93.27C85.8 93.19 86.01 93.15 86.22 93.17C86.42 93.2 86.56 93.28 86.51 93.36C86.46 93.44 86.25 93.48 86.05 93.46Z" stroke="#666666" stroke-opacity="1.000000" stroke-width="0.250000"/>
		<path id="path" d="M95.25 92.15C95.4 91.96 95.1 91.76 94.61 91.69C94.55 91.68 94.48 91.68 94.42 91.67C94.43 91.66 94.44 91.65 94.45 91.64C94.59 91.45 94.3 91.25 93.8 91.18C93.31 91.12 92.79 91.21 92.65 91.39C92.64 91.41 92.63 91.42 92.62 91.44C92.53 91.4 92.41 91.37 92.27 91.35C91.77 91.29 91.26 91.38 91.12 91.57C90.99 91.73 91.2 91.9 91.58 91.99C91.36 92.03 91.19 92.1 91.12 92.19C90.97 92.37 91.27 92.58 91.76 92.65C92.08 92.69 92.41 92.67 92.64 92.59C92.73 92.71 92.97 92.81 93.28 92.85C93.78 92.91 94.3 92.82 94.43 92.64C94.5 92.55 94.47 92.46 94.37 92.38C94.77 92.39 95.14 92.3 95.25 92.15Z" fill="#FFB100" fill-opacity="1.000000" fill-rule="nonzero"/>
		<path id="path" d="M94.61 91.69C94.55 91.68 94.48 91.68 94.42 91.67C94.43 91.66 94.44 91.65 94.45 91.64C94.59 91.45 94.3 91.25 93.8 91.18C93.31 91.12 92.79 91.21 92.65 91.39C92.64 91.41 92.63 91.42 92.62 91.44C92.53 91.4 92.41 91.37 92.27 91.35C91.77 91.29 91.26 91.38 91.12 91.57C90.99 91.73 91.2 91.9 91.58 91.99C91.36 92.03 91.19 92.1 91.12 92.19C90.97 92.37 91.27 92.58 91.76 92.65C92.08 92.69 92.41 92.67 92.64 92.59C92.73 92.71 92.97 92.81 93.28 92.85C93.78 92.91 94.3 92.82 94.43 92.64C94.5 92.55 94.47 92.46 94.37 92.38C94.77 92.39 95.14 92.3 95.25 92.15C95.4 91.96 95.1 91.76 94.61 91.69Z" stroke="#666666" stroke-opacity="1.000000" stroke-width="0.250000"/>
		<path id="path" d="M94.43 92.15C94.26 92.43 93.51 92.59 92.75 92.5C92 92.42 91.52 92.12 91.69 91.84C91.86 91.56 92.61 91.4 93.37 91.48C94.13 91.57 94.6 91.87 94.43 92.15Z" fill="#FF2E2B" fill-opacity="1.000000" fill-rule="nonzero"/>
		<path id="path" d="M92.75 92.5C92 92.42 91.52 92.12 91.69 91.84C91.86 91.56 92.61 91.4 93.37 91.48C94.13 91.57 94.6 91.87 94.43 92.15C94.26 92.43 93.51 92.59 92.75 92.5Z" stroke="#666666" stroke-opacity="1.000000" stroke-width="0.250000"/>
		<path id="path" d="M94.09 92.02C93.97 92.21 93.47 92.31 92.96 92.26C92.45 92.2 92.13 92 92.25 91.81C92.36 91.62 92.87 91.52 93.38 91.57C93.88 91.63 94.2 91.83 94.09 92.02Z" fill="#FFB100" fill-opacity="1.000000" fill-rule="nonzero"/>
		<path id="path" d="M92.96 92.26C92.45 92.2 92.13 92 92.25 91.81C92.36 91.62 92.87 91.52 93.38 91.57C93.88 91.63 94.2 91.83 94.09 92.02C93.97 92.21 93.47 92.31 92.96 92.26Z" stroke="#666666" stroke-opacity="1.000000" stroke-width="0.250000"/>
		<path id="path" d="M93.64 91.8C93.59 91.88 93.39 91.93 93.18 91.9C92.97 91.88 92.84 91.79 92.88 91.71C92.93 91.64 93.14 91.59 93.35 91.62C93.56 91.64 93.69 91.72 93.64 91.8Z" fill="#FF2E2B" fill-opacity="1.000000" fill-rule="nonzero"/>
		<path id="path" d="M93.18 91.9C92.97 91.88 92.84 91.79 92.88 91.71C92.93 91.64 93.14 91.59 93.35 91.62C93.56 91.64 93.69 91.72 93.64 91.8C93.59 91.88 93.39 91.93 93.18 91.9Z" stroke="#666666" stroke-opacity="1.000000" stroke-width="0.250000"/>
		<path id="path" d="M102.53 88.35C102.34 88.17 101.79 88.06 101.32 88.12C101.25 88.13 101.2 88.14 101.14 88.15C101.13 88.14 101.12 88.13 101.11 88.12C100.92 87.93 100.37 87.83 99.9 87.89C99.42 87.95 99.19 88.15 99.38 88.33C99.4 88.35 99.41 88.36 99.43 88.37C99.3 88.37 99.17 88.37 99.04 88.39C98.56 88.45 98.33 88.65 98.53 88.83C98.7 88.99 99.13 89.09 99.56 89.08C99.46 89.16 99.45 89.26 99.54 89.35C99.74 89.54 100.28 89.64 100.76 89.58C101.07 89.55 101.27 89.45 101.33 89.33C101.58 89.4 101.91 89.43 102.22 89.39C102.7 89.33 102.93 89.14 102.73 88.95C102.64 88.86 102.46 88.79 102.26 88.75C102.57 88.66 102.7 88.5 102.53 88.35Z" fill="#FFB100" fill-opacity="1.000000" fill-rule="nonzero"/>
		<path id="path" d="M101.32 88.12C101.25 88.13 101.2 88.14 101.14 88.15C101.13 88.14 101.12 88.13 101.11 88.12C100.92 87.93 100.37 87.83 99.9 87.89C99.42 87.95 99.19 88.15 99.38 88.33C99.4 88.35 99.41 88.36 99.43 88.37C99.3 88.37 99.17 88.37 99.04 88.39C98.56 88.45 98.33 88.65 98.53 88.83C98.7 88.99 99.13 89.09 99.56 89.08C99.46 89.16 99.45 89.26 99.54 89.35C99.74 89.54 100.28 89.64 100.76 89.58C101.07 89.55 101.27 89.45 101.33 89.33C101.58 89.4 101.91 89.43 102.22 89.39C102.7 89.33 102.93 89.14 102.73 88.95C102.64 88.86 102.46 88.79 102.26 88.75C102.57 88.66 102.7 88.5 102.53 88.35C102.34 88.17 101.79 88.06 101.32 88.12Z" stroke="#666666" stroke-opacity="1.000000" stroke-width="0.250000"/>
		<path id="path" d="M101.93 88.55C102.26 88.83 101.96 89.14 101.26 89.24C100.56 89.34 99.72 89.21 99.39 88.93C99.06 88.66 99.36 88.35 100.06 88.24C100.76 88.14 101.6 88.28 101.93 88.55Z" fill="#FF2E2B" fill-opacity="1.000000" fill-rule="nonzero"/>
		<path id="path" d="M101.26 89.24C100.56 89.34 99.72 89.21 99.39 88.93C99.06 88.66 99.36 88.35 100.06 88.24C100.76 88.14 101.6 88.28 101.93 88.55C102.26 88.83 101.96 89.14 101.26 89.24Z" stroke="#666666" stroke-opacity="1.000000" stroke-width="0.250000"/>
		<path id="path" d="M101.47 88.52C101.69 88.71 101.49 88.91 101.02 88.99C100.55 89.06 99.98 88.96 99.76 88.78C99.54 88.59 99.74 88.39 100.21 88.31C100.68 88.24 101.24 88.34 101.47 88.52Z" fill="#FFB100" fill-opacity="1.000000" fill-rule="nonzero"/>
		<path id="path" d="M101.02 88.99C100.55 89.06 99.98 88.96 99.76 88.78C99.54 88.59 99.74 88.39 100.21 88.31C100.68 88.24 101.24 88.34 101.47 88.52C101.69 88.71 101.49 88.91 101.02 88.99Z" stroke="#666666" stroke-opacity="1.000000" stroke-width="0.250000"/>
		<path id="path" d="M100.78 88.44C100.87 88.52 100.79 88.6 100.59 88.64C100.4 88.66 100.17 88.63 100.08 88.55C99.98 88.48 100.07 88.39 100.26 88.36C100.46 88.33 100.69 88.37 100.78 88.44Z" fill="#FF2E2B" fill-opacity="1.000000" fill-rule="nonzero"/>
		<path id="path" d="M100.59 88.64C100.4 88.66 100.17 88.63 100.08 88.55C99.98 88.48 100.07 88.39 100.26 88.36C100.46 88.33 100.69 88.37 100.78 88.44C100.87 88.52 100.79 88.6 100.59 88.64Z" stroke="#666666" stroke-opacity="1.000000" stroke-width="0.250000"/>
		<path id="path" d="M97.31 101.25C97.14 101.06 96.6 100.95 96.12 101.01C96.05 101.01 95.99 101.02 95.94 101.03C95.93 101.02 95.92 101.01 95.91 101C95.73 100.81 95.2 100.7 94.71 100.75C94.23 100.81 93.98 101 94.15 101.19C94.17 101.2 94.18 101.22 94.2 101.23C94.07 101.22 93.94 101.22 93.8 101.24C93.32 101.29 93.07 101.49 93.24 101.67C93.4 101.84 93.82 101.94 94.25 101.93C94.14 102.01 94.12 102.11 94.21 102.21C94.38 102.4 94.92 102.51 95.4 102.46C95.72 102.42 95.93 102.33 96 102.22C96.24 102.29 96.57 102.33 96.88 102.29C97.37 102.24 97.62 102.04 97.44 101.86C97.36 101.77 97.19 101.7 96.99 101.65C97.31 101.57 97.46 101.41 97.31 101.25Z" fill="#FFB100" fill-opacity="1.000000" fill-rule="nonzero"/>
		<path id="path" d="M96.12 101.01C96.05 101.01 95.99 101.02 95.94 101.03C95.93 101.02 95.92 101.01 95.91 101C95.73 100.81 95.2 100.7 94.71 100.75C94.23 100.81 93.98 101 94.15 101.19C94.17 101.2 94.18 101.22 94.2 101.23C94.07 101.22 93.94 101.22 93.8 101.24C93.32 101.29 93.07 101.49 93.24 101.67C93.4 101.84 93.82 101.94 94.25 101.93C94.14 102.01 94.12 102.11 94.21 102.21C94.38 102.4 94.92 102.51 95.4 102.46C95.72 102.42 95.93 102.33 96 102.22C96.24 102.29 96.57 102.33 96.88 102.29C97.37 102.24 97.62 102.04 97.44 101.86C97.36 101.77 97.19 101.7 96.99 101.65C97.31 101.57 97.46 101.41 97.31 101.25C97.14 101.06 96.6 100.95 96.12 101.01Z" stroke="#666666" stroke-opacity="1.000000" stroke-width="0.250000"/>
		<path id="path" d="M96.69 101.44C96.99 101.72 96.66 102.02 95.95 102.11C95.23 102.21 94.41 102.06 94.1 101.78C93.8 101.5 94.13 101.2 94.85 101.1C95.56 101.01 96.38 101.16 96.69 101.44Z" fill="#FF2E2B" fill-opacity="1.000000" fill-rule="nonzero"/>
		<path id="path" d="M95.95 102.11C95.23 102.21 94.41 102.06 94.1 101.78C93.8 101.5 94.13 101.2 94.85 101.1C95.56 101.01 96.38 101.16 96.69 101.44C96.99 101.72 96.66 102.02 95.95 102.11Z" stroke="#666666" stroke-opacity="1.000000" stroke-width="0.250000"/>
		<path id="path" d="M96.23 101.4C96.43 101.59 96.21 101.8 95.73 101.86C95.25 101.92 94.69 101.82 94.49 101.63C94.29 101.45 94.51 101.24 94.99 101.18C95.47 101.12 96.02 101.22 96.23 101.4Z" fill="#FFB100" fill-opacity="1.000000" fill-rule="nonzero"/>
		<path id="path" d="M95.73 101.86C95.25 101.92 94.69 101.82 94.49 101.63C94.29 101.45 94.51 101.24 94.99 101.18C95.47 101.12 96.02 101.22 96.23 101.4C96.43 101.59 96.21 101.8 95.73 101.86Z" stroke="#666666" stroke-opacity="1.000000" stroke-width="0.250000"/>
		<path id="path" d="M95.55 101.31C95.63 101.39 95.54 101.48 95.34 101.5C95.14 101.53 94.92 101.49 94.83 101.41C94.74 101.33 94.84 101.25 95.04 101.22C95.23 101.2 95.46 101.24 95.55 101.31Z" fill="#FF2E2B" fill-opacity="1.000000" fill-rule="nonzero"/>
		<path id="path" d="M95.34 101.5C95.14 101.53 94.92 101.49 94.83 101.41C94.74 101.33 94.84 101.25 95.04 101.22C95.23 101.2 95.46 101.24 95.55 101.31C95.63 101.39 95.54 101.48 95.34 101.5Z" stroke="#666666" stroke-opacity="1.000000" stroke-width="0.250000"/>
		<path id="path" d="M86.44 112.69C86.44 112.69 88.3 115.45 88.16 118.28C88.01 121.12 87.73 126.71 87.73 126.71L90.31 126.54C90.31 126.54 90.45 120.95 90.17 117.51C89.88 114.07 89.45 112.44 89.45 112.44C89.45 112.44 88.16 112.18 86.44 112.69Z" fill="#FF2E2B" fill-opacity="1.000000" fill-rule="nonzero"/>
		<path id="path" d="M88.16 118.28C88.01 121.12 87.73 126.71 87.73 126.71L90.31 126.54C90.31 126.54 90.45 120.95 90.17 117.51C89.88 114.07 89.45 112.44 89.45 112.44C89.45 112.44 88.16 112.18 86.44 112.69C86.44 112.69 88.3 115.45 88.16 118.28Z" stroke="#666666" stroke-opacity="1.000000" stroke-width="0.250000"/>
		<path id="path" d="M43.29 110.28C51.07 113.47 57.94 114.91 62.94 115.6C70.79 116.69 76.81 116.35 81.5 116.08C85.59 115.84 89.83 115.58 95.22 114.19C97.57 113.58 99.54 112.92 102.7 111.86C107.06 110.4 110.63 109.05 113.12 108.07C112.6 107.02 112.07 105.96 111.54 104.91C108.01 106.62 104.9 107.9 102.44 108.83C98.3 110.39 95.05 111.62 90.78 112.33C89.19 112.59 86.97 112.86 81.2 112.81C74.73 112.75 67.44 112.68 57.82 110.91C54.47 110.3 50.02 109.33 44.86 107.75C44.34 108.6 43.81 109.44 43.29 110.28Z" fill="#FF2E2B" fill-opacity="1.000000" fill-rule="nonzero"/>
		<path id="path" d="M62.94 115.6C70.79 116.69 76.81 116.35 81.5 116.08C85.59 115.84 89.83 115.58 95.22 114.19C97.57 113.58 99.54 112.92 102.7 111.86C107.06 110.4 110.63 109.05 113.12 108.07C112.6 107.02 112.07 105.96 111.54 104.91C108.01 106.62 104.9 107.9 102.44 108.83C98.3 110.39 95.05 111.62 90.78 112.33C89.19 112.59 86.97 112.86 81.2 112.81C74.73 112.75 67.44 112.68 57.82 110.91C54.47 110.3 50.02 109.33 44.86 107.75C44.34 108.6 43.81 109.44 43.29 110.28C51.07 113.47 57.94 114.91 62.94 115.6Z" stroke="#666666" stroke-opacity="1.000000" stroke-width="0.250000"/>
		<path id="path" d="M87.03 112.59C87.03 112.59 89.42 115.2 89.83 118.02C90.24 120.85 91.04 126.42 91.04 126.42L93.57 126.07C93.57 126.07 92.62 120.51 91.67 117.11C90.72 113.72 89.97 112.13 89.97 112.13C89.97 112.13 88.64 111.96 87.03 112.59Z" fill="#FF2E2B" fill-opacity="1.000000" fill-rule="nonzero"/>
		<path id="path" d="M89.83 118.02C90.24 120.85 91.04 126.42 91.04 126.42L93.57 126.07C93.57 126.07 92.62 120.51 91.67 117.11C90.72 113.72 89.97 112.13 89.97 112.13C89.97 112.13 88.64 111.96 87.03 112.59C87.03 112.59 89.42 115.2 89.83 118.02Z" stroke="#666666" stroke-opacity="1.000000" stroke-width="0.250000"/>
		<path id="path" d="M84.63 123.8C84.59 123.59 84.23 123.42 83.83 123.42C83.77 123.42 83.73 123.42 83.68 123.42C83.68 123.41 83.68 123.4 83.67 123.38C83.63 123.17 83.27 123 82.87 123C82.47 122.99 82.18 123.16 82.22 123.37C82.22 123.38 82.23 123.4 82.23 123.42C82.14 123.39 82.03 123.38 81.92 123.38C81.52 123.37 81.23 123.54 81.27 123.75C81.3 123.93 81.58 124.09 81.92 124.13C81.79 124.2 81.73 124.29 81.75 124.4C81.79 124.61 82.15 124.79 82.55 124.79C82.81 124.79 83.02 124.72 83.13 124.62C83.28 124.72 83.52 124.8 83.77 124.8C84.17 124.8 84.47 124.63 84.43 124.42C84.41 124.32 84.32 124.23 84.18 124.16C84.47 124.12 84.66 123.98 84.63 123.8Z" fill="#FFB100" fill-opacity="1.000000" fill-rule="nonzero"/>
		<path id="path" d="M84.05 123.92C84.14 124.23 83.73 124.5 83.13 124.51C82.53 124.52 81.97 124.27 81.88 123.96C81.79 123.64 82.19 123.37 82.79 123.37C83.39 123.36 83.95 123.6 84.05 123.92Z" fill="#FF2E2B" fill-opacity="1.000000" fill-rule="nonzero"/>
		<path id="path" d="M83.71 123.83C83.77 124.04 83.5 124.22 83.09 124.23C82.69 124.23 82.31 124.07 82.25 123.86C82.19 123.65 82.46 123.47 82.87 123.46C83.27 123.45 83.65 123.62 83.71 123.83Z" fill="#FFB100" fill-opacity="1.000000" fill-rule="nonzero"/>
		<path id="path" d="M83.23 123.66C83.25 123.75 83.14 123.82 82.98 123.83C82.81 123.83 82.65 123.76 82.63 123.67C82.6 123.58 82.72 123.51 82.88 123.51C83.05 123.51 83.2 123.57 83.23 123.66Z" fill="#FF2E2B" fill-opacity="1.000000" fill-rule="nonzero"/>
		<path id="path" d="M102.01 121.91C101.97 121.7 101.61 121.53 101.21 121.52C101.15 121.52 101.11 121.52 101.06 121.53C101.06 121.52 101.06 121.5 101.05 121.49C101.01 121.28 100.65 121.11 100.25 121.1C99.85 121.1 99.56 121.27 99.6 121.48C99.6 121.49 99.61 121.51 99.61 121.52C99.52 121.5 99.41 121.48 99.3 121.48C98.9 121.48 98.61 121.65 98.65 121.86C98.68 122.04 98.96 122.2 99.3 122.24C99.17 122.3 99.11 122.4 99.13 122.51C99.17 122.72 99.53 122.89 99.93 122.9C100.19 122.9 100.4 122.83 100.51 122.72C100.66 122.83 100.9 122.9 101.15 122.9C101.55 122.91 101.85 122.74 101.81 122.53C101.79 122.43 101.7 122.34 101.56 122.27C101.85 122.22 102.04 122.09 102.01 121.91Z" fill="#FFB100" fill-opacity="1.000000" fill-rule="nonzero"/>
		<path id="path" d="M101.43 122.03C101.52 122.34 101.11 122.61 100.51 122.62C99.91 122.63 99.35 122.38 99.26 122.07C99.17 121.75 99.57 121.49 100.17 121.48C100.77 121.47 101.33 121.71 101.43 122.03Z" fill="#FF2E2B" fill-opacity="1.000000" fill-rule="nonzero"/>
		<path id="path" d="M101.09 121.94C101.15 122.15 100.88 122.33 100.47 122.34C100.07 122.34 99.69 122.18 99.63 121.97C99.57 121.76 99.84 121.58 100.25 121.57C100.65 121.56 101.03 121.73 101.09 121.94Z" fill="#FFB100" fill-opacity="1.000000" fill-rule="nonzero"/>
		<path id="path" d="M100.61 121.77C100.64 121.86 100.52 121.93 100.36 121.93C100.19 121.93 100.03 121.87 100.01 121.78C99.98 121.69 100.1 121.62 100.26 121.61C100.43 121.61 100.58 121.68 100.61 121.77Z" fill="#FF2E2B" fill-opacity="1.000000" fill-rule="nonzero"/>
		<path id="path" d="M110.38 120.26C110.34 120.05 109.98 119.87 109.58 119.87C109.53 119.87 109.48 119.87 109.43 119.88C109.43 119.86 109.43 119.85 109.43 119.84C109.39 119.63 109.03 119.45 108.63 119.45C108.23 119.45 107.93 119.61 107.97 119.82C107.97 119.84 107.98 119.85 107.99 119.87C107.89 119.85 107.79 119.83 107.68 119.83C107.28 119.83 106.98 120 107.02 120.21C107.06 120.39 107.33 120.54 107.67 120.58C107.55 120.65 107.48 120.75 107.5 120.86C107.54 121.07 107.9 121.24 108.3 121.24C108.56 121.24 108.78 121.18 108.88 121.07C109.03 121.18 109.27 121.25 109.53 121.25C109.93 121.25 110.22 121.09 110.18 120.88C110.16 120.78 110.07 120.69 109.94 120.62C110.23 120.57 110.42 120.43 110.38 120.26Z" fill="#FFB100" fill-opacity="1.000000" fill-rule="nonzero"/>
		<path id="path" d="M109.8 120.37C109.89 120.69 109.49 120.95 108.89 120.96C108.29 120.97 107.73 120.73 107.63 120.41C107.54 120.09 107.95 119.83 108.55 119.82C109.15 119.81 109.71 120.06 109.8 120.37Z" fill="#FF2E2B" fill-opacity="1.000000" fill-rule="nonzero"/>
		<path id="path" d="M109.46 120.28C109.53 120.5 109.25 120.67 108.85 120.68C108.45 120.69 108.07 120.52 108.01 120.31C107.94 120.1 108.22 119.92 108.62 119.91C109.02 119.91 109.4 120.07 109.46 120.28Z" fill="#FFB100" fill-opacity="1.000000" fill-rule="nonzero"/>
		<path id="path" d="M108.98 120.12C109.01 120.21 108.9 120.28 108.73 120.28C108.56 120.28 108.41 120.21 108.38 120.13C108.36 120.04 108.47 119.96 108.64 119.96C108.8 119.96 108.96 120.03 108.98 120.12Z" fill="#FF2E2B" fill-opacity="1.000000" fill-rule="nonzero"/>
		<path id="path" d="M118.28 118.13C118.24 117.92 117.88 117.75 117.48 117.74C117.43 117.74 117.38 117.74 117.33 117.75C117.33 117.74 117.33 117.72 117.33 117.71C117.29 117.5 116.93 117.33 116.53 117.32C116.13 117.32 115.83 117.49 115.87 117.7C115.87 117.71 115.88 117.73 115.89 117.74C115.79 117.72 115.69 117.71 115.58 117.71C115.18 117.7 114.88 117.87 114.92 118.08C114.96 118.26 115.23 118.42 115.57 118.46C115.45 118.52 115.38 118.62 115.4 118.73C115.44 118.94 115.8 119.11 116.2 119.12C116.46 119.12 116.68 119.05 116.78 118.94C116.93 119.05 117.17 119.12 117.43 119.12C117.83 119.13 118.12 118.96 118.08 118.75C118.06 118.65 117.97 118.56 117.84 118.49C118.13 118.44 118.32 118.31 118.28 118.13Z" fill="#FFB100" fill-opacity="1.000000" fill-rule="nonzero"/>
		<path id="path" d="M117.7 118.25C117.79 118.56 117.39 118.83 116.79 118.84C116.19 118.85 115.63 118.6 115.53 118.28C115.44 117.97 115.85 117.7 116.45 117.69C117.05 117.68 117.61 117.93 117.7 118.25Z" fill="#FF2E2B" fill-opacity="1.000000" fill-rule="nonzero"/>
		<path id="path" d="M117.36 118.16C117.43 118.37 117.15 118.55 116.75 118.56C116.35 118.56 115.97 118.4 115.91 118.19C115.84 117.97 116.12 117.8 116.52 117.79C116.93 117.78 117.3 117.95 117.36 118.16Z" fill="#FFB100" fill-opacity="1.000000" fill-rule="nonzero"/>
		<path id="path" d="M116.88 117.99C116.91 118.08 116.8 118.15 116.63 118.15C116.46 118.15 116.31 118.09 116.28 118C116.26 117.91 116.37 117.84 116.54 117.84C116.7 117.84 116.86 117.9 116.88 117.99Z" fill="#FF2E2B" fill-opacity="1.000000" fill-rule="nonzero"/>
		<ellipse id="ellipse" cx="86.899994" cy="97.966309" rx="1.580000" ry="1.181837" fill="#563509" fill-opacity="1.000000"/>
		<ellipse id="ellipse" cx="86.899994" cy="97.966309" rx="1.580000" ry="1.181837" stroke="#666666" stroke-opacity="1.000000" stroke-width="0.250000"/>
		<ellipse id="ellipse" cx="88.163971" cy="102.456787" rx="1.580000" ry="1.181837" fill="#563509" fill-opacity="1.000000"/>
		<ellipse id="ellipse" cx="88.163971" cy="102.456787" rx="1.580000" ry="1.181837" stroke="#666666" stroke-opacity="1.000000" stroke-width="0.250000"/>
		<ellipse id="ellipse" rx="6.010317" ry="7.176360" transform="matrix(0.502869 -0.864363 0.864363 0.502869 100.484 39.3704)" fill="#9F6134" fill-opacity="1.000000"/>
		<ellipse id="ellipse" rx="6.010317" ry="7.176360" transform="matrix(0.502869 -0.864363 0.864363 0.502869 100.484 39.3704)" stroke="#1D1D1B" stroke-opacity="1.000000" stroke-width="1.000000"/>
		<ellipse id="ellipse" rx="4.894837" ry="5.403600" transform="matrix(0.502869 -0.864363 0.864363 0.502869 99.9186 40.3345)" fill="url(#paint_linear_88_675_0)" fill-opacity="1.000000"/>
		<ellipse id="ellipse" rx="4.894837" ry="5.403600" transform="matrix(0.502869 -0.864363 0.864363 0.502869 99.9186 40.3345)" stroke="#1D1D1B" stroke-opacity="1.000000" stroke-width="1.000000"/>
		<path id="path" d="" fill="#000000" fill-opacity="0" fill-rule="nonzero"/>
		<path id="path" d="M76.6 67.5C76.58 67.49 76.57 67.47 76.55 67.46" stroke="#1D1D1B" stroke-opacity="1.000000" stroke-width="1.000000"/>
		<rect id="rect" x="73.887085" y="91.513672" width="2.663878" height="7.103684" fill="#FFF3CF" fill-opacity="1.000000"/>
		<rect id="rect" x="73.887085" y="91.513672" width="2.663878" height="7.103684" stroke="#1D1D1B" stroke-opacity="1.000000" stroke-width="0.250000"/>
		<rect id="rect" x="76.551025" y="91.513672" width="2.663878" height="7.103684" fill="#FFF3CF" fill-opacity="1.000000"/>
		<rect id="rect" x="76.551025" y="91.513672" width="2.663878" height="7.103684" stroke="#1D1D1B" stroke-opacity="1.000000" stroke-width="0.250000"/>
		<path id="path" d="M45.66 82.46C42.83 78.84 42.34 74.61 44.04 71.16C45.09 69.01 46.44 67.84 45.24 65.94C44.33 64.5 46.11 60.68 47.01 60.6C46.39 59.23 44.11 58.03 45.03 56.92C45.32 57 46.49 55.04 46.76 55.21C46.03 52.99 46.93 48.63 48.28 46.91C47.82 45.7 48.07 44.83 48.6 43.87C48.87 44.14 49.45 44.41 49.78 44.76C49.62 43.85 50.15 42.77 50.19 42.22C50.46 42.34 50.71 42.5 50.95 42.69C50.64 41.75 50.95 40.89 50.81 40.01C51.91 39.4 52.73 39.98 53.17 41.31C52.78 39.41 53.84 38.02 55.56 38.19C55.21 34.29 58.62 36.61 60.19 37.61C59.34 35.41 60.39 32.85 62.32 35.1C62.45 31.98 64.88 32.76 66.33 34.42C65.84 33.19 66.13 31.88 67.05 30.93C68.27 31.47 69.05 32.45 69.9 33.61C69.99 31.04 71.92 28.33 73.57 31.36C73.71 31.41 74.86 29.69 75.66 29.71C76.79 29.73 77.68 31.47 77.85 31.36C78.71 30.81 78.9 29.98 79.42 30.02C80.46 30.1 80.72 33.62 81.51 33.61C81.84 33.61 81.9 33.03 82.8 32.03C83.37 31.41 83.89 30.84 84.37 30.93C84.94 31.04 85.23 32.02 85.27 32.67C85.35 33.67 84.87 34.26 85.09 34.41C85.5 34.72 87.27 32.67 88.17 33.08C88.86 33.39 88.5 34.93 89.1 35.1C89.63 35.24 90.23 34.11 90.65 34.24C91.28 34.45 90.36 37.12 91.23 37.6C92.18 38.12 94.52 35.62 95.31 36.15C95.8 36.49 95.16 37.67 95.85 38.19C96.3 38.52 96.74 38.17 97.26 38.46C98.32 39.04 97.88 41.26 98.25 41.31C98.53 41.34 98.66 40.06 99.54 39.79C99.91 39.68 100.39 39.75 100.62 40C100.74 40.14 100.77 40.32 100.61 41.32C100.48 42.11 100.36 42.64 100.47 42.68C100.52 42.7 100.57 42.61 100.84 42.42C101.06 42.27 101.17 42.19 101.24 42.21C101.33 42.23 101.46 42.37 101.51 43.35C101.57 44.26 101.49 44.71 101.65 44.76C101.73 44.78 101.79 44.68 102.26 44.28C102.72 43.87 102.78 43.85 102.83 43.86C103.15 43.89 103.38 44.77 103.38 45.54C103.38 46.19 103.22 46.59 103.15 46.91C102.81 48.35 104.17 48.98 104.68 50.87C105.25 52.96 104.38 55.15 104.67 55.2C104.72 55.21 104.76 55.13 105.08 54.98C105.32 54.87 105.44 54.81 105.52 54.82C105.83 54.86 106.16 55.84 105.99 56.86C105.8 58.08 105.01 58.64 105.32 59.08C105.55 59.42 106.04 59.19 106.37 59.51C107.13 60.22 105.83 62.48 105.57 62.93C104.33 65.08 107.12 68.3 108.99 70.99C111.94 75.25 107.73 82.02 107.44 82.46C104.62 86.87 100.13 88.63 97.12 89.81C90.66 92.35 83.53 92.39 77.03 92.42C76.71 92.42 76.39 92.42 76.07 92.42C69.64 92.39 62.31 92.35 55.98 89.81C53.45 88.8 49.53 86.78 45.66 82.46Z" fill="#9F6134" fill-opacity="1.000000" fill-rule="nonzero"/>
		<path id="path" d="M45.64 82.47C43.15 79.39 42.14 74.95 43.91 71.27C44.32 70.36 44.9 69.54 45.31 68.65C45.51 68.21 45.65 67.73 45.62 67.25C45.59 66.77 45.38 66.33 45.12 65.91C44.87 65.44 44.88 64.9 44.93 64.4C45.04 63.35 45.88 60.83 47 60.5L46.93 60.64C46.61 59.97 46.04 59.47 45.55 58.92C45.18 58.51 44.7 58.03 44.72 57.42C44.72 57.21 44.83 57.02 44.95 56.85L45.05 56.82C45.03 56.82 45.08 56.81 45.11 56.78C45.69 56.3 46 55.51 46.65 55.11C46.68 55.1 46.75 55.09 46.81 55.12L46.66 55.24C46.24 53.83 46.37 52.33 46.62 50.9C46.91 49.47 47.31 48.04 48.18 46.84L48.16 46.96C47.73 45.94 47.91 44.73 48.49 43.81L48.56 43.66C48.94 44.06 49.48 44.26 49.87 44.68L49.65 44.79C49.48 43.82 50 42.95 50.07 42.02L50.24 42.1C50.52 42.23 50.79 42.39 51.03 42.59L50.82 42.73C50.5 41.82 50.82 40.85 50.65 39.94C50.93 39.79 51.22 39.66 51.56 39.64C52.5 39.58 53.05 40.5 53.3 41.27L53.04 41.34C52.96 40.95 52.93 40.54 52.99 40.14C53.1 38.84 54.28 37.88 55.58 38.07L55.44 38.22C55.42 37.93 55.4 37.65 55.43 37.36C55.57 35.19 57.55 35.89 58.82 36.64C59.31 36.91 59.79 37.22 60.26 37.52L60.08 37.66C59.25 35.74 60.19 32.53 62.4 35.04L62.21 35.11C62.33 32.01 64.83 32.55 66.41 34.37L66.24 34.47C65.73 33.24 66.08 31.75 67.03 30.84C68.31 31.37 69.19 32.49 69.97 33.58L69.82 33.62C69.85 33.06 69.95 32.51 70.12 31.97C70.85 29.78 72.53 29.15 73.59 31.31C73.61 31.29 73.64 31.25 73.65 31.24L73.77 31.12C75.31 29.3 76.02 29.08 77.6 31.07C77.67 31.15 77.74 31.24 77.81 31.3C77.86 31.33 77.81 31.32 77.88 31.29C78.1 31.14 78.29 30.96 78.47 30.76C78.92 30.21 79.37 29.5 80.01 30.39C80.36 30.94 80.52 31.58 80.73 32.19C80.92 32.65 81 33.27 81.43 33.55C81.74 33.64 81.86 33.18 82.03 32.98C82.51 32.26 83.07 31.59 83.76 31.06C84.16 30.75 84.67 30.85 84.93 31.3C85.45 32.16 85.44 33.22 85.12 34.14C84.92 34.94 86.48 33.57 86.72 33.47C87.09 33.24 87.47 32.98 87.93 32.97C89.17 32.93 88.34 35.82 89.63 34.84C89.99 34.55 90.72 33.67 90.94 34.55C91.15 35.51 90.27 38.3 92.18 37.43C92.95 37.21 95.24 35.1 95.59 36.46C95.69 37.08 95.4 37.8 96 38.18C96.16 38.27 96.36 38.27 96.57 38.26C97.64 38.11 98.06 39.2 98.12 40.08C98.18 40.44 98.13 40.89 98.27 41.21C98.26 41.21 98.29 41.2 98.31 41.17C98.6 40.65 98.79 40 99.39 39.75C99.82 39.57 100.36 39.59 100.71 39.95C100.88 40.17 100.82 40.42 100.82 40.65C100.77 41.31 100.57 41.96 100.55 42.6C100.55 42.63 100.56 42.59 100.5 42.58C101.26 41.94 101.5 41.86 101.61 43C101.68 43.53 101.62 44.17 101.69 44.65C101.69 44.64 101.65 44.65 101.66 44.65C101.67 44.65 101.67 44.66 101.69 44.65C101.94 44.42 102.4 43.98 102.7 43.78C103.38 43.55 103.52 45.13 103.52 45.55C103.57 46.4 102.99 47.2 103.37 48.02C103.53 48.4 103.78 48.74 104.01 49.11C104.48 49.83 104.86 50.66 104.96 51.53C105.13 52.62 104.96 53.71 104.78 54.77C104.77 54.89 104.75 55.01 104.76 55.12C104.76 55.13 104.77 55.11 104.72 55.08C104.7 55.07 104.66 55.08 104.65 55.08C104.84 54.94 105.1 54.83 105.33 54.73C105.39 54.71 105.46 54.68 105.56 54.7C105.8 54.76 105.89 54.96 105.97 55.14C106.4 56.2 106.16 57.39 105.61 58.35C105.44 58.66 105.23 59.08 105.7 59.16C105.88 59.19 106.14 59.19 106.37 59.34C106.79 59.61 106.8 60.22 106.71 60.66C106.53 61.53 106.1 62.3 105.68 63.06C104.78 64.98 106.53 67.18 107.56 68.74L109.05 70.84C109.56 71.55 109.91 72.38 110.06 73.25C110.67 76.88 108.72 81.28 106.47 84.07C103.37 87.74 98.73 89.59 94.24 90.96C87.57 92.77 80.6 92.56 73.76 92.54C63 92.51 52.98 91.1 45.64 82.47C53.16 90.97 62.99 92.35 73.76 92.31C82.25 92.34 91.09 92.51 98.97 88.92C104 86.84 107.56 83.55 109.24 78.29C110.01 75.95 110.33 73.12 108.8 71.01L107.31 68.92C106.23 67.27 104.43 64.99 105.42 62.93C105.9 62.03 106.5 61.07 106.45 60.03C106.39 59.56 106.07 59.49 105.64 59.45C104.92 59.3 105.07 58.66 105.34 58.22C105.86 57.34 106.09 56.22 105.7 55.26C105.67 55.16 105.58 55.03 105.5 54.99C105.25 55.05 104.98 55.23 104.75 55.36C104.71 55.37 104.65 55.38 104.61 55.36C104.49 55.32 104.46 55.19 104.47 55.09C104.47 54.86 104.56 54.34 104.59 54.11C104.89 52.44 104.77 50.68 103.77 49.27C103.43 48.73 103 48.15 102.96 47.47C102.95 46.81 103.29 46.21 103.25 45.56C103.25 45.15 103.2 44.72 103.06 44.35C103.02 44.25 102.98 44.16 102.93 44.1C102.88 44.03 102.79 44 102.81 44.01C102.43 44.25 102.13 44.63 101.75 44.89C101.4 45 101.42 44.52 101.42 44.32C101.39 43.67 101.46 42.95 101.21 42.35C101.03 42.43 100.79 42.62 100.62 42.76C100.43 42.91 100.3 42.74 100.31 42.57C100.36 41.91 100.53 41.3 100.59 40.65C100.61 40.45 100.64 40.22 100.54 40.11C100.42 39.98 100.23 39.9 100.03 39.88C99.12 39.74 98.81 40.65 98.46 41.31C98.42 41.35 98.37 41.43 98.25 41.43C98.12 41.42 98.08 41.32 98.05 41.26C97.87 40.5 98 39.62 97.58 38.94C97.36 38.57 96.99 38.41 96.57 38.46C96.36 38.47 96.11 38.48 95.89 38.35C95.22 37.99 95.48 37.08 95.4 36.52C94.96 34.96 91.05 39.72 90.77 36.84C90.61 36.35 91.25 33.57 90.19 34.55C89.85 34.86 89.17 35.6 88.79 34.95C88.55 34.46 88.64 33.87 88.38 33.4C87.8 32.51 86.33 33.99 85.71 34.32C85.06 34.74 84.81 34.53 85.08 33.82C85.32 33.02 85.25 32.1 84.82 31.38C84.23 30.43 83.36 31.53 82.88 32.04C82.42 32.51 82.13 33.06 81.73 33.59C80.95 34.21 80.48 31.5 80.19 31.03C79.99 30.52 79.49 29.67 78.94 30.36C78.68 30.66 78.39 31.08 78.06 31.3C77.99 31.35 77.91 31.42 77.83 31.45C77.77 31.45 77.74 31.42 77.72 31.4C77.1 30.77 76.5 29.73 75.51 29.81C74.74 30.06 74.25 30.87 73.67 31.41C73.64 31.42 73.64 31.46 73.53 31.45C73.16 30.78 72.54 29.91 71.68 30.17C70.38 30.75 70 32.58 69.96 33.88C69.16 32.76 68.3 31.59 67 31.04L67.1 31.02C66.02 32.14 65.94 33.57 66.61 34.92C65.28 33.19 62.57 31.79 62.41 35.13L62.39 35.39L62.22 35.19C60.94 33.64 59.91 34.45 60 36.26C60.02 36.83 60.2 37.39 60.41 37.92C59.85 37.56 59.27 37.19 58.69 36.86C57.98 36.5 57.2 36.05 56.4 36.19C55.57 36.43 55.63 37.48 55.68 38.21L55.69 38.36C53.88 38.08 52.9 39.64 53.29 41.31L53.02 41.38C52.72 40.36 51.93 39.51 50.86 40.16L50.93 40.01C51.06 40.91 50.77 41.81 51.06 42.66L51.21 43.09C50.91 42.84 50.48 42.52 50.11 42.36L50.31 42.24C50.18 43.09 49.76 43.91 49.89 44.76L49.96 45.19C49.76 44.94 49.4 44.6 49.11 44.43C48.91 44.29 48.69 44.16 48.49 43.97L48.69 43.94C48.44 44.4 48.23 44.88 48.17 45.39C48.1 45.91 48.2 46.45 48.4 46.95L48.36 47C46.91 49.09 46.19 52.74 46.84 55.19C46.35 55.54 45.97 56.14 45.56 56.62C45.45 56.74 45.34 56.87 45.21 56.97C45.16 57 45.11 57.05 44.98 57.03L45.09 57C44.58 57.62 45.24 58.34 45.67 58.81C46.2 59.4 46.81 59.94 47.13 60.69C46.63 60.72 46.31 61.3 46.05 61.69C45.56 62.53 45.21 63.48 45.08 64.44C45.03 64.92 45.03 65.43 45.25 65.85C45.85 66.69 45.93 67.82 45.44 68.74C45.01 69.64 44.43 70.45 44.02 71.35C42.2 75.1 43.28 79.29 45.64 82.47Z" fill="#1D1D1B" fill-opacity="1.000000" fill-rule="nonzero"/>
		<path id="path" d="M76.6 78.9C73.84 76.4 66.95 76.15 67.92 71.94C68.7 68.59 74.32 67.87 76.6 69.7C78.88 67.87 84.5 68.59 85.28 71.94C86.26 76.15 79.36 76.4 76.6 78.9Z" fill="url(#paint_radial_88_683_0)" fill-opacity="1.000000" fill-rule="nonzero"/>
		<path id="path" d="M67.92 71.94C68.7 68.59 74.32 67.87 76.6 69.7C78.88 67.87 84.5 68.59 85.28 71.94C86.26 76.15 79.36 76.4 76.6 78.9C73.84 76.4 66.95 76.15 67.92 71.94Z" stroke="#1D1D1B" stroke-opacity="1.000000" stroke-width="1.000000"/>
		<path id="path" d="M62.39 88.14C62.07 92.95 67.02 97.52 72.35 96.27C74.23 95.84 75.64 94.27 76.61 92.24L62.39 88.14Z" fill="#9F6134" fill-opacity="1.000000" fill-rule="nonzero"/>
		<path id="path" d="M62.39 88.14C62.07 92.95 67.02 97.52 72.35 96.27C74.23 95.84 75.64 94.27 76.61 92.24" stroke="#1D1D1B" stroke-opacity="1.000000" stroke-width="1.000000"/>
		<path id="path" d="M90.81 88.14C91.14 92.95 86.19 97.52 80.86 96.27C78.98 95.84 77.58 94.27 76.61 92.24L90.81 88.14Z" fill="#9F6134" fill-opacity="1.000000" fill-rule="nonzero"/>
		<path id="path" d="M90.81 88.14C91.14 92.95 86.19 97.52 80.86 96.27C78.98 95.84 77.58 94.27 76.61 92.24" stroke="#1D1D1B" stroke-opacity="1.000000" stroke-width="1.000000"/>
		<line id="line" x1="76.607849" y1="78.905273" x2="76.576263" y2="92.907227" stroke="#1D1D1B" stroke-opacity="1.000000" stroke-width="1.000000"/>
		<path id="path" d="M44.65 73.45C44.42 76.3 44.36 79.12 46.45 81.82L46.49 81.88C48.9 84.5 51.28 86.29 53.35 87.51C53.89 87.83 54.43 87.13 53.99 86.69C52.33 85.03 50.52 82.88 48.87 80.18C47.38 77.72 46.36 75.36 45.67 73.32C45.48 72.78 44.69 72.88 44.65 73.45Z" fill="#704223" fill-opacity="1.000000" fill-rule="nonzero"/>
		<path id="path" d="M107.83 73.45C108.05 76.3 108.12 79.12 106.03 81.82L105.98 81.88C103.57 84.5 101.19 86.29 99.12 87.51C98.59 87.83 98.05 87.13 98.49 86.69C100.15 85.03 101.96 82.88 103.6 80.18C105.1 77.72 106.11 75.36 106.81 73.32C107 72.78 107.79 72.88 107.83 73.45Z" fill="#704223" fill-opacity="1.000000" fill-rule="nonzero"/>
		<circle id="circle" cx="67.197388" cy="61.124023" r="3.874158" fill="#FFFFFF" fill-opacity="1.000000"/>
		<circle id="circle" cx="67.197388" cy="61.124023" r="3.874158" stroke="#1D1D1B" stroke-opacity="1.000000" stroke-width="1.000000"/>
		<ellipse id="circle" cx="86.501862" cy="61.206299" rx="3.874163" ry="3.874158" fill="#FFFFFF" fill-opacity="1.000000"/>
		<ellipse id="circle" cx="86.501862" cy="61.206299" rx="3.874163" ry="3.874158" stroke="#1D1D1B" stroke-opacity="1.000000" stroke-width="1.000000"/>
		<circle id="circle" cx="67.785156" cy="62.138428" r="2.528000" fill="#000000" fill-opacity="1.000000"/>
		<circle id="circle" cx="69.377808" cy="61.875977" r="0.723638" fill="#FFFFFF" fill-opacity="1.000000"/>
		<circle id="circle" cx="86.185852" cy="62.495361" r="2.528000" fill="#000000" fill-opacity="1.000000"/>
		<ellipse id="circle" cx="87.781616" cy="62.232910" rx="0.723643" ry="0.723638" fill="#FFFFFF" fill-opacity="1.000000"/>
		<path id="path" d="M91.01 24.41C91.01 24.41 70.99 12.53 59.74 19.59C48.49 26.64 36.42 47.7 38.69 50.13C39.41 50.9 40.39 51.71 41.39 52.46C58.45 43.97 77.9 38.64 94.07 28.96C93.4 25.92 91.01 24.41 91.01 24.41Z" fill="#000000" fill-opacity="1.000000" fill-rule="nonzero"/>
		<path id="path" d="M41.39 52.46C43.55 54.07 45.81 55.39 45.81 55.39L93 35.28C94.3 32.71 94.44 30.61 94.07 28.96C77.91 38.64 58.45 43.97 41.39 52.46Z" fill="#35260D" fill-opacity="1.000000" fill-rule="nonzero"/>
		<path id="path" d="M45.81 55.39C45.81 55.39 90.45 45.9 96.91 37.02C98.77 34.07 93.46 34.09 93.46 34.09C93.46 34.09 61.32 47.23 44.77 54.47C45.07 54.49 45.77 55.28 45.81 55.39Z" fill="#35260D" fill-opacity="1.000000" fill-rule="nonzero"/>
		<path id="path" d="M45.53 54.62C45.53 54.62 88.93 44.53 95.56 36.76C97.5 34.2 92.38 34.46 92.38 34.46C92.38 34.46 60.84 47.02 44.57 53.88C44.86 53.89 45.5 54.52 45.53 54.62Z" fill="#000000" fill-opacity="1.000000" fill-rule="nonzero"/>
		<path id="path" d="M49.1 52.15C49.16 52.62 49.42 53.06 49.86 53.36C50.77 54 52.14 53.8 52.9 52.92C53.39 52.35 53.52 51.64 53.3 51.04C54.02 51.08 54.76 50.8 55.25 50.22C56.02 49.34 55.89 48.1 54.98 47.46C54.51 47.13 53.92 47.03 53.35 47.12C53.82 46.29 53.62 45.28 52.82 44.73C51.9 44.09 50.54 44.29 49.77 45.17C49.57 45.41 49.43 45.68 49.35 45.95C49.29 45.9 49.23 45.84 49.16 45.8C48.24 45.16 46.88 45.36 46.11 46.24C45.35 47.13 45.47 48.37 46.39 49C46.45 49.04 46.51 49.08 46.57 49.11C46.45 49.21 46.34 49.31 46.24 49.42C45.48 50.31 45.6 51.54 46.52 52.18C47.27 52.7 48.32 52.67 49.1 52.15Z" fill="#FF2E2B" fill-opacity="1.000000" fill-rule="nonzero"/>
		<path id="path" d="M48.19 51.22C49.51 52.25 51.56 52.05 52.78 50.77C54 49.5 53.93 47.63 52.61 46.6C51.3 45.57 49.24 45.77 48.02 47.05C46.8 48.32 46.88 50.19 48.19 51.22Z" fill="#FF4B5B" fill-opacity="1.000000" fill-rule="nonzero"/>
		<path id="path" d="M48.44 50.25C49.32 50.95 50.7 50.81 51.53 49.95C52.35 49.09 52.29 47.84 51.41 47.15C50.53 46.45 49.15 46.59 48.32 47.45C47.5 48.31 47.56 49.56 48.44 50.25Z" fill="#F4746F" fill-opacity="1.000000" fill-rule="nonzero"/>
		<path id="path" d="M48.57 48.77C48.94 49.05 49.51 49 49.85 48.64C50.19 48.29 50.16 47.77 49.8 47.49C49.44 47.2 48.86 47.26 48.53 47.61C48.19 47.96 48.21 48.48 48.57 48.77Z" fill="#FFB100" fill-opacity="1.000000" fill-rule="nonzero"/>
	</g>
</svg>
