<svg width="60" height="60" viewBox="0 0 60 60" fill="none" xmlns="http://www.w3.org/2000/svg">
<path d="M29.838 15.7616C30.6648 14.0797 31.6202 12.6555 32.8452 11.4192C37.7322 6.4834 45.8837 6.02977 51.25 10.4638C55.4738 13.9531 57.6081 18.5005 57.7366 23.9619C57.7881 26.1799 56.9626 28.2027 55.9373 30.1326C53.8927 33.9799 51.0727 37.2318 48.0437 40.3201C42.6364 45.8276 36.6457 50.648 30.3714 55.1236C30.0944 55.3254 29.8828 55.5509 29.4457 55.2416C22.6057 50.348 16.0861 45.0812 10.3109 38.9388C7.84895 36.3199 5.62235 33.5144 3.84082 30.3687C0.753783 24.9159 1.64851 19.6907 4.72763 14.6355C7.02477 10.866 10.3432 8.41197 14.747 7.60889C20.747 6.52362 26.5307 9.43593 29.4074 14.9427C29.5261 15.1775 29.6441 15.399 29.838 15.7616Z" fill="#F4767A"/>
<path d="M29.8385 57.0502C29.3704 57.0509 28.9161 56.8966 28.4869 56.5933C20.4581 50.8491 14.3005 45.6014 9.10359 40.0735C6.27568 37.0662 4.08271 34.1586 2.39942 31.1849C-0.743001 25.6366 -0.44366 19.9405 3.3126 13.7744C5.93612 9.47152 9.68315 6.84866 14.4508 5.97965C15.3739 5.81218 16.3089 5.72778 17.2326 5.72778C22.2733 5.72778 26.9486 8.26559 29.8445 12.4629C30.4043 11.6526 31.0095 10.9194 31.6689 10.2535C34.5021 7.39262 38.4924 5.75152 42.6166 5.75152C46.1829 5.75152 49.624 6.97196 52.3049 9.18734C56.8662 12.9548 59.2511 17.9124 59.3928 23.9229C59.4568 26.6724 58.3616 29.1014 57.4003 30.9106C55.1163 35.2095 51.9871 38.6665 49.2271 41.4805C44.313 46.4856 38.4601 51.3891 31.3333 56.4726L31.2891 56.5056C31.0537 56.6829 30.5638 57.0502 29.8385 57.0502ZM17.2319 9.04097C16.5054 9.04097 15.7689 9.10756 15.0423 9.23943C11.2464 9.93108 8.25172 12.037 6.14249 15.4979C3.02447 20.6164 2.75085 25.0821 5.28271 29.5524C6.83414 32.2933 8.87282 34.992 11.5168 37.8047C16.4374 43.0372 22.2686 48.0291 29.8273 53.4766C36.6113 48.608 42.1834 43.9247 46.8607 39.1597C49.4546 36.515 52.3873 33.2816 54.4735 29.3559C55.293 27.8124 56.1258 25.9689 56.0803 24.0001C55.9616 18.9944 53.981 14.8695 50.1944 11.7416C48.1056 10.0155 45.4141 9.06471 42.6159 9.06471C39.3693 9.06471 36.2368 10.3478 34.0221 12.5849C32.9697 13.6465 32.1126 14.888 31.324 16.4928C31.0497 17.0506 30.4867 17.408 29.8649 17.4179C29.8557 17.4186 29.8471 17.4186 29.8379 17.4186C29.226 17.4186 28.6649 17.0816 28.3761 16.5416C28.1737 16.1645 28.0517 15.9324 27.9278 15.6884C25.7579 11.5339 21.7544 9.04097 17.2319 9.04097Z" fill="#454B53"/>
<path d="M46.0538 31.7592C45.6865 31.7592 45.3173 31.6372 45.0094 31.388C44.2999 30.8111 44.1924 29.768 44.7694 29.0579C45.9766 27.573 47.7964 23.1752 47.2142 20.8161C47.0243 20.0486 46.6386 19.7954 46.3241 19.6616C45.4834 19.3016 45.0931 18.3284 45.4524 17.4871C45.8118 16.6458 46.7869 16.2561 47.6263 16.6148C49.0623 17.2286 50.0309 18.4062 50.4305 20.0216C51.3542 23.762 48.9476 29.1706 47.3401 31.148C47.0131 31.5502 46.5351 31.7592 46.0538 31.7592Z" fill="white"/>
<path d="M42.9233 36.9094C42.4815 36.9094 42.0661 36.738 41.7562 36.4287C41.4397 36.1122 41.2683 35.6969 41.2683 35.2551C41.2683 34.8199 41.4463 34.3914 41.7562 34.0815C42.3694 33.4683 43.4764 33.4683 44.0969 34.0815C44.4068 34.392 44.5841 34.8199 44.5841 35.2551C44.5841 35.6969 44.4061 36.1122 44.0969 36.4287C43.7804 36.7386 43.365 36.9094 42.9233 36.9094Z" fill="white"/>
</svg>
