<svg width="60" height="60" viewBox="0 0 60 60" fill="none" xmlns="http://www.w3.org/2000/svg">
<path d="M33.4499 41.6537C33.4499 41.0181 33.3892 40.4003 33.2989 39.7897L37.7897 37.1959L33.1334 29.1335L28.4653 31.7253C27.4993 30.9519 26.3739 30.3242 25.0552 29.8594V25.7141H15.1651V29.8594C14.5057 30.3064 13.464 30.9071 12.5237 31.6376L8.30067 28.9943L3.67407 37.0047L8.19253 39.646C8.09034 40.2994 8.04814 40.9699 8.04814 41.6537C8.04814 42.2899 8.12264 42.9097 8.21231 43.5203L3.73078 46.1135L8.39034 54.1719L12.4084 51.5814C13.3769 52.3528 14.5057 52.9818 15.1651 53.4473V58.6811H25.0552V53.4473C26.3739 53.0029 27.411 52.4009 28.3492 51.6677L32.8987 54.3091L37.6914 46.3007L33.2528 43.6607C33.3556 43.006 33.4499 42.3381 33.4499 41.6537ZM20.7655 47.3082C17.6415 47.3082 15.1057 44.7776 15.1057 41.6537C15.1057 38.531 17.6415 35.9978 20.7655 35.9978C23.8875 35.9978 26.4213 38.531 26.4213 41.6537C26.4213 44.7776 23.8875 47.3082 20.7655 47.3082Z" fill="#B0E0D4"/>
<path d="M25.3168 59.6702H15.4267C14.5162 59.6702 13.7784 58.9324 13.7784 58.0219V54.3566C13.7282 54.3269 13.6775 54.2966 13.626 54.2656C13.2773 54.0586 12.8803 53.8225 12.4801 53.5614L9.26451 55.5691C8.88538 55.8065 8.42582 55.8784 7.99264 55.7709C7.55945 55.6628 7.18758 55.3832 6.96407 54.9962L2.30582 46.9377C1.85022 46.1498 2.11989 45.1417 2.90714 44.6861L6.45176 42.6368C6.42538 42.3236 6.40824 41.9926 6.40824 41.6537C6.40824 41.2746 6.42209 40.8975 6.44978 40.525L2.87286 38.4263C2.08956 37.9674 1.82517 36.9606 2.28209 36.1759L6.94099 28.1663C7.16451 27.7819 7.53374 27.5043 7.96495 27.3962C8.39747 27.288 8.85308 27.3586 9.23088 27.592L12.5962 29.6663C12.9852 29.4144 13.3669 29.1869 13.7045 28.9865C13.7296 28.972 13.754 28.9568 13.7784 28.943V25.0548C13.7784 24.1443 14.5162 23.4065 15.4267 23.4065H25.3168C26.2274 23.4065 26.9652 24.1443 26.9652 25.0548V28.7531C27.5638 29.0326 28.1368 29.3623 28.7144 29.7592L32.3151 27.7021C33.1043 27.2518 34.1071 27.5234 34.5601 28.3094L39.2164 36.3718C39.6713 37.1597 39.4016 38.1685 38.6131 38.6234L35.0586 40.6759C35.0849 41.0135 35.0981 41.3379 35.0981 41.6531C35.0981 42.0203 35.0803 42.3922 35.0414 42.7951L38.5636 44.8819C38.9401 45.1047 39.2124 45.4687 39.3205 45.892C39.4287 46.3166 39.3634 46.7656 39.1405 47.1421L34.3808 55.1504C33.9166 55.9311 32.9091 56.1883 32.1271 55.7287L28.5799 53.6392C28.1025 53.9643 27.5751 54.2795 26.9652 54.5617V58.0219C26.9652 58.9324 26.2274 59.6702 25.3168 59.6702ZM17.0751 56.3735H23.6685V53.4474C23.6685 52.7399 24.1201 52.1116 24.7907 51.8854C25.8654 51.5234 26.6104 51.0368 27.4643 50.3689C27.9997 49.9509 28.7342 49.9041 29.3164 50.2469L32.3856 52.0548L35.4634 46.877L32.4278 45.0777C31.8463 44.7342 31.5344 44.0696 31.6399 43.4023C31.752 42.6948 31.8021 42.1548 31.8021 41.6531C31.8021 41.1586 31.7599 40.6436 31.6689 40.0318C31.5693 39.3619 31.8891 38.6999 32.4753 38.3617L35.5386 36.5926L32.5274 31.3786L29.4153 33.1562C28.8271 33.4918 28.0959 33.4337 27.5678 33.0118C26.6091 32.2443 25.7718 31.7663 24.7702 31.4129C24.1109 31.1801 23.6698 30.5577 23.6698 29.8588V26.7032H17.0764V29.8595C17.0764 30.4061 16.8054 30.917 16.3524 31.2236C16.092 31.4003 15.7597 31.5995 15.3911 31.8184C14.8267 32.1546 14.1871 32.5351 13.6669 32.9392C13.1236 33.3606 12.3746 33.4008 11.7904 33.0401L8.94143 31.2843L5.95857 36.4133L9.04429 38.2232C9.62912 38.5661 9.94363 39.2307 9.83879 39.8999C9.75044 40.4623 9.70626 41.0518 9.70626 41.6524C9.70626 42.228 9.77813 42.7977 9.84934 43.2803C9.94692 43.9483 9.6278 44.6083 9.04363 44.9458L5.9856 46.7142L8.96648 51.8689L11.6685 50.1817C12.2612 49.8105 13.0221 49.8553 13.5693 50.2905C14.0823 50.6999 14.7364 51.0883 15.3126 51.4305C15.7063 51.6639 16.0768 51.8847 16.3788 52.0984C16.8166 52.4069 17.0777 52.9094 17.0777 53.4454V56.3735H17.0751ZM20.7654 48.9566C16.7362 48.9566 13.4573 45.6803 13.4573 41.6537C13.4573 37.6265 16.7362 34.3496 20.7654 34.3496C24.7926 34.3496 28.0696 37.6265 28.0696 41.6537C28.0696 45.6803 24.7933 48.9566 20.7654 48.9566ZM20.7654 37.6463C18.554 37.6463 16.754 39.4443 16.754 41.6537C16.754 43.8632 18.5533 45.6599 20.7654 45.6599C22.9755 45.6599 24.7729 43.8625 24.7729 41.6537C24.7729 39.4436 22.9755 37.6463 20.7654 37.6463Z" fill="#454B53"/>
<path d="M52.0117 15.0862C52.0117 14.6023 51.9642 14.1341 51.895 13.6693L55.3051 11.7012L51.7703 5.57787L48.1545 7.5427C47.4187 6.95853 46.1541 6.4805 45.4947 6.12842V2.63721H38.9013V6.12842C37.5827 6.466 37.2194 6.9216 36.506 7.47875L33.1005 5.47237L29.4879 11.5535L32.8697 13.5592C32.7945 14.0603 32.7372 14.5667 32.7372 15.0862C32.7372 15.5695 32.7827 16.0396 32.8552 16.5012L29.4385 18.4713L32.9732 24.5972L36.415 22.6291C37.1567 23.2152 37.5827 23.6933 38.9013 24.0434V29.0108H45.4947V24.0434C46.1541 23.7045 47.3567 23.2508 48.0635 22.693L51.558 24.7001L55.2134 18.6163L51.8495 16.61C51.9345 16.1108 52.0117 15.6071 52.0117 15.0862ZM42.3741 19.3858C40.0031 19.3858 38.0745 17.4579 38.0745 15.0862C38.0745 12.7126 40.0031 10.788 42.3741 10.788C44.7457 10.788 46.671 12.7126 46.671 15.0862C46.6703 17.4585 44.7451 19.3858 42.3741 19.3858Z" fill="#E0F1F8"/>
<path d="M45.7565 29.9999H39.1631C38.2525 29.9999 37.5147 29.2621 37.5147 28.3516V25.2124C37.0776 25.0193 36.7209 24.8083 36.4031 24.59L33.7703 26.0412C32.9837 26.4757 31.9954 26.1995 31.547 25.4215L28.0129 19.2955C27.794 18.9171 27.7347 18.4667 27.8488 18.0448C27.9622 17.6221 28.2384 17.2621 28.6176 17.0439L31.1099 15.6065C31.1013 15.4331 31.0967 15.2604 31.0967 15.0863C31.0967 14.8615 31.1066 14.6419 31.1224 14.427L28.6762 12.9692C28.3004 12.745 28.0294 12.3797 27.9213 11.9557C27.8145 11.5311 27.8811 11.0815 28.1059 10.7056L31.7507 4.62454C32.2136 3.85113 33.2105 3.59399 33.9899 4.04497L36.5138 5.5041C36.7987 5.31091 37.1198 5.12366 37.514 4.95025V1.97794C37.514 1.06739 38.2518 0.32959 39.1624 0.32959H45.7558C46.6664 0.32959 47.4042 1.06739 47.4042 1.97794V5.10981C47.7081 5.2608 48.0325 5.42761 48.3523 5.61289L50.96 4.14256C51.7466 3.69816 52.7442 3.97047 53.1971 4.75443L56.7318 10.8771C56.9507 11.2555 57.0101 11.7059 56.8967 12.1278C56.7833 12.5498 56.507 12.9105 56.1285 13.1287L53.6442 14.5628C53.6547 14.7415 53.6587 14.9149 53.6587 15.087C53.6587 15.3006 53.6501 15.5175 53.6336 15.7443L56.087 17.2001C56.4628 17.423 56.7351 17.787 56.8426 18.2109C56.9507 18.6355 56.8848 19.0845 56.662 19.461L53.0395 25.5448C52.576 26.3234 51.5705 26.5812 50.7905 26.1237L48.2415 24.6316C47.9593 24.7918 47.6758 24.9382 47.4042 25.072V28.3516C47.4048 29.2621 46.667 29.9999 45.7565 29.9999ZM40.8114 26.7032H44.1081V24.0434C44.1081 23.425 44.4536 22.8593 45.0028 22.5771C45.1657 22.4933 45.3523 22.4023 45.5521 22.3061C46.0954 22.0437 46.7712 21.716 47.1747 21.3982C47.7061 20.9775 48.4426 20.9281 49.0275 21.2709L51.0444 22.4511L52.9855 19.192L51.0239 18.0276C50.4378 17.6801 50.1272 17.0076 50.2406 16.3364C50.325 15.834 50.3633 15.4489 50.3633 15.0863C50.3633 14.7388 50.3316 14.365 50.265 13.9107C50.1661 13.2415 50.4853 12.5795 51.0714 12.2419L53.054 11.0979L51.1591 7.81574L49.0954 8.97948C48.5125 9.30783 47.7866 9.25113 47.2604 8.83377C46.8576 8.51333 46.1771 8.17904 45.6312 7.91135C45.3905 7.79267 45.1683 7.68256 44.9811 7.583C44.4444 7.29618 44.1094 6.73772 44.1094 6.12915V3.62629H40.8127V6.12849C40.8127 6.88146 40.3031 7.53882 39.5732 7.72541C38.7055 7.94761 38.3969 8.19091 37.8371 8.63267L37.6518 8.77838C37.1217 9.19179 36.3938 9.24256 35.8129 8.90563L33.7466 7.71091L31.785 10.9832L33.7307 12.143C34.3057 12.4859 34.6162 13.1426 34.5167 13.8045C34.4435 14.2911 34.394 14.696 34.394 15.0863C34.394 15.4641 34.425 15.8439 34.4877 16.2474C34.5932 16.9206 34.2734 17.5892 33.682 17.93L31.6921 19.0766L33.5949 22.374L35.751 21.1859C36.3318 20.8661 37.0479 20.9248 37.5688 21.3362L37.6815 21.4259C38.3165 21.9289 38.6666 22.2065 39.587 22.4511C40.3096 22.643 40.8121 23.2964 40.8121 24.0441V26.7032H40.8114ZM42.374 21.0342C39.0945 21.0342 36.4261 18.3659 36.4261 15.0863C36.4261 11.8074 39.0945 9.1397 42.374 9.1397C45.6523 9.1397 48.3193 11.8074 48.3193 15.0863C48.3187 18.3659 45.6516 21.0342 42.374 21.0342ZM42.374 12.4364C40.9123 12.4364 39.7228 13.6252 39.7228 15.0863C39.7228 16.5487 40.9123 17.7375 42.374 17.7375C43.8345 17.7375 45.0226 16.5481 45.0226 15.0863C45.022 13.6252 43.8338 12.4364 42.374 12.4364Z" fill="#454B53"/>
</svg>
