<svg width="154.000000" height="154.000000" viewBox="0 0 154 154" fill="none" xmlns="http://www.w3.org/2000/svg" xmlns:xlink="http://www.w3.org/1999/xlink">
	<desc>
			Created with Pixso.
	</desc>
	<defs>
		<clipPath id="clip88_421">
			<rect id="manul_reads2" width="154.000000" height="154.000000" fill="white" fill-opacity="0"/>
		</clipPath>
		<radialGradient gradientTransform="translate(112.766 34.4603) rotate(21.3001) scale(3.35133 3.21829)" cx="0.000000" cy="0.000000" r="1.000000" id="paint_radial_88_449_0" gradientUnits="userSpaceOnUse">
			<stop offset="0.360000" stop-color="#7A3A1B" stop-opacity="0.717647"/>
			<stop offset="0.980000" stop-color="#422918"/>
		</radialGradient>
		<radialGradient gradientTransform="translate(79.1253 11.4193) rotate(0) scale(8.70333 8.23174)" cx="0.000000" cy="0.000000" r="1.000000" id="paint_radial_88_451_0" gradientUnits="userSpaceOnUse">
			<stop offset="0.360000" stop-color="#F6B8A3"/>
			<stop offset="0.990000" stop-color="#FFFFFF"/>
		</radialGradient>
		<radialGradient gradientTransform="translate(79.1254 11.4193) rotate(0) scale(8.70333 8.23174)" cx="0.000000" cy="0.000000" r="1.000000" id="paint_radial_88_454_0" gradientUnits="userSpaceOnUse">
			<stop offset="0.360000" stop-color="#F6B8A3"/>
			<stop offset="0.990000" stop-color="#FFFFFF"/>
		</radialGradient>
		<radialGradient gradientTransform="rotate(92.6303) scale(1.65318 1.09981)" cx="0.000000" cy="0.000000" r="1.000000" id="paint_radial_88_484_0" gradientUnits="userSpaceOnUse">
			<stop offset="0.630000" stop-color="#3E3634" stop-opacity="0.717647"/>
			<stop offset="0.990000" stop-color="#FFFFFF" stop-opacity="0.098039"/>
		</radialGradient>
		<radialGradient gradientTransform="rotate(92.63) scale(1.65318 1.09981)" cx="0.000000" cy="0.000000" r="1.000000" id="paint_radial_88_485_0" gradientUnits="userSpaceOnUse">
			<stop offset="0.630000" stop-color="#3E3634" stop-opacity="0.717647"/>
			<stop offset="0.990000" stop-color="#FFFFFF" stop-opacity="0.098039"/>
		</radialGradient>
		<radialGradient gradientTransform="rotate(92.6303) scale(1.65318 1.09981)" cx="0.000000" cy="0.000000" r="1.000000" id="paint_radial_88_486_0" gradientUnits="userSpaceOnUse">
			<stop offset="0.630000" stop-color="#3E3634" stop-opacity="0.717647"/>
			<stop offset="0.990000" stop-color="#FFFFFF" stop-opacity="0.098039"/>
		</radialGradient>
		<radialGradient gradientTransform="rotate(92.63) scale(1.65318 1.09981)" cx="0.000000" cy="0.000000" r="1.000000" id="paint_radial_88_487_0" gradientUnits="userSpaceOnUse">
			<stop offset="0.630000" stop-color="#3E3634" stop-opacity="0.717647"/>
			<stop offset="0.990000" stop-color="#FFFFFF" stop-opacity="0.098039"/>
		</radialGradient>
		<radialGradient gradientTransform="rotate(92.63) scale(1.65318 1.09981)" cx="0.000000" cy="0.000000" r="1.000000" id="paint_radial_88_488_0" gradientUnits="userSpaceOnUse">
			<stop offset="0.630000" stop-color="#3E3634" stop-opacity="0.717647"/>
			<stop offset="0.990000" stop-color="#FFFFFF" stop-opacity="0.098039"/>
		</radialGradient>
		<radialGradient gradientTransform="rotate(92.63) scale(1.65318 1.09981)" cx="0.000000" cy="0.000000" r="1.000000" id="paint_radial_88_489_0" gradientUnits="userSpaceOnUse">
			<stop offset="0.630000" stop-color="#3E3634" stop-opacity="0.717647"/>
			<stop offset="0.990000" stop-color="#FFFFFF" stop-opacity="0.098039"/>
		</radialGradient>
		<radialGradient gradientTransform="rotate(92.63) scale(1.65318 1.09981)" cx="0.000000" cy="0.000000" r="1.000000" id="paint_radial_88_490_0" gradientUnits="userSpaceOnUse">
			<stop offset="0.630000" stop-color="#3E3634" stop-opacity="0.717647"/>
			<stop offset="0.990000" stop-color="#FFFFFF" stop-opacity="0.098039"/>
		</radialGradient>
		<radialGradient gradientTransform="rotate(92.63) scale(1.65318 1.09981)" cx="0.000000" cy="0.000000" r="1.000000" id="paint_radial_88_491_0" gradientUnits="userSpaceOnUse">
			<stop offset="0.630000" stop-color="#3E3634" stop-opacity="0.717647"/>
			<stop offset="0.990000" stop-color="#FFFFFF" stop-opacity="0.098039"/>
		</radialGradient>
		<radialGradient gradientTransform="rotate(92.6298) scale(1.65318 1.09981)" cx="0.000000" cy="0.000000" r="1.000000" id="paint_radial_88_492_0" gradientUnits="userSpaceOnUse">
			<stop offset="0.630000" stop-color="#3E3634" stop-opacity="0.717647"/>
			<stop offset="0.990000" stop-color="#FFFFFF" stop-opacity="0.098039"/>
		</radialGradient>
		<radialGradient gradientTransform="rotate(92.6303) scale(1.65318 1.09981)" cx="0.000000" cy="0.000000" r="1.000000" id="paint_radial_88_493_0" gradientUnits="userSpaceOnUse">
			<stop offset="0.630000" stop-color="#3E3634" stop-opacity="0.717647"/>
			<stop offset="0.990000" stop-color="#FFFFFF" stop-opacity="0.098039"/>
		</radialGradient>
		<radialGradient gradientTransform="rotate(92.6303) scale(1.65318 1.09981)" cx="0.000000" cy="0.000000" r="1.000000" id="paint_radial_88_494_0" gradientUnits="userSpaceOnUse">
			<stop offset="0.630000" stop-color="#3E3634" stop-opacity="0.717647"/>
			<stop offset="0.990000" stop-color="#FFFFFF" stop-opacity="0.098039"/>
		</radialGradient>
		<radialGradient gradientTransform="rotate(92.63) scale(1.65318 1.09981)" cx="0.000000" cy="0.000000" r="1.000000" id="paint_radial_88_495_0" gradientUnits="userSpaceOnUse">
			<stop offset="0.630000" stop-color="#3E3634" stop-opacity="0.717647"/>
			<stop offset="0.990000" stop-color="#FFFFFF" stop-opacity="0.098039"/>
		</radialGradient>
	</defs>
	<g clip-path="url(#clip88_421)">
		<path id="polygon" d="M137.34 135.72L73.25 128.87L101.43 107.9L153.52 112.82L137.34 135.72Z" fill="#FAFF1A" fill-opacity="1.000000" fill-rule="nonzero"/>
		<path id="polygon" d="M73.25 128.87L101.43 107.9L153.52 112.82L137.34 135.72L73.25 128.87Z" stroke="#534741" stroke-opacity="1.000000" stroke-width="0.500000" stroke-linejoin="round"/>
		<path id="path" d="M135.13 148.52L74.16 142.62C74.72 141.76 74.45 139.57 74.59 136.51C74.7 133.89 73.94 131.93 73.51 131.02C94.35 132.99 116.64 135.1 137.47 137.06L135.13 148.52Z" fill="#B4E0EF" fill-opacity="1.000000" fill-rule="nonzero"/>
		<path id="path" d="M74.16 142.62C74.72 141.76 74.45 139.57 74.59 136.51C74.7 133.89 73.94 131.93 73.51 131.02C94.35 132.99 116.64 135.1 137.47 137.06L135.13 148.52L74.16 142.62Z" stroke="#2E3192" stroke-opacity="1.000000" stroke-width="0.500000" stroke-linejoin="round"/>
		<path id="path" d="M152.26 123.73L135.16 148.52C135.79 147.6 136.81 145.85 137.21 143.41C137.82 139.73 137.22 135.83 136.75 134.87C142.64 127.17 147.91 120.55 153.8 112.85C154.14 113.78 154.85 116.09 154.3 119.01C153.86 121.31 152.85 122.93 152.26 123.73Z" fill="#FAFF1A" fill-opacity="1.000000" fill-rule="nonzero"/>
		<path id="path" d="M135.16 148.52C135.79 147.6 136.81 145.85 137.21 143.41C137.82 139.73 137.22 135.83 136.75 134.87C142.64 127.17 147.91 120.55 153.8 112.85C154.14 113.78 154.85 116.09 154.3 119.01C153.86 121.31 152.85 122.93 152.26 123.73L135.16 148.52Z" stroke="#534741" stroke-opacity="1.000000" stroke-width="0.500000" stroke-linejoin="round"/>
		<path id="path" d="M135.4 136.89L73.18 131.78C72.63 131.73 72.24 131.21 72.31 130.62L72.38 130C72.42 129.71 72.56 129.45 72.76 129.28C72.76 129.28 73.04 129.03 73.49 129.03C74.42 129.02 123.75 133.65 136.75 134.87C137.2 135.59 138.94 138.54 138.31 142.45C137.82 145.42 136.21 147.41 135.69 148.05C134.94 148.95 134.19 149.58 133.64 149.98L72.94 144.86C72.4 144.82 72.01 144.3 72.08 143.71L72.15 143.09C72.22 142.5 72.71 142.07 73.25 142.13C93.41 144.02 112.59 145.86 132.78 147.75C133.03 147.57 136.63 144.9 136.55 140.7C136.52 138.92 135.83 137.58 135.4 136.89Z" fill="#BC9D1D" fill-opacity="1.000000" fill-rule="nonzero"/>
		<path id="path" d="M73.18 131.78C72.63 131.73 72.24 131.21 72.31 130.62L72.38 130C72.42 129.71 72.56 129.45 72.76 129.28C72.76 129.28 73.04 129.03 73.49 129.03C74.42 129.02 123.75 133.65 136.75 134.87C137.2 135.59 138.94 138.54 138.31 142.45C137.82 145.42 136.21 147.41 135.69 148.05C134.94 148.95 134.19 149.58 133.64 149.98L72.94 144.86C72.4 144.82 72.01 144.3 72.08 143.71L72.15 143.09C72.22 142.5 72.71 142.07 73.25 142.13C93.41 144.02 112.59 145.86 132.78 147.75C133.03 147.57 136.63 144.9 136.55 140.7C136.52 138.92 135.83 137.58 135.4 136.89L73.18 131.78Z" stroke="#534741" stroke-opacity="1.000000" stroke-width="0.500000" stroke-linejoin="round"/>
		<path id="polygon" d="M95.91 128.15L149.83 120.47L125.92 108.12L82.09 113.94L95.91 128.15Z" fill="#57BFFF" fill-opacity="1.000000" fill-rule="nonzero"/>
		<path id="polygon" d="M149.83 120.47L125.92 108.12L82.09 113.94L95.91 128.15L149.83 120.47Z" stroke="#534741" stroke-opacity="1.000000" stroke-width="0.500000" stroke-linejoin="round"/>
		<path id="path" d="M97.88 136.26L150.46 129.28C149.99 128.74 148.91 127.37 148.77 125.37C148.65 123.65 149.27 122.33 149.63 121.72C132.1 124.05 113.35 126.53 95.82 128.86L97.88 136.26Z" fill="#B4E0EF" fill-opacity="1.000000" fill-rule="nonzero"/>
		<path id="path" d="M150.46 129.28C149.99 128.74 148.91 127.37 148.77 125.37C148.65 123.65 149.27 122.33 149.63 121.72C132.1 124.05 113.35 126.53 95.82 128.86L97.88 136.26L150.46 129.28Z" stroke="#2E3192" stroke-opacity="1.000000" stroke-width="0.500000" stroke-linejoin="round"/>
		<path id="path" d="M83.24 120.86L97.86 136.27C97.32 135.7 96.44 134.59 96.08 133.01C95.55 130.63 96.01 128.04 96.4 127.39C91.38 122.63 86.88 118.55 81.86 113.8C81.58 114.43 81 115.97 81.49 117.86C81.87 119.35 82.74 120.36 83.24 120.86Z" fill="#57BFFF" fill-opacity="1.000000" fill-rule="nonzero"/>
		<path id="path" d="M97.86 136.27C97.32 135.7 96.44 134.59 96.08 133.01C95.55 130.63 96.01 128.04 96.4 127.39C91.38 122.63 86.88 118.55 81.86 113.8C81.58 114.43 81 115.97 81.49 117.86C81.87 119.35 82.74 120.36 83.24 120.86L97.86 136.27Z" stroke="#534741" stroke-opacity="1.000000" stroke-width="0.500000" stroke-linejoin="round"/>
		<path id="path" d="M97.56 128.64L149.91 122.19C150.37 122.14 150.7 121.5 150.63 121.12L150.56 120.99C150.53 120.8 150.41 120.64 150.24 120.53C150.24 120.53 150.01 120.39 149.63 120.41C148.84 120.45 107.35 125.94 96.41 127.39C96.03 127.88 94.59 129.9 95.16 132.44C95.6 134.36 96.97 135.59 97.42 135.97C98.06 136.53 98.69 136.9 99.16 137.14L151.51 130.69C151.97 130.63 152.29 130.27 152.23 129.88L152.16 129.48C152.1 129.1 151.68 128.84 151.22 128.9C134.26 131.15 116.85 133.38 99.86 135.64C99.65 135.53 96.59 133.96 96.62 131.2C96.64 130.03 97.19 129.12 97.56 128.64Z" fill="#466489" fill-opacity="1.000000" fill-rule="nonzero"/>
		<path id="path" d="M149.91 122.19C150.37 122.14 150.7 121.5 150.63 121.12L150.56 120.99C150.53 120.8 150.41 120.64 150.24 120.53C150.24 120.53 150.01 120.39 149.63 120.41C148.84 120.45 107.35 125.94 96.41 127.39C96.03 127.88 94.59 129.9 95.16 132.44C95.6 134.36 96.97 135.59 97.42 135.97C98.06 136.53 98.69 136.9 99.16 137.14L151.51 130.69C151.97 130.63 152.29 130.27 152.23 129.88L152.16 129.48C152.1 129.1 151.68 128.84 151.22 128.9C134.26 131.15 116.85 133.38 99.86 135.64C99.65 135.53 96.59 133.96 96.62 131.2C96.64 130.03 97.19 129.12 97.56 128.64L149.91 122.19Z" stroke="#534741" stroke-opacity="1.000000" stroke-width="0.500000" stroke-linejoin="round"/>
		<path id="polygon" d="M131.29 114.36L77.06 108.72L100.37 95.48L144.44 99.63L131.29 114.36Z" fill="#FF7455" fill-opacity="1.000000" fill-rule="nonzero"/>
		<path id="polygon" d="M77.06 108.72L100.37 95.48L144.44 99.63L131.29 114.36L77.06 108.72Z" stroke="#534741" stroke-opacity="1.000000" stroke-width="0.500000" stroke-linejoin="round"/>
		<path id="path" d="M129.71 122.53L76.85 117.54C77.3 116.99 78.31 115.58 78.36 113.57C78.4 111.85 77.71 110.56 77.33 109.95C94.95 111.62 113.8 113.4 131.42 115.06L129.71 122.53Z" fill="#B4E0EF" fill-opacity="1.000000" fill-rule="nonzero"/>
		<path id="path" d="M76.85 117.54C77.3 116.99 78.31 115.58 78.36 113.57C78.4 111.85 77.71 110.56 77.33 109.95C94.95 111.62 113.8 113.4 131.42 115.06L129.71 122.53L76.85 117.54Z" stroke="#2E3192" stroke-opacity="1.000000" stroke-width="0.500000" stroke-linejoin="round"/>
		<path id="path" d="M143.61 106.59L129.73 122.54C130.24 121.95 131.06 120.81 131.35 119.22C131.77 116.82 131.18 114.25 130.77 113.61C135.56 108.67 139.86 104.43 144.66 99.48C144.97 100.1 145.61 101.62 145.21 103.53C144.9 105.03 144.08 106.07 143.61 106.59Z" fill="#FF7455" fill-opacity="1.000000" fill-rule="nonzero"/>
		<path id="path" d="M129.73 122.54C130.24 121.95 131.06 120.81 131.35 119.22C131.77 116.82 131.18 114.25 130.77 113.61C135.56 108.67 139.86 104.43 144.66 99.48C144.97 100.1 145.61 101.62 145.21 103.53C144.9 105.03 144.08 106.07 143.61 106.59L129.73 122.54Z" stroke="#534741" stroke-opacity="1.000000" stroke-width="0.500000" stroke-linejoin="round"/>
		<path id="path" d="M129.67 114.91L77.06 110.44C76.6 110.4 76.26 110.06 76.31 109.67L76.35 109.27C76.37 109.08 76.49 108.91 76.65 108.8C76.65 108.8 76.88 108.65 77.26 108.65C78.05 108.66 119.76 112.58 130.77 113.62C131.16 114.09 132.7 116.06 132.25 118.62C131.91 120.56 130.59 121.83 130.16 122.23C129.55 122.82 128.93 123.21 128.48 123.46L75.87 118.99C75.41 118.96 75.07 118.61 75.11 118.22L75.16 117.82C75.21 117.43 75.61 117.16 76.07 117.2C93.12 118.81 110.62 120.38 127.7 121.99C127.91 121.87 130.89 120.19 130.73 117.43C130.66 116.26 130.06 115.38 129.67 114.91Z" fill="#C64C38" fill-opacity="1.000000" fill-rule="nonzero"/>
		<path id="path" d="M77.06 110.44C76.6 110.4 76.26 110.06 76.31 109.67L76.35 109.27C76.37 109.08 76.49 108.91 76.65 108.8C76.65 108.8 76.88 108.65 77.26 108.65C78.05 108.66 119.76 112.58 130.77 113.62C131.16 114.09 132.7 116.06 132.25 118.62C131.91 120.56 130.59 121.83 130.16 122.23C129.55 122.82 128.93 123.21 128.48 123.46L75.87 118.99C75.41 118.96 75.07 118.61 75.11 118.22L75.16 117.82C75.21 117.43 75.61 117.16 76.07 117.2C93.12 118.81 110.62 120.38 127.7 121.99C127.91 121.87 130.89 120.19 130.73 117.43C130.66 116.26 130.06 115.38 129.67 114.91L77.06 110.44Z" stroke="#534741" stroke-opacity="1.000000" stroke-width="0.500000" stroke-linejoin="round"/>
		<path id="path" d="M53.41 32.71C51.26 34 48.63 36.09 48.74 36.27C48.76 36.31 48.85 36.28 48.94 36.25C49.63 36.23 50.33 36.21 51.02 36.19C49.26 38.6 47.36 40.88 45.32 43.03C46.53 42.8 47.74 42.58 48.95 42.36C45.48 45.76 42.01 49.15 38.54 52.55C39.39 52.29 40.24 52.03 41.09 51.76C38.5 55.23 35.91 58.71 33.33 62.18C34.28 61.92 35.24 61.67 36.2 61.42C33.43 64.51 30.66 67.59 27.89 70.68C29.46 70.52 30.37 72.73 29.95 74.34C29.57 75.82 28.2 76.52 27.77 78.77C27.61 79.62 27.68 80.34 27.75 80.79C28.27 80.75 28.79 80.72 29.31 80.68C25.7 86.23 22.85 92.34 20.91 98.76C18.1 108 13.26 131.74 18.78 139.49C22.61 144.41 24.7 150.57 34.95 146.15C41.14 143.48 45.59 136.76 49.23 130.72C53.96 127.97 58.32 124.49 62.12 120.43C62.89 127.37 63.67 134.3 64.44 141.24C64.81 143.02 66.72 144.24 68.39 143.78C68.75 144.83 69.12 145.88 69.48 146.93C70.96 146.4 72.74 147.58 72.96 149.21C81.85 143.82 88.44 134.32 90.64 123.72C90.84 124.26 91.61 123.97 92.03 123.6C97.04 119.03 100.6 112.7 102.02 105.86C102.8 106.57 103.59 107.28 104.37 107.99C105.66 104.66 105.88 100.87 104.98 97.4C105.61 98.23 106.25 99.07 106.88 99.9C107.44 97.64 107.52 95.26 107.13 92.96C107.89 93.57 108.66 94.18 109.43 94.8C109.77 90.93 109.72 87.01 109.27 83.15C110.06 83.87 110.86 84.59 111.65 85.32C112.53 82.01 112.9 78.55 112.74 75.13C113.11 76.5 114.18 77.64 115.47 78.03C116.48 75.63 116.71 72.87 116.11 70.32C117.29 70.78 118.36 71.55 119.2 72.53C120.53 68.51 120.67 64.05 119.58 59.94C119.71 60.94 121.18 61.07 121.81 60.33C122.44 59.58 122.45 58.47 122.4 57.47C122.22 53.45 121.8 49.43 121.16 45.46C122.23 45.46 123.31 45.46 124.38 45.45C123.9 43.97 124.54 42.17 125.83 41.38C122.04 40.9 119.36 36.1 120.77 32.35C118.69 32.4 116.63 33.17 114.98 34.53C114.6 31.72 114.21 28.91 113.83 26.1C110.92 28.87 106.63 29.24 102.75 28.73C100.12 28.38 97.55 27.7 94.98 27.02C91.55 26.11 72.46 21.68 69.02 20.78C67.64 19.05 56.16 31.08 53.41 32.71Z" fill="#CCC8B4" fill-opacity="1.000000" fill-rule="nonzero"/>
		<path id="path" d="M48.74 36.27C48.76 36.31 48.85 36.28 48.94 36.25C49.63 36.23 50.33 36.21 51.02 36.19C49.26 38.6 47.36 40.88 45.32 43.03C46.53 42.8 47.74 42.58 48.95 42.36C45.48 45.76 42.01 49.15 38.54 52.55C39.39 52.29 40.24 52.03 41.09 51.76C38.5 55.23 35.91 58.71 33.33 62.18C34.28 61.92 35.24 61.67 36.2 61.42C33.43 64.51 30.66 67.59 27.89 70.68C29.46 70.52 30.37 72.73 29.95 74.34C29.57 75.82 28.2 76.52 27.77 78.77C27.61 79.62 27.68 80.34 27.75 80.79C28.27 80.75 28.79 80.72 29.31 80.68C25.7 86.23 22.85 92.34 20.91 98.76C18.1 108 13.26 131.74 18.78 139.49C22.61 144.41 24.7 150.57 34.95 146.15C41.14 143.48 45.59 136.76 49.23 130.72C53.96 127.97 58.32 124.49 62.12 120.43C62.89 127.37 63.67 134.3 64.44 141.24C64.81 143.02 66.72 144.24 68.39 143.78C68.75 144.83 69.12 145.88 69.48 146.93C70.96 146.4 72.74 147.58 72.96 149.21C81.85 143.82 88.44 134.32 90.64 123.72C90.84 124.26 91.61 123.97 92.03 123.6C97.04 119.03 100.6 112.7 102.02 105.86C102.8 106.57 103.59 107.28 104.37 107.99C105.66 104.66 105.88 100.87 104.98 97.4C105.61 98.23 106.25 99.07 106.88 99.9C107.44 97.64 107.52 95.26 107.13 92.96C107.89 93.57 108.66 94.18 109.43 94.8C109.77 90.93 109.72 87.01 109.27 83.15C110.06 83.87 110.86 84.59 111.65 85.32C112.53 82.01 112.9 78.55 112.74 75.13C113.11 76.5 114.18 77.64 115.47 78.03C116.48 75.63 116.71 72.87 116.11 70.32C117.29 70.78 118.36 71.55 119.2 72.53C120.53 68.51 120.67 64.05 119.58 59.94C119.71 60.94 121.18 61.07 121.81 60.33C122.44 59.58 122.45 58.47 122.4 57.47C122.22 53.45 121.8 49.43 121.16 45.46C122.23 45.46 123.31 45.46 124.38 45.45C123.9 43.97 124.54 42.17 125.83 41.38C122.04 40.9 119.36 36.1 120.77 32.35C118.69 32.4 116.63 33.17 114.98 34.53C114.6 31.72 114.21 28.91 113.83 26.1C110.92 28.87 106.63 29.24 102.75 28.73C100.12 28.38 97.55 27.7 94.98 27.02C91.55 26.11 72.46 21.68 69.02 20.78C67.64 19.05 56.16 31.08 53.41 32.71C51.26 34 48.63 36.09 48.74 36.27Z" stroke="#1D1D1B" stroke-opacity="1.000000" stroke-width="0.500000"/>
		<path id="path" d="M70.11 143.26C68.2 142.24 66.04 142.18 64.68 143.17C63.74 143.86 63.01 145.42 63.02 146.84C63.03 148.1 63.71 149.24 63.86 149.49C64.39 150.39 65.41 151.36 66.28 151.85C68.32 153.01 70.69 152.46 71.97 149.47L70.11 143.26Z" fill="#CCC8B4" fill-opacity="1.000000" fill-rule="nonzero"/>
		<path id="path" d="M70.11 143.26C68.2 142.24 66.04 142.18 64.68 143.17C63.74 143.86 63.01 145.42 63.02 146.84C63.03 148.1 63.71 149.24 63.86 149.49C64.39 150.39 65.41 151.36 66.28 151.85C68.32 153.01 70.69 152.46 71.97 149.47" stroke="#1D1E1C" stroke-opacity="1.000000" stroke-width="0.500000"/>
		<path id="path" d="M75.58 148.72C76.26 150.64 77.82 152.03 79.53 152.16C80.71 152.24 82.36 151.57 83.37 150.53C84.25 149.62 84.56 148.37 84.63 148.09C84.88 147.11 84.81 145.78 84.52 144.88C83.83 142.77 81.69 141.71 78.62 143.08L75.58 148.72Z" fill="#CCC8B4" fill-opacity="1.000000" fill-rule="nonzero"/>
		<path id="path" d="M75.58 148.72C76.26 150.64 77.82 152.03 79.53 152.16C80.71 152.24 82.36 151.57 83.37 150.53C84.25 149.62 84.56 148.37 84.63 148.09C84.88 147.11 84.81 145.78 84.52 144.88C83.83 142.77 81.69 141.71 78.62 143.08" stroke="#1D1E1C" stroke-opacity="1.000000" stroke-width="0.500000"/>
		<path id="path" d="M70.97 149.93C71.4 151.56 72.92 153.2 74.93 153.37C76.78 153.52 78.19 152.34 78.77 151.74C79.65 150.83 79.96 149.58 80.03 149.3C80.28 148.32 80.21 146.99 79.92 146.1C79.78 145.68 79.38 144.72 78.4 144.13C76.61 143.06 74.3 144.14 74.01 144.29C72.12 145.21 70.33 147.5 70.97 149.93Z" fill="#CCC8B4" fill-opacity="1.000000" fill-rule="nonzero"/>
		<path id="path" d="M74.93 153.37C76.78 153.52 78.19 152.34 78.77 151.74C79.65 150.83 79.96 149.58 80.03 149.3C80.28 148.32 80.21 146.99 79.92 146.1C79.78 145.68 79.38 144.72 78.4 144.13C76.61 143.06 74.3 144.14 74.01 144.29C72.12 145.21 70.33 147.5 70.97 149.93C71.4 151.56 72.92 153.2 74.93 153.37Z" stroke="#1D1E1C" stroke-opacity="1.000000" stroke-width="0.500000"/>
		<path id="path" d="M71.05 18.32C71.05 18.32 69.64 19.85 68.69 21.18C67.73 22.5 66.7 25.11 66.7 25.11C67.85 24.74 69 24.36 70.15 23.99C67.85 25.21 66.21 27.67 65.97 30.25C66.94 29.59 67.92 28.93 68.9 28.26C67.16 29.72 65.97 31.84 65.66 34.07C66.34 33.75 67.11 33.64 67.84 33.78C66.54 35.83 65.49 38.03 64.74 40.33C65.27 40.24 65.8 40.15 66.33 40.06C65.01 41.77 64.38 43.98 64.62 46.08C66.09 45.23 67.75 44.7 69.42 44.55C68.36 46.06 67.88 47.95 68.08 49.75C69.7 49.25 71.18 48.29 72.31 47.03C71.95 48.4 72.09 49.88 72.69 51.14C73.76 50.53 74.84 49.93 75.91 49.32C75.7 50.51 75.8 51.74 76.2 52.86C77.29 52.22 78.38 51.59 79.47 50.95C79.99 52.5 80.5 54.05 81.02 55.6C82.35 55.42 83.61 54.6 84.34 53.45C84.73 54.59 85.11 55.73 85.5 56.88C86.24 56.11 87.54 56.21 88.38 56.8C89.23 57.4 89.72 58.36 90.19 59.29C91.29 58.45 93.08 58.85 93.67 60.07L93.94 60.98L94.83 60.35C95.96 59.55 97.73 60.02 98.27 61.26C99.15 60.66 100.08 60.04 101.12 59.89C102.17 59.76 103.35 60.26 103.61 61.27C104.53 60.45 105.45 59.62 106.38 58.8C106.43 60.15 107.11 61.43 108.19 62.2C109.43 61.08 110.68 59.96 111.92 58.84C112.55 59.89 113.18 60.95 113.81 62C114.73 61.2 115.45 60.17 115.87 59.03C116.5 60.05 117.13 61.07 117.76 62.09C118.93 61.27 119.8 60.03 120.19 58.66C120.54 60.29 121.35 61.8 122.51 62.97C123.6 61.49 124.14 59.61 123.98 57.81C125.38 58.71 126.56 59.92 127.41 61.34C128.69 59.61 129.27 57.38 128.99 55.29C129.4 55.61 129.82 55.93 130.24 56.25C130.75 53.89 130.96 51.48 130.86 49.1C131.57 49.31 132.19 49.75 132.62 50.34C133.49 48.25 133.53 45.85 132.75 43.78C133.27 44.81 133.79 45.83 134.31 46.86C135.42 44.49 135.23 41.59 133.83 39.46C134.65 40.32 135.47 41.17 136.29 42.02C136.29 42.02 136.44 41.58 136.72 38.1C137 34.63 136.08 34 136.08 34L136.33 33.06C136.79 31.85 136.32 30.39 135.26 29.71C135.58 29.61 135.9 29.5 136.21 29.4C135.17 26.54 133.73 23.31 130.78 22.57C131.15 22.24 131.53 21.92 131.91 21.6C131.18 21.09 130.36 20.71 129.49 20.49C130.07 20.23 130.59 19.82 130.98 19.31C128.78 18.63 126.55 18.05 124.29 17.6C124.54 17.26 124.67 16.84 124.64 16.43C124.36 16.44 124.09 16.45 123.81 16.45C123.64 15.88 123.47 15.31 123.3 14.74C122.67 15.03 122.04 15.31 121.42 15.6C121.41 14.82 122.59 14.21 122.03 13.68C121.8 14.04 120.06 14.87 119.35 14.49C118.67 14.13 119.01 12.57 119.05 12.06C117.48 14.42 115.35 13.77 115.79 11.25C115.56 11.5 114.9 12.21 114.51 12.1C114.23 12.02 114.18 11.18 114.11 10.97C113.76 11.07 113.41 11.17 113.06 11.28C113.02 10.67 112.78 10.09 112.39 9.64C112.28 10.05 111.69 10.15 111.36 9.92C111.02 9.68 110.88 9.26 110.75 8.87C110.4 9.01 110.05 9.15 109.7 9.3C109.57 8.72 109.44 8.14 109.31 7.57C108.98 8.24 108.65 8.91 108.33 9.58C108.35 8.9 108.38 8.22 108.4 7.55C107.92 8.01 107.54 8.6 107.33 9.23C107.3 8.94 106.11 7.45 106.11 7.45C106.11 7.45 104.4 8.34 104.22 8.65C104.17 7.97 103.91 7.31 103.48 6.79C103.09 7.13 102.59 7.35 102.08 7.41C101.92 7.08 101.76 6.74 101.6 6.41C101.24 6.75 100.87 7.1 100.51 7.45C100.51 6.65 100.18 5.88 99.63 5.34C99.11 6.25 98.35 7.03 97.46 7.58C97.44 6.67 98.24 3.68 96.44 6.13C96.11 6.55 95.66 6.87 95.17 7.06C95.12 6.68 95.52 4.62 94.88 4.69C94.59 4.72 93.29 6.81 93.04 6.84C93.09 6.47 90.03 3.52 89.5 5.36C88.96 7.19 88.11 6.27 87.89 6.32C86.88 6.53 86.44 4.9 85.44 4.71C84.88 4.62 84.32 5.02 84.05 5.52C83.77 6.03 83.72 6.62 83.67 7.18C83.2 6.58 82.19 6.68 81.6 7.2C81 7.72 80.74 8.51 80.55 9.28C80.44 9.74 80.29 10.27 79.87 10.47C79.57 10.61 79.22 10.55 78.9 10.48C77.79 10.23 76.68 9.99 75.57 9.74C75.79 10.45 75.98 11.31 75.49 11.89C74.66 12.87 72.8 12.04 71.97 13.02C72.42 13.58 72.87 14.14 73.33 14.71C72.27 15.16 71.22 15.61 70.16 16.06C70.74 16.23 71.19 16.73 71.3 17.32L71.05 18.32Z" fill="#CCC8B4" fill-opacity="1.000000" fill-rule="nonzero"/>
		<path id="path" d="M68.69 21.18C67.73 22.5 66.7 25.11 66.7 25.11C67.85 24.74 69 24.36 70.15 23.99C67.85 25.21 66.21 27.67 65.97 30.25C66.94 29.59 67.92 28.93 68.9 28.26C67.16 29.72 65.97 31.84 65.66 34.07C66.34 33.75 67.11 33.64 67.84 33.78C66.54 35.83 65.49 38.03 64.74 40.33C65.27 40.24 65.8 40.15 66.33 40.06C65.01 41.77 64.38 43.98 64.62 46.08C66.09 45.23 67.75 44.7 69.42 44.55C68.36 46.06 67.88 47.95 68.08 49.75C69.7 49.25 71.18 48.29 72.31 47.03C71.95 48.4 72.09 49.88 72.69 51.14C73.76 50.53 74.84 49.93 75.91 49.32C75.7 50.51 75.8 51.74 76.2 52.86C77.29 52.22 78.38 51.59 79.47 50.95C79.99 52.5 80.5 54.05 81.02 55.6C82.35 55.42 83.61 54.6 84.34 53.45C84.73 54.59 85.11 55.73 85.5 56.88C86.24 56.11 87.54 56.21 88.38 56.8C89.23 57.4 89.72 58.36 90.19 59.29C91.29 58.45 93.08 58.85 93.67 60.07L93.94 60.98L94.83 60.35C95.96 59.55 97.73 60.02 98.27 61.26C99.15 60.66 100.08 60.04 101.12 59.89C102.17 59.76 103.35 60.26 103.61 61.27C104.53 60.45 105.45 59.62 106.38 58.8C106.43 60.15 107.11 61.43 108.19 62.2C109.43 61.08 110.68 59.96 111.92 58.84C112.55 59.89 113.18 60.95 113.81 62C114.73 61.2 115.45 60.17 115.87 59.03C116.5 60.05 117.13 61.07 117.76 62.09C118.93 61.27 119.8 60.03 120.19 58.66C120.54 60.29 121.35 61.8 122.51 62.97C123.6 61.49 124.14 59.61 123.98 57.81C125.38 58.71 126.56 59.92 127.41 61.34C128.69 59.61 129.27 57.38 128.99 55.29C129.4 55.61 129.82 55.93 130.24 56.25C130.75 53.89 130.96 51.48 130.86 49.1C131.57 49.31 132.19 49.75 132.62 50.34C133.49 48.25 133.53 45.85 132.75 43.78C133.27 44.81 133.79 45.83 134.31 46.86C135.42 44.49 135.23 41.59 133.83 39.46C134.65 40.32 135.47 41.17 136.29 42.02C136.29 42.02 136.44 41.58 136.72 38.1C137 34.63 136.08 34 136.08 34L136.33 33.06C136.79 31.85 136.32 30.39 135.26 29.71C135.58 29.61 135.9 29.5 136.21 29.4C135.17 26.54 133.73 23.31 130.78 22.57C131.15 22.24 131.53 21.92 131.91 21.6C131.18 21.09 130.36 20.71 129.49 20.49C130.07 20.23 130.59 19.82 130.98 19.31C128.78 18.63 126.55 18.05 124.29 17.6C124.54 17.26 124.67 16.84 124.64 16.43C124.36 16.44 124.09 16.45 123.81 16.45C123.64 15.88 123.47 15.31 123.3 14.74C122.67 15.03 122.04 15.31 121.42 15.6C121.41 14.82 122.59 14.21 122.03 13.68C121.8 14.04 120.06 14.87 119.35 14.49C118.67 14.13 119.01 12.57 119.05 12.06C117.48 14.42 115.35 13.77 115.79 11.25C115.56 11.5 114.9 12.21 114.51 12.1C114.23 12.02 114.18 11.18 114.11 10.97C113.76 11.07 113.41 11.17 113.06 11.28C113.02 10.67 112.78 10.09 112.39 9.64C112.28 10.05 111.69 10.15 111.36 9.92C111.02 9.68 110.88 9.26 110.75 8.87C110.4 9.01 110.05 9.15 109.7 9.3C109.57 8.72 109.44 8.14 109.31 7.57C108.98 8.24 108.65 8.91 108.33 9.58C108.35 8.9 108.38 8.22 108.4 7.55C107.92 8.01 107.54 8.6 107.33 9.23C107.3 8.94 106.11 7.45 106.11 7.45C106.11 7.45 104.4 8.34 104.22 8.65C104.17 7.97 103.91 7.31 103.48 6.79C103.09 7.13 102.59 7.35 102.08 7.41C101.92 7.08 101.76 6.74 101.6 6.41C101.24 6.75 100.87 7.1 100.51 7.45C100.51 6.65 100.18 5.88 99.63 5.34C99.11 6.25 98.35 7.03 97.46 7.58C97.44 6.67 98.24 3.68 96.44 6.13C96.11 6.55 95.66 6.87 95.17 7.06C95.12 6.68 95.52 4.62 94.88 4.69C94.59 4.72 93.29 6.81 93.04 6.84C93.09 6.47 90.03 3.52 89.5 5.36C88.96 7.19 88.11 6.27 87.89 6.32C86.88 6.53 86.44 4.9 85.44 4.71C84.88 4.62 84.32 5.02 84.05 5.52C83.77 6.03 83.72 6.62 83.67 7.18C83.2 6.58 82.19 6.68 81.6 7.2C81 7.72 80.74 8.51 80.55 9.28C80.44 9.74 80.29 10.27 79.87 10.47C79.57 10.61 79.22 10.55 78.9 10.48C77.79 10.23 76.68 9.99 75.57 9.74C75.79 10.45 75.98 11.31 75.49 11.89C74.66 12.87 72.8 12.04 71.97 13.02C72.42 13.58 72.87 14.14 73.33 14.71C72.27 15.16 71.22 15.61 70.16 16.06C70.74 16.23 71.19 16.73 71.3 17.32L71.05 18.32C71.05 18.32 69.64 19.85 68.69 21.18Z" stroke="#1D1E1C" stroke-opacity="1.000000" stroke-width="0.500000"/>
		<g opacity="0.520000">
			<ellipse id="ellipse" cx="68.628601" cy="97.312500" rx="25.727240" ry="22.613358" fill="#E9E3C6" fill-opacity="1.000000"/>
		</g>
		<path id="path" d="M99.36 33.94C99.1 34.31 96.08 38.58 96.43 40.19C96.91 42.4 99.49 44.1 101.93 43.65C104.12 43.25 108.03 39.48 108.16 39.22L99.36 33.94Z" fill="#EC6D8F" fill-opacity="1.000000" fill-rule="nonzero"/>
		<path id="path" d="M99.36 33.94C99.1 34.31 96.08 38.58 96.43 40.19C96.91 42.4 99.49 44.1 101.93 43.65C104.12 43.25 108.03 39.48 108.16 39.22" stroke="#1D1E1C" stroke-opacity="1.000000" stroke-width="1.000000"/>
		<path id="path" d="M106.7 51.64C107.71 52.71 111.99 56.83 120.03 53.97C123.46 52.75 126.42 50.67 128.39 49.09C125.53 50.29 121.92 51.51 117.95 52.1C113.01 52.83 109.27 52.32 106.7 51.64Z" fill="#B2AFA1" fill-opacity="1.000000" fill-rule="nonzero"/>
		<path id="path" d="M104.83 33.62C104.7 33.46 104.75 32.01 104.91 31.45C104.9 31.4 104.88 31.3 104.83 31.19C104.35 30.21 102.32 30.05 102.32 30.05C102.12 29.74 102.71 29.45 102.88 29.34C103.05 29.24 103.64 28.87 104.83 29.01L106.75 29.59C106.75 29.59 106.7 29.57 107 29.69C107.31 29.81 108.81 30.56 108.81 30.56C109.75 31.25 109.89 31.9 109.94 32.09C109.98 32.28 110.18 32.88 109.81 32.97C109.81 32.97 108.25 31.73 107.18 32.11C107.06 32.15 106.97 32.2 106.93 32.24C106.62 32.74 105.58 33.81 105.36 33.83L104.83 33.62Z" fill="url(#paint_radial_88_449_0)" fill-opacity="1.000000" fill-rule="nonzero"/>
		<path id="path" d="M104.91 31.45C104.9 31.4 104.88 31.3 104.83 31.19C104.35 30.21 102.32 30.05 102.32 30.05C102.12 29.74 102.71 29.45 102.88 29.34C103.05 29.24 103.64 28.87 104.83 29.01L106.75 29.59C106.75 29.59 106.7 29.57 107 29.69C107.31 29.81 108.81 30.56 108.81 30.56C109.75 31.25 109.89 31.9 109.94 32.09C109.98 32.28 110.18 32.88 109.81 32.97C109.81 32.97 108.25 31.73 107.18 32.11C107.06 32.15 106.97 32.2 106.93 32.24C106.62 32.74 105.58 33.81 105.36 33.83L104.83 33.62C104.7 33.46 104.75 32.01 104.91 31.45Z" stroke="#1D1E1C" stroke-opacity="1.000000" stroke-width="0.750000"/>
		<path id="path" d="M83.95 5.85C85.52 6.8 86.74 7.83 87.67 8.74C87.7 9.05 87.74 9.36 87.77 9.67C87.67 9.48 87.57 9.28 87.4 9.14C87.24 8.99 87 8.91 86.79 8.97C87.07 9.67 87.35 10.37 87.64 11.07C86.68 10.74 86.2 9.67 85.26 9.29C85.54 9.77 85.67 10.33 85.63 10.88C85.15 10.39 84.57 9.99 83.93 9.7C84.2 10.49 84.52 11.27 84.89 12.02C84.25 11.44 83.6 10.86 82.96 10.27C83.13 11.03 83.28 11.79 83.38 12.56C82.68 12 81.99 11.45 81.29 10.9C81.86 11.73 82.43 12.56 83 13.39C82.39 13 81.81 12.56 81.27 12.09C81.69 12.78 82.01 13.53 82.19 14.3C81.61 13.92 80.98 13.51 80.27 13.53C80.34 13.87 80.41 14.21 80.48 14.55C80.22 14.38 79.94 14.24 79.64 14.16C79.86 14.74 80.08 15.31 80.3 15.89C79.81 15.45 79.3 15.04 78.75 14.67C78.96 15.01 79.08 15.39 79.1 15.78C79.11 15.97 79.02 16.23 78.82 16.2C78.9 16.84 78.86 17.48 78.72 18.11C78.43 17.86 78.05 17.72 77.66 17.71C77.62 17.71 77.58 17.71 77.55 17.74C77.5 17.78 77.51 17.85 77.52 17.91C77.59 18.19 77.66 18.49 77.73 18.78C77.54 18.69 77.36 18.6 77.17 18.51C77.11 18.48 77.03 18.45 76.98 18.5C76.96 18.52 76.95 18.56 76.95 18.59C76.91 18.89 76.85 19.12 76.81 19.42C73.19 17.91 71.1 14.75 70.48 11.33C69.88 7.94 71.76 4.07 75.19 2.99C75.19 2.99 75.22 2.99 75.26 3.01C77.28 3.21 80.57 3.83 83.95 5.85Z" fill="url(#paint_radial_88_451_0)" fill-opacity="1.000000" fill-rule="nonzero"/>
		<path id="path" d="M87.67 8.74C87.7 9.05 87.74 9.36 87.77 9.67C87.67 9.48 87.57 9.28 87.4 9.14C87.24 8.99 87 8.91 86.79 8.97C87.07 9.67 87.35 10.37 87.64 11.07C86.68 10.74 86.2 9.67 85.26 9.29C85.54 9.77 85.67 10.33 85.63 10.88C85.15 10.39 84.57 9.99 83.93 9.7C84.2 10.49 84.52 11.27 84.89 12.02C84.25 11.44 83.6 10.86 82.96 10.27C83.13 11.03 83.28 11.79 83.38 12.56C82.68 12 81.99 11.45 81.29 10.9C81.86 11.73 82.43 12.56 83 13.39C82.39 13 81.81 12.56 81.27 12.09C81.69 12.78 82.01 13.53 82.19 14.3C81.61 13.92 80.98 13.51 80.27 13.53C80.34 13.87 80.41 14.21 80.48 14.55C80.22 14.38 79.94 14.24 79.64 14.16C79.86 14.74 80.08 15.31 80.3 15.89C79.81 15.45 79.3 15.04 78.75 14.67C78.96 15.01 79.08 15.39 79.1 15.78C79.11 15.97 79.02 16.23 78.82 16.2C78.9 16.84 78.86 17.48 78.72 18.11C78.43 17.86 78.05 17.72 77.66 17.71C77.62 17.71 77.58 17.71 77.55 17.74C77.5 17.78 77.51 17.85 77.52 17.91C77.59 18.19 77.66 18.49 77.73 18.78C77.54 18.69 77.36 18.6 77.17 18.51C77.11 18.48 77.03 18.45 76.98 18.5C76.96 18.52 76.95 18.56 76.95 18.59C76.91 18.89 76.85 19.12 76.81 19.42C73.19 17.91 71.1 14.75 70.48 11.33C69.88 7.94 71.76 4.07 75.19 2.99C75.19 2.99 75.22 2.99 75.26 3.01C77.28 3.21 80.57 3.83 83.95 5.85C85.52 6.8 86.74 7.83 87.67 8.74Z" stroke="#1D1E1C" stroke-opacity="1.000000" stroke-width="0.500000"/>
		<path id="path" d="M75.82 2.71L78.33 3.28C79.87 3.73 81.84 4.47 83.93 5.7C85.58 6.67 86.88 7.7 87.87 8.6C88.07 8.23 88.48 7.62 89.23 7.09C89.76 6.72 90.27 6.53 90.63 6.42C91.36 6.29 92.08 6.17 92.81 6.04C88.43 3.7 83.4 2.45 78.37 2.46C77.66 2.46 75.54 2.72 75.18 2.83L75.82 2.71Z" fill="#CCC8B4" fill-opacity="1.000000" fill-rule="nonzero"/>
		<path id="path" d="M75.82 2.71L78.33 3.28C79.87 3.73 81.84 4.47 83.93 5.7C85.58 6.67 86.88 7.7 87.87 8.6C88.07 8.23 88.48 7.62 89.23 7.09C89.76 6.72 90.27 6.53 90.63 6.42C91.36 6.29 92.08 6.17 92.81 6.04C88.43 3.7 83.4 2.45 78.37 2.46C77.66 2.46 75.54 2.72 75.18 2.83" stroke="#1D1E1C" stroke-opacity="1.000000" stroke-width="0.500000"/>
		<path id="path" d="M135.69 25.12C134.14 25.26 132.83 25.57 131.8 25.91C131.67 26.12 131.53 26.32 131.4 26.53C131.55 26.43 131.69 26.33 131.87 26.28C132.04 26.24 132.26 26.26 132.41 26.37C131.95 26.77 131.48 27.17 131.02 27.57C131.88 27.66 132.63 27.07 133.49 27.11C133.11 27.36 132.81 27.71 132.65 28.11C133.2 27.93 133.78 27.84 134.38 27.85C133.9 28.32 133.38 28.77 132.84 29.17C133.54 28.98 134.24 28.78 134.94 28.59C134.55 29.06 134.17 29.56 133.83 30.07C134.57 29.91 135.3 29.75 136.03 29.6C135.3 29.99 134.57 30.39 133.84 30.78C134.45 30.72 135.05 30.6 135.64 30.45C135.07 30.79 134.57 31.22 134.16 31.7C134.74 31.62 135.38 31.56 135.92 31.81C135.75 32.02 135.58 32.24 135.41 32.46C135.67 32.42 135.94 32.42 136.2 32.46C135.83 32.8 135.46 33.13 135.09 33.47C135.62 33.32 136.16 33.2 136.72 33.13C136.44 33.3 136.21 33.53 136.06 33.8C135.99 33.93 135.97 34.14 136.13 34.19C135.86 34.62 135.66 35.09 135.56 35.57C135.87 35.5 136.21 35.53 136.52 35.66C136.55 35.67 136.58 35.69 136.6 35.71C136.62 35.76 136.59 35.8 136.56 35.84C136.41 36.02 136.26 36.2 136.1 36.39C136.28 36.39 136.45 36.39 136.63 36.38C136.69 36.38 136.76 36.39 136.78 36.44C136.79 36.47 136.78 36.49 136.78 36.52C136.7 36.75 136.67 36.92 136.6 37.15C139.94 37.31 142.66 35.78 144.32 33.56C145.95 31.37 145.82 28 143.51 26.06C143.51 26.06 143.49 26.06 143.45 26.06C141.81 25.52 139.02 24.84 135.69 25.12Z" fill="url(#paint_radial_88_454_0)" fill-opacity="1.000000" fill-rule="nonzero"/>
		<path id="path" d="M131.8 25.91C131.67 26.12 131.53 26.32 131.4 26.53C131.55 26.43 131.69 26.33 131.87 26.28C132.04 26.24 132.26 26.26 132.41 26.37C131.95 26.77 131.48 27.17 131.02 27.57C131.88 27.66 132.63 27.07 133.49 27.11C133.11 27.36 132.81 27.71 132.65 28.11C133.2 27.93 133.78 27.84 134.38 27.85C133.9 28.32 133.38 28.77 132.84 29.17C133.54 28.98 134.24 28.78 134.94 28.59C134.55 29.06 134.17 29.56 133.83 30.07C134.57 29.91 135.3 29.75 136.03 29.6C135.3 29.99 134.57 30.39 133.84 30.78C134.45 30.72 135.05 30.6 135.64 30.45C135.07 30.79 134.57 31.22 134.16 31.7C134.74 31.62 135.38 31.56 135.92 31.81C135.75 32.02 135.58 32.24 135.41 32.46C135.67 32.42 135.94 32.42 136.2 32.46C135.83 32.8 135.46 33.13 135.09 33.47C135.62 33.32 136.16 33.2 136.72 33.13C136.44 33.3 136.21 33.53 136.06 33.8C135.99 33.93 135.97 34.14 136.13 34.19C135.86 34.62 135.66 35.09 135.56 35.57C135.87 35.5 136.21 35.53 136.52 35.66C136.55 35.67 136.58 35.69 136.6 35.71C136.62 35.76 136.59 35.8 136.56 35.84C136.41 36.02 136.26 36.2 136.1 36.39C136.28 36.39 136.45 36.39 136.63 36.38C136.69 36.38 136.76 36.39 136.78 36.44C136.79 36.47 136.78 36.49 136.78 36.52C136.7 36.75 136.67 36.92 136.6 37.15C139.94 37.31 142.66 35.78 144.32 33.56C145.95 31.37 145.82 28 143.51 26.06C143.51 26.06 143.49 26.06 143.45 26.06C141.81 25.52 139.02 24.84 135.69 25.12C134.14 25.26 132.83 25.57 131.8 25.91Z" stroke="#1D1E1C" stroke-opacity="1.000000" stroke-width="0.500000"/>
		<path id="path" d="M143.11 25.65L140.95 25.21C139.6 25 137.81 24.86 135.75 25.02C134.14 25.15 132.77 25.44 131.69 25.74C131.66 25.41 131.55 24.84 131.15 24.21C130.86 23.77 130.53 23.46 130.29 23.26C129.77 22.93 129.24 22.59 128.71 22.26C132.94 22.08 137.29 22.9 141.21 24.61C141.76 24.85 143.33 25.76 143.57 25.95L143.11 25.65Z" fill="#CCC8B4" fill-opacity="1.000000" fill-rule="nonzero"/>
		<path id="path" d="M143.11 25.65L140.95 25.21C139.6 25 137.81 24.86 135.75 25.02C134.14 25.15 132.77 25.44 131.69 25.74C131.66 25.41 131.55 24.84 131.15 24.21C130.86 23.77 130.53 23.46 130.29 23.26C129.77 22.93 129.24 22.59 128.71 22.26C132.94 22.08 137.29 22.9 141.21 24.61C141.76 24.85 143.33 25.76 143.57 25.95" stroke="#1D1E1C" stroke-opacity="1.000000" stroke-width="0.500000"/>
		<g opacity="0.400000">
			<path id="path" d="M98.56 22.23L99.1 24.64L99.98 25.88L98.56 26.16C96.09 26.84 93.61 27.52 91.14 28.2C89.41 28.68 87.66 29.16 86.09 30.01C83.96 31.17 82.22 32.96 80.03 33.99C80.96 30.46 83.44 27.48 86.36 25.27C89.28 23.06 92.66 21.52 96 20L100.23 18.35L98.56 22.23Z" fill="#F2F2E7" fill-opacity="1.000000" fill-rule="nonzero"/>
		</g>
		<g opacity="0.400000">
			<path id="path" d="M100.89 24.84L101.63 25.65L100.21 25.92C97.74 26.6 95.26 27.29 92.79 27.97C91.06 28.45 89.31 28.93 87.74 29.78C85.61 30.93 83.86 32.72 81.67 33.76C81.93 33.11 82.87 32.52 83.61 31.89C88.32 27.82 100.83 24.26 100.89 24.84Z" fill="#7C7C7C" fill-opacity="1.000000" fill-rule="nonzero"/>
		</g>
		<g opacity="0.400000">
			<path id="path" d="M100.35 18.07L96.12 19.72C92.78 21.24 89.4 22.78 86.48 24.99C83.56 27.2 81.08 30.18 80.15 33.71C80.95 33.33 82.69 29.87 85.82 27.57C91.18 23.63 97.93 21.31 99.02 21L100.35 18.07Z" fill="#7C7C7C" fill-opacity="1.000000" fill-rule="nonzero"/>
		</g>
		<ellipse id="ellipse" rx="4.154917" ry="2.464000" transform="matrix(0.535827 -0.844328 0.844328 0.535827 100.563 22.1165)" fill="#DBF784" fill-opacity="1.000000"/>
		<ellipse id="ellipse" rx="4.154917" ry="2.464000" transform="matrix(0.535827 -0.844328 0.844328 0.535827 100.563 22.1165)" stroke="#1D1E1C" stroke-opacity="1.000000" stroke-width="1.000000"/>
		<ellipse id="ellipse" rx="2.987604" ry="2.208359" transform="matrix(0.562516 -0.826786 0.826786 0.562516 100.272 23.386)" fill="#000000" fill-opacity="1.000000"/>
		<ellipse id="ellipse" rx="0.816198" ry="0.520521" transform="matrix(0.541855 -0.840472 0.840472 0.541855 100.382 21.6526)" fill="#FFFFFF" fill-opacity="1.000000"/>
		<g opacity="0.400000">
			<path id="path" d="M116.24 29.75L114.28 31.49L112.92 32.11L113.56 32.96C114.53 34.59 115.5 36.23 116.48 37.87C117.16 39.01 117.85 40.16 118.18 41.55C118.63 43.42 118.42 45.65 118.99 47.45C120.87 44.15 121.46 40.64 121.27 37.56C121.08 34.48 120.17 31.75 119.26 29.05L117.92 25.85L116.24 29.75Z" fill="#F2F2E7" fill-opacity="1.000000" fill-rule="nonzero"/>
		</g>
		<g opacity="0.400000">
			<path id="path" d="M113.11 30.86L112.12 31.2L112.75 32.05C113.73 33.68 114.7 35.32 115.68 36.96C116.36 38.1 117.05 39.26 117.38 40.64C117.83 42.51 117.62 44.74 118.19 46.54C118.49 45.9 118.34 45 118.34 44.16C118.38 38.78 113.54 30.42 113.11 30.86Z" fill="#7C7C7C" fill-opacity="1.000000" fill-rule="nonzero"/>
		</g>
		<g opacity="0.400000">
			<path id="path" d="M118.05 25.57L119.39 28.77C120.29 31.47 121.21 34.2 121.4 37.28C121.58 40.36 120.99 43.87 119.12 47.17C118.91 46.5 120.27 42.91 120.02 39.68C119.59 34.12 117.25 29.28 116.82 28.55L118.05 25.57Z" fill="#7C7C7C" fill-opacity="1.000000" fill-rule="nonzero"/>
		</g>
		<ellipse id="ellipse" rx="3.982438" ry="2.464000" transform="matrix(0.522796 -0.852458 0.852458 0.522796 115.014 28.5728)" fill="#DBF784" fill-opacity="1.000000"/>
		<ellipse id="ellipse" rx="3.982438" ry="2.464000" transform="matrix(0.522796 -0.852458 0.852458 0.522796 115.014 28.5728)" stroke="#1D1E1C" stroke-opacity="1.000000" stroke-width="1.000000"/>
		<ellipse id="ellipse" rx="2.867479" ry="2.208359" transform="matrix(0.556441 -0.830887 0.830887 0.556441 114.159 29.2139)" fill="#000000" fill-opacity="1.000000"/>
		<ellipse id="ellipse" rx="0.782323" ry="0.520521" transform="matrix(0.530067 -0.847956 0.847956 0.530067 115.845 28.5007)" fill="#FFFFFF" fill-opacity="1.000000"/>
		<path id="path" d="M96.97 34.99C96.66 35.64 96.33 36.46 96.07 37.42C95.85 38.23 95.74 38.95 95.68 39.53C96.09 39.43 96.99 39.14 97.95 38.31C98.94 37.45 99.44 36.49 99.64 36.07C98.75 35.71 97.86 35.35 96.97 34.99Z" fill="#FBF2CB" fill-opacity="1.000000" fill-rule="nonzero"/>
		<path id="path" d="M96.07 37.42C95.85 38.23 95.74 38.95 95.68 39.53C96.09 39.43 96.99 39.14 97.95 38.31C98.94 37.45 99.44 36.49 99.64 36.07C98.75 35.71 97.86 35.35 96.97 34.99C96.66 35.64 96.33 36.46 96.07 37.42Z" stroke="#1D1E1C" stroke-opacity="1.000000" stroke-width="1.000000"/>
		<path id="path" d="M107.4 40.62C106.96 41.19 106.36 41.87 105.61 42.55C104.97 43.13 104.37 43.57 103.86 43.91C103.75 43.53 103.58 42.64 103.87 41.44C104.17 40.2 104.81 39.31 105.11 38.94C105.87 39.51 106.64 40.06 107.4 40.62Z" fill="#FBF2CB" fill-opacity="1.000000" fill-rule="nonzero"/>
		<path id="path" d="M105.61 42.55C104.97 43.13 104.37 43.57 103.86 43.91C103.75 43.53 103.58 42.64 103.87 41.44C104.17 40.2 104.81 39.31 105.11 38.94C105.87 39.51 106.64 40.06 107.4 40.62C106.96 41.19 106.36 41.87 105.61 42.55Z" stroke="#1D1E1C" stroke-opacity="1.000000" stroke-width="1.000000"/>
		<path id="path" d="M104.83 33.62L103.44 36.13C101.08 37.53 98.2 37.69 95.94 36.51C93.88 35.44 93.06 33.63 92.81 33.03L104.83 33.62Z" fill="#CCC8B4" fill-opacity="1.000000" fill-rule="nonzero"/>
		<path id="path" d="M104.83 33.62L103.44 36.13C101.08 37.53 98.2 37.69 95.94 36.51C93.88 35.44 93.06 33.63 92.81 33.03" stroke="#1D1E1C" stroke-opacity="1.000000" stroke-width="1.000000"/>
		<path id="path" d="M105.08 33.94L103.58 36.39C103.59 39.03 104.97 41.41 107.24 42.59C109.3 43.66 111.35 43.36 112.03 43.23L105.08 33.94Z" fill="#CCC8B4" fill-opacity="1.000000" fill-rule="nonzero"/>
		<path id="path" d="M105.08 33.94L103.58 36.39C103.59 39.03 104.97 41.41 107.24 42.59C109.3 43.66 111.35 43.36 112.03 43.23" stroke="#1D1E1C" stroke-opacity="1.000000" stroke-width="1.000000"/>
		<ellipse id="ellipse" rx="1.191958" ry="2.156000" transform="matrix(0.237008 -0.971508 0.971508 0.237008 105.486 14.0164)" fill="url(#paint_radial_88_484_0)" fill-opacity="1.000000"/>
		<ellipse id="ellipse" rx="1.191958" ry="2.156000" transform="matrix(0.237008 -0.971508 0.971508 0.237008 108.797 16.5405)" fill="url(#paint_radial_88_485_0)" fill-opacity="1.000000"/>
		<ellipse id="ellipse" rx="1.207364" ry="2.131361" transform="matrix(0.389606 -0.920981 0.920981 0.389606 113.135 16.1172)" fill="url(#paint_radial_88_486_0)" fill-opacity="1.000000"/>
		<ellipse id="ellipse" rx="1.204281" ry="2.137520" transform="matrix(0.632029 -0.774945 0.774945 0.632029 115.018 19.7971)" fill="url(#paint_radial_88_487_0)" fill-opacity="1.000000"/>
		<ellipse id="ellipse" rx="1.170396" ry="2.202200" transform="matrix(0.812287 -0.583258 0.583258 0.812287 119.102 20.8528)" fill="url(#paint_radial_88_488_0)" fill-opacity="1.000000"/>
		<ellipse id="ellipse" rx="1.198125" ry="2.149841" transform="matrix(0.343332 -0.939214 0.939214 0.343332 114.206 22.3037)" fill="url(#paint_radial_88_489_0)" fill-opacity="1.000000"/>
		<ellipse id="ellipse" rx="1.198125" ry="2.149840" transform="matrix(0.343332 -0.939214 0.939214 0.343332 111.241 19.418)" fill="url(#paint_radial_88_490_0)" fill-opacity="1.000000"/>
		<ellipse id="ellipse" rx="1.213521" ry="2.119040" transform="matrix(0.491664 -0.870785 0.870785 0.491664 106.88 19.3398)" fill="url(#paint_radial_88_491_0)" fill-opacity="1.000000"/>
		<ellipse id="ellipse" rx="0.757677" ry="1.148841" transform="matrix(0.307689 -0.951487 0.951487 0.307689 111.48 23.7808)" fill="url(#paint_radial_88_492_0)" fill-opacity="1.000000"/>
		<ellipse id="ellipse" rx="0.757677" ry="1.148841" transform="matrix(0.307689 -0.951487 0.951487 0.307689 109.963 22.1165)" fill="url(#paint_radial_88_493_0)" fill-opacity="1.000000"/>
		<ellipse id="ellipse" rx="0.770000" ry="1.130359" transform="matrix(0.525769 -0.850628 0.850628 0.525769 107.566 22.2288)" fill="url(#paint_radial_88_494_0)" fill-opacity="1.000000"/>
		<ellipse id="ellipse" rx="0.964041" ry="1.453761" transform="matrix(0.306194 -0.951969 0.951969 0.306194 109.12 23.9907)" fill="url(#paint_radial_88_495_0)" fill-opacity="1.000000"/>
		<path id="path" d="M19.16 109.14C18.44 111.36 16.17 119.41 20.36 127.93C21.24 129.73 24.99 137.35 33.52 140.22C35.6 140.92 37.43 141.16 38.71 141.26C35.16 138.07 30.51 133.23 26.42 126.49C22.37 119.81 20.28 113.62 19.16 109.14Z" fill="#B2AFA1" fill-opacity="1.000000" fill-rule="nonzero"/>
		<path id="path" d="M87.08 128.38C87.07 128.91 86.87 135.83 80.53 139.69C74.75 143.22 68.65 141.29 67.92 141.05C70.73 140.3 74.97 138.81 79.34 135.77C83.01 133.21 85.51 130.43 87.08 128.38Z" fill="#B2AFA1" fill-opacity="1.000000" fill-rule="nonzero"/>
		<path id="path" d="M85.63 42.93C84.18 43.34 78.24 44.71 73 38.28C70.77 35.53 69.41 32.28 68.62 29.96C70.38 32.4 72.77 35.24 75.82 37.72C79.6 40.8 83.07 42.23 85.63 42.93Z" fill="#B2AFA1" fill-opacity="1.000000" fill-rule="nonzero"/>
		<path id="path" d="M95.08 40.46C95.35 41.27 95.87 42.37 96.89 43.37C97.51 43.97 98.89 45.33 100.99 45.37C102.25 45.4 103.22 44.94 103.71 44.66C103.62 44.82 101.37 46.56 98.82 46.68C96.8 46.77 95.71 45.4 95.1 44.82C94.52 44.27 95.08 40.46 95.08 40.46Z" fill="#B2AFA1" fill-opacity="1.000000" fill-rule="nonzero"/>
		<path id="path" d="M31.62 82.44C31.71 77.39 32.58 75.8 31.64 73.28C31.36 72.54 30.08 69.14 26.56 69.42C23.96 69.64 21.49 71.75 18.92 73.96C16.82 75.77 14.9 77.42 13.46 79.89C11.75 82.83 11.47 85.66 11.83 92.66C12.28 101.41 14.19 114.46 20.46 121.51C21.54 122.73 28.24 127.84 35.52 129.09C41.58 130.13 47.57 129.91 49.12 129.51C53.43 128.41 55.07 127.65 57.14 126.61C60.41 124.97 65.24 120.93 66.75 116.04C67.74 112.8 66.85 110.63 66.23 109.14C66.09 108.81 63.49 102.83 57.94 104.71C54.58 105.85 53.57 108.71 50.53 109.32C49.5 109.53 48.82 109.36 44.32 106C41.2 103.67 39.61 102.48 38.23 101.09C36.02 98.86 34.91 97.74 33.96 95.89C31.53 91.11 31.58 85.04 31.62 82.44Z" fill="#CCC8B4" fill-opacity="1.000000" fill-rule="nonzero"/>
		<path id="path" d="M31.64 73.28C31.36 72.54 30.08 69.14 26.56 69.42C23.96 69.64 21.49 71.75 18.92 73.96C16.82 75.77 14.9 77.42 13.46 79.89C11.75 82.83 11.47 85.66 11.83 92.66C12.28 101.41 14.19 114.46 20.46 121.51C21.54 122.73 28.24 127.84 35.52 129.09C41.58 130.13 47.57 129.91 49.12 129.51C53.43 128.41 55.07 127.65 57.14 126.61C60.41 124.97 65.24 120.93 66.75 116.04C67.74 112.8 66.85 110.63 66.23 109.14C66.09 108.81 63.49 102.83 57.94 104.71C54.58 105.85 53.57 108.71 50.53 109.32C49.5 109.53 48.82 109.36 44.32 106C41.2 103.67 39.61 102.48 38.23 101.09C36.02 98.86 34.91 97.74 33.96 95.89C31.53 91.11 31.58 85.04 31.62 82.44C31.71 77.39 32.58 75.8 31.64 73.28Z" stroke="#1D1D1B" stroke-opacity="1.000000" stroke-width="0.500000"/>
		<g opacity="0.650000">
			<path id="path" d="M11.75 86.28C12.17 85.18 14.13 80.48 19.64 77.76C25.14 75.04 30.34 76.18 31.53 76.48C31.61 77.88 31.68 79.29 31.76 80.69C31.69 80.84 31.61 80.99 31.53 81.13C30.51 80.86 25.24 79.54 19.8 82.36C13.98 85.38 12.45 90.82 12.22 91.72C12.06 89.91 11.91 88.09 11.75 86.28Z" fill="#807D71" fill-opacity="1.000000" fill-rule="nonzero"/>
		</g>
		<g opacity="0.650000">
			<path id="path" d="M12.51 98.76C12.93 97.67 14.9 92.97 20.41 90.25C25.91 87.52 30.31 88.5 31.51 88.79C31.58 90.19 32.45 91.77 32.53 93.17C32.45 93.32 32.38 93.47 32.3 93.62C31.27 93.34 26.01 92.03 20.57 94.85C14.75 97.87 13.65 103.31 13.42 104.2C13.26 102.39 12.67 100.58 12.51 98.76Z" fill="#807D71" fill-opacity="1.000000" fill-rule="nonzero"/>
		</g>
		<g opacity="0.650000">
			<path id="path" d="M11.77 86.9C12.19 85.8 14.15 81.1 19.66 78.38C25.16 75.66 30.36 76.8 31.56 77.1C31.63 78.5 31.7 79.91 31.78 81.31C31.71 81.46 31.63 81.61 31.56 81.75C30.53 81.48 25.26 80.16 19.82 82.98C14 86 12.48 91.44 12.24 92.34C12.08 90.53 11.93 88.71 11.77 86.9Z" fill="#807D71" fill-opacity="1.000000" fill-rule="nonzero"/>
		</g>
		<g opacity="0.650000">
			<path id="path" d="M40.55 103.71C39.52 103.43 29.46 102.72 24.02 105.54C18.2 108.56 17.71 116.26 17.47 117.16C17.31 115.35 15.33 112.16 15.18 110.35C15.6 109.26 18.35 103.67 23.87 100.94C29.37 98.22 35.11 99.33 36.3 99.63L40.55 103.71Z" fill="#807D71" fill-opacity="1.000000" fill-rule="nonzero"/>
		</g>
		<g opacity="0.650000">
			<path id="path" d="M34.22 116.25C30.03 121.13 30.97 127.06 31.27 127.94C30.13 126.48 26.58 125.89 25.44 124.43C25.19 123.29 25.2 117.02 28.37 111.96C31.53 106.91 40.75 104.55 41.92 104.2C42.77 105.36 44.76 106.28 45.61 107.44L34.22 116.25Z" fill="#807D71" fill-opacity="1.000000" fill-rule="nonzero"/>
		</g>
		<g opacity="0.650000">
			<path id="path" d="M51.27 122.18C53.48 128.1 56.06 126.88 56.95 127.25C55.04 127.1 54.04 128.52 52.13 128.38C51.06 127.81 48.39 127.17 46.44 121.58C44.49 116.01 47.24 110.21 47.74 109.14C49.22 109.3 49.8 109.49 51.28 109.64L51.27 122.18Z" fill="#807D71" fill-opacity="1.000000" fill-rule="nonzero"/>
		</g>
		<path id="path" d="M29.09 141.88C30.8 140.59 32.93 140.21 34.43 140.98C35.47 141.51 36.46 142.94 36.69 144.35C36.9 145.59 36.41 146.83 36.31 147.09C35.94 148.06 35.09 149.17 34.32 149.78C32.5 151.24 30.07 151.05 28.31 148.29L29.09 141.88Z" fill="#CCC8B4" fill-opacity="1.000000" fill-rule="nonzero"/>
		<path id="path" d="M29.09 141.88C30.8 140.59 32.93 140.21 34.43 140.98C35.47 141.51 36.46 142.94 36.69 144.35C36.9 145.59 36.41 146.83 36.31 147.09C35.94 148.06 35.09 149.17 34.32 149.78C32.5 151.24 30.07 151.05 28.31 148.29" stroke="#1D1E1C" stroke-opacity="1.000000" stroke-width="0.500000"/>
		<path id="path" d="M24.7 145.88C23.31 147.42 21.31 148.16 19.68 147.68C18.55 147.35 17.28 146.13 16.75 144.82C16.29 143.67 16.49 142.39 16.54 142.12C16.7 141.11 17.28 139.9 17.9 139.17C19.37 137.46 21.78 137.22 24.1 139.57L24.7 145.88Z" fill="#CCC8B4" fill-opacity="1.000000" fill-rule="nonzero"/>
		<path id="path" d="M24.7 145.88C23.31 147.42 21.31 148.16 19.68 147.68C18.55 147.35 17.28 146.13 16.75 144.82C16.29 143.67 16.49 142.39 16.54 142.12C16.7 141.11 17.28 139.9 17.9 139.17C19.37 137.46 21.78 137.22 24.1 139.57" stroke="#1D1E1C" stroke-opacity="1.000000" stroke-width="0.500000"/>
		<path id="path" d="M28.49 148.62C27.45 149.98 25.41 150.97 23.47 150.42C21.69 149.91 20.85 148.31 20.55 147.56C20.08 146.41 20.29 145.13 20.34 144.86C20.5 143.85 21.08 142.64 21.7 141.92C21.99 141.58 22.74 140.83 23.88 140.63C25.97 140.27 27.68 142.08 27.89 142.32C29.29 143.84 30.05 146.59 28.49 148.62Z" fill="#CCC8B4" fill-opacity="1.000000" fill-rule="nonzero"/>
		<path id="path" d="M23.47 150.42C21.69 149.91 20.85 148.31 20.55 147.56C20.08 146.41 20.29 145.13 20.34 144.86C20.5 143.85 21.08 142.64 21.7 141.92C21.99 141.58 22.74 140.83 23.88 140.63C25.97 140.27 27.68 142.08 27.89 142.32C29.29 143.84 30.05 146.59 28.49 148.62C27.45 149.98 25.41 150.97 23.47 150.42Z" stroke="#1D1E1C" stroke-opacity="1.000000" stroke-width="0.500000"/>
		<path id="path" d="M70.35 94.39C69.28 90.7 66.54 83.04 59.8 76.78C48.29 66.08 34.42 68.12 32.04 68.52C37.46 53.73 42.88 38.95 48.3 24.16C56.14 26.43 67.23 30.89 78.34 40.18C83.01 44.08 86.83 48.13 89.92 51.88C83.39 66.05 76.87 80.22 70.35 94.39Z" fill="#FFFFFF" fill-opacity="1.000000" fill-rule="nonzero"/>
		<path id="path" d="M59.8 76.78C48.29 66.08 34.42 68.12 32.04 68.52C37.46 53.73 42.88 38.95 48.3 24.16C56.14 26.43 67.23 30.89 78.34 40.18C83.01 44.08 86.83 48.13 89.92 51.88C83.39 66.05 76.87 80.22 70.35 94.39C69.28 90.7 66.54 83.04 59.8 76.78Z" stroke="#006CAF" stroke-opacity="1.000000" stroke-width="0.250000"/>
		<path id="path" d="M70.35 94.08C72.96 92.88 85.36 87.56 98.46 94.08C105.08 97.38 109.24 102.38 111.41 105.48C120.78 91.1 130.15 76.73 139.52 62.36C135.55 58.94 127.87 53.28 116.92 50.65C104.79 47.74 94.83 50.05 89.91 51.58C83.39 65.74 76.87 79.91 70.35 94.08Z" fill="#FFFFFF" fill-opacity="1.000000" fill-rule="nonzero"/>
		<path id="path" d="M98.46 94.08C105.08 97.38 109.24 102.38 111.41 105.48C120.78 91.1 130.15 76.73 139.52 62.36C135.55 58.94 127.87 53.28 116.92 50.65C104.79 47.74 94.83 50.05 89.91 51.58C83.39 65.74 76.87 79.91 70.35 94.08C72.96 92.88 85.36 87.56 98.46 94.08Z" stroke="#006CAF" stroke-opacity="1.000000" stroke-width="0.250000"/>
		<path id="path" d="M65.44 98.09C64.25 94.41 61.18 86.74 53.65 80.48C40.79 69.78 25.28 71.83 22.63 72.22C28.69 57.44 34.75 42.65 40.81 27.87C49.56 30.13 61.96 34.6 74.38 43.89C79.59 47.79 83.86 51.83 87.31 55.59C80.02 69.76 72.74 83.92 65.44 98.09Z" fill="#57D4FF" fill-opacity="1.000000" fill-rule="nonzero"/>
		<path id="path" d="M53.65 80.48C40.79 69.78 25.28 71.83 22.63 72.22C28.69 57.44 34.75 42.65 40.81 27.87C49.56 30.13 61.96 34.6 74.38 43.89C79.59 47.79 83.86 51.83 87.31 55.59C80.02 69.76 72.74 83.92 65.44 98.09C64.25 94.41 61.18 86.74 53.65 80.48Z" stroke="#075BA0" stroke-opacity="1.000000" stroke-width="1.000000"/>
		<path id="path" d="M65.44 98.71C68.36 97.51 82.22 92.19 96.86 98.71C104.27 102.01 108.91 107.01 111.34 110.11C121.81 95.73 132.28 81.36 142.75 66.99C138.15 63.51 129.59 58 117.5 55.28C104.12 52.28 93.05 54.18 87.31 55.59C80.02 69.96 72.74 84.33 65.44 98.71Z" fill="#57D4FF" fill-opacity="1.000000" fill-rule="nonzero"/>
		<path id="path" d="M96.86 98.71C104.27 102.01 108.91 107.01 111.34 110.11C121.81 95.73 132.28 81.36 142.75 66.99C138.15 63.51 129.59 58 117.5 55.28C104.12 52.28 93.05 54.18 87.31 55.59C80.02 69.96 72.74 84.33 65.44 98.71C68.36 97.51 82.22 92.19 96.86 98.71Z" stroke="#075BA0" stroke-opacity="1.000000" stroke-width="1.000000"/>
		<circle id="circle" cx="35.574005" cy="41.426025" r="3.696000" fill="#B2AFA1" fill-opacity="1.000000"/>
		<circle id="circle" cx="35.574005" cy="41.426025" r="3.696000" stroke="#1D1E1C" stroke-opacity="1.000000" stroke-width="0.250000"/>
		<circle id="circle" cx="29.722015" cy="51.281982" r="3.696000" fill="#B2AFA1" fill-opacity="1.000000"/>
		<circle id="circle" cx="29.722015" cy="51.281982" r="3.696000" stroke="#1D1E1C" stroke-opacity="1.000000" stroke-width="0.250000"/>
		<circle id="circle" cx="33.417999" cy="46.662109" r="3.696000" fill="#B2AFA1" fill-opacity="1.000000"/>
		<circle id="circle" cx="33.417999" cy="46.662109" r="3.696000" stroke="#1D1E1C" stroke-opacity="1.000000" stroke-width="0.250000"/>
		<circle id="circle" cx="128.488373" cy="87.173340" r="3.696000" fill="#B2AFA1" fill-opacity="1.000000"/>
		<circle id="circle" cx="128.488373" cy="87.173340" r="3.696000" stroke="#1D1E1C" stroke-opacity="1.000000" stroke-width="0.250000"/>
		<circle id="circle" cx="133.856781" cy="77.046143" r="3.696000" fill="#B2AFA1" fill-opacity="1.000000"/>
		<circle id="circle" cx="133.856781" cy="77.046143" r="3.696000" stroke="#1D1E1C" stroke-opacity="1.000000" stroke-width="0.250000"/>
		<circle id="circle" cx="130.388641" cy="81.838623" r="3.696000" fill="#B2AFA1" fill-opacity="1.000000"/>
		<circle id="circle" cx="130.388641" cy="81.838623" r="3.696000" stroke="#1D1E1C" stroke-opacity="1.000000" stroke-width="0.250000"/>
		<path id="path" d="M104.14 79.38C103.88 78.51 103.63 77.67 103.41 76.84C103.18 76.01 102.95 75.16 102.71 74.3L92.33 72.9L89.6 77.4L86.26 76.95C87.41 75.09 88.49 73.36 89.49 71.78C90.49 70.19 91.46 68.7 92.4 67.28C93.34 65.86 94.27 64.52 95.19 63.24C96.1 61.96 97.05 60.69 98.03 59.45L100.97 59.85C101.58 61.31 102.15 62.77 102.69 64.26C103.23 65.73 103.77 67.28 104.3 68.9C104.83 70.51 105.37 72.22 105.91 74.01C106.45 75.8 107.03 77.75 107.64 79.85L104.14 79.38ZM102.08 72.01C101.59 70.35 101.09 68.73 100.6 67.17C100.1 65.61 99.57 64.1 99.01 62.64C98.06 63.89 97.13 65.2 96.24 66.58C95.35 67.96 94.45 69.38 93.56 70.86L102.08 72.01Z" fill="#D84545" fill-opacity="1.000000" fill-rule="nonzero"/>
		<path id="path" d="M113.32 87.14C113.63 87.28 113.96 87.45 114.31 87.62C114.66 87.8 115.01 87.98 115.36 88.17C115.71 88.36 116.06 88.56 116.4 88.75C116.74 88.95 117.04 89.15 117.31 89.34L112.34 99.91L110.19 98.91L112.17 94.71L110.33 93.85C110.13 93.75 109.91 93.65 109.69 93.53C109.46 93.42 109.16 93.26 108.8 93.05C108.41 93.17 107.99 93.33 107.53 93.51C107.06 93.69 106.59 93.9 106.1 94.13C105.62 94.35 105.13 94.59 104.64 94.86C104.15 95.12 103.69 95.38 103.26 95.64L101 94.58C101.43 94.29 101.91 94 102.43 93.72C102.96 93.44 103.49 93.19 104.02 92.96C104.55 92.72 105.05 92.52 105.53 92.33C106 92.14 106.41 92 106.75 91.89C106.44 91.66 106.14 91.39 105.83 91.09C105.53 90.78 105.28 90.43 105.08 90.05C104.88 89.67 104.77 89.25 104.73 88.8C104.7 88.35 104.8 87.88 105.04 87.38C105.3 86.83 105.69 86.41 106.19 86.13C106.7 85.85 107.31 85.71 108.03 85.7C108.74 85.69 109.55 85.81 110.44 86.05C111.33 86.29 112.29 86.65 113.32 87.14ZM112.53 88.37C111.97 88.1 111.42 87.89 110.88 87.71C110.35 87.53 109.84 87.42 109.37 87.39C108.9 87.36 108.49 87.42 108.13 87.58C107.76 87.74 107.49 88.02 107.3 88.42C106.94 89.19 107.04 89.88 107.6 90.5C108.16 91.13 109.14 91.77 110.54 92.43L112.75 93.47L114.65 89.43C114.49 89.35 114.3 89.25 114.08 89.14C113.9 89.04 113.68 88.93 113.42 88.8C113.17 88.67 112.87 88.53 112.53 88.37Z" fill="#D84545" fill-opacity="1.000000" fill-rule="nonzero"/>
	</g>
</svg>
