<svg width="60" height="60" viewBox="0 0 60 60" fill="none" xmlns="http://www.w3.org/2000/svg">
<path d="M54.5388 40.1889C54.5388 43.0972 52.177 45.457 49.2693 45.457H5.37769V3.07129H54.5388V40.1889Z" fill="#E0F1F8"/>
<path d="M49.2693 47.1139H5.37763C4.46246 47.1139 3.7207 46.3722 3.7207 45.457V3.0713C3.7207 2.1568 4.46246 1.41504 5.37763 1.41504H54.5387C55.4539 1.41504 56.1957 2.1568 56.1957 3.0713V40.1889C56.195 44.0071 53.0882 47.1139 49.2693 47.1139ZM7.03455 43.8008H49.2693C51.2611 43.8008 52.8818 42.1801 52.8818 40.1889V4.72888H7.03455V43.8008Z" fill="#454B53"/>
<path d="M57.8215 4.72888H2.18768C1.27252 4.72888 0.530762 3.98713 0.530762 3.0713C0.530762 2.1568 1.27252 1.41504 2.18768 1.41504H57.8215C58.7367 1.41504 59.4785 2.1568 59.4785 3.0713C59.4785 3.98713 58.7367 4.72888 57.8215 4.72888Z" fill="#454B53"/>
<path d="M17.0287 59.2544C16.6951 59.2544 16.3588 59.1548 16.0667 58.9458C15.3224 58.4137 15.1503 57.3792 15.6824 56.6348L24.3566 44.4924C24.8887 43.7474 25.9219 43.5753 26.6676 44.1074C27.412 44.6394 27.5841 45.6746 27.052 46.419L18.3777 58.5608C18.0547 59.0137 17.545 59.2544 17.0287 59.2544Z" fill="#454B53"/>
<path d="M42.8901 59.2544C42.3731 59.2544 41.8641 59.0137 41.5411 58.5607L32.8655 46.419C32.3334 45.6746 32.5055 44.6394 33.2499 44.1073C33.9949 43.5766 35.0288 43.748 35.5608 44.4924L44.2364 56.6348C44.7685 57.3792 44.5964 58.4137 43.852 58.9458C43.5593 59.1541 43.2237 59.2544 42.8901 59.2544Z" fill="#454B53"/>
<path d="M18.8893 38.807C17.9742 38.807 17.2324 38.0652 17.2324 37.15V27.5461C17.2324 26.6309 17.9742 25.8892 18.8893 25.8892C19.8045 25.8892 20.5463 26.6309 20.5463 27.5461V37.15C20.5463 38.0652 19.8045 38.807 18.8893 38.807Z" fill="#454B53"/>
<path d="M29.4145 38.8057C28.4993 38.8057 27.7576 38.0639 27.7576 37.1494V21.6608C27.7576 20.7457 28.4993 20.0039 29.4145 20.0039C30.3297 20.0039 31.0714 20.7457 31.0714 21.6608V37.1501C31.0714 38.0639 30.3297 38.8057 29.4145 38.8057Z" fill="#454B53"/>
<path d="M41.3327 38.8055C40.4175 38.8055 39.6758 38.0638 39.6758 37.1493V26.3064C39.6758 25.3919 40.4175 24.6501 41.3327 24.6501C42.2479 24.6501 42.9896 25.3919 42.9896 26.3064V37.1493C42.9896 38.0638 42.2479 38.8055 41.3327 38.8055Z" fill="#454B53"/>
<path d="M12.7654 24.2481C12.2742 24.2481 11.7889 24.0312 11.4612 23.6151C10.8962 22.8951 11.0208 21.854 11.7401 21.289L24.7522 11.0619C25.2718 10.6545 25.9832 10.5938 26.5628 10.907L39.2669 17.7648L45.9962 11.1806C46.6489 10.5404 47.6986 10.5523 48.3388 11.2063C48.979 11.8604 48.9672 12.9087 48.3131 13.549L40.7122 20.9863C40.194 21.4934 39.4067 21.6048 38.7672 21.2599L25.9463 14.3382L13.788 23.894C13.4847 24.1327 13.1234 24.2481 12.7654 24.2481Z" fill="#7BA7C9"/>
</svg>
