<svg width="200" height="200" viewBox="0 0 200 200" fill="none" xmlns="http://www.w3.org/2000/svg">
<g clip-path="url(#clip0_120_949)">
<path d="M180.989 86.817C192.207 44.1164 185.999 5.4803 167.121 0.520932C148.244 -4.43844 123.847 26.1569 112.629 68.8575C101.411 111.558 107.619 150.194 126.497 155.154C145.374 160.113 169.771 129.518 180.989 86.817Z" fill="#593218" stroke="#1D1D1B" stroke-miterlimit="10"/>
<path d="M122.89 185.72C122.89 190.1 129.16 193.66 136.9 193.66C139.43 193.66 141.81 193.28 143.85 192.6C145.35 194.76 147.95 196.19 150.91 196.19C155.58 196.19 159.36 192.64 159.36 188.25C159.36 183.87 155.58 180.31 150.91 180.31C149.85 180.31 148.85 180.49 147.93 180.83C145.36 178.96 141.38 177.78 136.9 177.78C129.16 177.78 122.89 181.33 122.89 185.72Z" fill="#9F6134" stroke="#1D1D1B" stroke-miterlimit="10"/>
<path d="M146.81 199.03C151.477 199.03 155.26 195.475 155.26 191.09C155.26 186.705 151.477 183.15 146.81 183.15C142.143 183.15 138.36 186.705 138.36 191.09C138.36 195.475 142.143 199.03 146.81 199.03Z" fill="#9F6134" stroke="#1D1D1B" stroke-miterlimit="10"/>
<path d="M139.77 199.78C144.437 199.78 148.22 196.225 148.22 191.84C148.22 187.455 144.437 183.9 139.77 183.9C135.103 183.9 131.32 187.455 131.32 191.84C131.32 196.225 135.103 199.78 139.77 199.78Z" fill="#9F6134"/>
<path d="M131.76 192.28C131.91 193.91 132.56 195.49 133.73 196.76C136.7 199.99 141.89 200.04 145.32 196.88C148.75 193.72 149.13 188.54 146.16 185.32C144.96 184.02 143.4 183.23 141.75 182.97" fill="#9F6134"/>
<path d="M131.76 192.28C131.91 193.91 132.56 195.49 133.73 196.76C136.7 199.99 141.89 200.04 145.32 196.88C148.75 193.72 149.13 188.54 146.16 185.32C144.96 184.02 143.4 183.23 141.75 182.97" stroke="#1D1D1B" stroke-miterlimit="10"/>
<path d="M60.31 185.41C60.31 189.79 54.04 193.35 46.3 193.35C43.77 193.35 41.39 192.97 39.35 192.29C37.85 194.45 35.25 195.88 32.29 195.88C27.62 195.88 23.84 192.33 23.84 187.94C23.84 183.55 27.62 180 32.29 180C33.35 180 34.35 180.18 35.27 180.52C37.84 178.65 41.82 177.47 46.3 177.47C54.04 177.47 60.31 181.02 60.31 185.41Z" fill="#9F6134" stroke="#1D1D1B" stroke-miterlimit="10"/>
<path d="M36.38 198.72C41.0468 198.72 44.83 195.165 44.83 190.78C44.83 186.395 41.0468 182.84 36.38 182.84C31.7132 182.84 27.93 186.395 27.93 190.78C27.93 195.165 31.7132 198.72 36.38 198.72Z" fill="#9F6134" stroke="#1D1D1B" stroke-miterlimit="10"/>
<path d="M43.42 199.47C48.0868 199.47 51.87 195.915 51.87 191.53C51.87 187.145 48.0868 183.59 43.42 183.59C38.7532 183.59 34.97 187.145 34.97 191.53C34.97 195.915 38.7532 199.47 43.42 199.47Z" fill="#9F6134"/>
<path d="M51.43 191.97C51.28 193.6 50.63 195.18 49.46 196.45C46.49 199.68 41.3 199.73 37.87 196.57C34.44 193.41 34.06 188.23 37.03 185.01C38.23 183.71 39.79 182.92 41.44 182.66" fill="#9F6134"/>
<path d="M51.43 191.97C51.28 193.6 50.63 195.18 49.46 196.45C46.49 199.68 41.3 199.73 37.87 196.57C34.44 193.41 34.06 188.23 37.03 185.01C38.23 183.71 39.79 182.92 41.44 182.66" stroke="#1D1D1B" stroke-miterlimit="10"/>
<path d="M178.18 88.34C166.96 131.04 142.56 161.63 123.68 156.67C119.37 155.54 135.85 144.75 145.66 131.03C156.45 115.95 161.09 97.06 165.99 77.64C171.93 54.05 173.7 31.27 170.54 16.97C168.3 6.85 160.24 0.98 164.31 2.05C183.19 7.01 189.4 45.65 178.18 88.34Z" fill="#2C1A10"/>
<path d="M89.64 189.48C86.86 193.86 83.13 195.28 80.14 190.14C78.04 192.81 73.75 195.76 71.98 191.39C67.75 193.39 65.69 196.71 63.13 189.31C61.58 190.39 59.86 191.51 58.28 192.47C56.57 190.25 56.61 187.42 58.22 185.06C57.01 187.88 54.54 189.58 51.85 188.67C52.22 187.16 51.49 185.42 52.13 183.81C48.26 186.34 42.13 184.07 45.18 178.87C40.87 181.04 36.32 177.09 41.1 173.01C35.88 177.26 35.55 167.85 35.6 163.77C30.77 166.4 31.69 157.77 35.74 156.01C30.76 156.76 32.23 150.64 35.74 149.35C29.89 146.16 39.3 143.06 40.88 140.52C37.35 141.96 39.81 134.64 41.4 132.92C37.22 130.96 41.31 125.47 44.51 125.2C38.07 127.78 41.49 118.56 45.7 116.56L44.46 115.4C42.84 113.41 42.92 111.01 45.13 109.62C39.29 105.31 47.04 104.76 50.48 106.87C50.65 99.21 57.56 97.66 62.71 100.65C58.27 97.11 69.03 94.96 71.78 95.97C73.79 92.09 78.14 93.17 81.67 94.6C82.76 90.08 86.5 91.28 89.65 93.05L91.39 92.97C94.54 91.2 98.97 90.17 100.06 94.69C103.59 93.26 107.94 92.18 109.95 96.06C112.7 95.04 123.46 97.2 119.02 100.74C124.16 97.76 131.07 99.3 131.25 106.96C134.69 104.85 142.44 105.39 136.6 109.71C138.81 111.1 138.4 114.05 136.78 116.04L135.55 116.86C139.76 118.85 143.17 128.07 136.74 125.5C139.94 125.77 144.03 131.26 139.85 133.22C141.44 134.94 143.89 142.25 140.37 140.82C141.95 143.36 151.36 146.46 145.51 149.65C149.01 150.94 150.49 157.06 145.51 156.31C149.56 158.07 150.48 166.7 145.65 164.07C145.7 168.15 145.37 177.56 140.15 173.31C144.93 177.39 140.38 181.34 136.07 179.17C139.12 184.38 132.99 186.65 129.12 184.11C129.76 185.72 129.03 187.46 129.4 188.97C126.7 189.88 124.23 188.18 123.03 185.36C124.65 187.72 124.68 190.55 122.97 192.77C121.39 191.81 119.67 190.68 118.12 189.61C115.55 197 113.5 193.69 109.27 191.69C107.5 196.06 103.21 193.1 101.11 190.44C98.12 195.58 92.45 193.87 89.67 189.48" fill="#9F6134"/>
<path d="M89.64 189.48C86.86 193.86 83.13 195.28 80.14 190.14C78.04 192.81 73.75 195.76 71.98 191.39C67.75 193.39 65.69 196.71 63.13 189.31C61.58 190.39 59.86 191.51 58.28 192.47C56.57 190.25 56.61 187.42 58.22 185.06C57.01 187.88 54.54 189.58 51.85 188.67C52.22 187.16 51.49 185.42 52.13 183.81C48.26 186.34 42.13 184.07 45.18 178.87C40.87 181.04 36.32 177.09 41.1 173.01C35.88 177.26 35.55 167.85 35.6 163.77C30.77 166.4 31.69 157.77 35.74 156.01C30.76 156.76 32.23 150.64 35.74 149.35C29.89 146.16 39.3 143.06 40.88 140.52C37.35 141.96 39.81 134.64 41.4 132.92C37.22 130.96 41.31 125.47 44.51 125.2C38.07 127.78 41.49 118.56 45.7 116.56L44.46 115.4C42.84 113.41 42.92 111.01 45.13 109.62C39.29 105.31 47.04 104.76 50.48 106.87C50.65 99.21 57.56 97.66 62.71 100.65C58.27 97.11 69.03 94.96 71.78 95.97C73.79 92.09 78.14 93.17 81.67 94.6C82.76 90.08 86.5 91.28 89.65 93.05L91.39 92.97C94.54 91.2 98.97 90.17 100.06 94.69C103.59 93.26 107.94 92.18 109.95 96.06C112.7 95.04 123.46 97.2 119.02 100.74C124.16 97.76 131.07 99.3 131.25 106.96C134.69 104.85 142.44 105.39 136.6 109.71C138.81 111.1 138.4 114.05 136.78 116.04L135.55 116.86C139.76 118.85 143.17 128.07 136.74 125.5C139.94 125.77 144.03 131.26 139.85 133.22C141.44 134.94 143.89 142.25 140.37 140.82C141.95 143.36 151.36 146.46 145.51 149.65C149.01 150.94 150.49 157.06 145.51 156.31C149.56 158.07 150.48 166.7 145.65 164.07C145.7 168.15 145.37 177.56 140.15 173.31C144.93 177.39 140.38 181.34 136.07 179.17C139.12 184.38 132.99 186.65 129.12 184.11C129.76 185.72 129.03 187.46 129.4 188.97C126.7 189.88 124.23 188.18 123.03 185.36C124.65 187.72 124.68 190.55 122.97 192.77C121.39 191.81 119.67 190.68 118.12 189.61C115.55 197 113.5 193.69 109.27 191.69C107.5 196.06 103.21 193.1 101.11 190.44C98.12 195.58 92.45 193.87 89.67 189.48" stroke="#1D1D1B" stroke-miterlimit="10"/>
<path d="M60.5102 47.4158C65.3842 44.5802 67.4081 38.9689 65.0308 34.8826C62.6534 30.7963 56.775 29.7823 51.9011 32.6179C47.0271 35.4535 45.0031 41.0648 47.3805 45.1512C49.7578 49.2375 55.6362 50.2514 60.5102 47.4158Z" fill="#9F6134" stroke="#1D1D1B" stroke-miterlimit="10"/>
<path d="M60.5161 47.412C64.1871 45.2763 65.5938 40.8476 63.658 37.5203C61.7223 34.193 57.1771 33.2271 53.5061 35.3628C49.8351 37.4985 48.4284 41.9272 50.3641 45.2545C52.2999 48.5818 56.8451 49.5477 60.5161 47.412Z" fill="url(#paint0_linear_120_949)" stroke="#1D1D1B" stroke-miterlimit="10"/>
<path d="M131.303 46.5209C133.68 42.4346 131.656 36.8233 126.782 33.9877C121.908 31.1521 116.03 32.166 113.652 36.2523C111.275 40.3387 113.299 45.95 118.173 48.7856C123.047 51.6212 128.925 50.6072 131.303 46.5209Z" fill="#9F6134" stroke="#1D1D1B" stroke-miterlimit="10"/>
<path d="M128.326 46.6241C130.262 43.2968 128.855 38.8682 125.184 36.7324C121.513 34.5967 116.968 35.5627 115.032 38.89C113.097 42.2173 114.503 46.6459 118.174 48.7817C121.845 50.9174 126.39 49.9514 128.326 46.6241Z" fill="url(#paint1_linear_120_949)" stroke="#1D1D1B" stroke-miterlimit="10"/>
<path d="M89.83 83.69C89.83 83.69 89.78 83.65 89.75 83.63" stroke="#1D1D1B" stroke-miterlimit="10"/>
<path d="M144.76 149.57C145.03 149.67 145.29 149.8 145.53 149.95C148.45 151.77 149.35 156.92 144.75 156.23C148.8 157.99 149.72 166.62 144.89 163.99C144.94 168.07 144.61 177.48 139.39 173.23C144.17 177.31 139.62 181.26 135.31 179.09C138.36 184.3 132.23 186.57 128.36 184.03C129 185.64 128.27 187.38 128.64 188.89C125.94 189.8 123.47 188.1 122.27 185.28C123.89 187.64 123.92 190.47 122.21 192.69C120.63 191.73 118.91 190.6 117.36 189.53C114.79 196.92 112.74 193.61 108.51 191.61C106.74 195.98 102.45 193.02 100.35 190.36C97.36 195.5 91.69 193.79 88.91 189.4C92.13 190.02 108.57 192.82 124.32 182.24C141.39 170.77 144.35 152.49 144.77 149.56L144.76 149.57Z" fill="#704223"/>
<path d="M35.73 149.48C35.46 149.58 35.2 149.71 34.96 149.86C32.04 151.68 31.14 156.83 35.74 156.14C31.69 157.9 30.77 166.53 35.6 163.9C35.55 167.98 35.88 177.39 41.1 173.14C36.32 177.22 40.87 181.17 45.18 179C42.13 184.21 48.26 186.48 52.13 183.94C51.49 185.55 52.22 187.29 51.85 188.8C54.55 189.71 57.02 188.01 58.22 185.19C56.6 187.55 56.57 190.38 58.28 192.6C59.86 191.64 61.58 190.51 63.13 189.44C65.7 196.83 67.75 193.52 71.98 191.52C73.75 195.89 78.04 192.93 80.14 190.27C83.13 195.41 88.8 193.7 91.58 189.31C88.36 189.93 71.92 192.73 56.17 182.15C39.1 170.68 36.14 152.4 35.72 149.47L35.73 149.48Z" fill="#704223"/>
<path d="M89.64 189.48C86.86 193.86 83.13 195.28 80.14 190.14C78.04 192.81 73.75 195.76 71.98 191.39C67.75 193.39 65.69 196.71 63.13 189.31C61.58 190.39 59.86 191.51 58.28 192.47C56.57 190.25 56.61 187.42 58.22 185.06C57.01 187.88 54.54 189.58 51.85 188.67C52.22 187.16 51.49 185.42 52.13 183.81C48.26 186.34 42.13 184.07 45.18 178.87C40.87 181.04 36.32 177.09 41.1 173.01C35.88 177.26 35.55 167.85 35.6 163.77C30.77 166.4 31.69 157.77 35.74 156.01C30.76 156.76 32.23 150.64 35.74 149.35C29.89 146.16 39.3 143.06 40.88 140.52C37.35 141.96 39.81 134.64 41.4 132.92C37.22 130.96 41.31 125.47 44.51 125.2C38.07 127.78 41.49 118.56 45.7 116.56L44.46 115.4C42.84 113.41 42.92 111.01 45.13 109.62C39.29 105.31 47.04 104.76 50.48 106.87C50.65 99.21 57.56 97.66 62.71 100.65C58.27 97.11 69.03 94.96 71.78 95.97C73.79 92.09 78.14 93.17 81.67 94.6C82.76 90.08 86.5 91.28 89.65 93.05L91.39 92.97C94.54 91.2 98.97 90.17 100.06 94.69C103.59 93.26 107.94 92.18 109.95 96.06C112.7 95.04 123.46 97.2 119.02 100.74C124.16 97.76 131.07 99.3 131.25 106.96C134.69 104.85 142.44 105.39 136.6 109.71C138.81 111.1 138.4 114.05 136.78 116.04L135.55 116.86C139.76 118.85 143.17 128.07 136.74 125.5C139.94 125.77 144.03 131.26 139.85 133.22C141.44 134.94 143.89 142.25 140.37 140.82C141.95 143.36 151.36 146.46 145.51 149.65C149.01 150.94 150.49 157.06 145.51 156.31C149.56 158.07 150.48 166.7 145.65 164.07C145.7 168.15 145.37 177.56 140.15 173.31C144.93 177.39 140.38 181.34 136.07 179.17C139.12 184.38 132.99 186.65 129.12 184.11C129.76 185.72 129.03 187.46 129.4 188.97C126.7 189.88 124.23 188.18 123.03 185.36C124.65 187.72 124.68 190.55 122.97 192.77C121.39 191.81 119.67 190.68 118.12 189.61C115.55 197 113.5 193.69 109.27 191.69C107.5 196.06 103.21 193.1 101.11 190.44C98.12 195.58 92.45 193.87 89.67 189.48" stroke="#1D1D1B" stroke-miterlimit="10"/>
<path d="M89.75 117.87H85.96V127.98H89.75V117.87Z" fill="#FFF3CF" stroke="#1D1D1B" stroke-width="0.25" stroke-miterlimit="10"/>
<path d="M93.54 117.87H89.75V127.98H93.54V117.87Z" fill="#FFF3CF" stroke="#1D1D1B" stroke-width="0.25" stroke-miterlimit="10"/>
<path d="M45.78 104.99C41.75 99.83 41.06 93.8 43.47 88.9C44.97 85.84 46.9 84.18 45.18 81.46C43.88 79.41 46.42 73.98 47.71 73.86C46.83 71.92 43.57 70.2 44.88 68.62C45.31 68.74 46.96 65.95 47.34 66.19C46.31 63.03 47.59 56.83 49.51 54.38C48.86 52.65 49.21 51.41 49.97 50.04C50.36 50.43 51.19 50.81 51.65 51.32C51.43 50.02 52.18 48.48 52.23 47.69C52.61 47.87 52.97 48.09 53.32 48.36C52.88 47.03 53.32 45.81 53.12 44.55C54.68 43.69 55.85 44.5 56.48 46.4C55.93 43.69 57.44 41.72 59.89 41.97C59.38 36.41 64.24 39.71 66.48 41.13C65.26 38 66.76 34.35 69.51 37.56C69.69 33.12 73.15 34.23 75.22 36.59C74.53 34.84 74.94 32.98 76.25 31.63C77.99 32.4 79.11 33.79 80.31 35.45C80.43 31.78 83.18 27.93 85.53 32.24C85.74 32.31 87.37 29.86 88.51 29.88C90.13 29.91 91.39 32.39 91.63 32.24C92.86 31.46 93.13 30.28 93.86 30.33C95.35 30.44 95.71 35.45 96.84 35.44C97.3 35.44 97.38 34.61 98.67 33.19C99.48 32.3 100.22 31.48 100.9 31.62C101.71 31.78 102.12 33.18 102.19 34.1C102.29 35.53 101.61 36.35 101.92 36.58C102.51 37.01 105.03 34.1 106.3 34.68C107.28 35.12 106.77 37.32 107.63 37.56C108.39 37.77 109.24 36.15 109.84 36.35C110.74 36.64 109.42 40.45 110.66 41.13C112.01 41.87 115.35 38.3 116.47 39.07C117.17 39.55 116.26 41.23 117.25 41.97C117.88 42.44 118.51 41.94 119.25 42.35C120.76 43.18 120.14 46.34 120.67 46.41C121.07 46.46 121.25 44.63 122.5 44.25C123.03 44.09 123.72 44.19 124.03 44.56C124.2 44.76 124.25 45.01 124.02 46.44C123.84 47.57 123.66 48.32 123.83 48.37C123.9 48.39 123.96 48.28 124.36 48C124.67 47.79 124.82 47.68 124.92 47.7C125.06 47.73 125.23 47.93 125.31 49.32C125.39 50.62 125.28 51.26 125.5 51.32C125.61 51.35 125.71 51.21 126.37 50.64C127.04 50.06 127.12 50.04 127.18 50.05C127.64 50.1 127.97 51.34 127.97 52.45C127.97 53.38 127.74 53.95 127.63 54.39C127.15 56.45 129.09 57.34 129.82 60.03C130.63 63.01 129.39 66.13 129.8 66.2C129.88 66.21 129.94 66.1 130.39 65.88C130.73 65.72 130.9 65.64 131.01 65.65C131.46 65.71 131.92 67.1 131.69 68.55C131.41 70.3 130.3 71.09 130.73 71.72C131.05 72.19 131.75 71.87 132.23 72.33C133.3 73.35 131.45 76.56 131.09 77.19C129.33 80.25 133.3 84.85 135.95 88.67C140.16 94.73 134.16 104.37 133.76 104.99C129.73 111.28 123.35 113.78 119.06 115.47C109.86 119.08 99.71 119.13 90.47 119.18C90.01 119.18 89.56 119.18 89.09 119.18C79.95 119.13 69.51 119.08 60.5 115.47C56.9 114.03 51.32 111.14 45.8 104.99" fill="#9F6134"/>
<path d="M45.78 104.99C41.75 99.83 41.06 93.8 43.47 88.9C44.97 85.84 46.9 84.18 45.18 81.46C43.88 79.41 46.42 73.98 47.71 73.86C46.83 71.92 43.57 70.2 44.88 68.62C45.31 68.74 46.96 65.95 47.34 66.19C46.31 63.03 47.59 56.83 49.51 54.38C48.86 52.65 49.21 51.41 49.97 50.04C50.36 50.43 51.19 50.81 51.65 51.32C51.43 50.02 52.18 48.48 52.23 47.69C52.61 47.87 52.97 48.09 53.32 48.36C52.88 47.03 53.32 45.81 53.12 44.55C54.68 43.69 55.85 44.5 56.48 46.4C55.93 43.69 57.44 41.72 59.89 41.97C59.38 36.41 64.24 39.71 66.48 41.13C65.26 38 66.76 34.35 69.51 37.56C69.69 33.12 73.15 34.23 75.22 36.59C74.53 34.84 74.94 32.98 76.25 31.63C77.99 32.4 79.11 33.79 80.31 35.45C80.43 31.78 83.18 27.93 85.53 32.24C85.74 32.31 87.37 29.86 88.51 29.88C90.13 29.91 91.39 32.39 91.63 32.24C92.86 31.46 93.13 30.28 93.86 30.33C95.35 30.44 95.71 35.45 96.84 35.44C97.3 35.44 97.38 34.61 98.67 33.19C99.48 32.3 100.22 31.48 100.9 31.62C101.71 31.78 102.12 33.18 102.19 34.1C102.29 35.53 101.61 36.35 101.92 36.58C102.51 37.01 105.03 34.1 106.3 34.68C107.28 35.12 106.77 37.32 107.63 37.56C108.39 37.77 109.24 36.15 109.84 36.35C110.74 36.64 109.42 40.45 110.66 41.13C112.01 41.87 115.35 38.3 116.47 39.07C117.17 39.55 116.26 41.23 117.25 41.97C117.88 42.44 118.51 41.94 119.25 42.35C120.76 43.18 120.14 46.34 120.67 46.41C121.07 46.46 121.25 44.63 122.5 44.25C123.03 44.09 123.72 44.19 124.03 44.56C124.2 44.76 124.25 45.01 124.02 46.44C123.84 47.57 123.66 48.32 123.83 48.37C123.9 48.39 123.96 48.28 124.36 48C124.67 47.79 124.82 47.68 124.92 47.7C125.06 47.73 125.23 47.93 125.31 49.32C125.39 50.62 125.28 51.26 125.5 51.32C125.61 51.35 125.71 51.21 126.37 50.64C127.04 50.06 127.12 50.04 127.18 50.05C127.64 50.1 127.97 51.34 127.97 52.45C127.97 53.38 127.74 53.95 127.63 54.39C127.15 56.45 129.09 57.34 129.82 60.03C130.63 63.01 129.39 66.13 129.8 66.2C129.88 66.21 129.94 66.1 130.39 65.88C130.73 65.72 130.9 65.64 131.01 65.65C131.46 65.71 131.92 67.1 131.69 68.55C131.41 70.3 130.3 71.09 130.73 71.72C131.05 72.19 131.75 71.87 132.23 72.33C133.3 73.35 131.45 76.56 131.09 77.19C129.33 80.25 133.3 84.85 135.95 88.67C140.16 94.73 134.16 104.37 133.76 104.99C129.73 111.28 123.35 113.78 119.06 115.47C109.86 119.08 99.71 119.13 90.47 119.18C90.01 119.18 89.56 119.18 89.09 119.18C79.95 119.13 69.51 119.08 60.5 115.47C56.9 114.03 51.32 111.14 45.8 104.99" stroke="#1D1D1B" stroke-miterlimit="10"/>
<path d="M89.83 99.92C85.9 96.35 76.08 96 77.48 90.01C78.58 85.23 86.58 84.21 89.83 86.82C93.08 84.21 101.08 85.23 102.19 90.01C103.58 96 93.76 96.35 89.83 99.92Z" fill="url(#paint2_radial_120_949)" stroke="#1D1D1B" stroke-miterlimit="10"/>
<path d="M69.61 113.07C69.16 119.92 76.2 126.43 83.79 124.65C86.46 124.03 88.47 121.8 89.85 118.9" fill="#9F6134"/>
<path d="M69.61 113.07C69.16 119.92 76.2 126.43 83.79 124.65C86.46 124.03 88.47 121.8 89.85 118.9" stroke="#1D1D1B" stroke-miterlimit="10"/>
<path d="M110.06 113.07C110.53 119.92 103.48 126.43 95.89 124.65C93.22 124.03 91.22 121.8 89.84 118.9" fill="#9F6134"/>
<path d="M110.06 113.07C110.53 119.92 103.48 126.43 95.89 124.65C93.22 124.03 91.22 121.8 89.84 118.9" stroke="#1D1D1B" stroke-miterlimit="10"/>
<path d="M89.83 99.92L89.79 119.85" stroke="#1D1D1B" stroke-miterlimit="10"/>
<path d="M75.43 78.51C78.4179 78.51 80.84 76.0879 80.84 73.1C80.84 70.1121 78.4179 67.69 75.43 67.69C72.4421 67.69 70.02 70.1121 70.02 73.1C70.02 76.0879 72.4421 78.51 75.43 78.51Z" fill="white" stroke="#1D1D1B" stroke-miterlimit="10"/>
<path d="M75.43 73.86C75.7835 73.86 76.07 73.5197 76.07 73.1C76.07 72.6803 75.7835 72.34 75.43 72.34C75.0765 72.34 74.79 72.6803 74.79 73.1C74.79 73.5197 75.0765 73.86 75.43 73.86Z" fill="white"/>
<path d="M44.34 92.16C44.02 96.22 43.93 100.23 46.91 104.08L46.97 104.16C50.4 107.9 53.79 110.44 56.73 112.18C57.49 112.63 58.26 111.63 57.64 111.01C55.28 108.64 52.69 105.59 50.36 101.74C48.23 98.24 46.78 94.88 45.79 91.98C45.53 91.2 44.4 91.34 44.34 92.16Z" fill="#704223"/>
<path d="M134.29 92.16C134.61 96.22 134.7 100.23 131.72 104.08L131.66 104.16C128.23 107.9 124.84 110.44 121.9 112.18C121.14 112.63 120.37 111.63 120.99 111.01C123.35 108.64 125.94 105.59 128.27 101.74C130.4 98.24 131.85 94.88 132.84 91.98C133.1 91.2 134.23 91.34 134.29 92.16Z" fill="#704223"/>
<path d="M66.65 149.58H113.2C117.52 149.58 121.03 153.09 121.03 157.41V169.99C121.03 174.31 117.52 177.82 113.2 177.82H66.65C62.33 177.82 58.82 174.31 58.82 169.99V157.41C58.82 153.09 62.33 149.58 66.65 149.58Z" fill="#FFFF00"/>
<path d="M113.2 150.08C117.24 150.08 120.53 153.37 120.53 157.41V169.99C120.53 174.03 117.24 177.32 113.2 177.32H66.65C62.61 177.32 59.32 174.03 59.32 169.99V157.41C59.32 153.37 62.61 150.08 66.65 150.08H113.2ZM113.2 149.08H66.65C62.05 149.08 58.32 152.81 58.32 157.41V169.99C58.32 174.59 62.05 178.32 66.65 178.32H113.2C117.8 178.32 121.53 174.59 121.53 169.99V157.41C121.53 152.81 117.8 149.08 113.2 149.08Z" fill="black"/>
<path d="M116.78 142.7H63.07C59.9054 142.7 57.34 145.265 57.34 148.43V150.08C57.34 153.245 59.9054 155.81 63.07 155.81H116.78C119.945 155.81 122.51 153.245 122.51 150.08V148.43C122.51 145.265 119.945 142.7 116.78 142.7Z" fill="#FF0000"/>
<path d="M116.78 143.2C119.67 143.2 122.01 145.55 122.01 148.43V150.07C122.01 152.96 119.66 155.3 116.78 155.3H63.07C60.18 155.3 57.84 152.95 57.84 150.07V148.43C57.84 145.54 60.19 143.2 63.07 143.2H116.78ZM116.78 142.2H63.07C59.63 142.2 56.84 144.99 56.84 148.43V150.07C56.84 153.51 59.63 156.3 63.07 156.3H116.78C120.22 156.3 123.01 153.51 123.01 150.07V148.43C123.01 144.99 120.22 142.2 116.78 142.2Z" fill="black"/>
<path d="M96.34 142.2H83.5V178.32H96.34V142.2Z" fill="#F7931E" stroke="black" stroke-miterlimit="10"/>
<path d="M97 136.58C95.72 137.72 94.98 139.11 94.98 140.61C94.98 144.48 99.95 147.61 106.09 147.61C112.23 147.61 117.2 144.47 117.2 140.61C117.2 139.56 116.83 138.55 116.16 137.66C118.33 136.37 119.67 134.59 119.67 132.64C119.67 128.66 114.14 125.44 107.32 125.44C100.5 125.44 94.97 128.66 94.97 132.64C94.97 134.1 95.72 135.46 96.99 136.59L97 136.58Z" fill="#F7931E" stroke="black" stroke-miterlimit="10"/>
<path d="M84.69 136.49C85.97 137.63 86.71 139.02 86.71 140.52C86.71 144.39 81.74 147.52 75.6 147.52C69.46 147.52 64.49 144.38 64.49 140.52C64.49 139.47 64.86 138.46 65.53 137.57C63.36 136.28 62.02 134.5 62.02 132.55C62.02 128.57 67.55 125.35 74.37 125.35C81.19 125.35 86.72 128.57 86.72 132.55C86.72 134.01 85.97 135.37 84.7 136.5L84.69 136.49Z" fill="#F7931E" stroke="black" stroke-miterlimit="10"/>
<path d="M90.17 142.85C95.3504 142.85 99.55 140.585 99.55 137.79C99.55 134.995 95.3504 132.73 90.17 132.73C84.9896 132.73 80.79 134.995 80.79 137.79C80.79 140.585 84.9896 142.85 90.17 142.85Z" fill="#F7931E" stroke="black" stroke-miterlimit="10"/>
<path d="M64.49 131.57C64.66 132.35 65.24 134.35 67.45 135.85C70.25 137.75 74.52 138.05 78.31 136.63C76.55 136.5 73.87 136.15 70.9 135.07C67.87 133.97 65.75 132.56 64.48 131.57H64.49Z" fill="#C67718"/>
<path d="M68.69 142.66C68.78 142.53 71.24 144.1 75.11 144.22C77.72 144.3 79.94 143.67 81.53 143.05C80.91 143.83 79.82 144.92 78.07 145.38C73.68 146.55 68.56 142.85 68.69 142.66Z" fill="#C67718"/>
<path d="M117.57 131.75C117.4 132.53 116.82 134.53 114.61 136.03C111.81 137.93 107.54 138.23 103.75 136.81C105.51 136.68 108.19 136.33 111.16 135.25C114.19 134.15 116.31 132.74 117.58 131.75H117.57Z" fill="#C67718"/>
<path d="M113.37 142.84C113.28 142.71 110.82 144.28 106.95 144.4C104.34 144.48 102.12 143.85 100.53 143.23C101.15 144.01 102.24 145.1 103.99 145.56C108.38 146.73 113.5 143.03 113.37 142.84Z" fill="#C67718"/>
<path d="M86.22 134.29C85.56 134.64 84.73 135.19 84.24 135.96C82.78 138.32 85.96 140.53 86.22 140.71C85.99 140.04 85.81 139.3 85.73 138.48C85.56 136.85 85.84 135.42 86.22 134.29Z" fill="#C67718"/>
<path d="M94.09 134.08C94.75 134.43 95.58 134.98 96.07 135.75C97.53 138.11 94.35 140.32 94.09 140.5C94.32 139.83 94.5 139.09 94.58 138.27C94.75 136.64 94.47 135.21 94.09 134.08Z" fill="#C67718"/>
<path d="M39.56 152.72C40.39 154.44 40.86 156.34 41.65 158.07C41.84 158.2 42.04 158.22 42.24 158.14C42.34 157.63 42.93 156.86 43.01 156.47C43.79 157.81 44.77 160.07 46.37 159.14C46.62 160.84 48.06 161.86 49.27 160.77C50.06 162.31 50.93 164.21 52.48 165.01C53.1 164.22 53.42 163.31 53.23 162.27C53.36 164.11 54.68 166.74 56.96 166.82C56.84 166.37 56.82 166.05 56.55 165.54C57.28 166.5 59.4 170.96 60.06 167.67C60.93 169.73 64 171.64 66.19 171.85C66.32 171.47 66.61 171.05 66.7 170.67C67.39 171.42 68.1 172.18 68.8 172.92L75.69 168.18C75.69 168.18 75.71 168.17 75.72 168.16L75.89 168.1C76.65 167.22 76.6 165.81 75.54 165.14C75.85 164.21 77.09 161.12 75.19 161.69C75.86 161.47 76.31 160.73 76.89 160.45C76.57 159.44 75.82 158.69 74.82 158.47C75.68 156.79 74.77 155.28 72.97 155.5C73.76 154.37 71.89 153.46 70.6 153.44C72.6 151.55 69.31 150.33 67.65 150.05C68 149.87 68.59 148.9 68.96 148.66C68.18 147.32 66.18 146.91 64.8 146.54C66.66 144.59 64.13 142.93 62.48 141.95C62.92 142.03 63.4 142 63.84 142.08C62.96 140.76 61.75 139.5 60.14 139.39C60.65 139.37 61.19 139.1 61.68 139.08C60.53 137.98 59.11 137.26 57.62 137.56C58.07 137.51 58.47 137.32 58.86 137.25C57.97 136.53 56.79 136.25 55.72 135.96" fill="#9F6134"/>
<path d="M39.56 152.72C40.39 154.44 40.86 156.34 41.65 158.07C41.84 158.2 42.04 158.22 42.24 158.14C42.34 157.63 42.93 156.86 43.01 156.47C43.79 157.81 44.77 160.07 46.37 159.14C46.62 160.84 48.06 161.86 49.27 160.77C50.06 162.31 50.93 164.21 52.48 165.01C53.1 164.22 53.42 163.31 53.23 162.27C53.36 164.11 54.68 166.74 56.96 166.82C56.84 166.37 56.82 166.05 56.55 165.54C57.28 166.5 59.4 170.96 60.06 167.67C60.93 169.73 64 171.64 66.19 171.85C66.32 171.47 66.61 171.05 66.7 170.67C67.39 171.42 68.1 172.18 68.8 172.92L75.69 168.18C75.69 168.18 75.71 168.17 75.72 168.16L75.89 168.1C76.65 167.22 76.6 165.81 75.54 165.14C75.85 164.21 77.09 161.12 75.19 161.69C75.86 161.47 76.31 160.73 76.89 160.45C76.57 159.44 75.82 158.69 74.82 158.47C75.68 156.79 74.77 155.28 72.97 155.5C73.76 154.37 71.89 153.46 70.6 153.44C72.6 151.55 69.31 150.33 67.65 150.05C68 149.87 68.59 148.9 68.96 148.66C68.18 147.32 66.18 146.91 64.8 146.54C66.66 144.59 64.13 142.93 62.48 141.95C62.92 142.03 63.4 142 63.84 142.08C62.96 140.76 61.75 139.5 60.14 139.39C60.65 139.37 61.19 139.1 61.68 139.08C60.53 137.98 59.11 137.26 57.62 137.56C58.07 137.51 58.47 137.32 58.86 137.25C57.97 136.53 56.79 136.25 55.72 135.96" stroke="#1D1D1B" stroke-miterlimit="10"/>
<path d="M64.73 169.57C64.42 170.58 64.7 171.84 65.57 172.83C66.8 174.24 68.73 174.56 69.87 173.56C70.86 172.69 70.94 171.12 70.15 169.8" fill="#9F6134"/>
<path d="M64.73 169.57C64.42 170.58 64.7 171.84 65.57 172.83C66.8 174.24 68.73 174.56 69.87 173.56C70.86 172.69 70.94 171.12 70.15 169.8" stroke="#1D1D1B" stroke-miterlimit="10"/>
<path d="M73.7 166.72C74.93 167.89 76.67 168.13 77.74 167.19C78.89 166.19 78.82 164.23 77.58 162.83C76.81 161.95 75.77 161.49 74.82 161.52" fill="#9F6134"/>
<path d="M73.7 166.72C74.93 167.89 76.67 168.13 77.74 167.19C78.89 166.19 78.82 164.23 77.58 162.83C76.81 161.95 75.77 161.49 74.82 161.52" stroke="#1D1D1B" stroke-miterlimit="10"/>
<path d="M69.63 169.57C69.79 169.94 70.01 170.31 70.3 170.64C71.53 172.05 73.46 172.37 74.6 171.37C75.74 170.37 75.68 168.41 74.44 167.01C74.2 166.73 73.92 166.51 73.64 166.32" fill="#9F6134"/>
<path d="M69.63 169.57C69.79 169.94 70.01 170.31 70.3 170.64C71.53 172.05 73.46 172.37 74.6 171.37C75.74 170.37 75.68 168.41 74.44 167.01C74.2 166.73 73.92 166.51 73.64 166.32" stroke="#1D1D1B" stroke-miterlimit="10"/>
<path d="M143.06 151.41C142.3 153.17 141.92 155.08 141.2 156.85C141.02 156.99 140.82 157.02 140.61 156.94C140.48 156.43 139.87 155.69 139.77 155.3C139.05 156.67 138.17 158.97 136.53 158.11C136.36 159.82 134.96 160.9 133.7 159.86C132.98 161.43 132.19 163.37 130.68 164.24C130.03 163.48 129.67 162.59 129.81 161.54C129.76 163.39 128.56 166.07 126.29 166.25C126.39 165.8 126.4 165.47 126.64 164.95C125.95 165.94 124.03 170.49 123.23 167.23C122.45 169.32 119.46 171.37 117.29 171.67C117.15 171.29 116.84 170.89 116.73 170.51C116.07 171.29 115.39 172.08 114.73 172.85L107.64 168.42C107.64 168.42 107.62 168.41 107.61 168.41L107.44 168.36C106.64 167.52 106.63 166.1 107.66 165.39C107.31 164.48 105.94 161.44 107.86 161.93C107.18 161.74 106.7 161.02 106.1 160.77C106.37 159.74 107.1 158.96 108.08 158.7C107.15 157.05 107.99 155.51 109.8 155.66C108.96 154.57 110.79 153.58 112.08 153.5C110 151.7 113.23 150.34 114.88 149.98C114.52 149.81 113.9 148.88 113.51 148.65C114.23 147.28 116.22 146.78 117.57 146.35C115.63 144.48 118.09 142.71 119.69 141.67C119.25 141.77 118.77 141.76 118.34 141.86C119.16 140.5 120.32 139.19 121.92 139.01C121.41 139.01 120.86 138.76 120.36 138.77C121.46 137.62 122.85 136.84 124.35 137.08C123.9 137.05 123.49 136.87 123.1 136.83C123.96 136.08 125.13 135.74 126.18 135.4" fill="#9F6134"/>
<path d="M143.06 151.41C142.3 153.17 141.92 155.08 141.2 156.85C141.02 156.99 140.82 157.02 140.61 156.94C140.48 156.43 139.87 155.69 139.77 155.3C139.05 156.67 138.17 158.97 136.53 158.11C136.36 159.82 134.96 160.9 133.7 159.86C132.98 161.43 132.19 163.37 130.68 164.24C130.03 163.48 129.67 162.59 129.81 161.54C129.76 163.39 128.56 166.07 126.29 166.25C126.39 165.8 126.4 165.47 126.64 164.95C125.95 165.94 124.03 170.49 123.23 167.23C122.45 169.32 119.46 171.37 117.29 171.67C117.15 171.29 116.84 170.89 116.73 170.51C116.07 171.29 115.39 172.08 114.73 172.85L107.64 168.42C107.64 168.42 107.62 168.41 107.61 168.41L107.44 168.36C106.64 167.52 106.63 166.1 107.66 165.39C107.31 164.48 105.94 161.44 107.86 161.93C107.18 161.74 106.7 161.02 106.1 160.77C106.37 159.74 107.1 158.96 108.08 158.7C107.15 157.05 107.99 155.51 109.8 155.66C108.96 154.57 110.79 153.58 112.08 153.5C110 151.7 113.23 150.34 114.88 149.98C114.52 149.81 113.9 148.88 113.51 148.65C114.23 147.28 116.22 146.78 117.57 146.35C115.63 144.48 118.09 142.71 119.69 141.67C119.25 141.77 118.77 141.76 118.34 141.86C119.16 140.5 120.32 139.19 121.92 139.01C121.41 139.01 120.86 138.76 120.36 138.77C121.46 137.62 122.85 136.84 124.35 137.08C123.9 137.05 123.49 136.87 123.1 136.83C123.96 136.08 125.13 135.74 126.18 135.4" stroke="#1D1D1B" stroke-miterlimit="10"/>
<path d="M118.64 169.35C118.99 170.35 118.77 171.62 117.94 172.64C116.77 174.1 114.86 174.51 113.67 173.56C112.64 172.74 112.5 171.17 113.23 169.81" fill="#9F6134"/>
<path d="M118.64 169.35C118.99 170.35 118.77 171.62 117.94 172.64C116.77 174.1 114.86 174.51 113.67 173.56C112.64 172.74 112.5 171.17 113.23 169.81" stroke="#1D1D1B" stroke-miterlimit="10"/>
<path d="M109.56 166.89C108.38 168.12 106.65 168.42 105.55 167.54C104.36 166.59 104.35 164.63 105.52 163.17C106.25 162.26 107.27 161.76 108.22 161.74" fill="#9F6134"/>
<path d="M109.56 166.89C108.38 168.12 106.65 168.42 105.55 167.54C104.36 166.59 104.35 164.63 105.52 163.17C106.25 162.26 107.27 161.76 108.22 161.74" stroke="#1D1D1B" stroke-miterlimit="10"/>
<path d="M113.75 169.56C113.61 169.94 113.4 170.31 113.12 170.66C111.95 172.12 110.04 172.53 108.85 171.58C107.66 170.63 107.65 168.67 108.82 167.21C109.05 166.92 109.31 166.69 109.59 166.48" fill="#9F6134"/>
<path d="M113.75 169.56C113.61 169.94 113.4 170.31 113.12 170.66C111.95 172.12 110.04 172.53 108.85 171.58C107.66 170.63 107.65 168.67 108.82 167.21C109.05 166.92 109.31 166.69 109.59 166.48" stroke="#1D1D1B" stroke-miterlimit="10"/>
<path d="M78.6435 76.7316C80.3968 75.1962 80.5764 72.5334 79.0446 70.7842C77.5127 69.035 74.8496 68.8618 73.0962 70.3973C71.3429 71.9327 71.1633 74.5955 72.6951 76.3447C74.227 78.0939 76.8901 78.2671 78.6435 76.7316Z" fill="#231000"/>
<path d="M76.31 76.64C77.7349 76.64 78.89 75.4849 78.89 74.06C78.89 72.6351 77.7349 71.48 76.31 71.48C74.8851 71.48 73.73 72.6351 73.73 74.06C73.73 75.4849 74.8851 76.64 76.31 76.64Z" fill="black"/>
<path d="M73.5 73C74.3284 73 75 72.3284 75 71.5C75 70.6716 74.3284 70 73.5 70C72.6716 70 72 70.6716 72 71.5C72 72.3284 72.6716 73 73.5 73Z" fill="white"/>
<path d="M99.83 77.62C102.818 77.62 105.24 75.1979 105.24 72.21C105.24 69.2221 102.818 66.8 99.83 66.8C96.8421 66.8 94.42 69.2221 94.42 72.21C94.42 75.1979 96.8421 77.62 99.83 77.62Z" fill="white" stroke="#1D1D1B" stroke-miterlimit="10"/>
<path d="M102.571 75.4381C104.103 73.6889 103.923 71.0262 102.17 69.4907C100.417 67.9552 97.7536 68.1285 96.2217 69.8777C94.6899 71.6269 94.8695 74.2896 96.6228 75.8251C98.3761 77.3605 101.039 77.1873 102.571 75.4381Z" fill="#231000"/>
<path d="M98.96 75.74C100.385 75.74 101.54 74.5849 101.54 73.16C101.54 71.7351 100.385 70.58 98.96 70.58C97.5351 70.58 96.38 71.7351 96.38 73.16C96.38 74.5849 97.5351 75.74 98.96 75.74Z" fill="black"/>
<path d="M97.5 72C98.3284 72 99 71.3284 99 70.5C99 69.6716 98.3284 69 97.5 69C96.6716 69 96 69.6716 96 70.5C96 71.3284 96.6716 72 97.5 72Z" fill="white"/>
</g>
<defs>
<linearGradient id="paint0_linear_120_949" x1="59.9964" y1="48.7959" x2="53.3472" y2="31.3629" gradientUnits="userSpaceOnUse">
<stop offset="0.04" stop-color="white"/>
<stop offset="0.05" stop-color="#FDF5F5"/>
<stop offset="0.12" stop-color="#F9D7D8"/>
<stop offset="0.2" stop-color="#F6BFC0"/>
<stop offset="0.29" stop-color="#F4ACAE"/>
<stop offset="0.39" stop-color="#F29FA1"/>
<stop offset="0.52" stop-color="#F1989A"/>
<stop offset="0.78" stop-color="#F19698"/>
</linearGradient>
<linearGradient id="paint1_linear_120_949" x1="118.61" y1="49.8434" x2="125.259" y2="32.4105" gradientUnits="userSpaceOnUse">
<stop offset="0.04" stop-color="white"/>
<stop offset="0.05" stop-color="#FDF5F5"/>
<stop offset="0.12" stop-color="#F9D7D8"/>
<stop offset="0.2" stop-color="#F6BFC0"/>
<stop offset="0.29" stop-color="#F4ACAE"/>
<stop offset="0.39" stop-color="#F29FA1"/>
<stop offset="0.52" stop-color="#F1989A"/>
<stop offset="0.78" stop-color="#F19698"/>
</linearGradient>
<radialGradient id="paint2_radial_120_949" cx="0" cy="0" r="1" gradientUnits="userSpaceOnUse" gradientTransform="translate(90.43 94.45) scale(21.5 21.5)">
<stop stop-color="#663A1C"/>
<stop offset="0.7"/>
</radialGradient>
<clipPath id="clip0_120_949">
<rect width="200" height="200" fill="white"/>
</clipPath>
</defs>
</svg>
