<svg width="120.000000" height="120.000000" viewBox="0 0 120 120" fill="none" xmlns="http://www.w3.org/2000/svg" xmlns:xlink="http://www.w3.org/1999/xlink">
	<desc>
			Created with Pixso.
	</desc>
	<defs>
		<clipPath id="clip88_170">
			<rect id="cat" width="120.000000" height="120.000000" fill="white" fill-opacity="0"/>
		</clipPath>
	</defs>
	<g clip-path="url(#clip88_170)">
		<path id="path" d="M54 82.45C48.37 83.14 39.85 84.55 29.86 87.73C18.19 91.45 3.96 95.98 3.95 101.56C3.95 108.85 28.14 114.24 38.16 115.9C52.13 118.21 69.63 118.39 70.35 114.89C70.81 112.69 64.48 109.67 63.31 109.11C56.58 105.89 52.37 107.21 40.93 105.59C34.45 104.67 27.86 103.74 27.6 101.56C27.32 99.23 34.47 96.54 39.17 94.77C45.74 92.3 51.47 91.12 55.52 90.5L54 82.45Z" fill="#FFF2E1" fill-opacity="1.000000" fill-rule="nonzero"/>
		<path id="path" d="M54 82.45C48.37 83.14 39.85 84.55 29.86 87.73C18.19 91.45 3.96 95.98 3.95 101.56C3.95 108.85 28.14 114.24 38.16 115.9C52.13 118.21 69.63 118.39 70.35 114.89C70.81 112.69 64.48 109.67 63.31 109.11C56.58 105.89 52.37 107.21 40.93 105.59C34.45 104.67 27.86 103.74 27.6 101.56C27.32 99.23 34.47 96.54 39.17 94.77C45.74 92.3 51.47 91.12 55.52 90.5" stroke="#8C6239" stroke-opacity="1.000000" stroke-width="1.000000"/>
		<g opacity="0.570000">
			<path id="path" d="M70.26 114.55C69.79 116.83 62.17 117.55 53.05 117.13C52.11 117.09 51.15 117.03 50.17 116.96C50.04 115.41 50.19 113.87 50.74 112.38C51.05 111.52 51.46 110.76 51.94 110.08C53 108.54 54.36 107.43 55.51 106.58C58.11 106.89 60.45 107.44 63.22 108.77C64.39 109.33 70.72 112.35 70.26 114.55Z" fill="#6B4B3E" fill-opacity="1.000000" fill-rule="nonzero"/>
		</g>
		<g opacity="0.570000">
			<path id="path" d="M34.29 96.31C32.78 96.95 31.32 97.62 30.15 98.32C27.74 96.81 23.95 95.02 19.55 94.02C17.17 93.48 15.08 93.27 13.32 93.22C18.04 91.15 23.87 89.28 29.22 87.57C30.28 88.23 31.3 89.1 32.12 90.25C33.77 92.53 33.65 94.56 34.29 96.31Z" fill="#6B4B3E" fill-opacity="1.000000" fill-rule="nonzero"/>
		</g>
		<g opacity="0.570000">
			<path id="path" d="M31.25 103.55C28.64 104.04 25.87 104.85 23.07 106.09C20.09 107.41 17.81 108.92 15.7 109.97C10.01 107.92 5.34 105.43 4.16 102.61C7.2 100.32 13.74 98.85 19.3 98.8C22.83 98.76 25.84 99.29 28.12 99.83C27.68 100.31 27.45 100.77 27.51 101.23C27.62 102.23 29.08 102.96 31.25 103.55Z" fill="#6B4B3E" fill-opacity="1.000000" fill-rule="nonzero"/>
		</g>
		<g opacity="0.570000">
			<path id="path" d="M40.68 110.87C40.15 112.78 40.92 114.53 41.71 116.11C40.49 115.94 39.26 115.76 38.07 115.56C35.95 115.21 33.18 114.69 30.15 114.02C30.2 111.83 30.97 109.65 32.13 108.1C33.41 106.4 35.26 105.36 37.22 104.72C38.4 104.9 39.62 105.08 40.84 105.25C42.71 105.52 44.39 105.7 45.91 105.84C43.38 107.02 41.28 108.69 40.68 110.87Z" fill="#6B4B3E" fill-opacity="1.000000" fill-rule="nonzero"/>
		</g>
		<g opacity="0.880000">
			<g opacity="0.570000">
				<path id="path" d="M34.08 96.78C33.95 96.84 33.83 96.89 33.7 96.94C30.59 95.04 26.38 93.04 22.69 91.63C21.95 91.35 21.22 91.08 20.51 90.84C23.32 89.86 26.23 88.93 29.01 88.05C30.07 88.71 31.09 89.58 31.91 90.72C33.56 93.01 33.44 95.04 34.08 96.78Z" fill="#EDBF7E" fill-opacity="1.000000" fill-rule="nonzero"/>
			</g>
			<g opacity="0.570000">
				<path id="path" d="M27.4 102.04C24.88 102.08 21.96 102.24 18.67 102.69C15.16 103.18 9.71 104.19 5.97 105.59C5.01 104.79 4.31 103.95 3.95 103.08C7 100.79 13.53 99.32 19.09 99.27C21.49 99.24 23.65 99.48 25.5 99.8L27.34 101.25C27.3 101.4 27.29 101.55 27.3 101.7C27.32 101.82 27.35 101.93 27.4 102.04Z" fill="#EDBF7E" fill-opacity="1.000000" fill-rule="nonzero"/>
			</g>
			<g opacity="0.570000">
				<path id="path" d="M27.34 101.25L25.5 99.81C26.37 99.96 27.18 100.14 27.91 100.31C27.62 100.63 27.42 100.94 27.34 101.25Z" fill="#EDBF7E" fill-opacity="1.000000" fill-rule="nonzero"/>
			</g>
			<g opacity="0.570000">
				<path id="path" d="M40.8 105.74C39.36 106.53 38.09 107.56 37.14 108.92C37.01 109.1 36.89 109.29 36.78 109.49C35.5 111.63 35.46 113.74 35.67 115.65C33.97 115.34 32.02 114.95 29.94 114.49C29.99 112.3 30.76 110.12 31.92 108.58C32.53 107.76 33.28 107.09 34.11 106.55C35 105.96 35.99 105.52 37.01 105.19C38.19 105.37 39.41 105.55 40.63 105.72C40.69 105.73 40.74 105.74 40.8 105.74Z" fill="#EDBF7E" fill-opacity="1.000000" fill-rule="nonzero"/>
			</g>
		</g>
		<g opacity="0.880000">
			<path id="path" d="M61.97 108.77C60.38 109.66 58.72 110.9 57.4 112.75C56.29 114.31 55.63 116.01 55.26 117.69C54.47 117.67 53.66 117.64 52.84 117.6C51.9 117.56 50.94 117.5 49.97 117.44C49.83 115.89 49.98 114.34 50.53 112.85C50.84 111.99 51.25 111.23 51.73 110.55C52.8 109.01 54.16 107.9 55.3 107.05C57.57 107.32 59.64 107.78 61.97 108.77Z" fill="#EDBF7E" fill-opacity="1.000000" fill-rule="nonzero"/>
		</g>
		<path id="path" d="M65.83 40.19C62.43 36.5 55.54 37.89 54.26 38.18C45.72 40.11 39.25 48.66 37.15 56.8C34.93 65.4 39.05 67.89 36.65 81.7C36.08 84.96 35.52 86.73 35.9 89.74C36.54 94.9 39.68 102.14 45.71 104.33C46.78 104.72 48.04 104.99 62.05 101.82C69.82 100.06 70.52 99.73 71.36 99.05C77.33 94.21 77.93 81.76 72.62 76.41C68.99 72.76 64.57 74.4 62.81 70.88C61.34 67.94 63.82 65.53 65.83 58.05C67.33 52.43 69.53 44.22 65.83 40.19Z" fill="#FFF2E1" fill-opacity="1.000000" fill-rule="nonzero"/>
		<path id="path" d="M54.26 38.18C45.72 40.11 39.25 48.66 37.15 56.8C34.93 65.4 39.05 67.89 36.65 81.7C36.08 84.96 35.52 86.73 35.9 89.74C36.54 94.9 39.68 102.14 45.71 104.33C46.78 104.72 48.04 104.99 62.05 101.82C69.82 100.06 70.52 99.73 71.36 99.05C77.33 94.21 77.93 81.76 72.62 76.41C68.99 72.76 64.57 74.4 62.81 70.88C61.34 67.94 63.82 65.53 65.83 58.05C67.33 52.43 69.53 44.22 65.83 40.19C62.43 36.5 55.54 37.89 54.26 38.18Z" stroke="#8C6239" stroke-opacity="1.000000" stroke-width="1.000000"/>
		<g opacity="0.880000">
			<path id="path" d="M68.06 73.07C61.76 76.1 52.36 79.35 41.74 80.12C40.02 80.25 38.48 80.29 37.09 80.31C37.61 76.78 37.7 73.98 37.61 71.62C41.22 71.47 46.7 70.95 55.21 69.89C58.8 69.44 61.82 69.03 64.35 68.67C64.37 69.3 64.51 69.9 64.82 70.53C65.55 71.98 66.7 72.61 68.06 73.07Z" fill="#EDBF7E" fill-opacity="1.000000" fill-rule="nonzero"/>
		</g>
		<g opacity="0.880000">
			<path id="path" d="M66.26 60.18C65.47 62.74 64.67 64.66 64.07 66.23C61.2 66.19 58.53 65.47 56.64 64.66C52.43 62.83 47.58 57.89 48.56 56.03C49.08 55.05 51.12 55.15 51.36 55.16C53.16 55.25 53.82 56.36 55.89 56.92C57.19 57.27 58.33 57.21 59.07 57.11C58.2 56.51 50.41 51.07 48.6 48.12C48.51 47.98 47.61 46.5 46.5 44.51C46.1 43.8 45.78 43.21 45.58 42.84C45.65 42.74 46.48 41.69 47.79 41.78C48.61 41.84 49.16 42.31 49.33 42.47L66.26 60.18Z" fill="#EDBF7E" fill-opacity="1.000000" fill-rule="nonzero"/>
		</g>
		<path id="path" d="M45.87 104.47C45.62 103.26 49.02 101.93 49.71 101.66C51.15 101.1 53.07 100.59 58.94 100.5C66.37 100.4 67.68 101.15 68.19 101.5C70.11 102.77 71.54 105.17 70.69 106.49C70.42 106.91 69.76 107.47 64.26 107.52C60.57 107.55 56.51 107.34 51.23 106.33C46.46 105.42 45.95 104.87 45.87 104.47Z" fill="#FFF2E1" fill-opacity="1.000000" fill-rule="nonzero"/>
		<path id="path" d="M49.71 101.66C51.15 101.1 53.07 100.59 58.94 100.5C66.37 100.4 67.68 101.15 68.19 101.5C70.11 102.77 71.54 105.17 70.69 106.49C70.42 106.91 69.76 107.47 64.26 107.52C60.57 107.55 56.51 107.34 51.23 106.33C46.46 105.42 45.95 104.87 45.87 104.47C45.62 103.26 49.02 101.93 49.71 101.66Z" stroke="#8C6239" stroke-opacity="1.000000" stroke-width="1.000000"/>
		<g opacity="0.880000">
			<path id="path" d="M71.82 87.59C68.89 87.38 66.21 86.92 63.81 86.33C62.97 84.18 61.66 80.63 60.5 76.58C63.76 78.77 67.27 80.24 70.69 81.25C70.79 81.49 70.88 81.73 70.97 81.98C71.05 82.22 71.91 84.83 71.82 87.59Z" fill="#B76042" fill-opacity="1.000000" fill-rule="nonzero"/>
		</g>
		<g opacity="0.570000">
			<path id="path" d="M69.67 74.58C66.28 75.89 62.97 77.94 60.54 81.19C56.84 86.16 58.38 89.71 54.51 95.27C52.37 98.36 48.65 101.94 44.42 103.9C39.18 101.25 36.41 94.64 35.82 89.84C35.45 86.82 36.01 85.06 36.57 81.79C36.67 81.21 36.77 80.65 36.84 80.11C38.14 80.1 39.58 80.05 41.18 79.93C51.09 79.21 59.87 76.18 65.75 73.35C66.93 73.74 68.3 73.99 69.67 74.58Z" fill="#6B4B3E" fill-opacity="1.000000" fill-rule="nonzero"/>
		</g>
		<g opacity="0.570000">
			<path id="path" d="M63.2 65.56C62.64 67.04 62.26 68.18 62.29 69.24C59.92 69.57 57.1 69.96 53.75 70.37C45.81 71.37 40.69 71.85 37.32 72C37.08 65.96 35.52 62.93 37.08 56.89C38.39 51.81 41.4 46.57 45.56 42.88C46.33 44.59 47.46 46.67 49.48 49C53.91 54.11 58.94 56.16 58.53 57.05C58 58.19 49.77 54.35 48.72 56.04C47.91 57.35 51.47 62.01 56.27 64.09C58.03 64.85 60.52 65.52 63.2 65.56Z" fill="#6B4B3E" fill-opacity="1.000000" fill-rule="nonzero"/>
		</g>
		<g opacity="0.570000">
			<path id="path" d="M65.75 58.15C65.58 58.77 65.41 59.36 65.24 59.91L49.44 43.37L47.5 41.34C49.53 39.9 51.77 38.82 54.18 38.28C55.46 37.99 62.35 36.6 65.75 40.29C66.34 40.93 66.78 41.68 67.09 42.5C68.77 46.86 67.02 53.42 65.75 58.15Z" fill="#6B4B3E" fill-opacity="1.000000" fill-rule="nonzero"/>
		</g>
		<path id="path" d="M83.94 66.85C86.28 68.58 84.26 73.28 84.31 84.33C84.32 85.44 84.52 87.62 84.71 89.58C84.88 91.38 84.79 89.99 85.07 92.38C85.34 94.72 85.32 95.3 85.82 95.65C86.5 96.12 87.11 95.61 88.59 95.9C89.1 96 90.84 96.34 91.61 97.66C92.32 98.9 91.9 100.49 91.36 101.44C89.66 104.37 85.04 103.97 84.82 103.95C82.03 103.67 80.13 102.01 79.53 101.44C75.84 97.91 77.4 93.72 76.01 82.07C75.06 74.14 73.82 71.74 75.76 69.24C77.73 66.71 81.96 65.4 83.94 66.85Z" fill="#FFF2E1" fill-opacity="1.000000" fill-rule="nonzero"/>
		<path id="path" d="M84.31 84.33C84.32 85.44 84.52 87.62 84.71 89.58C84.88 91.38 84.79 89.99 85.07 92.38C85.34 94.72 85.32 95.3 85.82 95.65C86.5 96.12 87.11 95.61 88.59 95.9C89.1 96 90.84 96.34 91.61 97.66C92.32 98.9 91.9 100.49 91.36 101.44C89.66 104.37 85.04 103.97 84.82 103.95C82.03 103.67 80.13 102.01 79.53 101.44C75.84 97.91 77.4 93.72 76.01 82.07C75.06 74.14 73.82 71.74 75.76 69.24C77.73 66.71 81.96 65.4 83.94 66.85C86.28 68.58 84.26 73.28 84.31 84.33Z" stroke="#8C6239" stroke-opacity="1.000000" stroke-width="1.000000"/>
		<path id="path" d="M85.82 25.48C80.16 22.72 71.04 25.81 64.95 33.78C57.1 48.88 57.44 60.52 58.16 66.22C59.34 75.7 63.72 86.34 64.44 88.1C68.31 97.49 70.24 98.1 71.23 104.45C72.18 110.52 71.37 115.99 74.76 118.03C75.69 118.6 77.29 119.11 79.03 118.79C80.52 118.51 82.35 117.57 83.06 116.02C84.1 113.73 82.04 111.47 80.54 107.97C78.86 104.05 78.92 100.33 79.03 92.88C79.12 87.23 79.18 83.5 80.79 78.8C81.26 77.45 82.86 74.13 86.08 67.48C87.84 63.84 88.49 62.59 89.34 60.19C90.56 56.77 91.32 53.44 91.61 52.14C91.61 52.14 92.08 50.03 92.36 48.37C92.94 44.93 94.07 29.5 85.82 25.48Z" fill="#FFF2E1" fill-opacity="1.000000" fill-rule="nonzero"/>
		<path id="path" d="M64.95 33.78C57.1 48.88 57.44 60.52 58.16 66.22C59.34 75.7 63.72 86.34 64.44 88.1C68.31 97.49 70.24 98.1 71.23 104.45C72.18 110.52 71.37 115.99 74.76 118.03C75.69 118.6 77.29 119.11 79.03 118.79C80.52 118.51 82.35 117.57 83.06 116.02C84.1 113.73 82.04 111.47 80.54 107.97C78.86 104.05 78.92 100.33 79.03 92.88C79.12 87.23 79.18 83.5 80.79 78.8C81.26 77.45 82.86 74.13 86.08 67.48C87.84 63.84 88.49 62.59 89.34 60.19C90.56 56.77 91.32 53.44 91.61 52.14C91.61 52.14 92.08 50.03 92.36 48.37C92.94 44.93 94.07 29.5 85.82 25.48C80.16 22.72 71.04 25.81 64.95 33.78Z" stroke="#8C6239" stroke-opacity="1.000000" stroke-width="1.000000"/>
		<g opacity="0.570000">
			<path id="path" d="M82.68 42.71C81.66 47.71 76.85 47.45 74.13 54.28C70.99 62.15 74.76 69.04 71.11 71.38C68.63 72.97 65.24 70.87 64.57 72.14C63.77 73.65 68.87 76.13 70.86 81.95C70.99 82.33 73.12 88.82 70.1 92.26C69.36 93.1 68.34 93.72 67.17 94.14C66.4 92.6 65.5 90.72 64.46 88.2C63.74 86.43 59.36 75.8 58.17 66.32C57.46 60.61 57.12 48.97 64.96 33.87C67.7 30.29 71.04 27.7 74.41 26.18C79.43 29.63 83.8 37.2 82.68 42.71Z" fill="#6B4B3E" fill-opacity="1.000000" fill-rule="nonzero"/>
		</g>
		<g opacity="0.880000">
			<path id="path" d="M72.94 67.4C69.88 66.34 66.48 65.03 62.93 63.46C61.06 62.63 59.4 61.84 57.95 61.13C57.93 58.53 58.12 55.43 58.76 51.9C60.67 54.3 62.91 56.72 65.45 58.93C67.93 61.11 70.48 62.89 72.9 64.35C72.94 65.46 72.98 66.48 72.94 67.4Z" fill="#EDBF7E" fill-opacity="1.000000" fill-rule="nonzero"/>
		</g>
		<g opacity="0.380000">
			<g opacity="0.570000">
				<path id="path" d="M52.17 52.11C51.36 53.38 50.64 54.71 49.99 56.09C49.44 56.1 49.02 56.22 48.84 56.52C48.62 56.88 48.72 57.47 49.07 58.2C47.36 62.42 46.28 66.86 45.33 70.75C45.24 71.13 45.15 71.5 45.06 71.87C41.82 72.21 39.35 72.4 37.44 72.48C37.2 66.44 35.63 63.41 37.19 57.37C38.5 52.29 41.52 47.05 45.67 43.36C46.44 45.07 47.58 47.16 49.59 49.48C50.45 50.46 51.32 51.33 52.17 52.11Z" fill="#49352E" fill-opacity="1.000000" fill-rule="nonzero"/>
			</g>
			<g opacity="0.570000">
				<path id="path" d="M66.74 42C64.98 42.33 63.08 42.9 61.17 43.84C58.5 45.16 56.31 46.94 54.49 49.02L49.56 43.86L47.62 41.82C49.64 40.38 51.88 39.31 54.3 38.76C55.58 38.47 62.47 37.08 65.87 40.78C66.21 41.15 66.5 41.56 66.74 42Z" fill="#49352E" fill-opacity="1.000000" fill-rule="nonzero"/>
			</g>
			<g opacity="0.570000">
				<path id="path" d="M44.22 104.22C39.19 101.46 36.52 95.02 35.93 90.32C35.56 87.31 36.12 85.54 36.69 82.27C36.79 81.69 36.88 81.13 36.96 80.59C38.26 80.58 39.69 80.53 41.29 80.42C42.08 80.36 42.85 80.29 43.62 80.2C42.58 88.91 43.05 97.05 44.22 104.22Z" fill="#49352E" fill-opacity="1.000000" fill-rule="nonzero"/>
			</g>
		</g>
		<g opacity="0.880000">
			<path id="path" d="M75.73 51.46C75.26 52.15 74.82 52.95 74.42 53.88C71.73 51.85 68.76 49.55 65.7 47.11C63.93 45.71 62.38 44.45 61.02 43.32C61.99 40.48 63.26 37.45 64.89 34.27C66.4 37.78 68.37 41.55 70.98 45.35C72.54 47.61 74.15 49.65 75.73 51.46Z" fill="#EDBF7E" fill-opacity="1.000000" fill-rule="nonzero"/>
		</g>
		<path id="path" d="M82.55 13.41C81.35 13.35 81.04 13.68 74.25 16.43C67.87 19.01 68.09 18.75 67.46 19.2C62.85 22.47 60.62 30.04 62.68 36.3C63.1 37.55 64.62 42.17 68.97 44.1C71.84 45.36 74.47 44.82 77.77 44.1C83.36 42.86 89.39 41.54 92.36 36.05C95.61 30.04 92.81 23.51 92.36 22.47C92.19 22.07 88.47 13.68 82.55 13.41Z" fill="#FFF7E9" fill-opacity="1.000000" fill-rule="nonzero"/>
		<path id="path" d="M74.25 16.43C67.87 19.01 68.09 18.75 67.46 19.2C62.85 22.47 60.62 30.04 62.68 36.3C63.1 37.55 64.62 42.17 68.97 44.1C71.84 45.36 74.47 44.82 77.77 44.1C83.36 42.86 89.39 41.54 92.36 36.05C95.61 30.04 92.81 23.51 92.36 22.47C92.19 22.07 88.47 13.68 82.55 13.41C81.35 13.35 81.04 13.68 74.25 16.43Z" stroke="#754C24" stroke-opacity="1.000000" stroke-width="1.000000"/>
		<path id="path" d="M82.05 42.83C82.09 43.63 84.11 44.39 85.82 44.09C88.31 43.66 89.81 41.04 89.34 40.32C88.61 39.18 81.97 41.37 82.05 42.83Z" fill="#F9DEBD" fill-opacity="1.000000" fill-rule="nonzero"/>
		<path id="path" d="M85.82 44.09C88.31 43.66 89.81 41.04 89.34 40.32C88.61 39.18 81.97 41.37 82.05 42.83C82.09 43.63 84.11 44.39 85.82 44.09Z" stroke="#754C24" stroke-opacity="1.000000" stroke-width="1.000000"/>
		<path id="path" d="M80.92 29.88C79.61 31.08 80.79 32.94 80.29 36.04C79.67 39.85 77.28 40.97 78.02 42.58C78.66 43.95 80.88 44.45 82.55 44.09C84.48 43.68 86.02 42.06 86.45 39.94C86.58 40.11 87.95 41.81 89.59 41.58C91.67 41.28 92.86 38.09 92.11 36.29C91.45 34.73 89.79 35.35 87.33 33.28C85.15 31.44 85.08 29.55 83.3 29.25C82.56 29.13 81.58 29.27 80.92 29.88Z" fill="#FCE7CD" fill-opacity="1.000000" fill-rule="nonzero"/>
		<path id="path" d="M80.29 36.04C79.67 39.85 77.28 40.97 78.02 42.58C78.66 43.95 80.88 44.45 82.55 44.09C84.48 43.68 86.02 42.06 86.45 39.94C86.58 40.11 87.95 41.81 89.59 41.58C91.67 41.28 92.86 38.09 92.11 36.29C91.45 34.73 89.79 35.35 87.33 33.28C85.15 31.44 85.08 29.55 83.3 29.25C82.56 29.13 81.58 29.27 80.92 29.88C79.61 31.08 80.79 32.94 80.29 36.04Z" stroke="#754C24" stroke-opacity="1.000000" stroke-width="0.500000"/>
		<g opacity="0.570000">
			<path id="path" d="M76.39 31.39C75.7 32.6 74.8 33.58 74.8 33.58C74.19 34.24 73.5 34.83 72.76 35.35C69.9 36.76 67.05 38.16 64.19 39.56C63.85 39.01 59.31 31.47 62.68 24.72C63.6 22.89 65.72 20.16 68.47 18.69C68.81 18.5 69.28 18.28 69.47 18.18C71.85 17.04 73.87 16.34 75.26 15.92C77.56 23.55 77.4 29.61 76.39 31.39Z" fill="#6B4B3E" fill-opacity="1.000000" fill-rule="nonzero"/>
		</g>
		<g opacity="0.570000">
			<path id="path" d="M93.87 27.49C91.5 26.86 88.57 25.82 85.44 24.1C80.66 21.46 77.34 18.29 75.26 15.92C76.54 15.26 79.9 13.75 83.81 14.67C89.07 15.9 93.18 21.02 93.87 27.49Z" fill="#6B4B3E" fill-opacity="1.000000" fill-rule="nonzero"/>
		</g>
		<path id="path" d="M79.91 17.31C79.58 18.11 78.88 19.67 78.4 19.57C77.94 19.48 77.91 17.87 77.9 17.31C77.8 12.23 81.68 0.71 84.94 1.21C86.55 1.46 87.31 4.55 88.21 8.25C88.45 9.24 90.07 15.89 88.21 16.8C86.63 17.57 83.93 13.55 81.92 14.54C81.41 14.79 80.66 15.5 79.91 17.31Z" fill="#FFF7E9" fill-opacity="1.000000" fill-rule="nonzero"/>
		<path id="path" d="M78.4 19.57C77.94 19.48 77.91 17.87 77.9 17.31C77.8 12.23 81.68 0.71 84.94 1.21C86.55 1.46 87.31 4.55 88.21 8.25C88.45 9.24 90.07 15.89 88.21 16.8C86.63 17.57 83.93 13.55 81.92 14.54C81.41 14.79 80.66 15.5 79.91 17.31C79.58 18.11 78.88 19.67 78.4 19.57Z" stroke="#754C24" stroke-opacity="1.000000" stroke-width="1.000000"/>
		<path id="path" d="M71.23 21.46C71.53 20.9 70.21 19.65 69.98 19.45C66.07 16.08 56.99 12.62 54.38 15.67C50.65 20.05 62.26 35.35 63.44 34.79C64.13 34.46 60.06 27.46 62.94 23.97C63.7 23.04 65.37 21.87 67.34 21.58C69.33 21.29 70.94 22.02 71.23 21.46Z" fill="#FFF7E9" fill-opacity="1.000000" fill-rule="nonzero"/>
		<path id="path" d="M69.98 19.45C66.07 16.08 56.99 12.62 54.38 15.67C50.65 20.05 62.26 35.35 63.44 34.79C64.13 34.46 60.06 27.46 62.94 23.97C63.7 23.04 65.37 21.87 67.34 21.58C69.33 21.29 70.94 22.02 71.23 21.46C71.53 20.9 70.21 19.65 69.98 19.45Z" stroke="#754C24" stroke-opacity="1.000000" stroke-width="1.000000"/>
		<path id="path" d="M79.03 19.44C78.48 19.18 79.95 15.6 81.54 10.39C83.25 4.82 83.83 2.08 84.81 2.09C85.4 2.1 85.82 3.08 86.58 4.86C87.34 6.65 87.75 8.35 88.08 10.64C88.64 14.44 88.93 16.48 88.08 16.93C87.15 17.42 86.08 15.36 84.06 15.42C81.24 15.51 79.62 19.73 79.03 19.44Z" fill="#FFB3B3" fill-opacity="1.000000" fill-rule="nonzero"/>
		<path id="path" d="M70.48 21.71C70.87 20.64 65.31 17.32 59.16 16.18C56.85 15.74 55.92 15.87 55.39 16.43C54.07 17.81 55.66 21.42 56.9 24.23C57.08 24.63 57.88 26.44 59.41 28.75C59.62 29.06 62.87 33.95 63.69 33.53C64.26 33.23 62.42 30.56 63.18 26.99C63.33 26.32 63.83 23.99 65.7 22.71C67.9 21.22 70.23 22.38 70.48 21.71Z" fill="#FFB3B3" fill-opacity="1.000000" fill-rule="nonzero"/>
		<g opacity="0.880000">
			<path id="path" d="M64.19 39.57C64.42 41.17 67.03 42.24 68.97 42.33C69.18 42.34 72.1 42.43 73.62 40.45C74.52 39.28 73.91 38.74 74.76 37.05C75.98 34.6 77.78 34.72 78.28 32.77C78.46 32.06 78.24 31.92 77.65 29.13C76.82 25.25 76.98 24.25 76.39 24.1C75.96 23.98 75.39 24.27 72.11 28.62C69.64 31.91 69.97 32.35 68.34 34.41C65.73 37.7 63.99 38.19 64.19 39.57Z" fill="#EDBF7E" fill-opacity="1.000000" fill-rule="nonzero"/>
		</g>
		<g opacity="0.880000">
			<path id="path" d="M81.92 21.58C81.5 22.83 83.84 24.63 85.44 25.86C85.92 26.23 92.04 30.88 93.87 29.26C94.97 28.27 94.19 25.28 92.86 23.47C91.4 21.48 89.29 20.95 88.34 20.71C85.89 20.08 82.37 20.23 81.92 21.58Z" fill="#EDBF7E" fill-opacity="1.000000" fill-rule="nonzero"/>
		</g>
		<path id="path" d="M85.82 28.75C85.7 28.36 85.32 26.91 86.07 25.48C86.64 24.42 87.97 23.09 89.09 23.47C90.1 23.82 90.38 25.36 90.35 26.24C90.34 26.54 90.28 28.26 88.84 29.01C87.91 29.49 86.74 29.38 85.82 28.75Z" fill="#A7AD53" fill-opacity="1.000000" fill-rule="nonzero"/>
		<path id="path" d="M86.07 25.48C86.64 24.42 87.97 23.09 89.09 23.47C90.1 23.82 90.38 25.36 90.35 26.24C90.34 26.54 90.28 28.26 88.84 29.01C87.91 29.49 86.74 29.38 85.82 28.75C85.7 28.36 85.32 26.91 86.07 25.48Z" stroke="#42210B" stroke-opacity="1.000000" stroke-width="1.000000"/>
		<path id="path" d="M78.28 32.77C78.22 32.56 77.78 30.85 76.26 30.26C74.47 29.56 72.78 31.05 72.24 31.52C71.75 31.95 71.22 32.41 71.23 33.03C71.25 34.03 72.68 34.85 73.75 35.04C76.19 35.48 78.16 32.93 78.28 32.77Z" fill="#A7AD53" fill-opacity="1.000000" fill-rule="nonzero"/>
		<path id="path" d="M76.26 30.26C74.47 29.56 72.78 31.05 72.24 31.52C71.75 31.95 71.22 32.41 71.23 33.03C71.25 34.03 72.68 34.85 73.75 35.04C76.19 35.48 78.16 32.93 78.28 32.77C78.22 32.56 77.78 30.85 76.26 30.26Z" stroke="#42210B" stroke-opacity="1.000000" stroke-width="1.000000"/>
		<g opacity="0.460000">
			<ellipse id="circle" cx="75.011963" cy="32.529785" rx="2.263198" ry="2.263201" fill="#FFFF2C" fill-opacity="1.000000"/>
			<ellipse id="ellipse" cx="87.962372" cy="26.491211" rx="1.886396" ry="2.263200" fill="#FFFF2C" fill-opacity="1.000000"/>
		</g>
		<path id="path" d="M74.38 30.13C74.39 30.83 74.48 31.81 74.88 32.9C75.17 33.69 75.69 34.72 75.89 34.66C76.09 34.6 75.96 33.4 75.64 32.4C75.3 31.37 74.78 30.62 74.38 30.13Z" fill="#000000" fill-opacity="1.000000" fill-rule="nonzero"/>
		<path id="path" d="M74.88 32.9C75.17 33.69 75.69 34.72 75.89 34.66C76.09 34.6 75.96 33.4 75.64 32.4C75.3 31.37 74.78 30.62 74.38 30.13C74.39 30.83 74.48 31.81 74.88 32.9Z" stroke="#000000" stroke-opacity="1.000000" stroke-width="1.000000" stroke-linejoin="round"/>
		<path id="path" d="M89.22 28.37C88.84 28.01 88.38 27.52 87.96 26.86C87.45 26.08 87.16 25.33 86.99 24.77C87.36 25.05 87.96 25.55 88.46 26.36C88.96 27.16 89.14 27.92 89.22 28.37Z" fill="#000000" fill-opacity="1.000000" fill-rule="nonzero"/>
		<path id="path" d="M87.96 26.86C87.45 26.08 87.16 25.33 86.99 24.77C87.36 25.05 87.96 25.55 88.46 26.36C88.96 27.16 89.14 27.92 89.22 28.37C88.84 28.01 88.38 27.52 87.96 26.86Z" stroke="#000000" stroke-opacity="1.000000" stroke-width="1.000000" stroke-linejoin="round"/>
		<path id="path" d="M74.5 33.78C74.54 33.77 73.91 33.03 74 32.02C74.06 31.34 74.42 30.92 74.25 30.76C74.11 30.64 73.69 30.75 73.5 31.02C72.92 31.8 74.45 33.81 74.5 33.78Z" fill="#FFFFFF" fill-opacity="1.000000" fill-rule="nonzero"/>
		<path id="path" d="M87.84 24.27C87.76 24.46 88.57 24.76 89.13 25.69C89.6 26.47 89.56 27.12 89.62 27.11C89.73 27.1 89.97 25.1 88.96 24.41C88.52 24.12 87.91 24.12 87.84 24.27Z" fill="#FFFFFF" fill-opacity="1.000000" fill-rule="nonzero"/>
		<path id="path" d="M82.8 38.06C82.84 37.04 86.58 35.82 87.33 36.8C87.72 37.31 87.25 38.4 87.08 38.81C86.86 39.31 86.69 39.72 86.32 39.82C85.8 39.96 85.6 39.28 84.56 39.06C83.98 38.94 83.7 39.08 83.3 38.81C83.1 38.67 82.79 38.36 82.8 38.06Z" fill="#A76453" fill-opacity="1.000000" fill-rule="nonzero"/>
		<path id="path" d="M82.55 38.31C82.82 38.82 83.68 38.81 83.81 38.81C84.61 38.81 84.99 38.33 85.32 38.56C85.47 38.67 85.69 38.99 85.82 39.3C85.83 39.34 86.05 39.83 86.33 39.82C86.65 39.8 86.82 39.12 86.83 39.06C87 38.32 86.58 37.95 86.83 37.56C87.04 37.24 87.39 37.37 87.58 37.05C87.81 36.68 87.59 36.06 87.33 35.79C86.73 35.17 85.02 35.63 83.05 36.8C82.54 37.29 82.34 37.91 82.55 38.31Z" fill="#CF9D82" fill-opacity="1.000000" fill-rule="nonzero"/>
		<g opacity="0.440000">
			<path id="path" d="M86.07 39.82C86.02 39.84 85.91 39.09 85.32 38.81C84.83 38.58 84.54 38.94 83.81 38.81C83.06 38.68 82.51 38.15 82.55 38.06C82.59 37.98 83.03 38.25 83.81 38.31C84.68 38.38 84.91 38.11 85.32 38.31C86.02 38.64 86.14 39.79 86.07 39.82Z" fill="#FFFFFF" fill-opacity="1.000000" fill-rule="nonzero"/>
			<path id="path" d="M86.83 39.06C86.76 39.07 86.35 37.56 86.83 37.05C86.91 36.96 87.09 36.84 87.33 36.55C87.47 36.38 87.53 36.28 87.58 36.3C87.66 36.32 87.67 36.58 87.58 36.8C87.47 37.08 87.24 37.16 87.08 37.3C86.49 37.81 86.89 39.05 86.83 39.06Z" fill="#FFFFFF" fill-opacity="1.000000" fill-rule="nonzero"/>
		</g>
		<g opacity="0.570000">
			<path id="path" d="M74.63 113.89C74.81 114.25 75.95 113.62 78.4 113.64C80.71 113.65 81.76 114.22 81.92 113.89C82.16 113.41 80.33 111.32 78.15 111.37C76.07 111.43 74.39 113.4 74.63 113.89Z" fill="#CCBBB6" fill-opacity="1.000000" fill-rule="nonzero"/>
		</g>
		<path id="path" d="M85.57 100.18C87 99.17 88.42 98.17 89.85 97.16C88.57 96.01 86.72 96.13 85.82 97.16C85.15 97.92 85.05 99.13 85.57 100.18Z" fill="#CCBBB6" fill-opacity="1.000000" fill-rule="nonzero"/>
		<path id="path" d="M55.14 101.18C55.16 101.64 58.89 100.83 64.19 102.69C68.18 104.1 70.62 106.17 70.98 105.71C71.27 105.34 69.91 103.71 68.72 102.69C68.26 102.31 67.23 101.51 65.7 100.93C61.17 99.23 55.11 100.6 55.14 101.18Z" fill="#CCBBB6" fill-opacity="1.000000" fill-rule="nonzero"/>
	</g>
</svg>
