<svg width="132.000000" height="137.000000" viewBox="0 0 132 137" fill="none" xmlns="http://www.w3.org/2000/svg" xmlns:xlink="http://www.w3.org/1999/xlink">
	<desc>
			Created with Pixso.
	</desc>
	<defs>
		<clipPath id="clip33_1481">
			<rect id="cow" width="132.000000" height="137.000000" fill="white" fill-opacity="0"/>
		</clipPath>
	</defs>
	<g clip-path="url(#clip33_1481)">
		<path id="path" d="M117.9 43.16C118.58 44.54 119.53 46.78 120.13 49.68C120.7 52.49 121.14 56.92 116.42 74.93C114.33 82.89 112.97 86.91 113.46 91.22C113.54 91.89 113.79 93.72 113.46 96.1C113.03 99.25 111.88 101.25 111.23 102.62C107.85 109.81 111.78 113.82 108.27 119.72C106.71 122.34 103.82 125.3 101.6 124.6C100.76 124.34 99.93 123.54 99.74 122.57C99.38 120.71 101.59 119.26 103.08 117.27C105.44 114.13 105.52 109.71 105.31 100.99C105.11 93.11 104.57 88.76 104.57 88.76C103.17 79.61 102.24 69.87 100.86 58.62L117.9 43.16Z" fill="#F5F2DF" fill-opacity="1.000000" fill-rule="nonzero"/>
		<path id="path" d="M117.9 43.16C118.58 44.54 119.53 46.78 120.13 49.68C120.7 52.49 121.14 56.92 116.42 74.93C114.33 82.89 112.97 86.91 113.46 91.22C113.54 91.89 113.79 93.72 113.46 96.1C113.03 99.25 111.88 101.25 111.23 102.62C107.85 109.81 111.78 113.82 108.27 119.72C106.71 122.34 103.82 125.3 101.6 124.6C100.76 124.34 99.93 123.54 99.74 122.57C99.38 120.71 101.59 119.26 103.08 117.27C105.44 114.13 105.52 109.71 105.31 100.99C105.11 93.11 104.57 88.76 104.57 88.76C103.17 79.61 102.24 69.87 100.86 58.62" stroke="#947100" stroke-opacity="1.000000" stroke-width="1.000000"/>
		<path id="path" d="M44.08 53.64C42.12 58.09 42.2 61.33 42.59 63.41C43.46 68.08 46.35 69.35 49.26 75.63C49.87 76.93 49.77 76.93 52.23 85.41C55.67 97.26 56.41 99.15 56.68 103.33C56.93 107.25 57.18 112.12 54.45 114.73C52.56 116.55 49.93 116.6 50 117.18C50.04 117.44 50.6 117.7 55.94 117.99C59.12 118.17 60.72 118.25 61.13 117.99C63.76 116.32 62.45 109.81 61.87 100.89C61.55 95.87 62.11 100.33 61.87 82.97C61.78 76.26 61.57 67.41 61.13 56.91L44.08 53.64Z" fill="#F5F2DF" fill-opacity="1.000000" fill-rule="nonzero"/>
		<path id="path" d="M44.08 53.64C42.12 58.09 42.2 61.33 42.59 63.41C43.46 68.08 46.35 69.35 49.26 75.63C49.87 76.93 49.77 76.93 52.23 85.41C55.67 97.26 56.41 99.15 56.68 103.33C56.93 107.25 57.18 112.12 54.45 114.73C52.56 116.55 49.93 116.6 50 117.18C50.04 117.44 50.6 117.7 55.94 117.99C59.12 118.17 60.72 118.25 61.13 117.99C63.76 116.32 62.45 109.81 61.87 100.89C61.55 95.87 62.11 100.33 61.87 82.97C61.78 76.26 61.57 67.41 61.13 56.91" stroke="#947100" stroke-opacity="1.000000" stroke-width="1.000000"/>
		<path id="path" d="M54.91 113.73C56.26 113.9 56.81 115.34 59.01 115.66C60.95 115.95 62.19 115.1 62.53 115.66C62.89 116.26 61.84 117.85 60.77 118.88C58.41 121.19 54.64 122.01 51.4 120.82C50.32 120.42 49.51 119.88 49.05 119.53C51.75 114.53 53.64 113.58 54.91 113.73Z" fill="#27200E" fill-opacity="1.000000" fill-rule="nonzero"/>
		<path id="path" d="M21.49 35.83C26.03 35.01 27.44 36.39 34.1 35.83C36.29 35.65 35.65 35.54 40.03 35.02C44.6 34.47 47.21 34.16 50.41 34.2C55.57 34.27 55.27 35.17 59.31 35.02C63.76 34.85 64.53 33.75 68.95 33.39C72.49 33.11 74.21 33.64 78.59 34.2C84.51 34.97 89.02 34.96 93.42 35.02C103.81 35.15 105.46 34.03 109.74 35.83C111.57 36.6 115.34 38.25 117.9 42.35C120.62 46.72 120.43 51.42 120.12 57.01C119.69 64.9 119.36 70.98 115.67 76.56C109.62 85.7 98.82 87.02 91.2 87.96C84.89 88.74 79.23 89.44 72.96 86.61C68.72 84.71 66.34 82.17 61.54 82.26C58.84 82.3 58.54 83.13 52.64 84.7C46.38 86.37 43.24 87.21 40.78 86.33C36.31 84.75 34 79.64 31.88 74.93C28.84 68.19 30.02 65.79 26.69 61.08C24.37 57.8 23.46 58.49 20.01 54.56C18.26 52.56 11.34 44.67 13.34 39.9C14.51 37.11 18.31 36.42 21.49 35.83Z" fill="#F5F2DF" fill-opacity="1.000000" fill-rule="nonzero"/>
		<path id="path" d="M34.1 35.83C36.29 35.65 35.65 35.54 40.03 35.02C44.6 34.47 47.21 34.16 50.41 34.2C55.57 34.27 55.27 35.17 59.31 35.02C63.76 34.85 64.53 33.75 68.95 33.39C72.49 33.11 74.21 33.64 78.59 34.2C84.51 34.97 89.02 34.96 93.42 35.02C103.81 35.15 105.46 34.03 109.74 35.83C111.57 36.6 115.34 38.25 117.9 42.35C120.62 46.72 120.43 51.42 120.12 57.01C119.69 64.9 119.36 70.98 115.67 76.56C109.62 85.7 98.82 87.02 91.2 87.96C84.89 88.74 79.23 89.44 72.96 86.61C68.72 84.71 66.34 82.17 61.54 82.26C58.84 82.3 58.54 83.13 52.64 84.7C46.38 86.37 43.24 87.21 40.78 86.33C36.31 84.75 34 79.64 31.88 74.93C28.84 68.19 30.02 65.79 26.69 61.08C24.37 57.8 23.46 58.49 20.01 54.56C18.26 52.56 11.34 44.67 13.34 39.9C14.51 37.11 18.31 36.42 21.49 35.83C26.03 35.01 27.44 36.39 34.1 35.83Z" stroke="#947100" stroke-opacity="1.000000" stroke-width="1.000000"/>
		<path id="path" d="M110.95 91.83C110.57 93.2 109.43 95.14 107.56 95.66C106.53 95.94 105.87 95.63 105.03 95.26C105.02 96.24 104.66 97.29 104 97.85C102.98 98.71 101.83 97.89 101.77 97.85L101.15 94.39C100.59 94.39 100.06 94.45 99.54 94.51C99.86 95.7 99.54 97.39 98.63 98.16C97.6 99.02 96.46 98.2 96.4 98.16L95.7 94.28C94.96 94 94.31 93.66 94.31 93.66C93.52 93.22 92.97 92.79 92.59 92.46C90.18 90.41 88.96 89.39 88.51 87.99C87.59 85.15 89.73 82.41 89.87 82.24C92.12 79.46 96.07 79.19 98.04 79.04C98.7 79 99.29 78.96 100.08 79.04C104 79.48 106.49 82.3 107.56 83.52C109.22 85.4 111.9 88.46 110.95 91.83Z" fill="#CCA68F" fill-opacity="1.000000" fill-rule="nonzero"/>
		<path id="path" d="M107.56 95.66C106.53 95.94 105.87 95.63 105.03 95.26C105.02 96.24 104.66 97.29 104 97.85C102.98 98.71 101.83 97.89 101.77 97.85L101.15 94.39C100.59 94.39 100.06 94.45 99.54 94.51C99.86 95.7 99.54 97.39 98.63 98.16C97.6 99.02 96.46 98.2 96.4 98.16L95.7 94.28C94.96 94 94.31 93.66 94.31 93.66C93.52 93.22 92.97 92.79 92.59 92.46C90.18 90.41 88.96 89.39 88.51 87.99C87.59 85.15 89.73 82.41 89.87 82.24C92.12 79.46 96.07 79.19 98.04 79.04C98.7 79 99.29 78.96 100.08 79.04C104 79.48 106.49 82.3 107.56 83.52C109.22 85.4 111.9 88.46 110.95 91.83C110.57 93.2 109.43 95.14 107.56 95.66Z" stroke="#AA4700" stroke-opacity="1.000000" stroke-width="1.000000"/>
		<path id="path" d="M36.7 56.6C34.74 61.06 34.82 64.3 35.21 66.38C36.08 71.05 38.97 72.32 41.89 78.6C42.49 79.9 42.39 79.9 44.85 88.37C48.29 100.22 49.03 102.12 49.3 106.29C49.59 110.91 49.17 114.52 47.07 117.7C46.43 118.67 45.17 120.27 45.59 120.96C45.89 121.46 46.86 121.14 48.55 120.96C52.06 120.59 52.81 121.55 53.75 120.96C56.37 119.29 55.07 112.78 54.48 103.86C54.16 98.83 54.73 103.3 54.48 85.93C54.39 79.22 54.19 70.38 53.75 59.87L36.7 56.6Z" fill="#F5F2DF" fill-opacity="1.000000" fill-rule="nonzero"/>
		<path id="path" d="M36.7 56.6C34.74 61.06 34.82 64.3 35.21 66.38C36.08 71.05 38.97 72.32 41.89 78.6C42.49 79.9 42.39 79.9 44.85 88.37C48.29 100.22 49.03 102.12 49.3 106.29C49.59 110.91 49.17 114.52 47.07 117.7C46.43 118.67 45.17 120.27 45.59 120.96C45.89 121.46 46.86 121.14 48.55 120.96C52.06 120.59 52.81 121.55 53.75 120.96C56.37 119.29 55.07 112.78 54.48 103.86C54.16 98.83 54.73 103.3 54.48 85.93C54.39 79.22 54.19 70.38 53.75 59.87" stroke="#947100" stroke-opacity="1.000000" stroke-width="1.000000"/>
		<g opacity="0.200000">
			<path id="path" d="M110.85 92.04C110.47 93.42 109.32 95.35 107.45 95.87C106.42 96.16 105.76 95.85 104.93 95.48C104.92 96.46 104.56 97.5 103.89 98.07C102.87 98.93 101.73 98.11 101.67 98.07L101.05 94.61C100.49 94.61 99.95 94.66 99.43 94.73C99.75 95.92 99.44 97.61 98.52 98.38C97.5 99.24 96.36 98.42 96.3 98.38L95.6 94.5C94.85 94.23 94.2 93.87 94.2 93.87C93.78 93.63 93.43 93.4 93.13 93.19C93.13 93.19 92.81 92.96 92.49 92.68C91.37 91.71 90.37 90.86 89.72 89.6C89.43 89.03 88.99 87.95 88.98 86.34C90.16 87.63 92.12 89.38 94.92 90.41C95.88 90.77 97.38 91.31 99.36 91.23C102.01 91.13 103.95 90 106.04 88.78C107.58 87.89 108.77 86.98 109.54 86.34C110.62 87.98 111.44 89.95 110.85 92.04Z" fill="#6B574C" fill-opacity="1.000000" fill-rule="nonzero"/>
		</g>
		<path id="path" d="M84.16 59.86C85.43 63.3 87.8 68.42 92.32 72.9C96.61 77.16 99.07 77.1 101.96 81.04C105.68 86.13 103.62 88.98 106.41 98.15C109.98 109.88 116.52 113.7 114.56 119.33C113.42 122.62 110.17 124.37 110.86 125.84C111.52 127.26 115.01 126.71 115.3 126.66C116 126.55 117.85 126.28 119.01 125.03C120.76 123.14 120.45 119.94 119.75 115.25C118.59 107.39 117.22 101.02 116.79 98.96C115.89 94.67 115.44 91.74 114.56 85.93C112.69 73.54 111.75 67.35 112.34 63.93C113.55 56.95 116.74 52.73 114.56 47.64C113.91 46.12 113.01 45.05 112.34 44.38L84.16 59.86Z" fill="#F5F2DF" fill-opacity="1.000000" fill-rule="nonzero"/>
		<path id="path" d="M84.16 59.86C85.43 63.3 87.8 68.42 92.32 72.9C96.61 77.16 99.07 77.1 101.96 81.04C105.68 86.13 103.62 88.98 106.41 98.15C109.98 109.88 116.52 113.7 114.56 119.33C113.42 122.62 110.17 124.37 110.86 125.84C111.52 127.26 115.01 126.71 115.3 126.66C116 126.55 117.85 126.28 119.01 125.03C120.76 123.14 120.45 119.94 119.75 115.25C118.59 107.39 117.22 101.02 116.79 98.96C115.89 94.67 115.44 91.74 114.56 85.93C112.69 73.54 111.75 67.35 112.34 63.93C113.55 56.95 116.74 52.73 114.56 47.64C113.91 46.12 113.01 45.05 112.34 44.38" stroke="#947100" stroke-opacity="1.000000" stroke-width="1.000000"/>
		<path id="path" d="M47.75 117.31C49.02 117.51 49.53 119.16 51.59 119.54C53.41 119.88 54.58 118.89 54.89 119.54C55.22 120.23 54.23 122.07 53.24 123.26C51.02 125.93 47.5 126.88 44.45 125.49C43.44 125.04 42.69 124.41 42.25 124.01C44.79 118.23 46.56 117.12 47.75 117.31Z" fill="#27200E" fill-opacity="1.000000" fill-rule="nonzero"/>
		<path id="path" d="M112.66 122.7C113.85 122.9 114.32 124.55 116.25 124.93C117.94 125.27 119.04 124.28 119.33 124.93C119.64 125.62 118.72 127.46 117.79 128.65C115.72 131.32 112.43 132.27 109.58 130.89C108.64 130.43 107.94 129.8 107.53 129.4C109.89 123.62 111.54 122.52 112.66 122.7Z" fill="#27200E" fill-opacity="1.000000" fill-rule="nonzero"/>
		<path id="path" d="M101.95 117.81C103.06 117.97 103.51 119.28 105.32 119.59C106.91 119.86 107.93 119.07 108.2 119.59C108.49 120.14 107.63 121.6 106.76 122.56C104.81 124.68 101.73 125.44 99.06 124.34C98.18 123.97 97.52 123.47 97.13 123.15C99.35 118.54 100.91 117.66 101.95 117.81Z" fill="#27200E" fill-opacity="1.000000" fill-rule="nonzero"/>
		<path id="path" d="M109.72 36.24C111.25 34.23 117.8 35.62 121.61 39.9C123.51 42.05 124.64 48.15 126.8 60.27C128.06 67.34 128.22 69.17 128.29 70.04C128.74 76.06 127.96 77.04 129.03 80.63C130.24 84.72 130.85 85.46 131.25 87.96C131.34 88.51 131.24 88.1 131.25 92.85C131.26 97.06 131.34 97.7 131 98.97C130.34 101.48 128.8 103.63 128.28 103.44C127.77 103.25 128.72 101.07 128.28 97.74C127.92 94.93 126.91 94.18 126.06 91.22C125.24 88.39 125.31 86.2 125.32 83.89C125.32 81.68 125.36 69.58 123.09 58.64C121.34 50.19 119.41 48.18 117.9 47.24C116.01 46.07 114.62 46.48 112.7 44.79C110.03 42.44 108.47 37.88 109.72 36.24Z" fill="#F5F2DF" fill-opacity="1.000000" fill-rule="nonzero"/>
		<path id="path" d="M121.61 39.9C123.51 42.05 124.64 48.15 126.8 60.27C128.06 67.34 128.22 69.17 128.29 70.04C128.74 76.06 127.96 77.04 129.03 80.63C130.24 84.72 130.85 85.46 131.25 87.96C131.34 88.51 131.24 88.1 131.25 92.85C131.26 97.06 131.34 97.7 131 98.97C130.34 101.48 128.8 103.63 128.28 103.44C127.77 103.25 128.72 101.07 128.28 97.74C127.92 94.93 126.91 94.18 126.06 91.22C125.24 88.39 125.31 86.2 125.32 83.89C125.32 81.68 125.36 69.58 123.09 58.64C121.34 50.19 119.41 48.18 117.9 47.24C116.01 46.07 114.62 46.48 112.7 44.79C110.03 42.44 108.47 37.88 109.72 36.24C111.25 34.23 117.8 35.62 121.61 39.9Z" stroke="#947100" stroke-opacity="1.000000" stroke-width="1.000000"/>
		<path id="path" d="M57.83 67.6C56.99 68.29 55.66 66.97 54.87 67.6C54.1 68.21 54.64 70.01 54.87 72.48C55.2 76.13 54.68 79.74 54.13 79.81C53.23 79.93 52.92 70.6 49.31 69.54C47.28 68.94 46.29 71.61 43.38 71.17C39.96 70.65 37.67 66.69 37.44 66.28C35.96 63.65 36.38 61.92 35.22 61.4C33.79 60.75 32.29 63 30.85 64.11C30.45 63.17 29.93 62.19 29.13 61.08C28 59.48 27.21 58.83 26.28 58.12C25.04 51.19 25.22 40.62 27.58 35.58C29.9 35.68 32 36.22 36.55 35.83C37.33 35.77 37.75 35.71 38.16 35.65C38.77 36.27 39.13 36.85 40.41 37.79C44.03 40.41 48.34 40.86 50.05 41.05C52.83 41.34 54.04 40.97 54.5 41.86C55.3 43.42 51.58 45.91 52.27 48.38C52.75 50.08 54.7 49.67 56.35 52.13C57.14 53.29 57.37 54.54 57.84 57.01C58.29 59.46 57.85 58.95 58.21 64.67C58.3 66.17 58.39 67.15 57.83 67.6Z" fill="#964A28" fill-opacity="1.000000" fill-rule="nonzero"/>
		<path id="path" d="M17.35 34.05C16.82 33.72 16.33 33.43 15.9 33.18C11.46 30.61 9.25 30.38 8.15 30.35C7.98 30.34 7.88 30.34 7.79 30.34C7.64 30.35 7.54 30.36 7.29 30.35C5.12 30.29 2.71 29.4 0.14 27.11C0.16 27.03 0.19 26.96 0.22 26.87C0.27 26.76 0.33 26.66 0.4 26.56C1.69 24.85 6.17 26.74 6.85 27.03C8.21 27.62 8.52 28 9.29 28.44C9.41 28.52 9.74 28.69 10.29 28.92C12.57 29.87 14.59 30.04 15.89 31.29C16.6 31.98 17.18 33.07 17.35 34.05Z" fill="#38180D" fill-opacity="1.000000" fill-rule="nonzero"/>
		<path id="path" d="M17.4 34.73C17.38 35.03 17.32 35.31 17.19 35.55C16.58 36.66 15.28 36.16 11.17 36.49C7.89 36.76 7.24 36.94 6 36.49C4.21 35.84 3.17 34.46 2.56 33.66C1.29 31.99 -0.35 28.84 0.15 27.11C2.72 29.4 5.12 30.29 7.29 30.35C7.55 30.35 7.64 30.35 7.8 30.34C7.88 30.34 7.99 30.34 8.16 30.35C9.25 30.39 11.47 30.61 15.91 33.18C16.34 33.43 16.83 33.72 17.35 34.05C17.4 34.29 17.41 34.52 17.4 34.73Z" fill="#77381F" fill-opacity="1.000000" fill-rule="nonzero"/>
		<path id="path" d="M17.19 35.55C16.58 36.66 15.28 36.16 11.17 36.49C7.89 36.76 7.24 36.94 6 36.49C4.21 35.84 3.17 34.46 2.56 33.66C1.29 31.99 -0.35 28.84 0.15 27.11C2.72 29.4 5.12 30.29 7.29 30.35C7.55 30.35 7.64 30.35 7.8 30.34C7.88 30.34 7.99 30.34 8.16 30.35C9.25 30.39 11.47 30.61 15.91 33.18C16.34 33.43 16.83 33.72 17.35 34.05C17.4 34.29 17.41 34.52 17.4 34.73C17.38 35.03 17.32 35.31 17.19 35.55Z" stroke="#553900" stroke-opacity="1.000000" stroke-width="1.000000" stroke-linejoin="round"/>
		<path id="path" d="M17.62 27.5C15.99 28 14.79 29.43 14.18 30.16C12.82 31.77 12.94 32.66 11.6 34.59C10.79 35.76 10.66 35.48 10.17 36.22C9.84 36.72 8.83 38.41 9.01 42.64C9.18 46.58 10.11 46.25 9.87 48.77C9.64 51.14 8.62 53.86 8.15 54.97C7.8 55.79 7.44 56.49 7.29 57.63C7.18 58.4 6.86 60.73 8.15 62.06C9.07 63.02 10.38 62.99 12.45 62.95C15.17 62.89 17.19 62.21 17.62 62.06C22.03 60.53 24.67 57.58 25.37 56.75C25.96 56.04 27.69 53.88 28.81 50.54C30.09 46.71 29.83 43.5 29.67 41.68C29.42 38.9 29.14 35.82 27.09 32.81C25.11 29.93 21.06 26.44 17.62 27.5Z" fill="#964A28" fill-opacity="1.000000" fill-rule="nonzero"/>
		<path id="path" d="M14.18 30.16C12.82 31.77 12.94 32.66 11.6 34.59C10.79 35.76 10.66 35.48 10.17 36.22C9.84 36.72 8.83 38.41 9.01 42.64C9.18 46.58 10.11 46.25 9.87 48.77C9.64 51.14 8.62 53.86 8.15 54.97C7.8 55.79 7.44 56.49 7.29 57.63C7.18 58.4 6.86 60.73 8.15 62.06C9.07 63.02 10.38 62.99 12.45 62.95C15.17 62.89 17.19 62.21 17.62 62.06C22.03 60.53 24.67 57.58 25.37 56.75C25.96 56.04 27.69 53.88 28.81 50.54C30.09 46.71 29.83 43.5 29.67 41.68C29.42 38.9 29.14 35.82 27.09 32.81C25.11 29.93 21.06 26.44 17.62 27.5C15.99 28 14.79 29.43 14.18 30.16Z" stroke="#553900" stroke-opacity="1.000000" stroke-width="1.000000"/>
		<path id="path" d="M20.2 27.51C18.54 27.37 17.23 28.17 16.76 28.46C15.68 29.13 15.12 29.92 14.18 31.29C12.52 33.7 11.51 35.16 11.6 36.96C11.68 38.62 12.57 38.62 13.32 40.75C14.37 43.74 13.94 47.53 12.46 50.2C11.26 52.36 9.58 53.4 9.88 53.98C10.1 54.4 11.02 53.91 12.46 53.98C15.46 54.12 16.88 56.43 17.63 55.87C18.42 55.29 16.74 52.81 16.77 49.25C16.81 45.1 19.15 41.67 21.08 38.85C23.8 34.86 25.54 34.25 25.38 32.24C25.19 29.94 22.67 27.72 20.2 27.51Z" fill="#FDFBEE" fill-opacity="1.000000" fill-rule="nonzero"/>
		<path id="path" d="M6.87 61.08C6.91 61.85 7.79 62.45 8.57 62.97C9.05 63.29 10.26 63.99 12.89 63.91C15.55 63.83 17.89 63.75 18.79 62.02C19.5 60.63 19.15 58.44 18.05 57.3C15.17 54.29 6.74 58.7 6.87 61.08Z" fill="#D9A387" fill-opacity="1.000000" fill-rule="nonzero"/>
		<path id="path" d="M5.57 60.6C5.83 61.75 7.57 62.54 9.02 62.49C10.61 62.45 10.91 61.45 12.46 61.55C13.69 61.63 13.86 62.3 15.04 62.49C16.59 62.75 18.62 62.04 19.35 60.6C20.65 58.01 17.6 53.21 15.04 53.04C13.74 52.96 13.33 54.14 11.6 53.99C9.92 53.84 9.37 52.66 8.15 53.04C7.3 53.31 6.68 54.18 6.43 54.93C6.09 55.98 6.61 56.35 6.43 57.77C6.21 59.45 5.37 59.73 5.57 60.6Z" fill="#B3684B" fill-opacity="1.000000" fill-rule="nonzero"/>
		<path id="path" d="M13.75 57.3C15.41 55.47 15.47 55.4 15.47 55.4C15.47 55.4 17.12 55.76 17.19 56.35C17.25 56.79 16.44 57.24 16.34 57.3C15.31 57.86 14.19 57.48 13.75 57.3Z" fill="#85372D" fill-opacity="1.000000" fill-rule="nonzero"/>
		<path id="path" d="M10.37 56.77C8.71 54.95 8.65 54.88 8.65 54.88C8.65 54.88 7 55.24 6.93 55.83C6.87 56.27 7.68 56.72 7.78 56.77C8.81 57.34 9.93 56.96 10.37 56.77Z" fill="#85372D" fill-opacity="1.000000" fill-rule="nonzero"/>
		<ellipse id="ellipse" cx="22.360779" cy="44.059082" rx="1.722600" ry="1.890600" fill="#DB8245" fill-opacity="1.000000"/>
		<ellipse id="ellipse" cx="22.360779" cy="44.059082" rx="1.722600" ry="1.890600" stroke="#351F00" stroke-opacity="1.000000" stroke-width="0.250000"/>
		<ellipse id="ellipse" rx="1.313656" ry="1.465635" transform="matrix(0.997284 -0.0736493 0.0683988 0.997672 22.1012 44.5044)" fill="#000000" fill-opacity="1.000000"/>
		<ellipse id="ellipse" cx="11.549988" cy="43.113770" rx="1.722600" ry="1.890599" fill="#DB8245" fill-opacity="1.000000"/>
		<ellipse id="ellipse" cx="11.549988" cy="43.113770" rx="1.722600" ry="1.890599" stroke="#351F00" stroke-opacity="1.000000" stroke-width="0.250000"/>
		<ellipse id="ellipse" rx="1.313655" ry="1.465636" transform="matrix(0.997284 -0.0736493 0.0683985 0.997672 11.2926 43.563)" fill="#000000" fill-opacity="1.000000"/>
		<ellipse id="ellipse" cx="22.796448" cy="43.586426" rx="0.429001" ry="0.472649" fill="#FFFFFF" fill-opacity="1.000000"/>
		<ellipse id="ellipse" cx="11.602844" cy="42.641113" rx="0.429000" ry="0.472649" fill="#FFFFFF" fill-opacity="1.000000"/>
		<path id="path" d="M25.8 35.55C27.15 35.57 28.22 33.09 28.38 32.71C28.92 31.47 28.83 31.2 29.24 30.82C30.74 29.45 34.27 32.04 34.41 31.77C34.55 31.47 30.74 27.72 28.38 28.93C27.5 29.38 27.61 30.04 25.8 31.77C24.71 32.81 24.12 33.01 24.08 33.66C24.03 34.51 24.94 35.53 25.8 35.55Z" fill="#38180D" fill-opacity="1.000000" fill-rule="nonzero"/>
		<path id="path" d="M25.37 35.07C25.44 35.83 26.65 36.42 27.52 36.49C28.06 36.54 28.6 36.36 29.68 36.02C30.37 35.8 30.88 35.59 30.97 35.55C33.46 34.49 34.78 33.94 34.84 33.18C34.96 31.85 31.23 29.65 29.25 30.82C28.86 31.05 28.92 31.16 27.95 32.24C26.23 34.17 25.31 34.39 25.37 35.07Z" fill="#77381F" fill-opacity="1.000000" fill-rule="nonzero"/>
		<path id="path" d="M27.52 36.49C28.06 36.54 28.6 36.36 29.68 36.02C30.37 35.8 30.88 35.59 30.97 35.55C33.46 34.49 34.78 33.94 34.84 33.18C34.96 31.85 31.23 29.65 29.25 30.82C28.86 31.05 28.92 31.16 27.95 32.24C26.23 34.17 25.31 34.39 25.37 35.07C25.44 35.83 26.65 36.42 27.52 36.49Z" stroke="#553900" stroke-opacity="1.000000" stroke-width="1.000000" stroke-linejoin="round"/>
		<path id="path" d="M89.35 59.77C88.9 60.67 88.26 60.35 85.64 62.22C85.11 62.6 83.23 63.95 81.93 65.48C78.81 69.18 80.14 72.69 78.22 73.63C75.86 74.78 71.4 70.58 69.33 66.3C68.47 64.52 67.64 62.8 67.84 60.6C68.31 55.65 73.45 54.21 73.04 50.82C72.73 48.31 69.75 48.16 69.33 45.12C68.93 42.29 71.15 39.86 71.55 39.42C74.34 36.36 79.42 35.52 81.93 37.79C84.01 39.67 82.48 42 84.16 47.57C86.25 54.51 90.57 57.36 89.35 59.77Z" fill="#964A28" fill-opacity="1.000000" fill-rule="nonzero"/>
		<path id="path" d="M118.27 68.73C116.93 68.96 115.83 65.13 113.83 65.47C112.8 65.65 111.91 66.86 111.6 67.92C111.34 68.81 111.58 69.26 111.6 70.37C111.63 71.75 111.32 74.21 110.12 75.25C108.21 76.9 104.49 74.63 104.18 74.43C100.66 72.22 99.45 68 98.99 66.29C97.75 61.73 99.19 60.6 98.25 56.51C97.27 52.24 95.23 51.53 92.32 46.74C89.97 42.88 88.16 38.2 87.52 34.81C90.53 34.98 93.22 34.98 95.87 35.02L96.01 35.02C96.9 35.61 97.88 36.26 98.99 36.96C104.52 40.53 105.11 40.53 109.37 43.48C114.94 47.34 117.72 49.27 119.01 51.62C122.81 58.56 120.32 68.39 118.27 68.73Z" fill="#964A28" fill-opacity="1.000000" fill-rule="nonzero"/>
		<g opacity="0.500000">
			<path id="path" d="M129.36 101.38C129.22 101.36 129.6 99.94 129.36 97.95C128.94 94.59 127.14 92.81 126.72 89.73C126.68 89.45 126.58 88.67 126.72 87.68C126.83 86.83 127.14 85.6 127.38 85.62C127.72 85.65 127.1 88.41 128.03 91.79C128.8 94.54 129.82 94.88 130.02 97.27C130.19 99.45 129.51 101.4 129.36 101.38Z" fill="#6B574C" fill-opacity="1.000000" fill-rule="nonzero"/>
		</g>
		<g opacity="0.500000">
			<path id="path" d="M131.04 97.94C130.9 97.92 131.28 97.07 131.04 95.85C130.62 93.81 128.83 92.72 128.4 90.85C128.36 90.68 128.26 90.21 128.4 89.61C128.52 89.09 128.83 88.35 129.06 88.36C129.4 88.38 128.78 90.06 129.72 92.11C130.48 93.78 131.51 93.99 131.7 95.44C131.88 96.77 131.2 97.95 131.04 97.94Z" fill="#6B574C" fill-opacity="1.000000" fill-rule="nonzero"/>
		</g>
	</g>
</svg>
