<svg width="200" height="200" viewBox="0 0 200 200" fill="none" xmlns="http://www.w3.org/2000/svg">
<path d="M18.6 108.63L132.45 118.91L178.26 89.42L69.71 81.03L18.6 108.63Z" fill="#474C5B" stroke="black" stroke-miterlimit="10"/>
<path d="M131.72 183.57L178.8 154.65V88.92L133.06 119.15L131.72 183.57Z" fill="#D07E2C" stroke="#42210B" stroke-miterlimit="10"/>
<path d="M19.94 169.11L131.72 183.57L132.93 119.15L18.6 108.63L19.94 169.11Z" fill="#D07E2C" stroke="#42210B" stroke-miterlimit="10"/>
<path d="M178.66 88.92L85.61 61.88C84.74 64.89 83.39 67.86 81.59 70.69C78.93 74.84 75.52 78.24 71.68 80.77L28.89 45.97C29.68 44.01 30.65 42.09 31.86 40.23C38.85 29.33 50.97 23.68 62.35 24.9L62.98 24.51L167.89 33.71L178.65 88.92H178.66Z" fill="#D07E2C" stroke="#42210B" stroke-miterlimit="10"/>
<path d="M187.68 79.33C185.02 83.48 181.61 86.88 177.78 89.41L134.99 54.61C135.77 52.65 136.75 50.73 137.95 48.87C147.39 34.15 166.18 29.01 179.92 37.42C193.65 45.83 197.12 64.59 187.68 79.33Z" fill="#D07E2C" stroke="#42210B" stroke-miterlimit="10"/>
<path d="M72.78 25.81C59.7 24.77 46.69 33.34 41.86 47.1C41.66 47.66 41.48 48.23 41.33 48.78L30.69 46.85C31.47 44.94 33.08 42.22 34.27 40.41C41.1 29.8 52.95 24.29 64.07 25.48L72.77 25.81H72.78Z" fill="#CEDDDD" stroke="#B3B3B3" stroke-miterlimit="10"/>
<path d="M137.96 48.83C136.79 50.65 135.83 52.52 135.07 54.42L145.66 63.01C145.34 64.42 144.91 65.83 144.37 67.22L128.68 54.52L122.16 53.42C122.88 51.61 125.6 47.14 126.7 45.41C126.95 45.03 127.2 44.65 127.46 44.28C130.15 40.46 133.55 37.41 137.33 35.2C139.7 33.82 142.22 32.77 144.81 32.09H144.88L163.45 33.72C163.45 33.72 163.5 33.75 163.53 33.76C159.59 33.93 155.63 34.9 151.94 36.62C148.77 38.07 145.8 40.06 143.16 42.56C141.21 44.39 139.47 46.49 137.95 48.83H137.96Z" fill="#CEDDDD" stroke="#B3B3B3" stroke-miterlimit="10"/>
<path d="M106.15 44.95C105.12 46.77 104.3 48.64 103.63 50.54L111.71 58.09C111.2 60.82 110.35 63.53 109.17 66.16L98.18 55.88L89.89 52.11C90.56 50.2 92.6 45.49 93.63 43.67C94.2 42.66 94.8 41.69 95.45 40.76C98.2 36.8 101.6 33.74 105.32 31.68C107.21 30.62 109.18 29.82 111.2 29.31L114.18 29.6L123.77 30.57C121.74 31.08 119.75 31.89 117.85 32.95C115.01 34.52 112.36 36.69 110.03 39.38C108.59 41.03 107.3 42.89 106.16 44.94L106.15 44.95Z" fill="#CEDDDD" stroke="#B3B3B3" stroke-miterlimit="10"/>
<path d="M97.48 63.41L92.28 61.49L82.01 57.82H82L67.03 49.48C67.64 47.57 70.77 41.01 71.7 39.19C74.76 33.11 79.1 28.7 83.9 26.29C84 26.23 84.11 26.17 84.21 26.14H84.22L95.56 27.39C94.06 28.12 92.6 29.04 91.21 30.14C88.02 32.66 85.19 36.14 83.01 40.47C82.08 42.29 79.74 48.89 79.14 50.79L97.49 63.41H97.48Z" fill="#CEDDDD" stroke="#B3B3B3" stroke-miterlimit="10"/>
<path d="M177.99 89.57L177.58 89.55L140.77 86.86L68.23 81.59L29.36 46.85L133.98 53.79L135 54.62L177.78 89.42L177.99 89.57Z" fill="#474C5B" stroke="black" stroke-linecap="round" stroke-linejoin="round"/>
<path d="M34.56 172.39L20.22 170.54L18.88 110.07L33.98 111.46L34.06 120.78L34.41 156.96L34.56 172.39Z" fill="#CEDDDD" stroke="#B3B3B3" stroke-miterlimit="10"/>
<path d="M133.21 120.58L133.02 130.46L132.31 168.51L132 185L116.75 183.03L116.58 166.65L116.22 128.81L116.13 119.02L133.21 120.58Z" fill="#CEDDDD" stroke="#B3B3B3" stroke-miterlimit="10"/>
<path d="M93.25 119.89L93.13 128.73L92.68 162.79L92.49 177.54L82.94 175.77L82.84 161.12L82.62 127.26L82.56 118.49L93.25 119.89Z" fill="#CEDDDD" stroke="#B3B3B3" stroke-miterlimit="10"/>
<path d="M70.89 116.42L70.77 125.26L70.32 159.31L70.13 174.07L60.59 172.3L60.48 157.64L60.26 123.78L60.2 115.02L70.89 116.42Z" fill="#CEDDDD" stroke="#B3B3B3" stroke-miterlimit="10"/>
<path d="M132.55 120.58L132.29 134.39L115.8 132.78L33.18 124.7L18.52 123.27L18.22 110.07L32.91 111.42L115.8 119.05L132.55 120.58Z" fill="#CEDDDD" stroke="#B3B3B3" stroke-miterlimit="10"/>
<path d="M131.58 172.43V172.45L131.34 185L115.8 182.99L34.17 172.43L19.57 170.54L19.31 159.21L33.94 160.93L115.8 170.58L131.58 172.43Z" fill="#CEDDDD" stroke="#B3B3B3" stroke-miterlimit="10"/>
<path d="M141.94 114.47V178.44L132.93 184.22L134.21 119.81L141.94 114.47Z" fill="#CEDDDD" stroke="#B3B3B3" stroke-miterlimit="10"/>
<path d="M179.33 89.57V155.3L170.47 161L171.39 95.07L179.33 89.57Z" fill="#CEDDDD" stroke="#B3B3B3" stroke-miterlimit="10"/>
<path d="M180 89.43V104.39L133.98 133.89L134.27 119.66L180 89.43Z" fill="#CEDDDD" stroke="#B3B3B3" stroke-miterlimit="10"/>
<path d="M180 144.02V155.16L132.93 184.08L133.21 170.79L180 144.02Z" fill="#CEDDDD" stroke="#B3B3B3" stroke-miterlimit="10"/>
<path d="M21.29 113.89C21.38 112.78 61.58 114.66 101.99 119.15C106.22 119.62 130.31 122.29 130.24 123.09C130.16 123.95 102.49 122.39 79.13 120.46C55.08 118.47 21.21 114.91 21.29 113.89Z" fill="#FEFEFE"/>
<path d="M20.66 163.33C20.79 162.23 60.91 165.3 101.16 170.99C105.37 171.59 129.37 174.98 129.27 175.77C129.17 176.62 101.56 174.24 78.26 171.62C54.29 168.92 20.54 164.34 20.65 163.33H20.66Z" fill="#FEFEFE"/>
<path d="M137.7 121.7C137.26 121.14 151.9 110.4 167.72 100.86C169.38 99.86 178.81 94.17 179.12 94.58C179.46 95.02 169.27 102.28 160.4 108.12C151.28 114.13 138.09 122.22 137.69 121.7H137.7Z" fill="#FEFEFE"/>
<path d="M136.14 173.85C135.73 173.27 150.84 163.18 167.09 154.34C168.79 153.41 178.47 148.15 178.77 148.57C179.09 149.02 168.58 155.83 159.45 161.28C150.06 166.88 136.52 174.39 136.14 173.85Z" fill="#FEFEFE"/>
<path d="M25.99 132.96C27.4756 132.96 28.68 131.783 28.68 130.33C28.68 128.878 27.4756 127.7 25.99 127.7C24.5044 127.7 23.3 128.878 23.3 130.33C23.3 131.783 24.5044 132.96 25.99 132.96Z" fill="#73BCBA" stroke="#1B1464" stroke-width="0.25" stroke-miterlimit="10"/>
<path d="M25.99 144.79C27.4756 144.79 28.68 143.613 28.68 142.16C28.68 140.707 27.4756 139.53 25.99 139.53C24.5044 139.53 23.3 140.707 23.3 142.16C23.3 143.613 24.5044 144.79 25.99 144.79Z" fill="#73BCBA" stroke="#1B1464" stroke-width="0.25" stroke-miterlimit="10"/>
<path d="M25.99 156.62C27.4756 156.62 28.68 155.443 28.68 153.99C28.68 152.538 27.4756 151.36 25.99 151.36C24.5044 151.36 23.3 152.538 23.3 153.99C23.3 155.443 24.5044 156.62 25.99 156.62Z" fill="#73BCBA" stroke="#1B1464" stroke-width="0.25" stroke-miterlimit="10"/>
<path d="M124.18 142.16C125.666 142.16 126.87 140.983 126.87 139.53C126.87 138.077 125.666 136.9 124.18 136.9C122.694 136.9 121.49 138.077 121.49 139.53C121.49 140.983 122.694 142.16 124.18 142.16Z" fill="#73BCBA" stroke="#1B1464" stroke-width="0.25" stroke-miterlimit="10"/>
<path d="M124.18 153.99C125.666 153.99 126.87 152.813 126.87 151.36C126.87 149.908 125.666 148.73 124.18 148.73C122.694 148.73 121.49 149.908 121.49 151.36C121.49 152.813 122.694 153.99 124.18 153.99Z" fill="#73BCBA" stroke="#1B1464" stroke-width="0.25" stroke-miterlimit="10"/>
<path d="M124.18 165.82C125.666 165.82 126.87 164.643 126.87 163.19C126.87 161.737 125.666 160.56 124.18 160.56C122.694 160.56 121.49 161.737 121.49 163.19C121.49 164.643 122.694 165.82 124.18 165.82Z" fill="#73BCBA" stroke="#1B1464" stroke-width="0.25" stroke-miterlimit="10"/>
<path d="M137.13 139.75C138.152 139.75 138.98 138.573 138.98 137.12C138.98 135.668 138.152 134.49 137.13 134.49C136.108 134.49 135.28 135.668 135.28 137.12C135.28 138.573 136.108 139.75 137.13 139.75Z" fill="#73BCBA" stroke="#1B1464" stroke-width="0.25" stroke-miterlimit="10"/>
<path d="M137.13 151.58C138.152 151.58 138.98 150.403 138.98 148.95C138.98 147.497 138.152 146.32 137.13 146.32C136.108 146.32 135.28 147.497 135.28 148.95C135.28 150.403 136.108 151.58 137.13 151.58Z" fill="#73BCBA" stroke="#1B1464" stroke-width="0.25" stroke-miterlimit="10"/>
<path d="M137.13 163.42C138.152 163.42 138.98 162.243 138.98 160.79C138.98 159.338 138.152 158.16 137.13 158.16C136.108 158.16 135.28 159.338 135.28 160.79C135.28 162.243 136.108 163.42 137.13 163.42Z" fill="#73BCBA" stroke="#1B1464" stroke-width="0.25" stroke-miterlimit="10"/>
<path d="M175.64 116.09C176.662 116.09 177.49 114.913 177.49 113.46C177.49 112.008 176.662 110.83 175.64 110.83C174.618 110.83 173.79 112.008 173.79 113.46C173.79 114.913 174.618 116.09 175.64 116.09Z" fill="#73BCBA" stroke="#1B1464" stroke-width="0.25" stroke-miterlimit="10"/>
<path d="M175.64 127.92C176.662 127.92 177.49 126.743 177.49 125.29C177.49 123.837 176.662 122.66 175.64 122.66C174.618 122.66 173.79 123.837 173.79 125.29C173.79 126.743 174.618 127.92 175.64 127.92Z" fill="#73BCBA" stroke="#1B1464" stroke-width="0.25" stroke-miterlimit="10"/>
<path d="M175.64 139.75C176.662 139.75 177.49 138.573 177.49 137.12C177.49 135.668 176.662 134.49 175.64 134.49C174.618 134.49 173.79 135.668 173.79 137.12C173.79 138.573 174.618 139.75 175.64 139.75Z" fill="#73BCBA" stroke="#1B1464" stroke-width="0.25" stroke-miterlimit="10"/>
<path d="M134.215 49.1601C134.509 48.2045 133.6 47.0775 132.185 46.6428C130.77 46.208 129.385 46.6303 129.091 47.5858C128.798 48.5414 129.707 49.6684 131.122 50.1031C132.536 50.5378 133.921 50.1156 134.215 49.1601Z" fill="#73BCBA" stroke="#1B1464" stroke-width="0.25" stroke-miterlimit="10"/>
<path d="M142.145 40.5222C142.439 39.5667 141.53 38.4396 140.115 38.0049C138.7 37.5702 137.315 37.9924 137.022 38.9479C136.728 39.9035 137.637 41.0305 139.052 41.4652C140.467 41.9 141.852 41.4777 142.145 40.5222Z" fill="#73BCBA" stroke="#1B1464" stroke-width="0.25" stroke-miterlimit="10"/>
<path d="M151.564 35.2528C151.857 34.2972 150.948 33.1702 149.534 32.7355C148.119 32.3007 146.734 32.7229 146.44 33.6785C146.147 34.634 147.056 35.7611 148.47 36.1958C149.885 36.6305 151.27 36.2083 151.564 35.2528Z" fill="#73BCBA" stroke="#1B1464" stroke-width="0.25" stroke-miterlimit="10"/>
<path d="M42.0117 42.2024C42.3053 41.2469 41.3964 40.1198 39.9815 39.6851C38.5667 39.2504 37.1817 39.6726 36.8881 40.6281C36.5945 41.5837 37.5035 42.7107 38.9183 43.1454C40.3332 43.5802 41.7181 43.1579 42.0117 42.2024Z" fill="#73BCBA" stroke="#1B1464" stroke-width="0.25" stroke-miterlimit="10"/>
<path d="M48.5954 33.565C48.889 32.6094 47.98 31.4824 46.5652 31.0477C45.1503 30.613 43.7654 31.0352 43.4718 31.9907C43.1782 32.9463 44.0871 34.0733 45.502 34.508C46.9168 34.9427 48.3018 34.5205 48.5954 33.565Z" fill="#73BCBA" stroke="#1B1464" stroke-width="0.25" stroke-miterlimit="10"/>
<path d="M58.7405 27.721C58.9744 26.9667 58.1805 26.0502 56.9673 25.6739C55.754 25.2977 54.5809 25.6042 54.3469 26.3585C54.113 27.1128 54.9069 28.0293 56.1201 28.4056C57.3334 28.7818 58.5066 28.4754 58.7405 27.721Z" fill="#73BCBA" stroke="#1B1464" stroke-width="0.25" stroke-miterlimit="10"/>
<path d="M140.53 44.01C139.44 45.25 138.45 46.57 137.54 47.98C136.49 49.61 135.62 51.28 134.89 52.99C94.47 50.44 52.07 47.6 29.71 46.08L28.47 45.08C29.26 43.12 30.23 41.2 31.44 39.34C31.76 38.84 32.1 38.34 32.44 37.87L140.53 44.02V44.01Z" fill="#CEDDDD" stroke="#B3B3B3" stroke-miterlimit="10"/>
<path d="M35.06 42.05C35.11 41.01 71.93 41.67 109.01 44.78C112.89 45.11 135 46.96 134.96 47.71C134.91 48.52 109.57 47.82 88.14 46.64C66.09 45.43 35.01 43.01 35.06 42.05Z" fill="#FEFEFE"/>
<path d="M85.86 35.87C85.1 36.39 84.45 37.08 83.95 37.9L75.09 52.64C73.22 55.75 71.32 60.24 74.51 62.07C77.7 63.89 81.84 62.84 83.71 59.73L92.57 44.99C94.44 41.88 96.34 37.39 93.15 35.56C90.8 34.22 87.96 34.42 85.85 35.87H85.86ZM82.73 51.17C83.97 51.97 83.66 54.56 82.04 56.95C80.41 59.34 78.09 60.62 76.85 59.81C75.61 59.01 75.94 56.42 77.56 54.03C79.18 51.64 81.5 50.36 82.73 51.16V51.17Z" fill="#CEDDDD" stroke="#B3B3B3" stroke-miterlimit="10"/>
<path d="M91.5972 39.9299C91.8908 38.9743 90.9818 37.8473 89.567 37.4126C88.1522 36.9779 86.7672 37.4001 86.4736 38.3556C86.18 39.3112 87.0889 40.4382 88.5038 40.8729C89.9186 41.3076 91.3036 40.8854 91.5972 39.9299Z" fill="#73BCBA" stroke="#1B1464" stroke-width="0.25" stroke-miterlimit="10"/>
<path d="M87.5734 46.5047C87.867 45.5492 86.958 44.4222 85.5432 43.9874C84.1283 43.5527 82.7434 43.9749 82.4498 44.9305C82.1562 45.886 83.0651 47.0131 84.4799 47.4478C85.8948 47.8825 87.2798 47.4603 87.5734 46.5047Z" fill="#73BCBA" stroke="#1B1464" stroke-width="0.25" stroke-miterlimit="10"/>
<path d="M87.82 137.86C86.86 136.87 85.64 135.98 84.17 135.23C84.26 130.09 80.27 125.58 74.86 124.7C74.24 124.6 73.62 124.55 73 124.55C67.6 124.55 63.07 128.2 62.23 133.22C62.07 134.18 62.05 134.95 62.16 135.58C61.51 135.95 60.91 136.35 60.37 136.78C58.48 135.62 57.85 133.83 58.32 130.98C59.32 124.97 65.32 120.61 72.59 120.61C73.56 120.61 74.53 120.69 75.5 120.84C79.98 121.56 83.93 123.88 86.33 127.21C88.21 129.82 88.97 132.87 88.48 135.81C88.34 136.62 88.13 137.29 87.82 137.85V137.86Z" fill="#B3B3B3"/>
<path d="M72.6 120.74C73.56 120.74 74.53 120.82 75.49 120.97C79.94 121.68 83.86 123.98 86.23 127.29C88.09 129.87 88.84 132.89 88.36 135.79C88.24 136.51 88.05 137.12 87.79 137.64C86.86 136.7 85.68 135.86 84.3 135.15C84.35 129.98 80.33 125.45 74.89 124.57C74.27 124.47 73.63 124.42 73.01 124.42C67.55 124.42 62.97 128.11 62.12 133.2C61.96 134.13 61.94 134.89 62.04 135.51C61.44 135.85 60.89 136.23 60.38 136.62C58.6 135.49 58.01 133.75 58.47 131C59.46 125.05 65.41 120.73 72.62 120.73M72.62 120.48C65.42 120.48 59.26 124.78 58.23 130.96C57.71 134.09 58.56 135.83 60.41 136.93C60.99 136.46 61.63 136.03 62.33 135.64C62.2 135.03 62.21 134.25 62.38 133.24C63.22 128.22 67.8 124.67 73.03 124.67C73.64 124.67 74.25 124.72 74.87 124.82C80.32 125.7 84.2 130.23 84.07 135.3C85.59 136.07 86.89 137.01 87.87 138.06C88.23 137.45 88.48 136.71 88.63 135.83C89.8 128.83 83.95 122.06 75.55 120.72C74.56 120.56 73.58 120.48 72.62 120.48Z" fill="#666666"/>
<path d="M54.48 148.73C54.47 148.82 54.45 148.9 54.44 148.99C54.44 148.94 54.45 148.9 54.46 148.85L54.48 148.73Z" fill="white"/>
<path d="M54.48 148.73L54.46 148.85C54.46 148.85 54.44 148.94 54.44 148.99C54.45 148.91 54.46 148.82 54.48 148.73Z" fill="black"/>
<path d="M85.61 153.71L85.59 153.83C85.59 153.83 85.57 153.92 85.56 153.97C85.58 153.89 85.59 153.8 85.61 153.71Z" fill="white"/>
<path d="M85.61 153.71C85.6 153.8 85.58 153.88 85.56 153.97C85.57 153.92 85.58 153.88 85.59 153.83L85.61 153.71Z" fill="black"/>
<path d="M80.54 123.14C81.27 123.46 84.99 125.15 86.55 129.31C87.99 133.14 86.75 136.76 86.56 136.75C86.4 136.75 86.9 134.07 86.02 130.96C85.02 127.44 82.69 124.89 80.54 123.14Z" fill="#757F7F"/>
<path d="M73.46 165.12C68.64 165.12 64.92 163.29 63.53 160.22C63.51 160.17 63.48 160.13 63.47 160.08L63.37 159.84L58.78 147.83C58.23 146.38 58.97 144.73 60.44 144.16L84.26 134.86C84.59 134.73 84.94 134.66 85.3 134.66C86.46 134.66 87.51 135.38 87.92 136.45L92.51 148.46L92.59 148.69C92.61 148.76 92.63 148.8 92.64 148.85C94.25 154.02 89.37 160.46 81.52 163.53C78.86 164.57 76.07 165.12 73.47 165.12H73.46Z" fill="#B3B3B3"/>
<path d="M85.29 134.79C86.4 134.79 87.41 135.48 87.8 136.5L92.39 148.51C92.42 148.59 92.45 148.67 92.48 148.76C92.5 148.8 92.51 148.85 92.52 148.9C94.11 154 89.26 160.38 81.47 163.42C78.82 164.45 76.05 165 73.46 165C68.69 165 65.02 163.2 63.64 160.17C63.62 160.13 63.6 160.09 63.58 160.04C63.55 159.96 63.52 159.88 63.48 159.8L58.89 147.79C58.36 146.4 59.07 144.83 60.47 144.28L84.29 134.98C84.61 134.86 84.94 134.79 85.28 134.79M85.28 134.54C84.92 134.54 84.55 134.61 84.2 134.74L60.38 144.04C58.85 144.64 58.08 146.36 58.65 147.87L63.24 159.88C63.27 159.96 63.31 160.04 63.34 160.12C63.36 160.17 63.38 160.22 63.41 160.27C64.87 163.48 68.75 165.24 73.46 165.24C76 165.24 78.79 164.72 81.56 163.64C89.47 160.55 94.37 154 92.76 148.81C92.75 148.76 92.73 148.71 92.71 148.66C92.68 148.58 92.65 148.5 92.62 148.41L88.03 136.4C87.59 135.24 86.47 134.53 85.29 134.53L85.28 134.54Z" fill="#666666"/>
<path d="M77.17 158.04C76.47 158.04 75.9 157.48 75.86 156.77L75.52 150.02L75.43 150C74.62 149.79 73.96 149.19 73.66 148.39C73.14 147.04 73.8 145.52 75.11 145C75.4 144.89 75.71 144.83 76.02 144.83C77.08 144.83 78.05 145.51 78.44 146.52C78.75 147.34 78.65 148.25 78.16 148.96L78.11 149.04L82.19 154.33C82.45 154.67 82.54 155.1 82.42 155.52C82.31 155.92 82.03 156.24 81.65 156.39L77.63 157.96C77.48 158.02 77.33 158.05 77.17 158.05V158.04Z" fill="black"/>
<path d="M76.03 144.96C77.04 144.96 77.96 145.61 78.33 146.57C78.63 147.35 78.53 148.22 78.07 148.9L77.97 149.05L78.08 149.19L82.1 154.41C82.34 154.72 82.41 155.11 82.31 155.49C82.21 155.85 81.95 156.14 81.61 156.27L77.59 157.84C77.46 157.89 77.32 157.92 77.18 157.92C76.55 157.92 76.03 157.41 76 156.77L75.67 150.11V149.93L75.48 149.88C74.71 149.68 74.08 149.11 73.8 148.35C73.31 147.06 73.93 145.61 75.18 145.12C75.46 145.01 75.75 144.96 76.05 144.96M76.05 144.71C75.73 144.71 75.41 144.77 75.09 144.89C73.71 145.43 73.02 147.02 73.56 148.44C73.89 149.3 74.6 149.91 75.41 150.12L75.74 156.78C75.78 157.59 76.44 158.17 77.17 158.17C77.34 158.17 77.51 158.14 77.68 158.07L81.7 156.5C82.59 156.15 82.89 155.02 82.3 154.25L78.28 149.03C78.77 148.31 78.91 147.36 78.57 146.47C78.15 145.37 77.12 144.7 76.04 144.7L76.05 144.71Z" fill="black"/>
<path d="M62.88 149.67C62.27 149.67 61.73 149.3 61.52 148.74C61.23 147.98 61.62 147.13 62.38 146.83C62.56 146.76 62.74 146.73 62.93 146.73C63.54 146.73 64.08 147.1 64.29 147.66C64.58 148.42 64.19 149.27 63.43 149.57C63.25 149.64 63.07 149.67 62.88 149.67Z" fill="#757F7F"/>
<path d="M62.93 146.84C63.49 146.84 63.98 147.17 64.18 147.69C64.44 148.38 64.09 149.17 63.39 149.44C63.23 149.5 63.06 149.53 62.89 149.53C62.33 149.53 61.84 149.2 61.64 148.68C61.38 147.99 61.73 147.2 62.43 146.93C62.59 146.87 62.76 146.84 62.93 146.84ZM62.93 146.59C62.73 146.59 62.53 146.63 62.34 146.7C61.51 147.02 61.09 147.95 61.4 148.77C61.64 149.4 62.24 149.78 62.88 149.78C63.08 149.78 63.28 149.74 63.47 149.67C64.3 149.35 64.72 148.42 64.41 147.6C64.17 146.97 63.57 146.59 62.93 146.59Z" fill="#666666"/>
<path d="M65.06 155.39C64.45 155.39 63.91 155.02 63.7 154.46C63.41 153.7 63.8 152.85 64.56 152.55C64.74 152.48 64.92 152.45 65.1 152.45C65.71 152.45 66.25 152.82 66.46 153.38C66.75 154.14 66.36 154.99 65.6 155.29C65.42 155.36 65.24 155.39 65.05 155.39H65.06Z" fill="#757F7F"/>
<path d="M65.11 152.56C65.67 152.56 66.16 152.89 66.36 153.41C66.62 154.1 66.27 154.89 65.57 155.16C65.41 155.22 65.24 155.25 65.07 155.25C64.51 155.25 64.02 154.92 63.82 154.4C63.56 153.71 63.91 152.92 64.61 152.65C64.77 152.59 64.94 152.56 65.11 152.56ZM65.11 152.31C64.91 152.31 64.71 152.35 64.52 152.42C63.69 152.74 63.27 153.67 63.58 154.49C63.82 155.12 64.42 155.5 65.06 155.5C65.26 155.5 65.46 155.46 65.65 155.39C66.48 155.07 66.9 154.14 66.59 153.32C66.35 152.69 65.75 152.31 65.11 152.31Z" fill="#666666"/>
<path d="M67.25 161.1C66.64 161.1 66.1 160.73 65.89 160.17C65.6 159.41 65.99 158.56 66.75 158.26C66.93 158.19 67.11 158.16 67.3 158.16C67.91 158.16 68.45 158.53 68.66 159.09C68.95 159.84 68.56 160.7 67.8 161C67.62 161.07 67.44 161.1 67.25 161.1Z" fill="#757F7F"/>
<path d="M67.3 158.28C67.86 158.28 68.35 158.61 68.55 159.13C68.81 159.82 68.46 160.61 67.76 160.88C67.6 160.94 67.43 160.97 67.26 160.97C66.7 160.97 66.21 160.64 66.01 160.12C65.75 159.43 66.1 158.64 66.8 158.37C66.96 158.31 67.13 158.28 67.3 158.28ZM67.3 158.03C67.1 158.03 66.9 158.07 66.71 158.14C65.88 158.46 65.46 159.39 65.77 160.21C66.01 160.84 66.61 161.22 67.25 161.22C67.45 161.22 67.65 161.18 67.84 161.11C68.67 160.79 69.09 159.86 68.78 159.04C68.54 158.41 67.94 158.03 67.3 158.03Z" fill="#666666"/>
<path d="M84.85 141.09C84.24 141.09 83.7 140.72 83.49 140.16C83.2 139.4 83.59 138.55 84.35 138.25C84.53 138.18 84.71 138.15 84.89 138.15C85.5 138.15 86.04 138.52 86.25 139.08C86.54 139.84 86.15 140.69 85.39 140.99C85.21 141.06 85.03 141.09 84.84 141.09H84.85Z" fill="#757F7F"/>
<path d="M84.9 138.27C85.46 138.27 85.95 138.6 86.15 139.12C86.41 139.81 86.06 140.6 85.36 140.87C85.2 140.93 85.03 140.96 84.86 140.96C84.3 140.96 83.81 140.63 83.61 140.11C83.35 139.42 83.7 138.63 84.4 138.36C84.56 138.3 84.73 138.27 84.9 138.27ZM84.9 138.02C84.7 138.02 84.5 138.06 84.31 138.13C83.48 138.45 83.06 139.38 83.37 140.2C83.61 140.83 84.21 141.21 84.85 141.21C85.05 141.21 85.25 141.17 85.44 141.1C86.27 140.78 86.69 139.85 86.38 139.03C86.14 138.4 85.54 138.02 84.9 138.02Z" fill="#666666"/>
<path d="M87.03 146.81C86.42 146.81 85.88 146.44 85.67 145.88C85.38 145.12 85.77 144.27 86.53 143.97C86.71 143.9 86.89 143.87 87.08 143.87C87.69 143.87 88.23 144.24 88.44 144.8C88.73 145.55 88.34 146.41 87.58 146.71C87.4 146.78 87.22 146.81 87.03 146.81Z" fill="#757F7F"/>
<path d="M87.08 143.99C87.64 143.99 88.13 144.32 88.33 144.84C88.59 145.53 88.24 146.32 87.54 146.59C87.38 146.65 87.21 146.68 87.04 146.68C86.48 146.68 85.99 146.35 85.79 145.83C85.53 145.14 85.88 144.35 86.58 144.08C86.74 144.02 86.91 143.99 87.08 143.99ZM87.08 143.74C86.88 143.74 86.68 143.78 86.49 143.85C85.66 144.17 85.24 145.1 85.55 145.92C85.79 146.55 86.39 146.93 87.03 146.93C87.23 146.93 87.43 146.89 87.62 146.82C88.45 146.5 88.87 145.57 88.56 144.75C88.32 144.12 87.72 143.74 87.08 143.74Z" fill="#666666"/>
<path d="M89.22 152.53C88.61 152.53 88.07 152.16 87.86 151.6C87.57 150.84 87.96 149.99 88.72 149.69C88.9 149.62 89.08 149.59 89.27 149.59C89.88 149.59 90.42 149.96 90.63 150.52C90.92 151.28 90.53 152.13 89.77 152.43C89.59 152.5 89.41 152.53 89.22 152.53Z" fill="#757F7F"/>
<path d="M89.26 149.71C89.82 149.71 90.31 150.04 90.51 150.56C90.77 151.25 90.42 152.04 89.72 152.31C89.56 152.37 89.39 152.4 89.22 152.4C88.66 152.4 88.17 152.07 87.97 151.55C87.71 150.86 88.06 150.07 88.76 149.8C88.92 149.74 89.09 149.71 89.26 149.71ZM89.26 149.46C89.06 149.46 88.86 149.5 88.67 149.57C87.84 149.89 87.42 150.82 87.73 151.64C87.97 152.27 88.57 152.65 89.21 152.65C89.41 152.65 89.61 152.61 89.8 152.54C90.63 152.22 91.05 151.29 90.74 150.47C90.5 149.84 89.9 149.46 89.26 149.46Z" fill="#666666"/>
<path d="M75.98 163.99C78.82 163.21 82.54 161.76 85.95 158.78C89.96 155.29 91.84 151.19 92.15 151.36C92.43 151.52 91.31 155.02 88.81 157.92C84.63 162.79 78.52 163.74 75.98 163.98V163.99Z" fill="#757F7F"/>
<path d="M69.77 122.18C68.97 122.2 64.88 122.35 61.79 125.6C58.95 128.59 58.67 132.4 58.85 132.46C59 132.52 59.59 129.86 61.63 127.32C63.94 124.45 67.1 122.98 69.77 122.18Z" fill="#FEFEFE"/>
<path d="M77.0635 122.882C77.551 120.018 76.7589 117.495 75.2943 117.245C73.8297 116.996 72.2473 119.116 71.7598 121.979C71.2723 124.843 72.0645 127.367 73.529 127.616C74.9936 127.866 76.5761 125.746 77.0635 122.882Z" fill="#CEDDDD" stroke="#B3B3B3" stroke-miterlimit="10"/>
<path d="M185.99 81.99C184.09 84.29 181.91 86.28 179.57 87.93C179.54 87.96 179.5 87.98 179.48 88C179.26 88.16 179.05 88.3 178.83 88.45C175.35 85.62 171.53 82.49 167.45 79.14C162.58 75.12 157.32 70.79 151.83 66.23C146.79 62.05 141.53 57.67 136.15 53.19C136.18 53.12 136.2 53.06 136.23 52.99C136.96 51.28 137.83 49.61 138.88 47.98C139.55 46.93 140.28 45.92 141.07 44.96L156.2 57.44L170.87 69.55L185.97 82L185.99 81.99Z" fill="#CEDDDD" stroke="#B3B3B3" stroke-miterlimit="10"/>
<path d="M141.92 52.89C142.35 52.32 156.94 63.13 170.68 75.37C172.12 76.65 180.31 83.95 179.99 84.36C179.65 84.8 169.71 77.22 161.52 70.49C153.1 63.57 141.52 53.4 141.91 52.88L141.92 52.89Z" fill="#FEFEFE"/>
<path d="M94.5 160C132.332 160 163 134.928 163 104C163 73.0721 132.332 48 94.5 48C56.6685 48 26 73.0721 26 104C26 134.928 56.6685 160 94.5 160Z" fill="url(#paint0_radial_382_839)"/>
<path d="M91.43 105L99 56.87V105L122.49 85.03L106.96 106.79L141.43 109L106.83 112.14C106.83 112.14 137.47 126.44 136.45 125.72C135.43 125 93.9 115.66 93.9 115.66L65.3 124.5L86.41 112.64L53.05 98.56L84.43 107.01L77.56 70.17L91.43 105.01V105Z" fill="url(#paint1_radial_382_839)"/>
<path opacity="0.49" d="M91.83 107.47L96 81V107.47L108.92 96.49L100.38 108.46L119.34 109.68L100.31 111.4C100.31 111.4 117.16 119.27 116.6 118.87C116.04 118.47 93.2 113.34 93.2 113.34L77.47 118.2L89.08 111.68L70.73 103.93L87.99 108.58L84.21 88.32L91.84 107.48L91.83 107.47Z" fill="white"/>
<defs>
<radialGradient id="paint0_radial_382_839" cx="0" cy="0" r="1" gradientUnits="userSpaceOnUse" gradientTransform="translate(94.1671 104.087) scale(69.9411 42.2167)">
<stop offset="0.11" stop-color="#FFFF00"/>
<stop offset="0.2" stop-color="#FFFF06" stop-opacity="0.98"/>
<stop offset="0.31" stop-color="#FFFF17" stop-opacity="0.91"/>
<stop offset="0.44" stop-color="#FFFF33" stop-opacity="0.8"/>
<stop offset="0.58" stop-color="#FFFF5B" stop-opacity="0.64"/>
<stop offset="0.73" stop-color="#FFFF8E" stop-opacity="0.44"/>
<stop offset="0.88" stop-color="#FFFFCB" stop-opacity="0.2"/>
<stop offset="1" stop-color="white" stop-opacity="0"/>
</radialGradient>
<radialGradient id="paint1_radial_382_839" cx="0" cy="0" r="1" gradientUnits="userSpaceOnUse" gradientTransform="translate(97.23 91.675) scale(47.58 23.79)">
<stop offset="0.11" stop-color="#FFFF00"/>
<stop offset="0.2" stop-color="#FFFF06" stop-opacity="0.98"/>
<stop offset="0.31" stop-color="#FFFF17" stop-opacity="0.91"/>
<stop offset="0.44" stop-color="#FFFF33" stop-opacity="0.8"/>
<stop offset="0.58" stop-color="#FFFF5B" stop-opacity="0.64"/>
<stop offset="0.73" stop-color="#FFFF8E" stop-opacity="0.44"/>
<stop offset="0.88" stop-color="#FFFFCB" stop-opacity="0.2"/>
<stop offset="1" stop-color="white" stop-opacity="0"/>
</radialGradient>
</defs>
</svg>
