<svg width="200" height="200" viewBox="0 0 200 200" fill="none" xmlns="http://www.w3.org/2000/svg">
<path d="M15.41 154.85C14.89 156.79 14.94 160.25 15.38 162.25C16.22 161.12 17.17 160.06 18 158.98C16.16 162.41 22.44 171.17 24.61 174.15C24.43 171.99 25.4 169.89 26.02 167.87C27.82 172.55 30.09 175.64 32.71 179.86C32.81 177.94 32.58 175.88 32.99 174.07C34.7 177.8 35.86 181.73 39.57 183.82C39.98 182.38 40.11 180.88 40.33 179.4C43.02 180.85 45.13 183.57 48.02 184.63C47.84 183.87 48.24 182.84 48.07 182.05C49.92 182.18 51.11 184.16 52.88 184.67C53.24 183.11 52.99 181.33 53.74 179.96C55.51 181.73 57.53 183.43 59.9 184.24C60.1 183.33 60.99 182.28 61.42 181.46C63.14 182.25 64.25 183.87 65.78 184.87C65.87 184.18 66.68 182.94 66.7 182.11C68.18 183.29 69.52 185.4 71.49 185.44C71.48 184.51 72.1 183.6 72.04 182.69C73.87 184.09 75.97 186.35 78.37 186.63C78.62 185.59 79.25 184.5 79.32 183.38C84.57 185.75 82.52 189.01 87.19 185.01C88.05 186.16 88.7 187.65 89.65 188.84C90.91 188.41 91.48 187.16 92.53 186.44C93.29 187.26 94.17 188.05 95.04 188.67C95.35 187.74 96.3 187.06 96.72 186.5C96.98 187.63 97.63 188.67 98.5 189.18C99.45 187.96 100.09 186.61 101.48 185.84C101.91 186.88 102.94 187.31 103.56 187.84C103.92 186.93 104.6 185.12 105.57 184.7C107.7 183.76 107.55 185.87 109.25 186.43C111.28 187.09 109.72 187.48 111.73 186.49C113.54 185.6 113.51 183.41 115.7 183.03C116.14 183.67 116.97 186.05 117.81 186.28C119.45 186.73 118.67 185.32 120.14 184.79C123.51 183.57 122.14 184.58 125.32 186.56C125.56 185.69 126.36 184.53 126.57 183.59C126.69 184.27 127.13 184.87 127.28 185.49C128.33 184.01 129.05 182.33 130.18 180.88C131.01 181.57 131.73 182.76 132.33 183.62C133.55 182.38 134.81 183.3 135.52 184.6C136.42 183.67 137.34 182.73 138.29 181.87C138.44 182.37 138.96 182.84 139.13 183.38C140.68 183.32 142.17 182.65 143.57 181.97C144.24 187.28 147.94 181.79 148 179.02C149.44 180.31 150.33 182.12 151.57 183.61C152.55 181.49 153.82 178.99 153.17 176.71C154.62 178.4 156.21 180.11 157.38 181.95C159.18 180.29 159.65 177.85 159.94 175.58C160.74 177.78 162.03 179.77 163.13 181.82C164.28 179.49 165.37 177.13 165.43 174.49C167.02 175.81 169.12 179.48 171.53 179.17C175.05 178.71 173.69 170.98 174.29 169.11C174.98 170.36 175.8 171.42 177 172.15C179.49 170.42 178.76 165.42 176.02 163.98C181.2 171.14 181.54 165.3 179.68 160.04C180.57 161.32 181.76 162.35 183.02 163.25C184.8 161.07 183.43 158.13 182.79 155.88C183.16 156 184.34 156.41 184.35 156.41C184.72 156.73 185.1 157.06 185.47 157.4C185.03 156.56 184.6 155.6 184.13 154.83L183.6 153.73C183.05 151.89 183.5 149.66 185.03 148.5C186.56 147.34 189.16 147.72 189.98 149.46C189.53 145.8 189.14 142.14 188.8 138.47C190.5 138.81 192.28 138.71 193.93 138.19C192.37 134.54 191.18 130.72 190.38 126.83C192.04 127.76 193.91 128.31 195.81 128.41C193.92 124.04 192.34 119.53 191.1 114.93C192.83 115.17 194.56 115.41 196.28 115.66C194.96 110.36 193.64 105.06 192.32 99.77C193.91 99.48 195.6 99.79 196.99 100.63C194.64 96.76 191.63 93.29 188.12 90.42C189.37 90.28 190.63 90.14 191.88 90C187.44 85.3 183 80.6 178.56 75.9C180.85 76.43 183.39 75.62 184.95 73.87C179.15 70.28 172.99 67.26 166.6 64.89L32.81 64.57C26.42 66.95 20.26 69.96 14.46 73.55C16.02 75.3 18.56 76.11 20.85 75.58C16.41 80.28 11.97 84.98 7.53 89.68C8.78 89.82 10.04 89.96 11.29 90.1C7.78 92.97 4.77 96.44 2.42 100.31C3.8 99.48 5.5 99.16 7.09 99.45C5.77 104.75 4.45 110.05 3.13 115.34C4.86 115.1 6.59 114.86 8.31 114.61C7.07 119.21 5.49 123.72 3.6 128.09C5.5 127.99 7.37 127.44 9.03 126.51C8.23 130.4 7.04 134.21 5.48 137.87C7.13 138.39 8.92 138.49 10.61 138.15C10.27 141.82 9.88 145.48 9.43 149.14C10.25 147.4 12.84 147.02 14.38 148.18C15.92 149.34 16.36 151.57 15.81 153.41L15.4 154.83L15.41 154.85Z" fill="#CCC8B4" stroke="#1D1D1B" stroke-miterlimit="10"/>
<path d="M35 45.73C35 45.73 33.16 49.17 32.05 52.02C30.94 54.87 30.33 60.12 30.33 60.12C32.29 58.92 34.24 57.72 36.2 56.52C32.52 59.79 30.71 65.03 31.58 69.88C33.06 68.23 34.54 66.58 36.02 64.93C33.52 68.38 32.39 72.8 32.94 77.03C34.04 76.14 35.43 75.6 36.84 75.53C35.45 79.86 34.62 84.38 34.38 88.92C35.32 88.52 36.26 88.12 37.2 87.73C35.61 91.44 35.57 95.79 37.07 99.54C39.38 97.31 42.19 95.6 45.23 94.59C44.03 97.83 44.08 101.51 45.37 104.72C48.11 103.09 50.39 100.67 51.86 97.84C51.88 100.52 52.89 103.18 54.64 105.21C56.33 103.62 58.03 102.03 59.72 100.45C59.92 102.72 60.73 104.94 62.05 106.81C63.76 105.16 65.46 103.51 67.17 101.86C68.92 104.47 70.66 107.08 72.41 109.68C74.8 108.76 76.73 106.7 77.5 104.26C78.8 106.18 80.1 108.11 81.39 110.03C82.38 108.29 84.85 107.89 86.72 108.61C88.59 109.33 90 110.88 91.33 112.38C92.96 110.34 96.49 110.28 98.2 112.25L99.18 113.79L100.51 112.25C102.22 110.27 105.74 110.34 107.38 112.38C108.72 110.88 110.12 109.34 111.99 108.61C113.86 107.89 116.33 108.29 117.32 110.03C118.62 108.11 119.92 106.18 121.21 104.26C121.98 106.71 123.91 108.76 126.3 109.68C128.05 107.07 129.79 104.46 131.54 101.86C133.25 103.51 134.95 105.16 136.66 106.81C137.97 104.94 138.79 102.73 138.99 100.45C140.68 102.04 142.38 103.63 144.07 105.21C145.82 103.18 146.83 100.52 146.85 97.84C148.32 100.67 150.6 103.08 153.34 104.72C154.63 101.52 154.68 97.83 153.48 94.59C156.52 95.61 159.33 97.31 161.64 99.54C163.15 95.79 163.1 91.45 161.51 87.73C162.45 88.13 163.39 88.53 164.33 88.92C164.09 84.37 163.26 79.86 161.87 75.53C163.28 75.6 164.67 76.14 165.77 77.03C166.32 72.8 165.2 68.38 162.69 64.93C164.17 66.58 165.65 68.23 167.13 69.88C168 65.04 166.19 59.8 162.51 56.52C164.47 57.72 166.42 58.92 168.38 60.12C168.38 60.12 168.43 59.25 167.19 52.74C165.96 46.23 163.92 45.48 163.92 45.48V43.66C164.15 41.24 162.54 38.75 160.23 37.98C160.77 37.65 161.31 37.32 161.85 36.99C158.45 32.2 154.15 26.93 148.27 26.86C148.81 26.1 149.34 25.34 149.88 24.58C148.27 23.97 146.55 23.65 144.83 23.63C145.77 22.88 146.52 21.9 147 20.8C142.57 20.52 138.12 20.47 133.68 20.64C133.98 19.91 134 19.08 133.73 18.34C133.22 18.48 132.71 18.61 132.2 18.75L130.38 15.84C129.36 16.64 128.33 17.45 127.31 18.25C126.9 16.82 128.78 15.18 127.49 14.46C127.24 15.22 124.43 17.52 122.9 17.14C121.46 16.78 121.3 13.78 121.12 12.81C119.4 17.84 115.1 17.6 114.66 12.78C114.35 13.34 113.48 14.94 112.7 14.9C112.14 14.88 111.62 13.37 111.39 13C110.79 13.35 110.19 13.69 109.59 14.04C109.22 12.95 108.48 11.98 107.52 11.34C107.52 12.14 106.48 12.59 105.73 12.31C104.98 12.03 104.5 11.32 104.07 10.65C103.49 11.07 102.91 11.49 102.33 11.91L100.73 8.91C100.46 10.29 100.19 11.66 99.93 13.04C99.63 11.79 99.33 10.54 99.04 9.28C98.37 10.35 97.98 11.59 97.89 12.85C97.68 12.33 94.72 10.12 94.72 10.12C94.72 10.12 92 12.52 91.81 13.17C91.38 11.94 90.57 10.84 89.5 10.09C88.94 10.89 88.13 11.52 87.21 11.86C86.74 11.32 86.28 10.77 85.81 10.23C85.31 11.03 84.81 11.82 84.3 12.62C83.9 11.17 82.91 9.88 81.6 9.14C81.1 11.05 80.09 12.82 78.71 14.23C78.21 12.57 78.18 6.71 76.07 12.02C75.66 12.93 75 13.72 74.19 14.29C73.9 13.6 73.6 9.65 72.45 10.05C71.92 10.24 70.55 14.67 70.11 14.83C70.03 14.11 62.84 10.09 62.78 13.68C62.72 17.27 60.66 15.97 60.27 16.16C58.49 17.01 56.86 14.2 54.9 14.31C53.82 14.37 52.98 15.36 52.72 16.41C52.46 17.46 52.66 18.56 52.86 19.63C51.68 18.73 49.85 19.37 49.01 20.59C48.17 21.81 48.08 23.38 48.11 24.86C48.13 25.76 48.13 26.8 47.44 27.37C46.96 27.76 46.28 27.8 45.66 27.81C43.47 27.86 41.28 27.9 39.09 27.95C39.85 29.15 40.64 30.64 40.02 31.92C38.97 34.09 35.1 33.4 34.05 35.56C35.18 36.39 36.3 37.23 37.43 38.06C35.7 39.36 33.96 40.66 32.23 41.95C33.38 42 34.47 42.71 34.98 43.74L35 45.69V45.73Z" fill="#CCC8B4" stroke="#1D1E1C" stroke-miterlimit="10"/>
<path d="M89.07 85.9C89.13 89.6 89.23 93.48 91.01 96.72C92.79 99.96 96.85 102.29 100.27 100.86C100.43 100.79 100.77 100.64 101.13 100.46C101.8 100.11 103.21 99.37 104.43 97.91C104.92 97.33 105.21 96.84 105.4 96.52C106.47 94.69 106.75 93.03 107.2 90.42C107.46 88.89 107.62 87.31 107.68 86.73C107.71 86.43 107.73 86.19 107.74 86.03C104.27 83.08 100.79 80.14 97.32 77.19C97.27 77.24 89.46 85.48 89.41 85.54L89.07 85.89V85.9Z" fill="#ED7596"/>
<path d="M88.44 85.9C88.5 89.71 88.59 93.79 90.55 97.18C92.1 99.86 95.15 102.05 98.35 101.91C101.55 101.77 104.44 99.41 105.93 96.84C107.62 93.91 107.94 90.22 108.27 86.91C108.3 86.57 108.44 86.12 108.3 85.79C108.11 85.36 107.44 84.97 107.09 84.67C106.07 83.81 105.05 82.94 104.04 82.08C101.94 80.3 99.85 78.53 97.75 76.75C97.5 76.54 97.11 76.49 96.87 76.75C94.12 79.65 91.37 82.55 88.62 85.45C88.07 86.03 88.95 86.92 89.5 86.33C92.25 83.43 95 80.53 97.75 77.63H96.87C99.86 80.17 102.86 82.71 105.85 85.25C106.15 85.5 106.73 85.83 106.93 86.16C107.08 86.42 107.06 86.58 107.02 86.9C106.94 87.67 106.85 88.44 106.74 89.21C106.52 90.78 106.27 92.39 105.82 93.91C104.95 96.84 102.81 99.18 99.96 100.3C97.11 101.42 93.68 99.58 91.98 97.12C89.76 93.89 89.74 89.66 89.68 85.89C89.67 85.09 88.42 85.08 88.43 85.89L88.44 85.9Z" fill="#1D1E1C"/>
<path d="M97.33 90.54C97.95 86.7 97.91 82.82 97.2 79C97.05 78.21 95.85 78.54 95.99 79.33C96.66 82.91 96.71 86.6 96.12 90.2C95.99 90.99 97.2 91.33 97.33 90.53V90.54Z" fill="#1D1E1C"/>
<g opacity="0.52">
<path d="M74.35 56.88L75.31 61.46L76.88 63.8L74.34 64.32C69.91 65.61 65.47 66.9 61.04 68.2C57.94 69.1 54.82 70.02 52 71.63C48.19 73.82 45.06 77.21 41.14 79.17C42.81 72.48 47.25 66.84 52.49 62.65C57.73 58.46 63.77 55.54 69.75 52.66L77.33 49.54L74.34 56.88" fill="#F2F2E7"/>
</g>
<g opacity="0.52">
<path d="M121.16 57.39L120.2 61.97L118.63 64.31L121.17 64.83C125.6 66.12 130.04 67.41 134.47 68.71C137.57 69.61 140.69 70.53 143.51 72.14C147.32 74.33 150.45 77.72 154.37 79.68C152.7 72.99 148.26 67.35 143.02 63.16C137.78 58.97 131.74 56.05 125.76 53.17L118.18 50.05L121.17 57.39" fill="#F2F2E7"/>
</g>
<path d="M79.1532 29.6051C81.9882 29.3152 84.1871 28.1091 84.0646 26.9114C83.9421 25.7137 81.5446 24.9778 78.7096 25.2678C75.8746 25.5577 73.6756 26.7637 73.7981 27.9615C73.9207 29.1592 76.3182 29.8951 79.1532 29.6051Z" fill="url(#paint0_radial_120_47)"/>
<path d="M89.0856 31.3159C91.9206 31.0259 94.1196 29.8199 93.997 28.6221C93.8745 27.4244 91.477 26.6885 88.642 26.9785C85.807 27.2685 83.6081 28.4745 83.7306 29.6722C83.8531 30.87 86.2506 31.6058 89.0856 31.3159Z" fill="url(#paint1_radial_120_47)"/>
<path d="M97.81 27.42C100.66 27.42 102.97 26.444 102.97 25.24C102.97 24.036 100.66 23.06 97.81 23.06C94.9602 23.06 92.65 24.036 92.65 25.24C92.65 26.444 94.9602 27.42 97.81 27.42Z" fill="url(#paint2_radial_120_47)"/>
<path d="M110.919 30.8086C111.128 29.6228 109.022 28.2608 106.215 27.7665C103.409 27.2721 100.964 27.8326 100.755 29.0183C100.547 30.204 102.652 31.566 105.459 32.0604C108.266 32.5547 110.71 31.9943 110.919 30.8086Z" fill="url(#paint3_radial_120_47)"/>
<path d="M96.82 75.03C96.48 74.84 95.52 72.27 95.38 71.17C95.32 71.08 95.22 70.93 95.05 70.78C93.55 69.39 90.07 70.49 90.07 70.48C89.52 70.09 90.29 69.16 90.5 68.86C90.71 68.56 91.4 67.51 93.48 66.95L97.09 66.65C97.09 66.65 96.97 66.65 97.57 66.65C98.17 66.65 101.18 66.95 101.18 66.95C103.25 67.51 103.95 68.57 104.16 68.86C104.37 69.15 105.13 70.08 104.59 70.48C104.59 70.48 101.12 69.38 99.61 70.78C99.45 70.93 99.34 71.08 99.28 71.17C99.14 72.27 98.18 74.84 97.84 75.03H96.82Z" fill="url(#paint4_radial_120_47)" stroke="#1D1E1C" stroke-width="0.75" stroke-miterlimit="10"/>
<path d="M120.696 30.4009C121.109 29.2697 119.272 27.5614 116.595 26.5854C113.918 25.6093 111.413 25.735 111 26.8661C110.588 27.9973 112.424 29.7056 115.102 30.6816C117.779 31.6577 120.284 31.532 120.696 30.4009Z" fill="url(#paint5_radial_120_47)"/>
<path d="M83.8804 38.1119C85.99 37.7358 87.5233 36.4391 87.3052 35.2158C87.0871 33.9924 85.2001 33.3056 83.0905 33.6818C80.9809 34.058 79.4476 35.3546 79.6657 36.5779C79.8838 37.8013 81.7708 38.4881 83.8804 38.1119Z" fill="url(#paint6_radial_120_47)"/>
<path d="M91.3076 39.8918C93.4172 39.5156 94.9506 38.219 94.7324 36.9956C94.5143 35.7723 92.6273 35.0855 90.5177 35.4617C88.4081 35.8378 86.8748 37.1345 87.0929 38.3578C87.3111 39.5812 89.1981 40.2679 91.3076 39.8918Z" fill="url(#paint7_radial_120_47)"/>
<path d="M101.44 33.64C101.44 34.89 99.72 35.91 97.59 35.91C95.46 35.91 93.74 34.9 93.74 33.64C93.74 32.38 95.46 31.37 97.59 31.37C99.72 31.37 101.44 32.38 101.44 33.64Z" fill="url(#paint8_radial_120_47)"/>
<g opacity="0.52">
<path d="M77.55 49.01L69.97 52.13C63.99 55.01 57.95 57.93 52.71 62.12C47.47 66.31 43.03 71.95 41.36 78.64C42.8 77.92 45.92 71.36 51.52 67.01C61.14 59.55 73.21 55.14 75.17 54.57" fill="#7C7C7C"/>
</g>
<path d="M107.326 39.6207C107.685 38.4426 106.297 36.976 104.226 36.3448C102.155 35.7136 100.185 36.157 99.8261 37.3351C99.4671 38.5132 100.855 39.9799 102.926 40.611C104.997 41.2422 106.966 40.7988 107.326 39.6207Z" fill="url(#paint9_radial_120_47)"/>
<path d="M114.549 39.3143C115.166 38.3126 114.103 36.538 112.175 35.3505C110.247 34.163 108.184 34.0123 107.567 35.0139C106.95 36.0155 108.013 37.7902 109.941 38.9777C111.869 40.1652 113.932 40.3159 114.549 39.3143Z" fill="url(#paint10_radial_120_47)"/>
<path d="M76.8044 23.2923C79.8945 22.7207 82.125 20.7737 81.7865 18.9435C81.448 17.1134 78.6685 16.0931 75.5784 16.6647C72.4884 17.2363 70.2578 19.1833 70.5963 21.0135C70.9349 22.8436 73.7143 23.8639 76.8044 23.2923Z" fill="url(#paint11_radial_120_47)"/>
<path d="M87.6867 25.9489C90.7768 25.3773 93.0074 23.4303 92.6688 21.6002C92.3303 19.77 89.5509 18.7498 86.4608 19.3214C83.3707 19.893 81.1401 21.84 81.4787 23.6701C81.8172 25.5003 84.5967 26.5205 87.6867 25.9489Z" fill="url(#paint12_radial_120_47)"/>
<path d="M102.53 16.58C102.53 18.45 100 19.97 96.88 19.97C93.76 19.97 91.23 18.45 91.23 16.58C91.23 14.71 93.76 13.19 96.88 13.19C100 13.19 102.53 14.71 102.53 16.58Z" fill="url(#paint13_radial_120_47)"/>
<path d="M111.173 25.561C111.726 23.8127 109.715 21.6182 106.682 20.6594C103.648 19.7007 100.741 20.3409 100.189 22.0892C99.6362 23.8375 101.647 26.032 104.68 26.9907C107.714 27.9494 110.621 27.3093 111.173 25.561Z" fill="url(#paint14_radial_120_47)"/>
<path d="M121.732 25.0916C122.671 23.6142 121.151 20.9655 118.336 19.1757C115.521 17.3858 112.477 17.1325 111.538 18.6099C110.598 20.0873 112.119 22.7359 114.934 24.5257C117.749 26.3156 120.792 26.5689 121.732 25.0916Z" fill="url(#paint15_radial_120_47)"/>
<path d="M104.447 45.6653C106.587 45.5483 108.267 44.4476 108.199 43.2068C108.131 41.966 106.341 41.055 104.202 41.172C102.062 41.289 100.383 42.3897 100.45 43.6305C100.518 44.8713 102.308 45.7823 104.447 45.6653Z" fill="url(#paint16_radial_120_47)"/>
<path d="M97.3123 42.9891C99.452 42.8721 101.132 41.7714 101.064 40.5306C100.996 39.2899 99.2063 38.3788 97.0666 38.4958C94.927 38.6129 93.2474 39.7136 93.3153 40.9543C93.3831 42.1951 95.1727 43.1061 97.3123 42.9891Z" fill="url(#paint17_radial_120_47)"/>
<path d="M93.8855 44.4161C94.0376 43.1717 92.45 41.9537 90.3394 41.6956C88.2288 41.4376 86.3945 42.2373 86.2424 43.4817C86.0903 44.7261 87.6779 45.9441 89.7885 46.2021C91.8991 46.4601 93.7334 45.6605 93.8855 44.4161Z" fill="url(#paint18_radial_120_47)"/>
<path d="M101.244 49.4432C102.383 49.3489 103.254 48.6344 103.189 47.8473C103.124 47.0603 102.148 46.4986 101.008 46.5929C99.8689 46.6872 98.9981 47.4016 99.0632 48.1887C99.1284 48.9758 100.105 49.5374 101.244 49.4432Z" fill="url(#paint19_radial_120_47)"/>
<path d="M97.4277 47.7531C98.5671 47.6588 99.4379 46.9444 99.3728 46.1573C99.3076 45.3702 98.3312 44.8086 97.1919 44.9028C96.0526 44.9971 95.1817 45.7116 95.2469 46.4987C95.312 47.2857 96.2884 47.8474 97.4277 47.7531Z" fill="url(#paint20_radial_120_47)"/>
<path d="M95.536 48.7427C95.6804 47.9662 94.8908 47.1681 93.7723 46.96C92.6538 46.7519 91.63 47.2126 91.4855 47.989C91.341 48.7655 92.1306 49.5636 93.2491 49.7717C94.3677 49.9798 95.3915 49.5191 95.536 48.7427Z" fill="url(#paint21_radial_120_47)"/>
<path d="M102.423 54.1523C103.865 54.0312 104.966 53.1211 104.882 52.1195C104.798 51.1178 103.561 50.404 102.119 50.5251C100.677 50.6462 99.5761 51.5563 99.6602 52.5579C99.7443 53.5596 100.981 54.2734 102.423 54.1523Z" fill="url(#paint22_radial_120_47)"/>
<path d="M97.6003 52.0032C99.0422 51.8821 100.143 50.972 100.059 49.9703C99.9747 48.9687 98.7376 48.2549 97.2957 48.376C95.8538 48.497 94.7531 49.4072 94.8372 50.4088C94.9213 51.4104 96.1584 52.1243 97.6003 52.0032Z" fill="url(#paint23_radial_120_47)"/>
<path d="M95.2112 53.2673C95.398 52.2797 94.4012 51.2619 92.9849 50.994C91.5685 50.7261 90.2689 51.3096 90.0821 52.2973C89.8953 53.2849 90.892 54.3027 92.3084 54.5706C93.7248 54.8385 95.0244 54.255 95.2112 53.2673Z" fill="url(#paint24_radial_120_47)"/>
<path d="M100.279 57.2209C101.043 57.0971 101.579 56.4885 101.477 55.8616C101.376 55.2347 100.675 54.8268 99.9113 54.9505C99.148 55.0743 98.6117 55.6828 98.7134 56.3098C98.815 56.9367 99.5162 57.3446 100.279 57.2209Z" fill="url(#paint25_radial_120_47)"/>
<path d="M97.7133 55.8499C98.4765 55.7261 99.0128 55.1175 98.9112 54.4906C98.8095 53.8637 98.1084 53.4558 97.3451 53.5795C96.5819 53.7033 96.0456 54.3118 96.1473 54.9388C96.2489 55.5657 96.95 55.9736 97.7133 55.8499Z" fill="url(#paint26_radial_120_47)"/>
<path d="M96.2912 56.8314C96.5057 56.2395 96.0861 55.5445 95.3539 55.2792C94.6218 55.0139 93.8544 55.2787 93.6399 55.8706C93.4254 56.4625 93.845 57.1575 94.5771 57.4228C95.3093 57.6881 96.0767 57.4233 96.2912 56.8314Z" fill="url(#paint27_radial_120_47)"/>
<g opacity="0.52">
<path d="M117.47 49.01L125.05 52.13C131.03 55.01 137.07 57.93 142.31 62.12C147.55 66.31 151.99 71.95 153.66 78.64C152.22 77.92 149.1 71.36 143.5 67.01C133.88 59.55 121.81 55.14 119.85 54.57" fill="#7C7C7C"/>
</g>
<g opacity="0.52">
<path d="M119.72 63.09L118.4 64.63L120.94 65.15C125.37 66.44 129.81 67.73 134.24 69.03C137.34 69.93 140.46 70.85 143.28 72.46C147.09 74.65 150.22 78.04 154.14 80C153.68 78.77 151.99 77.66 150.67 76.45C142.24 68.75 119.84 62 119.73 63.09H119.72Z" fill="#7C7C7C"/>
</g>
<g opacity="0.52">
<path d="M75.79 62.45L77.11 63.99L74.57 64.51C70.14 65.8 65.7 67.09 61.27 68.39C58.17 69.29 55.05 70.21 52.23 71.82C48.42 74.01 45.29 77.4 41.37 79.36C41.83 78.13 43.52 77.02 44.84 75.81C53.27 68.11 75.67 61.36 75.78 62.45H75.79Z" fill="#7C7C7C"/>
</g>
<path d="M81.19 65.4C84.686 65.4 87.52 61.5273 87.52 56.75C87.52 51.9727 84.686 48.1 81.19 48.1C77.694 48.1 74.86 51.9727 74.86 56.75C74.86 61.5273 77.694 65.4 81.19 65.4Z" fill="url(#paint28_radial_120_47)" stroke="#1D1E1C" stroke-miterlimit="10"/>
<path d="M81.98 62.34C85.117 62.34 87.66 59.5552 87.66 56.12C87.66 52.6848 85.117 49.9 81.98 49.9C78.843 49.9 76.3 52.6848 76.3 56.12C76.3 59.5552 78.843 62.34 81.98 62.34Z" fill="black"/>
<path d="M115.11 66.17C118.606 66.17 121.44 62.2973 121.44 57.52C121.44 52.7427 118.606 48.87 115.11 48.87C111.614 48.87 108.78 52.7427 108.78 57.52C108.78 62.2973 111.614 66.17 115.11 66.17Z" fill="url(#paint29_radial_120_47)" stroke="#1D1E1C" stroke-miterlimit="10"/>
<path d="M114.32 63.1C117.457 63.1 120 60.3152 120 56.88C120 53.4448 117.457 50.66 114.32 50.66C111.183 50.66 108.64 53.4448 108.64 56.88C108.64 60.3152 111.183 63.1 114.32 63.1Z" fill="black"/>
<path d="M89.04 89.53L90.1 94.64" stroke="#1D1E1C" stroke-width="0.25" stroke-miterlimit="10"/>
<path d="M89.59 85.96C89.64 89.53 89.74 93.26 91.4 96.38C93.06 99.5 96.86 101.74 100.06 100.37C100.21 100.31 100.53 100.16 100.87 99.98C101.5 99.64 102.81 98.93 103.96 97.53C104.42 96.97 104.69 96.5 104.86 96.19C105.86 94.43 106.13 92.83 106.54 90.32C106.78 88.85 106.94 87.32 106.99 86.76C107.02 86.48 107.04 86.24 107.05 86.09C106.61 85.71 105.6 90.27 103.68 93.49C102.02 96.27 99.57 97.76 97.66 97.79C96.08 97.81 93.72 96.4 92.44 94.1C90.47 90.57 89.91 85.6 89.91 85.61L89.6 85.95L89.59 85.96Z" fill="#CC6080"/>
<path d="M46.14 17.27C48.96 19.06 51.15 21.01 52.8 22.73C52.86 23.32 52.92 23.91 52.98 24.5C52.8 24.14 52.61 23.77 52.32 23.5C52.03 23.23 51.6 23.06 51.21 23.18C51.72 24.51 52.23 25.83 52.73 27.16C51.02 26.52 50.15 24.5 48.47 23.78C48.97 24.69 49.21 25.75 49.14 26.79C48.27 25.87 47.23 25.11 46.09 24.56C46.57 26.06 47.14 27.53 47.8 28.96C46.65 27.86 45.5 26.75 44.35 25.65C44.66 27.08 44.91 28.52 45.09 29.97C43.85 28.92 42.6 27.88 41.36 26.83C42.38 28.4 43.4 29.98 44.42 31.55C43.32 30.81 42.29 29.99 41.32 29.09C42.08 30.39 42.64 31.81 42.97 33.28C41.93 32.55 40.79 31.79 39.52 31.81C39.64 32.46 39.77 33.1 39.89 33.75C39.44 33.42 38.93 33.17 38.39 33.01C38.78 34.1 39.18 35.19 39.57 36.28C38.71 35.44 37.78 34.67 36.8 33.98C37.17 34.62 37.39 35.34 37.42 36.08C37.44 36.44 37.28 36.93 36.92 36.88C37.05 38.08 36.99 39.3 36.74 40.49C36.22 40.02 35.53 39.75 34.84 39.75C34.77 39.75 34.69 39.75 34.64 39.8C34.56 39.87 34.57 40 34.6 40.11C34.72 40.66 34.84 41.21 34.97 41.76C34.64 41.59 34.31 41.42 33.98 41.25C33.87 41.19 33.72 41.14 33.63 41.23C33.59 41.28 33.58 41.34 33.57 41.4C33.5 41.98 33.39 42.4 33.33 42.97C26.84 40.11 23.1 34.13 22 27.64C20.92 21.23 24.28 13.9 30.43 11.84C30.43 11.84 30.47 11.85 30.55 11.88C34.16 12.27 40.07 13.43 46.11 17.27H46.14Z" fill="url(#paint30_radial_120_47)" stroke="#1D1E1C" stroke-miterlimit="10"/>
<path d="M31.59 11.32L36.09 12.4C38.85 13.25 42.37 14.65 46.12 16.98C49.06 18.81 51.39 20.76 53.16 22.46C53.53 21.77 54.26 20.6 55.6 19.61C56.54 18.91 57.46 18.54 58.11 18.33C59.41 18.09 60.71 17.86 62.02 17.62C54.18 13.17 45.17 10.8 36.15 10.82C34.89 10.82 31.08 11.32 30.45 11.53" fill="#CCC8B4"/>
<path d="M31.59 11.32L36.09 12.4C38.85 13.25 42.37 14.65 46.12 16.98C49.06 18.81 51.39 20.76 53.16 22.46C53.53 21.77 54.26 20.6 55.6 19.61C56.54 18.91 57.46 18.54 58.11 18.33C59.41 18.09 60.71 17.86 62.02 17.62C54.18 13.17 45.17 10.8 36.15 10.82C34.89 10.82 31.08 11.32 30.45 11.53" stroke="#1D1E1C" stroke-miterlimit="10"/>
<path d="M149.44 20.27C146.62 22.06 144.43 24.01 142.78 25.73C142.72 26.32 142.66 26.91 142.6 27.5C142.78 27.14 142.97 26.77 143.26 26.5C143.55 26.23 143.98 26.06 144.37 26.18C143.86 27.51 143.35 28.83 142.85 30.16C144.56 29.52 145.43 27.5 147.11 26.78C146.61 27.69 146.37 28.75 146.44 29.79C147.31 28.87 148.35 28.11 149.49 27.56C149.01 29.06 148.44 30.53 147.78 31.96C148.93 30.86 150.08 29.75 151.23 28.65C150.92 30.08 150.67 31.52 150.49 32.97C151.73 31.92 152.98 30.88 154.22 29.83C153.2 31.4 152.18 32.98 151.16 34.55C152.26 33.81 153.29 32.99 154.26 32.09C153.5 33.39 152.94 34.81 152.61 36.28C153.65 35.55 154.79 34.79 156.06 34.81C155.94 35.46 155.81 36.1 155.69 36.75C156.14 36.42 156.65 36.17 157.19 36.01C156.8 37.1 156.4 38.19 156.01 39.28C156.87 38.44 157.8 37.67 158.78 36.98C158.41 37.62 158.19 38.34 158.16 39.08C158.14 39.44 158.3 39.93 158.66 39.88C158.53 41.08 158.59 42.3 158.84 43.49C159.36 43.02 160.05 42.75 160.74 42.75C160.81 42.75 160.89 42.75 160.94 42.8C161.02 42.87 161.01 43 160.98 43.11C160.86 43.66 160.74 44.21 160.61 44.76C160.94 44.59 161.27 44.42 161.6 44.25C161.71 44.19 161.86 44.14 161.95 44.23C161.99 44.28 162 44.34 162.01 44.4C162.08 44.98 162.19 45.4 162.25 45.97C168.74 43.11 172.48 37.13 173.58 30.64C174.66 24.23 171.3 16.9 165.15 14.84C165.15 14.84 165.11 14.85 165.03 14.88C161.42 15.27 155.51 16.43 149.47 20.27H149.44Z" fill="url(#paint31_radial_120_47)" stroke="#1D1E1C" stroke-miterlimit="10"/>
<path d="M163.99 14.33L159.49 15.41C156.73 16.26 153.21 17.66 149.46 19.99C146.52 21.82 144.19 23.77 142.42 25.47C142.05 24.78 141.32 23.61 139.98 22.62C139.04 21.92 138.12 21.55 137.47 21.34C136.17 21.1 134.87 20.87 133.56 20.63C141.4 16.18 150.41 13.81 159.43 13.83C160.69 13.83 164.5 14.33 165.13 14.54" fill="#CCC8B4"/>
<path d="M163.99 14.33L159.49 15.41C156.73 16.26 153.21 17.66 149.46 19.99C146.52 21.82 144.19 23.77 142.42 25.47C142.05 24.78 141.32 23.61 139.98 22.62C139.04 21.92 138.12 21.55 137.47 21.34C136.17 21.1 134.87 20.87 133.56 20.63C141.4 16.18 150.41 13.81 159.43 13.83C160.69 13.83 164.5 14.33 165.13 14.54" stroke="#1D1E1C" stroke-miterlimit="10"/>
<path d="M192.77 178.08C192.77 182.48 188.77 186.05 183.83 186.05C182.5 186.05 181.23 185.79 180.1 185.32C178.04 188.52 174.6 193.17 172.69 194.37C169.66 196.28 165.62 196.89 162.11 195.98C159.79 195.38 159.04 193.65 158.04 191.79C157.5 190.79 156.63 189.51 155.64 188.87C154.64 188.22 153.14 187.86 151.97 187.56C149.54 186.95 145.78 186.25 144.41 184.08C143.63 182.82 143.44 181.24 143.27 179.82C143.16 179.01 142.85 176.07 144.85 173.17C146.48 170.81 149.31 167.6 151.8 166.43C150.37 165.01 149.48 163.13 149.48 161.06C149.48 156.66 153.48 153.09 158.42 153.09C161.32 153.09 163.9 154.33 165.53 156.24C166.9 155.49 168.51 155.04 170.25 155.04C174.25 155.04 177.65 157.39 178.78 160.63C179.73 160.33 180.75 160.16 181.81 160.16C186.74 160.16 190.75 163.73 190.75 168.14C190.75 169.55 190.34 170.88 189.62 172.02C191.54 173.48 192.76 175.65 192.76 178.09L192.77 178.08Z" fill="#CCC8B4" stroke="#1D1E1C" stroke-miterlimit="10"/>
<path d="M171.86 181.89C170.98 185.8 167.15 190.35 163.41 189.59C161.25 189.15 159.94 187.09 159.27 185.66C158.89 184.85 158.12 184.24 157.17 184.1C154.16 183.66 151.7 182.31 151.01 180.39C149.8 177 154.57 172.95 158.27 171.72C160.08 171.12 162.05 171.05 162.54 171.04C163.68 171.01 165.83 170.95 167.52 171.67C170.92 173.13 172.75 177.91 171.85 181.9L171.86 181.89Z" fill="#F2A0AE" stroke="#1D1E1C" stroke-miterlimit="10"/>
<path d="M158.84 165.54C161.381 165.54 163.44 163.807 163.44 161.67C163.44 159.533 161.381 157.8 158.84 157.8C156.299 157.8 154.24 159.533 154.24 161.67C154.24 163.807 156.299 165.54 158.84 165.54Z" fill="#F2A0AE" stroke="#1D1E1C" stroke-miterlimit="10"/>
<path d="M170.26 167.38C172.801 167.38 174.86 165.647 174.86 163.51C174.86 161.373 172.801 159.64 170.26 159.64C167.719 159.64 165.66 161.373 165.66 163.51C165.66 165.647 167.719 167.38 170.26 167.38Z" fill="#F2A0AE" stroke="#1D1E1C" stroke-miterlimit="10"/>
<path d="M180.68 172.52C183.221 172.52 185.28 170.787 185.28 168.65C185.28 166.513 183.221 164.78 180.68 164.78C178.139 164.78 176.08 166.513 176.08 168.65C176.08 170.787 178.139 172.52 180.68 172.52Z" fill="#F2A0AE" stroke="#1D1E1C" stroke-miterlimit="10"/>
<path d="M183.33 181.54C185.871 181.54 187.93 179.807 187.93 177.67C187.93 175.533 185.871 173.8 183.33 173.8C180.789 173.8 178.73 175.533 178.73 177.67C178.73 179.807 180.789 181.54 183.33 181.54Z" fill="#F2A0AE" stroke="#1D1E1C" stroke-miterlimit="10"/>
<path d="M151.83 114.84C154.34 119.77 156.7 124.78 158.89 129.86C158.25 130.38 157.43 130.67 156.61 130.68C157.02 131.26 157.45 131.89 157.48 132.6C157.51 133.31 156.96 134.1 156.25 134.02C156.6 136.72 155.51 139.56 153.45 141.34C153.79 142.28 154.13 143.28 153.92 144.25C153.71 145.22 152.72 146.1 151.77 145.8C152.9 147.65 151.98 150.42 149.96 151.23C149.98 152.98 149.77 154.73 149.33 156.42L147.76 154.43C147.77 156.44 147.34 158.45 146.51 160.28C146.07 159.78 145.64 159.28 145.2 158.78C145.07 160.41 144.94 162.04 144.81 163.66C143.74 163.5 142.69 163.16 141.73 162.66C141.54 164.53 140.54 167.03 138.72 166.57C139.48 167.67 138.22 169.43 136.93 169.08C136.81 169.83 132.17 172.48 132.05 173.23C131.61 173.2 126.91 174.68 126.46 174.64C126.38 174.82 133.91 172.12 136.79 173.05C139.68 173.98 141.63 176.13 141.95 176.42C144.09 178.37 144.05 181.83 142.98 184.53C141.3 188.76 137.43 192.05 132.99 193.03C128.69 193.98 124.23 192.86 119.96 191.75C116.23 190.78 112.51 189.81 108.78 188.84C107.51 188.51 106.2 188.16 105.14 187.39C102.52 185.48 102.24 181.74 102.25 178.49" fill="#CCC8B4"/>
<path d="M151.83 114.84C154.34 119.77 156.7 124.78 158.89 129.86C158.25 130.38 157.43 130.67 156.61 130.68C157.02 131.26 157.45 131.89 157.48 132.6C157.51 133.31 156.96 134.1 156.25 134.02C156.6 136.72 155.51 139.56 153.45 141.34C153.79 142.28 154.13 143.28 153.92 144.25C153.71 145.22 152.72 146.1 151.77 145.8C152.9 147.65 151.98 150.42 149.96 151.23C149.98 152.98 149.77 154.73 149.33 156.42L147.76 154.43C147.77 156.44 147.34 158.45 146.51 160.28C146.07 159.78 145.64 159.28 145.2 158.78C145.07 160.41 144.94 162.04 144.81 163.66C143.74 163.5 142.69 163.16 141.73 162.66C141.54 164.53 140.54 167.03 138.72 166.57C139.48 167.67 138.22 169.43 136.93 169.08C136.81 169.83 132.17 172.48 132.05 173.23C131.61 173.2 126.91 174.68 126.46 174.64C126.38 174.82 133.91 172.12 136.79 173.05C139.68 173.98 141.63 176.13 141.95 176.42C144.09 178.37 144.05 181.83 142.98 184.53C141.3 188.76 137.43 192.05 132.99 193.03C128.69 193.98 124.23 192.86 119.96 191.75C116.23 190.78 112.51 189.81 108.78 188.84C107.51 188.51 106.2 188.16 105.14 187.39C102.52 185.48 102.24 181.74 102.25 178.49" stroke="#1D1E1C" stroke-miterlimit="10"/>
<path d="M123.28 188.29C124.5 191.93 127.3 194.56 130.36 194.8C132.47 194.97 135.44 193.68 137.24 191.72C138.83 190 139.38 187.62 139.5 187.11C139.94 185.24 139.82 182.72 139.3 181.03C138.06 177.03 134.23 175 128.72 177.61" fill="#CCC8B4"/>
<path d="M123.28 188.29C124.5 191.93 127.3 194.56 130.36 194.8C132.47 194.97 135.44 193.68 137.24 191.72C138.83 190 139.38 187.62 139.5 187.11C139.94 185.24 139.82 182.72 139.3 181.03C138.06 177.03 134.23 175 128.72 177.61" stroke="#1D1E1C" stroke-miterlimit="10"/>
<path d="M115.04 190.58C116.26 194.22 119.06 196.85 122.12 197.09C124.23 197.26 127.2 195.97 129 194.01C130.59 192.29 131.14 189.91 131.26 189.4C131.7 187.53 131.58 185.01 131.06 183.32C129.82 179.32 125.99 177.29 120.48 179.9" fill="#CCC8B4"/>
<path d="M115.04 190.58C116.26 194.22 119.06 196.85 122.12 197.09C124.23 197.26 127.2 195.97 129 194.01C130.59 192.29 131.14 189.91 131.26 189.4C131.7 187.53 131.58 185.01 131.06 183.32C129.82 179.32 125.99 177.29 120.48 179.9" stroke="#1D1E1C" stroke-miterlimit="10"/>
<path d="M13.77 178.08C13.77 182.48 17.77 186.05 22.71 186.05C24.04 186.05 25.31 185.79 26.44 185.32C28.5 188.52 31.94 193.17 33.85 194.37C36.88 196.28 40.92 196.89 44.43 195.98C46.75 195.38 47.5 193.65 48.5 191.79C49.04 190.79 49.91 189.51 50.9 188.87C51.9 188.22 53.4 187.86 54.57 187.56C57 186.95 60.76 186.25 62.13 184.08C62.91 182.82 63.1 181.24 63.27 179.82C63.38 179.01 63.69 176.07 61.69 173.17C60.06 170.81 57.23 167.6 54.74 166.43C56.17 165.01 57.06 163.13 57.06 161.06C57.06 156.66 53.06 153.09 48.12 153.09C45.22 153.09 42.64 154.33 41.01 156.24C39.64 155.49 38.03 155.04 36.29 155.04C32.29 155.04 28.89 157.39 27.76 160.63C26.81 160.33 25.79 160.16 24.73 160.16C19.8 160.16 15.79 163.73 15.79 168.14C15.79 169.55 16.2 170.88 16.92 172.02C15 173.48 13.78 175.65 13.78 178.09L13.77 178.08Z" fill="#CCC8B4" stroke="#1D1E1C" stroke-miterlimit="10"/>
<path d="M34.69 181.89C35.57 185.8 39.4 190.35 43.14 189.59C45.3 189.15 46.61 187.09 47.28 185.66C47.66 184.85 48.43 184.24 49.38 184.1C52.39 183.66 54.85 182.31 55.54 180.39C56.75 177 51.98 172.95 48.28 171.72C46.47 171.12 44.5 171.05 44.01 171.04C42.87 171.01 40.72 170.95 39.03 171.67C35.63 173.13 33.8 177.91 34.7 181.9L34.69 181.89Z" fill="#F2A0AE" stroke="#1D1E1C" stroke-miterlimit="10"/>
<path d="M47.71 165.54C50.2505 165.54 52.31 163.807 52.31 161.67C52.31 159.533 50.2505 157.8 47.71 157.8C45.1695 157.8 43.11 159.533 43.11 161.67C43.11 163.807 45.1695 165.54 47.71 165.54Z" fill="#F2A0AE" stroke="#1D1E1C" stroke-miterlimit="10"/>
<path d="M36.28 167.38C38.8205 167.38 40.88 165.647 40.88 163.51C40.88 161.373 38.8205 159.64 36.28 159.64C33.7395 159.64 31.68 161.373 31.68 163.51C31.68 165.647 33.7395 167.38 36.28 167.38Z" fill="#F2A0AE" stroke="#1D1E1C" stroke-miterlimit="10"/>
<path d="M25.87 172.52C28.4105 172.52 30.47 170.787 30.47 168.65C30.47 166.513 28.4105 164.78 25.87 164.78C23.3295 164.78 21.27 166.513 21.27 168.65C21.27 170.787 23.3295 172.52 25.87 172.52Z" fill="#F2A0AE" stroke="#1D1E1C" stroke-miterlimit="10"/>
<path d="M23.22 181.54C25.7605 181.54 27.82 179.807 27.82 177.67C27.82 175.533 25.7605 173.8 23.22 173.8C20.6795 173.8 18.62 175.533 18.62 177.67C18.62 179.807 20.6795 181.54 23.22 181.54Z" fill="#F2A0AE" stroke="#1D1E1C" stroke-miterlimit="10"/>
<path d="M103.77 139.11C101.63 152.79 102.53 166.73 102.56 180.57C102.56 183.81 102.29 187.55 99.67 189.47C98.61 190.24 97.3 190.59 96.03 190.92C92.3 191.89 88.58 192.86 84.85 193.83C80.58 194.94 76.12 196.06 71.82 195.11C67.38 194.13 63.51 190.84 61.83 186.61C60.76 183.92 60.72 180.46 62.86 178.5C63.17 178.21 65.13 176.06 68.02 175.13C70.9 174.2 78.44 176.9 78.35 176.72C77.91 176.75 73.21 175.27 72.76 175.31C72.64 174.56 68 171.91 67.88 171.16C66.59 171.51 65.34 169.75 66.09 168.65C64.26 169.11 63.26 166.61 63.08 164.74C62.12 165.24 61.07 165.58 60 165.74C59.87 164.11 59.74 162.48 59.61 160.86C59.17 161.36 58.74 161.86 58.3 162.36C57.47 160.53 57.04 158.52 57.05 156.51L55.48 158.5C55.04 156.81 54.83 155.06 54.85 153.31C52.83 152.51 51.91 149.73 53.04 147.88C52.09 148.18 51.1 147.3 50.89 146.33C50.68 145.36 51.02 144.36 51.36 143.42C49.3 141.64 48.21 138.8 48.56 136.1C47.85 136.17 47.3 135.39 47.33 134.68C47.36 133.97 47.79 133.34 48.2 132.76C47.38 132.76 46.56 132.46 45.92 131.94C48.11 126.86 50.47 121.85 52.98 116.92" fill="#CCC8B4"/>
<path d="M103.77 139.11C101.63 152.79 102.53 166.73 102.56 180.57C102.56 183.81 102.29 187.55 99.67 189.47C98.61 190.24 97.3 190.59 96.03 190.92C92.3 191.89 88.58 192.86 84.85 193.83C80.58 194.94 76.12 196.06 71.82 195.11C67.38 194.13 63.51 190.84 61.83 186.61C60.76 183.92 60.72 180.46 62.86 178.5C63.17 178.21 65.13 176.06 68.02 175.13C70.9 174.2 78.44 176.9 78.35 176.72C77.91 176.75 73.21 175.27 72.76 175.31C72.64 174.56 68 171.91 67.88 171.16C66.59 171.51 65.34 169.75 66.09 168.65C64.26 169.11 63.26 166.61 63.08 164.74C62.12 165.24 61.07 165.58 60 165.74C59.87 164.11 59.74 162.48 59.61 160.86C59.17 161.36 58.74 161.86 58.3 162.36C57.47 160.53 57.04 158.52 57.05 156.51L55.48 158.5C55.04 156.81 54.83 155.06 54.85 153.31C52.83 152.51 51.91 149.73 53.04 147.88C52.09 148.18 51.1 147.3 50.89 146.33C50.68 145.36 51.02 144.36 51.36 143.42C49.3 141.64 48.21 138.8 48.56 136.1C47.85 136.17 47.3 135.39 47.33 134.68C47.36 133.97 47.79 133.34 48.2 132.76C47.38 132.76 46.56 132.46 45.92 131.94C48.11 126.86 50.47 121.85 52.98 116.92" stroke="#1D1E1C" stroke-miterlimit="10"/>
<path d="M81.55 190.38C80.33 194.02 77.53 196.65 74.47 196.89C72.36 197.06 69.39 195.77 67.59 193.81C66 192.09 65.45 189.71 65.33 189.2C64.89 187.33 65.01 184.81 65.53 183.12C66.77 179.12 70.6 177.09 76.11 179.7" fill="#CCC8B4"/>
<path d="M81.55 190.38C80.33 194.02 77.53 196.65 74.47 196.89C72.36 197.06 69.39 195.77 67.59 193.81C66 192.09 65.45 189.71 65.33 189.2C64.89 187.33 65.01 184.81 65.53 183.12C66.77 179.12 70.6 177.09 76.11 179.7" stroke="#1D1E1C" stroke-miterlimit="10"/>
<path d="M89.79 192.67C88.57 196.31 85.77 198.94 82.71 199.18C80.6 199.35 77.63 198.06 75.83 196.1C74.24 194.38 73.69 192 73.57 191.49C73.13 189.62 73.25 187.1 73.77 185.41C75.01 181.41 78.84 179.38 84.35 181.99" fill="#CCC8B4"/>
<path d="M89.79 192.67C88.57 196.31 85.77 198.94 82.71 199.18C80.6 199.35 77.63 198.06 75.83 196.1C74.24 194.38 73.69 192 73.57 191.49C73.13 189.62 73.25 187.1 73.77 185.41C75.01 181.41 78.84 179.38 84.35 181.99" stroke="#1D1E1C" stroke-miterlimit="10"/>
<path d="M139.53 188.8C140.03 187.5 140.66 185.48 140.86 182.93C141 181.15 141.11 179.74 140.54 178.15C139.55 175.39 137.16 173.9 135.96 173.27C136.4 173.32 140.18 173.8 142.24 177.26C144.36 180.83 142.82 184.51 142.59 185.04C141.94 186.53 140.99 187.51 140.36 188.07" fill="#B2AFA1"/>
<path d="M138.86 181.33C137.62 177.42 133.79 175.44 128.28 177.98C131.14 177.34 134.07 178.28 135.72 180.38C138.27 183.65 136.19 187.75 135.91 188.3C135.58 188.95 133.95 192.16 130.49 192.66C130.31 192.69 129.28 194.04 128.72 194.57C129.11 194.68 129.51 194.76 129.92 194.79C132.03 194.95 135 193.69 136.8 191.78C138.39 190.09 138.94 187.77 139.06 187.27C139.5 185.44 139.38 182.98 138.86 181.33Z" fill="#B2AFA1"/>
<path d="M115.66 190.4C116.79 193.79 119.38 196.23 122.21 196.45C124.16 196.6 126.9 195.4 128.57 193.58C130.04 191.98 130.55 189.77 130.66 189.29C131.07 187.55 130.96 185.2 130.48 183.63C129.34 179.9 125.79 178.02 120.7 180.44C120.97 180.38 124.56 179.58 126.83 181.9C129.22 184.33 128.21 188.22 127.12 190.21C126.86 190.69 124.52 194.82 120.63 194.36C117.33 193.97 115.76 190.6 115.66 190.39V190.4Z" fill="#B2AFA1"/>
<path d="M65.29 190.67C64.79 189.37 64.16 187.35 63.96 184.8C63.82 183.02 63.71 181.61 64.28 180.02C65.27 177.26 67.66 175.77 68.86 175.14C68.42 175.19 64.64 175.67 62.58 179.13C60.46 182.7 62 186.38 62.23 186.91C62.88 188.4 63.83 189.38 64.46 189.94" fill="#B2AFA1"/>
<path d="M65.95 183.2C67.19 179.29 71.02 177.31 76.53 179.85C73.67 179.21 70.74 180.15 69.09 182.25C66.54 185.52 68.62 189.62 68.9 190.17C69.23 190.82 70.86 194.03 74.32 194.53C74.5 194.56 75.53 195.91 76.09 196.44C75.7 196.55 75.3 196.63 74.89 196.66C72.78 196.82 69.81 195.56 68.01 193.65C66.42 191.96 65.87 189.64 65.75 189.14C65.31 187.31 65.43 184.85 65.95 183.2Z" fill="#B2AFA1"/>
<path d="M89.16 192.26C88.03 195.65 85.44 198.09 82.61 198.31C80.66 198.46 77.92 197.26 76.25 195.44C74.78 193.84 74.27 191.63 74.16 191.15C73.75 189.41 73.86 187.06 74.34 185.49C75.48 181.76 79.03 179.88 84.12 182.3C83.85 182.24 80.26 181.44 77.99 183.76C75.6 186.19 76.61 190.08 77.7 192.07C77.96 192.55 80.3 196.68 84.19 196.22C87.49 195.83 89.06 192.46 89.16 192.25V192.26Z" fill="#B2AFA1"/>
<path d="M85.42 81.86C85.59 83.43 85.91 85.36 86.53 87.49C87.04 89.27 87.64 90.77 88.19 91.96C88.81 91.33 90.14 89.81 90.96 87.2C91.8 84.49 91.63 82.1 91.51 81.08C89.48 81.34 87.45 81.6 85.42 81.86Z" fill="#FBF2CB" stroke="#1D1E1C" stroke-miterlimit="10"/>
<path d="M110.82 81.57C110.65 83.14 110.33 85.07 109.71 87.2C109.2 88.98 108.6 90.48 108.05 91.67C107.43 91.04 106.1 89.52 105.28 86.91C104.44 84.2 104.61 81.81 104.73 80.79C106.76 81.05 108.79 81.31 110.82 81.57Z" fill="#FBF2CB" stroke="#1D1E1C" stroke-miterlimit="10"/>
<path d="M97.43 75.06C97.73 78.28 95.98 81.48 93.41 83.45C90.84 85.42 87.56 86.28 84.33 86.48C82.33 86.6 80.25 86.47 78.44 85.62C76.62 84.77 75.1 83.1 74.85 81.11" fill="#CCC8B4"/>
<path d="M96.81 75.06C97.18 80.25 92.89 83.99 88.24 85.24C84.03 86.37 76.37 86.66 75.46 80.94C75.33 80.15 74.13 80.48 74.25 81.27C75.25 87.59 83.41 87.72 88.21 86.53C93.51 85.22 98.48 80.95 98.06 75.06C98 74.26 96.75 74.26 96.81 75.06Z" fill="#1D1E1C"/>
<path d="M119.8 81.11C119.56 83.1 118.03 84.77 116.21 85.62C114.39 86.47 112.32 86.6 110.32 86.48C107.09 86.28 103.81 85.42 101.24 83.45C98.67 81.48 96.92 78.28 97.22 75.06" fill="#CCC8B4"/>
<path d="M119.2 80.94C118.29 86.65 110.63 86.37 106.42 85.24C101.77 83.99 97.48 80.25 97.85 75.06C97.91 74.26 96.66 74.26 96.6 75.06C96.18 80.94 101.15 85.24 106.45 86.53C111.25 87.71 119.4 87.6 120.41 81.27C120.54 80.48 119.33 80.14 119.2 80.94Z" fill="#1D1E1C"/>
<path d="M81.19 54.8C81.9301 54.8 82.53 54.0389 82.53 53.1C82.53 52.1611 81.9301 51.4 81.19 51.4C80.4499 51.4 79.85 52.1611 79.85 53.1C79.85 54.0389 80.4499 54.8 81.19 54.8Z" fill="white"/>
<path d="M115.66 55.25C116.4 55.25 117 54.4889 117 53.55C117 52.6111 116.4 51.85 115.66 51.85C114.92 51.85 114.32 52.6111 114.32 53.55C114.32 54.4889 114.92 55.25 115.66 55.25Z" fill="white"/>
<path d="M54.79 123.23C52.98 132.83 53.2 142.74 57.76 152.79C64.6 167.83 78.26 177.4 79.28 176.43C80.06 175.68 72.67 169.4 65.7 156.75C58.73 144.1 55.99 132 54.79 123.23Z" fill="#B2AFA1"/>
<path d="M153.15 123.58C153.17 129.91 152.31 138.09 148.94 146.71C144.32 158.55 135.96 168.64 134.83 167.79C134.5 167.54 134.76 166.36 135.13 165.14L153.14 123.58H153.15Z" fill="#B2AFA1"/>
<path d="M84.96 100.59C81.63 101.14 68.01 102.99 56 94.29C50.87 90.57 47.75 86.17 45.95 83.03C49.99 86.33 55.47 90.18 62.46 93.54C71.15 97.71 79.1 99.64 84.97 100.59H84.96Z" fill="#B2AFA1"/>
<path d="M114.32 101.42C117.65 101.97 131.27 103.82 143.28 95.12C148.41 91.4 151.53 87 153.33 83.86C149.29 87.16 143.81 91.01 136.82 94.37C128.13 98.54 120.18 100.47 114.31 101.42H114.32Z" fill="#B2AFA1"/>
<defs>
<radialGradient id="paint0_radial_120_47" cx="0" cy="0" r="1" gradientUnits="userSpaceOnUse" gradientTransform="translate(78.9768 27.4298) rotate(-5.84) scale(3.9721 1.9987)">
<stop offset="0.63" stop-color="#3E3634" stop-opacity="0.72"/>
<stop offset="0.99" stop-color="white" stop-opacity="0.1"/>
</radialGradient>
<radialGradient id="paint1_radial_120_47" cx="0" cy="0" r="1" gradientUnits="userSpaceOnUse" gradientTransform="translate(88.9161 29.123) rotate(-5.84) scale(3.9721 1.9987)">
<stop offset="0.63" stop-color="#3E3634" stop-opacity="0.72"/>
<stop offset="0.99" stop-color="white" stop-opacity="0.1"/>
</radialGradient>
<radialGradient id="paint2_radial_120_47" cx="0" cy="0" r="1" gradientUnits="userSpaceOnUse" gradientTransform="translate(97.8945 25.2761) scale(3.9721 1.9987)">
<stop offset="0.63" stop-color="#3E3634" stop-opacity="0.72"/>
<stop offset="0.99" stop-color="white" stop-opacity="0.1"/>
</radialGradient>
<radialGradient id="paint3_radial_120_47" cx="0" cy="0" r="1" gradientUnits="userSpaceOnUse" gradientTransform="translate(105.952 30.022) rotate(9.99) scale(3.9721 1.9987)">
<stop offset="0.63" stop-color="#3E3634" stop-opacity="0.72"/>
<stop offset="0.99" stop-color="white" stop-opacity="0.1"/>
</radialGradient>
<radialGradient id="paint4_radial_120_47" cx="0" cy="0" r="1" gradientUnits="userSpaceOnUse" gradientTransform="translate(97.33 70.84) scale(6.04)">
<stop offset="0.36" stop-color="#7A3A1B" stop-opacity="0.72"/>
<stop offset="0.98" stop-color="#422918"/>
</radialGradient>
<radialGradient id="paint5_radial_120_47" cx="0" cy="0" r="1" gradientUnits="userSpaceOnUse" gradientTransform="translate(115.945 28.8452) rotate(20.03) scale(3.9721 1.9987)">
<stop offset="0.63" stop-color="#3E3634" stop-opacity="0.72"/>
<stop offset="0.99" stop-color="white" stop-opacity="0.1"/>
</radialGradient>
<radialGradient id="paint6_radial_120_47" cx="0" cy="0" r="1" gradientUnits="userSpaceOnUse" gradientTransform="translate(84.0809 35.8037) rotate(-8.11) scale(2.9854 2.0746)">
<stop offset="0.63" stop-color="#3E3634" stop-opacity="0.72"/>
<stop offset="0.99" stop-color="white" stop-opacity="0.1"/>
</radialGradient>
<radialGradient id="paint7_radial_120_47" cx="0" cy="0" r="1" gradientUnits="userSpaceOnUse" gradientTransform="translate(91.6535 37.5624) rotate(-8.11) scale(2.9854 2.0746)">
<stop offset="0.63" stop-color="#3E3634" stop-opacity="0.72"/>
<stop offset="0.99" stop-color="white" stop-opacity="0.1"/>
</radialGradient>
<radialGradient id="paint8_radial_120_47" cx="0" cy="0" r="1" gradientUnits="userSpaceOnUse" gradientTransform="translate(97.5762 33.6616) scale(2.9601 2.0746)">
<stop offset="0.63" stop-color="#3E3634" stop-opacity="0.72"/>
<stop offset="0.99" stop-color="white" stop-opacity="0.1"/>
</radialGradient>
<radialGradient id="paint9_radial_120_47" cx="0" cy="0" r="1" gradientUnits="userSpaceOnUse" gradientTransform="translate(106.144 39.1842) rotate(13.77) scale(3.0107 2.0493)">
<stop offset="0.63" stop-color="#3E3634" stop-opacity="0.72"/>
<stop offset="0.99" stop-color="white" stop-opacity="0.1"/>
</radialGradient>
<radialGradient id="paint10_radial_120_47" cx="0" cy="0" r="1" gradientUnits="userSpaceOnUse" gradientTransform="translate(118.558 41.126) rotate(26.91) scale(3.1119 1.9734)">
<stop offset="0.63" stop-color="#3E3634" stop-opacity="0.72"/>
<stop offset="0.99" stop-color="white" stop-opacity="0.1"/>
</radialGradient>
<radialGradient id="paint11_radial_120_47" cx="0" cy="0" r="1" gradientUnits="userSpaceOnUse" gradientTransform="translate(74.3365 20.1652) rotate(-8.25) scale(4.3769 3.1119)">
<stop offset="0.63" stop-color="#3E3634" stop-opacity="0.72"/>
<stop offset="0.99" stop-color="white" stop-opacity="0.1"/>
</radialGradient>
<radialGradient id="paint12_radial_120_47" cx="0" cy="0" r="1" gradientUnits="userSpaceOnUse" gradientTransform="translate(85.4364 22.7967) rotate(-8.25) scale(4.3769 3.1119)">
<stop offset="0.63" stop-color="#3E3634" stop-opacity="0.72"/>
<stop offset="0.99" stop-color="white" stop-opacity="0.1"/>
</radialGradient>
<radialGradient id="paint13_radial_120_47" cx="0" cy="0" r="1" gradientUnits="userSpaceOnUse" gradientTransform="translate(96.9512 16.657) scale(4.3516 3.1119)">
<stop offset="0.63" stop-color="#3E3634" stop-opacity="0.72"/>
<stop offset="0.99" stop-color="white" stop-opacity="0.1"/>
</radialGradient>
<radialGradient id="paint14_radial_120_47" cx="0" cy="0" r="1" gradientUnits="userSpaceOnUse" gradientTransform="translate(111.726 25.5279) rotate(14.02) scale(4.4022 3.0613)">
<stop offset="0.63" stop-color="#3E3634" stop-opacity="0.72"/>
<stop offset="0.99" stop-color="white" stop-opacity="0.1"/>
</radialGradient>
<radialGradient id="paint15_radial_120_47" cx="0" cy="0" r="1" gradientUnits="userSpaceOnUse" gradientTransform="translate(131.536 29.2471) rotate(27.33) scale(0.91 0.585)">
<stop offset="0.63" stop-color="#3E3634" stop-opacity="0.72"/>
<stop offset="0.99" stop-color="white" stop-opacity="0.1"/>
</radialGradient>
<radialGradient id="paint16_radial_120_47" cx="0" cy="0" r="1" gradientUnits="userSpaceOnUse" gradientTransform="translate(111.953 43.1687) rotate(178.87) scale(0.59 0.41)">
<stop offset="0.63" stop-color="#3E3634" stop-opacity="0.72"/>
<stop offset="0.99" stop-color="white" stop-opacity="0.1"/>
</radialGradient>
<radialGradient id="paint17_radial_120_47" cx="0" cy="0" r="1" gradientUnits="userSpaceOnUse" gradientTransform="translate(104.671 40.4958) rotate(178.87) scale(2.9854 2.0746)">
<stop offset="0.63" stop-color="#3E3634" stop-opacity="0.72"/>
<stop offset="0.99" stop-color="white" stop-opacity="0.1"/>
</radialGradient>
<radialGradient id="paint18_radial_120_47" cx="0" cy="0" r="1" gradientUnits="userSpaceOnUse" gradientTransform="translate(90.1233 43.4429) rotate(-173.03) scale(2.9601 2.0746)">
<stop offset="0.63" stop-color="#3E3634" stop-opacity="0.72"/>
<stop offset="0.99" stop-color="white" stop-opacity="0.1"/>
</radialGradient>
<radialGradient id="paint19_radial_120_47" cx="0" cy="0" r="1" gradientUnits="userSpaceOnUse" gradientTransform="translate(107.776 47.7434) rotate(178.65) scale(1.5939 1.3156)">
<stop offset="0.63" stop-color="#3E3634" stop-opacity="0.72"/>
<stop offset="0.99" stop-color="white" stop-opacity="0.1"/>
</radialGradient>
<radialGradient id="paint20_radial_120_47" cx="0" cy="0" r="1" gradientUnits="userSpaceOnUse" gradientTransform="translate(103.862 46.0606) rotate(178.65) scale(1.5939 1.3156)">
<stop offset="0.63" stop-color="#3E3634" stop-opacity="0.72"/>
<stop offset="0.99" stop-color="white" stop-opacity="0.1"/>
</radialGradient>
<radialGradient id="paint21_radial_120_47" cx="0" cy="0" r="1" gradientUnits="userSpaceOnUse" gradientTransform="translate(91.8284 47.8762) rotate(-171.72) scale(1.5939 1.3156)">
<stop offset="0.63" stop-color="#3E3634" stop-opacity="0.72"/>
<stop offset="0.99" stop-color="white" stop-opacity="0.1"/>
</radialGradient>
<radialGradient id="paint22_radial_120_47" cx="0" cy="0" r="1" gradientUnits="userSpaceOnUse" gradientTransform="translate(107.366 51.8146) rotate(178.64) scale(0.395 0.33)">
<stop offset="0.63" stop-color="#3E3634" stop-opacity="0.72"/>
<stop offset="0.99" stop-color="white" stop-opacity="0.1"/>
</radialGradient>
<radialGradient id="paint23_radial_120_47" cx="0" cy="0" r="1" gradientUnits="userSpaceOnUse" gradientTransform="translate(102.47 49.6656) rotate(178.64) scale(1.9987 1.6698)">
<stop offset="0.63" stop-color="#3E3634" stop-opacity="0.72"/>
<stop offset="0.99" stop-color="white" stop-opacity="0.1"/>
</radialGradient>
<radialGradient id="paint24_radial_120_47" cx="0" cy="0" r="1" gradientUnits="userSpaceOnUse" gradientTransform="translate(88.6722 51.6981) rotate(-171.67) scale(1.9987 1.6698)">
<stop offset="0.63" stop-color="#3E3634" stop-opacity="0.72"/>
<stop offset="0.99" stop-color="white" stop-opacity="0.1"/>
</radialGradient>
<radialGradient id="paint25_radial_120_47" cx="0" cy="0" r="1" gradientUnits="userSpaceOnUse" gradientTransform="translate(104.005 55.8799) rotate(178.39) scale(1.0626 1.0626)">
<stop offset="0.63" stop-color="#3E3634" stop-opacity="0.72"/>
<stop offset="0.99" stop-color="white" stop-opacity="0.1"/>
</radialGradient>
<radialGradient id="paint26_radial_120_47" cx="0" cy="0" r="1" gradientUnits="userSpaceOnUse" gradientTransform="translate(101.406 54.5129) rotate(178.39) scale(1.0626 1.0626)">
<stop offset="0.63" stop-color="#3E3634" stop-opacity="0.72"/>
<stop offset="0.99" stop-color="white" stop-opacity="0.1"/>
</radialGradient>
<radialGradient id="paint27_radial_120_47" cx="0" cy="0" r="1" gradientUnits="userSpaceOnUse" gradientTransform="translate(87.2219 55.0905) rotate(-170.12) scale(1.0626)">
<stop offset="0.63" stop-color="#3E3634" stop-opacity="0.72"/>
<stop offset="0.99" stop-color="white" stop-opacity="0.1"/>
</radialGradient>
<radialGradient id="paint28_radial_120_47" cx="0" cy="0" r="1" gradientUnits="userSpaceOnUse" gradientTransform="translate(81.19 56.75) scale(7.58 7.58)">
<stop offset="0.78" stop-color="#F3EE9E"/>
<stop offset="0.97" stop-color="#88AF6D"/>
<stop offset="0.99" stop-color="#7EA969"/>
</radialGradient>
<radialGradient id="paint29_radial_120_47" cx="0" cy="0" r="1" gradientUnits="userSpaceOnUse" gradientTransform="translate(115.11 57.52) rotate(180) scale(7.58 7.58)">
<stop offset="0.78" stop-color="#F3EE9E"/>
<stop offset="0.97" stop-color="#88AF6D"/>
<stop offset="0.99" stop-color="#7EA969"/>
</radialGradient>
<radialGradient id="paint30_radial_120_47" cx="0" cy="0" r="1" gradientUnits="userSpaceOnUse" gradientTransform="translate(37.4 27.4) scale(15.57 15.57)">
<stop offset="0.36" stop-color="#F6B8A3"/>
<stop offset="0.99" stop-color="white"/>
</radialGradient>
<radialGradient id="paint31_radial_120_47" cx="0" cy="0" r="1" gradientUnits="userSpaceOnUse" gradientTransform="translate(158.17 30.41) rotate(180) scale(15.57 15.57)">
<stop offset="0.36" stop-color="#F6B8A3"/>
<stop offset="0.99" stop-color="white"/>
</radialGradient>
</defs>
</svg>
