<svg width="143.000000" height="143.000000" viewBox="0 0 143 143" fill="none" xmlns="http://www.w3.org/2000/svg" xmlns:xlink="http://www.w3.org/1999/xlink">
	<desc>
			Created with Pixso.
	</desc>
	<defs>
		<clipPath id="clip88_811">
			<rect id="manul_tongue" width="143.000000" height="143.000000" fill="white" fill-opacity="0"/>
		</clipPath>
		<radialGradient gradientTransform="translate(70.021 54.5167) rotate(0) scale(3.0088 3.03451)" cx="0.000000" cy="0.000000" r="1.000000" id="paint_radial_88_822_0" gradientUnits="userSpaceOnUse">
			<stop offset="0.360000" stop-color="#7A3A1B" stop-opacity="0.717647"/>
			<stop offset="0.980000" stop-color="#422918"/>
		</radialGradient>
		<radialGradient gradientTransform="translate(43.0367 32.6904) rotate(0) scale(7.7576 7.82391)" cx="0.000000" cy="0.000000" r="1.000000" id="paint_radial_88_859_0" gradientUnits="userSpaceOnUse">
			<stop offset="0.360000" stop-color="#F6B8A3"/>
			<stop offset="0.990000" stop-color="#FFFFFF"/>
		</radialGradient>
		<radialGradient gradientTransform="translate(43.0367 32.6902) rotate(0) scale(7.7576 7.82391)" cx="0.000000" cy="0.000000" r="1.000000" id="paint_radial_88_862_0" gradientUnits="userSpaceOnUse">
			<stop offset="0.360000" stop-color="#F6B8A3"/>
			<stop offset="0.990000" stop-color="#FFFFFF"/>
		</radialGradient>
	</defs>
	<g clip-path="url(#clip88_811)">
		<path id="path" d="M29.14 97.07C28.88 98.04 28.91 99.79 29.13 100.79C29.55 100.22 30.02 99.68 30.43 99.14C29.52 100.87 32.64 105.28 33.72 106.78C33.62 105.7 34.11 104.64 34.42 103.62C35.31 105.98 36.44 107.53 37.74 109.66C37.79 108.69 37.68 107.66 37.88 106.75C38.73 108.63 39.31 110.61 41.15 111.66C41.36 110.93 41.42 110.18 41.53 109.43C42.87 110.16 43.92 111.53 45.35 112.06C45.26 111.68 45.46 111.16 45.37 110.77C46.29 110.83 46.89 111.83 47.76 112.08C47.94 111.3 47.82 110.4 48.19 109.71C49.07 110.6 50.07 111.46 51.25 111.87C51.35 111.41 51.79 110.88 52 110.47C52.86 110.86 53.41 111.68 54.17 112.19C54.21 111.84 54.62 111.22 54.63 110.79C55.36 111.39 56.03 112.45 57 112.47C57 112 57.31 111.54 57.28 111.08C58.19 111.79 59.23 112.93 60.43 113.07C60.55 112.54 60.87 111.99 60.9 111.43C63.51 112.63 62.49 114.27 64.81 112.26C65.24 112.84 65.56 113.58 66.03 114.18C66.66 113.97 66.94 113.34 67.46 112.98C67.84 113.39 68.28 113.79 68.71 114.1C68.86 113.63 69.34 113.29 69.54 113.01C69.67 113.58 69.99 114.1 70.43 114.36C70.9 113.74 71.22 113.07 71.91 112.68C72.12 113.2 72.63 113.42 72.94 113.69C73.13 113.23 73.46 112.32 73.94 112.1C75 111.63 74.93 112.69 75.77 112.97C76.78 113.31 76.01 113.5 77.01 113.01C77.91 112.56 77.89 111.45 78.98 111.27C79.2 111.59 79.61 112.79 80.03 112.91C80.85 113.14 80.46 112.42 81.19 112.16C82.86 111.54 82.18 112.05 83.76 113.05C83.88 112.61 84.28 112.03 84.39 111.55C84.45 111.89 84.66 112.2 84.74 112.51C85.26 111.76 85.62 110.92 86.18 110.19C86.59 110.53 86.95 111.14 87.25 111.57C87.85 110.95 88.48 111.41 88.83 112.06C89.28 111.59 89.74 111.12 90.21 110.69C90.29 110.94 90.54 111.18 90.63 111.45C91.4 111.42 92.14 111.08 92.83 110.74C93.16 113.41 95 110.64 95.03 109.25C95.75 109.91 96.19 110.82 96.81 111.56C97.29 110.5 97.93 109.24 97.6 108.09C98.32 108.94 99.11 109.8 99.7 110.72C100.59 109.89 100.82 108.66 100.97 107.51C101.37 108.62 102.01 109.62 102.56 110.66C103.13 109.49 103.67 108.29 103.7 106.96C104.49 107.63 105.54 109.48 106.74 109.32C108.48 109.09 107.81 105.2 108.11 104.25C108.45 104.88 108.86 105.42 109.46 105.78C110.69 104.91 110.33 102.39 108.97 101.67C111.54 105.28 111.71 102.34 110.79 99.68C111.23 100.33 111.82 100.85 112.45 101.3C113.33 100.21 112.65 98.72 112.34 97.59C112.52 97.65 113.11 97.86 113.11 97.86C113.3 98.02 113.49 98.19 113.67 98.36C113.45 97.94 113.24 97.45 113 97.07L112.74 96.51C112.46 95.58 112.69 94.46 113.45 93.88C114.21 93.29 115.5 93.48 115.91 94.36C115.69 92.52 115.49 90.67 115.32 88.83C116.17 89 117.05 88.95 117.88 88.69C117.1 86.85 116.51 84.93 116.11 82.97C116.93 83.44 117.87 83.71 118.81 83.76C117.87 81.56 117.09 79.29 116.47 76.98C117.33 77.1 118.19 77.22 119.05 77.34C118.39 74.68 117.73 72.01 117.08 69.34C117.87 69.2 118.71 69.35 119.4 69.77C118.23 67.82 116.73 66.07 114.99 64.63C115.61 64.56 116.24 64.49 116.86 64.42C114.65 62.05 112.44 59.68 110.24 57.32C111.37 57.58 112.64 57.18 113.41 56.29C110.53 54.49 107.47 52.97 104.29 51.77L37.79 51.61C34.61 52.81 31.55 54.33 28.67 56.13C29.45 57.02 30.71 57.42 31.84 57.16C29.64 59.53 27.43 61.89 25.22 64.26C25.84 64.33 26.47 64.4 27.09 64.47C25.35 65.91 23.85 67.66 22.68 69.61C23.37 69.19 24.21 69.04 25 69.18C24.35 71.85 23.69 74.52 23.03 77.18C23.89 77.06 24.75 76.94 25.61 76.82C24.99 79.13 24.21 81.4 23.27 83.6C24.21 83.55 25.15 83.28 25.97 82.81C25.57 84.77 24.98 86.69 24.2 88.53C25.03 88.79 25.91 88.84 26.76 88.67C26.59 90.51 26.4 92.36 26.17 94.2C26.58 93.32 27.87 93.13 28.63 93.72C29.39 94.3 29.62 95.42 29.34 96.35L29.14 97.07Z" fill="#CCC8B4" fill-opacity="1.000000" fill-rule="nonzero"/>
		<path id="path" d="M29.13 100.79C29.55 100.22 30.02 99.68 30.43 99.14C29.52 100.87 32.64 105.28 33.72 106.78C33.62 105.7 34.11 104.64 34.42 103.62C35.31 105.98 36.44 107.53 37.74 109.66C37.79 108.69 37.68 107.66 37.88 106.75C38.73 108.63 39.31 110.61 41.15 111.66C41.36 110.93 41.42 110.18 41.53 109.43C42.87 110.16 43.92 111.53 45.35 112.06C45.26 111.68 45.46 111.16 45.37 110.77C46.29 110.83 46.89 111.83 47.76 112.08C47.94 111.3 47.82 110.4 48.19 109.71C49.07 110.6 50.07 111.46 51.25 111.87C51.35 111.41 51.79 110.88 52 110.47C52.86 110.86 53.41 111.68 54.17 112.19C54.21 111.84 54.62 111.22 54.63 110.79C55.36 111.39 56.03 112.45 57 112.47C57 112 57.31 111.54 57.28 111.08C58.19 111.79 59.23 112.93 60.43 113.07C60.55 112.54 60.87 111.99 60.9 111.43C63.51 112.63 62.49 114.27 64.81 112.26C65.24 112.84 65.56 113.58 66.03 114.18C66.66 113.97 66.94 113.34 67.46 112.98C67.84 113.39 68.28 113.79 68.71 114.1C68.86 113.63 69.34 113.29 69.54 113.01C69.67 113.58 69.99 114.1 70.43 114.36C70.9 113.74 71.22 113.07 71.91 112.68C72.12 113.2 72.63 113.42 72.94 113.69C73.13 113.23 73.46 112.32 73.94 112.1C75 111.63 74.93 112.69 75.77 112.97C76.78 113.31 76.01 113.5 77.01 113.01C77.91 112.56 77.89 111.45 78.98 111.27C79.2 111.59 79.61 112.79 80.03 112.91C80.85 113.14 80.46 112.42 81.19 112.16C82.86 111.54 82.18 112.05 83.76 113.05C83.88 112.61 84.28 112.03 84.39 111.55C84.45 111.89 84.66 112.2 84.74 112.51C85.26 111.76 85.62 110.92 86.18 110.19C86.59 110.53 86.95 111.14 87.25 111.57C87.85 110.95 88.48 111.41 88.83 112.06C89.28 111.59 89.74 111.12 90.21 110.69C90.29 110.94 90.54 111.18 90.63 111.45C91.4 111.42 92.14 111.08 92.83 110.74C93.16 113.41 95 110.64 95.03 109.25C95.75 109.91 96.19 110.82 96.81 111.56C97.29 110.5 97.93 109.24 97.6 108.09C98.32 108.94 99.11 109.8 99.7 110.72C100.59 109.89 100.82 108.66 100.97 107.51C101.37 108.62 102.01 109.62 102.56 110.66C103.13 109.49 103.67 108.29 103.7 106.96C104.49 107.63 105.54 109.48 106.74 109.32C108.48 109.09 107.81 105.2 108.11 104.25C108.45 104.88 108.86 105.42 109.46 105.78C110.69 104.91 110.33 102.39 108.97 101.67C111.54 105.28 111.71 102.34 110.79 99.68C111.23 100.33 111.82 100.85 112.45 101.3C113.33 100.21 112.65 98.72 112.34 97.59C112.52 97.65 113.11 97.86 113.11 97.86C113.3 98.02 113.49 98.19 113.67 98.36C113.45 97.94 113.24 97.45 113 97.07L112.74 96.51C112.46 95.58 112.69 94.46 113.45 93.88C114.21 93.29 115.5 93.48 115.91 94.36C115.69 92.52 115.49 90.67 115.32 88.83C116.17 89 117.05 88.95 117.88 88.69C117.1 86.85 116.51 84.93 116.11 82.97C116.93 83.44 117.87 83.71 118.81 83.76C117.87 81.56 117.09 79.29 116.47 76.98C117.33 77.1 118.19 77.22 119.05 77.34C118.39 74.68 117.73 72.01 117.08 69.34C117.87 69.2 118.71 69.35 119.4 69.77C118.23 67.82 116.73 66.07 114.99 64.63C115.61 64.56 116.24 64.49 116.86 64.42C114.65 62.05 112.44 59.68 110.24 57.32C111.37 57.58 112.64 57.18 113.41 56.29C110.53 54.49 107.47 52.97 104.29 51.77L37.79 51.61C34.61 52.81 31.55 54.33 28.67 56.13C29.45 57.02 30.71 57.42 31.84 57.16C29.64 59.53 27.43 61.89 25.22 64.26C25.84 64.33 26.47 64.4 27.09 64.47C25.35 65.91 23.85 67.66 22.68 69.61C23.37 69.19 24.21 69.04 25 69.18C24.35 71.85 23.69 74.52 23.03 77.18C23.89 77.06 24.75 76.94 25.61 76.82C24.99 79.13 24.21 81.4 23.27 83.6C24.21 83.55 25.15 83.28 25.97 82.81C25.57 84.77 24.98 86.69 24.2 88.53C25.03 88.79 25.91 88.84 26.76 88.67C26.59 90.51 26.4 92.36 26.17 94.2C26.58 93.32 27.87 93.13 28.63 93.72C29.39 94.3 29.62 95.42 29.34 96.35L29.14 97.07C28.88 98.04 28.91 99.79 29.13 100.79Z" stroke="#1D1D1B" stroke-opacity="1.000000" stroke-width="0.250000"/>
		<path id="path" d="M40.55 40.69C40.55 40.69 39.63 42.42 39.08 43.86C38.53 45.3 38.23 47.94 38.23 47.94C39.2 47.34 40.17 46.73 41.15 46.13C39.32 47.78 38.42 50.42 38.85 52.85C39.59 52.02 40.32 51.19 41.06 50.36C39.82 52.1 39.26 54.33 39.53 56.45C40.08 56 40.77 55.74 41.47 55.7C40.78 57.88 40.37 60.16 40.25 62.45C40.71 62.25 41.18 62.05 41.65 61.85C40.86 63.72 40.84 65.9 41.59 67.79C42.74 66.67 44.13 65.81 45.65 65.3C45.05 66.93 45.07 68.79 45.71 70.4C47.08 69.58 48.21 68.36 48.94 66.94C48.95 68.28 49.45 69.63 50.32 70.65C51.17 69.85 52.01 69.05 52.85 68.25C52.95 69.39 53.35 70.51 54 71.45C54.85 70.62 55.7 69.78 56.55 68.95C57.41 70.27 58.28 71.58 59.15 72.89C60.34 72.43 61.3 71.39 61.68 70.16C62.33 71.13 62.97 72.1 63.62 73.07C64.11 72.19 65.34 71.99 66.27 72.36C67.2 72.72 67.9 73.5 68.56 74.25C69.37 73.23 71.12 73.19 71.97 74.19L72.46 74.97L73.12 74.19C73.97 73.19 75.72 73.23 76.53 74.25C77.19 73.5 77.89 72.72 78.82 72.36C79.75 71.99 80.98 72.19 81.47 73.07C82.12 72.1 82.76 71.13 83.41 70.16C83.79 71.39 84.75 72.43 85.94 72.89C86.81 71.58 87.68 70.27 88.54 68.95C89.39 69.79 90.24 70.62 91.09 71.45C91.74 70.51 92.14 69.39 92.24 68.25C93.08 69.05 93.92 69.85 94.77 70.65C95.64 69.62 96.14 68.28 96.15 66.94C96.88 68.36 98.01 69.58 99.38 70.4C100.02 68.79 100.04 66.93 99.44 65.3C100.96 65.81 102.35 66.67 103.5 67.79C104.25 65.9 104.23 63.72 103.44 61.85C103.91 62.05 104.37 62.25 104.84 62.45C104.72 60.16 104.31 57.88 103.62 55.7C104.32 55.74 105.01 56.01 105.56 56.45C105.83 54.33 105.27 52.1 104.03 50.36C104.77 51.19 105.5 52.03 106.24 52.85C106.67 50.41 105.77 47.78 103.94 46.13C104.92 46.73 105.89 47.34 106.86 47.94C106.86 47.94 106.89 47.5 106.27 44.23C105.66 40.95 104.65 40.57 104.65 40.57L104.65 39.65C104.77 38.43 103.96 37.18 102.81 36.79C103.08 36.63 103.35 36.46 103.62 36.3C101.93 33.89 99.79 31.23 96.87 31.2C97.14 30.82 97.4 30.43 97.67 30.05C96.87 29.74 96.01 29.58 95.16 29.57C95.63 29.2 96 28.7 96.24 28.15C94.04 28.01 91.82 27.98 89.62 28.07C89.77 27.71 89.78 27.28 89.65 26.91C89.39 26.98 89.14 27.05 88.88 27.12C88.58 26.63 88.28 26.14 87.98 25.65C87.47 26.06 86.96 26.46 86.45 26.87C86.25 26.15 87.18 25.33 86.54 24.96C86.42 25.34 85.02 26.5 84.26 26.31C83.54 26.12 83.46 24.61 83.37 24.13C82.52 26.66 80.38 26.54 80.16 24.11C80.01 24.39 79.57 25.2 79.19 25.18C78.91 25.17 78.65 24.41 78.53 24.23C78.24 24.4 77.94 24.57 77.64 24.75C77.45 24.2 77.08 23.71 76.61 23.39C76.61 23.79 76.09 24.02 75.72 23.88C75.35 23.74 75.11 23.38 74.9 23.04C74.61 23.25 74.32 23.46 74.03 23.67C73.77 23.17 73.5 22.67 73.23 22.16C73.1 22.85 72.97 23.54 72.83 24.24C72.69 23.61 72.54 22.98 72.39 22.35C72.06 22.88 71.86 23.51 71.82 24.14C71.72 23.88 70.25 22.77 70.25 22.77C70.25 22.77 68.89 23.98 68.8 24.31C68.59 23.68 68.18 23.13 67.65 22.75C67.37 23.16 66.97 23.47 66.51 23.64C66.28 23.37 66.05 23.09 65.82 22.82C65.57 23.22 65.32 23.62 65.07 24.02C64.87 23.29 64.38 22.65 63.73 22.27C63.48 23.23 62.98 24.13 62.29 24.84C62.04 24 62.03 21.05 60.98 23.73C60.77 24.18 60.45 24.58 60.04 24.87C59.9 24.52 59.75 22.53 59.18 22.74C58.92 22.83 58.24 25.06 58.01 25.14C57.97 24.78 54.4 22.76 54.37 24.56C54.33 26.37 53.31 25.72 53.12 25.81C52.24 26.24 51.43 24.82 50.45 24.88C49.91 24.92 49.49 25.42 49.37 25.94C49.24 26.47 49.34 27.03 49.44 27.56C48.86 27.11 47.94 27.43 47.53 28.04C47.11 28.66 47.06 29.45 47.08 30.19C47.09 30.65 47.09 31.17 46.75 31.46C46.51 31.66 46.17 31.67 45.86 31.68C44.77 31.7 43.68 31.72 42.59 31.75C42.97 32.35 43.36 33.1 43.05 33.75C42.53 34.84 40.61 34.49 40.09 35.58C40.65 36 41.2 36.42 41.76 36.84C40.9 37.5 40.04 38.15 39.18 38.81C39.75 38.83 40.29 39.19 40.54 39.71L40.55 40.69Z" fill="#CCC8B4" fill-opacity="1.000000" fill-rule="nonzero"/>
		<path id="path" d="M39.08 43.86C38.53 45.3 38.23 47.94 38.23 47.94C39.2 47.34 40.17 46.73 41.15 46.13C39.32 47.78 38.42 50.42 38.85 52.85C39.59 52.02 40.32 51.19 41.06 50.36C39.82 52.1 39.26 54.33 39.53 56.45C40.08 56 40.77 55.74 41.47 55.7C40.78 57.88 40.37 60.16 40.25 62.45C40.71 62.25 41.18 62.05 41.65 61.85C40.86 63.72 40.84 65.9 41.59 67.79C42.74 66.67 44.13 65.81 45.65 65.3C45.05 66.93 45.07 68.79 45.71 70.4C47.08 69.58 48.21 68.36 48.94 66.94C48.95 68.28 49.45 69.63 50.32 70.65C51.17 69.85 52.01 69.05 52.85 68.25C52.95 69.39 53.35 70.51 54 71.45C54.85 70.62 55.7 69.78 56.55 68.95C57.41 70.27 58.28 71.58 59.15 72.89C60.34 72.43 61.3 71.39 61.68 70.16C62.33 71.13 62.97 72.1 63.62 73.07C64.11 72.19 65.34 71.99 66.27 72.36C67.2 72.72 67.9 73.5 68.56 74.25C69.37 73.23 71.12 73.19 71.97 74.19L72.46 74.97L73.12 74.19C73.97 73.19 75.72 73.23 76.53 74.25C77.19 73.5 77.89 72.72 78.82 72.36C79.75 71.99 80.98 72.19 81.47 73.07C82.12 72.1 82.76 71.13 83.41 70.16C83.79 71.39 84.75 72.43 85.94 72.89C86.81 71.58 87.68 70.27 88.54 68.95C89.39 69.79 90.24 70.62 91.09 71.45C91.74 70.51 92.14 69.39 92.24 68.25C93.08 69.05 93.92 69.85 94.77 70.65C95.64 69.62 96.14 68.28 96.15 66.94C96.88 68.36 98.01 69.58 99.38 70.4C100.02 68.79 100.04 66.93 99.44 65.3C100.96 65.81 102.35 66.67 103.5 67.79C104.25 65.9 104.23 63.72 103.44 61.85C103.91 62.05 104.37 62.25 104.84 62.45C104.72 60.16 104.31 57.88 103.62 55.7C104.32 55.74 105.01 56.01 105.56 56.45C105.83 54.33 105.27 52.1 104.03 50.36C104.77 51.19 105.5 52.03 106.24 52.85C106.67 50.41 105.77 47.78 103.94 46.13C104.92 46.73 105.89 47.34 106.86 47.94C106.86 47.94 106.89 47.5 106.27 44.23C105.66 40.95 104.65 40.57 104.65 40.57L104.65 39.65C104.77 38.43 103.96 37.18 102.81 36.79C103.08 36.63 103.35 36.46 103.62 36.3C101.93 33.89 99.79 31.23 96.87 31.2C97.14 30.82 97.4 30.43 97.67 30.05C96.87 29.74 96.01 29.58 95.16 29.57C95.63 29.2 96 28.7 96.24 28.15C94.04 28.01 91.82 27.98 89.62 28.07C89.77 27.71 89.78 27.28 89.65 26.91C89.39 26.98 89.14 27.05 88.88 27.12C88.58 26.63 88.28 26.14 87.98 25.65C87.47 26.06 86.96 26.46 86.45 26.87C86.25 26.15 87.18 25.33 86.54 24.96C86.42 25.34 85.02 26.5 84.26 26.31C83.54 26.12 83.46 24.61 83.37 24.13C82.52 26.66 80.38 26.54 80.16 24.11C80.01 24.39 79.57 25.2 79.19 25.18C78.91 25.17 78.65 24.41 78.53 24.23C78.24 24.4 77.94 24.57 77.64 24.75C77.45 24.2 77.08 23.71 76.61 23.39C76.61 23.79 76.09 24.02 75.72 23.88C75.35 23.74 75.11 23.38 74.9 23.04C74.61 23.25 74.32 23.46 74.03 23.67C73.77 23.17 73.5 22.67 73.23 22.16C73.1 22.85 72.97 23.54 72.83 24.24C72.69 23.61 72.54 22.98 72.39 22.35C72.06 22.88 71.86 23.51 71.82 24.14C71.72 23.88 70.25 22.77 70.25 22.77C70.25 22.77 68.89 23.98 68.8 24.31C68.59 23.68 68.18 23.13 67.65 22.75C67.37 23.16 66.97 23.47 66.51 23.64C66.28 23.37 66.05 23.09 65.82 22.82C65.57 23.22 65.32 23.62 65.07 24.02C64.87 23.29 64.38 22.65 63.73 22.27C63.48 23.23 62.98 24.13 62.29 24.84C62.04 24 62.03 21.05 60.98 23.73C60.77 24.18 60.45 24.58 60.04 24.87C59.9 24.52 59.75 22.53 59.18 22.74C58.92 22.83 58.24 25.06 58.01 25.14C57.97 24.78 54.4 22.76 54.37 24.56C54.33 26.37 53.31 25.72 53.12 25.81C52.24 26.24 51.43 24.82 50.45 24.88C49.91 24.92 49.49 25.42 49.37 25.94C49.24 26.47 49.34 27.03 49.44 27.56C48.86 27.11 47.94 27.43 47.53 28.04C47.11 28.66 47.06 29.45 47.08 30.19C47.09 30.65 47.09 31.17 46.75 31.46C46.51 31.66 46.17 31.67 45.86 31.68C44.77 31.7 43.68 31.72 42.59 31.75C42.97 32.35 43.36 33.1 43.05 33.75C42.53 34.84 40.61 34.49 40.09 35.58C40.65 36 41.2 36.42 41.76 36.84C40.9 37.5 40.04 38.15 39.18 38.81C39.75 38.83 40.29 39.19 40.54 39.71L40.55 40.69C40.55 40.69 39.63 42.42 39.08 43.86Z" stroke="#1D1E1C" stroke-opacity="1.000000" stroke-width="0.250000"/>
		<g opacity="0.520000">
			<path id="path" d="M58.44 47.73L58.92 50.04L59.7 51.22L58.44 51.48C56.23 52.13 54.03 52.78 51.83 53.43C50.29 53.89 48.73 54.35 47.33 55.16C45.43 56.26 43.88 57.97 41.93 58.96C42.76 55.59 44.97 52.75 47.57 50.64C50.18 48.52 53.18 47.06 56.15 45.61L59.92 44.03L58.44 47.73Z" fill="#F2F2E7" fill-opacity="1.000000" fill-rule="nonzero"/>
		</g>
		<g opacity="0.520000">
			<path id="path" d="M81.7 47.99L81.22 50.3L80.44 51.47L81.71 51.74C83.91 52.39 86.11 53.04 88.32 53.69C89.86 54.14 91.41 54.6 92.81 55.42C94.71 56.52 96.26 58.23 98.21 59.21C97.38 55.84 95.17 53 92.57 50.89C89.97 48.78 86.96 47.31 83.99 45.86L80.22 44.29L81.7 47.99Z" fill="#F2F2E7" fill-opacity="1.000000" fill-rule="nonzero"/>
		</g>
		<g opacity="0.260000">
			<ellipse id="ellipse" rx="2.566849" ry="1.098717" transform="matrix(0.994613 -0.103661 0.103661 0.994613 61.4302 31.9575)" fill="#969696" fill-opacity="1.000000"/>
		</g>
		<g opacity="0.260000">
			<ellipse id="ellipse" rx="2.566847" ry="1.098717" transform="matrix(0.994613 -0.103661 0.103661 0.994613 66.3643 32.8169)" fill="#969696" fill-opacity="1.000000"/>
		</g>
		<g opacity="0.260000">
			<ellipse id="ellipse" cx="70.816010" cy="30.854492" rx="2.564469" ry="1.098717" fill="#969696" fill-opacity="1.000000"/>
		</g>
		<g opacity="0.260000">
			<ellipse id="ellipse" rx="1.098713" ry="2.566851" transform="matrix(0.176741 -0.984257 0.984257 0.176741 74.8138 33.2056)" fill="#969696" fill-opacity="1.000000"/>
		</g>
		<path id="path" d="M69.6 56.88C69.43 56.78 68.96 55.49 68.89 54.93C68.86 54.89 68.81 54.81 68.72 54.74C67.97 54.03 66.25 54.59 66.25 54.59C65.98 54.39 66.36 53.92 66.46 53.77C66.57 53.62 66.91 53.09 67.94 52.81L69.74 52.66C69.74 52.66 69.68 52.66 69.97 52.66C70.27 52.66 71.77 52.81 71.77 52.81C72.8 53.09 73.15 53.62 73.25 53.77C73.35 53.92 73.73 54.39 73.46 54.59C73.46 54.59 71.74 54.03 70.99 54.74C70.91 54.81 70.85 54.89 70.82 54.93C70.75 55.49 70.28 56.78 70.11 56.88L69.6 56.88Z" fill="url(#paint_radial_88_822_0)" fill-opacity="1.000000" fill-rule="nonzero"/>
		<path id="path" d="M68.89 54.93C68.86 54.89 68.81 54.81 68.72 54.74C67.97 54.03 66.25 54.59 66.25 54.59C65.98 54.39 66.36 53.92 66.46 53.77C66.57 53.62 66.91 53.09 67.94 52.81L69.74 52.66C69.74 52.66 69.68 52.66 69.97 52.66C70.27 52.66 71.77 52.81 71.77 52.81C72.8 53.09 73.15 53.62 73.25 53.77C73.35 53.92 73.73 54.39 73.46 54.59C73.46 54.59 71.74 54.03 70.99 54.74C70.91 54.81 70.85 54.89 70.82 54.93C70.75 55.49 70.28 56.78 70.11 56.88L69.6 56.88C69.43 56.78 68.96 55.49 68.89 54.93Z" stroke="#1D1E1C" stroke-opacity="1.000000" stroke-width="0.750000"/>
		<g opacity="0.260000">
			<ellipse id="ellipse" rx="1.096335" ry="2.569234" transform="matrix(0.348245 -0.937404 0.937404 0.348245 79.7884 32.564)" fill="#969696" fill-opacity="1.000000"/>
		</g>
		<g opacity="0.260000">
			<ellipse id="ellipse" rx="1.928116" ry="1.134465" transform="matrix(0.983666 -0.180004 0.180004 0.983666 63.6997 36.2256)" fill="#969696" fill-opacity="1.000000"/>
		</g>
		<g opacity="0.260000">
			<ellipse id="ellipse" rx="1.928116" ry="1.134465" transform="matrix(0.983666 -0.180004 0.180004 0.983666 67.3825 37.1211)" fill="#969696" fill-opacity="1.000000"/>
		</g>
		<g opacity="0.260000">
			<path id="path" d="M72.62 35.08C72.62 35.7 71.76 36.22 70.7 36.22C69.64 36.22 68.79 35.71 68.79 35.08C68.79 34.44 69.65 33.93 70.7 33.93C71.76 33.93 72.62 34.44 72.62 35.08Z" fill="#969696" fill-opacity="1.000000" fill-rule="nonzero"/>
		</g>
		<g opacity="0.520000">
			<path id="path" d="M60.03 43.77L56.26 45.34C53.29 46.79 50.28 48.26 47.68 50.37C45.08 52.48 42.87 55.32 42.04 58.69C42.76 58.33 44.31 55.02 47.09 52.84C51.87 49.08 57.87 46.86 58.84 46.57L60.03 43.77Z" fill="#7C7C7C" fill-opacity="1.000000" fill-rule="nonzero"/>
		</g>
		<g opacity="0.260000">
			<ellipse id="ellipse" rx="1.120170" ry="1.949565" transform="matrix(0.298541 -0.954397 0.954397 0.298541 73.688 37.5254)" fill="#969696" fill-opacity="1.000000"/>
		</g>
		<g opacity="0.260000">
			<ellipse id="ellipse" rx="1.070115" ry="2.042519" transform="matrix(0.533024 -0.8461 0.8461 0.533024 77.4005 36.8516)" fill="#969696" fill-opacity="1.000000"/>
		</g>
		<g opacity="0.260000">
			<ellipse id="ellipse" rx="2.831399" ry="1.694550" transform="matrix(0.982385 -0.186867 0.186867 0.982385 60.0719 28.1958)" fill="#969696" fill-opacity="1.000000"/>
		</g>
		<g opacity="0.260000">
			<ellipse id="ellipse" rx="2.831401" ry="1.694549" transform="matrix(0.982385 -0.186867 0.186867 0.982385 65.4795 29.5312)" fill="#969696" fill-opacity="1.000000"/>
		</g>
		<g opacity="0.260000">
			<path id="path" d="M73.16 26.49C73.16 27.43 71.9 28.19 70.35 28.19C68.8 28.19 67.54 27.43 67.54 26.49C67.54 25.54 68.8 24.78 70.35 24.78C71.9 24.78 73.16 25.54 73.16 26.49Z" fill="#969696" fill-opacity="1.000000" fill-rule="nonzero"/>
		</g>
		<g opacity="0.260000">
			<ellipse id="ellipse" rx="1.673097" ry="2.867149" transform="matrix(0.308519 -0.951218 0.951218 0.308519 74.7231 30.1382)" fill="#969696" fill-opacity="1.000000"/>
		</g>
		<g opacity="0.260000">
			<ellipse id="ellipse" rx="1.589686" ry="3.014916" transform="matrix(0.545371 -0.838195 0.838195 0.545371 80.1808 29.1455)" fill="#969696" fill-opacity="1.000000"/>
		</g>
		<g opacity="0.260000">
			<ellipse id="ellipse" rx="1.925730" ry="1.134466" transform="matrix(0.998421 -0.05617 0.05617 0.998421 74.0589 39.9951)" fill="#969696" fill-opacity="1.000000"/>
		</g>
		<g opacity="0.260000">
			<ellipse id="ellipse" rx="1.925730" ry="1.134466" transform="matrix(0.998421 -0.05617 0.05617 0.998421 70.5072 38.6572)" fill="#969696" fill-opacity="1.000000"/>
		</g>
		<g opacity="0.260000">
			<ellipse id="ellipse" rx="1.141619" ry="1.916199" transform="matrix(0.124641 -0.992202 0.992202 0.124641 66.963 40.269)" fill="#969696" fill-opacity="1.000000"/>
		</g>
		<g opacity="0.260000">
			<ellipse id="ellipse" rx="1.027216" ry="0.719768" transform="matrix(0.996345 -0.0854169 0.0854169 0.996345 72.4602 42.333)" fill="#969696" fill-opacity="1.000000"/>
		</g>
		<g opacity="0.260000">
			<ellipse id="ellipse" rx="1.027216" ry="0.719768" transform="matrix(0.996345 -0.0854169 0.0854169 0.996345 70.5686 41.48)" fill="#969696" fill-opacity="1.000000"/>
		</g>
		<g opacity="0.260000">
			<ellipse id="ellipse" rx="0.722150" ry="1.024834" transform="matrix(0.189781 -0.981826 0.981826 0.189781 68.683 42.499)" fill="#969696" fill-opacity="1.000000"/>
		</g>
		<g opacity="0.260000">
			<ellipse id="ellipse" rx="1.301298" ry="0.915199" transform="matrix(0.996225 -0.086808 0.086808 0.996225 73.0306 44.5049)" fill="#969696" fill-opacity="1.000000"/>
		</g>
		<g opacity="0.260000">
			<ellipse id="ellipse" rx="1.301298" ry="0.915199" transform="matrix(0.996225 -0.086808 0.086808 0.996225 70.636 43.4209)" fill="#969696" fill-opacity="1.000000"/>
		</g>
		<g opacity="0.260000">
			<ellipse id="ellipse" rx="0.917585" ry="1.298916" transform="matrix(0.192693 -0.981259 0.981259 0.192693 68.2447 44.7173)" fill="#969696" fill-opacity="1.000000"/>
		</g>
		<g opacity="0.260000">
			<ellipse id="ellipse" rx="0.695937" ry="0.579148" transform="matrix(0.985229 -0.171241 0.171241 0.985229 71.9538 46.3838)" fill="#969696" fill-opacity="1.000000"/>
		</g>
		<g opacity="0.260000">
			<ellipse id="ellipse" rx="0.695937" ry="0.579148" transform="matrix(0.985229 -0.171241 0.171241 0.985229 70.6778 45.6968)" fill="#969696" fill-opacity="1.000000"/>
		</g>
		<g opacity="0.260000">
			<ellipse id="ellipse" rx="0.574384" ry="0.700701" transform="matrix(0.360648 -0.932702 0.932702 0.360648 69.4023 46.5142)" fill="#969696" fill-opacity="1.000000"/>
		</g>
		<g opacity="0.520000">
			<path id="path" d="M79.87 43.77L83.64 45.34C86.61 46.79 89.61 48.26 92.22 50.37C94.82 52.48 97.03 55.32 97.86 58.69C97.14 58.33 95.59 55.02 92.81 52.84C88.03 49.08 82.03 46.86 81.05 46.57L79.87 43.77Z" fill="#7C7C7C" fill-opacity="1.000000" fill-rule="nonzero"/>
		</g>
		<g opacity="0.520000">
			<path id="path" d="M80.99 50.86L80.33 51.63L81.59 51.9C83.8 52.55 86 53.2 88.2 53.85C89.74 54.3 91.3 54.76 92.7 55.58C94.59 56.68 96.15 58.39 98.1 59.37C97.87 58.75 97.03 58.19 96.37 57.59C92.18 53.71 81.04 50.31 80.99 50.86Z" fill="#7C7C7C" fill-opacity="1.000000" fill-rule="nonzero"/>
		</g>
		<g opacity="0.520000">
			<path id="path" d="M59.15 50.54L59.81 51.31L58.55 51.58C56.34 52.23 54.14 52.88 51.94 53.53C50.4 53.98 48.84 54.44 47.44 55.26C45.55 56.36 43.99 58.07 42.04 59.05C42.27 58.43 43.11 57.87 43.77 57.26C47.96 53.39 59.1 49.99 59.15 50.54Z" fill="#7C7C7C" fill-opacity="1.000000" fill-rule="nonzero"/>
		</g>
		<ellipse id="ellipse" cx="61.840332" cy="47.674316" rx="3.148383" ry="4.356733" fill="#DBF784" fill-opacity="1.000000"/>
		<ellipse id="ellipse" cx="61.840332" cy="47.674316" rx="3.148383" ry="4.356733" stroke="#1D1E1C" stroke-opacity="1.000000" stroke-width="0.500000"/>
		<ellipse id="ellipse" cx="62.233612" cy="47.354492" rx="2.824252" ry="3.131700" fill="#000000" fill-opacity="1.000000"/>
		<ellipse id="ellipse" cx="78.700012" cy="48.057617" rx="3.148381" ry="4.356733" fill="#DBF784" fill-opacity="1.000000"/>
		<ellipse id="ellipse" cx="78.700012" cy="48.057617" rx="3.148381" ry="4.356733" stroke="#1D1E1C" stroke-opacity="1.000000" stroke-width="0.500000"/>
		<ellipse id="ellipse" cx="78.306793" cy="47.738281" rx="2.824252" ry="3.131700" fill="#000000" fill-opacity="1.000000"/>
		<path id="path" d="M47.27 27.79C48.67 28.68 49.76 29.67 50.58 30.54C50.61 30.83 50.64 31.13 50.67 31.43C50.59 31.25 50.49 31.06 50.35 30.92C50.2 30.78 49.99 30.7 49.8 30.76C50.05 31.43 50.3 32.1 50.56 32.77C49.7 32.44 49.27 31.43 48.44 31.06C48.69 31.52 48.81 32.06 48.77 32.58C48.34 32.12 47.83 31.73 47.26 31.46C47.5 32.22 47.78 32.95 48.11 33.67C47.54 33.12 46.96 32.56 46.39 32.01C46.55 32.73 46.67 33.45 46.76 34.18C46.14 33.66 45.52 33.13 44.91 32.6C45.41 33.4 45.92 34.19 46.43 34.98C45.88 34.61 45.37 34.19 44.89 33.74C45.26 34.4 45.54 35.11 45.71 35.85C45.19 35.48 44.63 35.1 43.99 35.11C44.06 35.44 44.12 35.76 44.18 36.09C43.95 35.92 43.7 35.79 43.43 35.71C43.63 36.26 43.82 36.81 44.02 37.36C43.59 36.94 43.13 36.55 42.64 36.2C42.82 36.52 42.93 36.89 42.95 37.26C42.96 37.44 42.88 37.69 42.7 37.66C42.77 38.27 42.74 38.88 42.61 39.48C42.36 39.24 42.01 39.11 41.67 39.1C41.63 39.1 41.59 39.1 41.57 39.13C41.53 39.17 41.53 39.23 41.55 39.29C41.61 39.56 41.67 39.84 41.73 40.12C41.56 40.03 41.4 39.95 41.24 39.86C41.18 39.83 41.11 39.81 41.06 39.85C41.04 39.88 41.04 39.91 41.03 39.94C41 40.23 40.95 40.44 40.91 40.73C37.68 39.29 35.83 36.28 35.28 33.01C34.74 29.78 36.41 26.09 39.47 25.05C39.47 25.05 39.49 25.06 39.53 25.08C41.33 25.27 44.27 25.86 47.27 27.79Z" fill="url(#paint_radial_88_859_0)" fill-opacity="1.000000" fill-rule="nonzero"/>
		<path id="path" d="M50.58 30.54C50.61 30.83 50.64 31.13 50.67 31.43C50.59 31.25 50.49 31.06 50.35 30.92C50.2 30.78 49.99 30.7 49.8 30.76C50.05 31.43 50.3 32.1 50.56 32.77C49.7 32.44 49.27 31.43 48.44 31.06C48.69 31.52 48.81 32.06 48.77 32.58C48.34 32.12 47.83 31.73 47.26 31.46C47.5 32.22 47.78 32.95 48.11 33.67C47.54 33.12 46.96 32.56 46.39 32.01C46.55 32.73 46.67 33.45 46.76 34.18C46.14 33.66 45.52 33.13 44.91 32.6C45.41 33.4 45.92 34.19 46.43 34.98C45.88 34.61 45.37 34.19 44.89 33.74C45.26 34.4 45.54 35.11 45.71 35.85C45.19 35.48 44.63 35.1 43.99 35.11C44.06 35.44 44.12 35.76 44.18 36.09C43.95 35.92 43.7 35.79 43.43 35.71C43.63 36.26 43.82 36.81 44.02 37.36C43.59 36.94 43.13 36.55 42.64 36.2C42.82 36.52 42.93 36.89 42.95 37.26C42.96 37.44 42.88 37.69 42.7 37.66C42.77 38.27 42.74 38.88 42.61 39.48C42.36 39.24 42.01 39.11 41.67 39.1C41.63 39.1 41.59 39.1 41.57 39.13C41.53 39.17 41.53 39.23 41.55 39.29C41.61 39.56 41.67 39.84 41.73 40.12C41.56 40.03 41.4 39.95 41.24 39.86C41.18 39.83 41.11 39.81 41.06 39.85C41.04 39.88 41.04 39.91 41.03 39.94C41 40.23 40.95 40.44 40.91 40.73C37.68 39.29 35.83 36.28 35.28 33.01C34.74 29.78 36.41 26.09 39.47 25.05C39.47 25.05 39.49 25.06 39.53 25.08C41.33 25.27 44.27 25.86 47.27 27.79C48.67 28.68 49.76 29.67 50.58 30.54Z" stroke="#1D1E1C" stroke-opacity="1.000000" stroke-width="0.250000"/>
		<path id="path" d="M40.04 24.79L42.28 25.33C43.65 25.76 45.4 26.47 47.27 27.64C48.73 28.56 49.89 29.54 50.77 30.4C50.95 30.05 51.32 29.47 51.98 28.97C52.45 28.62 52.91 28.43 53.23 28.33C53.88 28.21 54.52 28.09 55.17 27.97C51.27 25.73 46.79 24.54 42.31 24.55C41.68 24.55 39.79 24.8 39.48 24.9L40.04 24.79Z" fill="#CCC8B4" fill-opacity="1.000000" fill-rule="nonzero"/>
		<path id="path" d="M40.04 24.79L42.28 25.33C43.65 25.76 45.4 26.47 47.27 27.64C48.73 28.56 49.89 29.54 50.77 30.4C50.95 30.05 51.32 29.47 51.98 28.97C52.45 28.62 52.91 28.43 53.23 28.33C53.88 28.21 54.52 28.09 55.17 27.97C51.27 25.73 46.79 24.54 42.31 24.55C41.68 24.55 39.79 24.8 39.48 24.9" stroke="#1D1E1C" stroke-opacity="1.000000" stroke-width="0.250000"/>
		<path id="path" d="M95.04 29.54C93.64 30.44 92.55 31.42 91.73 32.29C91.7 32.59 91.67 32.89 91.64 33.18C91.73 33 91.82 32.81 91.97 32.68C92.11 32.54 92.33 32.45 92.52 32.52C92.27 33.18 92.01 33.85 91.76 34.52C92.61 34.2 93.04 33.18 93.88 32.82C93.63 33.28 93.51 33.81 93.54 34.33C93.97 33.87 94.49 33.49 95.06 33.21C94.82 33.97 94.53 34.71 94.21 35.43C94.78 34.87 95.35 34.32 95.92 33.76C95.77 34.48 95.65 35.21 95.55 35.94C96.17 35.41 96.79 34.88 97.41 34.36C96.9 35.15 96.4 35.94 95.89 36.73C96.43 36.36 96.95 35.95 97.43 35.49C97.05 36.15 96.78 36.86 96.61 37.6C97.13 37.24 97.69 36.85 98.32 36.87C98.26 37.19 98.2 37.52 98.14 37.84C98.36 37.67 98.62 37.55 98.88 37.47C98.69 38.02 98.49 38.56 98.3 39.12C98.73 38.69 99.19 38.3 99.68 37.95C99.49 38.28 99.38 38.64 99.37 39.01C99.36 39.19 99.44 39.44 99.61 39.42C99.55 40.02 99.58 40.64 99.7 41.23C99.96 41 100.3 40.86 100.65 40.86C100.68 40.86 100.72 40.86 100.75 40.88C100.79 40.92 100.78 40.99 100.77 41.04C100.71 41.32 100.65 41.6 100.59 41.87C100.75 41.79 100.92 41.7 101.08 41.62C101.13 41.59 101.21 41.56 101.25 41.61C101.28 41.63 101.28 41.66 101.28 41.69C101.32 41.98 101.37 42.2 101.4 42.49C104.63 41.04 106.49 38.03 107.04 34.76C107.57 31.54 105.9 27.84 102.84 26.81C102.84 26.81 102.82 26.81 102.78 26.83C100.99 27.03 98.05 27.61 95.04 29.54Z" fill="url(#paint_radial_88_862_0)" fill-opacity="1.000000" fill-rule="nonzero"/>
		<path id="path" d="M91.73 32.29C91.7 32.59 91.67 32.89 91.64 33.18C91.73 33 91.82 32.81 91.97 32.68C92.11 32.54 92.33 32.45 92.52 32.52C92.27 33.18 92.01 33.85 91.76 34.52C92.61 34.2 93.04 33.18 93.88 32.82C93.63 33.28 93.51 33.81 93.54 34.33C93.97 33.87 94.49 33.49 95.06 33.21C94.82 33.97 94.53 34.71 94.21 35.43C94.78 34.87 95.35 34.32 95.92 33.76C95.77 34.48 95.65 35.21 95.55 35.94C96.17 35.41 96.79 34.88 97.41 34.36C96.9 35.15 96.4 35.94 95.89 36.73C96.43 36.36 96.95 35.95 97.43 35.49C97.05 36.15 96.78 36.86 96.61 37.6C97.13 37.24 97.69 36.85 98.32 36.87C98.26 37.19 98.2 37.52 98.14 37.84C98.36 37.67 98.62 37.55 98.88 37.47C98.69 38.02 98.49 38.56 98.3 39.12C98.73 38.69 99.19 38.3 99.68 37.95C99.49 38.28 99.38 38.64 99.37 39.01C99.36 39.19 99.44 39.44 99.61 39.42C99.55 40.02 99.58 40.64 99.7 41.23C99.96 41 100.3 40.86 100.65 40.86C100.68 40.86 100.72 40.86 100.75 40.88C100.79 40.92 100.78 40.99 100.77 41.04C100.71 41.32 100.65 41.6 100.59 41.87C100.75 41.79 100.92 41.7 101.08 41.62C101.13 41.59 101.21 41.56 101.25 41.61C101.28 41.63 101.28 41.66 101.28 41.69C101.32 41.98 101.37 42.2 101.4 42.49C104.63 41.04 106.49 38.03 107.04 34.76C107.57 31.54 105.9 27.84 102.84 26.81C102.84 26.81 102.82 26.81 102.78 26.83C100.99 27.03 98.05 27.61 95.04 29.54C93.64 30.44 92.55 31.42 91.73 32.29Z" stroke="#1D1E1C" stroke-opacity="1.000000" stroke-width="0.250000"/>
		<path id="path" d="M102.28 26.55L100.04 27.09C98.67 27.52 96.92 28.22 95.05 29.39C93.59 30.32 92.43 31.3 91.55 32.15C91.37 31.81 91 31.22 90.34 30.72C89.87 30.37 89.41 30.18 89.09 30.08C88.44 29.96 87.8 29.84 87.15 29.72C91.05 27.48 95.53 26.29 100.01 26.3C100.64 26.3 102.53 26.55 102.84 26.65L102.28 26.55Z" fill="#CCC8B4" fill-opacity="1.000000" fill-rule="nonzero"/>
		<path id="path" d="M102.28 26.55L100.04 27.09C98.67 27.52 96.92 28.22 95.05 29.39C93.59 30.32 92.43 31.3 91.55 32.15C91.37 31.81 91 31.22 90.34 30.72C89.87 30.37 89.41 30.18 89.09 30.08C88.44 29.96 87.8 29.84 87.15 29.72C91.05 27.48 95.53 26.29 100.01 26.3C100.64 26.3 102.53 26.55 102.84 26.65" stroke="#1D1E1C" stroke-opacity="1.000000" stroke-width="0.250000"/>
		<path id="path" d="M117.3 108.76C117.3 110.98 115.31 112.78 112.85 112.78C112.19 112.78 111.56 112.65 110.99 112.41C109.97 114.02 108.26 116.36 107.31 116.97C105.8 117.93 103.8 118.24 102.05 117.78C100.9 117.47 100.53 116.6 100.03 115.66C99.76 115.16 99.33 114.52 98.84 114.19C98.34 113.86 97.6 113.68 97.02 113.54C95.81 113.23 93.94 112.87 93.26 111.78C92.87 111.14 92.78 110.35 92.69 109.64C92.64 109.23 92.49 107.75 93.48 106.29C94.29 105.1 95.7 103.48 96.93 102.89C96.22 102.17 95.78 101.23 95.78 100.18C95.78 97.97 97.77 96.17 100.23 96.17C101.67 96.17 102.95 96.79 103.77 97.76C104.45 97.38 105.25 97.15 106.11 97.15C108.1 97.15 109.79 98.34 110.35 99.97C110.82 99.82 111.33 99.73 111.86 99.73C114.31 99.73 116.3 101.53 116.3 103.75C116.3 104.46 116.1 105.13 115.74 105.7C116.7 106.44 117.3 107.54 117.3 108.76Z" fill="#CCC8B4" fill-opacity="1.000000" fill-rule="nonzero"/>
		<path id="path" d="M112.85 112.78C112.19 112.78 111.56 112.65 110.99 112.41C109.97 114.02 108.26 116.36 107.31 116.97C105.8 117.93 103.8 118.24 102.05 117.78C100.9 117.47 100.53 116.6 100.03 115.66C99.76 115.16 99.33 114.52 98.84 114.19C98.34 113.86 97.6 113.68 97.02 113.54C95.81 113.23 93.94 112.87 93.26 111.78C92.87 111.14 92.78 110.35 92.69 109.64C92.64 109.23 92.49 107.75 93.48 106.29C94.29 105.1 95.7 103.48 96.93 102.89C96.22 102.17 95.78 101.23 95.78 100.18C95.78 97.97 97.77 96.17 100.23 96.17C101.67 96.17 102.95 96.79 103.77 97.76C104.45 97.38 105.25 97.15 106.11 97.15C108.1 97.15 109.79 98.34 110.35 99.97C110.82 99.82 111.33 99.73 111.86 99.73C114.31 99.73 116.3 101.53 116.3 103.75C116.3 104.46 116.1 105.13 115.74 105.7C116.7 106.44 117.3 107.54 117.3 108.76C117.3 110.98 115.31 112.78 112.85 112.78Z" stroke="#1D1E1C" stroke-opacity="1.000000" stroke-width="0.250000"/>
		<path id="path" d="M106.9 110.68C106.47 112.65 104.56 114.94 102.71 114.56C101.63 114.34 100.98 113.3 100.65 112.58C100.46 112.17 100.07 111.86 99.61 111.79C98.11 111.57 96.88 110.89 96.55 109.93C95.95 108.22 98.31 106.18 100.16 105.56C101.06 105.26 102.03 105.22 102.28 105.21C102.84 105.2 103.91 105.16 104.75 105.53C106.44 106.26 107.35 108.67 106.9 110.68Z" fill="#F2A0AE" fill-opacity="1.000000" fill-rule="nonzero"/>
		<path id="path" d="M102.71 114.56C101.63 114.34 100.98 113.3 100.65 112.58C100.46 112.17 100.07 111.86 99.61 111.79C98.11 111.57 96.88 110.89 96.55 109.93C95.95 108.22 98.31 106.18 100.16 105.56C101.06 105.26 102.03 105.22 102.28 105.21C102.84 105.2 103.91 105.16 104.75 105.53C106.44 106.26 107.35 108.67 106.9 110.68C106.47 112.65 104.56 114.94 102.71 114.56Z" stroke="#1D1E1C" stroke-opacity="1.000000" stroke-width="0.250000"/>
		<ellipse id="ellipse" cx="100.436066" cy="100.507812" rx="2.288002" ry="1.949565" fill="#F2A0AE" fill-opacity="1.000000"/>
		<ellipse id="ellipse" cx="100.436066" cy="100.507812" rx="2.288002" ry="1.949565" stroke="#1D1E1C" stroke-opacity="1.000000" stroke-width="0.250000"/>
		<ellipse id="ellipse" cx="106.115509" cy="101.435059" rx="2.288002" ry="1.949565" fill="#F2A0AE" fill-opacity="1.000000"/>
		<ellipse id="ellipse" cx="106.115509" cy="101.435059" rx="2.288002" ry="1.949565" stroke="#1D1E1C" stroke-opacity="1.000000" stroke-width="0.250000"/>
		<ellipse id="ellipse" cx="111.292145" cy="104.020996" rx="2.288002" ry="1.949565" fill="#F2A0AE" fill-opacity="1.000000"/>
		<ellipse id="ellipse" cx="111.292145" cy="104.020996" rx="2.288002" ry="1.949565" stroke="#1D1E1C" stroke-opacity="1.000000" stroke-width="0.250000"/>
		<ellipse id="ellipse" cx="112.610138" cy="108.563477" rx="2.288002" ry="1.949565" fill="#F2A0AE" fill-opacity="1.000000"/>
		<ellipse id="ellipse" cx="112.610138" cy="108.563477" rx="2.288002" ry="1.949565" stroke="#1D1E1C" stroke-opacity="1.000000" stroke-width="0.250000"/>
		<path id="path" d="M96.95 76.92C98.2 79.4 99.37 81.92 100.46 84.48C100.14 84.74 99.73 84.89 99.33 84.89C99.53 85.19 99.74 85.5 99.76 85.86C99.77 86.22 99.5 86.61 99.14 86.58C99.32 87.94 98.78 89.37 97.75 90.26C97.92 90.74 98.09 91.24 97.99 91.73C97.88 92.22 97.39 92.66 96.92 92.51C97.48 93.44 97.02 94.84 96.02 95.25C96.03 96.12 95.92 97.01 95.7 97.86C95.45 97.52 95.19 97.19 94.93 96.85C94.93 97.87 94.72 98.88 94.3 99.8C94.09 99.55 93.87 99.3 93.65 99.05C93.59 99.87 93.52 100.69 93.46 101.51C92.92 101.43 92.41 101.25 91.93 101C91.83 101.95 91.34 103.2 90.43 102.97C90.81 103.53 90.18 104.41 89.54 104.24C89.48 104.61 87.18 105.95 87.12 106.33C86.9 106.31 84.56 107.06 84.34 107.04C84.3 107.13 88.05 105.77 89.48 106.24C90.91 106.7 91.88 107.79 92.04 107.93C93.11 108.92 93.09 110.66 92.55 112.02C91.72 114.15 89.8 115.8 87.59 116.3C85.45 116.77 83.23 116.21 81.11 115.65C79.26 115.16 77.41 114.67 75.56 114.19C74.92 114.02 74.28 113.85 73.75 113.45C72.45 112.49 72.31 110.61 72.31 108.97L96.95 76.92Z" fill="#CCC8B4" fill-opacity="1.000000" fill-rule="nonzero"/>
		<path id="path" d="M96.95 76.92C98.2 79.4 99.37 81.92 100.46 84.48C100.14 84.74 99.73 84.89 99.33 84.89C99.53 85.19 99.74 85.5 99.76 85.86C99.77 86.22 99.5 86.61 99.14 86.58C99.32 87.94 98.78 89.37 97.75 90.26C97.92 90.74 98.09 91.24 97.99 91.73C97.88 92.22 97.39 92.66 96.92 92.51C97.48 93.44 97.02 94.84 96.02 95.25C96.03 96.12 95.92 97.01 95.7 97.86C95.45 97.52 95.19 97.19 94.93 96.85C94.93 97.87 94.72 98.88 94.3 99.8C94.09 99.55 93.87 99.3 93.65 99.05C93.59 99.87 93.52 100.69 93.46 101.51C92.92 101.43 92.41 101.25 91.93 101C91.83 101.95 91.34 103.2 90.43 102.97C90.81 103.53 90.18 104.41 89.54 104.24C89.48 104.61 87.18 105.95 87.12 106.33C86.9 106.31 84.56 107.06 84.34 107.04C84.3 107.13 88.05 105.77 89.48 106.24C90.91 106.7 91.88 107.79 92.04 107.93C93.11 108.92 93.09 110.66 92.55 112.02C91.72 114.15 89.8 115.8 87.59 116.3C85.45 116.77 83.23 116.21 81.11 115.65C79.26 115.16 77.41 114.67 75.56 114.19C74.92 114.02 74.28 113.85 73.75 113.45C72.45 112.49 72.31 110.61 72.31 108.97" stroke="#1D1E1C" stroke-opacity="1.000000" stroke-width="0.250000"/>
		<path id="path" d="M82.76 113.91C83.36 115.74 84.76 117.06 86.28 117.19C87.33 117.27 88.8 116.62 89.7 115.63C90.49 114.77 90.76 113.57 90.82 113.31C91.04 112.37 90.98 111.1 90.72 110.25C90.11 108.23 88.2 107.21 85.46 108.52L82.76 113.91Z" fill="#CCC8B4" fill-opacity="1.000000" fill-rule="nonzero"/>
		<path id="path" d="M82.76 113.91C83.36 115.74 84.76 117.06 86.28 117.19C87.33 117.27 88.8 116.62 89.7 115.63C90.49 114.77 90.76 113.57 90.82 113.31C91.04 112.37 90.98 111.1 90.72 110.25C90.11 108.23 88.2 107.21 85.46 108.52" stroke="#1D1E1C" stroke-opacity="1.000000" stroke-width="0.250000"/>
		<path id="path" d="M78.66 115.06C79.26 116.9 80.66 118.22 82.18 118.34C83.23 118.42 84.7 117.78 85.6 116.79C86.39 115.92 86.66 114.72 86.72 114.46C86.94 113.52 86.88 112.25 86.62 111.4C86.01 109.39 84.1 108.37 81.36 109.68L78.66 115.06Z" fill="#CCC8B4" fill-opacity="1.000000" fill-rule="nonzero"/>
		<path id="path" d="M78.66 115.06C79.26 116.9 80.66 118.22 82.18 118.34C83.23 118.42 84.7 117.78 85.6 116.79C86.39 115.92 86.66 114.72 86.72 114.46C86.94 113.52 86.88 112.25 86.62 111.4C86.01 109.39 84.1 108.37 81.36 109.68" stroke="#1D1E1C" stroke-opacity="1.000000" stroke-width="0.250000"/>
		<path id="path" d="M28.33 108.76C28.33 110.98 30.32 112.78 32.77 112.78C33.44 112.78 34.06 112.65 34.63 112.41C35.65 114.02 37.36 116.36 38.31 116.97C39.82 117.93 41.83 118.24 43.57 117.78C44.72 117.47 45.09 116.6 45.59 115.66C45.86 115.16 46.29 114.52 46.78 114.19C47.28 113.86 48.03 113.68 48.61 113.54C49.82 113.23 51.69 112.87 52.36 111.78C52.75 111.14 52.85 110.35 52.93 109.64C52.98 109.23 53.14 107.75 52.14 106.29C51.33 105.1 49.93 103.48 48.69 102.89C49.4 102.17 49.84 101.23 49.84 100.18C49.84 97.97 47.85 96.17 45.4 96.17C43.95 96.17 42.67 96.79 41.86 97.76C41.18 97.38 40.38 97.15 39.51 97.15C37.52 97.15 35.83 98.34 35.27 99.97C34.8 99.82 34.3 99.73 33.77 99.73C31.31 99.73 29.32 101.53 29.32 103.75C29.32 104.46 29.53 105.13 29.88 105.7C28.93 106.44 28.33 107.54 28.33 108.76Z" fill="#CCC8B4" fill-opacity="1.000000" fill-rule="nonzero"/>
		<path id="path" d="M32.77 112.78C33.44 112.78 34.06 112.65 34.63 112.41C35.65 114.02 37.36 116.36 38.31 116.97C39.82 117.93 41.83 118.24 43.57 117.78C44.72 117.47 45.09 116.6 45.59 115.66C45.86 115.16 46.29 114.52 46.78 114.19C47.28 113.86 48.03 113.68 48.61 113.54C49.82 113.23 51.69 112.87 52.36 111.78C52.75 111.14 52.85 110.35 52.93 109.64C52.98 109.23 53.14 107.75 52.14 106.29C51.33 105.1 49.93 103.48 48.69 102.89C49.4 102.17 49.84 101.23 49.84 100.18C49.84 97.97 47.85 96.17 45.4 96.17C43.95 96.17 42.67 96.79 41.86 97.76C41.18 97.38 40.38 97.15 39.51 97.15C37.52 97.15 35.83 98.34 35.27 99.97C34.8 99.82 34.3 99.73 33.77 99.73C31.31 99.73 29.32 101.53 29.32 103.75C29.32 104.46 29.53 105.13 29.88 105.7C28.93 106.44 28.33 107.54 28.33 108.76C28.33 110.98 30.32 112.78 32.77 112.78Z" stroke="#1D1E1C" stroke-opacity="1.000000" stroke-width="0.250000"/>
		<path id="path" d="M38.72 110.68C39.16 112.65 41.06 114.94 42.92 114.56C43.99 114.34 44.64 113.3 44.98 112.58C45.16 112.17 45.55 111.86 46.02 111.79C47.52 111.57 48.74 110.89 49.08 109.93C49.68 108.22 47.31 106.18 45.47 105.56C44.57 105.26 43.59 105.22 43.35 105.21C42.78 105.2 41.71 105.16 40.87 105.53C39.18 106.26 38.27 108.67 38.72 110.68Z" fill="#F2A0AE" fill-opacity="1.000000" fill-rule="nonzero"/>
		<path id="path" d="M42.92 114.56C43.99 114.34 44.64 113.3 44.98 112.58C45.16 112.17 45.55 111.86 46.02 111.79C47.52 111.57 48.74 110.89 49.08 109.93C49.68 108.22 47.31 106.18 45.47 105.56C44.57 105.26 43.59 105.22 43.35 105.21C42.78 105.2 41.71 105.16 40.87 105.53C39.18 106.26 38.27 108.67 38.72 110.68C39.16 112.65 41.06 114.94 42.92 114.56Z" stroke="#1D1E1C" stroke-opacity="1.000000" stroke-width="0.250000"/>
		<ellipse id="ellipse" cx="45.197540" cy="100.507812" rx="2.288002" ry="1.949565" fill="#F2A0AE" fill-opacity="1.000000"/>
		<ellipse id="ellipse" cx="45.197540" cy="100.507812" rx="2.288002" ry="1.949565" stroke="#1D1E1C" stroke-opacity="1.000000" stroke-width="0.250000"/>
		<ellipse id="ellipse" cx="39.518036" cy="101.435059" rx="2.288002" ry="1.949565" fill="#F2A0AE" fill-opacity="1.000000"/>
		<ellipse id="ellipse" cx="39.518036" cy="101.435059" rx="2.288002" ry="1.949565" stroke="#1D1E1C" stroke-opacity="1.000000" stroke-width="0.250000"/>
		<ellipse id="ellipse" cx="34.341461" cy="104.020996" rx="2.288002" ry="1.949565" fill="#F2A0AE" fill-opacity="1.000000"/>
		<ellipse id="ellipse" cx="34.341461" cy="104.020996" rx="2.288002" ry="1.949565" stroke="#1D1E1C" stroke-opacity="1.000000" stroke-width="0.250000"/>
		<ellipse id="ellipse" cx="33.025848" cy="108.563477" rx="2.288002" ry="1.949565" fill="#F2A0AE" fill-opacity="1.000000"/>
		<ellipse id="ellipse" cx="33.025848" cy="108.563477" rx="2.288002" ry="1.949565" stroke="#1D1E1C" stroke-opacity="1.000000" stroke-width="0.250000"/>
		<path id="path" d="M73.06 89.14C72 96.03 72.44 103.05 72.46 110.02C72.46 111.65 72.32 113.54 71.02 114.5C70.49 114.89 69.84 115.07 69.21 115.23C67.36 115.72 65.51 116.21 63.66 116.7C61.54 117.26 59.32 117.82 57.18 117.34C54.97 116.85 53.05 115.19 52.21 113.06C51.68 111.7 51.66 109.96 52.73 108.98C52.88 108.84 53.85 107.75 55.29 107.28C56.72 106.81 60.47 108.17 60.43 108.08C60.21 108.1 57.87 107.35 57.65 107.37C57.59 107 55.29 105.66 55.23 105.28C54.59 105.46 53.96 104.57 54.34 104.02C53.43 104.25 52.93 102.99 52.84 102.05C52.36 102.3 51.84 102.47 51.31 102.55C51.25 101.73 51.18 100.91 51.12 100.09C50.9 100.34 50.68 100.6 50.46 100.85C50.05 99.93 49.84 98.91 49.84 97.9C49.58 98.23 49.32 98.57 49.06 98.9C48.84 98.05 48.74 97.17 48.75 96.29C47.75 95.89 47.29 94.49 47.85 93.56C47.38 93.71 46.89 93.27 46.78 92.78C46.68 92.28 46.85 91.78 47.02 91.31C45.99 90.41 45.45 88.98 45.62 87.62C45.27 87.66 44.99 87.27 45.01 86.91C45.03 86.55 45.24 86.23 45.44 85.94C45.04 85.94 44.63 85.79 44.31 85.53C45.4 82.97 46.57 80.45 47.82 77.97L73.06 89.14Z" fill="#CCC8B4" fill-opacity="1.000000" fill-rule="nonzero"/>
		<path id="path" d="M73.06 89.14C72 96.03 72.44 103.05 72.46 110.02C72.46 111.65 72.32 113.54 71.02 114.5C70.49 114.89 69.84 115.07 69.21 115.23C67.36 115.72 65.51 116.21 63.66 116.7C61.54 117.26 59.32 117.82 57.18 117.34C54.97 116.85 53.05 115.19 52.21 113.06C51.68 111.7 51.66 109.96 52.73 108.98C52.88 108.84 53.85 107.75 55.29 107.28C56.72 106.81 60.47 108.17 60.43 108.08C60.21 108.1 57.87 107.35 57.65 107.37C57.59 107 55.29 105.66 55.23 105.28C54.59 105.46 53.96 104.57 54.34 104.02C53.43 104.25 52.93 102.99 52.84 102.05C52.36 102.3 51.84 102.47 51.31 102.55C51.25 101.73 51.18 100.91 51.12 100.09C50.9 100.34 50.68 100.6 50.46 100.85C50.05 99.93 49.84 98.91 49.84 97.9C49.58 98.23 49.32 98.57 49.06 98.9C48.84 98.05 48.74 97.17 48.75 96.29C47.75 95.89 47.29 94.49 47.85 93.56C47.38 93.71 46.89 93.27 46.78 92.78C46.68 92.28 46.85 91.78 47.02 91.31C45.99 90.41 45.45 88.98 45.62 87.62C45.27 87.66 44.99 87.27 45.01 86.91C45.03 86.55 45.24 86.23 45.44 85.94C45.04 85.94 44.63 85.79 44.31 85.53C45.4 82.97 46.57 80.45 47.82 77.97" stroke="#1D1E1C" stroke-opacity="1.000000" stroke-width="0.250000"/>
		<path id="path" d="M62.01 114.96C61.41 116.79 60.01 118.11 58.49 118.23C57.44 118.32 55.97 117.67 55.08 116.68C54.29 115.82 54.01 114.62 53.95 114.36C53.73 113.42 53.79 112.15 54.05 111.3C54.67 109.28 56.57 108.26 59.31 109.57L62.01 114.96Z" fill="#CCC8B4" fill-opacity="1.000000" fill-rule="nonzero"/>
		<path id="path" d="M62.01 114.96C61.41 116.79 60.01 118.11 58.49 118.23C57.44 118.32 55.97 117.67 55.08 116.68C54.29 115.82 54.01 114.62 53.95 114.36C53.73 113.42 53.79 112.15 54.05 111.3C54.67 109.28 56.57 108.26 59.31 109.57" stroke="#1D1E1C" stroke-opacity="1.000000" stroke-width="0.250000"/>
		<path id="path" d="M66.11 116.11C65.51 117.94 64.11 119.27 62.59 119.39C61.54 119.47 60.07 118.82 59.17 117.84C58.38 116.97 58.11 115.77 58.05 115.51C57.83 114.57 57.89 113.3 58.15 112.45C58.76 110.43 60.67 109.42 63.41 110.72L66.11 116.11Z" fill="#CCC8B4" fill-opacity="1.000000" fill-rule="nonzero"/>
		<path id="path" d="M66.11 116.11C65.51 117.94 64.11 119.27 62.59 119.39C61.54 119.47 60.07 118.82 59.17 117.84C58.38 116.97 58.11 115.77 58.05 115.51C57.83 114.57 57.89 113.3 58.15 112.45C58.76 110.43 60.67 109.42 63.41 110.72" stroke="#1D1E1C" stroke-opacity="1.000000" stroke-width="0.250000"/>
		<path id="path" d="M90.83 114.17C91.08 113.51 91.39 112.49 91.49 111.21C91.56 110.32 91.62 109.6 91.33 108.8C90.84 107.41 89.65 106.66 89.06 106.34C89.27 106.37 91.16 106.61 92.18 108.35C93.23 110.15 92.47 112 92.35 112.27C92.03 113.02 91.56 113.52 91.24 113.79L90.83 114.17Z" fill="#B2AFA1" fill-opacity="1.000000" fill-rule="nonzero"/>
		<path id="path" d="M90.5 110.4C89.89 108.43 87.98 107.44 85.24 108.72C86.67 108.4 88.12 108.87 88.94 109.93C90.21 111.57 89.18 113.64 89.04 113.92C88.87 114.25 88.06 115.86 86.34 116.11C86.25 116.13 85.74 116.81 85.46 117.07C85.66 117.13 85.86 117.17 86.06 117.18C87.11 117.27 88.58 116.63 89.48 115.67C90.27 114.82 90.54 113.65 90.6 113.4C90.82 112.48 90.76 111.24 90.5 110.4Z" fill="#B2AFA1" fill-opacity="1.000000" fill-rule="nonzero"/>
		<path id="path" d="M78.97 114.97C79.53 116.68 80.82 117.91 82.22 118.02C83.2 118.1 84.56 117.49 85.39 116.57C86.12 115.77 86.37 114.65 86.43 114.41C86.63 113.54 86.58 112.36 86.34 111.56C85.77 109.69 84 108.74 81.47 109.96C81.61 109.93 83.39 109.53 84.52 110.7C85.71 111.92 85.21 113.88 84.67 114.88C84.54 115.12 83.38 117.21 81.44 116.97C79.8 116.78 79.02 115.08 78.97 114.97Z" fill="#B2AFA1" fill-opacity="1.000000" fill-rule="nonzero"/>
		<path id="path" d="M53.93 115.11C53.68 114.45 53.37 113.43 53.27 112.15C53.2 111.25 53.15 110.54 53.43 109.74C53.92 108.35 55.11 107.6 55.71 107.28C55.49 107.31 53.61 107.55 52.59 109.29C51.53 111.09 52.29 112.94 52.41 113.21C52.74 113.96 53.21 114.45 53.52 114.73L53.93 115.11Z" fill="#B2AFA1" fill-opacity="1.000000" fill-rule="nonzero"/>
		<path id="path" d="M54.26 111.34C54.88 109.37 56.78 108.37 59.52 109.66C58.1 109.34 56.64 109.81 55.82 110.87C54.55 112.51 55.59 114.58 55.72 114.86C55.89 115.18 56.7 116.8 58.42 117.05C58.51 117.07 59.02 117.75 59.3 118.01C59.1 118.07 58.91 118.11 58.7 118.12C57.65 118.2 56.18 117.57 55.29 116.61C54.5 115.76 54.22 114.59 54.16 114.34C53.94 113.42 54 112.17 54.26 111.34Z" fill="#B2AFA1" fill-opacity="1.000000" fill-rule="nonzero"/>
		<path id="path" d="M65.79 115.91C65.23 117.62 63.94 118.85 62.54 118.96C61.57 119.04 60.21 118.43 59.38 117.51C58.65 116.7 58.39 115.59 58.34 115.35C58.13 114.47 58.19 113.29 58.43 112.5C59 110.63 60.76 109.68 63.29 110.9C63.16 110.87 61.37 110.47 60.24 111.64C59.06 112.86 59.56 114.82 60.1 115.82C60.23 116.06 61.39 118.14 63.32 117.91C64.96 117.72 65.74 116.02 65.79 115.91Z" fill="#B2AFA1" fill-opacity="1.000000" fill-rule="nonzero"/>
		<ellipse id="ellipse" cx="61.840363" cy="45.835938" rx="0.664952" ry="0.853234" fill="#FFFFFF" fill-opacity="1.000000"/>
		<ellipse id="ellipse" cx="78.971710" cy="46.062500" rx="0.664952" ry="0.853234" fill="#FFFFFF" fill-opacity="1.000000"/>
		<path id="path" d="M48.71 81.14C47.81 85.98 47.92 90.97 50.19 96.03C53.59 103.6 60.38 108.42 60.88 107.93C61.27 107.56 57.6 104.39 54.13 98.02C50.67 91.65 49.3 85.56 48.71 81.14Z" fill="#B2AFA1" fill-opacity="1.000000" fill-rule="nonzero"/>
		<path id="path" d="M97.61 81.32C97.62 84.51 97.19 88.63 95.51 92.97C93.22 98.93 89.06 104.01 88.5 103.58C88.34 103.46 88.47 102.86 88.65 102.25L97.61 81.32Z" fill="#B2AFA1" fill-opacity="1.000000" fill-rule="nonzero"/>
		<path id="path" d="M63.71 69.75C62.05 70.02 55.28 70.96 49.31 66.57C46.76 64.7 45.21 62.48 44.31 60.9C46.32 62.57 49.04 64.5 52.52 66.19C56.84 68.29 60.79 69.27 63.71 69.75Z" fill="#B2AFA1" fill-opacity="1.000000" fill-rule="nonzero"/>
		<path id="path" d="M78.3 70.16C79.96 70.44 86.73 71.37 92.7 66.99C95.25 65.12 96.8 62.9 97.7 61.32C95.69 62.98 92.97 64.92 89.49 66.61C85.17 68.71 81.22 69.69 78.3 70.16Z" fill="#B2AFA1" fill-opacity="1.000000" fill-rule="nonzero"/>
		<path id="path" d="M65.78 61.48C65.8 63.24 65.85 65.08 66.68 66.62C67.51 68.16 69.4 69.26 71 68.59C71.07 68.56 71.23 68.49 71.4 68.4C71.71 68.23 72.37 67.88 72.94 67.19C73.17 66.91 73.3 66.68 73.39 66.53C73.89 65.66 74.02 64.87 74.23 63.63C74.35 62.91 74.43 62.15 74.45 61.88C74.47 61.74 74.48 61.62 74.48 61.55C72.86 60.15 71.24 58.75 69.62 57.35C69.6 57.38 65.96 61.29 65.93 61.32C65.93 61.32 65.78 61.48 65.78 61.48Z" fill="#ED7596" fill-opacity="1.000000" fill-rule="nonzero"/>
		<path id="path" d="M65.63 61.48C65.65 63.27 65.69 65.18 66.59 66.77C67.29 68 68.7 69.03 70.17 68.93C70.83 68.89 71.44 68.58 71.98 68.23C72.66 67.79 73.19 67.2 73.58 66.49C73.94 65.82 74.12 65.08 74.26 64.34C74.4 63.52 74.52 62.7 74.6 61.88C74.62 61.69 74.67 61.54 74.54 61.4C74.34 61.19 74.09 61.01 73.87 60.82C73.42 60.43 72.97 60.05 72.52 59.66C71.59 58.85 70.66 58.05 69.73 57.25C69.67 57.2 69.58 57.18 69.52 57.25C68.4 58.45 67.29 59.65 66.17 60.85C66.01 61.02 65.84 61.2 65.67 61.38C65.54 61.52 65.75 61.73 65.88 61.59C67 60.39 68.12 59.19 69.23 57.99C69.4 57.81 69.56 57.63 69.73 57.45L69.52 57.45C70.99 58.72 72.46 59.99 73.93 61.26C74.02 61.34 74.11 61.42 74.2 61.49C74.31 61.59 74.3 61.56 74.32 61.68C74.34 61.81 74.3 61.97 74.28 62.09C74.24 62.48 74.2 62.87 74.14 63.26C74.02 64.03 73.91 64.83 73.66 65.57C73.21 66.91 72.15 68.03 70.81 68.5C69.46 68.97 67.89 68.11 67.08 66.98C65.97 65.41 65.96 63.32 65.93 61.48C65.93 61.29 65.62 61.29 65.63 61.48Z" fill="#991F5F" fill-opacity="1.000000" fill-rule="nonzero"/>
		<path id="path" d="M69.76 65.7C70.15 63.26 70.12 60.78 69.68 58.36C69.64 58.17 69.35 58.25 69.39 58.43C69.82 60.81 69.85 63.24 69.47 65.62C69.44 65.81 69.73 65.89 69.76 65.7Z" fill="#991F5F" fill-opacity="1.000000" fill-rule="nonzero"/>
		<path id="path" d="M63.94 60.31C64.02 61.1 64.18 62.07 64.49 63.15C64.74 64.04 65.04 64.8 65.31 65.4C65.62 65.08 66.28 64.32 66.69 63C67.1 61.64 67.02 60.43 66.96 59.92C65.95 60.05 64.94 60.18 63.94 60.31Z" fill="#FBF2CB" fill-opacity="1.000000" fill-rule="nonzero"/>
		<path id="path" d="M64.49 63.15C64.74 64.04 65.04 64.8 65.31 65.4C65.62 65.08 66.28 64.32 66.69 63C67.1 61.64 67.02 60.43 66.96 59.92C65.95 60.05 64.94 60.18 63.94 60.31C64.02 61.1 64.18 62.07 64.49 63.15Z" stroke="#5E574B" stroke-opacity="1.000000" stroke-width="0.250000"/>
		<path id="path" d="M76.56 60.17C76.48 60.96 76.32 61.93 76.01 63C75.76 63.9 75.46 64.65 75.19 65.26C74.88 64.94 74.22 64.17 73.81 62.86C73.39 61.49 73.48 60.29 73.54 59.77C74.55 59.9 75.56 60.04 76.56 60.17Z" fill="#FBF2CB" fill-opacity="1.000000" fill-rule="nonzero"/>
		<path id="path" d="M76.01 63C75.76 63.9 75.46 64.65 75.19 65.26C74.88 64.94 74.22 64.17 73.81 62.86C73.39 61.49 73.48 60.29 73.54 59.77C74.55 59.9 75.56 60.04 76.56 60.17C76.48 60.96 76.32 61.93 76.01 63Z" stroke="#5E574B" stroke-opacity="1.000000" stroke-width="0.250000"/>
		<path id="path" d="M69.91 56.89C70.06 58.51 69.19 60.12 67.91 61.11C66.63 62.1 65.01 62.54 63.4 62.64C62.4 62.7 61.37 62.63 60.47 62.21C59.57 61.78 58.81 60.93 58.69 59.93L69.91 56.89Z" fill="#CCC8B4" fill-opacity="1.000000" fill-rule="nonzero"/>
		<path id="path" d="M69.76 56.89C69.92 58.89 68.62 60.68 66.9 61.58C65.98 62.07 64.94 62.34 63.9 62.45C62.86 62.56 61.81 62.56 60.84 62.2C59.87 61.84 58.98 60.99 58.83 59.9C58.8 59.71 58.51 59.79 58.54 59.97C58.67 60.93 59.33 61.74 60.16 62.21C61.13 62.77 62.3 62.86 63.4 62.79C65.53 62.66 67.73 61.92 69.05 60.15C69.76 59.22 70.15 58.06 70.06 56.89C70.04 56.7 69.75 56.7 69.76 56.89Z" fill="#5E574B" fill-opacity="1.000000" fill-rule="nonzero"/>
		<path id="path" d="M81.03 59.93C80.91 60.94 80.15 61.78 79.25 62.21C78.34 62.63 77.31 62.7 76.32 62.64C74.71 62.54 73.08 62.1 71.8 61.11C70.53 60.12 69.66 58.51 69.81 56.89L81.03 59.93Z" fill="#CCC8B4" fill-opacity="1.000000" fill-rule="nonzero"/>
		<path id="path" d="M80.89 59.9C80.75 60.83 80.11 61.59 79.29 62.02C78.35 62.51 77.25 62.56 76.21 62.48C74.2 62.34 72.09 61.62 70.86 59.93C70.22 59.04 69.86 57.98 69.95 56.89C69.97 56.7 69.67 56.7 69.66 56.89C69.48 59.03 70.9 60.94 72.75 61.88C73.73 62.38 74.82 62.65 75.91 62.76C77.01 62.86 78.16 62.84 79.18 62.4C80.2 61.96 81.02 61.08 81.17 59.97C81.2 59.79 80.91 59.7 80.89 59.9Z" fill="#5E574B" fill-opacity="1.000000" fill-rule="nonzero"/>
	</g>
</svg>
