<svg width="153.000000" height="153.000000" viewBox="0 0 153 153" fill="none" xmlns="http://www.w3.org/2000/svg" xmlns:xlink="http://www.w3.org/1999/xlink">
	<desc>
			Created with Pixso.
	</desc>
	<defs>
		<clipPath id="clip88_240">
			<rect id="owl-shadow" width="153.000000" height="153.000000" fill="white" fill-opacity="0"/>
		</clipPath>
	</defs>
	<g clip-path="url(#clip88_240)">
		<path id="path" d="M149.21 99.67C148.97 100.53 148.27 101.72 145.97 102.8C142.67 103.61 138.64 104.35 134.02 104.65C129.51 104.94 125.51 104.75 122.18 104.39C120.63 104.79 117.66 105.16 114.02 104.51C111.62 104.08 109.53 103.15 107.76 101.7C107 103.61 106.11 105.44 105.11 107.17C107.07 109.27 108.22 111.84 108.22 114.61C108.22 120.27 103.43 125.07 96.76 126.8C96.08 128.12 94.89 129 93.54 129C92.99 129 92.46 128.86 91.99 128.59C91.1 130.23 89.51 131.32 87.69 131.32C85.88 131.32 84.3 130.23 83.41 128.6C82.87 128.97 82.25 129.17 81.6 129.17C79.66 129.17 78.06 127.36 77.8 125.01C76.11 124.98 74.41 124.94 72.72 124.91C72.73 124.98 72.73 125.06 72.73 125.14C72.73 127.3 70.95 129.89 68.89 129.96C68.56 129.98 68.02 129.93 67.34 129.55C66.45 131.19 64.86 132.28 63.05 132.28C61.24 132.28 59.65 131.19 58.76 129.56C58.22 129.93 57.61 130.13 56.95 130.13C54.84 130.13 53.12 127.97 53.12 125.31C53.12 125.28 53.12 125.25 53.12 125.23C47.71 123.08 44.01 118.77 44.01 113.81C44.01 111.3 44.95 108.97 46.58 106.99C45.7 105.46 44.92 103.85 44.23 102.18C38.47 106.19 32.41 105.52 25.43 101C24.31 100.3 23.14 99.6 21.92 98.91C16.75 96.02 11.72 93.97 7.12 92.5C7.07 92.48 7.01 92.47 6.96 92.45C6.08 91.62 5.2 90.79 4.32 89.95C2.65 88.04 2.48 86.66 2.61 85.78C2.95 83.51 5.46 83.01 11.99 78.63C21.69 72.13 21.2 70.66 24.77 69.61C29.82 68.14 37.09 69.24 42.73 73.02C42.93 72.32 43.15 71.62 43.39 70.94C41.56 70.71 40.08 69.96 39.3 68.71C38.53 67.46 38.56 65.92 39.25 64.33C36.58 64.44 34.36 63.67 33.35 62.03C32.08 59.99 32.97 57.15 35.36 54.64C34.33 53.33 33.9 51.91 34.26 50.57C34.81 48.59 36.98 47.24 39.9 46.76C40.75 44.71 42.09 42.78 43.84 41.01C42.25 39.49 40.52 37.31 39.45 34.38C37.24 28.33 39.31 23.21 39.89 21.91C40.72 22.54 41.51 23.16 42.28 23.78C42.69 24.08 43.09 24.38 43.48 24.68C43.62 24.78 43.74 24.87 43.87 24.97C46.17 26.67 47.56 27.74 47.71 27.85C50.57 29.99 54.59 31.51 56.68 33.29C62.23 31.3 68.73 30.16 75.68 30.16C81.58 30.16 87.17 30.98 92.11 32.45C94.32 30.98 97.62 29.59 100.08 27.76C100.23 27.64 101.62 26.58 103.92 24.88C104.05 24.78 104.18 24.68 104.31 24.59C104.71 24.28 105.12 23.98 105.52 23.68C106.29 23.06 107.08 22.44 107.91 21.82C108.48 23.12 110.55 28.24 108.34 34.29C107.62 36.26 106.61 37.89 105.53 39.21C108.21 41.4 110.23 43.89 111.39 46.6C114.71 46.95 117.23 48.36 117.82 50.51C118.19 51.85 117.76 53.27 116.73 54.59C119.11 57.09 120.01 59.94 118.74 61.97C117.73 63.61 115.51 64.38 112.85 64.28C113.53 65.86 113.56 67.4 112.79 68.65C111.96 69.97 110.37 70.73 108.4 70.92C108.87 72.28 109.28 73.69 109.62 75.12C117.74 69.25 129.71 71.11 135.45 75.93C138.3 78.33 137.26 79.48 143.51 89.34C147.72 95.98 149.82 97.45 149.21 99.67Z" fill="#000000" fill-opacity="0" fill-rule="nonzero"/>
		<path id="path" d="M145.97 102.8C142.67 103.61 138.64 104.35 134.02 104.65C129.51 104.94 125.51 104.75 122.18 104.39C120.63 104.79 117.66 105.16 114.02 104.51C111.62 104.08 109.53 103.15 107.76 101.7C107 103.61 106.11 105.44 105.11 107.17C107.07 109.27 108.22 111.84 108.22 114.61C108.22 120.27 103.43 125.07 96.76 126.8C96.08 128.12 94.89 129 93.54 129C92.99 129 92.46 128.86 91.99 128.59C91.1 130.23 89.51 131.32 87.69 131.32C85.88 131.32 84.3 130.23 83.41 128.6C82.87 128.97 82.25 129.17 81.6 129.17C79.66 129.17 78.06 127.36 77.8 125.01C76.11 124.98 74.41 124.94 72.72 124.91C72.73 124.98 72.73 125.06 72.73 125.14C72.73 127.3 70.95 129.89 68.89 129.96C68.56 129.98 68.02 129.93 67.34 129.55C66.45 131.19 64.86 132.28 63.05 132.28C61.24 132.28 59.65 131.19 58.76 129.56C58.22 129.93 57.61 130.13 56.95 130.13C54.84 130.13 53.12 127.97 53.12 125.31C53.12 125.28 53.12 125.25 53.12 125.23C47.71 123.08 44.01 118.77 44.01 113.81C44.01 111.3 44.95 108.97 46.58 106.99C45.7 105.46 44.92 103.85 44.23 102.18C38.47 106.19 32.41 105.52 25.43 101C24.31 100.3 23.14 99.6 21.92 98.91C16.75 96.02 11.72 93.97 7.12 92.5C7.07 92.48 7.01 92.47 6.96 92.45C6.08 91.62 5.2 90.79 4.32 89.95C2.65 88.04 2.48 86.66 2.61 85.78C2.95 83.51 5.46 83.01 11.99 78.63C21.69 72.13 21.2 70.66 24.77 69.61C29.82 68.14 37.09 69.24 42.73 73.02C42.93 72.32 43.15 71.62 43.39 70.94C41.56 70.71 40.08 69.96 39.3 68.71C38.53 67.46 38.56 65.92 39.25 64.33C36.58 64.44 34.36 63.67 33.35 62.03C32.08 59.99 32.97 57.15 35.36 54.64C34.33 53.33 33.9 51.91 34.26 50.57C34.81 48.59 36.98 47.24 39.9 46.76C40.75 44.71 42.09 42.78 43.84 41.01C42.25 39.49 40.52 37.31 39.45 34.38C37.24 28.33 39.31 23.21 39.89 21.91C40.72 22.54 41.51 23.16 42.28 23.78C42.69 24.08 43.09 24.38 43.48 24.68C43.62 24.78 43.74 24.87 43.87 24.97C46.17 26.67 47.56 27.74 47.71 27.85C50.57 29.99 54.59 31.51 56.68 33.29C62.23 31.3 68.73 30.16 75.68 30.16C81.58 30.16 87.17 30.98 92.11 32.45C94.32 30.98 97.62 29.59 100.08 27.76C100.23 27.64 101.62 26.58 103.92 24.88C104.05 24.78 104.18 24.68 104.31 24.59C104.71 24.28 105.12 23.98 105.52 23.68C106.29 23.06 107.08 22.44 107.91 21.82C108.48 23.12 110.55 28.24 108.34 34.29C107.62 36.26 106.61 37.89 105.53 39.21C108.21 41.4 110.23 43.89 111.39 46.6C114.71 46.95 117.23 48.36 117.82 50.51C118.19 51.85 117.76 53.27 116.73 54.59C119.11 57.09 120.01 59.94 118.74 61.97C117.73 63.61 115.51 64.38 112.85 64.28C113.53 65.86 113.56 67.4 112.79 68.65C111.96 69.97 110.37 70.73 108.4 70.92C108.87 72.28 109.28 73.69 109.62 75.12C117.74 69.25 129.71 71.11 135.45 75.93C138.3 78.33 137.26 79.48 143.51 89.34C147.72 95.98 149.82 97.45 149.21 99.67C148.97 100.53 148.27 101.72 145.97 102.8Z" stroke="#000000" stroke-opacity="1.000000" stroke-width="2.000000"/>
	</g>
</svg>
