<svg width="200" height="200" viewBox="0 0 200 200" fill="none" xmlns="http://www.w3.org/2000/svg">
<path d="M119.42 190.11C124.09 192.76 131.68 196.21 141.37 196.8C151.51 197.42 163.68 194.89 163.84 191.84C164 188.79 152.19 184.74 141.56 184.62C131.85 184.5 124.09 187.68 119.42 190.12V190.11Z" fill="#E57527"/>
<path d="M119.42 190.11C129.71 195.94 141.9 197.95 153.54 196C155.87 195.56 163.3 194.4 163.58 191.68C163.45 190.81 162.54 190.17 161.84 189.68C159.37 188.12 156.53 187.23 153.71 186.47C142.31 183.36 129.91 184.64 119.42 190.11ZM119.42 190.11C129.83 184.33 142.34 183.02 153.81 186.06C156.62 186.87 163.27 188.51 164.07 191.62C163.98 194.83 156.13 195.92 153.6 196.4C141.9 198.28 129.61 196.23 119.42 190.1V190.11Z" fill="#1D1D1B"/>
<path d="M138.27 193.77C138.27 200.76 159.13 200.76 158.85 193.77C159.13 186.78 138.27 186.55 138.27 193.77Z" fill="#E57527"/>
<path d="M138.27 193.77C138.9 199.77 150.55 199.5 154.75 197.87C159.91 196.24 159.87 191.29 154.75 189.63C150.46 187.95 138.91 187.61 138.27 193.77ZM138.27 193.77C138.77 187.67 150.57 187.62 154.89 189.23C160.47 190.97 160.52 196.56 154.89 198.27C150.66 199.83 138.77 199.72 138.27 193.77Z" fill="#1D1D1B"/>
<path d="M130.23 194.58C134.87 207.22 163.41 192.14 142.39 188.24L130.23 194.58Z" fill="#E57527"/>
<path d="M130.23 194.58C132.98 202.06 146.35 199.76 149.61 193.92C150.81 190.17 145.05 188.94 142.4 188.24C145.34 188.78 151.26 189.89 150.02 194.08C146.71 200.34 132.81 202.61 130.24 194.58H130.23Z" fill="#1D1D1B"/>
<path d="M88.47 188.54C83.8 191.19 76.21 194.64 66.52 195.23C56.38 195.85 44.21 193.32 44.05 190.27C43.89 187.22 55.7 183.17 66.33 183.05C76.04 182.93 83.8 186.11 88.47 188.55V188.54Z" fill="#E57527"/>
<path d="M88.47 188.54C78.27 194.67 65.99 196.72 54.29 194.84C51.76 194.37 43.89 193.25 43.82 190.06C44.64 186.93 51.26 185.32 54.08 184.5C65.56 181.46 78.06 182.76 88.47 188.55V188.54ZM88.47 188.54C77.98 183.06 65.58 181.79 54.18 184.9C51.37 185.65 48.53 186.55 46.05 188.11C45.35 188.6 44.43 189.24 44.31 190.11C44.56 192.82 52.05 194 54.35 194.43C65.99 196.39 78.18 194.38 88.47 188.54Z" fill="#1D1D1B"/>
<path d="M69.62 192.19C69.9 199.18 48.76 199.18 49.04 192.19C48.76 185.2 69.9 185.2 69.62 192.19Z" fill="#E57527"/>
<path d="M69.62 192.19C69.34 198.17 57.17 198.23 53.02 196.68C47.38 194.98 47.37 189.4 53.02 187.7C57.16 186.15 69.34 186.21 69.62 192.19ZM69.62 192.19C69.21 186.15 57.28 186.48 53.16 188.1C47.99 189.72 47.98 194.65 53.16 196.28C57.27 197.9 69.2 198.24 69.62 192.19Z" fill="#1D1D1B"/>
<path d="M77.32 192.89C72.68 205.53 44.14 190.45 65.16 186.55L77.32 192.89Z" fill="#E57527"/>
<path d="M77.32 192.89C74.75 200.92 60.85 198.65 57.54 192.39C56.29 188.19 62.22 187.1 65.16 186.55C62.49 187.26 56.78 188.44 57.95 192.23C61.2 198.07 74.57 200.37 77.33 192.89H77.32Z" fill="#1D1D1B"/>
<path d="M122.03 130.28C115.92 134.77 128.04 117.05 118.77 119.98C119.94 118.36 123.43 109.51 118.17 111.72C119.65 109.37 123.18 95.88 116.53 98.32C119.12 95.48 123.65 82.94 115.25 84.39C119.03 80.18 118.48 62.27 111.77 60.66C113.57 56.26 111.98 46.95 106.86 45.02C107.92 32.58 91.09 22.96 81.23 24.22C67.72 14.94 41.04 14.75 32.16 32.7C11.81 37.79 -14.45 78.27 13.83 92.06C16.22 93.88 18.99 98.69 22.58 95.6C25.37 97.15 29.41 104.95 32.72 98.26C37.58 102.96 41.28 94.82 46.61 101.92C47.4 101.24 44.33 110.39 48.53 107.93C47.31 112.54 52.87 122.1 55.68 126.98C55.41 133.88 58.5 142.92 64.1 146.64C61.23 149.78 62.85 159.97 66.34 162.1C61.79 165.63 72.64 177.78 73.9 169.38C74.76 171.93 77.8 177.84 81.18 174.51C84.76 177.03 89.72 179 91.1 173.23C92.79 178.8 106.98 177.65 107.56 172.49C111.27 175.23 117.62 159.42 115.42 157.65C120 154.69 116.28 145.4 118.24 144.06C117.9 141.06 118.43 133.95 122.02 130.3L122.03 130.28Z" fill="#E57527"/>
<path d="M122.03 130.28C119.91 131.88 120.01 130.57 120.58 128.78C121.28 126.2 122.73 123.57 122.28 120.84C121.85 119.26 119.92 119.61 118.73 120.01C119.75 118.54 122.74 111.47 119.53 111.4C119.04 111.42 118.56 111.59 118.11 111.77L118.15 111.7C119.73 108.89 123.09 96.14 116.55 98.35L116.39 98.4L116.5 98.27C119.36 94.84 123.38 83.14 115.26 84.43L115.09 84.46C115.85 83.61 116.32 82.53 116.65 81.44C118.26 76.01 118.1 62.69 111.65 60.71C113.11 56.56 112.37 51.63 110.08 47.91C109.28 46.69 108.18 45.63 106.82 45.11L106.74 45.08V45C107.29 38.77 103.12 33.22 98.28 29.74C93.37 26.26 87.28 23.75 81.18 24.36C77.34 21.75 72.92 20.08 68.39 19.11C55.2 16.19 38.58 19.74 32.29 32.86C15.95 37.45 -1.07 60.42 2.13 77.6C3.34 84.03 8.16 89.1 13.95 91.86C16.35 93.83 19.27 98.41 22.56 95.33C25.03 96.59 27.43 101.56 30.51 100.53C31.53 100.05 32.16 98.94 32.67 97.92C33.61 98.87 34.83 99.6 36.18 99.6C38.68 99.57 41.35 97.83 43.84 99.16C45.05 99.77 45.93 100.79 46.76 101.79L46.5 101.76C46.6 101.65 46.82 101.66 46.88 101.79C47.04 102.29 46.73 103.32 46.69 103.87C46.44 105.66 45.76 109.65 48.79 107.56C47.97 111.04 49.64 114.59 50.98 117.77C52.4 120.9 54.1 123.9 55.82 126.89C55.76 130.58 56.4 134.31 57.77 137.76C59.12 141.14 61.13 144.43 64.19 146.51L64.31 146.59L64.22 146.7C61.44 150.32 62.84 159.48 66.55 162.07C62.89 164.68 68.68 173.13 72.33 172.02C73.45 171.47 73.7 170.13 73.89 169L74.01 169.33C74.97 172.11 77.87 177.62 81.2 174.39C84.58 176.86 89.77 178.88 91.06 173.2L91.12 172.97L91.19 173.2C91.68 174.78 93.2 175.76 94.72 176.25C98.39 177.48 106.62 177.02 107.54 172.4C110.99 174.52 114.74 164.66 115.36 162.19C115.68 160.84 116.28 158.75 115.42 157.62C119.12 154.87 117.42 149.63 117.64 145.7C117.69 145.15 117.76 144.36 118.24 144.05C117.96 139.29 118.72 133.94 122.04 130.29L122.03 130.28ZM122.03 130.28C118.73 133.93 117.96 139.28 118.26 144.04C117.78 144.43 117.7 145.11 117.66 145.69C117.46 149.64 119.16 154.89 115.44 157.66C117.65 159.9 111.22 175.18 107.54 172.51L107.62 172.48C107.4 174.19 105.83 175.29 104.35 175.91C100.52 177.48 92.88 177.84 91.05 173.24H91.18C89.86 179.06 84.36 177.06 81.25 174.56C78.78 177.11 76.09 174.23 74.92 171.88C74.49 171.08 74.12 170.26 73.82 169.4L74 169.38C73.83 170.8 72.98 172.63 71.26 172.34C67.77 171.82 62.91 164.88 66.27 162L66.28 162.18C62.57 159.44 61.15 150.22 64 146.54L64.02 146.73C60.91 144.62 58.86 141.3 57.49 137.87C56.16 134.55 55.35 130.32 55.54 127.05C53.81 124.07 52.1 121.06 50.66 117.91C49.33 114.76 47.72 111.4 48.35 107.88L48.6 108.07C47.98 108.44 47.01 108.84 46.46 108.1C45.72 106.74 46.17 105.25 46.31 103.83C46.34 103.5 46.52 102.6 46.54 102.28C46.54 102.2 46.55 102.11 46.55 102.04C46.55 102.01 46.54 101.96 46.55 102C46.55 102.02 46.66 102.08 46.69 102.06C46.72 102.05 46.71 102.06 46.71 102.06L46.57 102.18L46.45 102.03C44.93 99.93 42.65 98.44 39.99 99.27C38.75 99.54 37.5 100.01 36.15 100.01C34.79 100.01 33.52 99.31 32.57 98.4L32.88 98.35C32.2 99.8 30.76 101.65 28.89 101.02C26.19 100.09 24.76 97.25 22.46 95.79L22.7 95.77C19.21 98.93 16.01 94.19 13.72 92.27C7.84 89.48 2.89 84.26 1.65 77.72C-1.66 60.29 15.59 37.18 32.1 32.52C33.55 29.02 37.54 24.65 41.37 22.48C53.38 15.49 69.77 16.64 81.29 24.12C86.93 23.44 93.62 26.07 98.42 29.57C103.31 33.1 107.53 38.73 106.95 45.05C111.97 46.88 113.66 55.77 111.84 60.72L111.78 60.6C116.2 62.11 117.01 67.68 117.52 71.73C117.79 75 117.68 78.36 116.76 81.52C116.44 82.57 116 83.6 115.28 84.46L115.22 84.36C123.51 83.06 119.47 94.89 116.55 98.38L116.5 98.31C123.18 96.01 119.81 109.16 118.15 111.73C123.39 109.6 120.07 118.22 118.75 120C119.94 119.61 121.87 119.29 122.29 120.87C122.73 123.62 121.28 126.23 120.57 128.82C119.98 130.66 119.92 131.89 122.02 130.32L122.03 130.28Z" fill="#1D1D1B"/>
<path d="M4.66 85.61C4.99 87.45 8.09 101.04 12.8 93.82C11.81 100.79 36.96 113.57 39.92 102.42C44.69 111.07 72.91 98.07 61.28 91.28C70.6 80.23 44.37 66.98 42.28 75.76C37.21 76.21 37.13 78.61 40.14 81.56C31.38 84.72 45.55 91 48.25 87.06" fill="#E57527"/>
<path d="M4.66 85.61C5.35 88.97 8.37 100.42 12.71 93.76L12.95 93.41L12.91 93.83C12.72 101.69 37.85 113.14 39.85 101.88C43.62 108.91 58.65 102.94 62.49 98.16C64.8 95.53 63.91 92.89 60.94 91.33C62.9 89.19 63.66 86.08 62.47 83.37C60.18 78.21 54.78 74.83 49.47 73.4C46.97 72.77 43.19 72.72 42.42 75.79L42.39 75.89H42.29C40.92 76.08 39 76.23 38.36 77.62C37.9 79.16 39.38 80.55 40.34 81.6L40.17 81.66C32.57 84.42 42.75 89.31 46.48 88.13C47.16 87.97 47.83 87.63 48.25 87.05C47.84 87.64 47.17 87.99 46.49 88.16C43.87 89.2 34.21 85.94 38.19 82.43C38.77 81.99 39.44 81.71 40.1 81.44L40.06 81.63C39.51 81.08 38.98 80.5 38.56 79.83C37.45 78.19 38.06 76.6 39.96 76.05C40.71 75.79 41.49 75.7 42.27 75.61L42.14 75.72C42.91 72.48 46.92 72.41 49.54 73.08C57.01 74.76 68.01 83.33 61.45 91.41L61.39 91.07C62.61 91.8 63.88 92.82 64.2 94.36C65.4 102.14 43.59 109.83 39.75 102.5L40.11 102.46C36.85 112.61 18.46 103.41 14.24 97.8C13.34 96.68 12.54 95.29 12.7 93.8L12.89 93.87C8.3 100.65 5.34 89.17 4.67 85.6L4.66 85.61Z" fill="#1D1D1B"/>
<path d="M127.1 120.67C132.09 123.1 134.68 128.53 132.67 133.07C137.38 131.5 137.57 137.44 136.92 144.29C138.6 141.36 141.39 146.27 139.03 148.58C141.99 147.68 143.5 152.12 141.28 154.06C144.36 151.18 143.35 158.76 142.07 160.54C149.72 158.36 139.76 183.7 137.6 177.6C131.24 191.96 115.31 186.34 102.79 183.92C91.22 185.82 74.57 191.06 69.2 177.22C66.99 183.31 57.12 157.99 64.73 160.16C63.46 158.39 62.44 150.8 65.52 153.68C63.3 151.74 64.81 147.3 67.77 148.2C65.41 145.89 68.2 140.98 69.88 143.91C68.32 142.02 70.91 129.88 74.13 132.69C70.05 111.54 113.54 113.15 127.07 120.67H127.1Z" fill="#E57527" stroke="#1D1D1B" stroke-width="0.5" stroke-miterlimit="10"/>
<path d="M99.67 74.15C102.41 92.52 89.75 107.39 86.88 110.62C116.05 111.59 122.7 66.8 106.27 51.68C102.59 30.3 44.05 14.32 32.13 37.13C53.05 31.67 95.51 42.86 99.67 74.15Z" fill="#D56E34"/>
<path d="M124.09 66.46C127.7 55.06 126.87 24.27 130.2 50.82C133.36 57.44 127.51 82.17 124.09 66.46Z" fill="#F5B7D4"/>
<path d="M124.09 66.46C126.37 58.16 126.08 49.45 127.54 41.01C127.63 40.49 128.05 39.63 128.57 40.38C129.78 43.72 129.91 47.33 130.44 50.8C132.03 54.89 131.27 60.31 130.37 64.77C129.12 70.78 125.96 75.89 124.09 66.47V66.46ZM124.09 66.46C127.41 80.03 131.03 62.33 130.87 57.74C130.92 55.43 130.89 52.98 129.97 50.85C129.43 47.46 129.28 43.87 128.17 40.62C128.14 40.55 128.07 40.53 128.17 40.55C128.23 40.53 128.22 40.55 128.21 40.54C128.1 40.7 128.05 40.91 127.99 41.12C126.53 49.52 126.63 58.25 124.09 66.46Z" fill="#1D1D1B"/>
<path d="M119.42 56.08C125.35 40.32 132.22 28.51 126.46 52.66C125.38 63.69 125.71 67.42 119.42 56.08Z" fill="#E57527"/>
<path d="M119.42 56.08C121.35 50.8 123.3 45.51 126.16 40.64C126.69 39.93 127.12 38.88 128.11 38.66C130.33 38.95 127.04 50.81 126.69 52.71C125.72 61.76 126.02 68.94 119.43 56.08H119.42ZM119.42 56.08C120.09 56.98 124.05 64.89 125.04 62.23C125.88 59.59 125.89 55.42 126.24 52.64C126.88 49.9 127.48 47.15 127.96 44.39C128.18 42.72 128.63 40.95 128.27 39.3C128.21 39.17 128.16 39.11 128.11 39.12C127.41 39.39 126.98 40.25 126.53 40.88C123.66 45.67 121.55 50.92 119.43 56.09L119.42 56.08Z" fill="#1D1D1B"/>
<path d="M81.27 68.46C77.66 57.06 78.49 26.27 75.16 52.82C72 59.44 77.85 84.17 81.27 68.46Z" fill="#F5B7D4"/>
<path d="M81.27 68.46C78.73 60.25 78.83 51.52 77.37 43.12C77.31 42.91 77.26 42.7 77.15 42.54C77.15 42.54 77.13 42.54 77.19 42.55C77.28 42.53 77.22 42.55 77.19 42.62C76.09 45.88 75.93 49.48 75.39 52.89C73.75 57.25 74.57 62.2 75.33 66.69C76.5 72.51 79.17 77.6 81.27 68.46ZM81.27 68.46C79.41 77.84 76.26 72.83 75 66.76C74.1 62.31 73.34 56.88 74.93 52.79C75.46 49.32 75.59 45.71 76.8 42.37C77.3 41.65 77.72 42.43 77.83 43C79.29 51.44 79.01 60.15 81.28 68.45L81.27 68.46Z" fill="#1D1D1B"/>
<path d="M85.94 58.08C80.01 42.32 73.14 30.51 78.9 54.66C79.98 65.69 79.65 69.42 85.94 58.08Z" fill="#E57527"/>
<path d="M85.94 58.08C83.82 52.91 81.71 47.66 78.84 42.87C78.39 42.24 77.96 41.38 77.26 41.11C77.21 41.1 77.16 41.15 77.1 41.29C76.74 42.94 77.19 44.71 77.41 46.38C77.89 49.14 78.49 51.89 79.13 54.63C79.48 57.42 79.49 61.56 80.33 64.22C81.32 66.89 85.29 58.96 85.95 58.07L85.94 58.08ZM85.94 58.08C79.35 70.94 79.65 63.77 78.68 54.71C78.33 52.78 75.04 40.99 77.26 40.66C78.25 40.87 78.68 41.93 79.21 42.64C82.07 47.51 84.02 52.8 85.95 58.08H85.94Z" fill="#1D1D1B"/>
<path d="M126.35 107.36C123.98 103.76 131.47 100.93 128.82 98.44C130.28 97.17 132.13 95.25 131.86 93.05C130.4 93.08 133.21 83.47 130.37 84.03C132.49 82.89 133.44 78.35 130.23 78.44C131.27 76.21 131.96 72.09 128.27 73.53C129.36 71.69 128.67 68.19 126.29 69.57C127.67 68.35 128.09 63.37 125.63 66.35C128.67 63.44 123.44 58.41 121.29 60.55C122.8 57.49 121.27 54.97 118.13 57.32C120.1 53.02 111.94 50.37 110.66 54.79C110.34 51.16 109.02 49.74 107.27 53.67C107.35 52.46 103.3 49.36 103.03 48.3C103.03 48.3 104.35 57.72 102.12 54.28C99.21 48.99 97.88 50.15 96.39 54.47C92.25 49.91 94.81 56.14 88.68 54.16C89.95 57.16 79.87 57.67 83.48 63.32C80.97 61.56 76.67 67.21 80 69.69C77.14 67.11 78.26 71.95 79.8 72.97C77.24 71.95 77.06 75.52 78.39 77.18C74.53 76.28 75.8 80.27 77.14 82.32C73.96 82.7 75.53 87.05 77.79 87.87C74.9 87.71 79.03 96.86 77.58 97.01C77.62 99.22 79.72 100.85 81.35 101.9C79.04 104.79 87.74 107.27 85.91 111.31" fill="#E57527"/>
<path d="M126.35 107.36C123.98 103.76 131.47 100.93 128.82 98.44C130.28 97.17 132.13 95.25 131.86 93.05C130.4 93.08 133.21 83.47 130.37 84.03C132.49 82.89 133.44 78.35 130.23 78.44C131.27 76.21 131.96 72.09 128.27 73.53C129.36 71.69 128.67 68.19 126.29 69.57C127.67 68.35 128.09 63.37 125.63 66.35C128.67 63.44 123.44 58.41 121.29 60.55C122.8 57.49 121.27 54.97 118.13 57.32C120.1 53.02 111.94 50.37 110.66 54.79C110.34 51.16 109.02 49.74 107.27 53.67C107.35 52.46 103.3 49.36 103.03 48.3C103.03 48.3 104.35 57.72 102.12 54.28C99.21 48.99 97.88 50.15 96.39 54.47C92.25 49.91 94.81 56.14 88.68 54.16C89.95 57.16 79.87 57.67 83.48 63.32C80.97 61.56 76.67 67.21 80 69.69C77.14 67.11 78.26 71.95 79.8 72.97C77.24 71.95 77.06 75.52 78.39 77.18C74.53 76.28 75.8 80.27 77.14 82.32C73.96 82.7 75.53 87.05 77.79 87.87C74.9 87.71 79.03 96.86 77.58 97.01C77.62 99.22 79.72 100.85 81.35 101.9C79.04 104.79 87.74 107.27 85.91 111.31" stroke="#1D1D1B" stroke-width="0.5" stroke-miterlimit="10"/>
<path d="M104.94 108.58C102.65 103.9 102.68 80.94 94.25 73.2L100.89 78.72L96.99 65.61L102.45 76.87C103.33 62.6 102.78 60.42 105.33 76.38L110.18 68.73L108.68 77.87L112.46 71.38C102.75 80.84 122.34 115.24 104.94 108.58Z" fill="#D56E34"/>
<path d="M122.62 116.56C124.8 115.07 130.58 111.12 130.14 106.54C129.97 104.76 128.89 103.27 127 101.61C122.05 97.3 113.5 93.69 103.1 95.84C101.81 96.11 86.74 99.39 85.78 107.75C85.55 109.74 86.11 112.12 87.12 113.92C88.67 116.69 91.18 117.96 93.89 118.86C98.35 120.35 110.93 124.55 122.62 116.56Z" fill="#FFF6BD"/>
<path d="M122.62 116.56C134.57 108.59 131.13 102.26 119.39 97.22C112.87 94.67 105.55 94.92 98.98 97.17C93.89 99.01 87.39 101.53 86.05 107.37C85.53 110.72 86.89 114.44 89.58 116.54C91.39 117.98 93.66 118.66 95.86 119.37C104.66 122.28 114.82 121.96 122.62 116.56ZM122.62 116.56C114.85 122.05 104.65 122.45 95.79 119.61C93.58 118.92 91.27 118.26 89.39 116.79C86.57 114.62 85.14 110.8 85.65 107.3C86.95 101.24 93.58 98.56 98.85 96.76C105.49 94.54 112.93 94.35 119.48 96.99C131.21 102.14 134.76 108.63 122.62 116.56Z" fill="#1D1D1B"/>
<path d="M102.49 106.25C102.89 108.22 101.56 111.45 102.54 113.45C105.49 119.46 114.36 117.45 116.33 113.45C117.31 111.45 115.8 108.22 116.2 106.25" fill="#F2A1AE"/>
<path d="M102.49 106.25C102.89 108.22 101.56 111.45 102.54 113.45C105.49 119.46 114.36 117.45 116.33 113.45C117.31 111.45 115.8 108.22 116.2 106.25" stroke="#1D1D1B" stroke-width="0.5" stroke-miterlimit="10"/>
<path d="M121.26 139.34C133.49 151.08 142.43 183.37 123.09 192.38C109.92 198.51 92.34 198.83 82.43 187.02C64.96 165.71 88.3 115.67 121.25 139.34H121.26Z" fill="#FFF6BD"/>
<path d="M121.26 139.34C131.44 149.53 138.33 170.23 131.99 183.84C130.25 187.49 127.25 190.52 123.61 192.29C116.37 195.78 108.15 197.44 100.12 196.49C76.04 193.54 71.25 168.24 81.05 149.34C89.61 132.74 105.95 127.96 121.25 139.34H121.26ZM121.26 139.34C105.98 128.1 89.74 132.87 81.29 149.46C71.71 168.21 76.46 193 100.19 196.07C108.12 197.05 116.29 195.44 123.48 192.02C127.07 190.29 130.03 187.33 131.77 183.73C138.13 170.22 131.35 149.54 121.26 139.34Z" fill="#1D1D1B"/>
<path d="M109.64 111.11C106.04 112.44 107.68 108.12 107.12 106.96L109.33 106.8L109.64 111.11Z" fill="#FFF3CF" stroke="#1D1D1B" stroke-width="0.25" stroke-miterlimit="10"/>
<path d="M111.85 110.94C108.25 112.27 109.89 107.95 109.33 106.79L111.54 106.63L111.85 110.94Z" fill="#FFF3CF" stroke="#1D1D1B" stroke-width="0.25" stroke-miterlimit="10"/>
<path d="M108.64 101.55C111.32 111.3 101.79 113.3 101.86 105.97L108.64 101.55Z" fill="#FFF6BD"/>
<path d="M108.64 101.55C111.32 111.3 101.79 113.3 101.86 105.97" stroke="#1D1D1B" stroke-width="0.5" stroke-miterlimit="10"/>
<path d="M116.73 104.88C117.71 110.31 107.42 111.71 108.65 101.77L116.73 104.88Z" fill="#FFF6BD"/>
<path d="M116.73 104.88C117.71 110.31 107.42 111.71 108.65 101.77" stroke="#1D1D1B" stroke-width="0.5" stroke-miterlimit="10"/>
<path d="M9.88999 55.9C-2.71001 65.66 10.06 99.89 28 98.58C12.23 92.64 5.10999 63.17 9.88999 55.9Z" fill="#D56E34"/>
<path d="M97.1 191.32C100.66 194.37 131.9 181.14 131.69 173.8C133.08 186.7 102.93 197.11 97.1 191.32Z" fill="#E9E3BA"/>
<path d="M108.44 100.53C114.84 96.71 112.1 102.76 108.51 104.44C105.24 102.86 102.24 96.51 108.46 100.53" fill="url(#paint0_radial_120_151)"/>
<path d="M108.44 100.53C114.84 96.71 112.1 102.76 108.51 104.44C105.24 102.86 102.24 96.51 108.46 100.53" stroke="#1D1D1B" stroke-width="0.5" stroke-miterlimit="10"/>
<path d="M128.06 38.88C128.06 38.88 123.19 30.91 123.05 30.33C122.91 29.75 128.63 33.58 128.63 33.58L128.06 20.78L131.11 32.63L134.56 25.01L133.33 34.54L136.86 35.88L128.06 38.88Z" fill="#A26F14" stroke="#1D1D1B" stroke-width="0.5" stroke-miterlimit="10"/>
<path d="M77.64 41.89C77.64 41.89 82.51 33.92 82.65 33.34C82.79 32.76 77.07 36.59 77.07 36.59L77.64 23.79L74.59 35.64L71.14 28.02L72.37 37.55L68.84 38.89L77.64 41.89Z" fill="#A26F14"/>
<path d="M77.64 41.89C79.27 39.08 80.98 36.3 82.48 33.42L82.52 33.32C82.51 33.32 82.52 33.38 82.55 33.4C80.72 34.3 78.68 35.73 76.87 36.94L76.88 36.59L77.4 23.79L77.86 23.86L74.81 35.71L74.64 36.37L74.36 35.75L70.93 28.12L71.34 28L72.51 37.54C72.53 37.68 72.56 37.65 72.41 37.7L68.87 39.01V38.77L77.63 41.89H77.64ZM77.64 41.89L68.79 39L68.46 38.89L68.79 38.76L72.31 37.4L72.21 37.56C72.08 36.63 70.81 27.2 70.72 26.58C71.03 27.25 74.39 34.65 74.8 35.53L74.35 35.57L77.41 23.73L77.98 21.53L77.87 23.8L77.25 36.6L76.97 36.44C78.72 35.33 80.41 34.16 82.28 33.24C82.44 33.16 82.84 33.05 82.78 33.38C81.24 36.31 79.37 39.06 77.65 41.89H77.64Z" fill="#1D1D1B"/>
<path d="M79.28 152.68C80.15 152.83 84.76 154 83.33 151.46C106.17 159.84 118.67 91.88 90.85 134.96C91.36 134.12 76.67 138.77 75.71 139.33" fill="#E57527"/>
<path d="M79.28 152.68C80.15 152.83 84.76 154 83.33 151.46C106.17 159.84 118.67 91.88 90.85 134.96C91.36 134.12 76.67 138.77 75.71 139.33" stroke="#1D1D1B" stroke-width="0.5" stroke-miterlimit="10"/>
<path d="M102.71 118.86C107.23 118.18 108.05 124.35 103.52 124.92C99.01 125.6 98.18 119.43 102.71 118.86Z" fill="#E57527" stroke="#1D1D1B" stroke-width="0.5" stroke-miterlimit="10"/>
<path d="M106.12 122.11C110.83 121.4 111.74 128.22 107.02 128.81C102.31 129.52 101.4 122.7 106.12 122.11Z" fill="#E57527" stroke="#1D1D1B" stroke-width="0.5" stroke-miterlimit="10"/>
<path d="M105.27 127.12C109.56 126.47 110.39 132.71 106.09 133.25C101.8 133.9 100.97 127.66 105.27 127.12Z" fill="#E57527" stroke="#1D1D1B" stroke-width="0.5" stroke-miterlimit="10"/>
<path d="M100.78 123.72C106.25 122.83 107.88 134.99 102.37 135.62C96.9 136.51 95.27 124.35 100.78 123.72Z" fill="#E57527"/>
<path d="M118.31 133.48C120.1 131.36 121.35 129.3 122.25 127.47C124.77 122.32 124.22 119.48 127.17 115.46C128.5 113.64 130.32 111.16 132.09 111.46C136.22 112.14 136.91 127.25 137.01 129.48C137.25 134.72 136.96 141.55 135.04 149.5" fill="#E57527"/>
<path d="M118.31 133.48C120.1 131.36 121.35 129.3 122.25 127.47C124.77 122.32 124.22 119.48 127.17 115.46C128.5 113.64 130.32 111.16 132.09 111.46C136.22 112.14 136.91 127.25 137.01 129.48C137.25 134.72 136.96 141.55 135.04 149.5" stroke="#1D1D1B" stroke-width="0.5" stroke-miterlimit="10"/>
<path d="M103.04 89.49C104.99 94.86 97.66 97.5 95.84 92.09C93.89 86.72 101.22 84.08 103.04 89.49Z" fill="#95C35A" stroke="#1D1D1B" stroke-width="0.5" stroke-miterlimit="10"/>
<path d="M102.23 90.4C103.81 94.77 98.52 96.68 97.03 92.28C95.45 87.91 100.74 86 102.23 90.4Z" fill="black" stroke="#1D1D1B" stroke-width="0.5" stroke-miterlimit="10"/>
<path d="M98.19 90.78C98.43 91.36 97.52 91.74 97.3 91.15C97.06 90.57 97.97 90.19 98.19 90.78Z" fill="white"/>
<path d="M110.89 89.94C111.04 95.66 118.81 95.35 118.52 89.64C118.37 83.92 110.6 84.23 110.89 89.94Z" fill="#83CACA" stroke="#1D1D1B" stroke-width="0.5" stroke-miterlimit="10"/>
<path d="M111.97 90.48C112.1 95.14 117.71 94.92 117.48 90.26C117.35 85.6 111.74 85.83 111.97 90.48Z" fill="black" stroke="#1D1D1B" stroke-width="0.5" stroke-miterlimit="10"/>
<path d="M113.63 89.28C113.63 89.91 112.65 89.91 112.67 89.28C112.67 88.65 113.65 88.65 113.63 89.28Z" fill="white"/>
<path d="M136.82 117.86C135.17 123.99 123.76 120.57 125.65 114.51C127.3 108.38 138.71 111.8 136.82 117.86Z" fill="#E57527" stroke="#1D1D1B" stroke-width="0.5" stroke-miterlimit="10"/>
<path d="M125.61 111.16C124.75 107.11 130.09 106.02 130.85 110.08C131.71 114.12 126.37 115.22 125.61 111.16Z" fill="#E57527" stroke="#1D1D1B" stroke-width="0.5" stroke-miterlimit="10"/>
<path d="M129.47 108.54C130.29 104.31 136.18 105.56 135.25 109.77C134.43 114 128.54 112.75 129.47 108.54Z" fill="#E57527" stroke="#1D1D1B" stroke-width="0.5" stroke-miterlimit="10"/>
<path d="M134.54 108.9C138.09 107.34 140.21 112.5 136.63 113.97C133.08 115.53 130.96 110.37 134.54 108.9Z" fill="#E57527" stroke="#1D1D1B" stroke-width="0.5" stroke-miterlimit="10"/>
<path d="M129.91 110.48C134.42 108.43 138.57 118.49 133.96 120.32C129.45 122.37 125.3 112.31 129.91 110.48Z" fill="#E57527"/>
<path d="M134.98 119.64C135.07 115.03 126.82 115.03 126.9 119.64C126.81 124.25 135.06 124.25 134.98 119.64Z" fill="#E57527"/>
<path d="M128.77 113.54C125.71 117.45 130.39 118.53 132.96 119.14C136.1 116.97 132.27 109.15 128.77 113.54Z" fill="#F2A1AE" stroke="#1D1D1B" stroke-width="0.5" stroke-miterlimit="10"/>
<path d="M126.61 110.21C126.48 111.75 128.64 112.51 128.75 110.65C128.88 109.11 126.72 108.35 126.61 110.21Z" fill="#F2A1AE" stroke="#1D1D1B" stroke-width="0.5" stroke-miterlimit="10"/>
<path d="M130.92 108C129.99 109.23 131.41 111.05 132.49 109.55C133.42 108.32 132 106.5 130.92 108Z" fill="#F2A1AE" stroke="#1D1D1B" stroke-width="0.5" stroke-miterlimit="10"/>
<path d="M135.54 110.32C134.04 110.56 133.83 112.87 135.62 112.54C137.12 112.3 137.33 109.99 135.54 110.32Z" fill="#F2A1AE" stroke="#1D1D1B" stroke-width="0.5" stroke-miterlimit="10"/>
<path d="M112.4 115.46C112.55 114.3 109.51 112.65 106.8 112.46C105.64 112.37 103.34 112.46 103.07 113.46C102.82 114.39 104.43 115.82 105.87 116.46C108.63 117.68 112.25 116.66 112.4 115.46Z" fill="#BF3261"/>
<path d="M138.01 93.43C139.55 93.85 141.71 95.95 143.69 99.44C146.53 104.45 144.75 114.5 140.85 122.47" stroke="#1D1D1B" stroke-linecap="round" stroke-linejoin="round"/>
<path d="M143.1 83.02C145.23 83.65 149.15 85.37 151.96 90.51C156.56 98.9 156.39 113.04 150.98 124.96" stroke="#1D1D1B" stroke-linecap="round" stroke-linejoin="round"/>
<path d="M144.9 75.41C148.8 76.05 157.38 78.08 163.61 85.42C172.79 96.24 173.11 114.19 163.61 129.47" stroke="#1D1D1B" stroke-linecap="round" stroke-linejoin="round"/>
<path d="M198.49 64.86C198.49 74.05 184.91 81.49 168.17 81.49C162.68 81.49 157.53 80.69 153.09 79.29L136.7 91.42L140.83 72.06C138.92 69.88 137.85 67.44 137.85 64.86C137.85 55.67 151.43 48.23 168.17 48.23C184.91 48.23 198.49 55.68 198.49 64.86Z" fill="white" stroke="#1D1D1B" stroke-width="0.5" stroke-miterlimit="10"/>
<path d="M172.09 65.73C172.09 66.81 171.93 67.79 171.63 68.69C171.32 69.59 170.85 70.36 170.21 71.02C169.57 71.68 168.77 72.19 167.81 72.56C166.85 72.93 165.73 73.11 164.45 73.11C163.33 73.11 162.34 73.03 161.48 72.87C160.62 72.71 160.03 72.55 159.71 72.39L160.1 70.26C160.28 70.35 160.52 70.43 160.82 70.5C161.12 70.57 161.45 70.64 161.82 70.7C162.19 70.76 162.57 70.81 162.97 70.85C163.37 70.89 163.77 70.9 164.17 70.9C165.79 70.9 167 70.52 167.81 69.75C168.62 68.99 169.08 67.93 169.2 66.59H162.85V64.57H169.14C168.96 63.37 168.49 62.41 167.72 61.7C166.95 60.99 165.82 60.64 164.32 60.64C163.5 60.64 162.78 60.7 162.16 60.82C161.54 60.94 161.06 61.07 160.72 61.21L160.12 59.19C160.32 59.1 160.58 59.01 160.91 58.92C161.24 58.83 161.6 58.75 161.99 58.68C162.38 58.61 162.78 58.55 163.2 58.51C163.62 58.47 164.03 58.44 164.43 58.44C165.69 58.44 166.79 58.63 167.74 59.01C168.69 59.39 169.48 59.91 170.12 60.57C170.76 61.23 171.24 62.01 171.57 62.89C171.9 63.77 172.06 64.72 172.06 65.74L172.09 65.73Z" fill="#A8111C"/>
<defs>
<radialGradient id="paint0_radial_120_151" cx="0" cy="0" r="1" gradientUnits="userSpaceOnUse" gradientTransform="translate(108.123 102.134) scale(2.8942 4.2914)">
<stop offset="0.17" stop-color="#EC72A8"/>
<stop offset="0.97" stop-color="#A33044"/>
</radialGradient>
</defs>
</svg>
