<svg width="137.000000" height="137.000000" viewBox="0 0 137 137" fill="none" xmlns="http://www.w3.org/2000/svg" xmlns:xlink="http://www.w3.org/1999/xlink">
	<desc>
			Created with Pixso.
	</desc>
	<defs>
		<clipPath id="clip88_4">
			<rect id="sunflower" width="137.000000" height="137.000000" fill="white" fill-opacity="0"/>
		</clipPath>
	</defs>
	<g clip-path="url(#clip88_4)">
		<path id="path" d="M57.4 91.92C61.95 94.99 65.89 98.99 65.62 99.32C65.12 99.9 50.41 88.96 50.82 88.36C51.01 88.06 54.8 90.17 57.4 91.92Z" fill="#94A514" fill-opacity="1.000000" fill-rule="nonzero"/>
		<path id="path" d="M65.62 99.32C65.12 99.9 50.41 88.96 50.82 88.36C51.01 88.06 54.8 90.17 57.4 91.92C61.95 94.99 65.89 98.99 65.62 99.32Z" stroke="#2A4700" stroke-opacity="1.000000" stroke-width="1.000000"/>
		<path id="path" d="M49.15 117.68C50.93 116.75 51.84 116.28 53.15 116.09C56.14 115.65 57.4 117.13 60.58 117.46C62.96 117.71 62.99 116.94 67.18 116.31C70.03 115.9 74.99 115.21 80.3 116.99C82.44 117.71 84.3 118.72 85.32 119.27C88.39 120.94 89.92 121.76 89.87 122.23C89.65 125.43 43.53 126.14 43.1 122.12C42.96 120.91 46.9 118.83 49.15 117.68Z" fill="#7C5900" fill-opacity="1.000000" fill-rule="nonzero"/>
		<path id="path" d="M53.15 116.09C56.14 115.65 57.4 117.13 60.58 117.46C62.96 117.71 62.99 116.94 67.18 116.31C70.03 115.9 74.99 115.21 80.3 116.99C82.44 117.71 84.3 118.72 85.32 119.27C88.39 120.94 89.92 121.76 89.87 122.23C89.65 125.43 43.53 126.14 43.1 122.12C42.96 120.91 46.9 118.83 49.15 117.68C50.93 116.75 51.84 116.28 53.15 116.09Z" stroke="#492F00" stroke-opacity="1.000000" stroke-width="1.000000"/>
		<path id="path" d="M61.84 119.49C62.58 121.19 63.65 120.64 64 120.45C67.34 118.66 68.93 101.35 69.13 90.63C69.4 75.15 66.96 61.97 64.22 54.16C63.7 52.68 63.07 51.12 63.07 51.12C62.77 50.44 61.45 47.37 61.26 47.84C61.01 48.44 63.02 54.52 63.89 59.26C68 81.43 58.71 112.34 61.84 119.49Z" fill="#94A514" fill-opacity="1.000000" fill-rule="nonzero"/>
		<path id="path" d="M64 120.45C67.34 118.66 68.93 101.35 69.13 90.63C69.4 75.15 66.96 61.97 64.22 54.16C63.7 52.68 63.07 51.12 63.07 51.12C62.77 50.44 61.45 47.37 61.26 47.84C61.01 48.44 63.02 54.52 63.89 59.26C68 81.43 58.71 112.34 61.84 119.49C62.58 121.19 63.65 120.64 64 120.45Z" stroke="#2A4700" stroke-opacity="1.000000" stroke-width="1.000000"/>
		<g opacity="0.500000">
			<path id="path" d="M69.18 90.52C68.99 101.24 67.4 118.56 64.06 120.34C63.7 120.53 62.63 121.1 61.89 119.38C61.62 118.75 61.45 117.95 61.34 116.99C62.14 116.86 63.02 116.34 63.92 115.02C66.44 111.32 67.23 103.65 67.92 96.94C68.71 88.8 68.8 81.13 68.55 74.58C69.02 79.51 69.29 84.85 69.18 90.52Z" fill="#636B03" fill-opacity="1.000000" fill-rule="nonzero"/>
		</g>
		<g opacity="0.500000">
			<path id="path" d="M66.14 60.41C65.89 61.1 65.62 61.78 65.29 62.41C65.04 62.85 64.82 63.23 64.6 63.56C64.52 62.82 64.44 62.08 64.33 61.37C64.22 60.63 64.11 59.89 63.97 59.15C63.1 54.44 61.1 48.36 61.34 47.73C61.54 47.26 62.85 50.33 63.15 51.01C63.15 51.01 63.81 52.58 64.3 54.06C64.77 55.37 65.21 56.82 65.65 58.44C65.78 59.07 65.97 59.73 66.14 60.41Z" fill="#636B03" fill-opacity="1.000000" fill-rule="nonzero"/>
		</g>
		<g opacity="0.570000">
			<path id="path" d="M89.35 122.17C89.24 123.82 76.58 124.77 64.77 124.69C75.04 122.88 78.85 121.87 78.77 121.38C78.69 120.61 69.86 121.65 68.77 118.66C68.52 117.95 68.71 117.16 69.21 116.31C72 115.98 76 115.76 80.22 117.16C82.25 117.84 84.06 118.8 85.02 119.32C87.92 120.91 89.37 121.71 89.35 122.17Z" fill="#593F05" fill-opacity="1.000000" fill-rule="nonzero"/>
		</g>
		<g opacity="0.570000">
			<path id="path" d="M56.55 116.5C54.6 117.9 52.22 119.35 49.37 120.53C47.07 121.49 44.93 122.09 43.01 122.47C42.93 122.36 42.88 122.25 42.88 122.14C42.88 122.09 42.88 122.01 42.9 121.95C43.18 120.72 46.82 118.8 48.93 117.71C50.71 116.77 51.62 116.31 52.93 116.12C53.67 116.01 54.27 116.01 54.88 116.09C55.45 116.14 56 116.31 56.55 116.5Z" fill="#593F05" fill-opacity="1.000000" fill-rule="nonzero"/>
		</g>
		<circle id="circle" cx="63.650208" cy="41.894531" r="18.823799" fill="#2D0D00" fill-opacity="1.000000"/>
		<g opacity="0.490000">
			<ellipse id="circle" cx="63.650208" cy="41.894531" rx="15.782398" ry="15.782402" fill="#5D330B" fill-opacity="1.000000"/>
		</g>
		<g opacity="0.490000">
			<ellipse id="circle" cx="63.595459" cy="41.867188" rx="12.357402" ry="12.357399" fill="#774019" fill-opacity="1.000000"/>
		</g>
		<g opacity="0.490000">
			<ellipse id="ellipse" rx="9.699746" ry="9.699750" transform="matrix(0.160198 -0.987085 0.987085 0.160198 63.5889 41.8462)" fill="#7D5B1B" fill-opacity="1.000000"/>
		</g>
		<line id="line" x1="49.593994" y1="23.153320" x2="48.963806" y2="59.896484" stroke="#000000" stroke-opacity="1.000000" stroke-width="0.500000"/>
		<line id="line" x1="51.375000" y1="23.153320" x2="50.744812" y2="59.896484" stroke="#000000" stroke-opacity="1.000000" stroke-width="0.500000"/>
		<line id="line" x1="46.059326" y1="22.385742" x2="45.429199" y2="59.156738" stroke="#000000" stroke-opacity="1.000000" stroke-width="0.500000"/>
		<line id="line" x1="47.812988" y1="22.385742" x2="47.182861" y2="59.156738" stroke="#000000" stroke-opacity="1.000000" stroke-width="0.500000"/>
		<line id="line" x1="56.443970" y1="23.893555" x2="55.813843" y2="60.664551" stroke="#000000" stroke-opacity="1.000000" stroke-width="0.500000"/>
		<line id="line" x1="58.224976" y1="23.893555" x2="57.594849" y2="60.664551" stroke="#000000" stroke-opacity="1.000000" stroke-width="0.500000"/>
		<line id="line" x1="52.882080" y1="23.153320" x2="52.251892" y2="59.896484" stroke="#000000" stroke-opacity="1.000000" stroke-width="0.500000"/>
		<line id="line" x1="54.662964" y1="23.153320" x2="54.032776" y2="59.896484" stroke="#000000" stroke-opacity="1.000000" stroke-width="0.500000"/>
		<line id="line" x1="63.540527" y1="22.166992" x2="62.910339" y2="60.664062" stroke="#000000" stroke-opacity="1.000000" stroke-width="0.500000"/>
		<line id="line" x1="65.321655" y1="22.166992" x2="64.691467" y2="60.664062" stroke="#000000" stroke-opacity="1.000000" stroke-width="0.500000"/>
		<line id="line" x1="59.978760" y1="23.153320" x2="59.348572" y2="59.896484" stroke="#000000" stroke-opacity="1.000000" stroke-width="0.500000"/>
		<line id="line" x1="61.759521" y1="21.372070" x2="61.129333" y2="59.869141" stroke="#000000" stroke-opacity="1.000000" stroke-width="0.500000"/>
		<line id="line" x1="70.390503" y1="24.660156" x2="69.760376" y2="61.431152" stroke="#000000" stroke-opacity="1.000000" stroke-width="0.500000"/>
		<line id="line" x1="72.171631" y1="24.660156" x2="71.541504" y2="61.431152" stroke="#000000" stroke-opacity="1.000000" stroke-width="0.500000"/>
		<line id="line" x1="66.828613" y1="22.166992" x2="66.198425" y2="60.664062" stroke="#000000" stroke-opacity="1.000000" stroke-width="0.500000"/>
		<line id="line" x1="68.609497" y1="23.893555" x2="67.979370" y2="60.664551" stroke="#000000" stroke-opacity="1.000000" stroke-width="0.500000"/>
		<line id="line" x1="77.733765" y1="25.427734" x2="77.103638" y2="62.198730" stroke="#000000" stroke-opacity="1.000000" stroke-width="0.500000"/>
		<line id="line" x1="79.514771" y1="25.427734" x2="78.884644" y2="62.198730" stroke="#000000" stroke-opacity="1.000000" stroke-width="0.500000"/>
		<line id="line" x1="74.199097" y1="24.660156" x2="73.568970" y2="61.431152" stroke="#000000" stroke-opacity="1.000000" stroke-width="0.500000"/>
		<line id="line" x1="75.952759" y1="24.660156" x2="75.322632" y2="61.431152" stroke="#000000" stroke-opacity="1.000000" stroke-width="0.500000"/>
		<line id="line" x1="81.049194" y1="25.427734" x2="80.419067" y2="62.198730" stroke="#000000" stroke-opacity="1.000000" stroke-width="0.500000"/>
		<line id="line" x1="44.936035" y1="55.978516" x2="81.679443" y2="55.622070" stroke="#000000" stroke-opacity="1.000000" stroke-width="0.500000"/>
		<line id="line" x1="44.881226" y1="54.197266" x2="81.652039" y2="53.840820" stroke="#000000" stroke-opacity="1.000000" stroke-width="0.500000"/>
		<line id="line" x1="44.251099" y1="59.540039" x2="81.021912" y2="59.183594" stroke="#000000" stroke-opacity="1.000000" stroke-width="0.500000"/>
		<line id="line" x1="44.223633" y1="57.759766" x2="80.967041" y2="57.403320" stroke="#000000" stroke-opacity="1.000000" stroke-width="0.500000"/>
		<line id="line" x1="45.511353" y1="49.101562" x2="82.282166" y2="48.745117" stroke="#000000" stroke-opacity="1.000000" stroke-width="0.500000"/>
		<line id="line" x1="45.456543" y1="47.347656" x2="82.227356" y2="46.991211" stroke="#000000" stroke-opacity="1.000000" stroke-width="0.500000"/>
		<line id="line" x1="44.826416" y1="52.690430" x2="81.597229" y2="52.333984" stroke="#000000" stroke-opacity="1.000000" stroke-width="0.500000"/>
		<line id="line" x1="44.799072" y1="50.909180" x2="81.569885" y2="50.552734" stroke="#000000" stroke-opacity="1.000000" stroke-width="0.500000"/>
		<line id="line" x1="43.566040" y1="42.059570" x2="82.090454" y2="41.676270" stroke="#000000" stroke-opacity="1.000000" stroke-width="0.500000"/>
		<line id="line" x1="43.538574" y1="40.278320" x2="82.035583" y2="39.895020" stroke="#000000" stroke-opacity="1.000000" stroke-width="0.500000"/>
		<line id="line" x1="44.634521" y1="45.594727" x2="81.405334" y2="45.238281" stroke="#000000" stroke-opacity="1.000000" stroke-width="0.500000"/>
		<line id="line" x1="42.826294" y1="43.867188" x2="81.323242" y2="43.456055" stroke="#000000" stroke-opacity="1.000000" stroke-width="0.500000"/>
		<line id="line" x1="45.895020" y1="35.155273" x2="82.665833" y2="34.798828" stroke="#000000" stroke-opacity="1.000000" stroke-width="0.500000"/>
		<line id="line" x1="45.840210" y1="33.374023" x2="82.611023" y2="33.017578" stroke="#000000" stroke-opacity="1.000000" stroke-width="0.500000"/>
		<line id="line" x1="43.483765" y1="38.771484" x2="81.980774" y2="38.360352" stroke="#000000" stroke-opacity="1.000000" stroke-width="0.500000"/>
		<line id="line" x1="45.182617" y1="36.935547" x2="81.953430" y2="36.606934" stroke="#000000" stroke-opacity="1.000000" stroke-width="0.500000"/>
		<line id="line" x1="46.443115" y1="27.784180" x2="83.213928" y2="27.427734" stroke="#000000" stroke-opacity="1.000000" stroke-width="0.500000"/>
		<line id="line" x1="46.415649" y1="26.002930" x2="83.186462" y2="25.646484" stroke="#000000" stroke-opacity="1.000000" stroke-width="0.500000"/>
		<line id="line" x1="45.785400" y1="31.345703" x2="82.556213" y2="30.989258" stroke="#000000" stroke-opacity="1.000000" stroke-width="0.500000"/>
		<line id="line" x1="45.730591" y1="29.565430" x2="82.501404" y2="29.236816" stroke="#000000" stroke-opacity="1.000000" stroke-width="0.500000"/>
		<line id="line" x1="46.360840" y1="24.496094" x2="83.131653" y2="24.139648" stroke="#000000" stroke-opacity="1.000000" stroke-width="0.500000"/>
		<path id="path" d="M48.25 31.48C49.45 31.37 50.69 30.38 50.96 30.19C51.92 29.45 52.19 28.85 52.85 28.05C54.8 25.7 56.55 26.13 57.1 24.79C58.11 22.24 55.04 18.19 51.75 16.16C49.1 14.54 43.92 12.85 41.4 15.28C38.05 18.54 42.38 26.19 42.68 26.68C43.18 27.59 45.53 31.75 48.25 31.48Z" fill="#F4C714" fill-opacity="1.000000" fill-rule="nonzero"/>
		<path id="path" d="M50.96 30.19C51.92 29.45 52.19 28.85 52.85 28.05C54.8 25.7 56.55 26.13 57.1 24.79C58.11 22.24 55.04 18.19 51.75 16.16C49.1 14.54 43.92 12.85 41.4 15.28C38.05 18.54 42.38 26.19 42.68 26.68C43.18 27.59 45.53 31.75 48.25 31.48C49.45 31.37 50.69 30.38 50.96 30.19Z" stroke="#F7931E" stroke-opacity="1.000000" stroke-width="1.000000"/>
		<path id="path" d="M52 28.35C52 28.13 50.33 28.24 48.03 27.31C45.62 26.33 44.49 25.01 44.36 25.18C44.19 25.37 45.48 27.53 47.75 28.41C49.84 29.18 52 28.63 52 28.35Z" fill="#F1B517" fill-opacity="1.000000" fill-rule="nonzero"/>
		<path id="path" d="M52 28.35C52 28.13 50.33 28.24 48.03 27.31C45.62 26.33 44.49 25.01 44.36 25.18C44.19 25.37 45.48 27.53 47.75 28.41C49.84 29.18 52 28.63 52 28.35Z" fill="#000000" fill-opacity="0" fill-rule="nonzero"/>
		<path id="path" d="M48.03 27.31C45.62 26.33 44.49 25.01 44.36 25.18C44.19 25.37 45.48 27.53 47.75 28.41C49.84 29.18 52 28.63 52 28.35C52 28.13 50.33 28.24 48.03 27.31Z" stroke="#F7931E" stroke-opacity="1.000000" stroke-width="1.000000"/>
		<path id="path" d="M52.38 26.93C52.58 26.74 50.93 24.63 49.59 23.12C47.7 21.01 45.37 19.01 45.15 19.2C44.96 19.39 46.63 21.53 48 23.04C49.86 25.12 52.16 27.12 52.38 26.93Z" fill="#F1B517" fill-opacity="1.000000" fill-rule="nonzero"/>
		<path id="path" d="M49.59 23.12C47.7 21.01 45.37 19.01 45.15 19.2C44.96 19.39 46.63 21.53 48 23.04C49.86 25.12 52.16 27.12 52.38 26.93C52.58 26.74 50.93 24.63 49.59 23.12Z" stroke="#F7931E" stroke-opacity="1.000000" stroke-width="1.000000"/>
		<path id="path" d="M53.78 26.27C53.56 26.27 53.78 24.6 52.99 22.24C52.16 19.78 50.93 18.57 51.1 18.44C51.29 18.27 53.37 19.72 54.08 22.05C54.74 24.13 54.03 26.27 53.78 26.27Z" fill="#F1B517" fill-opacity="1.000000" fill-rule="nonzero"/>
		<path id="path" d="M53.78 26.27C53.56 26.27 53.78 24.6 52.99 22.24C52.16 19.78 50.93 18.57 51.1 18.44C51.29 18.27 53.37 19.72 54.08 22.05C54.74 24.13 54.03 26.27 53.78 26.27Z" fill="#000000" fill-opacity="0" fill-rule="nonzero"/>
		<path id="path" d="M52.99 22.24C52.16 19.78 50.93 18.57 51.1 18.44C51.29 18.27 53.37 19.72 54.08 22.05C54.74 24.13 54.03 26.27 53.78 26.27C53.56 26.27 53.78 24.6 52.99 22.24Z" stroke="#F7931E" stroke-opacity="1.000000" stroke-width="1.000000"/>
		<path id="path" d="M47.29 48.74C47.78 47.64 47.59 46.08 47.53 45.75C47.37 44.55 46.99 44.03 46.63 43.04C45.56 40.16 46.88 38.88 45.97 37.72C44.27 35.56 39.23 36.14 35.83 37.97C33.09 39.45 29.01 43.04 29.86 46.47C30.98 51.01 39.75 51.12 40.33 51.12C41.37 51.12 46.14 51.21 47.29 48.74Z" fill="#F4C714" fill-opacity="1.000000" fill-rule="nonzero"/>
		<path id="path" d="M47.53 45.75C47.37 44.55 46.99 44.03 46.63 43.04C45.56 40.16 46.88 38.88 45.97 37.72C44.27 35.56 39.23 36.14 35.83 37.97C33.09 39.45 29.01 43.04 29.86 46.47C30.98 51.01 39.75 51.12 40.33 51.12C41.37 51.12 46.14 51.21 47.29 48.74C47.78 47.64 47.59 46.08 47.53 45.75Z" stroke="#F7931E" stroke-opacity="1.000000" stroke-width="1.000000"/>
		<path id="path" d="M46.52 43.89C46.33 43.78 45.59 45.26 43.62 46.79C41.56 48.38 39.83 48.68 39.92 48.9C40 49.15 42.52 49.12 44.41 47.59C46.11 46.19 46.74 44.03 46.52 43.89Z" fill="#F1B517" fill-opacity="1.000000" fill-rule="nonzero"/>
		<path id="path" d="M46.52 43.89C46.33 43.78 45.59 45.26 43.62 46.79C41.56 48.38 39.83 48.68 39.92 48.9C40 49.15 42.52 49.12 44.41 47.59C46.11 46.19 46.74 44.03 46.52 43.89Z" fill="#000000" fill-opacity="0" fill-rule="nonzero"/>
		<path id="path" d="M43.62 46.79C41.56 48.38 39.83 48.68 39.92 48.9C40 49.15 42.52 49.12 44.41 47.59C46.11 46.19 46.74 44.03 46.52 43.89C46.33 43.78 45.59 45.26 43.62 46.79Z" stroke="#F7931E" stroke-opacity="1.000000" stroke-width="1.000000"/>
		<path id="path" d="M45.45 42.85C45.4 42.57 42.74 42.93 40.77 43.34C38 43.92 35.09 44.9 35.15 45.18C35.2 45.45 37.92 45.1 39.92 44.66C42.63 44.11 45.53 43.12 45.45 42.85Z" fill="#F1B517" fill-opacity="1.000000" fill-rule="nonzero"/>
		<path id="path" d="M40.77 43.34C38 43.92 35.09 44.9 35.15 45.18C35.2 45.45 37.92 45.1 39.92 44.66C42.63 44.11 45.53 43.12 45.45 42.85C45.4 42.57 42.74 42.93 40.77 43.34Z" stroke="#F7931E" stroke-opacity="1.000000" stroke-width="1.000000"/>
		<path id="path" d="M45.59 41.31C45.48 41.51 44.16 40.46 41.73 39.94C39.18 39.4 37.51 39.86 37.48 39.64C37.45 39.4 39.73 38.33 42.11 38.9C44.25 39.4 45.73 41.1 45.59 41.31Z" fill="#F1B517" fill-opacity="1.000000" fill-rule="nonzero"/>
		<path id="path" d="M45.59 41.31C45.48 41.51 44.16 40.46 41.73 39.94C39.18 39.4 37.51 39.86 37.48 39.64C37.45 39.4 39.73 38.33 42.11 38.9C44.25 39.4 45.73 41.1 45.59 41.31Z" fill="#000000" fill-opacity="0" fill-rule="nonzero"/>
		<path id="path" d="M41.73 39.94C39.18 39.4 37.51 39.86 37.48 39.64C37.45 39.4 39.73 38.33 42.11 38.9C44.25 39.4 45.73 41.1 45.59 41.31C45.48 41.51 44.16 40.46 41.73 39.94Z" stroke="#F7931E" stroke-opacity="1.000000" stroke-width="1.000000"/>
		<path id="path" d="M45.48 39.31C46.41 38.55 46.88 37.04 46.99 36.74C47.37 35.59 47.23 34.93 47.34 33.92C47.62 30.87 49.34 30.27 49.01 28.85C48.41 26.16 43.62 24.52 39.75 24.71C36.63 24.87 31.42 26.35 30.71 29.81C29.78 34.38 37.64 38.27 38.16 38.52C39.12 38.93 43.4 41.04 45.48 39.31Z" fill="#FBE305" fill-opacity="1.000000" fill-rule="nonzero"/>
		<path id="path" d="M46.99 36.74C47.37 35.59 47.23 34.93 47.34 33.92C47.62 30.87 49.34 30.27 49.01 28.85C48.41 26.16 43.62 24.52 39.75 24.71C36.63 24.87 31.42 26.35 30.71 29.81C29.78 34.38 37.64 38.27 38.16 38.52C39.12 38.93 43.4 41.04 45.48 39.31C46.41 38.55 46.88 37.04 46.99 36.74Z" stroke="#F7931E" stroke-opacity="1.000000" stroke-width="1.000000"/>
		<path id="path" d="M46.88 34.63C46.77 34.44 45.45 35.48 43.01 36C40.46 36.55 38.79 36.08 38.77 36.3C38.74 36.55 41.01 37.62 43.4 37.07C45.53 36.52 47.01 34.85 46.88 34.63Z" fill="#F2C40C" fill-opacity="1.000000" fill-rule="nonzero"/>
		<path id="path" d="M43.01 36C40.46 36.55 38.79 36.08 38.77 36.3C38.74 36.55 41.01 37.62 43.4 37.07C45.53 36.52 47.01 34.85 46.88 34.63C46.77 34.44 45.45 35.48 43.01 36Z" stroke="#F7931E" stroke-opacity="1.000000" stroke-width="1.000000"/>
		<path id="path" d="M46.38 33.2C46.44 32.93 43.89 32.11 41.94 31.61C39.2 30.93 36.14 30.57 36.08 30.87C36.03 31.15 38.6 31.97 40.6 32.46C43.29 33.12 46.33 33.48 46.38 33.2Z" fill="#F2C40C" fill-opacity="1.000000" fill-rule="nonzero"/>
		<path id="path" d="M41.94 31.61C39.2 30.93 36.14 30.57 36.08 30.87C36.03 31.15 38.6 31.97 40.6 32.46C43.29 33.12 46.33 33.48 46.38 33.2C46.44 32.93 43.89 32.11 41.94 31.61Z" stroke="#F7931E" stroke-opacity="1.000000" stroke-width="1.000000"/>
		<path id="path" d="M47.15 31.89C46.96 32 46.22 30.52 44.25 28.98C42.19 27.39 40.46 27.09 40.55 26.87C40.63 26.63 43.15 26.66 45.04 28.19C46.77 29.59 47.37 31.75 47.15 31.89Z" fill="#F2C40C" fill-opacity="1.000000" fill-rule="nonzero"/>
		<path id="path" d="M44.25 28.98C42.19 27.39 40.46 27.09 40.55 26.87C40.63 26.63 43.15 26.66 45.04 28.19C46.77 29.59 47.37 31.75 47.15 31.89C46.96 32 46.22 30.52 44.25 28.98Z" stroke="#F7931E" stroke-opacity="1.000000" stroke-width="1.000000"/>
		<path id="path" d="M61.15 59.4C60.63 58.33 59.29 57.48 59.01 57.32C58 56.69 57.34 56.63 56.36 56.27C53.45 55.26 53.29 53.45 51.84 53.43C49.1 53.37 46.33 57.62 45.56 61.4C44.96 64.47 45.12 69.89 48.3 71.4C52.52 73.43 58.19 66.71 58.55 66.28C59.26 65.51 62.36 61.86 61.15 59.4Z" fill="#F4C714" fill-opacity="1.000000" fill-rule="nonzero"/>
		<path id="path" d="M59.01 57.32C58 56.69 57.34 56.63 56.36 56.27C53.45 55.26 53.29 53.45 51.84 53.43C49.1 53.37 46.33 57.62 45.56 61.4C44.96 64.47 45.12 69.89 48.3 71.4C52.52 73.43 58.19 66.71 58.55 66.28C59.26 65.51 62.36 61.86 61.15 59.4C60.63 58.33 59.29 57.48 59.01 57.32Z" stroke="#F7931E" stroke-opacity="1.000000" stroke-width="1.000000"/>
		<path id="path" d="M56.93 56.93C56.71 56.99 57.4 58.52 57.32 61.02C57.23 63.62 56.38 65.12 56.58 65.21C56.82 65.32 58.41 63.34 58.44 60.91C58.47 58.69 57.18 56.85 56.93 56.93Z" fill="#F1B517" fill-opacity="1.000000" fill-rule="nonzero"/>
		<path id="path" d="M56.93 56.93C56.71 56.99 57.4 58.52 57.32 61.02C57.23 63.62 56.38 65.12 56.58 65.21C56.82 65.32 58.41 63.34 58.44 60.91C58.47 58.69 57.18 56.85 56.93 56.93Z" fill="#000000" fill-opacity="0" fill-rule="nonzero"/>
		<path id="path" d="M57.32 61.02C57.23 63.62 56.38 65.12 56.58 65.21C56.82 65.32 58.41 63.34 58.44 60.91C58.47 58.69 57.18 56.85 56.93 56.93C56.71 56.99 57.4 58.52 57.32 61.02Z" stroke="#F7931E" stroke-opacity="1.000000" stroke-width="1.000000"/>
		<path id="path" d="M55.45 57.07C55.21 56.96 53.78 59.23 52.85 61.01C51.53 63.51 50.44 66.39 50.71 66.52C50.96 66.63 52.38 64.33 53.34 62.52C54.63 60.06 55.73 57.21 55.45 57.07Z" fill="#F1B517" fill-opacity="1.000000" fill-rule="nonzero"/>
		<path id="path" d="M52.85 61.01C51.53 63.51 50.44 66.39 50.71 66.52C50.96 66.63 52.38 64.33 53.34 62.52C54.63 60.06 55.73 57.21 55.45 57.07C55.21 56.96 53.78 59.23 52.85 61.01Z" stroke="#F7931E" stroke-opacity="1.000000" stroke-width="1.000000"/>
		<path id="path" d="M54.36 56C54.44 56.22 52.79 56.58 50.82 58.11C48.79 59.73 48.05 61.29 47.89 61.18C47.67 61.04 48.3 58.6 50.25 57.15C52.03 55.81 54.27 55.75 54.36 56Z" fill="#F1B517" fill-opacity="1.000000" fill-rule="nonzero"/>
		<path id="path" d="M54.36 56C54.44 56.22 52.79 56.58 50.82 58.11C48.79 59.73 48.05 61.29 47.89 61.18C47.67 61.04 48.3 58.6 50.25 57.15C52.03 55.81 54.27 55.75 54.36 56Z" fill="#000000" fill-opacity="0" fill-rule="nonzero"/>
		<path id="path" d="M50.82 58.11C48.79 59.73 48.05 61.29 47.89 61.18C47.67 61.04 48.3 58.6 50.25 57.15C52.03 55.81 54.27 55.75 54.36 56C54.44 56.22 52.79 56.58 50.82 58.11Z" stroke="#F7931E" stroke-opacity="1.000000" stroke-width="1.000000"/>
		<path id="path" d="M52.77 54.79C52.77 53.59 51.92 52.27 51.73 52C51.07 50.99 50.49 50.66 49.78 49.92C47.62 47.75 48.22 46.05 46.93 45.4C44.49 44.16 40.16 46.82 37.83 49.92C35.97 52.41 33.78 57.4 36 60.14C38.93 63.78 46.93 60.17 47.45 59.92C48.41 59.48 52.77 57.51 52.77 54.79Z" fill="#FBE305" fill-opacity="1.000000" fill-rule="nonzero"/>
		<path id="path" d="M51.73 52C51.07 50.99 50.49 50.66 49.78 49.92C47.62 47.75 48.22 46.05 46.93 45.4C44.49 44.16 40.16 46.82 37.83 49.92C35.97 52.41 33.78 57.4 36 60.14C38.93 63.78 46.93 60.17 47.45 59.92C48.41 59.48 52.77 57.51 52.77 54.79C52.77 53.59 51.92 52.27 51.73 52Z" stroke="#F7931E" stroke-opacity="1.000000" stroke-width="1.000000"/>
		<path id="path" d="M50.03 50.74C49.81 50.71 49.75 52.38 48.6 54.6C47.4 56.9 45.97 57.92 46.14 58.08C46.3 58.27 48.58 57.21 49.67 55.01C50.63 52.99 50.27 50.77 50.03 50.74Z" fill="#F2C40C" fill-opacity="1.000000" fill-rule="nonzero"/>
		<path id="path" d="M48.6 54.6C47.4 56.9 45.97 57.92 46.14 58.08C46.3 58.27 48.58 57.21 49.67 55.01C50.63 52.99 50.27 50.77 50.03 50.74C49.81 50.71 49.75 52.38 48.6 54.6Z" stroke="#F7931E" stroke-opacity="1.000000" stroke-width="1.000000"/>
		<path id="path" d="M48.6 50.22C48.44 50 46.16 51.45 44.55 52.66C42.27 54.36 40.05 56.47 40.25 56.71C40.41 56.93 42.71 55.45 44.33 54.25C46.58 52.58 48.79 50.47 48.6 50.22Z" fill="#F2C40C" fill-opacity="1.000000" fill-rule="nonzero"/>
		<path id="path" d="M44.55 52.66C42.27 54.36 40.05 56.47 40.25 56.71C40.41 56.93 42.71 55.45 44.33 54.25C46.58 52.58 48.79 50.47 48.6 50.22C48.44 50 46.16 51.45 44.55 52.66Z" stroke="#F7931E" stroke-opacity="1.000000" stroke-width="1.000000"/>
		<path id="path" d="M48.08 48.79C48.05 49.01 46.41 48.63 44 49.21C41.48 49.78 40.14 50.9 40.03 50.71C39.89 50.49 41.51 48.58 43.89 48.08C46.05 47.64 48.11 48.55 48.08 48.79Z" fill="#F2C40C" fill-opacity="1.000000" fill-rule="nonzero"/>
		<path id="path" d="M44 49.21C41.48 49.78 40.14 50.9 40.03 50.71C39.89 50.49 41.51 48.58 43.89 48.08C46.05 47.64 48.11 48.55 48.08 48.79C48.05 49.01 46.41 48.63 44 49.21Z" stroke="#F7931E" stroke-opacity="1.000000" stroke-width="1.000000"/>
		<path id="path" d="M77.7 54.38C76.5 54.27 75.1 55.01 74.82 55.18C73.76 55.73 73.37 56.27 72.61 56.93C70.28 58.91 68.6 58.14 67.84 59.37C66.39 61.7 68.69 66.25 71.56 68.82C73.89 70.91 78.66 73.48 81.59 71.54C85.46 68.91 82.55 60.63 82.36 60.11C81.98 59.1 80.41 54.6 77.7 54.38Z" fill="#F4C714" fill-opacity="1.000000" fill-rule="nonzero"/>
		<path id="path" d="M74.82 55.18C73.76 55.73 73.37 56.27 72.61 56.93C70.28 58.91 68.6 58.14 67.84 59.37C66.39 61.7 68.69 66.25 71.56 68.82C73.89 70.91 78.66 73.48 81.59 71.54C85.46 68.91 82.55 60.63 82.36 60.11C81.98 59.1 80.41 54.6 77.7 54.38C76.5 54.27 75.1 55.01 74.82 55.18Z" stroke="#F7931E" stroke-opacity="1.000000" stroke-width="1.000000"/>
		<path id="path" d="M73.43 56.74C73.37 56.96 75.04 57.15 77.15 58.49C79.35 59.89 80.22 61.4 80.39 61.26C80.61 61.1 79.7 58.74 77.62 57.48C75.73 56.33 73.48 56.49 73.43 56.74Z" fill="#F1B517" fill-opacity="1.000000" fill-rule="nonzero"/>
		<path id="path" d="M73.43 56.74C73.37 56.96 75.04 57.15 77.15 58.49C79.35 59.89 80.22 61.4 80.39 61.26C80.61 61.1 79.7 58.74 77.62 57.48C75.73 56.33 73.48 56.49 73.43 56.74Z" fill="#000000" fill-opacity="0" fill-rule="nonzero"/>
		<path id="path" d="M77.15 58.49C79.35 59.89 80.22 61.4 80.39 61.26C80.61 61.1 79.7 58.74 77.62 57.48C75.73 56.33 73.48 56.49 73.43 56.74C73.37 56.96 75.04 57.15 77.15 58.49Z" stroke="#F7931E" stroke-opacity="1.000000" stroke-width="1.000000"/>
		<path id="path" d="M72.8 58.11C72.58 58.25 73.81 60.63 74.88 62.36C76.36 64.77 78.3 67.15 78.55 66.99C78.8 66.82 77.51 64.44 76.44 62.69C74.93 60.33 73.02 57.95 72.8 58.11Z" fill="#F1B517" fill-opacity="1.000000" fill-rule="nonzero"/>
		<path id="path" d="M74.88 62.36C76.36 64.77 78.3 67.15 78.55 66.99C78.8 66.82 77.51 64.44 76.44 62.69C74.93 60.33 73.02 57.95 72.8 58.11C72.58 58.25 73.81 60.63 74.88 62.36Z" stroke="#F7931E" stroke-opacity="1.000000" stroke-width="1.000000"/>
		<path id="path" d="M71.32 58.52C71.54 58.58 71.02 60.17 71.37 62.63C71.73 65.21 72.74 66.63 72.55 66.71C72.33 66.82 70.55 65.04 70.25 62.63C69.97 60.44 71.07 58.47 71.32 58.52Z" fill="#F1B517" fill-opacity="1.000000" fill-rule="nonzero"/>
		<path id="path" d="M71.32 58.52C71.54 58.58 71.02 60.17 71.37 62.63C71.73 65.21 72.74 66.63 72.55 66.71C72.33 66.82 70.55 65.04 70.25 62.63C69.97 60.44 71.07 58.47 71.32 58.52Z" fill="#000000" fill-opacity="0" fill-rule="nonzero"/>
		<path id="path" d="M71.37 62.63C71.73 65.21 72.74 66.63 72.55 66.71C72.33 66.82 70.55 65.04 70.25 62.63C69.97 60.44 71.07 58.47 71.32 58.52C71.54 58.58 71.02 60.17 71.37 62.63Z" stroke="#F7931E" stroke-opacity="1.000000" stroke-width="1.000000"/>
		<path id="path" d="M69.45 59.29C68.41 58.69 66.82 58.74 66.52 58.77C65.32 58.8 64.74 59.15 63.75 59.4C60.8 60.19 59.62 58.77 58.41 59.56C56.11 61.04 56.22 66.14 57.7 69.67C58.91 72.55 62.11 76.93 65.59 76.41C70.22 75.73 71.15 66.99 71.21 66.41C71.32 65.4 71.81 60.66 69.45 59.29Z" fill="#FBE305" fill-opacity="1.000000" fill-rule="nonzero"/>
		<path id="path" d="M66.52 58.77C65.32 58.8 64.74 59.15 63.75 59.4C60.8 60.19 59.62 58.77 58.41 59.56C56.11 61.04 56.22 66.14 57.7 69.67C58.91 72.55 62.11 76.93 65.59 76.41C70.22 75.73 71.15 66.99 71.21 66.41C71.32 65.4 71.81 60.66 69.45 59.29C68.41 58.69 66.82 58.74 66.52 58.77Z" stroke="#F7931E" stroke-opacity="1.000000" stroke-width="1.000000"/>
		<path id="path" d="M64.58 59.62C64.44 59.78 65.86 60.69 67.18 62.8C68.55 64.99 68.71 66.74 68.93 66.69C69.18 66.63 69.4 64.11 68.06 62.08C66.82 60.22 64.74 59.4 64.58 59.62Z" fill="#F2C40C" fill-opacity="1.000000" fill-rule="nonzero"/>
		<path id="path" d="M67.18 62.8C68.55 64.99 68.71 66.74 68.93 66.69C69.18 66.63 69.4 64.11 68.06 62.08C66.82 60.22 64.74 59.4 64.58 59.62C64.44 59.78 65.86 60.69 67.18 62.8Z" stroke="#F7931E" stroke-opacity="1.000000" stroke-width="1.000000"/>
		<path id="path" d="M63.43 60.55C63.15 60.58 63.26 63.26 63.48 65.26C63.78 68.06 64.49 71.07 64.8 71.02C65.07 70.99 64.96 68.25 64.74 66.22C64.41 63.48 63.73 60.52 63.43 60.55Z" fill="#F2C40C" fill-opacity="1.000000" fill-rule="nonzero"/>
		<path id="path" d="M63.48 65.26C63.78 68.06 64.49 71.07 64.8 71.02C65.07 70.99 64.96 68.25 64.74 66.22C64.41 63.48 63.73 60.52 63.43 60.55C63.15 60.58 63.26 63.26 63.48 65.26Z" stroke="#F7931E" stroke-opacity="1.000000" stroke-width="1.000000"/>
		<path id="path" d="M61.92 60.27C62.08 60.41 60.93 61.62 60.19 64C59.4 66.47 59.7 68.19 59.48 68.19C59.23 68.22 58.38 65.84 59.18 63.51C59.89 61.43 61.73 60.11 61.92 60.27Z" fill="#F2C40C" fill-opacity="1.000000" fill-rule="nonzero"/>
		<path id="path" d="M60.19 64C59.4 66.47 59.7 68.19 59.48 68.19C59.23 68.22 58.38 65.84 59.18 63.51C59.89 61.43 61.73 60.11 61.92 60.27C62.08 60.41 60.93 61.62 60.19 64Z" stroke="#F7931E" stroke-opacity="1.000000" stroke-width="1.000000"/>
		<path id="path" d="M80.47 35.72C79.89 36.79 80 38.35 80.03 38.68C80.11 39.89 80.47 40.44 80.74 41.45C81.62 44.38 80.25 45.59 81.07 46.79C82.63 49.07 87.7 48.79 91.21 47.18C94.06 45.86 98.33 42.55 97.73 39.09C96.91 34.49 88.14 33.83 87.57 33.78C86.5 33.7 81.76 33.34 80.47 35.72Z" fill="#F4C714" fill-opacity="1.000000" fill-rule="nonzero"/>
		<path id="path" d="M80.03 38.68C80.11 39.89 80.47 40.44 80.74 41.45C81.62 44.38 80.25 45.59 81.07 46.79C82.63 49.07 87.7 48.79 91.21 47.18C94.06 45.86 98.33 42.55 97.73 39.09C96.91 34.49 88.14 33.83 87.57 33.78C86.5 33.7 81.76 33.34 80.47 35.72C79.89 36.79 80 38.35 80.03 38.68Z" stroke="#F7931E" stroke-opacity="1.000000" stroke-width="1.000000"/>
		<path id="path" d="M80.91 40.6C81.1 40.74 81.92 39.29 84 37.89C86.17 36.44 87.89 36.25 87.84 36.03C87.78 35.78 85.26 35.64 83.26 37.04C81.46 38.33 80.72 40.44 80.91 40.6Z" fill="#F1B517" fill-opacity="1.000000" fill-rule="nonzero"/>
		<path id="path" d="M80.91 40.6C81.1 40.74 81.92 39.29 84 37.89C86.17 36.44 87.89 36.25 87.84 36.03C87.78 35.78 85.26 35.64 83.26 37.04C81.46 38.33 80.72 40.44 80.91 40.6Z" fill="#000000" fill-opacity="0" fill-rule="nonzero"/>
		<path id="path" d="M84 37.89C86.17 36.44 87.89 36.25 87.84 36.03C87.78 35.78 85.26 35.64 83.26 37.04C81.46 38.33 80.72 40.44 80.91 40.6C81.1 40.74 81.92 39.29 84 37.89Z" stroke="#F7931E" stroke-opacity="1.000000" stroke-width="1.000000"/>
		<path id="path" d="M81.89 41.73C81.95 42 84.61 41.81 86.61 41.53C89.4 41.15 92.36 40.33 92.33 40.05C92.28 39.78 89.57 39.97 87.54 40.27C84.8 40.63 81.84 41.42 81.89 41.73Z" fill="#F1B517" fill-opacity="1.000000" fill-rule="nonzero"/>
		<path id="path" d="M86.61 41.53C89.4 41.15 92.36 40.33 92.33 40.05C92.28 39.78 89.57 39.97 87.54 40.27C84.8 40.63 81.84 41.42 81.89 41.73C81.95 42 84.61 41.81 86.61 41.53Z" stroke="#F7931E" stroke-opacity="1.000000" stroke-width="1.000000"/>
		<path id="path" d="M81.67 43.23C81.81 43.04 83.04 44.16 85.46 44.85C87.95 45.56 89.65 45.21 89.68 45.42C89.7 45.67 87.35 46.6 85.02 45.86C82.88 45.23 81.51 43.45 81.67 43.23Z" fill="#F1B517" fill-opacity="1.000000" fill-rule="nonzero"/>
		<path id="path" d="M81.67 43.23C81.81 43.04 83.04 44.16 85.46 44.85C87.95 45.56 89.65 45.21 89.68 45.42C89.7 45.67 87.35 46.6 85.02 45.86C82.88 45.23 81.51 43.45 81.67 43.23Z" fill="#000000" fill-opacity="0" fill-rule="nonzero"/>
		<path id="path" d="M85.46 44.85C87.95 45.56 89.65 45.21 89.68 45.42C89.7 45.67 87.35 46.6 85.02 45.86C82.88 45.23 81.51 43.45 81.67 43.23C81.81 43.04 83.04 44.16 85.46 44.85Z" stroke="#F7931E" stroke-opacity="1.000000" stroke-width="1.000000"/>
		<path id="path" d="M81.65 45.23C80.69 45.94 80.09 47.4 79.98 47.7C79.54 48.82 79.59 49.48 79.43 50.49C78.96 53.51 77.21 54.03 77.43 55.45C77.87 58.16 82.55 60.11 86.41 60.16C89.54 60.22 94.85 59.07 95.76 55.67C96.99 51.15 89.37 46.79 88.88 46.52C87.98 46.03 83.84 43.64 81.65 45.23Z" fill="#FBE305" fill-opacity="1.000000" fill-rule="nonzero"/>
		<path id="path" d="M79.98 47.7C79.54 48.82 79.59 49.48 79.43 50.49C78.96 53.51 77.21 54.03 77.43 55.45C77.87 58.16 82.55 60.11 86.41 60.16C89.54 60.22 94.85 59.07 95.76 55.67C96.99 51.15 89.37 46.79 88.88 46.52C87.98 46.03 83.84 43.64 81.65 45.23C80.69 45.94 80.09 47.4 79.98 47.7Z" stroke="#F7931E" stroke-opacity="1.000000" stroke-width="1.000000"/>
		<path id="path" d="M79.98 49.84C80.09 50.03 81.46 49.1 83.92 48.71C86.5 48.33 88.14 48.9 88.17 48.68C88.22 48.44 86 47.23 83.62 47.64C81.43 48.03 79.84 49.62 79.98 49.84Z" fill="#F2C40C" fill-opacity="1.000000" fill-rule="nonzero"/>
		<path id="path" d="M83.92 48.71C86.5 48.33 88.14 48.9 88.17 48.68C88.22 48.44 86 47.23 83.62 47.64C81.43 48.03 79.84 49.62 79.98 49.84C80.09 50.03 81.46 49.1 83.92 48.71Z" stroke="#F7931E" stroke-opacity="1.000000" stroke-width="1.000000"/>
		<path id="path" d="M80.36 51.26C80.28 51.53 82.77 52.52 84.72 53.12C87.4 53.97 90.44 54.52 90.52 54.25C90.61 53.97 88.06 52.99 86.11 52.38C83.46 51.56 80.44 50.99 80.36 51.26Z" fill="#F2C40C" fill-opacity="1.000000" fill-rule="nonzero"/>
		<path id="path" d="M84.72 53.12C87.4 53.97 90.44 54.52 90.52 54.25C90.61 53.97 88.06 52.99 86.11 52.38C83.46 51.56 80.44 50.99 80.36 51.26C80.28 51.53 82.77 52.52 84.72 53.12Z" stroke="#F7931E" stroke-opacity="1.000000" stroke-width="1.000000"/>
		<path id="path" d="M79.51 52.55C79.7 52.44 80.36 53.97 82.22 55.62C84.17 57.32 85.87 57.75 85.78 57.95C85.7 58.19 83.18 58 81.37 56.36C79.76 54.85 79.29 52.66 79.51 52.55Z" fill="#F2C40C" fill-opacity="1.000000" fill-rule="nonzero"/>
		<path id="path" d="M82.22 55.62C84.17 57.32 85.87 57.75 85.78 57.95C85.7 58.19 83.18 58 81.37 56.36C79.76 54.85 79.29 52.66 79.51 52.55C79.7 52.44 80.36 53.97 82.22 55.62Z" stroke="#F7931E" stroke-opacity="1.000000" stroke-width="1.000000"/>
		<path id="path" d="M65.32 22.82C65.95 23.83 67.34 24.55 67.65 24.71C68.71 25.26 69.4 25.23 70.39 25.48C73.37 26.22 73.7 28 75.15 27.89C77.89 27.7 80.22 23.18 80.63 19.34C80.93 16.24 80.25 10.85 76.93 9.64C72.55 8.02 67.54 15.26 67.21 15.72C66.63 16.57 63.89 20.49 65.32 22.82Z" fill="#F4C714" fill-opacity="1.000000" fill-rule="nonzero"/>
		<path id="path" d="M67.65 24.71C68.71 25.26 69.4 25.23 70.39 25.48C73.37 26.22 73.7 28 75.15 27.89C77.89 27.7 80.22 23.18 80.63 19.34C80.93 16.24 80.25 10.85 76.93 9.64C72.55 8.02 67.54 15.26 67.21 15.72C66.63 16.57 63.89 20.49 65.32 22.82C65.95 23.83 67.34 24.55 67.65 24.71Z" stroke="#F7931E" stroke-opacity="1.000000" stroke-width="1.000000"/>
		<path id="path" d="M69.76 24.87C69.97 24.79 69.15 23.31 68.99 20.85C68.82 18.24 69.54 16.65 69.32 16.6C69.07 16.52 67.67 18.63 67.89 21.07C68.06 23.26 69.51 24.98 69.76 24.87Z" fill="#F1B517" fill-opacity="1.000000" fill-rule="nonzero"/>
		<path id="path" d="M69.76 24.87C69.97 24.79 69.15 23.31 68.99 20.85C68.82 18.24 69.54 16.65 69.32 16.6C69.07 16.52 67.67 18.63 67.89 21.07C68.06 23.26 69.51 24.98 69.76 24.87Z" fill="#000000" fill-opacity="0" fill-rule="nonzero"/>
		<path id="path" d="M68.99 20.85C68.82 18.24 69.54 16.65 69.32 16.6C69.07 16.52 67.67 18.63 67.89 21.07C68.06 23.26 69.51 24.98 69.76 24.87C69.97 24.79 69.15 23.31 68.99 20.85Z" stroke="#F7931E" stroke-opacity="1.000000" stroke-width="1.000000"/>
		<path id="path" d="M71.21 24.6C71.45 24.71 72.66 22.3 73.43 20.43C74.5 17.83 75.32 14.85 75.04 14.74C74.8 14.63 73.56 17.06 72.8 18.96C71.76 21.56 70.93 24.49 71.21 24.6Z" fill="#F1B517" fill-opacity="1.000000" fill-rule="nonzero"/>
		<path id="path" d="M73.43 20.43C74.5 17.83 75.32 14.85 75.04 14.74C74.8 14.63 73.56 17.06 72.8 18.96C71.76 21.56 70.93 24.49 71.21 24.6C71.45 24.71 72.66 22.3 73.43 20.43Z" stroke="#F7931E" stroke-opacity="1.000000" stroke-width="1.000000"/>
		<path id="path" d="M72.41 25.56C72.33 25.34 73.92 24.85 75.7 23.12C77.56 21.31 78.14 19.67 78.33 19.78C78.58 19.89 78.17 22.38 76.36 24.02C74.74 25.53 72.52 25.81 72.41 25.56Z" fill="#F1B517" fill-opacity="1.000000" fill-rule="nonzero"/>
		<path id="path" d="M72.41 25.56C72.33 25.34 73.92 24.85 75.7 23.12C77.56 21.31 78.14 19.67 78.33 19.78C78.58 19.89 78.17 22.38 76.36 24.02C74.74 25.53 72.52 25.81 72.41 25.56Z" fill="#000000" fill-opacity="0" fill-rule="nonzero"/>
		<path id="path" d="M75.7 23.12C77.56 21.31 78.14 19.67 78.33 19.78C78.58 19.89 78.17 22.38 76.36 24.02C74.74 25.53 72.52 25.81 72.41 25.56C72.33 25.34 73.92 24.85 75.7 23.12Z" stroke="#F7931E" stroke-opacity="1.000000" stroke-width="1.000000"/>
		<path id="path" d="M75.51 29.07C75.62 30.24 76.61 31.51 76.8 31.75C77.54 32.71 78.14 32.98 78.93 33.62C81.29 35.56 80.85 37.31 82.2 37.83C84.74 38.82 88.8 35.78 90.8 32.46C92.42 29.81 94.11 24.63 91.65 22.11C88.39 18.76 80.74 23.12 80.28 23.42C79.37 24 75.24 26.35 75.51 29.07Z" fill="#FBE305" fill-opacity="1.000000" fill-rule="nonzero"/>
		<path id="path" d="M76.8 31.75C77.54 32.71 78.14 32.98 78.93 33.62C81.29 35.56 80.85 37.31 82.2 37.83C84.74 38.82 88.8 35.78 90.8 32.46C92.42 29.81 94.11 24.63 91.65 22.11C88.39 18.76 80.74 23.12 80.28 23.42C79.37 24 75.24 26.35 75.51 29.07C75.62 30.24 76.61 31.51 76.8 31.75Z" stroke="#F7931E" stroke-opacity="1.000000" stroke-width="1.000000"/>
		<path id="path" d="M78.61 32.85C78.82 32.85 78.72 31.18 79.65 28.87C80.61 26.46 81.95 25.34 81.78 25.18C81.59 25.01 79.43 26.3 78.58 28.57C77.78 30.66 78.36 32.82 78.61 32.85Z" fill="#F2C40C" fill-opacity="1.000000" fill-rule="nonzero"/>
		<path id="path" d="M79.65 28.87C80.61 26.46 81.95 25.34 81.78 25.18C81.59 25.01 79.43 26.3 78.58 28.57C77.78 30.66 78.36 32.82 78.61 32.85C78.82 32.85 78.72 31.18 79.65 28.87Z" stroke="#F7931E" stroke-opacity="1.000000" stroke-width="1.000000"/>
		<path id="path" d="M80.06 33.2C80.25 33.4 82.36 31.75 83.87 30.41C85.95 28.52 87.98 26.19 87.76 25.97C87.57 25.78 85.43 27.45 83.92 28.82C81.87 30.68 79.87 33.01 80.06 33.2Z" fill="#F2C40C" fill-opacity="1.000000" fill-rule="nonzero"/>
		<path id="path" d="M83.87 30.41C85.95 28.52 87.98 26.19 87.76 25.97C87.57 25.78 85.43 27.45 83.92 28.82C81.87 30.68 79.87 33.01 80.06 33.2C80.25 33.4 82.36 31.75 83.87 30.41Z" stroke="#F7931E" stroke-opacity="1.000000" stroke-width="1.000000"/>
		<path id="path" d="M80.72 34.6C80.72 34.38 82.39 34.6 84.74 33.81C87.21 32.98 88.41 31.75 88.55 31.92C88.72 32.11 87.29 34.19 84.96 34.9C82.85 35.56 80.72 34.85 80.72 34.6Z" fill="#F2C40C" fill-opacity="1.000000" fill-rule="nonzero"/>
		<path id="path" d="M84.74 33.81C87.21 32.98 88.41 31.75 88.55 31.92C88.72 32.11 87.29 34.19 84.96 34.9C82.85 35.56 80.72 34.85 80.72 34.6C80.72 34.38 82.39 34.6 84.74 33.81Z" stroke="#F7931E" stroke-opacity="1.000000" stroke-width="1.000000"/>
		<path id="path" d="M55.45 25.15C56.58 25.56 58.14 25.2 58.44 25.15C59.62 24.9 60.11 24.46 61.04 24.02C63.81 22.74 65.21 23.89 66.28 22.9C68.28 21.04 67.26 16.05 65.15 12.82C63.45 10.22 59.51 6.46 56.19 7.58C51.78 9.09 52.41 17.86 52.47 18.41C52.55 19.48 52.88 24.24 55.45 25.15Z" fill="#FBE305" fill-opacity="1.000000" fill-rule="nonzero"/>
		<path id="path" d="M58.44 25.15C59.62 24.9 60.11 24.46 61.04 24.02C63.81 22.74 65.21 23.89 66.28 22.9C68.28 21.04 67.26 16.05 65.15 12.82C63.45 10.22 59.51 6.46 56.19 7.58C51.78 9.09 52.41 17.86 52.47 18.41C52.55 19.48 52.88 24.24 55.45 25.15C56.58 25.56 58.14 25.2 58.44 25.15Z" stroke="#F7931E" stroke-opacity="1.000000" stroke-width="1.000000"/>
		<path id="path" d="M60.19 23.97C60.3 23.78 58.74 23.15 57.07 21.31C55.32 19.39 54.85 17.72 54.66 17.81C54.41 17.89 54.66 20.41 56.33 22.16C57.86 23.78 60.08 24.22 60.19 23.97Z" fill="#F2C40C" fill-opacity="1.000000" fill-rule="nonzero"/>
		<path id="path" d="M57.07 21.31C55.32 19.39 54.85 17.72 54.66 17.81C54.41 17.89 54.66 20.41 56.33 22.16C57.86 23.78 60.08 24.22 60.19 23.97C60.3 23.78 58.74 23.15 57.07 21.31Z" stroke="#F7931E" stroke-opacity="1.000000" stroke-width="1.000000"/>
		<path id="path" d="M61.15 22.85C61.4 22.76 60.85 20.13 60.25 18.22C59.45 15.5 58.22 12.68 57.92 12.79C57.64 12.87 58.25 15.53 58.82 17.48C59.67 20.13 60.88 22.93 61.15 22.85Z" fill="#F2C40C" fill-opacity="1.000000" fill-rule="nonzero"/>
		<path id="path" d="M60.25 18.22C59.45 15.5 58.22 12.68 57.92 12.79C57.64 12.87 58.25 15.53 58.82 17.48C59.67 20.13 60.88 22.93 61.15 22.85C61.4 22.76 60.85 20.13 60.25 18.22Z" stroke="#F7931E" stroke-opacity="1.000000" stroke-width="1.000000"/>
		<path id="path" d="M62.71 22.85C62.52 22.74 63.43 21.34 63.75 18.87C64.08 16.3 63.48 14.65 63.7 14.63C63.95 14.57 65.21 16.76 64.85 19.18C64.49 21.34 62.93 22.96 62.71 22.85Z" fill="#F2C40C" fill-opacity="1.000000" fill-rule="nonzero"/>
		<path id="path" d="M63.75 18.87C64.08 16.3 63.48 14.65 63.7 14.63C63.95 14.57 65.21 16.76 64.85 19.18C64.49 21.34 62.93 22.96 62.71 22.85C62.52 22.74 63.43 21.34 63.75 18.87Z" stroke="#F7931E" stroke-opacity="1.000000" stroke-width="1.000000"/>
		<path id="path" d="M71.32 81.7C75.32 77.92 80.09 74.96 80.33 75.29C80.8 75.89 66.91 87.87 66.41 87.35C66.17 87.1 69.04 83.87 71.32 81.7Z" fill="#94A514" fill-opacity="1.000000" fill-rule="nonzero"/>
		<path id="path" d="M80.33 75.29C80.8 75.89 66.91 87.87 66.41 87.35C66.17 87.1 69.04 83.87 71.32 81.7C75.32 77.92 80.09 74.96 80.33 75.29Z" stroke="#2A4700" stroke-opacity="1.000000" stroke-width="1.000000"/>
		<path id="path" d="M56.38 88.77C56.88 85.89 51.62 81.92 47.29 80.8C40.03 78.91 33.59 84.63 32.35 85.78C38.74 93.95 45.23 96.63 48.77 97.68C53.59 99.1 60.55 99.62 61.29 97.48C61.86 95.76 58.3 92.72 55.23 90.5C55.75 90.09 56.27 89.51 56.38 88.77Z" fill="#94A514" fill-opacity="1.000000" fill-rule="nonzero"/>
		<path id="path" d="M47.29 80.8C40.03 78.91 33.59 84.63 32.35 85.78C38.74 93.95 45.23 96.63 48.77 97.68C53.59 99.1 60.55 99.62 61.29 97.48C61.86 95.76 58.3 92.72 55.23 90.5C55.75 90.09 56.27 89.51 56.38 88.77C56.88 85.89 51.62 81.92 47.29 80.8Z" stroke="#2A4700" stroke-opacity="1.000000" stroke-width="1.000000"/>
		<path id="path" d="M46.82 82.55C46.85 82.3 45.23 81.48 43.26 81.46C39.45 81.43 36.35 84.33 36.46 84.52C36.52 84.63 37.67 83.7 39.92 83.07C43.75 82 46.79 82.88 46.82 82.55Z" fill="#F6F9D4" fill-opacity="1.000000" fill-rule="nonzero"/>
		<g opacity="0.500000">
			<path id="path" d="M50.85 90.14C47.15 87.89 41.42 85.76 32.55 86.3C37.34 85.92 41.34 86.2 44.33 86.61C44.33 86.61 50.38 87.4 54.06 90.06C55.07 90.77 55.81 91.7 55.81 91.7C56.33 92.33 57.15 93.46 57.04 93.65C56.8 93.98 52.3 91.02 50.85 90.14Z" fill="#636B03" fill-opacity="1.000000" fill-rule="nonzero"/>
		</g>
		<g opacity="0.570000">
			<path id="path" d="M49.21 96.96C49.21 96.88 58.38 98.64 59.15 96.31C59.4 95.51 58.63 94.5 57.92 93.73C59.23 94.8 60.44 96.03 60.19 96.88C59.51 99.1 49.21 97.05 49.21 96.96Z" fill="#F6F9D4" fill-opacity="1.000000" fill-rule="nonzero"/>
		</g>
		<path id="path" d="M76.91 76.25C76.77 73.62 82.3 70.77 86.61 70.33C93.81 69.59 99.32 75.51 100.39 76.66C93.26 83.07 86.72 84.63 83.18 85.1C78.36 85.73 71.59 85.32 71.15 83.32C70.8 81.7 74.61 79.48 77.81 77.89C77.35 77.51 76.93 76.93 76.91 76.25Z" fill="#94A514" fill-opacity="1.000000" fill-rule="nonzero"/>
		<path id="path" d="M86.61 70.33C93.81 69.59 99.32 75.51 100.39 76.66C93.26 83.07 86.72 84.63 83.18 85.1C78.36 85.73 71.59 85.32 71.15 83.32C70.8 81.7 74.61 79.48 77.81 77.89C77.35 77.51 76.93 76.93 76.91 76.25C76.77 73.62 82.3 70.77 86.61 70.33Z" stroke="#2A4700" stroke-opacity="1.000000" stroke-width="1.000000"/>
		<g opacity="0.570000">
			<path id="path" d="M86.5 72.88C86.5 72.66 88.14 72.11 90.06 72.36C93.73 72.8 96.36 75.76 96.25 75.92C96.2 76 95.18 75.04 93.07 74.19C89.54 72.77 86.5 73.18 86.5 72.88Z" fill="#F6F9D4" fill-opacity="1.000000" fill-rule="nonzero"/>
		</g>
		<g opacity="0.500000">
			<path id="path" d="M82.06 78.19C85.89 76.69 91.65 75.51 100.14 77.13C95.59 76.17 91.68 75.89 88.77 75.87C88.77 75.87 82.85 75.81 78.99 77.67C77.92 78.19 77.1 78.91 77.1 78.91C76.52 79.4 75.59 80.28 75.67 80.47C75.87 80.8 80.58 78.77 82.06 78.19Z" fill="#636B03" fill-opacity="1.000000" fill-rule="nonzero"/>
		</g>
		<path id="path" d="M82.85 84.44C82.85 84.36 73.81 84.74 73.37 82.58C73.21 81.84 74.11 81.04 74.88 80.47C73.51 81.24 72.17 82.17 72.33 82.96C72.69 85.02 82.85 84.52 82.85 84.44Z" fill="#F6F9D4" fill-opacity="1.000000" fill-rule="nonzero"/>
	</g>
</svg>
