<?xml version="1.0" encoding="UTF-8"?>
<svg id="_Слой_1" data-name="Слой 1" xmlns="http://www.w3.org/2000/svg" viewBox="0 0 200 200">
  <defs>
    <style>
      .cls-1 {
        fill: #8c6239;
      }

      .cls-2, .cls-3, .cls-4, .cls-5 {
        fill: #fcf3ed;
      }

      .cls-2, .cls-4, .cls-6, .cls-7 {
        stroke: #c69c6d;
      }

      .cls-2, .cls-8 {
        stroke-linecap: round;
        stroke-linejoin: round;
      }

      .cls-9 {
        fill: #fff;
      }

      .cls-3 {
        opacity: .64;
      }

      .cls-10, .cls-11, .cls-7 {
        fill: #eacebe;
      }

      .cls-12 {
        fill: #d6ab88;
      }

      .cls-12, .cls-13 {
        stroke: #a67c52;
      }

      .cls-12, .cls-13, .cls-4, .cls-6, .cls-7, .cls-14 {
        stroke-miterlimit: 10;
      }

      .cls-13 {
        fill: #f2b77c;
      }

      .cls-15, .cls-14 {
        fill: #603813;
      }

      .cls-11 {
        opacity: .42;
      }

      .cls-16 {
        fill: #42210b;
      }

      .cls-6 {
        fill: #fdc5ff;
      }

      .cls-8 {
        fill: #a67c52;
        stroke: #754c24;
      }

      .cls-17 {
        fill: #f7dfbf;
      }

      .cls-14 {
        stroke: #000;
      }
    </style>
  </defs>
  <path class="cls-2" d="m143.5,70.5c.39-.81,5.67,4.77,15.32,7,11.14,2.58,19.61-1.27,20.16,1,.34,1.4-2.67,3.83-4.84,5-2.15,1.17-5.92,2.42-12.9,0-10.46-3.62-18.21-12.02-17.74-13Z"/>
  <g>
    <path class="cls-7" d="m126.93,125.64c-.12.51-.22,1.01-.32,1.49,4.43,13.04,8.95,30.86,2.31,35.62-2.7,1.93-8.51,2.61-10.04.47-1.39-1.95,1.08-5.81,1.94-7.36,2.38-4.3,3.65-11.38.18-23.81-.76-2.74-1.76-5.74-3.03-9.03-.29-1.05-.49-1.8-.54-2.03-.17-.66-.32-1.31-.47-1.95-2.25-9.74-2.04-17.24-1.99-18.91.23-6.54,1.39-11.48,2.27-14.49l12.73-11.99c5.76,18.83,5.13,29.02,3.27,34.9-1.53,4.82-4.14,7.56-6.3,17.11Z"/>
    <g>
      <path class="cls-8" d="m121.52,154.83c-.35.53-.8,1.36-1,2.44-.24,1.28-.02,2.34.18,2.96.86-.13,1.91-.33,3.07-.64,1.45-.39,2.57-.68,3.75-1.33.75-.41,1.96-1.2,3-2.62.55.94,1.57,3.07,1,5.68-.22.99-.61,1.81-1,2.44-1.56.83-4.31,2.04-8,2.44-1.96.21-3.67.14-5,0,.15-1.43.45-3.08,1-4.87.81-2.63,1.94-4.81,3-6.49Z"/>
      <path d="m121.52,164.83c-.02-.12.79-.17,3-1,2.06-.78,3.09-1.16,4-2,1.53-1.4,1.78-3.07,2-3,.25.08.29,2.38-1,4-2.33,2.93-7.95,2.3-8,2Z"/>
      <path class="cls-9" d="m120.02,163.33c-.26.07-1.19-1.42-1-3,.13-1.1.78-2.06,1-2,.16.05.04.61,0,2-.06,2.15.18,2.95,0,3Z"/>
    </g>
    <path class="cls-7" d="m77.79,105.37c-.48,2.42-1.24,6.37-2.03,11.3-1.43,8.94-1.35,10.96-2.67,16-2.02,7.73-3.13,6.54-3.71,11.37-.51,4.28-1.29,10.83,1.57,16.75.64,1.33,1.47,2.63,1,3.69-.79,1.79-4.94,2.25-6.72.29-1.46-1.6-.44-3.86-.41-9.32.03-5.35-.93-5.53-1.37-12.08-.35-5.13.23-5.26.27-13.09.02-4.25.05-9.12-.65-14.92-.45-3.68-1.32-8.8-3.17-14.81"/>
    <g>
      <path class="cls-8" d="m64.81,158.99c-.23.47-.52,1.21-.63,2.15-.12,1.12.08,2.03.24,2.57.61-.14,1.36-.34,2.18-.65,1.02-.38,1.82-.67,2.65-1.27.52-.38,1.36-1.11,2.05-2.37.43.8,1.25,2.62.93,4.9-.12.86-.37,1.59-.63,2.15-1.09.77-3.02,1.9-5.66,2.36-1.4.25-2.63.24-3.59.16.05-1.25.2-2.69.53-4.26.48-2.31,1.21-4.23,1.91-5.73Z"/>
      <path d="m65.19,167.67c-.02-.1.56-.17,2.12-.96,1.45-.74,2.18-1.11,2.8-1.86,1.04-1.27,1.17-2.72,1.32-2.67.18.06.3,2.06-.57,3.5-1.56,2.62-5.63,2.25-5.67,1.99Z"/>
      <path class="cls-9" d="m64.06,166.41c-.18.07-.91-1.19-.83-2.57.05-.95.48-1.82.64-1.77.11.04.05.53.08,1.74.04,1.87.24,2.56.11,2.6Z"/>
    </g>
    <path class="cls-4" d="m57.91,53.1c-1.48-1.12-3.6-2.69-5.6-2-3.55,1.22-4.25,8.66-4.66,13-.86,9.07.56,16.18.93,18,3.38,16.38,5.08,24.57,10.26,31,7.61,9.44,18.36,11,31.72,13,15.87,2.38,41.77,6.26,56.9-11,1.32-1.5,12.58-14.74,9.33-30-.57-2.67-2.71-10.69-9.33-15-7.12-4.63-15.36-2.4-24.25,0-13.55,3.66-14.99,8.4-25.19,9-3.98.23-11.62.69-18.66-4-7.88-5.25-10.51-13.7-21.46-22Z"/>
    <path class="cls-4" d="m146.29,130.4c-.12.51-.22,1.01-.32,1.49,4.43,13.04,8.95,30.86,2.31,35.62-2.7,1.93-8.51,2.61-10.04.47-1.39-1.95,1.08-5.81,1.94-7.36,2.38-4.3,3.65-11.38.18-23.81-.76-2.74-1.76-5.74-3.03-9.03-.29-1.05-.49-1.8-.54-2.03-.17-.66-.32-1.31-.47-1.95-2.25-9.74-2.04-17.24-1.99-18.91.23-6.54,1.39-11.48,2.27-14.49l12.73-11.99c5.76,18.83,5.13,29.02,3.27,34.9-1.53,4.82-4.14,7.56-6.3,17.11Z"/>
    <g>
      <path class="cls-8" d="m140.87,159.6c-.35.53-.8,1.36-1,2.44-.24,1.28-.02,2.34.18,2.96.86-.13,1.91-.33,3.07-.64,1.45-.39,2.57-.68,3.75-1.33.75-.41,1.96-1.2,3-2.62.55.94,1.57,3.07,1,5.68-.22.99-.61,1.81-1,2.44-1.56.83-4.31,2.04-8,2.44-1.96.21-3.67.14-5,0,.15-1.43.45-3.08,1-4.87.81-2.63,1.94-4.81,3-6.49Z"/>
      <path d="m140.87,169.6c-.02-.12.79-.17,3-1,2.06-.78,3.09-1.16,4-2,1.53-1.4,1.78-3.07,2-3,.25.08.29,2.38-1,4-2.33,2.93-7.95,2.3-8,2Z"/>
      <path class="cls-9" d="m139.37,168.1c-.26.07-1.19-1.42-1-3,.13-1.1.78-2.06,1-2,.16.05.04.61,0,2-.06,2.15.18,2.95,0,3Z"/>
    </g>
    <path class="cls-10" d="m122.64,126.05c-11.01,1.3-22.31-.39-30.77-1.66-13.35-2.01-24.1-3.56-31.71-13-5.19-6.44-6.88-14.63-10.26-31-.29-1.41-1.2-5.94-1.21-12.07.88,2.93,1.94,5.38,3.03,7.41,1.33,2.49,2.63,4.17,3.15,4.87,9.91,13.15,13.75,23.4,22.5,24.5,1.19.15.94-.06,3,0,11.93.37,17.11,7.45,33.5,16.5,1.94,1.07,4.95,2.67,8.77,4.45Z"/>
    <ellipse class="cls-5" cx="140.37" cy="83.6" rx="12" ry="9.5" transform="translate(-10.53 146.22) rotate(-53.31)"/>
    <path class="cls-4" d="m93.87,107.6c-.7,2.57-1.8,6.76-3,12-2.17,9.5-2.18,11.67-4,17-2.8,8.18-4.06,6.85-5,12-.83,4.55-2.1,11.53,1,18,.69,1.45,1.61,2.88,1,4-1.03,1.88-5.99,2.18-8,0-1.65-1.78-.32-4.15,0-10,.32-5.73-.81-5.96-1-13-.15-5.51.54-5.62,1-14,.25-4.55.54-9.76,0-16-.34-3.96-1.11-9.48-3-16"/>
    <g>
      <path class="cls-8" d="m75.67,164.39c-.3.49-.68,1.27-.86,2.27-.2,1.19-.01,2.17.15,2.76.74-.12,1.63-.3,2.63-.6,1.24-.36,2.2-.63,3.21-1.24.64-.38,1.67-1.12,2.56-2.44.47.88,1.35,2.86.86,5.29-.19.92-.52,1.68-.86,2.27-1.34.77-3.68,1.89-6.85,2.27-1.67.2-3.14.13-4.28,0,.13-1.33.38-2.87.86-4.54.69-2.45,1.66-4.47,2.57-6.05Z"/>
      <path d="m75.67,173.7c-.01-.11.68-.16,2.57-.93,1.76-.72,2.64-1.08,3.42-1.86,1.31-1.31,1.53-2.86,1.71-2.79.21.08.25,2.22-.86,3.72-1.99,2.73-6.81,2.15-6.85,1.86Z"/>
      <path class="cls-9" d="m74.39,172.3c-.22.06-1.02-1.32-.86-2.79.11-1.02.67-1.92.86-1.86.13.04.03.57,0,1.86-.05,2.01.15,2.75,0,2.79Z"/>
    </g>
    <path class="cls-10" d="m116.37,77.1c5.27-1.94,17.58-6.16,24-5,.6.11,1.19.27,1.22.28,6.38,1.78,10.5,7.81,9.78,8.72-.64.8-4.63-2.89-11-5-8.72-2.89-17.34-1.3-24,1Z"/>
    <g>
      <path class="cls-6" d="m63.22,50.14c-.16,1.02,1.42,1.78,3.55,3.48,3.95,3.14,3.57,5.08,6.22,6.09,2.25.85,4.42.27,5.35.02,4.48-1.21,7.96-5.49,7.15-6.91-.71-1.25-3.92,1.18-8.91-.03-5.18-1.26-6.84-5.11-10.68-4.37-1.07.21-2.53.81-2.68,1.72Z"/>
      <path class="cls-4" d="m60.99,51.43c.27-2.26,1.04-5.69,3.59-6.92,3.82-1.84,8.93,1.23,9.8,1.76,3.33,2.06,3.77,4.22,6.22,4.35,2.73.15,4.38-2.38,5.35-1.72.89.62.28,3.31-.91,5.2-1.23,1.96-4.08,4.53-7.14,4.31-5.01-.36-7.27-9.35-10.67-8.7-1.68.32-2.46,2.77-4.46,2.59-.83-.08-1.45-.56-1.78-.87Z"/>
    </g>
    <g>
      <path class="cls-6" d="m33.26,53.84c.93.48.61,2.18.71,4.85.2,4.96,2.02,5.84,1.25,8.49-.66,2.26-2.44,3.59-3.21,4.16-3.7,2.75-9.3,2.87-9.98,1.39-.6-1.31,3.33-2.32,5.35-6.93,2.09-4.77-.07-8.38,2.85-10.92.82-.71,2.19-1.47,3.03-1.04Z"/>
      <path class="cls-4" d="m35.67,52.89c-2.02-1.15-5.3-2.62-7.84-1.39-3.82,1.85-4.38,7.67-4.46,8.66-.32,3.83,1.19,5.47-.18,7.45-1.52,2.21-4.6,1.96-4.63,3.12-.03,1.06,2.55,2.21,4.81,2.43,2.35.22,6.18-.43,7.84-2.95,2.72-4.1-3.3-11.28-.71-13.52,1.28-1.11,3.76-.24,4.81-1.91.44-.69.41-1.46.36-1.91Z"/>
    </g>
    <path class="cls-4" d="m32.84,58.17c-.22-2.87,1.37-6.16,3.98-7.87,2.28-1.5,3.52-.57,9.94-2.41,1.08-.31,1.95-.59,2.49-.78.59-.22,1.44-.52,2.48-.84,4.15-1.29,6.36-1.98,8.29-1.6,3.7.73,5.69,5.28,6.07,6.14,1.45,3.31,1.27,6.63-2.76,19.41-4.49,14.22-5.86,15.16-7.06,15.48-3.73.98-7.81-3.47-13.65-9.85,0,0-4.68-5.1-9.13-15.28-.2-.46-.55-1.29-.64-2.42Z"/>
    <g>
      <path class="cls-13" d="m44.88,66.52c-.11.11-1.23-.98-2.13-.65-.21.08-.26.18-.71.64-.78.81-1.17,1.22-1.43,1.29-.91.25-2.71-1-2.84-2.59-.12-1.49,1.29-2.48,1.43-2.58.72.23,1.74.63,2.84,1.3,1.86,1.14,2.95,2.48,2.84,2.59Z"/>
      <polygon class="cls-16" points="38.71 66.13 38.44 64.94 41.78 64.53 42.05 65.72 38.71 66.13"/>
      <path class="cls-3" d="m39.11,63.93c-.01.39-.03,1,0,1.73.03,1.26.13,1.69,0,1.73-.21.07-.9-.78-.89-1.74.02-.95.72-1.58.9-1.73Z"/>
    </g>
    <g>
      <path class="cls-13" d="m55.93,64.42c.14.06.77-1.36,1.73-1.38.22,0,.31.07.91.34,1.04.47,1.55.71,1.82.68.94-.1,2.14-1.91,1.64-3.43-.46-1.42-2.15-1.84-2.32-1.87-.58.48-1.38,1.21-2.14,2.24-1.29,1.73-1.79,3.37-1.64,3.43Z"/>
      <polygon class="cls-16" points="61.5 61.83 61.3 60.62 58.04 61.45 58.25 62.66 61.5 61.83"/>
      <path class="cls-3" d="m60.29,59.92c.16.36.41.92.67,1.61.45,1.18.53,1.62.67,1.61.22-.01.54-1.05.16-1.93-.38-.87-1.28-1.21-1.5-1.28Z"/>
    </g>
    <path class="cls-15" d="m47.52,79.99c.1-.14,5.54,5.07,8.9,3.49,2.88-1.35,2.64-6.93,2.7-6.92.06,0,.62,6.26-2.7,7.79-3.76,1.73-9-4.22-8.9-4.36Z"/>
    <g>
      <path class="cls-12" d="m42.12,49.35c1.24-2.51-.44-5.01-1-5.84-5.44-8.09-24.09-5.76-24.38-4.52-.22.94,10.5.29,14.39,6.77,1.93,3.21,1.02,6.25,3.46,7.08,2.31.79,6.26-.89,7.54-3.48Z"/>
      <path class="cls-1" d="m39.54,49.75s-1.01,1.06-2.26,1.04c-1.44-.02-2.39-1.47-3.08-2.52-.99-1.51-1.12-2.61-1.26-2.57-.19.05-.13,2.24,1.13,4.21.52.82.91,1.42,1.7,1.58,1.7.35,3.79-1.71,3.77-1.74Z"/>
      <path class="cls-17" d="m40.77,45.64c.13-.1-1.32-2.6-4.02-4.45-4.95-3.4-11.4-2.76-11.44-2.61-.04.14,5.54-.22,10.68,2.96,3.03,1.88,4.65,4.2,4.78,4.11Z"/>
    </g>
    <path class="cls-15" d="m53.76,79.14h0c-.03.34-.05.79,0,1.3.21,2.38,1.62,4.06,1.77,3.9.07-.08-.08-.67-.88-2.6"/>
    <path class="cls-14" d="m48.42,76.52c-.12-1.08,1.53-2.16,2.68-2.59,2.18-.82,5-.24,5.34.88.24.78-.93,1.1-1.79,3.46-.34.93-.41,1.57-.9,1.73-.47.16-.95-.26-1.78-.87-2.64-1.94-3.47-1.86-3.56-2.61Z"/>
    <path class="cls-9" d="m52.44,74.37c-.45.15-1.09.4-1.79.86-.56.37-.84.56-.89.86-.17.89,1.64,1.88,1.78,1.74.11-.11-.97-.83-.89-1.74.07-.76.93-1.33,1.79-1.73Z"/>
    <path class="cls-11" d="m59.87,74.6c-.21-.09,4.38-6.84,3-15-.34-2.03-.82-4.84-3-7-4.73-4.68-13.87-1.99-14-3-.09-.65,3.7-1.66,5-2,3.45-.92,5.18-1.37,7-1,3.19.66,5.84,3.19,7,6,.63,1.54.91,3.38,0,8-1.63,8.3-4.81,14.08-5,14Z"/>
    <g>
      <path class="cls-12" d="m53.58,47.18c-2.53-1.29-2.71-4.27-2.77-5.28-.58-9.65,15.82-18.57,16.81-17.75.76.63-8.25,6.31-7.41,13.77.42,3.7,3.01,5.61,1.56,7.69-1.37,1.97-5.57,2.91-8.19,1.57Z"/>
      <path class="cls-1" d="m55.9,46.01s1.46.26,2.46-.47c1.14-.85,1.02-2.57.93-3.81-.13-1.78-.7-2.75-.57-2.8.19-.07,1.48,1.72,1.67,4.04.08.96.14,1.67-.39,2.25-1.15,1.26-4.09.82-4.09.79Z"/>
      <path class="cls-17" d="m52.39,43.41c-.16,0-.53-2.85.5-5.91,1.89-5.59,7.46-8.82,7.59-8.72.12.09-4.59,3.03-6.77,8.56-1.29,3.26-1.16,6.07-1.32,6.06Z"/>
    </g>
    <path class="cls-10" d="m72.37,52.1c.08-.1,1.54,1.65,4,2,4.23.6,7.55-3.49,8-3,.41.44-1.69,4.55-5,5-3.72.51-7.12-3.84-7-4Z"/>
    <path class="cls-10" d="m21.37,71.1c0-.33,2.18.19,4-1,4.02-2.63,2.14-10.91,3-11,.65-.07,2.53,4.63,1,9-.32.92-.78,2.16-2,3-2.46,1.69-6.01.42-6,0Z"/>
    <path class="cls-10" d="m70.37,71.1c.12-.16,12.26,13.77,27,12,8.71-1.05,14.89-7.17,15-7,.11.17-6.15,6.82-15,8-14.89,1.99-27.12-12.84-27-13Z"/>
  </g>
</svg>