<?xml version="1.0" encoding="UTF-8"?>
<svg id="_Слой_1" data-name="Слой 1" xmlns="http://www.w3.org/2000/svg" viewBox="0 0 500 500">
  <defs>
    <style>
      .cls-1 {
        fill: #f7efaa;
      }

      .cls-2 {
        fill: #8c6239;
      }

      .cls-3, .cls-4, .cls-5, .cls-6 {
        fill: #d8b759;
      }

      .cls-4 {
        opacity: .59;
      }

      .cls-7, .cls-8, .cls-6, .cls-9 {
        stroke: #8c6239;
      }

      .cls-7, .cls-8, .cls-10 {
        fill: #f4d160;
      }

      .cls-7, .cls-6, .cls-9 {
        stroke-miterlimit: 10;
      }

      .cls-5 {
        opacity: .31;
      }

      .cls-8 {
        stroke-linecap: round;
        stroke-linejoin: round;
      }

      .cls-9 {
        fill: #fff;
      }

      .cls-11 {
        fill: #fcf2d4;
      }

      .cls-12 {
        fill: #e6e6e6;
      }

      .cls-13 {
        fill: #fff364;
      }

      .cls-14 {
        fill: #fff8d4;
      }

      .cls-15 {
        fill: #c9dee2;
      }
    </style>
  </defs>
  <g>
    <path class="cls-10" d="m199.13,413.49c-30.21,0-54.79-18.64-54.79-41.56s24.58-41.56,54.79-41.56,54.79,18.64,54.79,41.56-24.58,41.56-54.79,41.56Z"/>
    <path class="cls-2" d="m199.13,330.88c29.94,0,54.29,18.42,54.29,41.06s-24.36,41.06-54.29,41.06-54.29-18.42-54.29-41.06,24.36-41.06,54.29-41.06m0-1c-30.54,0-55.29,18.83-55.29,42.06s24.76,42.06,55.29,42.06,55.29-18.83,55.29-42.06-24.76-42.06-55.29-42.06h0Z"/>
  </g>
  <g>
    <path class="cls-10" d="m298.38,416.12c-30.21,0-54.79-18.64-54.79-41.56s24.58-41.56,54.79-41.56,54.79,18.64,54.79,41.56-24.58,41.56-54.79,41.56Z"/>
    <path class="cls-2" d="m298.38,333.5c29.94,0,54.29,18.42,54.29,41.06s-24.36,41.06-54.29,41.06-54.29-18.42-54.29-41.06,24.36-41.06,54.29-41.06m0-1c-30.54,0-55.29,18.83-55.29,42.06s24.76,42.06,55.29,42.06,55.29-18.83,55.29-42.06-24.76-42.06-55.29-42.06h0Z"/>
  </g>
  <g>
    <ellipse class="cls-10" cx="248.05" cy="279.28" rx="113.63" ry="128.95"/>
    <path class="cls-2" d="m248.05,150.82c30.19,0,58.59,13.35,79.95,37.58,21.4,24.27,33.18,56.54,33.18,90.88s-11.78,66.61-33.18,90.88c-21.36,24.23-49.76,37.58-79.95,37.58s-58.59-13.35-79.95-37.58c-21.4-24.27-33.18-56.54-33.18-90.88s11.78-66.61,33.18-90.88c21.36-24.23,49.76-37.58,79.95-37.58m0-1c-63.03,0-114.13,57.96-114.13,129.45s51.1,129.45,114.13,129.45,114.13-57.96,114.13-129.45-51.1-129.45-114.13-129.45h0Z"/>
  </g>
  <ellipse class="cls-1" cx="247.61" cy="321.95" rx="92.48" ry="85.73"/>
  <ellipse class="cls-14" cx="249.33" cy="338.46" rx="67.21" ry="69.04"/>
  <g>
    <path class="cls-10" d="m171.72,247.87c-3.5,0-6.27-.92-8.22-2.73-3.44-3.19-3.89-8.74-1.25-15.62l.38-1-1.01.35c-5.27,1.8-10.61,2.76-15.46,2.76-8.2,0-14.34-2.6-17.29-7.33-2.37-3.8-2.42-8.59-.15-13.84l.32-.73-.8.03c-.53.02-1.06.03-1.57.03-8.2,0-14.33-2.6-17.26-7.33-3.88-6.23-1.38-15.24,6.52-23.52l.3-.31-.27-.34c-3.4-4.34-4.61-8.79-3.48-12.87,1.66-6,8.39-10.52,18.02-12.1l.27-.04.11-.26c13.3-31.76,61.19-53.95,116.46-53.95s102.64,21.97,116.25,53.43l.12.27.29.03c11.05,1.17,18.74,5.82,20.58,12.44,1.12,4.08-.08,8.54-3.48,12.87l-.27.34.3.31c7.89,8.29,10.39,17.3,6.52,23.52-2.94,4.73-9.07,7.33-17.26,7.33-.52,0-1.04-.01-1.57-.03l-.8-.03.32.73c2.27,5.25,2.22,10.03-.15,13.84-2.95,4.73-9.09,7.33-17.28,7.33-4.84,0-10.19-.95-15.46-2.76l-1.01-.35.38,1c2.64,6.88,2.19,12.43-1.25,15.62-1.96,1.81-4.73,2.73-8.23,2.73-5.28,0-11.79-2.14-18.35-6.02l-.49-.29-.23.52c-.47,1.07-1.14,2.01-1.99,2.8-1.95,1.81-4.72,2.73-8.22,2.73-6.06,0-13.82-2.86-21.28-7.85l-.16-.11-.19.03c-8.81,1.21-17.93,1.82-27.08,1.82-8.43,0-16.8-.52-24.88-1.53l-.18-.02-.15.1c-7.39,4.92-15.09,7.75-21.11,7.75-3.5,0-6.27-.92-8.22-2.73-.85-.79-1.52-1.73-2-2.8l-.23-.52-.49.29c-6.57,3.88-13.09,6.02-18.36,6.02Z"/>
    <path class="cls-2" d="m247.34,99.57c27.13,0,52.72,5.25,73.98,15.18,20.53,9.59,35.38,23.06,41.82,37.94l.23.54.58.06c10.83,1.15,18.37,5.66,20.15,12.07,1.08,3.93-.09,8.22-3.4,12.43l-.53.68.6.63c7.73,8.12,10.2,16.89,6.45,22.91-2.8,4.51-8.94,7.09-16.84,7.09-.51,0-1.03-.01-1.55-.03l-1.59-.06.63,1.46c2.2,5.09,2.16,9.72-.11,13.37-2.81,4.51-8.96,7.1-16.86,7.1-4.79,0-10.08-.94-15.3-2.73l-2.02-.69.77,2c2.56,6.68,2.16,12.03-1.12,15.07-1.86,1.73-4.52,2.6-7.89,2.6-5.19,0-11.61-2.11-18.1-5.95l-.97-.57-.45,1.03c-.44,1.01-1.07,1.89-1.88,2.64-1.86,1.72-4.51,2.6-7.88,2.6-5.97,0-13.62-2.83-21-7.77l-.32-.21-.38.05c-8.79,1.21-17.88,1.82-27.02,1.82-8.4,0-16.75-.51-24.81-1.53l-.37-.05-.31.21c-7.31,4.87-14.91,7.66-20.83,7.66-3.37,0-6.02-.87-7.88-2.6-.8-.74-1.44-1.63-1.88-2.64l-.45-1.03-.97.57c-6.49,3.84-12.92,5.95-18.11,5.95-3.37,0-6.03-.87-7.88-2.6-3.28-3.04-3.68-8.4-1.12-15.07l.77-2-2.02.69c-5.22,1.79-10.51,2.73-15.3,2.73-7.9,0-14.05-2.59-16.86-7.1-2.28-3.66-2.32-8.28-.12-13.37l.63-1.46-1.59.06c-.52.02-1.04.03-1.56.03-8.02,0-14-2.52-16.84-7.09-3.75-6.03-1.28-14.81,6.45-22.91l.6-.63-.53-.68c-3.3-4.21-4.48-8.5-3.4-12.43,1.6-5.8,8.19-10.19,17.62-11.74l.55-.09.21-.51c6.28-15,21.08-28.6,41.68-38.29,21.33-10.04,47.03-15.35,74.32-15.35m0-1c-56.47,0-103.88,23.09-116.93,54.25-9.53,1.56-16.63,5.99-18.42,12.46-1.21,4.38.2,9.02,3.57,13.31-7.8,8.17-10.72,17.48-6.58,24.13,3.13,5.03,9.69,7.56,17.69,7.56.53,0,1.06-.01,1.6-.03-2.24,5.18-2.35,10.22.18,14.3,3.14,5.03,9.71,7.57,17.71,7.57,4.83,0,10.19-.93,15.62-2.79-2.59,6.77-2.34,12.72,1.38,16.17,2.09,1.95,5.06,2.87,8.56,2.87,5.35,0,11.95-2.15,18.62-6.09.5,1.13,1.21,2.13,2.11,2.97,2.1,1.94,5.06,2.86,8.56,2.86,6.09,0,13.81-2.79,21.38-7.83,8.04,1.01,16.39,1.54,24.94,1.54,9.34,0,18.43-.63,27.15-1.83,7.63,5.11,15.42,7.94,21.55,7.94,3.5,0,6.47-.92,8.56-2.86.91-.84,1.62-1.84,2.11-2.97,6.66,3.94,13.25,6.09,18.61,6.09,3.5,0,6.47-.92,8.57-2.87,3.71-3.44,3.97-9.4,1.38-16.17,5.44,1.86,10.79,2.79,15.63,2.79,8,0,14.57-2.54,17.71-7.57,2.54-4.07,2.42-9.12.18-14.3.54.02,1.07.03,1.59.03,7.99,0,14.56-2.53,17.69-7.56,4.14-6.65,1.21-15.96-6.58-24.13,3.37-4.3,4.78-8.94,3.57-13.31-1.96-7.03-10.19-11.66-21.01-12.8-13.37-30.9-60.55-53.73-116.71-53.73h0Z"/>
  </g>
  <path class="cls-5" d="m175.03,131.42c2.56,1.15,4.84-1.83,14.18-6.57,11.06-5.62,13.45-8.23,21.27-13.14,6.83-4.29,14.08-7.08,12.76-9.2-1-1.61-6.81-.2-18.43,2.63-5.4,1.31-5.07,1.46-14.18,3.94-12.3,3.36-13.76,3.33-15.6,5.26-4.88,5.13-4.01,15.29,0,17.09Z"/>
  <ellipse class="cls-1" cx="248.39" cy="187.21" rx="84.36" ry="50.14"/>
  <ellipse class="cls-14" cx="246.79" cy="193.08" rx="67.49" ry="43.49"/>
  <g>
    <path class="cls-13" d="m248.02,249.13c-18.02-10.25-27.52-34.44-25.41-42.72,2.49-9.77,21.71-10.68,23.89-10.76.45-.01.92-.02,1.43-.02,10.22,0,22.91,2.82,25.06,10.79,2.3,8.53-7.58,33.05-24.98,42.71Z"/>
    <path class="cls-2" d="m247.93,195.14v1c10.04,0,22.5,2.73,24.58,10.42,2.2,8.15-7.74,32.52-24.49,42.01-17.67-10.22-27-33.9-24.93-42.02,2.45-9.58,22.57-10.35,23.42-10.38.44-.01.91-.02,1.41-.02v-1m0,0c-.51,0-.99,0-1.44.02-1.86.06-21.75.93-24.36,11.13-2.21,8.64,7.51,33.14,25.89,43.41,17.51-9.54,27.84-34.62,25.46-43.41-2.46-9.11-17.44-11.15-25.55-11.15h0Z"/>
  </g>
  <path class="cls-5" d="m385.75,202.09c-3.2,5.21-10.16,7.67-18.53,7.32,2.15,5.03,2.26,9.94-.18,13.9-4.84,7.85-18.15,9.46-32.03,4.65,2.49,6.58,2.25,12.37-1.32,15.72-5.1,4.78-15.53,3.21-26.12-3.13-.48,1.1-1.16,2.07-2.03,2.89-5.54,5.2-17.42,2.86-28.94-4.93-7.15,1-14.56,1.58-22.18,1.74,8.72-5.44,18.07-11.86,27.68-19.39,27.89-21.83,44.32-34.68,46.32-52.39,2.59-22.91-19.66-47.77-53.91-65.96,43.04,5.44,77.26,25.28,88.15,50.73,10.39,1.11,18.31,5.61,20.19,12.45,1.16,4.26-.19,8.77-3.43,12.94,7.48,7.95,10.3,17,6.32,23.46Z"/>
  <g>
    <g>
      <path class="cls-6" d="m184.24,116.31c-19.85-14.89-34.03-29.79-53.88-44.68-1.87,4.24-8.64,20.97-1.42,40.74,6.68,18.28,21.11,27.6,25.52,30.23,1.04-3.46,3.3-9.13,8.51-14.46,10.05-10.29,17.81-11.59,21.27-11.83Z"/>
      <path class="cls-7" d="m160.61,127.72c-.75-1.73-.12-3.96-.03-4.26.71-2.43,2.47-3.83,3.12-4.3-.24.11-.5.21-.75.32-6.83,2.72-13.88,1.68-15.74-2.31-1.26-2.73.23-6.14,3.46-8.88-4.59,1.39-8.92.78-10.52-1.83-1.83-2.93.4-7.36,5-10.47-5.05.74-9.44-.59-10.86-3.64-1.19-2.58.06-5.74,2.92-8.41-3.83.71-7.19-.08-8.56-2.3-1.53-2.44-.23-5.95,2.95-8.84,3.5,2.63,7.02,5.27,10.52,7.9.43.32.84.63,1.26.95,7.51,5.57,12.06,9.05,12.56,9.42,13.15,9.84,33.74,15.67,33.89,25.43.03,2.09-.88,4.11-1.33,5.1-.39.86-3.15,6.7-9.92,9.2-6.94,2.56-16.22.95-17.96-3.05Z"/>
    </g>
    <path class="cls-3" d="m161.56,99.22c3.76.78,9.67,2.49,15.6,6.57,4.95,3.41,9.96,6.86,9.92,11.83-.03,4.79-4.72,9.39-11.34,11.83,1.71-2.04,4.2-5.75,4.25-10.51.09-8.28-7.25-16.41-18.43-19.71Z"/>
  </g>
  <g>
    <g>
      <path class="cls-6" d="m298.77,116c19.85-14.89,34.03-29.79,53.88-44.68,1.87,4.24,8.64,20.97,1.42,40.74-6.68,18.28-21.11,27.6-25.52,30.23-1.04-3.46-3.3-9.13-8.51-14.46-10.05-10.29-17.81-11.59-21.27-11.83Z"/>
      <path class="cls-7" d="m322.41,127.41c.75-1.73.12-3.96.03-4.26-.71-2.43-2.47-3.83-3.12-4.3.24.11.5.21.75.32,6.83,2.72,13.88,1.68,15.74-2.31,1.26-2.73-.23-6.14-3.46-8.88,4.59,1.39,8.92.78,10.52-1.83,1.83-2.93-.4-7.36-5-10.47,5.05.74,9.44-.59,10.86-3.64,1.19-2.58-.06-5.74-2.92-8.41,3.83.71,7.19-.08,8.56-2.3,1.53-2.44.23-5.95-2.95-8.84-3.5,2.63-7.02,5.27-10.52,7.9-.43.32-.84.63-1.26.95-7.51,5.57-12.06,9.05-12.56,9.42-13.15,9.84-33.74,15.67-33.89,25.43-.03,2.09.88,4.11,1.33,5.1.39.86,3.15,6.7,9.92,9.2,6.94,2.56,16.22.95,17.96-3.05Z"/>
    </g>
    <path class="cls-3" d="m321.46,98.92c-3.76.78-9.67,2.49-15.6,6.57-4.95,3.41-9.96,6.86-9.92,11.83.03,4.79,4.72,9.39,11.34,11.83-1.71-2.04-4.2-5.75-4.25-10.51-.09-8.28,7.25-16.41,18.43-19.71Z"/>
  </g>
  <path class="cls-3" d="m115.48,168.22c.06-.03.8,3.82,4.25,6.57,6.87,5.47,18.2,1.59,18.43,2.63.19.89-7.8,5.23-14.18,2.63-6.65-2.72-8.6-11.79-8.51-11.83Z"/>
  <path class="cls-3" d="m115.48,202.39c3.13.47,7.57.78,12.76,0,8.1-1.22,13.92-4.51,17.01-6.57-1.07,1.83-3.61,5.56-8.51,7.89-10.06,4.78-20.51-.89-21.27-1.31Z"/>
  <path class="cls-3" d="m135.33,226.05c.06-.58,6.65,1.31,15.6-1.31,10.67-3.14,15.88-10.12,17.01-9.2.97.79-1.53,6.97-7.09,10.51-10.19,6.49-25.62.89-25.52,0Z"/>
  <path class="cls-3" d="m170.77,244.45c2.28-.14,5.98-.65,9.92-2.63,1.77-.89,5.18-2.65,7.64-6.16,1.7-2.42,2.06-4.41,2.28-4.35.35.09.45,5.33-2.84,9.2-3.6,4.24-10.4,5.83-17.01,3.94Z"/>
  <path class="cls-3" d="m199.13,243.14c.03-.38,4.45.74,9.92-1.31,4.42-1.66,6.67-4.31,7.09-3.94.41.37-1.22,3.48-4.25,5.26-5.46,3.2-12.8.5-12.76,0Z"/>
  <path class="cls-11" d="m142.42,162.97c.37-.96-5.66-5.04-12.76-5.26-5.14-.16-10.03,1.74-9.92,2.63.08.62,2.6.55,9.92,1.31,9.87,1.03,12.53,1.92,12.76,1.31Z"/>
  <path class="cls-11" d="m139.58,187.94c.19-.62-5.65-3.63-12.76-3.94-6.88-.3-12.87,2.02-12.76,2.63.09.48,3.98-.27,11.34,0,9.11.33,14.01,1.87,14.18,1.31Z"/>
  <path class="cls-11" d="m132.49,214.22c-.49-.72,4.37-5.59,11.34-7.89,8.39-2.76,16.99-.86,17.01,0,.02.63-4.55.48-12.76,2.63-10.03,2.62-15.13,5.94-15.6,5.26Z"/>
  <path class="cls-11" d="m165.1,241.82c.46.1.85-9.05,7.09-11.83,4.59-2.05,9.77.5,9.92,0,.17-.56-6.13-4.61-11.34-2.63-7.12,2.71-6.18,14.35-5.67,14.46Z"/>
  <path class="cls-11" d="m194.88,237.88c-.24-.38,2.83-3.17,7.2-4.23,1.45-.35,4.26-.99,6.97.29,1.66.78,3.1,2.19,2.84,2.63-.34.57-3.15-1.16-7.09-1.31-5.74-.23-9.66,3.05-9.92,2.63Z"/>
  <path class="cls-11" d="m245.1,200.17c-.14-.79-10.34-2.37-15.13,3.34-2.33,2.78-2.33,6.03-2.33,8.91,0,8.97,5.29,15.8,5.82,15.58.5-.2-3.9-6.47-2.33-14.47.28-1.45,1.16-5.63,4.65-8.91,4.24-3.98,9.41-3.88,9.31-4.45Z"/>
  <path class="cls-3" d="m326.86,243.53c-2.28-.14-5.98-.65-9.92-2.63-1.77-.89-5.18-2.65-7.64-6.16-1.7-2.42-2.06-4.41-2.28-4.35-.35.09-.45,5.33,2.84,9.2,3.6,4.24,10.4,5.83,17.01,3.94Z"/>
  <path class="cls-3" d="m298.5,242.21c-.03-.38-4.45.74-9.92-1.31-4.42-1.66-6.67-4.31-7.09-3.94-.41.37,1.22,3.48,4.25,5.26,5.46,3.2,12.8.5,12.76,0Z"/>
  <path class="cls-11" d="m332.53,240.9c-.46.1-.85-9.05-7.09-11.83-4.59-2.05-9.77.5-9.92,0-.17-.56,6.13-4.61,11.34-2.63,7.12,2.71,6.18,14.35,5.67,14.46Z"/>
  <path class="cls-11" d="m302.75,236.96c.24-.38-2.83-3.17-7.2-4.23-1.45-.35-4.26-.99-6.97.29-1.66.78-3.1,2.19-2.84,2.63.34.57,3.15-1.16,7.09-1.31,5.74-.23,9.66,3.05,9.92,2.63Z"/>
  <path class="cls-3" d="m248.6,244.7c-.28-.27,4.99-3.79,9.31-11.13,6.81-11.58,5.1-22.21,6.98-22.26,1.38-.04,3.56,5.68,2.33,11.13-.62,2.72-1.91,4.61-3.49,6.68-6.73,8.82-14.75,15.94-15.13,15.58Z"/>
  <g>
    <ellipse class="cls-9" cx="282.78" cy="180.05" rx="19.69" ry="17.23" transform="translate(-33.83 69.86) rotate(-13.3)"/>
    <ellipse cx="279.69" cy="184.03" rx="11.4" ry="9.97" transform="translate(-34.83 69.26) rotate(-13.3)"/>
    <ellipse class="cls-12" cx="282.83" cy="178.01" rx="3.11" ry="2.72" transform="translate(-33.36 69.82) rotate(-13.3)"/>
    <path class="cls-15" d="m215.16,182c-.78.16-1.08-.74-.43-1.32,1.39-1.27,2.87-2.76,4.37-4.46,1.07-1.22,2.01-2.4,2.84-3.52.37-.5,1.05-.59,1.32-.17l2.92,4.57c.24.38.01.98-.48,1.23-1.12.56-2.34,1.12-3.66,1.64-2.52.99-4.84,1.63-6.87,2.05Z"/>
  </g>
  <g>
    <ellipse class="cls-9" cx="207.25" cy="180.67" rx="17.23" ry="19.69" transform="translate(-16.24 340.81) rotate(-76.7)"/>
    <ellipse cx="210.33" cy="184.65" rx="9.97" ry="11.4" transform="translate(-17.74 346.88) rotate(-76.7)"/>
    <ellipse class="cls-12" cx="207.2" cy="178.62" rx="2.72" ry="3.11" transform="translate(-14.29 339.19) rotate(-76.7)"/>
  </g>
  <g>
    <g>
      <path class="cls-13" d="m186.14,424.78c-6.63,0-12.02-6.85-12.02-15.27s5.39-15.27,12.02-15.27,12.02,6.85,12.02,15.27-5.39,15.27-12.02,15.27Z"/>
      <path class="cls-2" d="m186.14,394.74c6.35,0,11.52,6.62,11.52,14.77s-5.17,14.77-11.52,14.77-11.52-6.62-11.52-14.77,5.17-14.77,11.52-14.77m0-1c-6.92,0-12.52,7.06-12.52,15.77s5.61,15.77,12.52,15.77,12.52-7.06,12.52-15.77-5.61-15.77-12.52-15.77h0Z"/>
    </g>
    <path class="cls-11" d="m191.35,398.55c-.12-.53-8.3-1.58-12.15,2.23-1.87,1.85-1.87,4.02-1.87,5.94,0,5.98,4.25,10.53,4.67,10.39.4-.13-3.13-4.31-1.87-9.65.23-.97.93-3.75,3.74-5.94,3.41-2.65,7.56-2.59,7.48-2.97Z"/>
    <path class="cls-3" d="m187.27,422.65c-.23-.18-1.63,2.17,1.83-2.72,5.47-7.72,4.1-14.81,5.61-14.84,1.11-.02,2.86,3.79,1.87,7.42-.49,1.81-1.21,4.38-2.48,5.76-5.4,5.88-6.53,4.62-6.83,4.38Z"/>
  </g>
  <g>
    <g>
      <path class="cls-13" d="m225.16,424.23c-6.63,0-12.02-6.85-12.02-15.27s5.39-15.27,12.02-15.27,12.02,6.85,12.02,15.27-5.39,15.27-12.02,15.27Z"/>
      <path class="cls-2" d="m225.16,394.2c6.35,0,11.52,6.62,11.52,14.77s-5.17,14.77-11.52,14.77-11.52-6.62-11.52-14.77,5.17-14.77,11.52-14.77m0-1c-6.92,0-12.52,7.06-12.52,15.77s5.61,15.77,12.52,15.77,12.52-7.06,12.52-15.77-5.61-15.77-12.52-15.77h0Z"/>
    </g>
    <path class="cls-11" d="m230.38,398c-.12-.53-8.3-1.58-12.15,2.23-1.87,1.85-1.87,4.02-1.87,5.94,0,5.98,4.25,10.53,4.67,10.39.4-.13-3.13-4.31-1.87-9.65.23-.97.93-3.75,3.74-5.94,3.41-2.65,7.56-2.59,7.48-2.97Z"/>
    <path class="cls-3" d="m226.3,422.1c-.23-.18-1.63,2.17,1.83-2.72,5.47-7.72,4.1-14.81,5.61-14.84,1.11-.02,2.86,3.79,1.87,7.42-.49,1.81-1.21,4.38-2.48,5.76-5.4,5.88-6.53,4.62-6.83,4.38Z"/>
  </g>
  <g>
    <g>
      <path class="cls-13" d="m266.67,421.64c-6.63,0-12.02-6.85-12.02-15.27s5.39-15.27,12.02-15.27,12.03,6.85,12.03,15.27-5.39,15.27-12.03,15.27Z"/>
      <path class="cls-2" d="m266.67,391.61c6.35,0,11.52,6.62,11.52,14.77s-5.17,14.77-11.52,14.77-11.52-6.62-11.52-14.77,5.17-14.77,11.52-14.77m0-1c-6.92,0-12.52,7.06-12.52,15.77s5.61,15.77,12.52,15.77,12.52-7.06,12.52-15.77-5.61-15.77-12.52-15.77h0Z"/>
    </g>
    <path class="cls-11" d="m271.89,395.41c-.12-.53-8.3-1.58-12.15,2.23-1.87,1.85-1.87,4.02-1.87,5.94,0,5.98,4.25,10.53,4.67,10.39.4-.13-3.13-4.31-1.87-9.65.23-.97.93-3.75,3.74-5.94,3.41-2.65,7.56-2.59,7.48-2.97Z"/>
    <path class="cls-3" d="m267.81,419.52c-.23-.18-1.63,2.17,1.83-2.72,5.47-7.72,4.1-14.81,5.61-14.84,1.11-.02,2.86,3.79,1.87,7.42-.49,1.81-1.21,4.38-2.48,5.76-5.4,5.88-6.53,4.62-6.83,4.38Z"/>
  </g>
  <g>
    <g>
      <path class="cls-13" d="m305.7,421.09c-6.63,0-12.03-6.85-12.03-15.27s5.39-15.27,12.03-15.27,12.02,6.85,12.02,15.27-5.39,15.27-12.02,15.27Z"/>
      <path class="cls-2" d="m305.7,391.06c6.35,0,11.52,6.62,11.52,14.77s-5.17,14.77-11.52,14.77-11.52-6.62-11.52-14.77,5.17-14.77,11.52-14.77m0-1c-6.92,0-12.52,7.06-12.52,15.77s5.61,15.77,12.52,15.77,12.52-7.06,12.52-15.77-5.61-15.77-12.52-15.77h0Z"/>
    </g>
    <path class="cls-11" d="m310.92,394.86c-.12-.53-8.3-1.58-12.15,2.23-1.87,1.85-1.87,4.02-1.87,5.94,0,5.98,4.25,10.53,4.67,10.39.4-.13-3.13-4.31-1.87-9.65.23-.97.93-3.75,3.74-5.94,3.41-2.65,7.56-2.59,7.48-2.97Z"/>
    <path class="cls-3" d="m306.84,418.97c-.23-.18-1.63,2.17,1.83-2.72,5.47-7.72,4.1-14.81,5.61-14.84,1.11-.02,2.86,3.79,1.87,7.42-.49,1.81-1.21,4.38-2.48,5.76-5.4,5.88-6.53,4.62-6.83,4.38Z"/>
  </g>
  <g>
    <g>
      <path class="cls-13" d="m206.06,431.79c-8.83,0-16.01-8.22-16.01-18.33s7.18-18.33,16.01-18.33,16.01,8.22,16.01,18.33-7.18,18.33-16.01,18.33Z"/>
      <path class="cls-2" d="m206.06,395.62c8.55,0,15.51,8,15.51,17.83s-6.96,17.83-15.51,17.83-15.51-8-15.51-17.83,6.96-17.83,15.51-17.83m0-1c-9.12,0-16.51,8.43-16.51,18.83s7.39,18.83,16.51,18.83,16.51-8.43,16.51-18.83-7.39-18.83-16.51-18.83h0Z"/>
    </g>
    <path class="cls-11" d="m212.94,400.36c-.15-.63-10.95-1.88-16.01,2.66-2.47,2.21-2.46,4.8-2.46,7.09,0,7.14,5.6,12.58,6.16,12.41.53-.16-4.13-5.15-2.46-11.52.3-1.15,1.23-4.48,4.93-7.09,4.49-3.17,9.96-3.09,9.85-3.54Z"/>
    <path class="cls-3" d="m207.56,429.15c-.3-.22-2.15,2.59,2.42-3.25,7.21-9.22,5.4-17.68,7.39-17.72,1.46-.03,3.77,4.53,2.46,8.86-.65,2.17-1.59,5.23-3.27,6.88-7.12,7.02-8.61,5.51-9.01,5.23Z"/>
  </g>
  <g>
    <g>
      <path class="cls-13" d="m286.6,428.65c-8.83,0-16.01-8.22-16.01-18.33s7.18-18.33,16.01-18.33,16.01,8.22,16.01,18.33-7.18,18.33-16.01,18.33Z"/>
      <path class="cls-2" d="m286.6,392.49c8.55,0,15.51,8,15.51,17.83s-6.96,17.83-15.51,17.83-15.51-8-15.51-17.83,6.96-17.83,15.51-17.83m0-1c-9.12,0-16.51,8.43-16.51,18.83s7.39,18.83,16.51,18.83,16.51-8.43,16.51-18.83-7.39-18.83-16.51-18.83h0Z"/>
    </g>
    <path class="cls-11" d="m293.48,397.22c-.15-.63-10.95-1.88-16.01,2.66-2.47,2.21-2.46,4.8-2.46,7.09,0,7.14,5.6,12.58,6.16,12.41.53-.16-4.13-5.15-2.46-11.52.3-1.15,1.23-4.48,4.93-7.09,4.49-3.17,9.96-3.09,9.85-3.54Z"/>
    <path class="cls-3" d="m288.1,426.01c-.3-.22-2.15,2.59,2.42-3.25,7.21-9.22,5.4-17.68,7.39-17.72,1.46-.03,3.77,4.53,2.46,8.86-.65,2.17-1.59,5.23-3.27,6.88-7.12,7.02-8.61,5.51-9.01,5.23Z"/>
  </g>
  <g>
    <g>
      <path class="cls-8" d="m129.43,305.22c-7.87,5.28-29.33,18.09-57.34,15.44-32.37-3.07-65.38-24.77-63.54-40.31.78-6.55,7.24-7.68,30.65-23.38,31.69-21.25,30.11-26.06,41.78-29.46,24.48-7.15,64.92,4.22,80.25,35.19,9.95,20.11,9.77,49.15-11.63,67.35-20.42,17.37-41.84,16.12-66.87-.21"/>
      <path class="cls-8" d="m22.77,302.15c6.91,2.06,35.34,6.99,56.05.34,11.17-3.58,19.06-9.15,23.86-13.22"/>
      <path class="cls-8" d="m14.11,293.98c7.21.22,42.09.24,59.88-11.52,9.59-6.34,15.47-13.76,18.85-18.93"/>
      <path class="cls-4" d="m71.64,323.26c-.55,2.36,12.65,8.99,27.05,10,6.09.43,16.46,1.16,25.32-4.97,11.8-8.17,14.71-24.23,11.68-25.99-1.7-.99-4.22,3.15-12.97,8.43-14.9,8.99-30.52,10.81-35.04,11.29-10.4,1.11-15.7-.22-16.04,1.23Z"/>
      <path class="cls-4" d="m152.79,253.24c-2.5,4.21-38.44-22.06-68.46-11.82-1.97.67-10.27,5.13-26.88,14.03-8.32,4.46-14.4,7.84-23.64,11.92-8.78,3.88-19.51,8.01-19.95,7.23-.29-.52,4.04-2.78,16.21-10.54,2.68-1.71,6.67-4.25,11.35-7.38,5.08-3.39,12-8.02,19.67-13.94,11.15-8.61,9.35-8.73,13.41-11.02,11.17-6.3,23.79-4.78,32.3-3.76,4.72.57,22,3.09,37.55,15.82,3.67,3,9.46,7.74,8.44,9.46Z"/>
      <path class="cls-4" d="m68.63,257.38c1.95-2.73,10.06-2.14,11.4.63.7,1.45-.43,3.5-4.14,7.29-10.85,11.1-22.91,16.05-22.91,16.05-19.45,7.98-38.4,7.5-38.56,6.68-.03-.13,6.02-1.71,18.11-4.88,5.75-1.51,9.13-2.39,13.69-4.3,4.95-2.08,7.96-3.99,9.5-5.03,1.21-.81,3.84-2.67,6.71-5.51,3.39-3.36,5.32-5.32,5.76-8.34.2-1.38-.08-1.86.45-2.59Z"/>
      <path class="cls-4" d="m24.7,295.15c.03.44,9.22.79,17.21.3,5.29-.32,22.39-1.75,42.25-11.38,3.68-1.78,25-12.12,23.14-17.34-.94-2.64-7.79-4.01-12.57-2.17-3.55,1.36-3.72,3.62-8.77,9.15-5.52,6.05-10.78,9.35-11.79,9.97-4.65,2.86-8.57,4.02-13.92,5.6-8.96,2.65-16.96,3.58-26.71,4.72-5.53.65-8.85.88-8.83,1.14Z"/>
      <path class="cls-4" d="m33.14,304.61c6.34,1.9,15.47,4.05,26.55,4.58,29.87,1.44,59.47-9.58,58.74-15.2-.27-2.09-4.8-3.77-7.94-4.04-3.7-.31-6.4,1.25-10.67,3.49-6.7,3.51-12.24,6.05-14.14,6.89-4.23,1.88-10.82,4.74-19.73,5.93-4.82.64-8.44.54-13.02.42-8.06-.22-14.82-1.16-19.78-2.08Z"/>
      <path class="cls-11" d="m144.91,323.9c1.14.66,13.47-9.53,15.87-25.27,2.14-14.05-4.55-26.47-5.53-26.3-.73.13,1.78,7.24,1.28,17.56-.98,20.5-12.84,33.3-11.63,34Z"/>
      <path class="cls-11" d="m58.57,315.66c0,.63,13.21,2.81,28.61.94,22.49-2.73,38.59-12.76,38.28-13.4-.27-.56-13.24,6.39-34.82,9.99-18.54,3.1-32.08,1.83-32.08,2.46Z"/>
      <path class="cls-11" d="m22.63,298.79c.15-.89,16.15,3.68,34.2,1.9,28.08-2.76,47.03-19.47,47.78-18.42.46.64-6.79,6.84-16.43,11.83-5.34,2.76-25.04,12.21-50.41,8.64-7.94-1.12-15.25-3.34-15.14-3.95Z"/>
      <path class="cls-11" d="m18.16,291.35c.04.38,12.44,1.1,27.66-1.89,10.28-2.02,22.1-4.48,32.47-13.07,7.34-6.08,10.94-12.73,10.84-12.8-.11-.08-4.81,7.62-13.86,13.61-4.99,3.3-10,5.22-18.55,7.47-21.8,5.73-38.61,6.23-38.56,6.68Z"/>
    </g>
    <path class="cls-11" d="m63.99,259.25c.26.32-8.14,7.49-19.67,13.94-15.91,8.9-30.65,12.45-30.85,12.01-.18-.4,12.25-4.15,29.68-13.55,12.79-6.9,20.6-12.71,20.85-12.41Z"/>
  </g>
  <g>
    <path class="cls-8" d="m366.98,299.74c5.07,8,19.54,28.38,46.24,37.25,30.86,10.25,69.82,3.69,74.4-11.27,1.93-6.31-3.53-9.95-18.62-33.76-20.43-32.22-17.04-35.98-26.35-43.81-19.52-16.41-61.11-22.32-87.63-.15-17.21,14.39-28.76,41.04-16.52,66.32,11.69,24.13,31.79,31.62,61.27,26.77"/>
    <path class="cls-8" d="m465.82,339.94c-7.16-.9-35.15-7.85-51.43-22.29-8.78-7.78-13.75-16.06-16.51-21.72"/>
    <path class="cls-8" d="m477.04,335.96c-6.68-2.71-38.61-16.75-50.16-34.69-6.22-9.67-8.61-18.83-9.61-24.93"/>
    <path class="cls-4" d="m412.59,339.55c-.45,2.38-15.21,3.13-28.79-1.75-5.75-2.06-15.53-5.58-21.16-14.75-7.51-12.23-3.69-28.11-.21-28.49,1.96-.22,2.59,4.59,8.47,12.94,10.01,14.24,23.57,22.2,27.51,24.46,9.07,5.2,14.46,6.13,14.18,7.6Z"/>
    <path class="cls-4" d="m366.56,242.75c.59,4.86,44.07-4.69,67.41,16.79,1.53,1.41,7.34,8.83,18.94,23.68,5.82,7.44,10.02,12.98,16.83,20.44,6.47,7.09,14.62,15.2,15.34,14.66.48-.35-2.57-4.17-10.58-16.18-1.76-2.64-4.39-6.58-7.41-11.33-3.28-5.15-7.75-12.18-12.38-20.69-6.73-12.37-5.04-11.76-7.83-15.49-7.68-10.27-19.84-13.97-28.04-16.47-4.55-1.38-21.38-6.04-40.75-.67-4.57,1.27-11.78,3.27-11.54,5.25Z"/>
    <path class="cls-4" d="m441.91,280.48c-.68-3.28-8.34-6.02-10.69-4.02-1.22,1.04-1.01,3.38.85,8.34,5.45,14.54,14.5,23.93,14.5,23.93,14.58,15.14,32.11,22.35,32.59,21.66.07-.11-4.82-3.99-14.6-11.76-4.65-3.7-7.4-5.87-10.79-9.46-3.69-3.9-5.68-6.86-6.67-8.43-.78-1.23-2.43-3.99-3.91-7.75-1.75-4.44-2.73-7.02-1.9-9.96.37-1.34.82-1.67.64-2.55Z"/>
    <path class="cls-4" d="m466.88,332.75c-.21.39-8.75-2.99-15.87-6.66-4.71-2.42-19.78-10.63-34.07-27.45-2.65-3.12-17.99-21.17-14.18-25.2,1.92-2.04,8.74-.52,12.38,3.08,2.7,2.67,1.95,4.81,4.34,11.92,2.61,7.76,6.1,12.9,6.77,13.88,3.1,4.5,6.22,7.13,10.48,10.74,7.13,6.04,14.08,10.12,22.54,15.09,4.8,2.82,7.74,4.37,7.62,4.61Z"/>
    <path class="cls-4" d="m455.35,338.01c-6.57-.82-15.79-2.53-26.14-6.51-27.91-10.73-50.56-32.74-47.62-37.59,1.09-1.81,5.91-1.52,8.89-.49,3.51,1.2,5.35,3.73,8.36,7.5,4.71,5.91,8.76,10.48,10.16,12.01,3.12,3.43,7.99,8.7,15.66,13.38,4.15,2.53,7.51,3.9,11.75,5.63,7.47,3.05,14.03,4.91,18.94,6.07Z"/>
    <path class="cls-11" d="m345.28,310.59c-1.31.15-8.49-14.15-4.34-29.52,3.7-13.72,14.83-22.38,15.67-21.83.62.41-4.55,5.91-8.26,15.55-7.37,19.15-1.68,35.65-3.07,35.8Z"/>
    <path class="cls-11" d="m427.62,337.87c-.26.57-13.22-2.75-26.56-10.68-19.48-11.57-30.16-27.24-29.63-27.7.47-.4,9.54,11.19,27.83,23.18,15.71,10.31,28.62,14.61,28.36,15.19Z"/>
    <path class="cls-11" d="m467.31,336.92c.22-.88-16.26-3.15-32.07-12.05-24.58-13.85-35.19-36.78-36.3-36.13-.68.4,3.45,9,10.26,17.45,3.77,4.68,17.99,21.27,42.65,28.23,7.71,2.18,15.3,3.09,15.45,2.49Z"/>
    <path class="cls-11" d="m474.4,331.91c-.19.33-11.83-4.01-24.55-12.89-8.59-5.99-18.41-13.01-24.44-25.05-4.27-8.52-4.88-16.06-4.76-16.08.13-.03,1.33,8.92,7.19,18.04,3.24,5.04,7.04,8.81,13.97,14.31,17.64,14.03,32.82,21.27,32.59,21.66Z"/>
  </g>
</svg>