<?xml version="1.0" encoding="UTF-8"?>
<svg id="_Слой_1" data-name="Слой 1" xmlns="http://www.w3.org/2000/svg" viewBox="0 0 200 200">
  <defs>
    <style>
      .cls-1 {
        fill: #fff;
      }

      .cls-2 {
        fill: #b1edef;
      }

      .cls-2, .cls-3, .cls-4, .cls-5 {
        stroke: #000;
        stroke-miterlimit: 10;
      }

      .cls-3 {
        fill: #e2c329;
      }

      .cls-6 {
        fill: #27b3c1;
      }

      .cls-4 {
        fill: #ffe131;
      }

      .cls-5 {
        fill: #fcff80;
      }
    </style>
  </defs>
  <g>
    <path class="cls-1" d="m53.67,32.92c.73.07,1.48.09,2.22.09h-2.22v-.09Z"/>
    <path d="m53.67,32.92v.09h2.22c-.74,0-1.49-.02-2.22-.09h0Z"/>
  </g>
  <path class="cls-2" d="m192,127.17s0,.03,0,.04c0,0,0,.02-.03.02-.03,0-21.04,4.94-91.22,21.39l-3.17.74-33.61,7.88c-.72.18-1.46.32-2.18.42-11.76,1.81-22.52-4.12-24.59-13.92-1.13-5.34.53-10.81,4.14-15.25.03-.04.11-.01.09.04-.36,1.66-.7,4.16-.26,7.09.79,5.24,3.95,11.22,9.12,13.44,2.26.97,4.21.94,10.25,0,4.74-.75,11.11-1.91,18.65-3.78l13.91-3.27s.04-.03.04-.05v-12.76c0-2.83,2-5.36,4.68-5.53,1.51-.1,2.88.5,3.86,1.53.91.96,1.47,2.27,1.47,3.72v10.68s.03.06.06.05l39.92-9.37s.04-.03.04-.05v-13.9c0-2.83,2-5.36,4.68-5.53,1.51-.1,2.88.5,3.86,1.53.91.96,1.47,2.27,1.47,3.72v11.82s.03.06.06.05l37.04-8.69s.03,0,.04,0c0,0,.02.01.02.03.01.04.98,4.6,1.67,7.88Z"/>
  <path class="cls-2" d="m162.33,97.3l-128.03,30.03c-.73.18-1.47.33-2.19.42-11.76,1.82-22.51-4.12-24.59-13.91-1.15-5.42.59-10.95,4.28-15.43-.38,1.67-.76,4.26-.3,7.3.78,5.25,3.94,11.22,9.1,13.45,2.27.97,4.22.94,10.25-.01,4.75-.74,11.11-1.91,18.65-3.78l6.95-1.63v-14.06c0-2.9,2.25-5.26,5-5.26,1.38,0,2.62.58,3.54,1.54s1.47,2.27,1.47,3.72v11.71l54.47-12.77v-14.14c0-2.9,2.25-5.26,5-5.26,1.38,0,2.62.58,3.54,1.54s1.47,2.27,1.47,3.72v11.8l29.7-6.97,1.69,7.99Z"/>
  <path class="cls-6" d="m9.2,116.07c4.52,3.55,8.52,5.09,11.12,5.85,13.59,3.96,28.48-2.16,38.91-3.51,1.24-.16,2.77-.3,6.32-.77,2.78-.37,3.66-.52,3.69-.4.07.32-6.01,2.15-11.12,3.51-2,.53-5,1.3-15.56,3.51-11.36,2.38-13.01,2.56-15.56,2.34-2.63-.23-6.78-.64-11.12-3.51-3.49-2.31-5.57-5.21-6.67-7.02Z"/>
  <path class="cls-6" d="m100.67,127.18c-.48.04.51,5-2.12,10.53-1,2.09-2.21,3.63-3.19,4.68,1-.04,3.5-.3,5.31-2.34,3.97-4.46.63-12.92,0-12.87Z"/>
  <path class="cls-6" d="m150.8,115.83c-.48.04.51,5-2.12,10.53-1,2.09-2.21,3.63-3.19,4.68,1-.04,3.5-.3,5.31-2.34,3.97-4.46.63-12.92,0-12.87Z"/>
  <path class="cls-2" d="m100.74,148.63c-.76.49-1.65.77-2.6.77-.19,0-.38-.01-.57-.04l3.17-.74Z"/>
  <path class="cls-4" d="m163.67,108.32l-1.04,7.98c-.18,1.4-1.32,2.47-2.72,2.55-.07,0-.13.01-.2.02l-76.27,16.05c-.96.12-1.92-.24-2.56-.96l-15.95-17.86-10.47-11.73c-.55-.61-.82-1.42-.75-2.24l.89-10.86,1.46.69-.19.02,27.56,31.99c.65.76,1.64,1.14,2.62,1l76.96-16.76.66.11Z"/>
  <path class="cls-5" d="m159.86,111.03l-75.61,14.5c-1.61.31-3.27-.26-4.39-1.51l-24.97-27.75c-2.66-2.95-1.13-7.83,2.68-8.54l39.27-7.3,30.43-5.66c1.38-.26,2.8.13,3.89,1.05l7.71,6.54,23.17,19.67c3.23,2.74,1.91,8.21-2.18,9Z"/>
  <path class="cls-3" d="m130.93,79.99h0c-1.19-.29-1.94-1.55-1.67-2.8l5.24-24.13c.27-1.25,1.47-2.05,2.66-1.76h0c1.19.29,1.94,1.55,1.67,2.8l-5.24,24.13c-.27,1.25-1.47,2.05-2.66,1.76Z"/>
  <path class="cls-3" d="m142.91,88.18h0c-1.19-.29-1.94-1.55-1.67-2.8l6.22-28.63c.27-1.25,1.47-2.05,2.66-1.76h0c1.19.29,1.94,1.55,1.67,2.8l-6.22,28.63c-.27,1.25-1.47,2.05-2.66,1.76Z"/>
  <path class="cls-3" d="m152.65,97.57h0c-1.19-.29-1.94-1.55-1.67-2.8l7.02-32.31c.27-1.25,1.47-2.05,2.66-1.76h0c1.19.29,1.94,1.55,1.67,2.8l-7.02,32.31c-.27,1.25-1.47,2.05-2.66,1.76Z"/>
  <path class="cls-3" d="m162.26,105.26h0c-1.19-.29-1.94-1.55-1.67-2.8l7.02-32.31c.27-1.25,1.47-2.05,2.66-1.76h0c1.19.29,1.94,1.55,1.67,2.8l-7.02,32.31c-.27,1.25-1.47,2.05-2.66,1.76Z"/>
  <path class="cls-4" d="m98.52,82.53c-1.01.39-2.46.35-3-.36-2.25-2.98,7.43-19.42,20.14-27.02,20.32-12.15,51.8-3.73,61.97,14.72.68,1.24,6.05,10.97,2.45,17.28-3.24,5.67-10.11,2.24-24.69,8.45-10.32,4.4-16.57,7.06-21.35,13.75-2.02,2.82-4.86,7.88-7.55,7.31-1.08-.23-1.92-1.31-2.22-2.34-.71-2.41,1.28-5.42,5.17-9.15,11.67-11.23,27.19-16.34,29.24-16.99,11.83-3.77,14.82-2.67,15.79-5.33,2.63-7.2-15.35-25.99-35.54-27.28-2.06-.13-8.69-.37-16.53,2.83-15.3,6.24-22.11,20.21-23.88,24.15Z"/>
  <path class="cls-6" d="m39.02,145.31c4.52,3.55,8.52,5.09,11.12,5.85,13.59,3.96,28.48-2.16,38.91-3.51,1.24-.16,2.77-.3,6.32-.77,2.78-.37,3.66-.52,3.69-.4.07.32-6.01,2.15-11.12,3.51-2,.53-5,1.3-15.56,3.51-11.36,2.38-13.01,2.56-15.56,2.34-2.63-.23-6.78-.64-11.12-3.51-3.49-2.31-5.57-5.21-6.67-7.02Z"/>
</svg>