<svg width="245" height="16" viewBox="0 0 245 16" fill="none" xmlns="http://www.w3.org/2000/svg">
<g clip-path="url(#clip0_617_30)">
<path d="M245 8.7291C242.154 8.34957 239.852 8.03996 237.571 7.74033C224.55 6.05244 211.408 6.23222 198.185 6.96131C175.413 8.22972 153.085 10.7566 130.555 12.7141C107.824 14.6916 85.072 16.5194 61.856 15.8502C50.7123 15.5306 39.7099 14.7416 29.1314 12.9139C19.7239 11.2859 11.1844 8.94882 4.52242 5.17354C2.58438 4.09489 0.928975 2.90638 0.262775 1.47816C0.0407087 0.978787 -0.4438 0.299636 1.00973 0.0499479C2.0595 -0.129827 2.76607 0.259686 3.29096 0.699136C8.64074 5.29339 17.5436 7.48066 27.0521 9.19851C36.6615 10.9363 46.7554 11.5456 56.8898 12.005C77.764 12.9438 98.4566 11.9451 119.028 10.3171C137.964 8.82897 156.8 7.0512 175.736 5.56306C188.959 4.51437 202.303 3.96505 215.728 4.3246C224.51 4.55432 232.888 5.66293 241.205 6.98128C242.638 7.211 244.395 7.40076 244.98 8.7291H245Z" fill="#F00F0F"/>
</g>
<defs>
<clipPath id="clip0_617_30">
<rect width="245" height="16" fill="white"/>
</clipPath>
</defs>
</svg>
