<svg width="120" height="114" viewBox="0 0 120 114" fill="none" xmlns="http://www.w3.org/2000/svg">
<g clip-path="url(#clip0_118_20)">
<path d="M119.987 15.9483C120.016 20.7204 118.931 25.2863 117.112 29.6753C115.175 34.4474 112.564 38.8071 109.425 42.8722C105.258 48.2335 100.711 53.2412 95.9871 58.1017C89.4737 64.818 82.5201 71.004 75.3318 76.9839C67.5861 83.435 59.6937 89.7095 51.4785 95.5715C43.7622 101.109 35.6057 105.852 26.8623 109.564C23.2828 111.066 19.6447 112.392 15.8305 113.099C13.3953 113.57 10.9307 113.923 8.40751 113.747C6.47108 113.629 4.68135 113.04 3.03832 112.009C1.16056 110.86 0.162999 109.21 0.0456398 107.03C-0.0423798 105.764 -0.01304 104.468 0.221679 103.23C1.01386 99.1064 2.01141 95.0412 3.59578 91.1529C5.38551 86.7637 7.55666 82.5513 9.99186 78.4862C15.097 69.973 20.8476 61.9312 27.0677 54.1839C35.7817 43.3141 45.3172 33.2102 55.8502 24.108C64.4468 16.6553 73.8355 10.4398 84.1338 5.6088C88.8282 3.3995 93.6693 1.69096 98.7744 0.659957C101.738 0.0708083 104.73 -0.194308 107.723 0.15918C109.425 0.365383 111.097 0.777786 112.652 1.51422C115.439 2.78089 117.376 4.84291 118.549 7.67081C119.4 9.70337 119.811 11.8243 119.958 13.9747C120.016 14.6817 119.987 15.3003 119.987 15.9483Z" fill="#F7D046"/>
<mask id="mask0_118_20" style="mask-type:alpha" maskUnits="userSpaceOnUse" x="0" y="0" width="120" height="114">
<path d="M119.987 15.9483C120.016 20.7204 118.931 25.2863 117.112 29.6753C115.175 34.4474 112.564 38.8071 109.425 42.8722C105.258 48.2335 100.711 53.2412 95.9871 58.1017C89.4737 64.818 82.5201 71.004 75.3318 76.9839C67.5861 83.435 59.6937 89.7095 51.4785 95.5715C43.7622 101.109 35.6057 105.852 26.8623 109.564C23.2828 111.066 19.6447 112.392 15.8305 113.099C13.3953 113.57 10.9307 113.923 8.40751 113.747C6.47108 113.629 4.68135 113.04 3.03832 112.009C1.16056 110.86 0.162999 109.21 0.0456398 107.03C-0.0423798 105.764 -0.01304 104.468 0.221679 103.23C1.01386 99.1064 2.01141 95.0412 3.59578 91.1529C5.38551 86.7637 7.55666 82.5513 9.99186 78.4862C15.097 69.973 20.8476 61.9312 27.0677 54.1839C35.7817 43.3141 45.3172 33.2102 55.8502 24.108C64.4468 16.6553 73.8355 10.4398 84.1338 5.6088C88.8282 3.3995 93.6693 1.69096 98.7744 0.659957C101.738 0.0708083 104.73 -0.194308 107.723 0.15918C109.425 0.365383 111.097 0.777786 112.652 1.51422C115.439 2.78089 117.376 4.84291 118.549 7.67081C119.4 9.70337 119.811 11.8243 119.958 13.9747C120.016 14.6817 119.987 15.3003 119.987 15.9483Z" fill="black"/>
</mask>
<g mask="url(#mask0_118_20)">
<path d="M15.6976 102.59C15.5802 103.473 15.4335 104.357 15.3161 105.241C14.4946 111.162 12.9103 116.935 10.8565 122.562C10.6805 123.033 10.4457 123.475 10.1817 123.887C10.0937 124.035 9.80025 124.182 9.65355 124.123C9.47752 124.094 9.36016 123.828 9.0961 123.534C9.88827 123.622 10.0056 123.18 10.123 122.768C11.7367 117.849 13.233 112.9 14.1426 107.774C14.4946 105.771 14.7587 103.768 15.0814 101.765C15.1401 101.323 15.0814 100.94 14.9054 100.528C12.7636 95.7261 11.0619 90.7478 10.035 85.5339C9.3895 82.3819 8.97874 79.23 9.12544 75.9897C9.15478 75.43 9.2428 74.8703 9.41884 74.3401C9.71223 73.4269 10.5044 73.1912 11.2379 73.8098C11.7073 74.2222 12.1181 74.7819 12.4702 75.3416C13.3797 76.785 13.9372 78.3757 14.436 80.0254C15.2575 82.7649 15.7269 85.5633 16.0203 88.4207C16.255 90.8067 16.343 93.1633 16.2844 95.5494C16.255 96.9044 16.1377 98.2889 16.0203 99.644C15.991 100.115 16.0496 100.557 16.255 100.999C17.458 103.562 18.7782 106.066 20.3626 108.393C21.2135 109.659 22.1523 110.867 23.2672 111.928C24.0301 112.664 24.8516 113.342 25.7905 113.813C27.2281 114.52 28.6658 114.579 30.1327 113.96C31.1302 113.548 31.9811 112.959 32.7733 112.252C34.1229 111.044 35.2085 109.659 36.206 108.157C38.6119 104.504 40.2843 100.528 41.4579 96.3447C41.8099 95.137 42.0447 93.9292 42.3674 92.7215C42.4261 92.4564 42.3967 92.2207 42.25 91.985C39.4041 87.3602 37.6143 82.2641 36.118 77.0796C34.6804 72.0424 33.6535 66.9168 32.8613 61.7618C32.3038 58.0207 31.8344 54.2502 31.365 50.4796C31.0716 48.0936 30.9249 45.6781 31.0129 43.292C31.0422 42.585 31.1596 41.8781 31.3063 41.2005C31.365 40.8765 31.541 40.5819 31.717 40.3168C32.0985 39.7571 32.7146 39.5215 33.3307 39.7866C33.8295 39.9928 34.3576 40.2874 34.739 40.6703C35.3845 41.3478 36.0007 42.0843 36.4994 42.8502C38.1131 45.2362 39.2574 47.8874 40.2843 50.568C42.074 55.3401 43.2476 60.2889 43.9811 65.3261C44.7439 70.599 45.0667 75.8719 44.8906 81.1742C44.7733 84.6502 44.3919 88.1261 43.7464 91.5726C43.6877 91.8672 43.6584 92.1618 43.8637 92.4564C44.92 94.0176 46.0936 95.4905 47.5899 96.6393C48.0593 97.0222 48.5875 97.3463 49.1156 97.6408C51.0813 98.7013 53.1058 98.7308 55.1302 97.7587C56.4799 97.1106 57.5948 96.1385 58.5923 95.0191C59.7659 93.6936 60.7341 92.2207 61.585 90.6595C63.5508 87.0657 64.8711 83.2067 65.898 79.2595C67.629 72.6315 68.5092 65.8564 68.6559 58.9928C68.6559 58.6688 68.5679 58.2858 68.4212 57.9912C64.0202 49.7726 61.1156 41.0238 59.0031 31.9804C58.5043 29.8595 58.1229 27.6796 57.9469 25.4997C57.8588 24.3214 57.8588 23.1431 58.1522 21.9943C58.2403 21.6703 58.387 21.3168 58.563 21.0222C59.1205 20.0796 60.0593 19.8145 60.9689 20.4036C61.4383 20.7276 61.9077 21.1106 62.2598 21.5819C62.8466 22.3773 63.3747 23.2315 63.8148 24.0858C65.2525 26.9137 66.2207 29.9184 67.0422 32.9525C68.5092 38.4905 69.3894 44.1463 69.7415 49.8905C69.8882 52.4238 69.9175 54.9866 70.0055 57.5199C70.0055 57.8145 70.0642 58.1385 70.2109 58.4036C71.6486 60.937 73.2916 63.3819 75.3747 65.4145C76.8417 66.8579 78.4554 68.0362 80.3919 68.7137C81.7415 69.185 83.1205 69.3618 84.5581 69.1556C86.2598 68.8905 87.6388 68.0951 88.8417 66.8874C89.898 65.8269 90.7195 64.6191 91.4236 63.2936C92.8613 60.5835 93.8002 57.6967 94.5043 54.7509C95.7366 49.5664 96.3234 44.323 96.4994 38.9912C96.5288 38.0781 96.5288 37.1649 96.5581 36.2222C96.5581 35.8688 96.4408 35.6036 96.1767 35.368C90.4848 29.7711 86.9933 22.9959 85.5557 15.1307C84.9395 11.6842 84.8222 8.20826 85.5263 4.7323C85.7024 3.81912 86.0251 2.90593 86.3772 2.05166C86.5826 1.55089 86.9346 1.05011 87.3161 0.667168C88.0496 -0.0987242 89.0765 -0.216554 89.9566 0.372594C90.5141 0.75554 91.0422 1.22686 91.3943 1.78655C92.0398 2.7881 92.6559 3.84858 93.1254 4.9385C94.387 7.7664 95.1498 10.7711 95.7953 13.7757C97.2329 20.492 97.8784 27.2672 97.9664 34.1308C97.9664 34.6905 98.1425 35.0734 98.5826 35.4564C101.458 37.8719 104.803 39.2564 108.47 39.9633C111.375 40.523 114.338 40.6998 117.301 40.7881C119.414 40.8471 121.526 40.8471 123.639 40.7881C124.724 40.7587 125.839 40.6409 126.925 40.4936C127.57 40.4052 128.216 40.2284 128.715 39.6098C128.715 40.1106 128.509 40.3757 128.186 40.523C127.658 40.7881 127.13 41.0533 126.573 41.2005C124.9 41.6719 123.14 41.7897 121.409 41.8486C117.624 41.9959 113.839 41.8781 110.084 41.5835C105.8 41.23 101.869 39.9339 98.4065 37.2827C98.2892 37.1943 98.1718 37.1354 97.9664 37.0176C97.9371 37.3416 97.9371 37.6067 97.9077 37.8424C97.8197 42.1432 97.4677 46.4145 96.7342 50.6269C96.118 54.1912 95.2672 57.6967 93.9175 61.0253C93.3307 62.4688 92.6853 63.8827 91.8051 65.1788C91.2183 66.0331 90.6021 66.8579 89.8686 67.5943C87.2574 70.275 84.0887 71.0409 80.5092 70.0688C78.6315 69.568 77.0178 68.5959 75.5508 67.3587C73.497 65.6207 71.854 63.5292 70.4163 61.2905C70.2989 61.1137 70.1816 60.937 70.0642 60.7602C70.0349 60.7308 69.9762 60.7308 69.8882 60.6719C69.8295 61.6145 69.7708 62.5571 69.7121 63.4703C69.1253 71.1881 67.7757 78.7587 65.0471 86.0052C64.1963 88.3029 63.14 90.5122 61.8491 92.6036C60.9102 94.1354 59.854 95.5788 58.475 96.7571C57.7415 97.4052 56.9493 97.9943 56.0691 98.4657C53.4579 99.9091 50.8173 99.8207 48.2354 98.3478C46.5923 97.4052 45.2427 96.0796 44.0691 94.6067C43.8344 94.3122 43.5997 94.0176 43.3063 93.6641C43.2183 93.9881 43.1302 94.2238 43.0716 94.4595C41.9566 99.0548 40.343 103.473 37.8784 107.539C36.7928 109.306 35.5899 110.985 34.1229 112.458C33.184 113.371 32.1865 114.166 30.9835 114.726C28.9005 115.728 26.8467 115.639 24.8516 114.49C23.7073 113.842 22.7391 112.988 21.8589 112.045C20.48 110.573 19.3064 108.952 18.3088 107.244C17.5166 105.918 16.8125 104.534 16.0496 103.179C15.9323 102.973 15.8443 102.766 15.7269 102.56C15.7856 102.56 15.7562 102.56 15.6976 102.59ZM42.7488 90.4827C42.8368 90.2765 42.8662 90.1881 42.8955 90.0998C43.3356 87.537 43.5997 84.9742 43.7464 82.3819C44.0104 77.5215 43.7757 72.6905 43.2183 67.8595C42.6021 62.7339 41.5459 57.7261 39.9029 52.8657C38.8466 49.7432 37.5557 46.7091 35.7953 43.9106C35.3552 43.2036 34.8271 42.5261 34.2696 41.8781C34.0349 41.5835 33.6828 41.3184 33.3601 41.1122C32.9493 40.8471 32.7439 40.906 32.5972 41.3773C32.4505 41.8191 32.3625 42.2905 32.3332 42.7618C32.0985 45.5602 32.3332 48.3587 32.6853 51.1571C33.1547 55.1339 33.7121 59.1106 34.3283 63.0579C35.1205 68.154 36.206 73.1912 37.7024 78.1401C38.9053 82.1757 40.343 86.0936 42.3381 89.8052C42.4261 89.9525 42.5434 90.1587 42.7488 90.4827ZM96.5288 33.4238C96.5581 33.0998 96.5581 32.923 96.5581 32.7168C96.3821 26.2067 95.6779 19.7556 94.2403 13.3928C93.6241 10.5943 92.8613 7.82532 91.6584 5.20361C91.2476 4.31989 90.7195 3.46563 90.1914 2.64081C89.986 2.28732 89.6339 1.99275 89.3112 1.75709C88.9591 1.49197 88.6657 1.52143 88.3723 1.816C88.1963 1.99275 88.0202 2.22841 87.9322 2.43461C87.6681 3.05323 87.4041 3.70129 87.2574 4.34935C86.5826 7.23617 86.5532 10.1819 86.9346 13.1276C87.8735 20.5804 90.8955 27.1199 95.854 32.7168C96.03 32.9525 96.2354 33.1292 96.5288 33.4238ZM68.5972 55.3401C68.6266 55.3401 68.6853 55.3106 68.7146 55.3106C68.7146 55.2222 68.7439 55.1339 68.7439 55.0455C68.5972 47.799 67.7464 40.6409 65.9273 33.6005C65.1645 30.6253 64.2256 27.709 62.876 24.9695C62.4359 24.0858 61.9077 23.261 61.3503 22.4362C61.1156 22.0827 60.7341 21.7881 60.3821 21.523C60.0887 21.3168 59.854 21.3757 59.6779 21.6997C59.5019 22.0532 59.3845 22.4362 59.3258 22.8486C59.0618 24.4687 59.2965 26.0889 59.5312 27.709C60.0593 31.0967 60.8808 34.4548 61.8491 37.754C63.5214 43.5571 65.5165 49.2129 68.1865 54.6626C68.3332 54.8393 68.4799 55.075 68.5972 55.3401ZM10.3577 74.2812C10.0056 74.7819 9.97629 75.3416 9.94695 75.8719C9.88827 77.6688 10.035 79.4951 10.2697 81.292C11.0619 87.1835 12.7929 92.8098 15.0521 98.2889C15.1108 98.4362 15.2281 98.5835 15.3748 98.8486C15.4335 98.0827 15.4922 97.523 15.5215 96.9339C15.6976 93.0455 15.5215 89.1571 14.8467 85.3277C14.3773 82.6176 13.7611 79.937 12.5875 77.4036C12.2355 76.6083 11.766 75.8719 11.3259 75.1354C11.1499 74.7525 10.8565 74.4284 10.3577 74.2812Z" fill="black"/>
</g>
</g>
<defs>
<clipPath id="clip0_118_20">
<rect width="120" height="114" fill="white"/>
</clipPath>
</defs>
</svg>
