<svg width="24" height="24" viewBox="0 0 24 24" fill="none" xmlns="http://www.w3.org/2000/svg">
<path d="M12 24C18.6274 24 24 18.6274 24 12C24 5.37258 18.6274 0 12 0C5.37258 0 0 5.37258 0 12C0 18.6274 5.37258 24 12 24Z" fill="#172A5B"/>
<path d="M11.9999 21.4286C17.2071 21.4286 21.4284 17.2072 21.4284 12C21.4284 6.79273 17.2071 2.57141 11.9999 2.57141C6.7926 2.57141 2.57129 6.79273 2.57129 12C2.57129 17.2072 6.7926 21.4286 11.9999 21.4286Z" fill="#172A5B"/>
<path d="M12.4477 6.37264L14.0129 9.50308C14.0874 9.65214 14.2365 9.76395 14.3856 9.80121L17.8514 10.323C18.2613 10.3975 18.4477 10.882 18.1495 11.1801L15.6526 13.6397C15.5408 13.7515 15.4663 13.9379 15.5036 14.0869L16.0998 17.5528C16.1744 17.9627 15.7272 18.2981 15.3545 18.0745L12.2613 16.4348C12.1123 16.3602 11.9259 16.3602 11.7769 16.4348L8.64643 18.0745C8.27376 18.2608 7.82655 17.9627 7.90109 17.5528L8.49736 14.0869C8.53463 13.9379 8.46009 13.7515 8.34829 13.6397L5.8514 11.1801C5.55326 10.882 5.70233 10.3602 6.14953 10.323L9.61537 9.80121C9.76444 9.76395 9.91351 9.68941 9.98804 9.50308L11.5533 6.37264C11.7396 5.99997 12.2613 5.99997 12.4477 6.37264Z" fill="white"/>
</svg>
