<svg width="24" height="24" viewBox="0 0 24 24" fill="none" xmlns="http://www.w3.org/2000/svg">
<circle cx="12" cy="12" r="12" fill="#172A5B"/>
<path d="M8.76744 10.2323L10.5033 11.9681L10.5085 11.963L11.7189 13.1734L11.7241 13.1785L13.4919 14.9463C15.1191 16.5735 17.7573 16.5735 19.3844 14.9463C21.0117 13.3191 21.0117 10.681 19.3844 9.05377C17.7573 7.42658 15.1191 7.42658 13.4919 9.05377L12.8974 9.64826L14.0759 10.8268L14.6704 10.2323C15.6467 9.25597 17.2296 9.25597 18.2059 10.2323C19.1823 11.2086 19.1823 12.7915 18.2059 13.7678C17.2296 14.7441 15.6467 14.7441 14.6704 13.7678L12.9435 12.041L12.9383 12.0462L9.94595 9.05377C8.31877 7.42658 5.68058 7.42658 4.0534 9.05377C2.42621 10.681 2.42621 13.3191 4.0534 14.9463C5.68058 16.5735 8.31877 16.5735 9.94595 14.9463L10.5403 14.3519L9.36187 13.1734L8.76744 13.7678C7.79113 14.7441 6.20821 14.7441 5.23191 13.7678C4.2556 12.7915 4.2556 11.2086 5.23191 10.2323C6.20821 9.25597 7.79113 9.25597 8.76744 10.2323Z" fill="white"/>
</svg>
