<svg width="191" height="150" viewBox="0 0 191 150" fill="none" xmlns="http://www.w3.org/2000/svg">
<mask id="mask0_119_44" style="mask-type:alpha" maskUnits="userSpaceOnUse" x="0" y="0" width="191" height="115">
<rect width="191" height="115" fill="#D9D9D9"/>
</mask>
<g mask="url(#mask0_119_44)">
</g>
<g clip-path="url(#clip0_119_44)">
<path d="M75.6368 120.372C72.5215 116.298 69.4262 112.251 66.385 108.164C64.1496 105.159 62.0496 102.054 60.3218 98.7132C57.2478 92.8844 55.3636 86.6747 54.7097 80.1385C54.0425 73.5279 54.5098 66.9144 55.9487 60.4189C57.3327 54.1326 60.1588 48.5396 63.9148 43.348C67.793 37.9814 72.5651 33.5898 78.0095 29.8754C83.1561 26.3826 88.8973 24.2557 94.9131 22.7235C98.6511 21.7505 102.432 21.7971 106.251 22.4041C114.637 23.7758 121.71 27.681 127.775 33.5134C130.586 36.2162 133.444 38.9256 136.166 41.7362C138.822 44.5127 141.341 47.3902 143.888 50.2471C145.4 51.9398 146.885 53.6524 148.342 55.3856C152.306 60.0901 155.883 65.1245 159.196 70.313C161.45 73.8508 163.392 77.5362 165.3 81.289C166.083 82.8511 166.968 84.3793 167.805 85.901C167.96 86.1649 168.067 86.4217 168.194 86.7055C168.663 87.6184 168.578 88.5228 168.061 89.4119C167.163 90.921 166.097 92.2608 164.796 93.3969C162.6 95.3672 160.471 97.3718 158.067 99.1184C157.579 99.4812 157.179 99.9052 156.712 100.295C155.614 101.196 154.567 101.26 153.382 100.459C152.238 99.7129 151.269 98.7509 150.464 97.6684C148.973 95.6652 147.517 93.5951 146.135 91.5112C142.304 85.7406 138.156 80.1643 133.872 74.6891C131.495 71.6638 129.164 68.6454 126.672 65.7477C122.99 61.4222 119.078 57.3521 114.488 53.955C112.294 52.3072 109.964 50.929 107.409 49.9279C104.261 48.6957 101.056 48.3473 97.7178 48.8962C94.2515 49.4987 91.0053 50.7365 87.993 52.5151C85.8813 53.7499 83.8971 55.1 82.1479 56.822C81.1577 57.8111 80.2483 58.9082 79.5813 60.1614C76.055 66.9063 74.4311 74.0019 75.5802 81.5996C76.0991 84.956 77.2468 88.1392 78.6246 91.2356C81.1527 96.8399 83.7823 102.411 86.7773 107.794C90.6903 114.807 95.2264 121.356 100.569 127.348C102.121 129.095 103.626 130.835 105.097 132.642C105.708 133.407 106.218 134.205 106.747 135.031C106.942 135.348 107.109 135.687 107.222 136.065C107.408 136.767 107.601 137.423 108.193 137.992C108.765 138.534 108.694 139.344 108.259 140.004C107.226 141.613 106.125 143.189 104.365 144.162C103.655 144.565 103.045 145.103 102.394 145.586C102.123 145.788 101.825 146.01 101.555 146.211C100.431 146.964 99.2824 147.061 98.1718 146.247C97.1487 145.494 96.1255 144.742 95.245 143.841C93.3358 141.897 91.4808 139.913 89.6868 137.841C87.8931 135.77 86.1331 133.631 84.4478 131.479C81.5399 127.797 78.6593 124.095 75.7785 120.393C75.6639 120.352 75.6368 120.372 75.6368 120.372Z" fill="#396BEB"/>
<path d="M112.921 132.635C113.009 132.696 113.049 132.75 113.116 132.784C114.078 133.624 114.162 134.529 113.429 135.579C112.396 137.02 111.135 138.211 109.827 139.394C109.217 139.932 108.587 140.443 107.977 140.981C107.008 141.828 105.968 141.845 104.809 141.362C102.807 140.539 101.192 139.217 99.8149 137.592C98.2364 135.697 96.6919 133.734 95.1473 131.771C93.2063 129.389 91.2922 126.986 89.3242 124.623C87.2282 122.146 85.0711 119.756 83.0023 117.258C78.4345 111.741 74.4762 105.855 71.6891 99.2241C68.5681 91.748 66.8188 83.9659 66.9077 75.8256C66.9833 64.4992 71.0762 54.7255 79.1789 46.7204C83.41 42.563 88.3256 39.3263 93.7711 36.9147C95.9157 35.9499 98.2136 35.4177 100.591 35.3312C108.356 35.0201 110.757 35.9258 116.771 39.3144C120.961 41.6643 124.634 44.7344 128.199 47.8853C131.744 51.009 134.822 54.5227 137.668 58.2922C140.897 62.5758 144.099 66.8796 147.193 71.2644C151.247 76.9954 154.847 83.0219 158 89.2965C158.844 90.9398 159.606 92.6433 160.369 94.3468C160.529 94.732 160.682 95.1647 160.769 95.5632C161.034 96.7117 160.739 97.7299 159.851 98.5167C158.929 99.3707 158.055 100.232 157.032 100.951C155.142 102.314 153.239 103.604 151.269 104.86C150.179 105.544 149.029 106.148 147.878 106.752C146.464 107.51 145.357 107.324 144.357 106.092C143.658 105.266 143.014 104.4 142.423 103.493C140.673 100.801 138.895 98.1284 137.252 95.3553C136.308 93.7456 135.545 92.0418 134.755 90.3585C133.786 88.2627 132.653 86.2879 131.283 84.4475C129.115 81.4768 126.866 78.5665 124.664 75.6634C123.657 74.3098 122.426 73.165 121.189 72.0673C119.595 70.6036 118.082 69.0798 116.488 67.6167C114.679 65.9768 112.836 64.4046 111.046 62.7921C109.701 61.6061 108.417 60.333 107.017 59.1874C104.481 57.0796 101.528 56.1651 98.2323 56.262C96.2202 56.3293 94.4819 56.9918 92.9507 58.2152C91.2841 59.5392 89.9204 61.1006 88.9128 63.0277C88.1027 64.5977 87.252 66.1137 86.4017 67.6295C85.4831 69.2801 84.8812 71.0736 84.4885 72.9218C83.6689 76.6855 83.3015 80.4914 83.3391 84.3323C83.3703 88.0516 84.4292 91.5114 85.9609 94.8712C88.0211 99.394 90.6705 103.521 93.7394 107.419C97.4192 112.082 101.296 116.557 105.301 120.979C107.438 123.341 109.494 125.765 111.577 128.168C112.672 129.414 113.213 130.82 112.868 132.506C112.915 132.513 112.935 132.54 112.921 132.635Z" fill="#56C4C5"/>
<path d="M129.054 91.0704C126.074 87.0645 123.174 82.9978 120.085 79.072C116.923 74.9911 113.482 71.1591 109.737 67.5958C108.405 66.3156 107.013 65.1226 105.62 63.9302C104.376 62.8797 102.968 62.1188 101.349 61.641C100.169 61.2995 99.0148 61.2752 97.8315 61.6088C95.2086 62.3829 93.0488 63.7796 91.3717 65.9946C89.0219 69.1727 87.7911 72.7799 87.3354 76.6932C86.7886 81.3894 87.6201 85.9013 89.2963 90.2475C90.6252 93.6742 92.482 96.7921 94.5758 99.7759C98.8308 105.778 103.364 111.531 108.14 117.102C109.847 119.113 111.492 121.211 113.198 123.221C113.937 124.101 114.723 124.988 115.516 125.828C116.081 126.417 116.68 126.939 117.272 127.508C118.092 128.328 118.121 129.272 117.361 130.175C117.131 130.43 116.9 130.686 116.622 130.935C116.114 131.439 115.625 131.971 115.265 132.618C114.687 133.594 113.846 134.388 112.905 135.046C112.065 135.671 111.126 135.655 110.244 135.092C109.739 134.752 109.268 134.346 108.797 133.939C105.481 131.066 102.273 128.112 99.2686 124.922C97.158 122.708 95.1358 120.386 93.1133 118.064C90.5001 115.004 87.995 111.863 85.7339 108.541C81.7484 102.676 79.0209 96.2942 77.883 89.2772C76.8365 82.9489 76.7758 76.6441 78.396 70.3923C78.8144 68.8614 79.2801 67.3375 79.9076 65.8613C80.8012 63.7246 81.7622 61.6218 82.8178 59.5328C84.3158 56.568 86.3861 53.9763 88.8129 51.7501C92.5074 48.2864 96.9951 47.3024 101.907 48.1899C103.903 48.5544 105.744 49.33 107.481 50.308C110.445 51.9719 113.056 54.0662 115.591 56.343C122.728 62.7662 128.922 70.0166 134.398 77.8853C136.907 81.4848 139.173 85.2657 141.575 88.9462C143.232 91.456 144.963 93.9526 146.674 96.4221C147.687 97.8971 148.809 99.2914 149.829 100.719C150.071 101.044 150.312 101.369 150.5 101.734C151.17 102.917 151.037 103.983 150.014 104.871C148.543 106.176 147.032 107.426 145.474 108.669C143.923 109.866 142.533 109.638 141.344 108.041C140.337 106.688 139.405 105.321 138.425 103.947C135.324 99.6102 132.216 95.3202 129.115 90.9828C129.081 91.0502 129.081 91.0502 129.054 91.0704Z" fill="#D757B5"/>
</g>
<defs>
<clipPath id="clip0_119_44">
<rect width="97.6548" height="107.642" fill="white" transform="translate(33 63.2928) rotate(-36.6502)"/>
</clipPath>
</defs>
</svg>
