<svg width="91" height="91" viewBox="0 0 91 91" fill="none" xmlns="http://www.w3.org/2000/svg">
<path d="M38.3264 63.0149C37.96 62.931 37.6567 62.9088 37.3408 62.8494C32.1976 62.0097 26.9925 61.7339 21.8251 61.3201C16.3544 60.8841 10.8964 60.4856 5.46274 59.6614C4.35074 59.4968 3.21331 59.2574 2.10103 58.9677C1.64604 58.8719 1.19079 58.651 0.798534 58.367C0.127927 57.8854 0.0883517 57.1476 0.743933 56.5908C1.09687 56.2622 1.52585 56.0329 1.96753 55.841C5.32405 54.2827 8.68061 52.7244 12.1004 51.2279C16.265 49.4367 20.4421 47.6829 24.6826 45.9911C28.7338 44.3635 32.7471 42.7489 36.9508 41.5704C37.0266 41.5446 37.1401 41.506 37.2789 41.4171C37.3032 40.9915 37.3275 40.5659 37.3139 40.1531C37.1943 32.0967 37.4916 24.0238 38.0037 15.9613C38.2844 11.6922 38.7421 7.44636 39.1618 3.21339C39.2361 2.56208 39.3483 1.89788 39.511 1.25824C39.6238 0.844277 39.8504 0.516829 40.343 0.474602C40.8482 0.469807 41.1141 0.755063 41.254 1.16662C41.5215 2.07737 41.7886 2.98831 41.9804 3.92479C42.7984 8.07093 43.5406 12.2428 44.3586 16.3889C45.1129 20.348 45.8801 24.3444 46.6723 28.2906C47.1579 30.7133 47.6813 33.123 48.1669 35.5457C48.4479 36.8693 48.486 36.9815 49.8116 36.6561C52.6271 35.9913 55.4806 35.3135 58.2829 34.4861C64.6703 32.6488 71.0069 30.6618 77.3948 28.8243C80.6265 27.8927 83.8708 27.1238 87.1279 26.2671C87.7091 26.1113 88.3278 26.0679 88.9344 26.1122C90.0588 26.189 90.5784 27.0976 89.9746 28.0541C89.5593 28.6961 89.0172 29.3395 88.3743 29.8085C86.5205 31.3151 84.6041 32.7595 82.6745 34.1667C76.9743 38.2747 70.932 41.8729 64.7752 45.2596C63.9928 45.6925 63.2236 46.1626 62.4539 46.6329C62.1763 46.8108 61.9369 46.9756 61.672 47.1909C60.4488 48.191 60.4252 48.7416 61.5009 49.795C61.8939 50.204 62.3491 50.5502 62.7798 50.9464C67.2223 54.8206 71.9674 58.216 76.8506 61.5229C78.3816 62.5468 79.9125 63.5702 81.3805 64.6578C82.2658 65.2748 83.0885 65.9552 83.8863 66.6857C84.3795 67.1439 84.7725 67.6782 85.052 68.2512C85.5848 69.3223 85.1454 70.3897 83.9964 70.7387C83.3908 70.9445 82.7465 71.0383 82.1022 71.0067C81.0664 70.9414 80.0047 70.8017 78.9684 70.6113C71.7651 69.3032 64.7752 67.2551 58.0606 64.2786C56.7076 63.6537 55.3293 63.0784 53.9511 62.5037C53.5465 62.3075 53.1294 62.1987 52.6995 62.0527C52.0294 61.8209 51.4993 62.0011 51.0963 62.5555C50.958 62.77 50.7688 62.959 50.6305 63.1734C45.0277 71.2964 38.8685 79.0248 32.8863 86.9014C32.181 87.8091 31.5263 88.7412 30.821 89.649C30.5816 89.9387 30.3424 90.2291 30.0396 90.4567C29.7498 90.7226 29.3583 90.8136 28.9537 90.6174C28.5869 90.4084 28.3967 90.0972 28.4588 89.6587C28.5837 89.032 28.6707 88.4181 28.8462 87.8158C29.9129 84.7403 30.9038 81.6906 32.0715 78.6639C33.5534 74.8215 35.149 71.0651 36.694 67.2843C37.1209 66.1791 37.548 65.0744 37.9371 63.9821C38.1513 63.7424 38.2009 63.3913 38.3264 63.0149Z" fill="#32AE77"/>
</svg>
