<?xml version="1.0" encoding="UTF-8"?>
<svg id="_Слой_1" data-name="Слой 1" xmlns="http://www.w3.org/2000/svg" xmlns:xlink="http://www.w3.org/1999/xlink" viewBox="0 0 300 300">
  <defs>
    <style>
      .cls-1 {
        fill: url(#_Безымянный_градиент_24);
      }
    </style>
    <linearGradient id="_Безымянный_градиент_24" data-name="Безымянный градиент 24" x1="144.88" y1="267.47" x2="144.88" y2="18" gradientUnits="userSpaceOnUse">
      <stop offset="0" stop-color="#009ee2"/>
      <stop offset=".08" stop-color="#08a0d0"/>
      <stop offset=".25" stop-color="#1aa5ae"/>
      <stop offset=".43" stop-color="#27a994"/>
      <stop offset=".61" stop-color="#31ab81"/>
      <stop offset=".8" stop-color="#37ad75"/>
      <stop offset="1" stop-color="#39ae72"/>
    </linearGradient>
  </defs>
  <path class="cls-1" d="m285.2,150.23c-3.76,64.35-55.3,114.73-119.71,117.15-9.34.35-18.46-.33-27.26-1.93-5.94-1.07-11.74-2.57-17.36-4.47-9.35-5.66-15.62-16.16-15.62-28.15,0-18.04,14.18-32.67,31.68-32.67.77,0,1.52.02,2.28.1,3.58,1.33,7.33,2.36,11.19,3.01,3.35.55,6.79.85,10.3.85,35.46,0,63.91-30.08,61.2-66.12-2.26-30.13-25.82-53.9-55.93-56.42-26.78-2.23-50.33,12.74-60.83,35.06,20.79,6.87,31.43,14.34,31.92,22.44.76,12.66-23.31,26.81-72.23,42.47-4.94,1.58-10.35.59-14.41-2.64C16.31,151.8-1.04,125.71,5.81,112.44c1.33-2.58,7.29-11.86,37.04-10.73,3.46-9.98,8.18-19.38,13.94-28.04,9.58-14.37,22.06-26.65,36.61-36,19.4-12.45,42.49-19.68,67.28-19.68,71.36,0,128.74,59.95,124.52,132.23Z"/>
</svg>