<?xml version="1.0" encoding="UTF-8"?>
<svg id="_Слой_1" data-name="Слой 1" xmlns="http://www.w3.org/2000/svg" xmlns:xlink="http://www.w3.org/1999/xlink" viewBox="0 0 500 500">
  <defs>
    <style>
      .cls-1 {
        fill: #c59754;
        stroke: #151000;
        stroke-miterlimit: 10;
      }

      .cls-2 {
        fill: url(#_Безымянный_градиент_21);
      }

      .cls-2, .cls-3, .cls-4 {
        stroke: #3f2200;
        stroke-linecap: round;
        stroke-linejoin: round;
      }

      .cls-3 {
        fill: #bf986d;
      }

      .cls-5 {
        fill: #150e00;
      }

      .cls-4 {
        fill: #ba8454;
      }
    </style>
    <radialGradient id="_Безымянный_градиент_21" data-name="Безымянный градиент 21" cx="240.33" cy="255.84" fx="240.33" fy="255.84" r="321.61" gradientUnits="userSpaceOnUse">
      <stop offset=".23" stop-color="#fff"/>
      <stop offset=".36" stop-color="#faefdf"/>
      <stop offset=".62" stop-color="#f3d5aa"/>
      <stop offset=".81" stop-color="#eec589"/>
      <stop offset=".91" stop-color="#edbf7d"/>
    </radialGradient>
  </defs>
  <path class="cls-2" d="m480,90.82c-7.02-7.95-17.71-8.61-32-9.29-4.78-.23-9.26-.16-13.3.08-11.91.7-20.02,2.83-20.7,3.01-39.72,10.45-131.21,13.21-158,13.43-24.07.2-91.22-.65-137.06-7.36-.59,2.08-1.1,4.42-1.44,7.07-1.35,10.44,1.28,15.61,0,16-1.99.6-9.8-11.48-10.95-25.14-6.21-1.18-11.8-2.51-16.55-4-2.25-.7-4.35-1.3-6.34-1.81-11.65-2.95-19.67-2.72-33.66-2.32-9.75.28-16.65,1.57-23,6.2-7.76,5.67-11.1,13.77-12.5,18.07.22,4.12.55,10.19,1,17.56.51,8.39.95,14.79,1,15.49.35,4.97,1.33,10.13,2.67,15.5,4.58,18.48,13.37,39.38,15.33,62.99,1.84,22.07-2.86,109.77-6,121.64-.76,2.88-6.11,12.78-9.62,27.27-2.04,8.41-2.94,15.51-3.38,20.29,4.31.48,11.07,1.36,19.23,3.02,16.7,3.39,28.56,8.11,31.27,8.81,44.87,11.56,84.85,17.23,115.03,20.03.31-7.09-.08-14.68-1.53-22.6-4.79-26.13-18.64-41.94-17-43,1.96-1.27,25.15,19.12,31,50,1.12,5.88,1.48,11.5,1.34,16.73,19.76,1.42,33.8,1.55,40.16,1.56,51.58.09,92.95-6.41,139.74-15.49-2.08-2.27-4.16-4.53-6.24-6.8,2.33-3.67,4.67-7.33,7-11-1.64-1.53-3.4-3.5-5-6-5.06-7.91-5.21-16.1-5-20,2.67,5,5.33,10,8,15,1.53-22.31,2.45-27,3-27,1,.03.22,15.34,4,35,1.38,7.17,3.09,13.47,4.76,18.74,6.76-1.34,13.66-2.72,20.74-4.14,28.83-5.79,52.69-11.63,69.5-16.01-5.87-26.47-11.13-134.4-7-179.47,2.7-29.47,8.75-54.65,15.07-74.57.14-.45.29-.9.43-1.34.82-2.65,7-23.7-4-36.15Zm-346.5,40.94c-1.52-2.63-5.46-10.25-4-20,.73-4.87,2.56-8.62,4-11v31Z"/>
  <path class="cls-4" d="m80,124.58c-1.7-13.58-2.64-20.36-8-25.82-10.03-10.21-31-10.96-38.5-.52-2.86,3.98-3.21,8.81-3,12.39.39,5.76,1.02,13.95,2,23.75,3.11,31.13,5.31,34.03,7.5,35.63,9.55,6.97,31.64-1.44,39-16.52,3.68-7.54,2.76-14.87,1-28.92Z"/>
  <path class="cls-3" d="m60.5,109.6c-.99-2.2-3.49-7.79-9-9.29-2.97-.81-7.32-.57-10,2.07-4.38,4.3-1.02,11.73,0,25.82,1.36,18.81-3.03,27.58,0,28.92,3.64,1.61,12.54-9.86,17-20.66,2.01-4.88,6.73-16.3,2-26.85Z"/>
  <path class="cls-1" d="m39.5,110c.62,1.23,2,3.59,4.26,4.81,1.19.64,3.39,1.85,5.47,0,2.13-1.89,2.65-5.36,2.74-5.95.49,4.58.96,10.65,1.03,17.84.09,9.53-.62,11.37-1.37,12.44-2.39,3.4-7.51,2.21-9.92-2.16-.83-1.5-1.26-3.25-1.71-8.65-.37-4.36-.71-10.6-.5-18.32Z"/>
  <path class="cls-1" d="m30.5,110.63c.18,1.1,1.46,8.25,8,12.39.49.31,8.02,4.9,16,1.03,5.02-2.43,7.31-6.8,8-8.26,1.43,8.74,2.8,20.34,3,34.08.26,18.21-1.82,21.73-4,23.75-6.96,6.48-23.03,5.95-29-4.13-4.07-6.87-1.53-14.95-1-16.52-.33-14.11-.67-28.23-1-42.34Z"/>
  <path class="cls-1" d="m14.5,106.5c1.33-.23,1.39,12.81,11,22.72,7.07,7.29,21.7,15.36,35.5,8.78,15.06-7.18,16.93-26,17-26.85,5.15,33.67,8.61,63.03,11,86.75,0,0,9.17,161.06-12,201.16-1.05,2-3.72,6.94-9,11.36-11.7,9.81-26.02,8.48-28,8.26-4.71-.51-16.67-1.81-24-12.39-5.79-8.37-5.29-17.63-5-20.66,4.08-14.09,9.16-35.48,11-61.97,1.41-20.29.28-106.18-2-137.13-3-40.59-7.82-79.64-5.5-80.04Z"/>
  <path class="cls-4" d="m419.71,127.71c1.7-13.58,2.64-20.36,8-25.82,10.03-10.21,31-10.96,38.5-.52,2.86,3.98,3.21,8.81,3,12.39-.39,5.76-1.02,13.95-2,23.75-3.11,31.13-5.31,34.03-7.5,35.63-9.55,6.97-31.64-1.44-39-16.52-3.68-7.54-2.76-14.87-1-28.92Z"/>
  <path class="cls-3" d="m439.21,112.74c.99-2.2,3.49-7.79,9-9.29,2.97-.81,7.32-.57,10,2.07,4.38,4.3,1.02,11.73,0,25.82-1.36,18.81,3.03,27.58,0,28.92-3.64,1.61-12.54-9.86-17-20.66-2.01-4.88-6.73-16.3-2-26.85Z"/>
  <path class="cls-1" d="m460.21,113.13c-.62,1.23-2,3.59-4.26,4.81-1.19.64-3.39,1.85-5.47,0-2.13-1.89-2.65-5.36-2.74-5.95-.49,4.58-.96,10.65-1.03,17.84-.09,9.53.62,11.37,1.37,12.44,2.39,3.4,7.51,2.21,9.92-2.16.83-1.5,1.26-3.25,1.71-8.65.37-4.36.71-10.6.5-18.32Z"/>
  <path class="cls-1" d="m469.21,113.77c-.18,1.1-1.46,8.25-8,12.39-.49.31-8.02,4.9-16,1.03-5.02-2.43-7.31-6.8-8-8.26-1.43,8.74-2.8,20.34-3,34.08-.26,18.21,1.82,21.73,4,23.75,6.96,6.48,23.03,5.95,29-4.13,4.07-6.87,1.53-14.95,1-16.52.33-14.11.67-28.23,1-42.34Z"/>
  <path class="cls-1" d="m485.21,109.64c-1.33-.23-1.39,12.81-11,22.72-7.07,7.29-21.7,15.36-35.5,8.78-15.06-7.18-16.93-26-17-26.85-5.15,33.67-8.61,63.03-11,86.75,0,0-9.17,161.06,12,201.16,1.05,2,3.72,6.94,9,11.36,11.7,9.81,26.02,8.48,28,8.26,4.71-.51,16.67-1.81,24-12.39,5.79-8.37,5.29-17.63,5-20.66-4.08-14.09-9.16-35.48-11-61.97-1.41-20.29-.28-106.18,2-137.13,3-40.59,7.82-79.64,5.5-80.04Z"/>
  <g>
    <path class="cls-5" d="m125.29,180.25c1.24.87,1.86,2.08,1.86,3.63v2.91c0,1.2-.4,2.23-1.21,3.08-.81.85-1.79,1.28-2.94,1.28h-1.38c-.97,0-1.84-.33-2.61-1s-1.24-1.5-1.43-2.52c0-.06-.01-.12-.01-.17,0-.47.23-.71.7-.71.37,0,.59.2.66.6.13.68.45,1.24.95,1.69.51.45,1.08.67,1.74.67h1.38c.76,0,1.42-.29,1.96-.86.54-.57.81-1.25.81-2.05v-2.91c0-.79-.27-1.48-.81-2.04-.54-.57-1.2-.85-1.96-.85h-2.06c-.46,0-.69-.24-.69-.73s.23-.73.69-.73h2.06c.76,0,1.42-.29,1.96-.86.54-.57.81-1.26.81-2.06v-1.45c0-.79-.27-1.48-.81-2.05-.54-.57-1.2-.86-1.96-.86h-.97c-1.2,0-2.03.58-2.51,1.73-.12.3-.32.45-.61.45-.49,0-.73-.24-.73-.71,0-.11.02-.21.07-.32.33-.79.84-1.43,1.52-1.9.69-.47,1.44-.71,2.26-.71h.97c1.15,0,2.13.43,2.94,1.28.81.85,1.21,1.88,1.21,3.08v1.45c0,1.55-.62,2.76-1.86,3.63Z"/>
    <path class="cls-5" d="m138.25,190.42c0,.48-.23.73-.69.73h-4.83c-.76,0-1.41-.28-1.95-.85-.54-.57-.81-1.25-.81-2.06v-10.9c0-.48.23-.73.69-.73s.69.24.69.73v10.9c0,.4.14.74.41,1.02.27.29.6.43.97.43h4.14v-12.35c0-.48.23-.73.69-.73s.69.24.69.73v13.08Z"/>
    <path class="cls-5" d="m150.67,190.42c0,.48-.23.73-.69.73s-.69-.24-.69-.73v-10.67l-2.87,4.54c-.18.28-.38.42-.58.42s-.4-.14-.58-.42l-2.87-4.54v10.67c0,.48-.23.73-.69.73s-.69-.24-.69-.73v-13.08c0-.49.23-.74.69-.74.25,0,.44.11.58.33l3.56,5.62,3.56-5.62c.15-.23.34-.35.58-.35.46,0,.69.25.69.76v13.08Z"/>
    <path class="cls-5" d="m161.7,188.24c0,.8-.27,1.49-.81,2.06s-1.19.85-1.95.85h-2.76c-.76,0-1.41-.28-1.95-.85-.54-.57-.81-1.25-.81-2.06v-8.72c0-.79.27-1.48.81-2.05.54-.57,1.19-.86,1.94-.86h2.76c.75,0,1.4.29,1.94.86s.81,1.25.81,2.05v8.72Zm-1.38,0v-8.72c0-.4-.14-.74-.41-1.02-.27-.29-.6-.43-.97-.43h-2.76c-.38,0-.7.14-.97.43-.27.29-.41.63-.41,1.02v8.72c0,.4.14.74.41,1.02.27.29.6.43.97.43h2.76c.38,0,.7-.14.97-.43.27-.29.41-.63.41-1.02Z"/>
    <path class="cls-5" d="m172.74,190.42c0,.48-.23.73-.69.73h-4.83c-.76,0-1.41-.28-1.95-.85-.54-.57-.81-1.25-.81-2.06v-10.9c0-.48.23-.73.69-.73s.69.24.69.73v10.9c0,.4.14.74.41,1.02.27.29.6.43.97.43h4.14v-12.35c0-.48.23-.73.69-.73s.69.24.69.73v13.08Zm-2.77-18.17h-2.73c-.46,0-.69-.24-.69-.73s.23-.73.69-.73h2.73c.46,0,.69.24.69.73s-.23.73-.69.73Z"/>
    <path class="cls-5" d="m192.05,194.04c0,.79-.27,1.48-.81,2.05s-1.18.86-1.94.86h-4.15c-.46,0-.69-.24-.69-.73s.23-.73.69-.73h4.15c.38,0,.7-.14.97-.43.27-.29.4-.63.4-1.02v-2.89h-4.12c-.77,0-1.43-.29-1.97-.86-.54-.57-.81-1.26-.81-2.06v-10.9c0-.48.23-.73.69-.73s.69.24.69.73v10.9c0,.41.14.75.41,1.04.27.29.6.43.99.43h4.12v-12.37c0-.48.23-.73.69-.73s.69.24.69.73v16.72Z"/>
    <path class="cls-5" d="m211.36,190.42c0,.48-.23.73-.69.73s-.69-.24-.69-.73v-5.81h-5.52v5.81c0,.48-.23.73-.69.73s-.69-.24-.69-.73v-13.08c0-.48.23-.73.69-.73s.69.24.69.73v5.81h5.52v-5.81c0-.48.23-.73.69-.73s.69.24.69.73v13.08Z"/>
    <path class="cls-5" d="m223.68,190.43c0,.5-.23.76-.68.76-.4,0-.88-.34-1.45-1.02-.54.65-1.23.97-2.07.97h-2.76c-.76,0-1.41-.28-1.95-.85s-.81-1.25-.81-2.06v-8.72c0-.79.27-1.48.81-2.05s1.19-.86,1.94-.86h4.83c.46,0,.69.24.69.73v10.93c0,.73.31,1.22.94,1.48.33.14.5.36.5.68Zm-2.81-2.19v-10.17h-4.14c-.38,0-.7.14-.97.43-.27.29-.41.63-.41,1.02v8.72c0,.4.14.74.41,1.02.27.29.6.43.97.43h2.76c.38,0,.7-.14.97-.43.27-.29.41-.63.41-1.02Z"/>
    <path class="cls-5" d="m232.74,191.15h-4.83c-.76,0-1.41-.28-1.95-.85-.54-.57-.81-1.25-.81-2.06v-8.72c0-.79.27-1.48.81-2.05.54-.57,1.19-.86,1.94-.86h4.83c.46,0,.69.24.69.73s-.23.73-.69.73h-4.83c-.38,0-.7.14-.97.43-.27.29-.41.63-.41,1.02v8.72c0,.4.14.74.41,1.02.27.29.6.43.97.43h4.83c.46,0,.69.24.69.73s-.23.73-.69.73Z"/>
    <path class="cls-5" d="m252.74,190.42c0,.48-.23.73-.69.73s-.69-.24-.69-.73v-5.81h-5.52v5.81c0,.48-.23.73-.69.73s-.69-.24-.69-.73v-13.08c0-.48.23-.73.69-.73s.69.24.69.73v5.81h5.52v-5.81c0-.48.23-.73.69-.73s.69.24.69.73v13.08Z"/>
    <path class="cls-5" d="m265.06,190.43c0,.5-.23.76-.68.76-.4,0-.88-.34-1.45-1.02-.54.65-1.23.97-2.07.97h-2.76c-.76,0-1.41-.28-1.95-.85-.54-.57-.81-1.25-.81-2.06v-8.72c0-.79.27-1.48.81-2.05.54-.57,1.19-.86,1.95-.86h4.83c.46,0,.69.24.69.73v10.93c0,.73.31,1.22.94,1.48.33.14.5.36.5.68Zm-2.81-2.19v-10.17h-4.14c-.38,0-.7.14-.97.43-.27.29-.41.63-.41,1.02v8.72c0,.4.13.74.41,1.02.27.29.6.43.97.43h2.76c.38,0,.7-.14.97-.43.27-.29.41-.63.41-1.02Z"/>
    <path class="cls-5" d="m283.09,188.24c0,.8-.27,1.49-.81,2.06s-1.19.85-1.95.85h-2.76c-.76,0-1.41-.28-1.95-.85s-.81-1.25-.81-2.06v-8.72c0-.79.27-1.48.81-2.05.54-.57,1.19-.86,1.94-.86h2.76c.75,0,1.4.29,1.95.86s.81,1.25.81,2.05v8.72Zm-1.38,0v-8.72c0-.4-.14-.74-.41-1.02-.27-.29-.6-.43-.97-.43h-2.76c-.38,0-.7.14-.97.43-.27.29-.41.63-.41,1.02v8.72c0,.4.14.74.41,1.02.27.29.59.43.97.43h2.76c.38,0,.7-.14.97-.43.27-.29.41-.63.41-1.02Z"/>
    <path class="cls-5" d="m293.43,188.24c0,.79-.29,1.48-.88,2.05s-1.26.86-2.03.86h-2.07c-.59,0-1.13-.18-1.61-.55s-.82-.85-1.01-1.45c-.03-.09-.04-.17-.04-.26,0-.46.24-.7.72-.7.33,0,.55.17.65.52.19.66.63.99,1.3.99h2.07c.39,0,.74-.15,1.05-.44.32-.29.48-.63.48-1.02v-2.18c0-.39-.16-.73-.48-1.02-.32-.29-.67-.44-1.05-.44h-1.38c-.46,0-.69-.24-.69-.73s.23-.73.69-.73h1.38c.39,0,.74-.15,1.05-.44.32-.29.48-.63.48-1.02v-2.18c0-.39-.16-.73-.48-1.02-.32-.29-.67-.44-1.05-.44h-1.38c-.66,0-1.1.33-1.31,1-.1.33-.31.49-.62.49-.48,0-.72-.23-.72-.7,0-.09.01-.17.04-.26.19-.6.53-1.08,1-1.45s1.01-.55,1.61-.55h1.38c.77,0,1.45.29,2.03.87s.88,1.26.88,2.04v2.18c0,.89-.31,1.62-.94,2.18.62.58.94,1.31.94,2.18v2.18Z"/>
    <path class="cls-5" d="m297.57,184.61v3.63c0,.4.13.74.4,1.02.27.29.59.43.96.43h4.83c.46,0,.69.24.69.73s-.23.73-.69.73h-4.83c-.76,0-1.41-.28-1.94-.85-.53-.57-.8-1.25-.8-2.06v-8.71c0-.79.27-1.48.81-2.05s1.18-.86,1.94-.86h2.77c.76,0,1.41.28,1.95.85s.81,1.25.81,2.06v4.35c0,.48-.23.73-.7.73h-6.19Zm0-1.45h5.52v-3.62c0-.4-.14-.74-.41-1.02s-.6-.43-.97-.43h-2.77c-.38,0-.7.14-.96.43-.27.29-.4.63-.4,1.02v3.62Z"/>
    <path class="cls-5" d="m308.61,191.16v5.07c0,.48-.23.73-.69.73s-.69-.24-.69-.73v-18.9c0-.48.23-.73.69-.73h4.84c.75,0,1.4.28,1.94.85s.81,1.25.81,2.04v8.74c0,.79-.27,1.48-.81,2.06s-1.18.86-1.94.86h-4.15Zm0-1.45h4.15c.38,0,.7-.15.96-.44s.4-.63.4-1.03v-8.74c0-.39-.14-.72-.41-1.01-.27-.29-.59-.43-.96-.43h-4.15v11.64Z"/>
    <path class="cls-5" d="m319.64,184.61v3.63c0,.4.13.74.4,1.02.27.29.59.43.96.43h4.83c.46,0,.69.24.69.73s-.23.73-.69.73h-4.83c-.76,0-1.41-.28-1.94-.85-.53-.57-.8-1.25-.8-2.06v-8.71c0-.79.27-1.48.81-2.05s1.18-.86,1.94-.86h2.77c.76,0,1.41.28,1.95.85s.81,1.25.81,2.06v4.35c0,.48-.23.73-.7.73h-6.19Zm0-1.45h5.52v-3.62c0-.4-.14-.74-.41-1.02s-.6-.43-.97-.43h-2.77c-.38,0-.7.14-.96.43-.27.29-.4.63-.4,1.02v3.62Z"/>
    <path class="cls-5" d="m128.6,227.58c0,.48-.23.73-.69.73s-.69-.24-.69-.73v-.71h-8.28v.71c0,.48-.23.73-.69.73s-.69-.24-.69-.73v-1.44c0-.48.23-.73.69-.73h.73l1.34-18.24c.04-.45.27-.67.69-.67h5.53c.46,0,.69.24.69.73v18.18h.68c.46,0,.69.24.69.73v1.44Zm-2.75-2.17v-17.46h-4.21l-1.27,17.46h5.48Z"/>
    <path class="cls-5" d="m132.73,220.33v3.63c0,.4.13.74.4,1.02.27.29.59.43.97.43h4.83c.46,0,.69.24.69.73s-.23.73-.69.73h-4.83c-.76,0-1.41-.28-1.95-.85s-.8-1.25-.8-2.06v-8.71c0-.79.27-1.48.81-2.05.54-.57,1.18-.86,1.94-.86h2.77c.76,0,1.41.28,1.95.85s.81,1.25.81,2.06v4.35c0,.48-.23.73-.7.73h-6.19Zm0-1.45h5.52v-3.62c0-.4-.14-.74-.41-1.02-.27-.29-.6-.43-.97-.43h-2.77c-.38,0-.7.14-.97.43s-.4.63-.4,1.02v3.62Z"/>
    <path class="cls-5" d="m147.91,213.79h-4.14v12.35c0,.48-.23.73-.69.73s-.69-.24-.69-.73v-13.08c0-.48.23-.73.69-.73h8.97c.75,0,1.4.29,1.94.86s.81,1.25.81,2.05v10.9c0,.48-.23.73-.69.73s-.69-.24-.69-.73v-10.9c0-.4-.14-.74-.41-1.02-.27-.29-.6-.43-.97-.43h-2.76v12.35c0,.48-.23.73-.69.73s-.69-.24-.69-.73v-12.35Z"/>
    <path class="cls-5" d="m158.94,220.33v3.63c0,.4.13.74.4,1.02.27.29.59.43.97.43h4.83c.46,0,.69.24.69.73s-.23.73-.69.73h-4.83c-.76,0-1.41-.28-1.95-.85s-.8-1.25-.8-2.06v-8.71c0-.79.27-1.48.81-2.05.54-.57,1.18-.86,1.94-.86h2.77c.76,0,1.41.28,1.95.85s.81,1.25.81,2.06v4.35c0,.48-.23.73-.7.73h-6.19Zm0-1.45h5.52v-3.62c0-.4-.14-.74-.41-1.02-.27-.29-.6-.43-.97-.43h-2.77c-.38,0-.7.14-.97.43s-.4.63-.4,1.02v3.62Z"/>
    <path class="cls-5" d="m176.88,226.14c0,.48-.23.73-.69.73h-4.83c-.76,0-1.41-.28-1.95-.85-.54-.57-.81-1.25-.81-2.06v-10.9c0-.48.23-.73.69-.73s.69.24.69.73v10.9c0,.4.14.74.41,1.02.27.29.6.43.97.43h4.14v-12.35c0-.48.23-.73.69-.73s.69.24.69.73v13.08Zm-2.77-18.17h-2.73c-.46,0-.69-.24-.69-.73s.23-.73.69-.73h2.73c.46,0,.69.24.69.73s-.23.73-.69.73Z"/>
    <path class="cls-5" d="m196.19,226.14c0,.48-.23.73-.69.73s-.69-.24-.69-.73v-10.9c0-.4-.14-.74-.41-1.02-.27-.29-.6-.43-.97-.43h-4.14v12.35c0,.48-.23.73-.69.73s-.69-.24-.69-.73v-13.08c0-.48.23-.73.69-.73h4.83c.75,0,1.4.29,1.94.86s.81,1.25.81,2.05v10.9Z"/>
    <path class="cls-5" d="m207.22,223.96c0,.8-.27,1.49-.81,2.06s-1.19.85-1.95.85h-2.76c-.76,0-1.41-.28-1.95-.85-.54-.57-.81-1.25-.81-2.06v-8.72c0-.79.27-1.48.81-2.05.54-.57,1.19-.86,1.94-.86h2.76c.75,0,1.4.29,1.94.86s.81,1.25.81,2.05v8.72Zm-1.38,0v-8.72c0-.4-.14-.74-.41-1.02-.27-.29-.6-.43-.97-.43h-2.76c-.38,0-.7.14-.97.43-.27.29-.41.63-.41,1.02v8.72c0,.4.14.74.41,1.02.27.29.6.43.97.43h2.76c.38,0,.7-.14.97-.43.27-.29.41-.63.41-1.02Z"/>
    <path class="cls-5" d="m218.26,226.14c0,.48-.23.73-.69.73s-.69-.24-.69-.73v-12.35h-2.9l-2.63,12.51c-.08.38-.3.57-.66.57-.47,0-.7-.23-.7-.7,0-.06,0-.12.01-.19l2.76-13.08c.08-.38.31-.57.68-.57h4.14c.46,0,.69.24.69.73v13.08Z"/>
    <path class="cls-5" d="m229.29,226.14c0,.48-.23.73-.69.73s-.69-.24-.69-.73v-5.81h-5.52v5.81c0,.48-.23.73-.69.73s-.69-.24-.69-.73v-13.08c0-.48.23-.73.69-.73s.69.24.69.73v5.81h5.52v-5.81c0-.48.23-.73.69-.73s.69.24.69.73v13.08Z"/>
    <path class="cls-5" d="m238.95,223.96c0,.8-.27,1.49-.81,2.06s-1.19.85-1.95.85h-3.45c-.46,0-.69-.24-.69-.73v-13.08c0-.48.23-.73.69-.73s.69.24.69.73v5.81h2.76c.76,0,1.41.29,1.95.86s.81,1.25.81,2.05v2.18Zm-1.38,0v-2.18c0-.4-.14-.74-.41-1.02-.27-.29-.6-.43-.97-.43h-2.76v5.09h2.76c.38,0,.7-.14.97-.43.27-.29.41-.63.41-1.02Zm4.14,2.18c0,.48-.23.73-.69.73s-.69-.24-.69-.73v-13.08c0-.48.23-.73.69-.73s.69.24.69.73v13.08Z"/>
    <path class="cls-5" d="m254.12,226.14c0,.48-.23.73-.69.73s-.69-.24-.69-.73v-10.67l-2.87,4.54c-.18.28-.38.42-.58.42s-.4-.14-.58-.42l-2.87-4.54v10.67c0,.48-.23.73-.69.73s-.69-.24-.69-.73v-13.08c0-.49.23-.74.69-.74.25,0,.44.11.58.33l3.56,5.62,3.56-5.62c.15-.23.34-.35.58-.35.46,0,.69.25.69.76v13.08Z"/>
    <path class="cls-5" d="m273.43,226.14c0,.48-.23.73-.69.73s-.69-.24-.69-.73v-10.9c0-.4-.14-.74-.41-1.02-.27-.29-.6-.43-.97-.43h-4.14v12.35c0,.48-.23.73-.69.73s-.69-.24-.69-.73v-13.08c0-.48.23-.73.69-.73h4.83c.75,0,1.4.29,1.95.86s.81,1.25.81,2.05v10.9Z"/>
    <path class="cls-5" d="m284.47,223.96c0,.8-.27,1.49-.81,2.06s-1.19.85-1.95.85h-2.76c-.76,0-1.41-.28-1.95-.85s-.81-1.25-.81-2.06v-8.72c0-.79.27-1.48.81-2.05.54-.57,1.19-.86,1.94-.86h2.76c.75,0,1.4.29,1.95.86s.81,1.25.81,2.05v8.72Zm-1.38,0v-8.72c0-.4-.14-.74-.41-1.02-.27-.29-.6-.43-.97-.43h-2.76c-.38,0-.7.14-.97.43-.27.29-.41.63-.41,1.02v8.72c0,.4.14.74.41,1.02.27.29.59.43.97.43h2.76c.38,0,.7-.14.97-.43.27-.29.41-.63.41-1.02Z"/>
    <path class="cls-5" d="m295.5,226.14c0,.48-.23.73-.69.73s-.69-.24-.69-.73v-12.35h-2.9l-2.63,12.51c-.08.38-.3.57-.66.57-.47,0-.7-.23-.7-.7,0-.06,0-.12.01-.19l2.76-13.08c.08-.38.31-.57.68-.57h4.14c.46,0,.69.24.69.73v13.08Z"/>
    <path class="cls-5" d="m306.54,226.14c0,.48-.23.73-.69.73s-.69-.24-.69-.73v-5.81h-5.52v5.81c0,.48-.23.73-.69.73s-.69-.24-.69-.73v-13.08c0-.48.23-.73.69-.73s.69.24.69.73v5.81h5.52v-5.81c0-.48.23-.73.69-.73s.69.24.69.73v13.08Z"/>
    <path class="cls-5" d="m317.57,223.96c0,.8-.27,1.49-.81,2.06s-1.19.85-1.95.85h-2.76c-.76,0-1.41-.28-1.95-.85s-.81-1.25-.81-2.06v-8.72c0-.79.27-1.48.81-2.05.54-.57,1.19-.86,1.94-.86h2.76c.75,0,1.4.29,1.95.86s.81,1.25.81,2.05v8.72Zm-1.38,0v-8.72c0-.4-.14-.74-.41-1.02-.27-.29-.6-.43-.97-.43h-2.76c-.38,0-.7.14-.97.43-.27.29-.41.63-.41,1.02v8.72c0,.4.14.74.41,1.02.27.29.59.43.97.43h2.76c.38,0,.7-.14.97-.43.27-.29.41-.63.41-1.02Z"/>
    <path class="cls-5" d="m321.71,226.26c0,.07-.24,1.1-.72,3.1-.09.38-.31.57-.66.57-.48,0-.72-.23-.72-.7,0-.07.24-1.1.72-3.1.09-.38.31-.57.66-.57.48,0,.72.23.72.7Z"/>
    <path class="cls-5" d="m129.96,261.85c0,.48-.23.73-.69.73s-.69-.24-.69-.73v-16.28l-4.23,7.22c-.17.3-.37.45-.59.45s-.42-.15-.59-.45l-4.22-7.22v16.28c0,.48-.23.73-.69.73s-.69-.24-.69-.73v-18.87c0-.56.21-.84.62-.84.26,0,.48.16.66.47l4.91,8.43,4.92-8.43c.18-.31.4-.47.66-.47.41,0,.62.28.62.84v18.87Z"/>
    <path class="cls-5" d="m141.01,261.86c0,.48-.23.73-.69.73s-.69-.24-.69-.73v-5.81h-4.14c-.76,0-1.41-.28-1.95-.85-.54-.57-.81-1.25-.81-2.06v-4.36c0-.48.23-.73.69-.73s.69.24.69.73v4.36c0,.4.14.74.41,1.02.27.29.6.43.97.43h4.14v-5.81c0-.48.23-.73.69-.73s.69.24.69.73v13.08Z"/>
    <path class="cls-5" d="m152.05,261.86c0,.48-.23.73-.69.73h-4.83c-.76,0-1.41-.28-1.95-.85-.54-.57-.81-1.25-.81-2.06v-10.9c0-.48.23-.73.69-.73s.69.24.69.73v10.9c0,.4.14.74.41,1.03.27.29.6.43.97.43h4.14v-12.36c0-.48.23-.73.69-.73s.69.24.69.73v13.08Z"/>
    <path class="cls-5" d="m164.46,261.86c0,.48-.23.73-.69.73s-.69-.24-.69-.73v-10.67l-2.87,4.54c-.18.28-.38.42-.58.42s-.4-.14-.58-.42l-2.87-4.54v10.67c0,.48-.23.73-.69.73s-.69-.24-.69-.73v-13.08c0-.49.23-.74.69-.74.25,0,.44.11.58.33l3.56,5.63,3.56-5.63c.15-.23.34-.35.58-.35.46,0,.69.25.69.76v13.08Z"/>
    <path class="cls-5" d="m183.77,261.86c0,.48-.23.73-.69.73s-.69-.24-.69-.73v-5.81h-5.52v5.81c0,.48-.23.73-.69.73s-.69-.24-.69-.73v-13.08c0-.48.23-.73.69-.73s.69.24.69.73v5.81h5.52v-5.81c0-.48.23-.73.69-.73s.69.24.69.73v13.08Z"/>
    <path class="cls-5" d="m196.09,261.88c0,.5-.23.76-.68.76-.4,0-.88-.34-1.45-1.02-.54.65-1.23.97-2.07.97h-2.76c-.76,0-1.41-.28-1.95-.85-.54-.57-.81-1.25-.81-2.06v-8.72c0-.79.27-1.48.81-2.05.54-.57,1.19-.86,1.94-.86h4.83c.46,0,.69.24.69.73v10.93c0,.73.31,1.22.94,1.48.33.14.5.36.5.68Zm-2.81-2.2v-10.17h-4.14c-.38,0-.7.14-.97.43-.27.29-.41.63-.41,1.02v8.72c0,.4.14.74.41,1.03.27.29.6.43.97.43h2.76c.38,0,.7-.14.97-.43.27-.29.41-.63.41-1.03Z"/>
    <path class="cls-5" d="m214.16,248.84c0,.17-.06.34-.19.49-1.43,1.65-2.85,3.29-4.28,4.93l4.33,7.21c.07.13.11.26.11.39,0,.2-.07.38-.22.52s-.31.21-.5.21c-.23,0-.41-.11-.55-.33l-4.12-6.88c-.27.32-.77.91-1.5,1.76v4.72c0,.48-.23.73-.69.73s-.69-.24-.69-.73v-13.08c0-.48.23-.73.69-.73s.69.24.69.73v6.18l5.71-6.61c.15-.17.31-.25.5-.25s.36.08.5.23c.14.15.21.32.21.52Z"/>
    <path class="cls-5" d="m225.15,259.68c0,.8-.27,1.49-.81,2.06-.54.57-1.19.85-1.95.85h-2.76c-.76,0-1.41-.28-1.95-.85-.54-.57-.81-1.25-.81-2.06v-8.72c0-.79.27-1.48.81-2.05.54-.57,1.19-.86,1.94-.86h2.76c.75,0,1.4.29,1.94.86.54.57.81,1.25.81,2.05v8.72Zm-1.38,0v-8.72c0-.4-.14-.74-.41-1.02-.27-.29-.6-.43-.97-.43h-2.76c-.38,0-.7.14-.97.43-.27.29-.41.63-.41,1.02v8.72c0,.4.14.74.41,1.03.27.29.6.43.97.43h2.76c.38,0,.7-.14.97-.43.27-.29.41-.63.41-1.03Z"/>
    <path class="cls-5" d="m236.19,261.86c0,.48-.23.73-.69.73s-.69-.24-.69-.73v-5.81h-5.52v5.81c0,.48-.23.73-.69.73s-.69-.24-.69-.73v-13.08c0-.48.23-.73.69-.73s.69.24.69.73v5.81h5.52v-5.81c0-.48.23-.73.69-.73s.69.24.69.73v13.08Z"/>
    <path class="cls-5" d="m247.22,259.68c0,.8-.27,1.49-.81,2.06-.54.57-1.19.85-1.95.85h-4.83c-.46,0-.69-.24-.69-.73v-13.08c0-.48.23-.73.69-.73s.69.24.69.73v5.81h4.14c.76,0,1.41.29,1.95.86.54.57.81,1.25.81,2.05v2.18Zm-1.38,0v-2.18c0-.4-.14-.74-.41-1.03-.27-.29-.6-.43-.97-.43h-4.14v5.09h4.14c.38,0,.7-.14.97-.43.27-.29.41-.63.41-1.03Z"/>
    <path class="cls-5" d="m258.3,248.84c0,.17-.06.34-.19.49-1.43,1.65-2.85,3.29-4.28,4.93l4.33,7.21c.07.13.11.26.11.39,0,.2-.07.38-.22.52-.15.14-.31.21-.5.21-.23,0-.41-.11-.55-.33l-4.12-6.88c-.27.32-.77.91-1.5,1.76v4.72c0,.48-.23.73-.69.73s-.69-.24-.69-.73v-13.08c0-.48.23-.73.69-.73s.69.24.69.73v6.18l5.71-6.61c.15-.17.31-.25.5-.25.19,0,.36.08.5.23s.21.32.21.52Z"/>
    <path class="cls-5" d="m270.58,261.88c0,.5-.23.76-.68.76-.4,0-.88-.34-1.45-1.02-.54.65-1.23.97-2.07.97h-2.76c-.76,0-1.41-.28-1.95-.85-.54-.57-.81-1.25-.81-2.06v-8.72c0-.79.27-1.48.81-2.05.54-.57,1.19-.86,1.95-.86h4.83c.46,0,.69.24.69.73v10.93c0,.73.31,1.22.94,1.48.33.14.5.36.5.68Zm-2.81-2.2v-10.17h-4.14c-.38,0-.7.14-.97.43-.27.29-.41.63-.41,1.02v8.72c0,.4.13.74.41,1.03.27.29.6.43.97.43h2.76c.38,0,.7-.14.97-.43.27-.29.41-.63.41-1.03Z"/>
    <path class="cls-5" d="m276.98,255.31l3.27,6.21c.06.13.1.25.1.36,0,.47-.24.71-.73.71-.25,0-.44-.13-.58-.38l-2.84-5.39-2.84,5.39c-.14.25-.33.38-.58.38-.49,0-.73-.24-.73-.71,0-.12.03-.24.1-.36l3.27-6.19-3.27-6.22c-.06-.12-.1-.24-.1-.36,0-.47.24-.71.73-.71.26,0,.45.13.58.38l2.84,5.42,2.84-5.39c.14-.25.33-.38.58-.38.49,0,.73.24.73.71,0,.12-.03.24-.1.36l-3.27,6.18Z"/>
    <path class="cls-5" d="m299.64,261.86c0,.48-.23.73-.69.73s-.69-.24-.69-.73v-10.9c0-.4-.14-.74-.41-1.02-.27-.29-.6-.43-.97-.43h-4.14v12.35c0,.48-.23.73-.69.73s-.69-.24-.69-.73v-13.08c0-.48.23-.73.69-.73h4.83c.75,0,1.4.29,1.95.86.54.57.81,1.25.81,2.05v10.9Z"/>
    <path class="cls-5" d="m310.67,259.68c0,.8-.27,1.49-.81,2.06-.54.57-1.19.85-1.95.85h-2.76c-.76,0-1.41-.28-1.95-.85-.54-.57-.81-1.25-.81-2.06v-8.72c0-.79.27-1.48.81-2.05.54-.57,1.19-.86,1.94-.86h2.76c.75,0,1.4.29,1.95.86.54.57.81,1.25.81,2.05v8.72Zm-1.38,0v-8.72c0-.4-.14-.74-.41-1.02-.27-.29-.6-.43-.97-.43h-2.76c-.38,0-.7.14-.97.43-.27.29-.41.63-.41,1.02v8.72c0,.4.14.74.41,1.03.27.29.59.43.97.43h2.76c.38,0,.7-.14.97-.43.27-.29.41-.63.41-1.03Z"/>
    <path class="cls-5" d="m321.71,259.68c0,.79-.27,1.48-.81,2.05s-1.19.86-1.97.86h-2.73c-.77,0-1.43-.29-1.97-.86s-.81-1.25-.81-2.05v-8.72c0-.8.27-1.49.81-2.06.54-.57,1.19-.85,1.97-.85h4.12v-2.91c0-.41-.14-.75-.41-1.03-.27-.28-.6-.42-.99-.42h-4.81c-.46,0-.69-.24-.69-.73s.23-.73.69-.73h4.81c.76,0,1.42.29,1.96.86s.81,1.25.81,2.05v14.54Zm-1.38,0v-10.17h-4.12c-.39,0-.72.14-.99.43-.27.29-.41.63-.41,1.02v8.72c0,.4.14.74.41,1.03.27.29.6.43.99.43h2.73c.39,0,.71-.14.99-.43.27-.29.41-.63.41-1.03Z"/>
    <path class="cls-5" d="m342.4,261.86c0,.48-.23.73-.69.73s-.69-.24-.69-.73v-10.67l-2.87,4.54c-.18.28-.38.42-.58.42s-.4-.14-.58-.42l-2.87-4.54v10.67c0,.48-.23.73-.69.73s-.69-.24-.69-.73v-13.08c0-.49.23-.74.69-.74.25,0,.44.11.58.33l3.56,5.63,3.56-5.63c.15-.23.34-.35.58-.35.46,0,.69.25.69.76v13.08Z"/>
    <path class="cls-5" d="m353.43,265.48c0,.79-.27,1.48-.81,2.05-.54.57-1.18.86-1.94.86h-4.15c-.46,0-.69-.24-.69-.73s.23-.73.69-.73h4.15c.38,0,.7-.14.96-.43s.4-.63.4-1.02v-2.89h-4.12c-.77,0-1.43-.29-1.97-.86s-.81-1.26-.81-2.06v-10.9c0-.49.23-.73.69-.73s.69.24.69.73v10.9c0,.41.14.75.41,1.04.27.29.6.43.99.43h4.12v-12.37c0-.49.23-.73.69-.73s.69.24.69.73v16.72Z"/>
    <path class="cls-5" d="m363.78,259.68c0,.79-.29,1.48-.88,2.05s-1.26.86-2.03.86h-2.07c-.59,0-1.13-.18-1.61-.55-.49-.37-.82-.85-1.01-1.45-.03-.09-.04-.17-.04-.26,0-.46.24-.7.72-.7.33,0,.55.17.65.52.19.66.63.99,1.3.99h2.07c.39,0,.74-.15,1.05-.44s.48-.63.48-1.02v-2.18c0-.39-.16-.73-.48-1.02-.32-.29-.67-.44-1.05-.44h-1.38c-.46,0-.69-.24-.69-.73s.23-.73.69-.73h1.38c.39,0,.74-.15,1.05-.44.32-.29.48-.63.48-1.02v-2.18c0-.39-.16-.73-.48-1.02s-.67-.44-1.05-.44h-1.38c-.66,0-1.1.33-1.31,1-.1.33-.31.49-.62.49-.48,0-.72-.23-.72-.7,0-.09.01-.17.04-.26.19-.6.53-1.08,1-1.45s1.01-.54,1.61-.54h1.38c.77,0,1.45.29,2.03.87s.88,1.26.88,2.04v2.18c0,.89-.31,1.62-.94,2.18.62.58.94,1.31.94,2.18v2.18Z"/>
    <path class="cls-5" d="m373.44,259.68c0,.8-.27,1.49-.81,2.06-.54.57-1.19.85-1.95.85h-3.45c-.46,0-.69-.24-.69-.73v-13.08c0-.48.23-.73.69-.73s.69.24.69.73v5.81h2.76c.76,0,1.41.29,1.95.86.54.57.81,1.25.81,2.05v2.18Zm-1.38,0v-2.18c0-.4-.14-.74-.41-1.03-.27-.29-.6-.43-.97-.43h-2.76v5.09h2.76c.38,0,.7-.14.97-.43.27-.29.41-.63.41-1.03Zm4.14,2.18c0,.48-.23.73-.69.73s-.69-.24-.69-.73v-13.08c0-.48.23-.73.69-.73s.69.24.69.73v13.08Z"/>
    <path class="cls-5" d="m387.27,248.84c0,.17-.06.34-.19.49-1.43,1.65-2.85,3.29-4.28,4.93l4.33,7.21c.07.13.11.26.11.39,0,.2-.07.38-.22.52-.15.14-.31.21-.5.21-.23,0-.41-.11-.55-.33l-4.12-6.88c-.27.32-.77.91-1.5,1.76v4.72c0,.48-.23.73-.69.73s-.69-.24-.69-.73v-13.08c0-.48.23-.73.69-.73s.69.24.69.73v6.18l5.71-6.61c.15-.17.31-.25.5-.25.19,0,.36.08.5.23s.21.32.21.52Z"/>
    <path class="cls-5" d="m398.26,265.48c0,.79-.27,1.48-.81,2.05-.54.57-1.18.86-1.94.86h-4.15c-.46,0-.69-.24-.69-.73s.23-.73.69-.73h4.15c.38,0,.7-.14.96-.43s.4-.63.4-1.02v-2.89h-4.12c-.77,0-1.43-.29-1.97-.86s-.81-1.26-.81-2.06v-10.9c0-.49.23-.73.69-.73s.69.24.69.73v10.9c0,.41.14.75.41,1.04.27.29.6.43.99.43h4.12v-12.37c0-.49.23-.73.69-.73s.69.24.69.73v16.72Z"/>
    <path class="cls-5" d="m118.94,286.7h4.14c1.15,0,2.13.42,2.94,1.27.81.85,1.21,1.87,1.21,3.07v2.91c0,1.21-.4,2.24-1.21,3.09s-1.79,1.27-2.94,1.27h-4.83c-.46,0-.69-.24-.69-.73v-18.9c0-.48.23-.73.69-.73h7.59c.46,0,.69.24.69.73s-.23.73-.69.73h-6.9v7.28Zm0,1.45v8.71h4.14c.76,0,1.42-.28,1.96-.85.54-.57.81-1.25.81-2.06v-2.91c0-.79-.27-1.48-.81-2.04-.54-.57-1.2-.85-1.96-.85h-4.14Z"/>
    <path class="cls-5" d="m138.25,295.4c0,.8-.27,1.49-.81,2.06-.54.57-1.19.85-1.95.85h-2.76c-.76,0-1.41-.28-1.95-.85-.54-.57-.81-1.25-.81-2.06v-8.72c0-.79.27-1.48.81-2.05.54-.57,1.19-.86,1.94-.86h2.76c.75,0,1.4.29,1.94.86.54.57.81,1.25.81,2.05v8.72Zm-1.38,0v-8.72c0-.4-.14-.74-.41-1.02-.27-.29-.6-.43-.97-.43h-2.76c-.38,0-.7.14-.97.43-.27.29-.41.63-.41,1.02v8.72c0,.4.14.74.41,1.03.27.29.6.43.97.43h2.76c.38,0,.7-.14.97-.43.27-.29.41-.63.41-1.03Z"/>
    <path class="cls-5" d="m149.29,297.58c0,.48-.23.73-.69.73s-.69-.24-.69-.73v-12.35h-2.9l-2.63,12.51c-.08.38-.3.57-.66.57-.47,0-.7-.23-.7-.7,0-.06,0-.12.01-.19l2.76-13.08c.08-.38.31-.57.68-.57h4.14c.46,0,.69.24.69.73v13.08Z"/>
    <path class="cls-5" d="m153.43,291.77v3.63c0,.4.13.74.4,1.03.27.29.59.43.97.43h4.83c.46,0,.69.24.69.73s-.23.73-.69.73h-4.83c-.76,0-1.41-.28-1.95-.85-.53-.57-.8-1.25-.8-2.06v-8.71c0-.79.27-1.48.81-2.05.54-.57,1.18-.86,1.94-.86h2.77c.76,0,1.41.28,1.95.85.54.57.81,1.25.81,2.06v4.35c0,.48-.23.73-.7.73h-6.19Zm0-1.45h5.52v-3.62c0-.4-.14-.74-.41-1.02-.27-.28-.6-.43-.97-.43h-2.77c-.38,0-.7.14-.97.43-.27.29-.4.63-.4,1.02v3.62Z"/>
    <path class="cls-5" d="m170.67,295.4c0,.79-.29,1.48-.88,2.05s-1.26.86-2.03.86h-2.07c-.59,0-1.13-.18-1.61-.55-.49-.37-.82-.85-1.01-1.45-.03-.09-.04-.17-.04-.26,0-.46.24-.7.72-.7.33,0,.55.17.65.52.19.66.62.99,1.3.99h2.07c.39,0,.74-.15,1.06-.44.32-.29.48-.63.48-1.02v-2.18c0-.39-.16-.73-.48-1.02-.32-.29-.67-.44-1.06-.44h-1.38c-.46,0-.69-.24-.69-.73s.23-.73.69-.73h1.38c.39,0,.74-.15,1.06-.44.32-.29.48-.63.48-1.02v-2.18c0-.39-.16-.73-.48-1.02-.32-.29-.67-.44-1.06-.44h-1.38c-.66,0-1.1.33-1.31,1-.1.33-.31.49-.62.49-.48,0-.72-.23-.72-.7,0-.09.01-.17.04-.26.19-.6.53-1.08,1-1.45.47-.36,1.01-.54,1.61-.54h1.38c.77,0,1.45.29,2.03.87s.88,1.26.88,2.04v2.18c0,.89-.31,1.62-.94,2.18.63.58.94,1.31.94,2.18v2.18Z"/>
    <path class="cls-5" d="m181.7,297.58c0,.48-.23.73-.69.73s-.69-.24-.69-.73v-5.81h-5.52v5.81c0,.48-.23.73-.69.73s-.69-.24-.69-.73v-13.08c0-.48.23-.73.69-.73s.69.24.69.73v5.81h5.52v-5.81c0-.48.23-.73.69-.73s.69.24.69.73v13.08Z"/>
    <path class="cls-5" d="m192.74,297.58c0,.48-.23.73-.69.73s-.69-.24-.69-.73v-5.81h-2.36l-3.24,6.16c-.14.25-.33.38-.58.38-.49,0-.73-.24-.73-.71,0-.12.03-.24.1-.36l2.88-5.47h-.21c-.76,0-1.41-.28-1.95-.85-.54-.57-.81-1.25-.81-2.06v-2.18c0-.79.27-1.48.81-2.05.54-.57,1.19-.86,1.95-.86h4.83c.46,0,.69.24.69.73v13.08Zm-1.38-7.27v-5.09h-4.14c-.38,0-.7.14-.97.43-.27.29-.41.63-.41,1.02v2.18c0,.4.14.74.41,1.02.27.29.6.43.97.43h4.14Z"/>
    <path class="cls-5" d="m205.15,297.58c0,.48-.23.73-.69.73s-.69-.24-.69-.73v-10.67l-2.87,4.54c-.18.28-.38.42-.58.42s-.4-.14-.58-.42l-2.87-4.54v10.67c0,.48-.23.73-.69.73s-.69-.24-.69-.73v-13.08c0-.49.23-.74.69-.74.25,0,.44.11.58.33l3.56,5.62,3.56-5.62c.15-.23.34-.35.58-.35.46,0,.69.25.69.76v13.08Z"/>
    <path class="cls-5" d="m224.46,295.4c0,.79-.27,1.48-.81,2.05s-1.19.86-1.97.86h-2.73c-.77,0-1.43-.29-1.97-.86-.54-.57-.81-1.25-.81-2.05v-14.54c0-.91.29-1.63.85-2.17.52-.48,1.15-.73,1.89-.73s1.39.24,1.9.73c.57.53.86,1.25.86,2.17,0,.69-.21,1.29-.62,1.8-.36.31-.78.68-1.25,1.1h1.88c.77,0,1.43.28,1.97.85.54.57.81,1.25.81,2.06v8.72Zm-4.14-14.54c0-.46-.14-.82-.41-1.08-.27-.25-.6-.38-.97-.38s-.69.12-.95.36c-.29.26-.43.62-.43,1.09v2.91c.95-.64,1.7-1.25,2.25-1.83.34-.36.51-.72.51-1.08Zm2.76,14.54v-8.72c0-.4-.14-.74-.41-1.02-.27-.29-.6-.43-.99-.43h-2.73c-.39,0-.71.14-.99.43-.27.29-.41.63-.41,1.02v8.72c0,.4.14.74.41,1.03.27.29.6.43.99.43h2.73c.39,0,.71-.14.99-.43.27-.29.41-.63.41-1.03Z"/>
    <path class="cls-5" d="m234.81,298.31h-4.83c-.76,0-1.41-.28-1.95-.85-.54-.57-.81-1.25-.81-2.06v-8.72c0-.79.27-1.48.81-2.05.54-.57,1.19-.86,1.94-.86h4.83c.46,0,.69.24.69.73s-.23.73-.69.73h-4.83c-.38,0-.7.14-.97.43-.27.29-.41.63-.41,1.02v8.72c0,.4.14.74.41,1.03.27.29.6.43.97.43h4.83c.46,0,.69.24.69.73s-.23.73-.69.73Z"/>
    <path class="cls-5" d="m239.64,291.77v3.63c0,.4.13.74.4,1.03.27.29.59.43.97.43h4.83c.46,0,.69.24.69.73s-.23.73-.69.73h-4.83c-.76,0-1.41-.28-1.95-.85-.53-.57-.8-1.25-.8-2.06v-8.71c0-.79.27-1.48.81-2.05.54-.57,1.18-.86,1.94-.86h2.77c.76,0,1.41.28,1.95.85.54.57.81,1.25.81,2.06v4.35c0,.48-.23.73-.7.73h-6.19Zm0-1.45h5.52v-3.62c0-.4-.14-.74-.41-1.02-.27-.28-.6-.43-.97-.43h-2.77c-.38,0-.7.14-.97.43-.27.29-.4.63-.4,1.02v3.62Z"/>
    <path class="cls-5" d="m258.95,297.58c0,.48-.23.73-.69.73s-.69-.24-.69-.73v-10.67l-2.87,4.54c-.18.28-.38.42-.58.42s-.4-.14-.58-.42l-2.87-4.54v10.67c0,.48-.23.73-.69.73s-.69-.24-.69-.73v-13.08c0-.49.23-.74.69-.74.25,0,.44.11.58.33l3.56,5.62,3.56-5.62c.15-.23.34-.35.58-.35.46,0,.69.25.69.76v13.08Z"/>
    <path class="cls-5" d="m278.26,297.58c0,.48-.23.73-.69.73s-.69-.24-.69-.73v-5.81h-5.52v5.81c0,.48-.23.73-.69.73s-.69-.24-.69-.73v-13.08c0-.48.23-.73.69-.73s.69.24.69.73v5.81h5.52v-5.81c0-.48.23-.73.69-.73s.69.24.69.73v13.08Z"/>
    <path class="cls-5" d="m290.58,297.6c0,.5-.23.76-.68.76-.4,0-.88-.34-1.45-1.02-.54.65-1.23.97-2.07.97h-2.76c-.76,0-1.41-.28-1.95-.85-.54-.57-.81-1.25-.81-2.06v-8.72c0-.79.27-1.48.81-2.05.54-.57,1.19-.86,1.95-.86h4.83c.46,0,.69.24.69.73v10.93c0,.73.31,1.22.94,1.48.33.14.5.36.5.68Zm-2.81-2.2v-10.17h-4.14c-.38,0-.7.14-.97.43-.27.29-.41.63-.41,1.02v8.72c0,.4.13.74.41,1.03.27.29.6.43.97.43h2.76c.38,0,.7-.14.97-.43.27-.29.41-.63.41-1.03Z"/>
    <path class="cls-5" d="m299.64,295.4c0,.79-.29,1.48-.88,2.05s-1.26.86-2.03.86h-2.07c-.59,0-1.13-.18-1.61-.55-.49-.37-.82-.85-1.01-1.45-.03-.09-.04-.17-.04-.26,0-.46.24-.7.72-.7.33,0,.55.17.65.52.19.66.63.99,1.3.99h2.07c.39,0,.74-.15,1.05-.44s.48-.63.48-1.02v-2.18c0-.39-.16-.73-.48-1.02-.32-.29-.67-.44-1.05-.44h-1.38c-.46,0-.69-.24-.69-.73s.23-.73.69-.73h1.38c.39,0,.74-.15,1.05-.44.32-.29.48-.63.48-1.02v-2.18c0-.39-.16-.73-.48-1.02s-.67-.44-1.05-.44h-1.38c-.66,0-1.1.33-1.31,1-.1.33-.31.49-.62.49-.48,0-.72-.23-.72-.7,0-.09.01-.17.04-.26.19-.6.53-1.08,1-1.45s1.01-.54,1.61-.54h1.38c.77,0,1.45.29,2.03.87s.88,1.26.88,2.04v2.18c0,.89-.31,1.62-.94,2.18.62.58.94,1.31.94,2.18v2.18Z"/>
    <path class="cls-5" d="m310.67,297.58c0,.48-.23.73-.69.73s-.69-.24-.69-.73v-12.35h-2.9l-2.63,12.51c-.08.38-.3.57-.66.57-.47,0-.7-.23-.7-.7,0-.06,0-.12.01-.19l2.76-13.08c.08-.38.31-.57.68-.57h4.14c.46,0,.69.24.69.73v13.08Z"/>
    <path class="cls-5" d="m321.71,295.4c0,.8-.27,1.49-.81,2.06-.54.57-1.19.85-1.95.85h-2.76c-.76,0-1.41-.28-1.95-.85-.54-.57-.81-1.25-.81-2.06v-8.72c0-.79.27-1.48.81-2.05.54-.57,1.19-.86,1.94-.86h2.76c.75,0,1.4.29,1.95.86.54.57.81,1.25.81,2.05v8.72Zm-1.38,0v-8.72c0-.4-.14-.74-.41-1.02-.27-.29-.6-.43-.97-.43h-2.76c-.38,0-.7.14-.97.43-.27.29-.41.63-.41,1.02v8.72c0,.4.14.74.41,1.03.27.29.59.43.97.43h2.76c.38,0,.7-.14.97-.43.27-.29.41-.63.41-1.03Z"/>
  </g>
</svg>