<svg width="457" height="457" viewBox="0 0 457 457" fill="none" xmlns="http://www.w3.org/2000/svg">
<g clip-path="url(#clip0_55_504)">
<path d="M402.134 198.39C427.768 100.819 413.581 12.536 370.446 1.20387C327.312 -10.1283 271.565 59.782 245.931 157.353C220.297 254.924 234.484 343.207 277.619 354.539C320.753 365.871 376.5 295.961 402.134 198.39Z" fill="#593218" stroke="#1D1D1B" stroke-miterlimit="10"/>
<path d="M269.379 424.37C269.379 434.379 283.706 442.513 301.392 442.513C307.173 442.513 312.611 441.645 317.272 440.091C320.7 445.027 326.641 448.294 333.404 448.294C344.075 448.294 352.713 440.182 352.713 430.151C352.713 420.143 344.075 412.008 333.404 412.008C330.982 412.008 328.697 412.42 326.595 413.197C320.723 408.924 311.628 406.227 301.392 406.227C283.706 406.227 269.379 414.339 269.379 424.37Z" fill="#9F6134" stroke="#1D1D1B" stroke-miterlimit="10"/>
<path d="M324.036 454.783C334.699 454.783 343.344 446.661 343.344 436.641C343.344 426.621 334.699 418.498 324.036 418.498C313.372 418.498 304.728 426.621 304.728 436.641C304.728 446.661 313.372 454.783 324.036 454.783Z" fill="#9F6134" stroke="#1D1D1B" stroke-miterlimit="10"/>
<path d="M307.949 456.497C318.613 456.497 327.258 448.374 327.258 438.354C327.258 428.334 318.613 420.211 307.949 420.211C297.286 420.211 288.641 428.334 288.641 438.354C288.641 448.374 297.286 456.497 307.949 456.497Z" fill="#9F6134"/>
<path d="M289.646 439.36C289.989 443.084 291.474 446.695 294.148 449.597C300.934 456.977 312.794 457.091 320.631 449.871C328.469 442.65 329.337 430.814 322.55 423.456C319.808 420.486 316.244 418.681 312.474 418.086" fill="#9F6134"/>
<path d="M289.646 439.36C289.989 443.084 291.474 446.695 294.148 449.597C300.934 456.977 312.794 457.091 320.631 449.871C328.469 442.65 329.337 430.814 322.55 423.456C319.808 420.486 316.244 418.681 312.474 418.086" stroke="#1D1D1B" stroke-miterlimit="10"/>
<path d="M126.383 423.662C126.383 433.67 112.056 441.805 94.3704 441.805C88.5894 441.805 83.1511 440.936 78.4897 439.383C75.0622 444.318 69.1212 447.586 62.3576 447.586C51.6866 447.586 43.0493 439.474 43.0493 429.443C43.0493 419.412 51.6866 411.3 62.3576 411.3C64.7797 411.3 67.0647 411.711 69.1669 412.488C75.0393 408.215 84.1336 405.519 94.3704 405.519C112.056 405.519 126.383 413.631 126.383 423.662Z" fill="#9F6134" stroke="#1D1D1B" stroke-miterlimit="10"/>
<path d="M71.7033 454.075C82.3669 454.075 91.0115 445.952 91.0115 435.932C91.0115 425.912 82.3669 417.789 71.7033 417.789C61.0396 417.789 52.395 425.912 52.395 435.932C52.395 445.952 61.0396 454.075 71.7033 454.075Z" fill="#9F6134" stroke="#1D1D1B" stroke-miterlimit="10"/>
<path d="M87.7897 455.789C98.4533 455.789 107.098 447.666 107.098 437.646C107.098 427.626 98.4533 419.503 87.7897 419.503C77.126 419.503 68.4814 427.626 68.4814 437.646C68.4814 447.666 77.126 455.789 87.7897 455.789Z" fill="#9F6134"/>
<path d="M106.093 438.651C105.75 442.376 104.265 445.986 101.591 448.888C94.8046 456.269 82.9455 456.383 75.1079 449.162C67.2704 441.942 66.4021 430.105 73.1885 422.748C75.9305 419.777 79.4951 417.972 83.2654 417.378" fill="#9F6134"/>
<path d="M106.093 438.651C105.75 442.376 104.265 445.986 101.591 448.888C94.8046 456.269 82.9455 456.383 75.1079 449.162C67.2704 441.942 66.4021 430.105 73.1885 422.748C75.9305 419.777 79.4951 417.972 83.2654 417.378" stroke="#1D1D1B" stroke-miterlimit="10"/>
<path d="M395.716 201.857C370.078 299.426 314.325 369.325 271.184 357.991C261.335 355.409 298.992 330.754 321.408 299.404C346.063 264.946 356.666 221.782 367.862 177.407C381.435 123.504 385.479 71.452 378.259 38.7765C373.14 15.6523 354.723 2.23933 364.023 4.68428C407.164 16.0179 421.354 104.31 395.716 201.857Z" fill="#2C1A10"/>
<path d="M193.403 432.962C187.05 442.97 178.527 446.215 171.695 434.47C166.897 440.571 157.094 447.312 153.049 437.326C143.384 441.896 138.677 449.482 132.827 432.573C129.285 435.041 125.355 437.6 121.745 439.794C117.838 434.721 117.929 428.255 121.608 422.862C118.843 429.306 113.199 433.19 107.052 431.111C107.898 427.661 106.23 423.685 107.692 420.006C98.8492 425.787 84.8422 420.6 91.8114 408.718C81.9631 413.676 71.5663 404.651 82.4886 395.328C70.5609 405.039 69.8069 383.537 69.9211 374.214C58.8846 380.224 60.9868 360.504 70.241 356.483C58.8617 358.197 62.2207 344.212 70.241 341.265C56.8738 333.976 78.3756 326.892 81.9859 321.088C73.9199 324.379 79.541 307.652 83.1741 303.722C73.6228 299.244 82.9685 286.699 90.2805 286.082C75.5651 291.977 83.3798 270.91 92.9996 266.34L90.1662 263.689C86.4645 259.142 86.6473 253.658 91.6972 250.482C78.3528 240.633 96.0615 239.377 103.922 244.198C104.31 226.695 120.1 223.153 131.867 229.985C121.722 221.896 146.309 216.984 152.592 219.291C157.185 210.426 167.125 212.893 175.191 216.161C177.682 205.833 186.228 208.575 193.425 212.619L197.401 212.436C204.599 208.392 214.722 206.038 217.212 216.367C225.278 213.099 235.218 210.631 239.811 219.497C246.095 217.166 270.681 222.102 260.536 230.191C272.281 223.382 288.07 226.9 288.481 244.404C296.342 239.582 314.051 240.816 300.706 250.687C305.756 253.863 304.819 260.604 301.117 265.151L298.307 267.025C307.927 271.572 315.719 292.64 301.026 286.768C308.338 287.384 317.684 299.929 308.132 304.408C311.766 308.338 317.364 325.041 309.321 321.774C312.931 327.578 334.433 334.661 321.065 341.95C329.063 344.898 332.445 358.882 321.065 357.168C330.32 361.19 332.422 380.91 321.385 374.9C321.5 384.223 320.746 405.725 308.818 396.013C319.74 405.336 309.343 414.362 299.495 409.403C306.464 421.308 292.457 426.495 283.614 420.691C285.077 424.37 283.409 428.346 284.254 431.796C278.085 433.876 272.441 429.991 269.699 423.548C273.4 428.94 273.469 435.407 269.562 440.479C265.951 438.286 262.021 435.704 258.479 433.259C252.607 450.145 247.923 442.582 238.257 438.012C234.213 447.997 224.41 441.234 219.611 435.155C212.779 446.9 199.823 442.993 193.471 432.962" fill="#9F6134"/>
<path d="M193.403 432.962C187.05 442.97 178.527 446.215 171.695 434.47C166.897 440.571 157.094 447.312 153.049 437.326C143.384 441.896 138.677 449.482 132.827 432.573C129.285 435.041 125.355 437.6 121.745 439.794C117.838 434.721 117.929 428.255 121.608 422.862C118.843 429.306 113.199 433.19 107.052 431.111C107.898 427.661 106.23 423.685 107.692 420.006C98.8492 425.787 84.8422 420.6 91.8114 408.718C81.9631 413.676 71.5663 404.651 82.4886 395.328C70.5609 405.039 69.8069 383.537 69.9211 374.214C58.8846 380.224 60.9868 360.504 70.241 356.483C58.8617 358.197 62.2207 344.212 70.241 341.265C56.8738 333.976 78.3756 326.892 81.9859 321.088C73.9199 324.379 79.541 307.652 83.1741 303.722C73.6228 299.244 82.9685 286.699 90.2805 286.082C75.5651 291.977 83.3798 270.91 92.9996 266.34L90.1662 263.689C86.4645 259.142 86.6473 253.658 91.6972 250.482C78.3528 240.633 96.0615 239.377 103.922 244.198C104.31 226.695 120.1 223.153 131.867 229.985C121.722 221.896 146.309 216.984 152.592 219.291C157.185 210.426 167.125 212.893 175.191 216.161C177.682 205.833 186.228 208.575 193.425 212.619L197.401 212.436C204.599 208.392 214.722 206.038 217.212 216.367C225.278 213.099 235.218 210.631 239.811 219.497C246.095 217.166 270.681 222.102 260.536 230.191C272.281 223.382 288.07 226.9 288.481 244.404C296.342 239.582 314.051 240.816 300.706 250.687C305.756 253.863 304.819 260.604 301.117 265.151L298.307 267.025C307.927 271.572 315.719 292.64 301.026 286.768C308.338 287.384 317.684 299.929 308.132 304.408C311.766 308.338 317.364 325.041 309.321 321.774C312.931 327.578 334.433 334.661 321.065 341.95C329.063 344.898 332.445 358.882 321.065 357.168C330.32 361.19 332.422 380.91 321.385 374.9C321.5 384.223 320.746 405.725 308.818 396.013C319.74 405.336 309.343 414.362 299.495 409.403C306.464 421.308 292.457 426.495 283.614 420.691C285.077 424.37 283.409 428.346 284.254 431.796C278.085 433.876 272.441 429.991 269.699 423.548C273.4 428.94 273.469 435.407 269.562 440.479C265.951 438.286 262.021 435.704 258.479 433.259C252.607 450.145 247.923 442.582 238.257 438.012C234.213 447.997 224.41 441.234 219.611 435.155C212.779 446.9 199.823 442.993 193.471 432.962" stroke="#1D1D1B" stroke-miterlimit="10"/>
<path d="M126.837 108.332C137.974 101.853 142.598 89.0311 137.166 79.6938C131.734 70.3566 118.302 68.0398 107.165 74.5191C96.0276 80.9984 91.403 93.8203 96.8352 103.158C102.267 112.495 115.699 114.812 126.837 108.332Z" fill="#9F6134" stroke="#1D1D1B" stroke-miterlimit="10"/>
<path d="M126.85 108.346C135.238 103.466 138.452 93.3468 134.029 85.7439C129.606 78.141 119.22 75.9338 110.832 80.8139C102.444 85.694 99.2295 95.8135 103.653 103.416C108.076 111.019 118.462 113.226 126.85 108.346Z" fill="url(#paint0_linear_55_504)" stroke="#1D1D1B" stroke-miterlimit="10"/>
<path d="M288.591 106.282C294.024 96.9444 289.399 84.1225 278.262 77.6432C267.125 71.1638 253.693 73.4806 248.26 82.8179C242.828 92.1551 247.453 104.977 258.59 111.456C269.727 117.936 283.159 115.619 288.591 106.282Z" fill="#9F6134" stroke="#1D1D1B" stroke-miterlimit="10"/>
<path d="M281.791 106.54C286.214 98.9373 282.999 88.8178 274.611 83.9377C266.223 79.0576 255.837 81.2648 251.414 88.8677C246.991 96.4706 250.205 106.59 258.593 111.47C266.982 116.35 277.367 114.143 281.791 106.54Z" fill="url(#paint1_linear_55_504)" stroke="#1D1D1B" stroke-miterlimit="10"/>
<path d="M193.837 191.232C193.837 191.232 193.722 191.14 193.654 191.094" stroke="#1D1D1B" stroke-miterlimit="10"/>
<path d="M319.352 341.768C319.969 341.996 320.563 342.293 321.111 342.636C327.783 346.794 329.84 358.562 319.329 356.986C328.583 361.007 330.685 380.727 319.649 374.717C319.763 384.04 319.009 405.542 307.081 395.831C318.003 405.153 307.607 414.179 297.758 409.221C304.728 421.126 290.721 426.312 281.878 420.509C283.34 424.187 281.672 428.163 282.517 431.614C276.348 433.693 270.704 429.809 267.962 423.365C271.664 428.757 271.732 435.224 267.825 440.297C264.215 438.103 260.284 435.521 256.743 433.076C250.87 449.962 246.186 442.399 236.52 437.829C232.476 447.814 222.673 441.051 217.875 434.973C211.043 446.718 198.087 442.81 191.734 432.779C199.092 434.196 236.657 440.594 272.646 416.418C311.651 390.209 318.415 348.44 319.374 341.745L319.352 341.768Z" fill="#704223"/>
<path d="M70.2182 341.562C69.6012 341.79 69.0071 342.087 68.4587 342.43C61.7865 346.589 59.73 358.357 70.241 356.78C60.9868 360.801 58.8846 380.521 69.9211 374.511C69.8069 383.834 70.5609 405.336 82.4886 395.625C71.5663 404.948 81.9631 413.973 91.8114 409.015C84.8422 420.92 98.8492 426.107 107.692 420.303C106.23 423.982 107.898 427.958 107.052 431.408C113.222 433.487 118.866 429.603 121.608 423.159C117.906 428.552 117.838 435.018 121.745 440.091C125.355 437.897 129.285 435.315 132.827 432.87C138.7 449.757 143.384 442.193 153.049 437.623C157.094 447.609 166.897 440.845 171.695 434.767C178.527 446.512 191.483 442.604 197.835 432.573C190.478 433.99 152.912 440.388 116.924 416.213C77.9186 390.004 71.155 348.234 70.1953 341.539L70.2182 341.562Z" fill="#704223"/>
<path d="M193.403 432.962C187.05 442.97 178.527 446.215 171.695 434.47C166.897 440.571 157.094 447.312 153.049 437.326C143.384 441.896 138.677 449.482 132.827 432.573C129.285 435.041 125.355 437.6 121.745 439.794C117.838 434.721 117.929 428.255 121.608 422.862C118.843 429.306 113.199 433.19 107.052 431.111C107.898 427.661 106.23 423.685 107.692 420.006C98.8492 425.787 84.8422 420.6 91.8114 408.718C81.9631 413.676 71.5663 404.651 82.4886 395.328C70.5609 405.039 69.8069 383.537 69.9211 374.214C58.8846 380.224 60.9868 360.504 70.241 356.483C58.8617 358.197 62.2207 344.212 70.241 341.265C56.8738 333.976 78.3756 326.892 81.9859 321.088C73.9199 324.379 79.541 307.652 83.1741 303.722C73.6228 299.244 82.9685 286.699 90.2805 286.082C75.5651 291.977 83.3798 270.91 92.9996 266.34L90.1662 263.689C86.4645 259.142 86.6473 253.658 91.6972 250.482C78.3528 240.633 96.0615 239.377 103.922 244.198C104.31 226.695 120.1 223.153 131.867 229.985C121.722 221.896 146.309 216.984 152.592 219.291C157.185 210.426 167.125 212.893 175.191 216.161C177.682 205.833 186.228 208.575 193.425 212.619L197.401 212.436C204.599 208.392 214.722 206.038 217.212 216.367C225.278 213.099 235.218 210.631 239.811 219.497C246.095 217.166 270.681 222.102 260.536 230.191C272.281 223.382 288.07 226.9 288.481 244.404C296.342 239.582 314.051 240.816 300.706 250.687C305.756 253.863 304.819 260.604 301.117 265.151L298.307 267.025C307.927 271.572 315.719 292.64 301.026 286.768C308.338 287.384 317.684 299.929 308.132 304.408C311.766 308.338 317.364 325.041 309.321 321.774C312.931 327.578 334.433 334.661 321.065 341.95C329.063 344.898 332.445 358.882 321.065 357.168C330.32 361.19 332.422 380.91 321.385 374.9C321.5 384.223 320.746 405.725 308.818 396.013C319.74 405.336 309.343 414.362 299.495 409.403C306.464 421.308 292.457 426.495 283.614 420.691C285.077 424.37 283.409 428.346 284.254 431.796C278.085 433.876 272.441 429.991 269.699 423.548C273.4 428.94 273.469 435.407 269.562 440.479C265.951 438.286 262.021 435.704 258.479 433.259C252.607 450.145 247.923 442.582 238.257 438.012C234.213 447.997 224.41 441.234 219.611 435.155C212.779 446.9 199.823 442.993 193.471 432.962" stroke="#1D1D1B" stroke-miterlimit="10"/>
<path d="M193.654 269.333H184.994V292.434H193.654V269.333Z" fill="#FFF3CF" stroke="#1D1D1B" stroke-width="0.25" stroke-miterlimit="10"/>
<path d="M202.314 269.333H193.654V292.434H202.314V269.333Z" fill="#FFF3CF" stroke="#1D1D1B" stroke-width="0.25" stroke-miterlimit="10"/>
<path d="M93.1823 239.902C83.9738 228.112 82.3971 214.333 87.904 203.136C91.3315 196.144 95.7415 192.351 91.8113 186.136C88.8408 181.452 94.6447 169.044 97.5924 168.77C95.5816 164.337 88.1325 160.407 91.1258 156.797C92.1084 157.071 95.8786 150.696 96.7469 151.244C94.3934 144.024 97.3182 129.857 101.705 124.258C100.22 120.305 101.02 117.472 102.756 114.341C103.648 115.233 105.544 116.101 106.595 117.266C106.093 114.296 107.806 110.777 107.921 108.972C108.789 109.383 109.611 109.886 110.411 110.503C109.406 107.464 110.411 104.676 109.954 101.797C113.519 99.8316 116.192 101.682 117.632 106.024C116.375 99.8316 119.825 95.3302 125.424 95.9014C124.258 83.1968 135.363 90.7373 140.482 93.982C137.694 86.83 141.122 78.4897 147.405 85.8246C147.817 75.6792 155.723 78.2155 160.453 83.6081C158.876 79.6094 159.813 75.3593 162.806 72.2745C166.782 74.034 169.341 77.2101 172.083 81.0032C172.358 72.6173 178.641 63.82 184.011 73.6684C184.491 73.8283 188.215 68.2301 190.82 68.2758C194.522 68.3443 197.401 74.0111 197.95 73.6684C200.76 71.8861 201.377 69.1898 203.045 69.304C206.45 69.5554 207.272 81.0032 209.854 80.9804C210.906 80.9804 211.088 79.0838 214.036 75.8391C215.887 73.8055 217.578 71.9318 219.132 72.2517C220.982 72.6173 221.919 75.8163 222.079 77.9185C222.308 81.186 220.754 83.0597 221.462 83.5853C222.81 84.5678 228.569 77.9185 231.471 79.2438C233.71 80.2492 232.544 85.2762 234.51 85.8246C236.246 86.3044 238.188 82.6027 239.559 83.0597C241.616 83.7224 238.6 92.4282 241.433 93.982C244.518 95.6729 252.15 87.5155 254.709 89.2749C256.308 90.3717 254.229 94.2105 256.491 95.9014C257.931 96.9754 259.37 95.8329 261.061 96.7697C264.512 98.6663 263.095 105.887 264.306 106.047C265.22 106.161 265.631 101.98 268.488 101.111C269.699 100.746 271.275 100.974 271.984 101.82C272.372 102.277 272.486 102.848 271.961 106.115C271.549 108.697 271.138 110.411 271.527 110.525C271.687 110.571 271.824 110.32 272.738 109.68C273.446 109.2 273.789 108.949 274.017 108.994C274.337 109.063 274.726 109.52 274.908 112.696C275.091 115.667 274.84 117.129 275.343 117.266C275.594 117.335 275.822 117.015 277.33 115.712C278.861 114.387 279.044 114.341 279.181 114.364C280.232 114.478 280.986 117.312 280.986 119.848C280.986 121.973 280.461 123.276 280.21 124.281C279.113 128.988 283.546 131.022 285.214 137.169C287.065 143.978 284.231 151.107 285.168 151.267C285.351 151.29 285.488 151.038 286.516 150.536C287.293 150.17 287.682 149.987 287.933 150.01C288.961 150.147 290.012 153.323 289.487 156.637C288.847 160.635 286.311 162.441 287.293 163.88C288.024 164.954 289.624 164.223 290.721 165.274C293.166 167.605 288.938 174.94 288.116 176.379C284.094 183.371 293.166 193.882 299.221 202.611C308.841 216.458 295.131 238.485 294.217 239.902C285.008 254.275 270.43 259.987 260.627 263.849C239.605 272.098 216.412 272.212 195.299 272.326C194.248 272.326 193.22 272.326 192.146 272.326C171.261 272.212 147.405 272.098 126.818 263.849C118.592 260.559 105.841 253.955 93.228 239.902" fill="#9F6134"/>
<path d="M93.1823 239.902C83.9738 228.112 82.3971 214.333 87.904 203.136C91.3315 196.144 95.7415 192.351 91.8113 186.136C88.8408 181.452 94.6447 169.044 97.5924 168.77C95.5816 164.337 88.1325 160.407 91.1258 156.797C92.1084 157.071 95.8786 150.696 96.7469 151.244C94.3934 144.024 97.3182 129.857 101.705 124.258C100.22 120.305 101.02 117.472 102.756 114.341C103.648 115.233 105.544 116.101 106.595 117.266C106.093 114.296 107.806 110.777 107.921 108.972C108.789 109.383 109.611 109.886 110.411 110.503C109.406 107.464 110.411 104.676 109.954 101.797C113.519 99.8316 116.192 101.682 117.632 106.024C116.375 99.8316 119.825 95.3302 125.424 95.9014C124.258 83.1968 135.363 90.7373 140.482 93.982C137.694 86.83 141.122 78.4897 147.405 85.8246C147.817 75.6792 155.723 78.2155 160.453 83.6081C158.876 79.6094 159.813 75.3593 162.806 72.2745C166.782 74.034 169.341 77.2101 172.083 81.0032C172.358 72.6173 178.641 63.82 184.011 73.6684C184.491 73.8283 188.215 68.2301 190.82 68.2758C194.522 68.3443 197.401 74.0111 197.95 73.6684C200.76 71.8861 201.377 69.1898 203.045 69.304C206.45 69.5554 207.272 81.0032 209.854 80.9804C210.906 80.9804 211.088 79.0838 214.036 75.8391C215.887 73.8055 217.578 71.9318 219.132 72.2517C220.982 72.6173 221.919 75.8163 222.079 77.9185C222.308 81.186 220.754 83.0597 221.462 83.5853C222.81 84.5678 228.569 77.9185 231.471 79.2438C233.71 80.2492 232.544 85.2762 234.51 85.8246C236.246 86.3044 238.188 82.6027 239.559 83.0597C241.616 83.7224 238.6 92.4282 241.433 93.982C244.518 95.6729 252.15 87.5155 254.709 89.2749C256.308 90.3717 254.229 94.2105 256.491 95.9014C257.931 96.9754 259.37 95.8329 261.061 96.7697C264.512 98.6663 263.095 105.887 264.306 106.047C265.22 106.161 265.631 101.98 268.488 101.111C269.699 100.746 271.275 100.974 271.984 101.82C272.372 102.277 272.486 102.848 271.961 106.115C271.549 108.697 271.138 110.411 271.527 110.525C271.687 110.571 271.824 110.32 272.738 109.68C273.446 109.2 273.789 108.949 274.017 108.994C274.337 109.063 274.726 109.52 274.908 112.696C275.091 115.667 274.84 117.129 275.343 117.266C275.594 117.335 275.822 117.015 277.33 115.712C278.861 114.387 279.044 114.341 279.181 114.364C280.232 114.478 280.986 117.312 280.986 119.848C280.986 121.973 280.461 123.276 280.21 124.281C279.113 128.988 283.546 131.022 285.214 137.169C287.065 143.978 284.231 151.107 285.168 151.267C285.351 151.29 285.488 151.038 286.516 150.536C287.293 150.17 287.682 149.987 287.933 150.01C288.961 150.147 290.012 153.323 289.487 156.637C288.847 160.635 286.311 162.441 287.293 163.88C288.024 164.954 289.624 164.223 290.721 165.274C293.166 167.605 288.938 174.94 288.116 176.379C284.094 183.371 293.166 193.882 299.221 202.611C308.841 216.458 295.131 238.485 294.217 239.902C285.008 254.275 270.43 259.987 260.627 263.849C239.605 272.098 216.412 272.212 195.299 272.326C194.248 272.326 193.22 272.326 192.146 272.326C171.261 272.212 147.405 272.098 126.818 263.849C118.592 260.559 105.841 253.955 93.228 239.902" stroke="#1D1D1B" stroke-miterlimit="10"/>
<path d="M193.836 228.317C184.856 220.16 162.418 219.36 165.617 205.673C168.13 194.751 186.41 192.42 193.836 198.384C201.263 192.42 219.543 194.751 222.079 205.673C225.255 219.36 202.817 220.16 193.836 228.317Z" fill="url(#paint2_radial_55_504)" stroke="#1D1D1B" stroke-miterlimit="10"/>
<path d="M147.634 258.365C146.606 274.017 162.692 288.892 180.035 284.825C186.136 283.408 190.729 278.313 193.882 271.686" fill="#9F6134"/>
<path d="M147.634 258.365C146.606 274.017 162.692 288.892 180.035 284.825C186.136 283.408 190.729 278.313 193.882 271.686" stroke="#1D1D1B" stroke-miterlimit="10"/>
<path d="M240.062 258.365C241.136 274.017 225.027 288.892 207.684 284.825C201.583 283.408 197.013 278.313 193.859 271.686" fill="#9F6134"/>
<path d="M240.062 258.365C241.136 274.017 225.027 288.892 207.684 284.825C201.583 283.408 197.013 278.313 193.859 271.686" stroke="#1D1D1B" stroke-miterlimit="10"/>
<path d="M193.837 228.317L193.745 273.857" stroke="#1D1D1B" stroke-miterlimit="10"/>
<path d="M160.933 179.395C167.76 179.395 173.295 173.861 173.295 167.033C173.295 160.206 167.76 154.672 160.933 154.672C154.105 154.672 148.571 160.206 148.571 167.033C148.571 173.861 154.105 179.395 160.933 179.395Z" fill="white" stroke="#1D1D1B" stroke-miterlimit="10"/>
<path d="M160.933 168.77C161.74 168.77 162.395 167.993 162.395 167.033C162.395 166.074 161.74 165.297 160.933 165.297C160.125 165.297 159.47 166.074 159.47 167.033C159.47 167.993 160.125 168.77 160.933 168.77Z" fill="white"/>
<path d="M89.8918 210.586C89.1606 219.863 88.955 229.026 95.7643 237.823L95.9014 238.006C103.739 246.552 111.485 252.355 118.203 256.331C119.94 257.36 121.699 255.075 120.282 253.658C114.89 248.242 108.972 241.273 103.648 232.476C98.7805 224.478 95.4672 216.801 93.2051 210.174C92.611 208.392 90.0289 208.712 89.8918 210.586Z" fill="#704223"/>
<path d="M295.428 210.586C296.159 219.863 296.365 229.026 289.555 237.823L289.418 238.006C281.581 246.552 273.835 252.355 267.117 256.331C265.38 257.36 263.621 255.075 265.037 253.658C270.43 248.242 276.348 241.273 281.672 232.476C286.539 224.478 289.852 216.801 292.115 210.174C292.709 208.392 295.291 208.712 295.428 210.586Z" fill="#704223"/>
<path d="M292.617 323.122C290.881 327.144 290.012 331.508 288.367 335.552C287.956 335.872 287.499 335.941 287.019 335.758C286.722 334.593 285.328 332.902 285.1 332.011C283.454 335.141 281.444 340.397 277.696 338.431C277.308 342.339 274.109 344.807 271.23 342.43C269.584 346.018 267.779 350.451 264.329 352.438C262.844 350.702 262.021 348.668 262.341 346.269C262.227 350.496 259.485 356.62 254.298 357.031C254.526 356.003 254.549 355.249 255.097 354.061C253.521 356.323 249.134 366.72 247.306 359.271C245.523 364.046 238.691 368.73 233.733 369.416C233.413 368.548 232.704 367.634 232.453 366.765C230.945 368.548 229.391 370.353 227.883 372.112L211.682 361.99C211.682 361.99 211.637 361.967 211.614 361.967L211.225 361.853C209.397 359.933 209.375 356.689 211.728 355.066C210.928 352.987 207.798 346.04 212.185 347.16C210.631 346.726 209.535 345.081 208.164 344.51C208.781 342.156 210.449 340.374 212.688 339.78C210.563 336.009 212.482 332.49 216.618 332.833C214.699 330.343 218.88 328.08 221.828 327.898C217.075 323.785 224.456 320.677 228.226 319.854C227.403 319.466 225.987 317.341 225.095 316.815C226.741 313.685 231.288 312.542 234.373 311.56C229.94 307.287 235.561 303.242 239.217 300.866C238.211 301.095 237.115 301.072 236.132 301.3C238.006 298.193 240.656 295.199 244.312 294.788C243.147 294.788 241.89 294.217 240.748 294.24C243.261 291.612 246.437 289.829 249.865 290.378C248.837 290.309 247.9 289.898 247.009 289.807C248.974 288.093 251.647 287.316 254.046 286.539" fill="#9F6134"/>
<path d="M292.617 323.122C290.881 327.144 290.012 331.508 288.367 335.552C287.956 335.872 287.499 335.941 287.019 335.758C286.722 334.593 285.328 332.902 285.1 332.011C283.454 335.141 281.444 340.397 277.696 338.431C277.308 342.339 274.109 344.807 271.23 342.43C269.584 346.018 267.779 350.451 264.329 352.438C262.844 350.702 262.021 348.668 262.341 346.269C262.227 350.496 259.485 356.62 254.298 357.031C254.526 356.003 254.549 355.249 255.097 354.061C253.521 356.323 249.134 366.72 247.306 359.271C245.523 364.046 238.691 368.73 233.733 369.416C233.413 368.548 232.704 367.634 232.453 366.765C230.945 368.548 229.391 370.353 227.883 372.112L211.682 361.99C211.682 361.99 211.637 361.967 211.614 361.967L211.225 361.853C209.397 359.933 209.375 356.689 211.728 355.066C210.928 352.987 207.798 346.04 212.185 347.16C210.631 346.726 209.535 345.081 208.164 344.51C208.781 342.156 210.449 340.374 212.688 339.78C210.563 336.009 212.482 332.49 216.618 332.833C214.699 330.343 218.88 328.08 221.828 327.898C217.075 323.785 224.456 320.677 228.226 319.854C227.403 319.466 225.987 317.341 225.095 316.815C226.741 313.685 231.288 312.542 234.373 311.56C229.94 307.287 235.561 303.242 239.217 300.866C238.211 301.095 237.115 301.072 236.132 301.3C238.006 298.193 240.656 295.199 244.312 294.788C243.147 294.788 241.89 294.217 240.748 294.24C243.261 291.612 246.437 289.829 249.865 290.378C248.837 290.309 247.9 289.898 247.009 289.807C248.974 288.093 251.647 287.316 254.046 286.539" stroke="#1D1D1B" stroke-miterlimit="10"/>
<path d="M236.817 364.115C237.617 366.4 237.114 369.302 235.218 371.633C232.544 374.969 228.18 375.905 225.461 373.735C223.107 371.861 222.788 368.274 224.456 365.166" fill="#9F6134"/>
<path d="M236.817 364.115C237.617 366.4 237.114 369.302 235.218 371.633C232.544 374.969 228.18 375.905 225.461 373.735C223.107 371.861 222.788 368.274 224.456 365.166" stroke="#1D1D1B" stroke-miterlimit="10"/>
<path d="M216.07 358.494C213.373 361.304 209.42 361.99 206.907 359.979C204.188 357.808 204.165 353.33 206.838 349.993C208.506 347.914 210.837 346.772 213.008 346.726" fill="#9F6134"/>
<path d="M216.07 358.494C213.373 361.304 209.42 361.99 206.907 359.979C204.188 357.808 204.165 353.33 206.838 349.993C208.506 347.914 210.837 346.772 213.008 346.726" stroke="#1D1D1B" stroke-miterlimit="10"/>
<path d="M225.644 364.595C225.324 365.463 224.844 366.308 224.204 367.108C221.531 370.444 217.166 371.381 214.447 369.21C211.728 367.04 211.705 362.561 214.379 359.225C214.904 358.562 215.498 358.037 216.138 357.557" fill="#9F6134"/>
<path d="M225.644 364.595C225.324 365.463 224.844 366.308 224.204 367.108C221.531 370.444 217.166 371.381 214.447 369.21C211.728 367.04 211.705 362.561 214.379 359.225C214.904 358.562 215.498 358.037 216.138 357.557" stroke="#1D1D1B" stroke-miterlimit="10"/>
<path d="M168.272 175.341C172.278 171.833 172.689 165.748 169.188 161.751C165.688 157.754 159.603 157.359 155.596 160.867C151.59 164.376 151.18 170.46 154.68 174.457C158.18 178.454 164.266 178.85 168.272 175.341Z" fill="#231000"/>
<path d="M162.943 175.122C166.199 175.122 168.839 172.483 168.839 169.227C168.839 165.971 166.199 163.332 162.943 163.332C159.687 163.332 157.048 165.971 157.048 169.227C157.048 172.483 159.687 175.122 162.943 175.122Z" fill="black"/>
<path d="M156.522 166.805C158.415 166.805 159.95 165.27 159.95 163.377C159.95 161.484 158.415 159.95 156.522 159.95C154.63 159.95 153.095 161.484 153.095 163.377C153.095 165.27 154.63 166.805 156.522 166.805Z" fill="white"/>
<path d="M216.687 177.362C223.514 177.362 229.048 171.827 229.048 165C229.048 158.173 223.514 152.638 216.687 152.638C209.859 152.638 204.325 158.173 204.325 165C204.325 171.827 209.859 177.362 216.687 177.362Z" fill="white" stroke="#1D1D1B" stroke-miterlimit="10"/>
<path d="M222.964 172.38C226.464 168.383 226.054 162.298 222.047 158.79C218.041 155.281 211.955 155.677 208.455 159.674C204.955 163.671 205.365 169.755 209.372 173.264C213.378 176.772 219.463 176.376 222.964 172.38Z" fill="#231000"/>
<path d="M214.699 173.066C217.954 173.066 220.594 170.426 220.594 167.171C220.594 163.915 217.954 161.275 214.699 161.275C211.443 161.275 208.803 163.915 208.803 167.171C208.803 170.426 211.443 173.066 214.699 173.066Z" fill="black"/>
<path d="M211.363 164.52C213.256 164.52 214.79 162.985 214.79 161.093C214.79 159.2 213.256 157.665 211.363 157.665C209.47 157.665 207.935 159.2 207.935 161.093C207.935 162.985 209.47 164.52 211.363 164.52Z" fill="white"/>
<path d="M96.724 281.306C89.8233 274.406 89.2977 263.735 95.5358 257.497C98.3235 254.709 102.162 253.155 106.298 253.155C106.572 253.155 106.847 253.155 107.121 253.155C111.645 253.361 115.987 255.303 119.323 258.662L222.056 361.396L199.435 383.994L96.7011 281.261L96.724 281.306Z" fill="#F4B516"/>
<path d="M106.321 254.321C106.572 254.321 106.847 254.321 107.098 254.321C111.325 254.503 115.393 256.354 118.546 259.485L220.48 361.418L199.481 382.418L97.5466 280.484C94.4162 277.353 92.5653 273.286 92.3825 269.036C92.1769 264.877 93.5936 261.061 96.3584 258.296C98.9405 255.714 102.482 254.298 106.321 254.298M106.321 252.013C102.025 252.013 97.8665 253.566 94.7361 256.674C88.0639 263.346 88.6123 274.771 95.9243 282.083L199.458 385.617L223.679 361.396L120.145 257.862C116.489 254.206 111.805 252.241 107.189 252.036C106.892 252.036 106.595 252.036 106.298 252.036L106.321 252.013Z" fill="black"/>
<path d="M248.631 455.058C233.527 455.058 218.743 449.665 210.083 441.005C209.283 440.205 208.575 439.428 207.958 438.651L207.866 438.537L207.752 438.446C207.158 438.012 206.61 437.509 206.038 436.938L188.672 419.595C185.199 416.121 183.28 411.483 183.28 406.524C183.28 401.566 185.199 396.927 188.672 393.454L231.47 350.656C234.944 347.183 239.582 345.264 244.541 345.264C249.499 345.264 254.138 347.183 257.611 350.656L274.954 367.999C275.525 368.571 276.028 369.142 276.462 369.713L276.553 369.827L276.668 369.919C277.445 370.558 278.222 371.244 279.021 372.044C295.588 388.61 300.18 424.484 281.923 442.742C273.971 450.693 262.158 455.058 248.631 455.058Z" fill="#19A4F2"/>
<path d="M244.564 344.098V346.383C249.202 346.383 253.567 348.188 256.834 351.433L274.177 368.776C274.726 369.325 275.183 369.827 275.571 370.376L275.731 370.604L275.96 370.787C276.714 371.404 277.445 372.067 278.222 372.843C294.422 389.044 298.947 424.096 281.124 441.919C273.4 449.642 261.861 453.915 248.631 453.915C234.053 453.915 219.223 448.523 210.883 440.182C210.106 439.406 209.443 438.674 208.826 437.92L208.643 437.692L208.415 437.532C207.889 437.12 207.364 436.663 206.815 436.138L189.472 418.795C182.709 412.031 182.709 401.017 189.472 394.254L232.27 351.456C235.538 348.188 239.879 346.406 244.541 346.406V344.121M244.541 344.121C239.514 344.121 234.487 346.04 230.648 349.856L187.85 392.654C180.218 400.286 180.218 412.785 187.85 420.417L205.193 437.76C205.787 438.354 206.381 438.88 207.044 439.36C207.729 440.205 208.461 441.005 209.26 441.805C218.149 450.693 233.413 456.2 248.631 456.2C261.29 456.2 273.88 452.384 282.746 443.541C302.237 424.05 296.136 387.513 279.844 371.244C279.067 370.467 278.245 369.713 277.399 369.028C276.919 368.388 276.371 367.771 275.8 367.177L258.456 349.834C254.64 346.018 249.613 344.098 244.564 344.098L244.541 344.121Z" fill="black"/>
<path d="M222.536 360.276L246.254 383.994C253.566 391.306 254.115 402.754 247.443 409.403C240.77 416.053 229.345 415.527 222.033 408.215L198.315 384.497L222.536 360.276Z" fill="#3384A0"/>
<path d="M212.162 430.814C215.133 434.447 223.565 443.747 237.617 447.015C258.159 451.79 276.165 440.342 275.8 438.926C275.503 437.783 263.415 442.765 245.729 441.234C231.448 440 219.977 435.087 212.185 430.814H212.162Z" fill="#3384A0"/>
<path d="M285.054 411.163C286.859 410.729 287.042 397.544 281.581 384.543C279.661 379.95 268.647 355.432 250.345 355.615C243.65 355.683 238.348 359.042 235.309 361.396C240.268 361.464 248.882 362.218 257.291 367.177C279.387 380.224 282.22 411.826 285.054 411.14V411.163Z" fill="#3384A0"/>
<path d="M206.381 381.07C206.541 380.955 212.071 389.364 223.724 398.413C230.922 403.988 235.378 405.885 239.925 405.359C243.787 404.902 246.734 402.8 246.871 403.051C247.054 403.394 241.821 408.124 236.452 408.832C221.485 410.797 206.061 381.298 206.381 381.07Z" fill="#B9E4EF"/>
<path d="M200.6 389.181C199.595 389.547 189.426 393.431 187.873 401.909C186.57 409.084 192.214 415.139 197.127 420.417C201.171 424.759 205.81 427.935 206.381 427.364C207.409 426.335 192.991 415.801 193.654 403.074C193.974 396.973 197.675 392.175 200.6 389.181Z" fill="#B9E4EF"/>
<path d="M228.363 361.396C228.911 360.07 231.767 353.49 238.782 350.976C246.894 348.074 255.097 352.598 254.983 353.284C254.892 353.741 251.053 352.667 245.729 353.284C238.074 354.198 232.224 358.082 228.386 361.373L228.363 361.396Z" fill="#B9E4EF"/>
<path d="M98.7807 275.799C95.376 270.475 94.8276 264.329 97.6153 260.764C102.277 254.8 113.702 259.119 114.958 259.599C119.346 261.313 121.608 263.78 127.686 270.018C132.644 275.091 137.946 279.821 142.721 285.054C162.555 306.716 172.175 315.718 171.649 316.29C171.055 316.929 158.076 306.761 145.029 294.308C126.064 276.188 119.506 265.197 110.32 266.545C106.527 267.094 102.574 269.721 98.7578 275.799H98.7807Z" fill="#AF8015"/>
<path d="M101.66 363.978C105.796 365.417 109.612 367.725 113.679 369.233C114.182 369.142 114.547 368.845 114.753 368.388C114.09 367.382 113.793 365.212 113.29 364.435C116.718 365.349 121.951 367.405 123.024 363.315C126.178 365.646 130.154 364.983 130.359 361.259C134.13 362.47 138.608 364.138 142.401 362.927C142.127 360.664 141.19 358.677 139.202 357.283C142.378 360.048 148.754 362.173 152.57 358.631C151.656 358.105 151.084 357.625 149.85 357.214C152.592 357.58 163.218 361.373 158.968 354.998C163.697 356.917 171.741 355.043 175.625 351.844C175.214 351.022 175.008 349.879 174.551 349.102C176.882 349.194 179.258 349.262 181.589 349.354L185.062 330.571C185.062 330.571 185.062 330.525 185.062 330.502L185.245 330.137C185.062 327.486 182.686 325.293 179.898 325.91C178.916 323.899 175.899 316.907 173.751 320.905C174.483 319.466 174.003 317.524 174.506 316.153C172.358 315.033 169.936 315.033 167.97 316.29C166.645 312.177 162.738 311.217 160.179 314.485C159.63 311.377 155.152 312.954 153.004 314.987C153.186 308.704 145.897 312.04 142.767 314.256C143.041 313.411 142.424 310.897 142.653 309.892C139.225 308.978 135.341 311.56 132.507 313.182C132.347 307.036 125.584 308.429 121.356 309.526C122.202 308.955 122.933 308.132 123.756 307.538C120.214 306.83 116.215 306.761 113.427 309.161C114.227 308.292 114.661 306.99 115.415 306.167C111.782 306.236 108.332 307.378 106.413 310.28C107.052 309.48 107.395 308.521 107.921 307.79C105.316 308.064 102.939 309.526 100.769 310.783" fill="#9F6134"/>
<path d="M101.66 363.978C105.796 365.417 109.612 367.725 113.679 369.233C114.182 369.142 114.547 368.845 114.753 368.388C114.09 367.382 113.793 365.212 113.29 364.435C116.718 365.349 121.951 367.405 123.024 363.315C126.178 365.646 130.154 364.983 130.359 361.259C134.13 362.47 138.608 364.138 142.401 362.927C142.127 360.664 141.19 358.677 139.202 357.283C142.378 360.048 148.754 362.173 152.57 358.631C151.656 358.105 151.084 357.625 149.85 357.214C152.592 357.58 163.218 361.373 158.968 354.998C163.697 356.917 171.741 355.043 175.625 351.844C175.214 351.022 175.008 349.879 174.551 349.102C176.882 349.194 179.258 349.262 181.589 349.354L185.062 330.571C185.062 330.571 185.062 330.525 185.062 330.502L185.245 330.137C185.062 327.486 182.686 325.293 179.898 325.91C178.916 323.899 175.899 316.907 173.751 320.905C174.483 319.466 174.003 317.524 174.506 316.153C172.358 315.033 169.936 315.033 167.97 316.29C166.645 312.177 162.738 311.217 160.179 314.485C159.63 311.377 155.152 312.954 153.004 314.987C153.186 308.704 145.897 312.04 142.767 314.256C143.041 313.411 142.424 310.897 142.653 309.892C139.225 308.978 135.341 311.56 132.507 313.182C132.347 307.036 125.584 308.429 121.356 309.526C122.202 308.955 122.933 308.132 123.756 307.538C120.214 306.83 116.215 306.761 113.427 309.161C114.227 308.292 114.661 306.99 115.415 306.167C111.782 306.236 108.332 307.378 106.413 310.28C107.052 309.48 107.395 308.521 107.921 307.79C105.316 308.064 102.939 309.526 100.769 310.783" stroke="#1D1D1B" stroke-miterlimit="10"/>
<path d="M169.57 350.542C170.712 352.667 173.203 354.244 176.196 354.449C180.469 354.723 184.102 352.141 184.331 348.668C184.537 345.675 182.114 343.001 178.687 342.133" fill="#9F6134"/>
<path d="M169.57 350.542C170.712 352.667 173.203 354.244 176.196 354.449C180.469 354.723 184.102 352.141 184.331 348.668C184.537 345.675 182.114 343.001 178.687 342.133" stroke="#1D1D1B" stroke-miterlimit="10"/>
<path d="M179.441 331.439C183.326 331.348 186.502 328.903 186.73 325.681C186.959 322.208 183.691 319.169 179.418 318.895C176.745 318.712 174.323 319.672 172.837 321.248" fill="#9F6134"/>
<path d="M179.441 331.439C183.326 331.348 186.502 328.903 186.73 325.681C186.959 322.208 183.691 319.169 179.418 318.895C176.745 318.712 174.323 319.672 172.837 321.248" stroke="#1D1D1B" stroke-miterlimit="10"/>
<path d="M177.476 342.613C178.344 342.956 179.281 343.184 180.287 343.253C184.56 343.527 188.193 340.945 188.421 337.472C188.65 333.999 185.382 330.959 181.109 330.685C180.264 330.64 179.464 330.708 178.687 330.868" fill="#9F6134"/>
<path d="M177.476 342.613C178.344 342.956 179.281 343.184 180.287 343.253C184.56 343.527 188.193 340.945 188.421 337.472C188.65 333.999 185.382 330.959 181.109 330.685C180.264 330.64 179.464 330.708 178.687 330.868" stroke="#1D1D1B" stroke-miterlimit="10"/>
</g>
<defs>
<linearGradient id="paint0_linear_55_504" x1="125.683" y1="111.478" x2="110.489" y2="71.6433" gradientUnits="userSpaceOnUse">
<stop offset="0.04" stop-color="white"/>
<stop offset="0.05" stop-color="#FDF5F5"/>
<stop offset="0.12" stop-color="#F9D7D8"/>
<stop offset="0.2" stop-color="#F6BFC0"/>
<stop offset="0.29" stop-color="#F4ACAE"/>
<stop offset="0.39" stop-color="#F29FA1"/>
<stop offset="0.52" stop-color="#F1989A"/>
<stop offset="0.78" stop-color="#F19698"/>
</linearGradient>
<linearGradient id="paint1_linear_55_504" x1="259.582" y1="113.938" x2="274.775" y2="74.1036" gradientUnits="userSpaceOnUse">
<stop offset="0.04" stop-color="white"/>
<stop offset="0.05" stop-color="#FDF5F5"/>
<stop offset="0.12" stop-color="#F9D7D8"/>
<stop offset="0.2" stop-color="#F6BFC0"/>
<stop offset="0.29" stop-color="#F4ACAE"/>
<stop offset="0.39" stop-color="#F29FA1"/>
<stop offset="0.52" stop-color="#F1989A"/>
<stop offset="0.78" stop-color="#F19698"/>
</linearGradient>
<radialGradient id="paint2_radial_55_504" cx="0" cy="0" r="1" gradientUnits="userSpaceOnUse" gradientTransform="translate(195.207 215.818) scale(49.1275 49.1275)">
<stop stop-color="#663A1C"/>
<stop offset="0.7"/>
</radialGradient>
<clipPath id="clip0_55_504">
<rect width="457" height="457" fill="white"/>
</clipPath>
</defs>
</svg>
