<svg width="539.000000" height="214.000000" viewBox="0 0 539 214" fill="none" xmlns="http://www.w3.org/2000/svg" xmlns:xlink="http://www.w3.org/1999/xlink">
	<desc>
			Created with Pixso.
	</desc>
	<defs>
		<clipPath id="clip2_1220">
			<rect id="cloud1" width="766.000000" height="522.000000" transform="translate(-95.000000 -149.000000)" fill="white" fill-opacity="0"/>
		</clipPath>
	</defs>
	<g clip-path="url(#clip2_1220)">
		<path id="path" d="M259.3 213.62C244.38 213.62 229.63 212.1 215.46 209.12C179.7 201.58 155.09 186.31 140.74 174.82L140.37 174.52L139.85 174.69C125.4 179.15 109.67 181.51 94.37 181.51C72.69 181.51 52.65 177.01 36.46 168.49C0.78 149.73 0.39 119.33 0.68 113.43C1.68 92.89 17.58 71.95 44.32 55.98C70.31 40.45 102.75 31.54 133.28 31.54C151.63 31.54 169.34 33.81 185.93 38.27L186.53 38.43L186.87 38.06C207.44 14.75 243.29 0.83 282.79 0.83C331.17 0.83 373.99 22.13 389.31 53.81L389.54 54.28L390.24 54.16C401.12 52.13 412.55 51.1 424.22 51.1C453.9 51.1 481.72 57.88 502.55 70.21C522.99 82.31 535.09 98.65 536.61 116.24C536.65 116.77 536.76 117.47 536.88 118.33C537.97 125.87 540.88 145.87 522.24 163C505.23 178.63 475.74 187.6 441.32 187.6C422.75 187.6 404 185.01 385.58 179.91L385.14 179.78L384.79 180C379.06 183.45 326.89 213.62 259.3 213.62Z" fill="#9AABDB" fill-opacity="1.000000" fill-rule="nonzero"/>
		<path id="path" d="M282.77 1.33C330.83 1.33 373.34 22.48 388.57 53.96L389.03 54.9L390.44 54.64C401.24 52.62 412.61 51.6 424.22 51.6C453.71 51.6 481.35 58.34 502.05 70.59C522.33 82.6 534.33 98.81 535.84 116.26C535.89 116.79 536 117.49 536.12 118.36C537.21 125.84 540.09 145.71 521.63 162.68C504.77 178.17 475.5 187.07 441.32 187.07C422.86 187.07 404.2 184.49 385.88 179.42L385 179.18L384.3 179.6C381.69 181.17 367.57 189.4 345.41 197.39C316.57 207.81 287.61 213.1 259.35 213.1C244.49 213.1 229.81 211.59 215.72 208.62C180.14 201.11 155.65 185.91 141.37 174.49L140.62 173.89L139.56 174.22C125.21 178.64 109.59 180.99 94.4 180.99C72.89 180.99 53.02 176.53 36.96 168.08C1.57 149.46 1.2 119.3 1.48 113.45C2.48 93.05 18.29 72.25 44.85 56.38C70.71 40.93 102.96 32.07 133.31 32.07C151.56 32.07 169.19 34.31 185.69 38.75L186.9 39.07L187.57 38.31C197.35 27.23 211.14 17.96 227.42 11.5C244.21 4.85 263.3 1.33 282.77 1.33ZM282.83 0.29C241.94 0.29 206.09 15.29 186.26 37.77C170.05 33.41 152.15 31.01 133.32 31.01C70.41 31.01 2.12 69.08 -0.02 113.4C-0.24 117.9 -1 149.41 36.06 168.89C52.6 177.59 73.12 182.03 94.44 182.03C109.69 182.03 125.34 179.76 140.23 175.16C152.41 184.91 177 201.53 215.3 209.61C230.45 212.8 245.24 214.14 259.39 214.14C327.55 214.14 380.68 183.19 385.35 180.38C404.34 185.64 423.42 188.11 441.38 188.11C475.63 188.11 505.72 179.11 522.91 163.31C543.84 144.07 537.88 121.31 537.44 116.2C534.31 80.02 486.76 50.57 424.28 50.57C412.36 50.57 400.89 51.63 390.09 53.64C375.09 22.63 332.73 0.29 282.83 0.29Z" fill="#2A365B" fill-opacity="1.000000" fill-rule="nonzero"/>
		<path id="path" d="M149.43 44.97C140.88 43.31 105.14 37.07 72.64 50.56C35.11 66.13 17.11 101.71 32.23 137.14C33.79 127.78 40.9 95.53 80.72 70.1C106.73 53.49 134.86 47.37 149.43 44.97Z" fill="#DDE0E9" fill-opacity="1.000000" fill-rule="nonzero"/>
		<path id="path" d="M197.91 75.7C197.5 71.4 195.69 46.45 222.17 28.21C256.36 4.64 310.27 11.22 311.07 14.25C311.7 16.64 279.4 17.24 246.42 33.8C221.32 46.39 206.68 62.75 197.91 75.7Z" fill="#DDE0E9" fill-opacity="1.000000" fill-rule="nonzero"/>
		<path id="path" d="M355.51 86.87C360.4 82.41 369.47 75.32 383.79 70.11C414.74 58.86 453.65 62.42 480.78 75.7C498.65 84.44 508.16 95.83 513.11 103.62C502.26 97.89 487.48 91.5 468.66 86.87C418.57 74.51 373.47 82.79 355.51 86.87Z" fill="#DDE0E9" fill-opacity="1.000000" fill-rule="nonzero"/>
		<g opacity="0.530000">
			<path id="path" d="M514.95 160.37C489.64 173.53 435.39 178.05 382.05 169.7C376.59 171.55 302.89 195.8 217.75 185.65C180.76 181.24 157.01 172.16 145.23 166.85C110.71 172.86 72 171.58 44.58 163.42C20.62 156.3 13.02 146.24 10.69 139.62C31.28 146.43 56.97 149.98 82.51 149.12C120.07 147.85 143.51 137.49 149.12 134.87C158.89 140.7 176.65 149.06 205.36 153.67C258.09 162.16 326.04 154.55 375.58 134.3C385.37 137.36 415.23 145.89 451.06 143.98C479.1 142.49 505.23 134.9 522.39 123.46C526.11 126.98 528.4 130.75 528.99 134.65C529.42 137.44 535.17 149.87 514.95 160.37Z" fill="#8B97B2" fill-opacity="1.000000" fill-rule="nonzero"/>
		</g>
	</g>
</svg>
