<svg width="581.000000" height="314.000000" viewBox="0 0 581 314" fill="none" xmlns="http://www.w3.org/2000/svg" xmlns:xlink="http://www.w3.org/1999/xlink">
	<desc>
			Created with Pixso.
	</desc>
	<defs>
		<clipPath id="clip2_1210">
			<rect id="cloud2" width="581.000000" height="500.000000" transform="translate(0.000000 -100.000000)" fill="white" fill-opacity="0"/>
		</clipPath>
	</defs>
	<g clip-path="url(#clip2_1210)">
		<path id="path" d="M301.43 313.5C230.05 313.5 174.97 269.13 168.93 264.07L168.65 263.82L168.29 263.97C148.82 271.47 129.02 275.28 109.42 275.28C73.04 275.28 41.86 262.07 23.87 239.07C4.13 213.82 7.21 184.36 8.36 173.27C8.49 172.01 8.61 170.98 8.65 170.22C10.26 144.32 23.06 120.25 44.69 102.44C66.71 84.31 96.1 74.32 127.46 74.32C139.8 74.32 151.87 75.83 163.36 78.81L163.92 78.96L164.08 78.48C180.29 31.84 225.54 0.51 276.68 0.51C318.42 0.51 356.32 20.99 378.08 55.28L378.33 55.68L378.82 55.5C396.34 48.94 415.06 45.62 434.44 45.62C466.7 45.62 500.96 58.72 528.44 81.56C556.7 105.06 573.51 135.87 574.57 166.11C574.87 174.8 574.48 219.56 536.71 247.19C519.58 259.72 498.41 266.35 475.5 266.35C459.32 266.35 442.71 262.88 427.44 256.32L427.01 256.14L426.72 256.47C411.55 273.35 385.56 295.79 347.78 306.89C332.82 311.28 317.2 313.5 301.43 313.5Z" fill="#9AABDB" fill-opacity="1.000000" fill-rule="nonzero"/>
		<path id="path" d="M276.68 1C297.28 1 317.57 6.18 335.34 15.98C352.6 25.5 367.2 39.16 377.56 55.51L378.08 56.31L379.05 55.95C396.5 49.42 415.14 46.11 434.44 46.11C466.55 46.11 500.67 59.16 528.03 81.91C541.45 93.07 552.68 106.3 560.5 120.16C568.91 135.08 573.44 150.53 573.99 166.11C574.15 170.85 574.07 183.47 569.74 198.33C563.82 218.6 552.58 234.9 536.33 246.8C519.31 259.26 498.26 265.84 475.49 265.84C459.4 265.84 442.88 262.39 427.68 255.86L426.82 255.49L426.24 256.14C411.13 272.97 385.22 295.34 347.57 306.39C332.66 310.76 317.14 312.99 301.43 312.99C271.54 312.99 240.92 305.22 210.45 289.89C187.03 278.12 172.09 266.01 169.33 263.7L168.76 263.23L168.04 263.51C148.66 270.99 128.93 274.78 109.4 274.78C73.21 274.78 42.21 261.66 24.34 238.8C4.71 213.7 7.77 184.36 8.93 173.32C9.06 172.04 9.17 171.03 9.22 170.25C10.83 144.48 23.55 120.53 45.07 102.81C66.98 84.76 96.24 74.83 127.44 74.83C139.73 74.83 151.75 76.33 163.17 79.3L164.29 79.58L164.63 78.62C180.76 32.21 225.78 1 276.68 1ZM276.68 0.01C224.02 0.01 179.34 32.82 163.52 78.33C152.14 75.39 140.03 73.83 127.46 73.83C61.53 73.83 11.37 117.07 8.07 170.2C7.61 177.7 1.31 211.11 23.4 239.36C41.54 262.57 73.28 275.79 109.42 275.79C128.36 275.79 148.51 272.16 168.53 264.44C173.46 268.57 229.53 314.01 301.44 314.01C316.37 314.01 331.98 312.04 347.97 307.35C388.38 295.5 414.32 271.09 427.17 256.76C442.89 263.51 459.4 266.85 475.5 266.85C497.99 266.85 519.64 260.34 537.09 247.57C576.18 218.96 575.38 172.71 575.16 166.09C572.88 101 500.85 45.11 434.46 45.11C414.59 45.11 395.7 48.64 378.6 55.03C357.66 22.02 319.84 0.01 276.68 0.01Z" fill="#2A365B" fill-opacity="1.000000" fill-rule="nonzero"/>
		<path id="path" d="M417.37 65.61C426.39 63.17 464.1 54.02 498.39 73.81C537.99 96.68 556.98 148.92 541.02 200.95C539.37 187.21 531.88 139.86 489.86 102.53C462.41 78.14 432.75 69.14 417.37 65.61Z" fill="#DDE0E9" fill-opacity="1.000000" fill-rule="nonzero"/>
		<path id="path" d="M366.21 110.73C366.64 104.43 368.56 67.8 340.62 41.01C304.54 6.4 247.66 16.06 246.82 20.5C246.15 24 280.22 24.9 315.04 49.21C341.51 67.69 356.96 91.71 366.21 110.73Z" fill="#DDE0E9" fill-opacity="1.000000" fill-rule="nonzero"/>
		<path id="path" d="M199.93 127.13C194.77 120.58 185.19 110.17 170.08 102.52C137.42 86 96.36 91.22 67.75 110.72C48.9 123.56 38.85 140.28 33.65 151.73C45.09 143.31 60.69 133.94 80.54 127.12C133.4 108.98 181 121.15 199.93 127.13Z" fill="#DDE0E9" fill-opacity="1.000000" fill-rule="nonzero"/>
		<g opacity="0.530000">
			<path id="path" d="M31.72 235.07C58.42 254.38 115.66 261.01 171.95 248.76C177.7 251.48 255.47 287.07 345.3 272.19C384.34 265.71 409.39 252.39 421.82 244.58C458.24 253.42 499.1 251.52 528.02 239.56C553.31 229.1 561.31 214.32 563.79 204.62C542.06 214.62 514.95 219.83 488.01 218.57C448.38 216.7 423.64 201.5 417.73 197.65C407.43 206.2 388.68 218.48 358.39 225.26C302.74 237.73 231.06 226.55 178.79 196.81C168.47 201.31 136.95 213.84 99.15 211.03C69.56 208.84 41.99 197.7 23.89 180.89C19.95 186.06 17.54 191.58 16.93 197.32C16.47 201.42 10.38 219.66 31.72 235.07Z" fill="#8B97B2" fill-opacity="1.000000" fill-rule="nonzero"/>
		</g>
	</g>
</svg>
