<svg width="110.000122" height="144.000000" viewBox="0 0 110 144" fill="none" xmlns="http://www.w3.org/2000/svg" xmlns:xlink="http://www.w3.org/1999/xlink">
	<desc>
			Created with Pixso.
	</desc>
	<defs>
		<clipPath id="clip2_1425">
			<rect id="drop-02" width="110.000099" height="144.000000" fill="white" fill-opacity="0"/>
		</clipPath>
	</defs>
	<g clip-path="url(#clip2_1425)">
		<path id="path" d="M56.4 0.6C46.5 7.9 32.1 20.29 20.2 39.7C8.5 58.6 -4.9 80.19 2.7 104.2C8.6 122.7 26.5 141.3 51.2 143.3C75.3 145.2 96.4 130.2 104.8 112.7C118.3 84.9 98.8 53.7 87.4 35.5C77 18.79 65 7.5 56.4 0.6Z" fill="#73CEFD" fill-opacity="1.000000" fill-rule="nonzero"/>
		<path id="path" d="M20.2 39.7C8.5 58.6 -4.9 80.19 2.7 104.2C8.6 122.7 26.5 141.3 51.2 143.3C75.3 145.2 96.4 130.2 104.8 112.7C118.3 84.9 98.8 53.7 87.4 35.5C77 18.79 65 7.5 56.4 0.6C46.5 7.9 32.1 20.29 20.2 39.7Z" stroke="#1A6AC1" stroke-opacity="1.000000" stroke-width="1.000000"/>
		<path id="path" d="M50.5 26.3C52.2 22.4 52.9 21 52.4 20.7C50.2 18.9 27.2 38.8 14.8 66.8C12.8 71.19 4.4 90.1 10.6 96.4C10.9 96.7 13.1 98.9 15.8 98.8C19.2 98.6 21.5 94.7 22.9 92.2C29.1 80.6 32.2 71 32.2 71C35.5 60.2 40.5 48.9 50.5 26.3Z" fill="#BDE7FE" fill-opacity="1.000000" fill-rule="nonzero"/>
		<path id="path" d="M83.9 97.3C84 99.3 84.1 103.5 87.2 105.8C89.8 107.7 93.4 107.3 95.7 106.3C102 103.5 102.6 94.4 102.8 92.7C103.2 86.8 101.3 78 97.2 77.19C91.9 76 83.6 87.2 83.9 97.3Z" fill="#99DAFB" fill-opacity="1.000000" fill-rule="nonzero"/>
		<path id="path" d="M3 87.5C3.79 90.1 12.29 116.6 38.79 125.1C60.39 132.1 78.89 122.1 83 119.9C98.2 111.7 105.7 99.2 108.4 94C108.2 95.6 104.4 126.1 77.79 138.2C53.79 149.2 25.29 138.8 11.9 119.4C3.29 107 2.79 93.6 3 87.5Z" fill="#66B8E3" fill-opacity="1.000000" fill-rule="nonzero"/>
	</g>
</svg>
