<svg width="1440.000000" height="1035.000000" viewBox="0 0 1440 1035" fill="none" xmlns="http://www.w3.org/2000/svg" xmlns:xlink="http://www.w3.org/1999/xlink">
	<desc>
			Created with Pixso.
	</desc>
	<defs>
		<clipPath id="clip2_1111">
			<rect id="gaden" width="1440.000000" height="1035.000000" fill="white" fill-opacity="0"/>
		</clipPath>
		<linearGradient x1="718.790344" y1="-414.338440" x2="733.170166" y2="1008.291626" id="paint_linear_2_1114_0" gradientUnits="userSpaceOnUse">
			<stop stop-color="#032AB9"/>
			<stop stop-color="#022AB9"/>
			<stop offset="0.260000" stop-color="#006BE6"/>
			<stop offset="0.380000" stop-color="#0085F8"/>
			<stop offset="0.630000" stop-color="#53B5FE"/>
			<stop offset="0.860000" stop-color="#7DC4FE"/>
			<stop offset="0.970000" stop-color="#95C9FE"/>
		</linearGradient>
	</defs>
	<g clip-path="url(#clip2_1111)">
		<g opacity="0.500000">
			<rect id="rect" x="-24.000000" y="-527.647095" width="1499.126465" height="1568.166626" fill="url(#paint_linear_2_1114_0)" fill-opacity="1.000000"/>
			<path id="path" d="M385.04 375.19C386.51 366.62 383.83 356.35 379.25 353.06C380.43 346.36 385.39 346.08 389.22 346.48C393.05 346.87 398.15 344.21 397.97 337.23C397.89 333.71 396.27 330.87 394.55 329.34C386.02 321.68 374.13 335.75 367.01 324.29C364.22 319.81 363.13 312.43 360.27 308.06C354.49 299.16 345.96 306.99 338.56 309.94C330.67 313.06 322.37 309.94 314.42 312.43C306.48 314.93 298.15 327.07 299.59 341.71C307.2 332.58 317.53 339.44 324.65 349.77C327.73 354.25 330.61 359.41 334.21 362.31C337.81 365.2 342.48 365.14 345.18 359.98C346.68 357.14 347.54 352.95 349.5 351.41C352.79 348.92 355.78 355.44 358.2 360.21C364.42 372.46 374.9 376.61 383.31 370.14L385.04 375.19Z" fill="#A4CEFD" fill-opacity="1.000000" fill-rule="nonzero"/>
			<path id="path" d="M363.99 412.35C362.29 401.8 357.28 393.23 351.4 390.9C345.53 388.58 339.05 392.55 335.13 400.95C329.83 412.24 329.66 428.81 330.75 443.56C331.13 448.49 331.7 453.71 333.66 457.18C337.95 464.72 344.84 458.59 350.42 454.85C368.14 442.82 387.32 459.62 405.89 465.86C416.41 469.37 429.02 468.01 435.3 452.13C436.88 448.1 438.09 443.22 440.45 440.83C443.13 438.17 446.41 439.64 449.44 438.96C452.46 438.28 455.72 432.66 454.19 427.9C436.25 428.35 418.31 428.81 400.36 429.26C397.86 429.32 395.04 429.15 393.37 425.69C391.46 421.77 392.1 415.64 391.32 410.59C389.85 400.78 383.11 396.41 377.76 398.85C372.4 401.29 368.11 408.55 364.08 415.53L363.99 412.35Z" fill="#A4CEFD" fill-opacity="1.000000" fill-rule="nonzero"/>
			<path id="path" d="M295.56 402.93C292.19 396.98 278.22 375.24 280.27 366.39C283.67 351.75 299.25 374.11 303.42 361.57C300.37 355.33 295.01 354.59 291.61 348.75C286.6 340.07 288.59 340.46 290.58 329.23C291.76 322.59 292.16 316.41 293.69 310.67C295.33 304.66 298.32 304.77 296.97 297.17C295.56 289.17 280.67 272.77 276.93 271.58C271.83 269.99 268.29 277.48 263.71 277.88C260.11 278.22 257.69 274.36 254.12 273.91C265.98 265.4 252.99 256.32 245.51 262.1C237.1 268.57 235.97 280.26 231.8 292.57C227.62 304.89 220.94 310.33 213.22 310.9C211.41 311.01 210.34 314.7 208.56 312.77C206.97 311.01 208.35 305.51 207.49 304.15C204.32 299.38 202.19 299.84 197.67 302.9C195.39 294.56 188.89 291.95 184.16 291.27C179.96 290.65 171.72 296.43 174.49 282.82C169.91 281.45 166.54 290.93 163.74 296.89C159.6 305.68 160.14 304.83 153.49 304.77C148.82 304.77 144.53 306.25 139.87 302.22C133.7 296.94 131.83 289.23 124.06 289.57C114.41 289.96 116.05 295.75 110.17 306.08C106.23 313 99.86 319.87 95.11 325.09C91.14 329.46 87.36 330.19 83.45 334.22C77.28 340.63 77.34 350.39 69.39 344.6C62.74 339.78 60.72 334.51 52.75 339.1C48.66 341.48 38.38 350.39 40.45 360.61C41.89 367.7 54.56 372.63 58.16 376.49C64.87 383.75 71.27 391.47 78.9 395.27C83.71 397.66 95.89 398.45 91.45 412.64C88.08 423.42 78.64 420.69 75.41 433.8C74.23 438.68 74.49 444.35 73.48 449.23C72.73 452.81 69.62 455.59 70 460.07C71.21 474.37 87.62 464.38 91.45 459.5C96.09 453.54 97.21 443.33 101.28 436.47C103.58 432.55 106.98 431.08 109.14 426.71C114.78 415.25 111.13 407.64 119.79 402.25C130.8 395.39 133.93 410.03 144.5 412.64C148.51 413.66 152.74 412.35 156.77 412.75C160 413.03 169.33 416.38 161.5 422.51L295.56 402.93Z" fill="#A4CEFD" fill-opacity="1.000000" fill-rule="nonzero"/>
			<path id="path" d="M164.81 416.38C165.82 416.15 166.68 416.15 167.57 416.72C167.83 421.54 166.42 426.08 165.13 430.22C172.5 443.62 188.17 415.42 186.09 400.66C183.7 383.64 162.42 381.54 154.41 379.1C154.01 355.67 173.19 365.6 179.53 369.74C190.58 377 193.09 371.56 203 363.78C211.78 356.86 221.66 358.9 230.88 353.74C238.02 349.77 251.99 335.75 245.53 360.38C240.44 379.9 234.39 379.84 245.85 394.08C250.66 400.04 252.16 410.65 256.33 416.49C260.77 422.73 265.38 421.26 270.91 421.26C277.88 421.26 292.48 429.94 298.18 421.26C303.51 413.2 300.89 403.84 295.53 397.88L164.81 416.38Z" fill="#A4CEFD" fill-opacity="1.000000" fill-rule="nonzero"/>
			<path id="path" d="M140.79 487.59C134.86 468.69 119.22 477.2 114.06 460.64C106.29 435.5 141.19 440.83 147.44 442.31C153.69 443.79 160.32 445.09 166.8 447.13C176.04 450.08 180.33 441.52 189 440.89C199.28 440.15 203.23 461.32 211.55 466.54C217.77 470.51 225 468.75 231.48 472.95C237.96 477.15 244.24 481.91 250.23 489.29C258.58 499.62 264.54 515.39 272.72 525.6C282.69 538.09 287.24 523.73 296.51 519.14C301.78 516.53 308.12 522.2 313.56 522.03C319.81 521.8 321.13 519.65 326.23 523.22C333.46 528.33 343.05 534.63 349.62 542.51C357.51 551.93 354.66 569.86 362.23 577.24C369.81 584.61 382.68 574.4 390.89 574.17C398.23 573.95 413.04 579 417.64 591.82C422.25 604.64 411.97 604.41 406.99 605.44C399.93 606.85 392.04 609.07 385.01 609.18C377.15 609.29 369.86 601.12 362.09 599.59C356.9 598.57 352.04 601.12 346.97 602.66C338.16 605.32 328.74 605.61 320.07 609.01C310.88 612.59 307.57 617.07 298.3 614.29C293.05 612.7 288.07 612.87 282.77 612.76C272.98 612.59 269.99 606.68 261.52 601.58C255.7 598.06 249.57 603.22 243.81 600.95C238.82 599.02 236.69 592.67 232.2 589.66C226.3 585.8 220.36 592.73 214.23 590.8C200.17 586.37 194.07 554.99 182.06 543.76C179.84 541.66 175.87 538.99 173.39 538.82C171.14 538.65 167.86 542 166.33 541.72C161.41 540.75 160.09 532.87 157.35 524.75C154.41 516.01 150.7 510.91 147.33 503.25C144.3 496.38 144.65 491.11 138.83 488.84L140.79 487.59Z" fill="#A4CEFD" fill-opacity="1.000000" fill-rule="nonzero"/>
			<path id="path" d="M384.26 659.34C377.87 666.2 373.38 669.04 366.18 662.74C363.87 660.76 362.43 655.93 360.01 655.93C355.67 655.93 351.49 666.49 346.51 666.77C328.74 667.79 347.17 617.92 358.89 623.2C363.24 625.12 364.65 632.67 370.33 633.35C374.24 633.81 377.32 631.71 381.07 631.08C388.09 629.95 396.56 644.42 389.59 653.21L384.26 659.34Z" fill="#A4CEFD" fill-opacity="1.000000" fill-rule="nonzero"/>
			<path id="path" d="M410.96 659.34C401.11 662.91 388.9 636.08 402.26 625.01C405.14 622.63 408.69 623.99 411.71 622.51C414.33 621.27 416.64 616.9 419 615.71C422.57 613.95 423.4 617.69 426.25 618.03C430.23 618.49 434.58 615.59 438.38 612.64C444.54 607.93 448.66 604.7 455.63 605.49C464.88 606.46 466.23 609.46 471.27 619.39C476.31 629.32 476.86 626.32 485.06 626.09C488.46 626.03 498.57 625.01 497.62 634.77C497.42 636.7 483.16 658.2 482.59 658.77C474.44 666.83 459.66 660.25 450.71 661.95C441.75 663.65 433.4 664.39 424.04 661.27C417.85 659.23 415.25 657.47 410.3 665.41L410.96 659.34Z" fill="#A4CEFD" fill-opacity="1.000000" fill-rule="nonzero"/>
			<path id="path" d="M392.96 817.64C394.63 804.36 390.08 786.44 385.62 775.88C390.14 770.78 393.65 779.8 397.63 783.09C403.3 787.8 407.05 786.32 413.01 784.79C424.47 781.84 435.99 785.07 447.39 783.03C452.32 782.12 486.22 766.29 476.83 750.07C472.33 742.29 456.7 750.69 450.94 751.37C442.56 752.39 440.48 741.84 432.36 739.23C417.61 734.41 404.8 744.22 390.89 729.36C387.09 725.33 384.78 719.26 380.92 715.74C379.17 714.15 376.92 715.17 375.11 713.58C371.19 710.12 369.09 702.91 364.94 699.79C356.85 693.67 321.22 700.36 325.66 729.47C327.21 739.63 332.97 736.16 336.28 742.24C342.25 753.19 332.89 764.08 330.15 775.88C321.39 813.33 341.78 814.69 356.13 820.54C363.47 823.49 388.64 837.39 391.61 819L392.96 817.64Z" fill="#A4CEFD" fill-opacity="1.000000" fill-rule="nonzero"/>
			<path id="path" d="M9.37 806.63C7.5 800.85 4.16 794.89 0.96 791.26C3.36 794.78 5.69 805.78 8.68 806.52C10.07 806.86 12.34 801.3 13.95 800.45C20.38 796.88 30.57 798.24 36.42 804.48C41.4 809.76 45.46 818.66 50.56 823.88C55.66 829.1 62.16 831.03 67.98 833.42C81.66 839.03 102.74 841.42 116.17 832.62C125.73 826.32 129.04 806.92 137.59 798.01C146.64 788.59 154.99 782.97 165.41 783.37C175.84 783.77 183.56 787.85 192.97 795.74C201.36 802.78 208.81 810.55 217.69 814.07C222.18 815.83 234.79 819.51 237.41 826.61C244.53 845.78 226.41 845.05 221.34 845.96C209.3 848.11 200.15 863.2 188.28 866.72C181.71 868.65 175.32 866.72 168.9 870.58C161.58 875.01 156.74 882.61 148.71 882.72C122.41 882.95 96.35 872.28 70.23 870.58C60.35 869.9 47.71 871.94 39.47 862.13C32.7 854.07 28.64 848.05 20.2 847.83C14.01 847.66 8.02 848.74 1.83 847.32C-7.99 845.1 -16.23 831.37 -11.85 810.1C-10.38 802.95 -4.16 791.49 0.04 790.86L9.37 806.63Z" fill="#A4CEFD" fill-opacity="1.000000" fill-rule="nonzero"/>
			<path id="path" d="M36.73 755.06C40.39 755.23 40.19 761.41 43.21 763.57C45.26 764.99 48.74 763.8 50.93 763.57C55.57 763.12 61.62 758.8 66.4 759.88C73.92 761.58 98.37 778.44 99.43 751.14C94.31 744.68 86.18 751.03 80.19 747.4C75.27 744.39 72.33 734.58 67.35 733.61C57.12 731.62 46.3 750.75 36.71 756.25L36.73 755.06Z" fill="#A4CEFD" fill-opacity="1.000000" fill-rule="nonzero"/>
			<path id="path" d="M48.74 696.16C56.35 695.6 63.09 696.33 70.6 695.48C78.12 694.63 83.28 701.95 89.93 703.37C95.34 704.56 127.05 703.03 113.08 682.6C107.29 674.09 99.52 667.96 92.61 673.35C82.67 681.07 80.8 686.06 70.57 680.11C65.13 676.98 57.36 673.98 52.03 678.86C47.19 683.34 43.42 694.86 48.74 702.23L48.74 696.16Z" fill="#A4CEFD" fill-opacity="1.000000" fill-rule="nonzero"/>
			<path id="path" d="M0.71 632.39C-0.48 630.34 -0.97 627.68 -2.92 626.43C10.15 627.51 23.72 622.46 36.73 625.24C52.57 628.59 71.87 628.87 87.97 622.34C79.93 601.07 60.03 617.07 49.09 613.49C38.84 610.15 40.05 589.89 32.07 581.55C25.68 574.85 4.97 575.02 -2.69 577.46C-18.13 582.4 -7.82 610.37 -0.68 622.63L0.71 632.39Z" fill="#A4CEFD" fill-opacity="1.000000" fill-rule="nonzero"/>
			<path id="path" d="M254.2 860.59C262.76 835.86 285.82 836.37 299.91 838.52C319.75 841.53 336.86 826.83 355.09 847.43C362.29 855.54 369.35 861.96 377.12 867.69C381.21 870.69 393.19 876.14 393.22 885.39C393.22 904.74 371.16 889.93 366.98 888.23C351.95 882.16 336.92 880.45 321.91 874.72C313.7 871.6 305.47 870.81 297.6 865.53C292.51 862.13 288.01 857.7 282.51 857.02C274.16 856 266.01 861.05 257.57 860.59L254.2 860.59Z" fill="#A4CEFD" fill-opacity="1.000000" fill-rule="nonzero"/>
			<path id="path" d="M240.84 903.55C233.21 903.38 242.97 935.83 244.79 942.13C246.46 947.92 246.57 951.55 250.32 954.27C255.7 958.13 261.46 952.85 261.29 941.9C268.54 948.09 274.33 959.15 283.95 955.07C288.16 953.25 290.84 947.69 294.9 945.31C297.72 943.66 301.29 944.8 304.23 943.09C302.88 926.18 290.29 925.28 283.23 925.62C270.94 926.24 271.71 925.67 264.89 910.3C258.61 896.17 246.08 891.74 236.84 896.23L240.84 903.55Z" fill="#A4CEFD" fill-opacity="1.000000" fill-rule="nonzero"/>
			<path id="path" d="M10.7 962.44C17.21 958.53 24.15 960.17 30.8 957.9C37.45 955.63 43.44 949.9 50.3 948.37C60.29 946.1 64.96 951.94 73.4 959.49C81.84 967.04 89.06 959.38 97.82 962.04C105.94 964.48 112.45 969.25 120.95 968.68C130.62 968 140.33 967.15 149.95 965.28C159.57 963.41 169.5 958.47 178.86 963.46C186.26 967.43 189.69 979.63 197.15 980.82C202.88 981.73 209.94 972.43 215.35 980.31C221.98 989.96 215.15 993.48 209.74 995.58C187.47 1004.09 164.58 1005.62 142.06 1010.67C118.64 1015.89 95.43 1026.85 71.76 1023.1C60.81 1021.4 49.69 1017.94 38.72 1017.6C29.45 1017.31 20.46 1021.85 11.28 1021.74C-0.56 1021.63 -8.86 1016.23 -16.17 998.13C-19.08 990.98 -23.2 980.77 -20.78 971.35C-15.8 951.89 4.62 967.49 14.01 963.69L10.7 962.44Z" fill="#A4CEFD" fill-opacity="1.000000" fill-rule="nonzero"/>
			<path id="path" d="M494.34 908.48C496.47 899.91 518.18 907.23 523.77 906.04C534.92 903.66 543.36 900.31 554.04 893.28C563.95 886.75 577.31 891.12 586.15 881.53C594.36 872.62 590.59 864.11 583.07 860.65C576.68 857.7 570 849.81 563.69 848.34C555.42 846.41 547.56 849.59 539.12 844.76C533.53 841.59 529.04 832.9 523.86 844.42C518.39 856.57 528.29 861.16 524.4 869.67C520.11 879.15 504.59 872.68 498 879.71C490.13 888.06 493.04 895.43 495.03 908.54L494.34 908.48Z" fill="#A4CEFD" fill-opacity="1.000000" fill-rule="nonzero"/>
			<path id="path" d="M545.05 926.87C548.05 914.5 549.03 915.74 555.08 912.23C560.35 909.11 563.23 902.92 568.58 902.3C577.28 901.33 586.12 906.16 594.94 901.96C599.03 899.97 601.47 895.15 606.77 895.21C612.91 895.26 615.93 894.81 621.75 891.01C624.31 889.3 629.18 889.76 629.76 883.8C630.62 874.67 621.84 874.72 625.58 862.24C632.69 838.52 651.3 847.77 661.03 856.96C663.94 859.69 673.62 867.69 673.65 875.69C673.65 884.37 663.57 889.25 661.72 897.47C657.58 916.03 673.01 946.1 652.48 931.92C646.43 927.72 640.21 925.9 633.76 928.23C627.88 930.33 624.14 938.61 618.44 940.99C612.73 943.38 606.77 938.55 601.33 938.27C595.89 937.99 589.64 939.58 583.96 940.82C575.41 942.75 567.26 946.55 558.59 945.48C555.8 945.14 545.92 944.57 543.56 940.43C538.86 932.14 544.45 924.65 549.06 922.16L545.05 926.87Z" fill="#A4CEFD" fill-opacity="1.000000" fill-rule="nonzero"/>
			<path id="path" d="M656.45 699.85C652.51 704.22 661.55 719.94 665.04 701.5C666.45 694.01 664.98 681.41 662.47 675.17C658.27 664.73 656.05 670.8 648.91 671.37C643.29 671.82 641.07 668.13 635.95 665.41C630.56 662.52 627.59 666.03 622.44 666.77C616.94 667.57 608.44 663.08 603.52 658.15C607.03 654.57 611.78 651.45 615.87 650.66C618.26 650.15 620.71 652.36 623.07 651.28C625.44 650.2 627.71 644.08 629.81 643.68C634.51 642.83 634.31 648.33 639.72 644.47C642.31 642.6 644.15 637.89 647.09 636.19C649.25 634.94 651.56 636.19 653.8 634.88C661.09 630.57 667.57 618.09 674.42 613.78C678.17 611.39 680.16 615.99 683.09 616.73C686.66 617.58 687.47 618.37 691.85 615.25C692.86 625.13 709.33 621.95 714.31 623.76C717.51 624.95 723.07 628.87 726.29 627.56C732.46 625.12 736.57 613.15 743.14 609.64C750.83 605.49 751.26 608.73 757.8 611.96C762.12 614.12 768.02 613.32 772.6 615.08C776.46 616.56 780.7 618.71 781.36 625.24C782.63 637.44 776.75 637.27 772.4 633.58C766.73 659.51 798.98 672.9 802.58 631.42C806.1 630.06 810.3 633.46 813.7 634.77C820.38 637.38 819.98 636.25 826.6 627.96C830.46 623.14 834.15 620.19 838.18 617.86C842.21 615.54 848.46 616.05 846.65 604.07C845.29 595.11 837.49 593.75 836.83 583.19C836.22 573.55 842.47 563.11 846.59 558.68C858.25 546.26 869.72 539.56 882.59 549.43C892.99 557.43 888.06 569.92 890.77 585.63C893.05 598.74 895.9 595 903.53 598.57C913.44 603.28 905.92 602.83 908.83 612.42C914.76 632.16 952.06 610.15 946.27 645.78C944.71 655.42 936.97 653.15 937.45 660.76C937.51 661.72 942.41 672.45 943.07 675.17C946.53 689.18 953.21 696.56 957.24 709.61C952.63 718.97 946.18 713.98 942.29 723.79C941.57 725.61 941.72 731.17 940.62 733.95C938.55 739.23 935.04 740.59 933.19 745.24C936.65 755.17 949.35 756.48 955.31 758.97C962.71 762.09 973.48 763.4 979.19 772.08C972.04 800.9 952.17 775.43 940.8 775.88C922.16 776.68 903.15 783.48 884.49 782.75C870.06 782.18 855.75 779.91 841.52 775.83C838.47 774.97 833.49 776.11 830.64 773.56C828.25 771.4 827.44 767.2 825.34 764.82C816.81 755.12 806.24 761.41 796.62 763.63C780.81 767.31 763.99 758.75 754.81 734.8C751.67 726.63 755.5 729.64 749.82 725.33C744.15 721.01 735.88 726.52 730.04 727.88C721.14 730.04 712.12 735.43 703.25 736.9C699.74 737.47 693.98 733.67 690.81 735.71C686.35 738.6 683.04 754.55 678.43 754.89C675.38 755.12 671.78 747.4 669.1 744.9C664.89 740.99 660.86 740.25 656.45 737.98C647.32 733.33 628.37 721.41 631.02 697.47C633.18 677.89 647.93 696.45 653.06 705.75L656.45 699.85Z" fill="#A4CEFD" fill-opacity="1.000000" fill-rule="nonzero"/>
			<path id="path" d="M711.14 840.96C710.42 839.54 709.73 838.24 710.71 833.98C718.37 835.34 720.25 828.93 726.58 822.58C728.86 820.31 732.72 820.54 735.45 818.72C739.54 816 742.88 810.44 747.23 809.13C752.7 807.43 758.32 812.25 763.5 812.65C769.9 813.1 776.03 803.63 781.07 814.98C783.4 820.25 780.41 825.98 782.05 830.07C783.46 833.59 796.71 834.55 799.82 835.74C811.77 840.28 823.29 846.98 827.93 869.27C825.57 871.83 822.72 872.74 820.01 873.7C826.52 879.89 834.75 877.45 841.29 884.37C845.73 889.02 854.05 906.16 855.17 916.09C855.49 918.87 854.25 932.43 852.52 933.84C847.69 937.82 843.31 921.02 837.2 926.98C837.78 932.99 855.58 948.43 841.78 948.65C835.85 948.77 830 940.26 823.15 940.71C817.62 941.05 813.96 939.92 808.37 938.21C802.79 936.51 796.85 938.21 792.01 932.88C789.02 929.65 786.69 924.31 783.32 921.02C773.61 911.6 766.99 909.33 756.59 916.2C749.53 920.85 742.51 924.37 735.74 916.71C732.17 912.68 722.41 896.51 720.22 889.98C714.51 872.91 725.92 883.57 728.57 870.52C732.77 849.98 710.37 864.85 707.08 864.4C700.49 863.49 686.69 849.98 692.54 834.89C699.94 838.47 706.22 829.73 713.77 836.08L711.14 840.96Z" fill="#A4CEFD" fill-opacity="1.000000" fill-rule="nonzero"/>
			<path id="path" d="M918.62 923.18C928.41 923.35 937.4 919.89 947.3 921.76C960.32 924.2 965.68 911.55 952.17 901.5C938.66 891.46 923.98 900.25 909.55 901.11C904.48 901.39 895 902.75 900.73 915.97C903.27 921.82 914.41 924.31 918.62 924.48L918.62 923.18Z" fill="#A4CEFD" fill-opacity="1.000000" fill-rule="nonzero"/>
			<path id="path" d="M1050.04 1018.9C1042.81 1018.11 1036.39 1024.24 1029.06 1025.93C1020.86 1027.87 1012.51 1030.48 1004.51 1029.91C999.61 1029.56 979.13 1038.07 982.67 1021.23C985.12 1009.6 1001.63 1010.33 1004.56 1012.77C1008.88 1011.13 1012.08 1010.39 1016.54 1010.79C1021.01 1011.19 1022.13 1010.56 1027.11 1009.03C1033.02 1007.27 1040.93 1012.32 1045.4 1020.04L1050.04 1018.9Z" fill="#A4CEFD" fill-opacity="1.000000" fill-rule="nonzero"/>
			<path id="path" d="M1130.1 983.32C1128.46 984.63 1125.12 989.79 1123.32 989.73C1119.56 989.56 1116.42 980.37 1112.1 979.75C1107.78 979.12 1104.59 983.89 1100.64 984.68C1096.18 985.59 1091.56 982.41 1087.05 982.92C1081.03 983.55 1072.27 983.66 1075.99 997.05C1081.46 1016.75 1099.31 1006.93 1107.41 1003.92C1115.5 1000.92 1122.9 998.75 1131.11 999.38C1137.97 999.89 1149.11 1002.79 1155.22 996.94C1166.81 985.87 1155.39 975.49 1147.61 974.75C1141.48 974.19 1134.54 975.21 1128.78 978.44L1130.1 983.32Z" fill="#A4CEFD" fill-opacity="1.000000" fill-rule="nonzero"/>
			<path id="path" d="M1141.42 1058.17C1132.68 1050.51 1127.6 1040.92 1117.55 1047.1C1112.48 1050.22 1102.63 1061.46 1112.04 1069.06C1114.18 1070.76 1119.53 1068.61 1122.21 1068.89C1126.21 1069.34 1131.6 1072.8 1135.46 1071.73C1141.13 1070.07 1144.5 1062.36 1138.77 1053.23L1141.42 1058.17Z" fill="#A4CEFD" fill-opacity="1.000000" fill-rule="nonzero"/>
			<path id="path" d="M1192.14 982.07C1213.22 973.39 1233.73 982.53 1255.15 979.63C1261.56 978.78 1268.11 977.7 1274.59 978.33C1283.35 979.24 1290.86 976.68 1299.56 976.12C1309.93 975.43 1321.88 983.95 1332.05 987.92C1344.78 992.91 1353.3 990.36 1364.45 978.39C1378.39 963.41 1362.61 949.79 1352.67 947.58C1345.44 945.93 1340.89 949.05 1333.81 952.4C1326.72 955.75 1323.49 950.19 1316.21 950.24C1306.06 950.3 1298.61 964.88 1288.5 963.18C1277.04 961.25 1267.54 962.04 1255.99 963.58C1243.56 965.22 1239.4 958.47 1230.15 946.16C1223.3 937.02 1216.32 936.51 1208.12 941.33C1196.8 947.97 1199.25 968.4 1190.15 978.5L1192.14 982.07Z" fill="#A4CEFD" fill-opacity="1.000000" fill-rule="nonzero"/>
			<path id="path" d="M1073.4 717.04C1074.06 721.47 1082.35 722.21 1085.52 723.28C1093.87 726.01 1099.37 720.5 1106.6 713.41C1111.18 708.93 1118.35 705.13 1122.04 698.66C1126.85 690.15 1124.82 678.52 1126.85 668.02C1128.37 660.02 1130.65 654.46 1135.11 661.78C1139.57 669.1 1136.57 685.95 1139.19 695.08C1142.92 708.13 1160.89 712.96 1168.84 712.33C1163.82 730.89 1145.18 713.41 1137.44 715.74C1132.57 717.21 1130.77 724.14 1127.05 727.99C1122.67 732.53 1117.56 731.91 1112.88 734.46C1104.43 739 1095.77 758.8 1086.79 752.85C1078.75 747.46 1079.27 730.6 1075.43 719.6L1073.4 717.04Z" fill="#A4CEFD" fill-opacity="1.000000" fill-rule="nonzero"/>
			<path id="path" d="M1126.1 784.51C1125.31 780.31 1125.41 777.19 1126.73 773.44C1129.31 766.07 1130.04 772.02 1132.81 769.53C1135.56 767.03 1135.03 769.13 1137.96 765.27C1140.18 762.32 1140.9 756.93 1143.55 753.87C1149.07 747.4 1157.26 748.42 1163.02 742.35C1170.25 734.75 1172.43 721.35 1180.42 715.57C1184.56 712.56 1192.02 711.31 1195.54 706.09C1203.07 694.8 1195.06 683.62 1188.11 678.91C1182.6 675.23 1177.32 674.94 1171.56 676.02C1168.43 676.64 1164.43 680.05 1161.38 676.7C1159.85 675 1151.93 657.13 1152.71 654.57C1154.55 648.61 1165.3 651.79 1168.18 653.38C1174.82 657.01 1175.03 662.97 1176.76 647.14C1178.28 633.01 1177.18 623.99 1184.79 615.42C1189.11 610.54 1197.96 603.17 1202.88 600.61C1204.94 599.53 1207.17 601.18 1209.27 600.78C1213.68 600.05 1218.09 595.85 1222.35 595.56C1228.54 595.17 1236.19 597.95 1242.39 599.14C1260.97 602.71 1279.26 595.11 1297.68 601.01C1302.59 602.6 1307.37 604.81 1312.09 606.51C1318.28 608.78 1323.21 605.89 1327.61 615.31C1333.23 627.28 1332.13 634.83 1342.07 637.55C1347.37 638.97 1351.72 638.91 1356.82 642.09C1360.53 644.42 1363.44 648.16 1367.62 646.97L1126.1 784.51Z" fill="#A4CEFD" fill-opacity="1.000000" fill-rule="nonzero"/>
			<path id="path" d="M1360.91 644.64C1367.1 649.58 1375.16 641.18 1381.5 646.12C1393.31 655.37 1379.97 674.26 1374.27 682.83C1368.68 691.17 1362.75 690.43 1356.82 696.45C1353.16 700.13 1350.6 706.6 1346.94 710.63C1341.52 716.65 1335.76 717.5 1329.95 721.07C1320.9 726.69 1317.53 740.65 1307.05 743.82C1297.55 746.72 1284.73 748.42 1277.53 761.81C1267.39 780.7 1290.31 771.46 1296.48 773.39C1305.64 776.28 1317.65 781.84 1324.91 791.88C1326.2 793.7 1332.97 801.47 1333.06 804.08C1333.49 818.04 1309.93 816 1307.05 815.66C1293.68 814.18 1281.1 808.79 1267.59 810.21C1255.53 811.51 1245.1 816.79 1233.03 813.33C1216.69 808.68 1200.37 807.83 1183.87 807.77C1169.96 807.77 1155.06 811.29 1141.44 804.71C1135.29 801.76 1123.07 792.68 1124.75 777.07L1360.91 644.64Z" fill="#A4CEFD" fill-opacity="1.000000" fill-rule="nonzero"/>
			<path id="path" d="M1334.9 769.81C1340.49 766.52 1344.12 771.68 1349.39 772.7C1353.45 773.5 1356.9 771.91 1360.93 773.44C1373.75 778.32 1388.99 767.54 1394.63 794.78C1383.72 809.47 1365.54 790.69 1354.68 783.26C1348.06 778.72 1338.53 778.15 1332.91 771.06L1334.9 769.81Z" fill="#A4CEFD" fill-opacity="1.000000" fill-rule="nonzero"/>
			<path id="path" d="M1442.96 764.87C1427.72 772.48 1423.43 756.99 1410.27 751.09C1401.6 747.23 1386.85 735.94 1386.36 716.08C1385.99 701.04 1397.31 694.57 1403.39 688.5C1410.5 681.35 1414.88 685.61 1422.48 682.49C1431.61 678.8 1434.72 681.01 1444.28 683.91L1442.96 764.87Z" fill="#A4CEFD" fill-opacity="1.000000" fill-rule="nonzero"/>
			<path id="path" d="M1436.94 247.07C1429.45 245.93 1422.85 251.55 1415.45 249.57C1405.92 247.01 1399.58 254.22 1390.37 258.13C1382.74 261.37 1374.73 257.57 1367.67 260.63C1354.54 266.36 1348.55 301.26 1337.06 313.23C1333.17 317.26 1329.43 317.71 1325.51 323.78C1321.91 329.34 1319.69 334.56 1315.34 337.91C1301.29 348.75 1283.61 342.56 1270.93 359.7C1264.17 368.89 1258.46 380.63 1252.13 390.73C1245.79 400.83 1237.15 400.61 1229.19 407.13C1221.25 413.66 1212.69 413.88 1204.78 419.33C1194.56 426.37 1191.3 444.75 1179.18 447.3C1189.6 459.79 1206.05 448.1 1217.77 453.2C1229.49 458.31 1242.54 459.28 1254.26 460.07C1267.91 460.98 1281.76 459.67 1295.5 459.33C1304.56 459.11 1312.06 454.4 1320.9 451.79C1328.16 449.69 1334.96 452.07 1342.21 452.92C1350.91 454 1359.58 451.73 1368.25 453.03C1376.26 454.23 1382.19 460.92 1389.71 464.04C1400.33 468.47 1416.23 466.99 1426.92 463.02C1441.92 457.4 1450.21 431.93 1455.6 407.3C1462.63 375.24 1460.84 353.29 1457.99 319.98C1456.15 298.36 1462.28 277.99 1454.59 258.7C1449.72 246.5 1441.72 241 1433.57 244.57L1436.94 247.07Z" fill="#A4CEFD" fill-opacity="1.000000" fill-rule="nonzero"/>
			<g opacity="0.420000">
				<path id="path" d="M167.83 316.75C157.21 300.52 148.97 311.41 136.56 311.19C120.51 310.96 114.32 321 102.6 338.25C119.74 358.45 164.06 360.09 169.79 313.11L167.83 316.75Z" fill="#FFFFFF" fill-opacity="1.000000" fill-rule="nonzero"/>
				<path id="path" d="M258.55 289.79C256.51 288.26 249.94 287.58 248.88 293.26C247.21 302.05 253.08 301.48 255.7 304.15C263.42 312.04 271.48 311.64 279.98 309.65C289.74 307.33 294.93 301.82 295.73 325.54C296.25 340.8 290.61 356.58 304.29 350.73C327.1 340.97 303.82 291.78 293.34 280.72C280.64 267.21 267.74 270.96 254.64 277.26L258.55 289.79Z" fill="#FFFFFF" fill-opacity="1.000000" fill-rule="nonzero"/>
				<path id="path" d="M352.21 404.64C350.65 404.47 349.76 405.09 348.29 403.95C351.84 392.95 360.79 394.76 366.87 396.98C370.27 398.22 386.74 401.29 388.53 403.73C401.43 421.54 376.89 428.01 370.84 425.35C362.95 421.83 354.86 415.08 347.34 410.03L352.21 404.64Z" fill="#FFFFFF" fill-opacity="1.000000" fill-rule="nonzero"/>
				<path id="path" d="M342.45 530.26C332.45 514.71 322.49 523.45 312.12 530.26C303.54 535.82 290.69 536.44 282.05 530.14C269.24 520.89 260.74 495.19 246.6 487.13C241.36 484.13 221.92 476.18 217.97 481.23C223.3 487.31 225.63 498.71 230.7 504.38C235.77 510.06 242.31 508.01 247.9 512.04C254.61 516.87 252.36 519.48 257.14 528.55C261.92 537.63 267.51 538.31 274.42 541.55C286.6 547.22 293.83 549.72 306.33 546.48C312.78 544.78 320.82 546.37 326.84 541.32C332.22 536.84 336 526.11 341.47 521.35L342.45 530.26Z" fill="#FFFFFF" fill-opacity="1.000000" fill-rule="nonzero"/>
				<path id="path" d="M149.28 810.21C149.46 794.21 181.86 767.14 190.21 765.44C198.56 763.74 201.99 772.99 208.79 777.47C214.46 781.22 215.15 776.96 220.28 778.15C224.19 779.06 227.82 784.96 231.91 787.06C231.71 808.56 216.07 800.62 208.96 803.4C201.84 806.18 195.91 815.83 188.54 817.87C180.73 820.03 172.07 816.73 163.92 817.81C156.97 818.72 154.27 820.99 148.33 810.21L149.28 810.21Z" fill="#FFFFFF" fill-opacity="1.000000" fill-rule="nonzero"/>
				<path id="path" d="M340.49 731.23C333.35 710.86 346.33 701.67 355.09 699C365.37 695.94 378.01 698.43 387.58 705.47C397.14 712.5 406.33 721.13 416.58 722.21C423.58 722.94 437.08 715.23 438.81 732.65C429.57 741.33 424.5 730.83 415.63 729.19C406.76 727.54 398.61 731.45 389.77 729.58C373.15 726.12 355.87 725.84 339.51 720.39L340.49 731.23Z" fill="#FFFFFF" fill-opacity="1.000000" fill-rule="nonzero"/>
				<path id="path" d="M347.31 765.33C353.33 755.46 378.1 747.8 384.35 760C393.02 776.96 353.16 797.33 351.23 765.33L347.31 765.33Z" fill="#FFFFFF" fill-opacity="1.000000" fill-rule="nonzero"/>
				<path id="path" d="M320.01 864.06C316.7 865.53 313.45 867.35 310.25 869.45L320.01 864.06Z" fill="#FFFFFF" fill-opacity="1.000000" fill-rule="nonzero"/>
				<path id="path" d="" fill="#FFFFFF" fill-opacity="1.000000" fill-rule="nonzero"/>
				<path id="path" d="M224.4 966.3C217.43 964.65 210.4 952.46 204.12 950.81C200.43 949.85 196.6 954.67 193.15 953.53C189.69 952.4 186.87 943.38 183.04 942.13C167.54 937.08 153.61 965.45 139.12 968.46C149.2 979.86 175.81 969.53 188.11 969.48C195.74 969.48 213.16 973.79 219.5 966.3L224.4 966.3Z" fill="#FFFFFF" fill-opacity="1.000000" fill-rule="nonzero"/>
				<path id="path" d="M660.46 623.59C659.48 623.37 658.64 623.93 658.01 625.35C660.02 628.25 680.5 623.37 685.08 622.34C695.68 619.9 707.46 618.15 717.94 616.56C720.01 616.27 721.14 613.21 723.38 612.98C725.63 612.76 727.88 618.49 730.12 618.26C736.14 617.58 740.15 606.29 745.82 603.85C754.08 600.27 763.76 611.05 771.42 616.78C770.62 633.46 752.13 624.78 745.3 627.28C741.13 628.81 736.66 634.03 732.63 635C728.22 636.02 724.13 631.31 719.78 631.76C710.68 632.78 701.27 641.92 691.7 643.17C681.28 644.53 675.03 635.11 665.35 630.8L660.46 623.59Z" fill="#FFFFFF" fill-opacity="1.000000" fill-rule="nonzero"/>
				<path id="path" d="M738.5 666.66C742.33 666.89 747.52 664.28 751 665.3C757.48 667.28 754.66 670.23 760.1 675.28C764.48 679.37 767.88 678.91 771.8 682.26C774.85 684.87 772.75 691.11 778.51 691.45C788.18 691.96 790.14 666.77 797.98 662.46C807.71 657.07 810.5 675 816.32 682.55C824.59 693.27 856.24 699.62 847.77 668.7C846.16 662.86 842.62 660.64 840.92 654.12C839.51 648.73 839.39 640.22 838.79 634.32C836.51 611.96 839.02 616.61 847.54 626.71C858.37 639.54 880.11 645.38 894.57 643C905.89 641.13 908.17 641.01 917.24 654.23C922.65 662.12 932.33 675.23 920 684.36C912.02 690.26 901.54 672.11 892.67 672.5C881.29 672.96 878.01 683.62 868.97 691.51C865.66 694.4 861.85 693.67 858.49 695.43C853.82 697.87 850.16 702.69 845.58 705.87C838.81 710.52 829.97 715.28 823.15 718.46C811.71 723.8 801.95 716.42 790.78 722.94C778.48 730.15 773.47 724.48 762.9 713.41C756.59 706.83 717.6 682.26 726.01 667.23C729.03 670.97 732.43 671.48 735.57 668.53L738.5 666.66Z" fill="#FFFFFF" fill-opacity="1.000000" fill-rule="nonzero"/>
				<path id="path" d="M899.47 596.64C895.06 586.77 888.44 593.98 882.82 591.37C878.59 589.44 870.58 583.14 865.86 579.62C861.13 576.1 856.79 568.1 852.12 563.51C844.06 555.62 837.92 559.53 830.03 554.94C839.07 552.33 849.67 552.04 858.34 546.88C864.25 543.36 869.69 532.81 876.49 539.39C885.9 548.58 876.17 555.28 879.62 568.1C881.64 575.53 894.17 587.45 898.52 591.31L899.47 596.64Z" fill="#FFFFFF" fill-opacity="1.000000" fill-rule="nonzero"/>
				<path id="path" d="M860.44 747.4C872.57 742.24 899.61 749.16 916.75 741.72C923.95 738.6 962.22 710.97 957.9 751.26C955.57 772.93 934.66 762.04 927.2 762.04C917.78 762.04 908.28 764.93 898.75 763.17C889.21 761.41 877.9 758.24 868.42 753.19C862.2 749.9 857.51 742.69 850.68 747.34L860.44 747.4Z" fill="#FFFFFF" fill-opacity="1.000000" fill-rule="nonzero"/>
				<path id="path" d="M584.37 842.49C580.54 823.77 555.57 846.47 546 840.74C543.27 839.09 536.07 827.17 534 828.14C525.01 832.05 538.95 848.79 542.2 849.93C541.02 861.33 532.18 861.73 527.05 866.27C536.9 876.94 551.39 855.37 561.87 853.27C567.72 852.14 592.57 849.13 576.53 831.71L584.37 842.49Z" fill="#FFFFFF" fill-opacity="1.000000" fill-rule="nonzero"/>
				<path id="path" d="M739.48 862.24C737.41 861.16 735.97 861.62 735.6 856.74C742.02 850.84 771.8 843.86 766.84 866.32C763.59 881.13 744.64 877.28 739.48 867.57L739.48 862.24Z" fill="#FFFFFF" fill-opacity="1.000000" fill-rule="nonzero"/>
				<path id="path" d="M733.64 820.99C738.79 796.82 765.03 816.96 764.63 799.66C755.09 792.28 744.15 794.49 734.67 801.7C731.59 804.02 725.89 804.2 725.69 811.91C725.37 823.37 735.08 825.93 739.51 824.56L733.64 820.99Z" fill="#FFFFFF" fill-opacity="1.000000" fill-rule="nonzero"/>
				<path id="path" d="M1237.01 666.66C1236.86 665.41 1236.31 662.97 1236.92 659.91C1240.61 672.11 1245.71 686.01 1254.57 683.06C1266.76 678.97 1261 663.54 1257.56 650.71C1263.81 653.15 1265.43 664.45 1270.59 669.33C1276.64 675.06 1286.14 672.33 1292.99 673.64C1303.79 675.79 1322.23 689.3 1331.9 675.06C1338.47 665.35 1341.67 646.57 1335.22 637.44C1326 624.44 1308.82 622.69 1297.63 617.98C1296.77 596.02 1280.93 600.05 1273.27 593.41C1261.6 583.25 1256.97 576.05 1243.07 580.02C1233.31 582.8 1230.04 591.53 1221.48 587.68C1220.16 587.05 1219.69 579.51 1217.51 578.43C1213.54 576.56 1210.74 579.22 1206.85 580.53C1203.6 581.66 1198.85 584.05 1195.85 585.97C1193.63 587.39 1171.89 606.29 1170.74 613.78C1168.19 629.95 1181.56 623.76 1185.56 625.35C1197.57 630.06 1205.76 643.62 1218.35 643.17C1229.4 642.77 1235.42 640.5 1237.99 664.96L1237.01 666.66Z" fill="#FFFFFF" fill-opacity="1.000000" fill-rule="nonzero"/>
				<path id="path" d="M1177.51 706.15C1176.47 706.43 1175.66 707.34 1175.09 708.93C1180.13 711.14 1213.71 728.22 1208.78 701.67C1205.36 683.23 1188.13 700.19 1182.43 699.79C1179.43 699.57 1164.46 688.96 1174.56 706.15L1177.51 706.15Z" fill="#FFFFFF" fill-opacity="1.000000" fill-rule="nonzero"/>
			</g>
		</g>
		<g opacity="0.920000">
			<path id="polygon" d="M1442.34 1234.96L-829 1234.96L-69.03 724.5L1442.34 728.2L1442.34 1234.96Z" fill="#98C057" fill-opacity="1.000000" fill-rule="nonzero"/>
			<g opacity="0.280000">
				<path id="path" d="M414.43 733.25C221.68 806.83 178.68 827.92 182.98 831.21C190.25 836.72 316.88 782.27 500.36 773.79C664.27 766.2 813.34 798.05 811.17 814.33C808.48 834.3 579.83 816.22 341.67 892.02C301.25 904.88 166.03 947.93 182.98 979.87C195.46 1003.35 289.57 1019.77 354.9 1006.91C414.49 995.15 405.5 967.79 467.33 956.22C508.78 948.46 552.29 954.44 639.25 966.37C659.8 969.19 692.78 974.21 731.82 983.25C782.2 994.92 833.55 1006.79 831.03 1017.03C827.65 1030.59 730.67 1037.1 665.7 1037.3C587.61 1037.56 578.57 1028.67 526.81 1033.92C482.96 1038.38 469.39 1046.81 394.57 1067.68C323.07 1087.67 287.28 1097.64 255.68 1101.46C126.07 1117.16 56.97 1062.5 -28.67 1084.57C-74.81 1096.48 -105.73 1125.5 -94.79 1145.39C-75.79 1179.92 67.11 1182.34 83.77 1182.54C152.64 1183.36 202.5 1173.59 229.23 1169.04C472.37 1127.6 630.03 1207.28 870.65 1158.89C908.09 1151.37 939.12 1145.13 976.44 1131.85C1065.81 1100.12 1073.82 1069.88 1155.01 1054.16C1165.25 1052.17 1192.68 1049.46 1247.57 1044.01C1338.2 1035.03 1366.14 1035 1379.82 1023.74C1395.91 1010.53 1379.94 991.94 1366.6 976.43C1326.47 929.73 1240.88 904.33 1221.13 898.73C1157.98 880.82 1125.47 883.21 1115.32 868.31C1101.13 847.46 1149.51 820.07 1181.44 807.5C1241.34 783.96 1311.01 786.06 1333.56 787.23L1333.56 733.19L414.43 733.25Z" fill="#E0D541" fill-opacity="1.000000" fill-rule="nonzero"/>
			</g>
			<g opacity="0.110000">
				<path id="path" d="M672 916.23C744.36 913.46 804.35 900.33 824.1 881.81C851.53 856.12 791.42 829.35 738.12 817.3C681.38 804.5 629.69 807.79 374.42 821.59C100.71 836.37 44.26 838.85 -2.51 858.13C-48.94 877.29 -74.35 908.38 -35.6 924.78C11 944.49 141.99 939.59 228.89 924.78C350.37 904.07 336.4 872.42 453.71 853.82C571.52 835.12 713.84 846.73 718.2 855.97C724.32 868.86 466.19 886.92 473.51 903.28C476.15 909.08 511.24 912.26 539.64 914.04L672 916.23Z" fill="#5B5627" fill-opacity="1.000000" fill-rule="nonzero"/>
			</g>
			<g opacity="0.110000">
				<path id="path" d="M308.29 1099.82C286.43 1077.19 284.02 1043.4 314.94 1018.75C407.79 944.67 727.64 1012.01 810.88 944.43C866.53 899.23 750.25 847.46 804.24 802.54C890.46 730.85 1304.25 764.89 1320 812.69C1332.93 851.86 1070.22 874.64 1048.87 961.35C1034.1 1021.2 1150.48 1046.11 1128.21 1086.36C1078.52 1176.06 413.17 1208.3 308.29 1099.82Z" fill="#5B5627" fill-opacity="1.000000" fill-rule="nonzero"/>
			</g>
		</g>
	</g>
</svg>
