<?xml version="1.0" encoding="UTF-8"?>
<svg id="_Слой_1" data-name="Слой 1" xmlns="http://www.w3.org/2000/svg" width="439.52" height="366.27" viewBox="0 0 439.52 366.27">
  <defs>
    <style>
      .cls-1 {
        fill: #636b03;
        opacity: .5;
      }

      .cls-2 {
        fill: #94a514;
        stroke: #2a4700;
      }

      .cls-2, .cls-3 {
        stroke-miterlimit: 10;
      }

      .cls-4, .cls-5 {
        opacity: .57;
      }

      .cls-4, .cls-6 {
        fill: #f6f9d4;
      }

      .cls-5 {
        fill: #593f05;
      }

      .cls-3 {
        fill: #7c5900;
        stroke: #492f00;
      }
    </style>
  </defs>
  <path class="cls-3" d="m58.52,302.43c15.66-8.21,23.5-12.31,35-14,26.18-3.85,37.16,9.13,65,12,21,2.17,21.1-4.56,58-10,24.9-3.67,68.57-9.65,115,6,18.72,6.31,35.16,15.21,44,20,26.86,14.54,40.28,21.82,40,26-1.9,28.03-406.22,34.44-410-1-1.14-10.64,33.44-28.75,53-39Z"/>
  <path class="cls-2" d="m179.52,315.43c6.55,5.38,15.82,3.61,19,3,29.35-5.61,43.33-60.2,45-94,2.42-48.86-19.1-90.36-43-115-4.51-4.65-10.16-9.61-10.16-9.61-2.6-2.17-14.18-11.86-15.84-10.39-2.19,1.93,15.35,21.09,23,36,35.87,69.95-45.4,167.49-18,190Z"/>
  <path class="cls-1" d="m243.85,224.1c-1.67,33.79-15.64,88.39-45,94-3.18.61-12.45,2.38-19-3-2.38-1.95-3.93-4.47-4.81-7.48,6.84-.47,14.7-2.1,22.48-6.19,22.17-11.68,29.18-35.82,35-57,7.05-25.66,7.6-49.87,5.43-70.5,4.47,15.43,6.78,32.31,5.9,50.17Z"/>
  <path class="cls-1" d="m217.03,129.15c-2.16,2.18-4.64,4.31-7.51,6.28-2.05,1.41-4.1,2.61-6.1,3.61-.69-2.33-1.49-4.65-2.4-6.94-.93-2.36-1.99-4.69-3.17-7-7.64-14.91-25.19-34.08-23-36,1.67-1.47,13.25,8.22,15.85,10.39,0,0,5.64,4.95,10.15,9.61,4.01,4.14,7.96,8.75,11.74,13.8,1.51,2.01,2.99,4.1,4.44,6.25Z"/>
  <g>
    <path class="cls-2" d="m134.52,66.43c-12.01-15.89-58.05-5.34-85,13C4.15,110.32.93,171.44.52,183.43c72.52,2.45,118.18-20.43,141-35,31.03-19.82,68.22-55.21,61-69-5.79-11.06-38.67-5.39-65,1,.46-4.51.15-9.84-3-14Z"/>
    <path class="cls-6" d="m120.52,73.43c.06-1.66-12.47-5.71-27-4-27.79,3.27-47.84,25.82-47,27,.5.7,8.01-6.59,24-13,27.04-10.83,49.92-7.76,50-10Z"/>
    <path class="cls-1" d="m114.02,102.93c-29.61,9.86-68.71,31.25-110,82,21.76-27.8,43.14-48.36,59.81-62.69,0,0,33.99-29.19,65.46-37.19,8.64-2.19,16.91-2.13,16.93-2.12h0c5.71,0,15.45.69,15.8,2.12.71,2.94-36.44,14.03-48,17.87Z"/>
    <path class="cls-4" d="m140.02,142.93c-.38-.42,53.85-42.29,46-57-2.67-5.01-11.78-5.42-19-5,11.77-2.28,24.06-3.29,27,2,7.67,13.77-53.6,60.44-54,60Z"/>
    <path class="cls-2" d="m225.39,10.92c16.1-21.31,77.82-7.16,113.95,17.43,60.82,41.4,65.14,123.34,65.69,139.42-97.22,3.29-158.43-27.38-189.01-46.92-41.6-26.57-91.45-74.01-81.77-92.5,7.76-14.83,51.84-7.23,87.13,1.34-.62-6.05-.2-13.19,4.02-18.77Z"/>
    <path class="cls-4" d="m244.15,20.31c-.08-2.23,16.72-7.65,36.19-5.36,37.25,4.38,64.13,34.62,63,36.19-.67.94-10.74-8.84-32.17-17.43-36.24-14.52-66.92-10.4-67.03-13.41Z"/>
    <path class="cls-1" d="m252.87,59.85c39.69,13.21,92.11,41.89,147.46,109.92-29.17-37.26-57.83-64.83-80.18-84.03,0,0-45.56-39.14-87.75-49.85-11.58-2.94-22.67-2.85-22.69-2.85h0c-7.66,0-20.71.92-21.18,2.85-.96,3.94,48.85,18.8,64.35,23.96Z"/>
    <path class="cls-6" d="m218.01,113.47c.51-.56-72.18-56.7-61.66-76.41,3.58-6.71,15.78-7.27,25.47-6.7-15.78-3.05-32.25-4.4-36.19,2.68-10.28,18.46,71.85,81.03,72.39,80.43Z"/>
  </g>
  <path class="cls-5" d="m411.01,341.88c-.97,14.3-111.99,22.7-215.42,22.22,90.08-15.79,123.35-24.63,122.84-29.11-.77-6.77-78.08,2.52-87.66-23.82-2.24-6.16-.42-13.27,3.74-20.64,24.39-3.01,59.51-4.94,96.46,7.52,17.84,6,33.5,14.49,41.92,19.06,25.59,13.85,38.38,20.78,38.11,24.77Z"/>
  <path class="cls-5" d="m123.5,292.12c-16.97,12.32-37.91,24.92-62.98,35.31-20.13,8.35-39.04,13.66-55.63,17.08-.69-.92-1.11-1.87-1.21-2.85-.06-.56-.02-1.14.11-1.73,2.33-10.78,34.36-27.57,52.89-37.27,15.66-8.21,23.5-12.31,35-14,6.4-.94,11.89-.88,16.94-.2,5.26.7,10.04,2.07,14.88,3.66Z"/>
</svg>