<svg width="200" height="200" viewBox="0 0 200 200" fill="none" xmlns="http://www.w3.org/2000/svg">
<g id="ay 1">
<g id="Group">
<path id="Vector" d="M127.23 44.58C127.23 65.89 101.04 83.16 68.74 83.16C58.15 83.16 48.22 81.3 39.65 78.05L8.03003 106.19L16 61.27C12.31 56.21 10.25 50.56 10.25 44.57C10.25 23.26 36.44 5.99 68.74 5.99C101.04 5.99 127.23 23.26 127.23 44.57V44.58Z" fill="#E9F3FF" stroke="#1B1464" stroke-width="0.5" stroke-miterlimit="10"/>
<path id="Vector_2" d="M82.1999 62.97C81.5399 61.1 80.9299 59.25 80.3499 57.44C79.7699 55.63 79.1699 53.79 78.5599 51.91H60.3999L56.7599 62.97H50.9199C52.4599 58.39 53.9099 54.15 55.2599 50.26C56.6099 46.37 57.9299 42.67 59.2199 39.17C60.5099 35.67 61.7899 32.33 63.0699 29.14C64.3399 25.95 65.6699 22.8 67.0599 19.68H72.2099C73.5999 22.8 74.9299 25.96 76.1999 29.14C77.4699 32.33 78.7499 35.67 80.0499 39.17C81.3399 42.67 82.6599 46.36 84.0099 50.26C85.3599 54.16 86.7999 58.39 88.3499 62.97H82.2199H82.1999ZM76.9399 46.91C75.7099 43.29 74.4799 39.78 73.2699 36.38C72.0599 32.99 70.7899 29.73 69.4799 26.6C68.1299 29.72 66.8499 32.98 65.6399 36.38C64.4299 39.78 63.2199 43.28 62.0299 46.91H76.9499H76.9399Z" fill="#FF0006"/>
</g>
<g id="Group_2">
<path id="Vector_3" d="M57.8 128.91C57.8 150.22 83.9901 167.49 116.29 167.49C126.88 167.49 136.81 165.63 145.38 162.38L177 190.52L169.03 145.6C172.72 140.54 174.78 134.89 174.78 128.9C174.78 107.59 148.59 90.32 116.29 90.32C83.9901 90.32 57.8 107.59 57.8 128.9V128.91Z" fill="#E9F3FF" stroke="#1B1464" stroke-width="0.5" stroke-miterlimit="10"/>
<path id="Vector_4" d="M120.88 137C120.11 138.92 119.31 140.72 118.48 142.4C117.65 144.09 116.67 145.55 115.53 146.8C114.39 148.05 113.02 149.03 111.43 149.74C109.83 150.45 107.85 150.8 105.5 150.8C105.04 150.8 104.55 150.77 104.05 150.71C103.55 150.65 103.07 150.56 102.6 150.46C102.14 150.36 101.73 150.24 101.39 150.12C101.05 150 100.79 149.87 100.64 149.74L101.62 144.62C102.12 144.83 102.73 145.04 103.44 145.24C104.15 145.45 104.89 145.55 105.67 145.55C106.83 145.55 107.84 145.39 108.71 145.08C109.58 144.77 110.36 144.33 111.05 143.77C111.74 143.21 112.36 142.52 112.9 141.71C113.44 140.9 113.96 139.99 114.46 138.99C112.76 136.03 111.16 133.09 109.66 130.15C108.16 127.21 106.77 124.37 105.5 121.62C104.23 118.87 103.07 116.26 102.03 113.78C100.99 111.3 100.06 109.02 99.25 106.94H105.61C106.88 110.56 108.51 114.6 110.5 119.06C112.49 123.52 114.69 128.18 117.12 133.05C118.66 129.26 120.14 125.08 121.54 120.52C122.94 115.96 124.27 111.43 125.5 106.93H131.57C130.68 109.93 129.8 112.75 128.91 115.39C128.02 118.04 127.14 120.57 126.25 123.01C125.36 125.45 124.48 127.82 123.59 130.13C122.7 132.44 121.8 134.72 120.87 136.97L120.88 137Z" fill="#FF0006"/>
</g>
</g>
</svg>
