<svg width="200" height="200" viewBox="0 0 200 200" fill="none" xmlns="http://www.w3.org/2000/svg">
<g id="owl 1" clip-path="url(#clip0_122_2229)">
<g id="Group">
<path id="Vector" d="M150.252 172.776L31.6641 160.084L83.8081 121.228L180.196 130.344L150.252 172.776Z" fill="#FFF364" stroke="#534741" stroke-width="0.5" stroke-linecap="round" stroke-linejoin="round"/>
<path id="Vector_2" d="M146.164 196.508L33.3399 185.572C34.3719 183.972 33.8799 179.916 34.1319 174.252C34.3479 169.392 32.9359 165.764 32.1479 164.076C70.6959 167.72 111.94 171.62 150.488 175.264L146.164 196.504V196.508Z" fill="#B4E0EF" stroke="#2E3192" stroke-width="0.5" stroke-linecap="round" stroke-linejoin="round"/>
<path id="Vector_3" d="M177.86 150.572L146.212 196.516C147.372 194.812 149.272 191.552 150.012 187.036C151.128 180.216 150.02 172.988 149.156 171.212C160.056 156.944 169.804 144.672 180.704 130.408C181.34 132.136 182.648 136.404 181.628 141.812C180.824 146.076 178.944 149.08 177.864 150.576L177.86 150.572Z" fill="#FFF364" stroke="#534741" stroke-width="0.5" stroke-linecap="round" stroke-linejoin="round"/>
<path id="Vector_4" d="M146.656 174.948L31.532 165.48C30.516 165.392 29.796 164.432 29.928 163.332L30.064 162.192C30.128 161.648 30.388 161.172 30.756 160.844C30.756 160.844 31.268 160.392 32.108 160.388C33.836 160.372 125.096 168.948 149.156 171.208C149.984 172.528 153.216 178.012 152.032 185.256C151.136 190.76 148.152 194.452 147.184 195.62C145.792 197.3 144.408 198.456 143.4 199.2L31.092 189.72C30.076 189.644 29.356 188.672 29.488 187.572L29.624 186.432C29.752 185.344 30.664 184.544 31.668 184.636C68.968 188.152 104.448 191.548 141.804 195.072C142.272 194.736 148.94 189.788 148.792 181.996C148.728 178.692 147.464 176.232 146.66 174.944L146.656 174.948Z" fill="#BC9D1D" stroke="#534741" stroke-width="0.5" stroke-linecap="round" stroke-linejoin="round"/>
</g>
<g id="Group_2">
<path id="Vector_5" d="M73.5961 158.756L173.352 144.516L129.108 121.628L48.0161 132.412L73.5961 158.756Z" fill="#009FE3" stroke="#534741" stroke-width="0.5" stroke-linecap="round" stroke-linejoin="round"/>
<path id="Vector_6" d="M77.236 173.788L174.528 160.848C173.648 159.848 171.656 157.304 171.392 153.604C171.168 150.428 172.328 147.976 172.976 146.832C140.544 151.144 105.844 155.76 73.416 160.076L77.24 173.792L77.236 173.788Z" fill="#B4E0EF" stroke="#2E3192" stroke-width="0.5" stroke-linecap="round" stroke-linejoin="round"/>
<path id="Vector_7" d="M50.1521 145.236L77.1961 173.796C76.2041 172.736 74.5761 170.692 73.9161 167.768C72.9201 163.352 73.7881 158.556 74.5001 157.344C65.2001 148.528 56.8841 140.964 47.5841 132.152C47.0641 133.316 46.0001 136.18 46.9041 139.68C47.6161 142.436 49.2241 144.312 50.1481 145.24L50.1521 145.236Z" fill="#009FE3" stroke="#534741" stroke-width="0.5" stroke-linecap="round" stroke-linejoin="round"/>
<path id="Vector_8" d="M76.6362 159.668L173.504 147.712C174.356 147.604 174.956 146.432 174.836 145.716L174.712 145.48C174.652 145.124 174.432 144.828 174.116 144.632C174.116 144.632 173.684 144.364 172.976 144.4C171.52 144.476 94.7402 154.652 74.4962 157.34C73.8082 158.248 71.1362 162.004 72.1922 166.7C72.9962 170.268 75.5362 172.54 76.3642 173.256C77.5482 174.288 78.7282 174.98 79.5802 175.416L176.448 163.456C177.304 163.356 177.9 162.68 177.78 161.968L177.656 161.228C177.54 160.52 176.764 160.04 175.92 160.152C144.536 164.32 112.316 168.456 80.8882 172.632C80.4922 172.436 74.8322 169.52 74.8922 164.404C74.9162 162.232 75.9602 160.556 76.6282 159.672L76.6362 159.668Z" fill="#466489" stroke="#534741" stroke-width="0.5" stroke-linecap="round" stroke-linejoin="round"/>
</g>
<g id="Group_3">
<path id="Vector_9" d="M139.06 133.184L38.72 122.732L81.844 98.192L163.372 105.9L139.06 133.184Z" fill="#3AAF72" stroke="#534741" stroke-width="0.5" stroke-linecap="round" stroke-linejoin="round"/>
<path id="Vector_10" d="M136.132 148.344L38.3159 139.096C39.1479 138.064 41.0199 135.448 41.1079 131.736C41.1839 128.552 39.9079 126.148 39.2079 125.028C71.8119 128.112 106.7 131.408 139.304 134.492L136.132 148.34V148.344Z" fill="#B4E0EF" stroke="#2E3192" stroke-width="0.5" stroke-linecap="round" stroke-linejoin="round"/>
<path id="Vector_11" d="M161.844 118.792L136.172 148.348C137.112 147.252 138.644 145.148 139.164 142.2C139.952 137.748 138.856 132.988 138.088 131.808C146.964 122.648 154.916 114.776 163.792 105.62C164.364 106.764 165.564 109.584 164.824 113.112C164.24 115.892 162.724 117.828 161.844 118.792Z" fill="#3AAF72" stroke="#534741" stroke-width="0.5" stroke-linecap="round" stroke-linejoin="round"/>
<path id="Vector_12" d="M136.064 134.216L38.7199 125.936C37.8639 125.86 37.2319 125.216 37.3159 124.496L37.4039 123.752C37.4439 123.396 37.6559 123.088 37.9599 122.88C37.9599 122.88 38.3799 122.596 39.0879 122.604C40.5439 122.624 117.736 129.888 138.088 131.804C138.816 132.684 141.664 136.336 140.832 141.068C140.2 144.664 137.764 147.028 136.976 147.776C135.84 148.852 134.696 149.588 133.864 150.056L36.5199 141.772C35.6599 141.704 35.0319 141.052 35.1159 140.332L35.2039 139.588C35.2879 138.876 36.0359 138.368 36.8879 138.448C68.4399 141.424 100.828 144.34 132.424 147.32C132.812 147.108 138.328 143.984 138.028 138.872C137.9 136.704 136.78 135.068 136.072 134.212L136.064 134.216Z" fill="#606060"/>
</g>
<g id="Group_4">
<path id="Vector_13" d="M82.748 131.332C70.748 131.332 60.988 124.18 60.988 115.388C60.988 106.596 70.748 99.444 82.748 99.444C94.748 99.444 104.508 106.596 104.508 115.388C104.508 124.18 94.748 131.332 82.748 131.332Z" fill="#F4D160"/>
<path id="Vector_14" d="M82.7481 99.648C94.6361 99.648 104.308 106.712 104.308 115.392C104.308 124.072 94.6361 131.136 82.7481 131.136C70.8601 131.136 61.1881 124.072 61.1881 115.392C61.1881 106.712 70.8601 99.648 82.7481 99.648ZM82.7481 99.248C70.6201 99.248 60.7881 106.476 60.7881 115.392C60.7881 124.308 70.6201 131.536 82.7481 131.536C94.8761 131.536 104.708 124.308 104.708 115.392C104.708 106.476 94.8761 99.248 82.7481 99.248Z" fill="#8C6239"/>
</g>
<g id="Group_5">
<path id="Vector_15" d="M122.164 132.344C110.164 132.344 100.404 125.192 100.404 116.4C100.404 107.608 110.164 100.456 122.164 100.456C134.164 100.456 143.924 107.608 143.924 116.4C143.924 125.192 134.164 132.344 122.164 132.344Z" fill="#F4D160"/>
<path id="Vector_16" d="M122.164 100.656C134.052 100.656 143.724 107.72 143.724 116.4C143.724 125.08 134.052 132.144 122.164 132.144C110.276 132.144 100.604 125.08 100.604 116.4C100.604 107.72 110.276 100.656 122.164 100.656ZM122.164 100.256C110.036 100.256 100.204 107.484 100.204 116.4C100.204 125.316 110.036 132.544 122.164 132.544C134.292 132.544 144.124 125.316 144.124 116.4C144.124 107.484 134.292 100.256 122.164 100.256Z" fill="#8C6239"/>
</g>
<g id="Group_6">
<path id="Vector_17" d="M102.176 129.316C127.099 129.316 147.304 107.158 147.304 79.824C147.304 52.4903 127.099 30.332 102.176 30.332C77.2523 30.332 57.0479 52.4903 57.0479 79.824C57.0479 107.158 77.2523 129.316 102.176 129.316Z" fill="#F4D160"/>
<path id="Vector_18" d="M102.176 30.532C114.168 30.532 125.448 35.656 133.932 44.956C142.428 54.268 147.104 66.652 147.104 79.824C147.104 92.996 142.428 105.38 133.932 114.692C125.448 123.992 114.168 129.116 102.176 129.116C90.1839 129.116 78.9039 123.992 70.4199 114.692C61.9239 105.38 57.2479 92.996 57.2479 79.824C57.2479 66.652 61.9239 54.268 70.4199 44.956C78.9039 35.656 90.1839 30.532 102.176 30.532ZM102.176 30.132C77.1399 30.132 56.8479 52.38 56.8479 79.824C56.8479 107.268 77.1439 129.516 102.176 129.516C127.208 129.516 147.504 107.268 147.504 79.824C147.504 52.38 127.208 30.132 102.176 30.132Z" fill="#8C6239"/>
</g>
<path id="Vector_19" d="M102 129.112C122.284 129.112 138.728 114.38 138.728 96.208C138.728 78.0356 122.284 63.304 102 63.304C81.7157 63.304 65.272 78.0356 65.272 96.208C65.272 114.38 81.7157 129.112 102 129.112Z" fill="#F7EFAA"/>
<path id="Vector_20" d="M102.684 129.048C117.428 129.048 129.38 117.182 129.38 102.544C129.38 87.9062 117.428 76.04 102.684 76.04C87.9402 76.04 75.988 87.9062 75.988 102.544C75.988 117.182 87.9402 129.048 102.684 129.048Z" fill="#FFF8D4"/>
<g id="Group_7">
<path id="Vector_21" d="M71.8639 67.76C70.4719 67.76 69.3719 67.408 68.5959 66.712C67.2319 65.488 67.0559 63.364 68.1039 60.728L68.2599 60.328L67.8519 60.464C65.7599 61.156 63.6359 61.524 61.7119 61.524C58.4559 61.524 56.0159 60.524 54.8439 58.708C53.9039 57.252 53.8839 55.42 54.7839 53.408L54.9159 53.112L54.5919 53.124C54.3799 53.132 54.1719 53.136 53.9679 53.136C50.7119 53.136 48.2759 52.136 47.1119 50.324C45.5759 47.936 46.5679 44.484 49.6999 41.312L49.8239 41.184L49.7119 41.044C48.3639 39.384 47.8839 37.68 48.3319 36.116C48.9879 33.816 51.6639 32.084 55.4839 31.476L55.5919 31.46L55.6359 31.36C60.9159 19.168 79.9359 10.656 101.892 10.656C123.848 10.656 142.656 19.088 148.064 31.16L148.112 31.264L148.228 31.276C152.616 31.724 155.668 33.508 156.4 36.044C156.844 37.608 156.368 39.312 155.016 40.972L154.904 41.112L155.028 41.24C158.16 44.416 159.148 47.872 157.616 50.252C156.468 52.04 153.968 53.064 150.76 53.064C150.552 53.064 150.344 53.06 150.136 53.052L149.812 53.04L149.944 53.336C150.844 55.348 150.824 57.18 149.884 58.636C148.712 60.452 146.276 61.448 143.02 61.452C141.096 61.452 138.972 61.084 136.876 60.392L136.468 60.256L136.624 60.656C137.668 63.292 137.496 65.416 136.132 66.64C135.356 67.336 134.252 67.688 132.86 67.688C130.764 67.688 128.176 66.868 125.568 65.376L125.376 65.268L125.284 65.468C125.1 65.876 124.832 66.24 124.492 66.54C123.716 67.236 122.616 67.588 121.224 67.588C118.816 67.588 115.736 66.488 112.772 64.572L112.712 64.532L112.64 64.54C109.14 65.004 105.52 65.24 101.884 65.24C98.5399 65.24 95.2159 65.04 92.0039 64.652L91.9319 64.644L91.8719 64.684C88.9359 66.572 85.8799 67.656 83.4879 67.656C82.0959 67.656 80.9959 67.304 80.2199 66.608C79.8799 66.304 79.6159 65.944 79.4279 65.536L79.3359 65.336L79.1439 65.444C76.5359 66.932 73.9439 67.756 71.8479 67.756L71.8639 67.76Z" fill="#F4D160"/>
<path id="Vector_22" d="M101.892 10.86C112.668 10.86 122.832 12.876 131.276 16.688C139.428 20.368 145.324 25.536 147.88 31.244L147.976 31.456L148.204 31.48C152.508 31.92 155.496 33.648 156.204 36.104C156.632 37.604 156.164 39.244 154.86 40.852L154.636 41.128L154.888 41.384C157.948 44.492 158.932 47.848 157.448 50.148C156.336 51.876 153.9 52.868 150.76 52.868C150.556 52.868 150.352 52.864 150.144 52.856L149.5 52.832L149.764 53.42C150.636 55.364 150.62 57.132 149.72 58.528C148.604 60.26 146.164 61.252 143.024 61.252C141.124 61.252 139.02 60.888 136.944 60.204L136.132 59.936L136.448 60.732C137.46 63.284 137.304 65.328 136.008 66.492C135.268 67.156 134.212 67.492 132.868 67.492C130.808 67.492 128.252 66.68 125.676 65.208L125.296 64.992L125.116 65.392C124.94 65.776 124.692 66.116 124.376 66.4C123.636 67.06 122.584 67.396 121.244 67.396C118.872 67.396 115.832 66.308 112.9 64.416L112.776 64.336L112.628 64.356C109.136 64.82 105.524 65.052 101.896 65.052C98.5599 65.052 95.2439 64.856 92.0399 64.464L91.8959 64.448L91.7759 64.528C88.8719 66.396 85.8519 67.472 83.4999 67.472C82.1599 67.472 81.1039 67.136 80.3679 66.476C80.0519 66.192 79.7999 65.852 79.6279 65.468L79.4479 65.068L79.0679 65.284C76.4879 66.756 73.9359 67.568 71.8719 67.568C70.5319 67.568 69.4759 67.232 68.7359 66.568C67.4399 65.408 67.2839 63.36 68.2959 60.808L68.6119 60.012L67.7999 60.28C65.7279 60.968 63.6239 61.328 61.7239 61.328C58.5839 61.328 56.1399 60.336 55.0239 58.604C54.1239 57.208 54.1079 55.44 54.9799 53.496L55.2439 52.908L54.5999 52.932C54.3919 52.94 54.1839 52.944 53.9799 52.944C50.8399 52.944 48.4039 51.952 47.2919 50.224C45.8079 47.92 46.7919 44.564 49.8519 41.46L50.1039 41.204L49.8799 40.924C48.5719 39.316 48.1079 37.672 48.5359 36.176C49.1719 33.952 51.7839 32.272 55.5279 31.68L55.7439 31.644L55.8319 31.444C58.3239 25.692 64.1999 20.472 72.3799 16.752C80.8519 12.9 91.0599 10.86 101.9 10.86M101.9 10.46C79.4719 10.46 60.6439 19.324 55.4639 31.284C51.6799 31.884 48.8599 33.584 48.1479 36.068C47.6679 37.748 48.2279 39.528 49.5679 41.18C46.4719 44.316 45.3119 47.888 46.9559 50.444C48.1959 52.376 50.8039 53.348 53.9799 53.348C54.1879 53.348 54.3999 53.344 54.6119 53.336C53.7239 55.324 53.6759 57.26 54.6839 58.824C55.9319 60.756 58.5399 61.728 61.7199 61.728C63.6399 61.728 65.7639 61.372 67.9239 60.66C66.8919 63.26 66.9959 65.544 68.4719 66.864C69.3039 67.612 70.4799 67.964 71.8719 67.964C73.9959 67.964 76.6199 67.14 79.2639 65.628C79.4599 66.06 79.7439 66.444 80.1039 66.768C80.9359 67.512 82.1119 67.868 83.5039 67.868C85.9239 67.868 88.9879 66.796 91.9959 64.864C95.1879 65.252 98.5039 65.456 101.9 65.456C105.612 65.456 109.22 65.212 112.684 64.756C115.716 66.716 118.808 67.8 121.244 67.8C122.632 67.8 123.812 67.448 124.644 66.7C125.004 66.376 125.284 65.992 125.484 65.56C128.128 67.072 130.748 67.896 132.872 67.896C134.264 67.896 135.444 67.54 136.276 66.796C137.752 65.476 137.852 63.188 136.824 60.592C138.984 61.308 141.112 61.66 143.028 61.66C146.204 61.66 148.816 60.684 150.06 58.756C151.068 57.192 151.024 55.256 150.132 53.268C150.344 53.276 150.556 53.28 150.764 53.28C153.936 53.28 156.548 52.308 157.788 50.376C159.432 47.824 158.268 44.252 155.176 41.112C156.516 39.464 157.072 37.68 156.596 36C155.82 33.3 152.548 31.524 148.252 31.088C142.944 19.228 124.204 10.464 101.9 10.464V10.46Z" fill="#8C6239"/>
</g>
<path id="Vector_23" opacity="0.31" d="M73.176 23.072C74.196 23.512 75.1 22.372 78.808 20.548C83.2 18.392 84.152 17.388 87.256 15.504C89.968 13.856 92.848 12.788 92.324 11.972C91.928 11.356 89.62 11.896 85.004 12.98C82.86 13.484 82.992 13.54 79.372 14.492C74.488 15.78 73.908 15.772 73.18 16.508C71.24 18.476 71.588 22.376 73.18 23.068L73.176 23.072Z" fill="#D8B759"/>
<path id="Vector_24" d="M102.312 63.728C120.816 63.728 135.816 55.1122 135.816 44.484C135.816 33.8558 120.816 25.24 102.312 25.24C83.8084 25.24 68.8081 33.8558 68.8081 44.484C68.8081 55.1122 83.8084 63.728 102.312 63.728Z" fill="#F7EFAA"/>
<path id="Vector_25" d="M101.676 63.428C116.48 63.428 128.48 55.9547 128.48 46.736C128.48 37.5173 116.48 30.044 101.676 30.044C86.8726 30.044 74.8721 37.5173 74.8721 46.736C74.8721 55.9547 86.8726 63.428 101.676 63.428Z" fill="#FFF8D4"/>
<g id="Group_8">
<path id="Vector_26" d="M102.164 68.248C95.0079 64.316 91.2359 55.04 92.0759 51.86C93.0639 48.116 100.696 47.764 101.564 47.736C101.74 47.732 101.932 47.728 102.132 47.728C106.192 47.728 111.232 48.812 112.084 51.864C113 55.136 109.076 64.544 102.164 68.248Z" fill="#FFF364"/>
<path id="Vector_27" d="M102.128 47.928C106.116 47.928 111.064 48.972 111.888 51.916C112.76 55.04 108.812 64.38 102.164 68.016C95.1479 64.1 91.4439 55.02 92.2679 51.908C93.0399 48.98 98.4799 48.032 101.568 47.932C101.744 47.928 101.932 47.924 102.128 47.924M102.128 47.524C101.924 47.524 101.732 47.524 101.556 47.532C100.816 47.556 92.9159 47.888 91.8799 51.804C91.0039 55.12 94.8639 64.524 102.16 68.468C109.116 64.804 113.216 55.18 112.272 51.804C111.296 48.304 105.344 47.524 102.124 47.524H102.128Z" fill="#8C6239"/>
</g>
<path id="Vector_28" opacity="0.31" d="M156.864 50.196C155.592 52.196 152.828 53.14 149.504 53.008C150.36 54.94 150.404 56.824 149.432 58.344C147.512 61.356 142.224 61.972 136.712 60.128C137.704 62.656 137.604 64.876 136.188 66.16C134.164 67.996 130.02 67.392 125.816 64.96C125.628 65.38 125.356 65.756 125.008 66.068C122.804 68.064 118.088 67.168 113.516 64.176C110.676 64.56 107.732 64.784 104.708 64.844C108.172 62.756 111.884 60.292 115.704 57.404C126.78 49.028 133.304 44.092 134.1 37.292C135.128 28.496 126.292 18.956 112.688 11.972C129.78 14.06 143.372 21.676 147.696 31.444C151.824 31.872 154.968 33.596 155.716 36.22C156.176 37.852 155.64 39.584 154.352 41.188C157.324 44.24 158.444 47.712 156.864 50.192V50.196Z" fill="#D8B759"/>
<g id="Group_9">
<g id="Group_10">
<path id="Vector_29" d="M76.8361 17.268C68.9521 11.552 63.3201 5.832 55.4401 0.116001C54.6961 1.744 52.0081 8.168 54.8761 15.756C57.5281 22.772 63.2601 26.348 65.0121 27.36C65.4241 26.032 66.3241 23.856 68.3921 21.812C72.3841 17.86 75.4641 17.364 76.8401 17.272L76.8361 17.268Z" fill="#D8B759" stroke="#8C6239" stroke-miterlimit="10"/>
<path id="Vector_30" d="M67.448 21.648C67.148 20.984 67.4 20.128 67.436 20.012C67.72 19.08 68.416 18.544 68.676 18.36C68.58 18.4 68.48 18.44 68.376 18.48C65.66 19.524 62.864 19.124 62.124 17.592C61.624 16.544 62.216 15.236 63.496 14.18C61.672 14.716 59.956 14.476 59.316 13.48C58.588 12.356 59.472 10.656 61.304 9.46C59.3 9.744 57.552 9.232 56.992 8.064C56.52 7.076 57.016 5.86 58.152 4.836C56.632 5.108 55.296 4.804 54.752 3.952C54.144 3.012 54.66 1.668 55.924 0.556C57.316 1.564 58.712 2.58 60.104 3.588C60.272 3.708 60.436 3.832 60.604 3.952C63.588 6.088 65.392 7.424 65.592 7.568C70.816 11.344 78.992 13.584 79.048 17.328C79.06 18.132 78.696 18.904 78.52 19.284C78.364 19.616 77.268 21.856 74.58 22.816C71.824 23.8 68.136 23.18 67.444 21.644L67.448 21.648Z" fill="#F4D160" stroke="#8C6239" stroke-miterlimit="10"/>
</g>
<path id="Vector_31" d="M67.828 10.712C69.32 11.012 71.668 11.668 74.02 13.236C75.988 14.544 77.976 15.868 77.96 17.776C77.948 19.612 76.084 21.38 73.456 22.316C74.136 21.532 75.124 20.108 75.144 18.28C75.18 15.1 72.264 11.98 67.824 10.712H67.828Z" fill="#D8B759"/>
</g>
<g id="Group_11">
<g id="Group_12">
<path id="Vector_32" d="M122.32 17.152C130.204 11.436 135.836 5.716 143.72 0C144.464 1.628 147.152 8.052 144.284 15.64C141.632 22.656 135.9 26.232 134.148 27.244C133.736 25.916 132.836 23.74 130.768 21.696C126.776 17.744 123.696 17.248 122.32 17.156V17.152Z" fill="#D8B759" stroke="#8C6239" stroke-miterlimit="10"/>
<path id="Vector_33" d="M131.708 21.532C132.008 20.868 131.756 20.012 131.72 19.896C131.436 18.964 130.74 18.428 130.48 18.244C130.576 18.284 130.676 18.324 130.78 18.364C133.496 19.408 136.292 19.008 137.032 17.476C137.532 16.428 136.94 15.12 135.66 14.064C137.484 14.6 139.2 14.36 139.84 13.364C140.568 12.24 139.684 10.54 137.852 9.344C139.856 9.628 141.604 9.116 142.164 7.948C142.636 6.96 142.14 5.744 141.004 4.72C142.524 4.992 143.86 4.688 144.404 3.836C145.012 2.896 144.496 1.552 143.232 0.439999C141.84 1.448 140.444 2.464 139.052 3.472C138.884 3.592 138.72 3.716 138.552 3.836C135.568 5.972 133.764 7.308 133.564 7.452C128.34 11.228 120.164 13.468 120.108 17.212C120.096 18.016 120.46 18.788 120.636 19.168C120.792 19.5 121.888 21.74 124.576 22.7C127.332 23.684 131.02 23.064 131.712 21.528L131.708 21.532Z" fill="#F4D160" stroke="#8C6239" stroke-miterlimit="10"/>
</g>
<path id="Vector_34" d="M131.332 10.592C129.84 10.892 127.492 11.548 125.14 13.116C123.172 14.424 121.184 15.748 121.2 17.656C121.212 19.492 123.076 21.26 125.704 22.196C125.024 21.412 124.036 19.988 124.016 18.16C123.98 14.98 126.896 11.86 131.336 10.592H131.332Z" fill="#D8B759"/>
</g>
<path id="Vector_35" d="M49.5279 37.196C49.5519 37.188 49.8479 38.664 51.2159 39.72C53.9439 41.82 58.4439 40.332 58.5359 40.728C58.6119 41.068 55.4359 42.736 52.9039 41.736C50.2639 40.692 49.4919 37.212 49.5239 37.196H49.5279Z" fill="#D8B759"/>
<path id="Vector_36" d="M49.5279 50.312C50.7719 50.492 52.5359 50.612 54.5959 50.312C57.8119 49.844 60.1239 48.58 61.3519 47.788C60.9279 48.492 59.9199 49.92 57.9719 50.816C53.9759 52.652 49.8279 50.476 49.5239 50.312H49.5279Z" fill="#D8B759"/>
<path id="Vector_37" d="M57.408 59.392C57.432 59.168 60.052 59.896 63.6 58.888C67.84 57.684 69.904 55.004 70.356 55.356C70.744 55.66 69.748 58.032 67.54 59.392C63.492 61.884 57.368 59.732 57.404 59.392H57.408Z" fill="#D8B759"/>
<path id="Vector_38" d="M71.488 66.456C72.392 66.404 73.864 66.208 75.428 65.448C76.132 65.108 77.484 64.432 78.464 63.084C79.136 62.156 79.284 61.392 79.372 61.412C79.512 61.448 79.548 63.46 78.244 64.944C76.816 66.572 74.112 67.184 71.488 66.456Z" fill="#D8B759"/>
<path id="Vector_39" d="M82.7481 65.952C82.7601 65.804 84.5161 66.236 86.6881 65.448C88.4441 64.812 89.3401 63.792 89.5041 63.936C89.6681 64.076 89.0201 65.272 87.8161 65.952C85.6481 67.18 82.7321 66.144 82.7481 65.952Z" fill="#D8B759"/>
<path id="Vector_40" d="M60.2241 35.18C60.3721 34.812 57.9761 33.244 55.1561 33.164C53.1121 33.104 51.1721 33.832 51.2161 34.172C51.2481 34.412 52.2481 34.384 55.1561 34.676C59.0761 35.072 60.1321 35.412 60.2241 35.18Z" fill="#FCF2D4"/>
<path id="Vector_41" d="M59.1 44.764C59.176 44.528 56.856 43.368 54.032 43.252C51.3 43.136 48.92 44.028 48.964 44.26C49 44.444 50.544 44.156 53.468 44.26C57.088 44.388 59.032 44.976 59.1 44.764Z" fill="#FCF2D4"/>
<path id="Vector_42" d="M56.2839 54.852C56.0919 54.576 58.0199 52.708 60.7879 51.824C64.1199 50.764 67.5359 51.492 67.5439 51.824C67.5519 52.064 65.7399 52.008 62.4759 52.832C58.4919 53.836 56.4639 55.112 56.2839 54.848V54.852Z" fill="#FCF2D4"/>
<path id="Vector_43" d="M69.2359 65.448C69.4159 65.488 69.5759 61.976 72.0519 60.908C73.8759 60.124 75.9319 61.1 75.9919 60.908C76.0599 60.692 73.5599 59.14 71.4879 59.9C68.6599 60.94 69.0319 65.408 69.2359 65.448Z" fill="#FCF2D4"/>
<path id="Vector_44" d="M81.06 63.932C80.964 63.788 82.184 62.716 83.92 62.308C84.496 62.172 85.612 61.928 86.688 62.416C87.348 62.716 87.92 63.256 87.816 63.424C87.68 63.64 86.564 62.98 85 62.92C82.72 62.832 81.164 64.088 81.06 63.928V63.932Z" fill="#FCF2D4"/>
<path id="Vector_45" d="M101.008 49.46C100.952 49.156 96.8999 48.552 94.9999 50.74C94.0759 51.808 94.0759 53.056 94.0759 54.16C94.0759 57.6 96.1759 60.224 96.3879 60.144C96.5839 60.068 94.8399 57.66 95.4639 54.588C95.5759 54.032 95.9239 52.428 97.3119 51.168C98.9959 49.64 101.048 49.68 101.008 49.46Z" fill="#FCF2D4"/>
<path id="Vector_46" d="M155.436 36.844C155.412 36.836 155.116 38.312 153.748 39.368C151.02 41.468 146.52 39.98 146.428 40.376C146.352 40.716 149.528 42.384 152.06 41.384C154.7 40.34 155.472 36.86 155.44 36.844H155.436Z" fill="#D8B759"/>
<path id="Vector_47" d="M155.436 49.96C154.192 50.14 152.428 50.26 150.368 49.96C147.152 49.492 144.84 48.228 143.612 47.436C144.036 48.14 145.044 49.568 146.992 50.464C150.988 52.3 155.136 50.124 155.44 49.96H155.436Z" fill="#D8B759"/>
<path id="Vector_48" d="M147.552 59.04C147.528 58.816 144.908 59.544 141.36 58.536C137.12 57.332 135.056 54.652 134.604 55.004C134.216 55.308 135.212 57.68 137.42 59.04C141.468 61.532 147.592 59.38 147.556 59.04H147.552Z" fill="#D8B759"/>
<path id="Vector_49" d="M133.476 66.1C132.572 66.048 131.1 65.852 129.536 65.092C128.832 64.752 127.48 64.076 126.5 62.728C125.828 61.8 125.68 61.036 125.592 61.056C125.452 61.092 125.416 63.104 126.72 64.588C128.148 66.216 130.852 66.828 133.476 66.1Z" fill="#D8B759"/>
<path id="Vector_50" d="M122.212 65.596C122.2 65.448 120.444 65.88 118.272 65.092C116.516 64.456 115.62 63.436 115.456 63.58C115.292 63.72 115.94 64.916 117.144 65.596C119.312 66.824 122.228 65.788 122.212 65.596Z" fill="#D8B759"/>
<path id="Vector_51" d="M144.736 34.824C144.588 34.456 146.984 32.888 149.804 32.808C151.848 32.748 153.788 33.476 153.744 33.816C153.712 34.056 152.712 34.028 149.804 34.32C145.884 34.716 144.828 35.056 144.736 34.824Z" fill="#FCF2D4"/>
<path id="Vector_52" d="M145.864 44.408C145.788 44.172 148.108 43.012 150.932 42.896C153.664 42.78 156.044 43.672 156 43.904C155.964 44.088 154.42 43.8 151.496 43.904C147.876 44.032 145.932 44.62 145.864 44.408Z" fill="#FCF2D4"/>
<path id="Vector_53" d="M148.68 54.5C148.872 54.224 146.944 52.356 144.176 51.472C140.844 50.412 137.428 51.14 137.42 51.472C137.412 51.712 139.224 51.656 142.488 52.48C146.472 53.484 148.5 54.76 148.68 54.496V54.5Z" fill="#FCF2D4"/>
<path id="Vector_54" d="M135.728 65.092C135.548 65.132 135.388 61.62 132.912 60.552C131.088 59.768 129.032 60.744 128.972 60.552C128.904 60.336 131.404 58.784 133.476 59.544C136.304 60.584 135.932 65.052 135.728 65.092Z" fill="#FCF2D4"/>
<path id="Vector_55" d="M123.904 63.58C124 63.436 122.78 62.364 121.044 61.956C120.468 61.82 119.352 61.576 118.276 62.064C117.616 62.364 117.044 62.904 117.148 63.072C117.284 63.288 118.4 62.628 119.964 62.568C122.244 62.48 123.8 63.736 123.904 63.576V63.58Z" fill="#FCF2D4"/>
<path id="Vector_56" d="M102.392 66.552C102.28 66.448 104.372 65.096 106.088 62.28C108.792 57.836 108.112 53.752 108.86 53.736C109.408 53.724 110.272 55.916 109.784 58.008C109.54 59.052 109.024 59.776 108.396 60.572C105.724 63.96 102.536 66.692 102.388 66.556L102.392 66.552Z" fill="#D8B759"/>
<g id="Group_13">
<path id="Vector_57" d="M117.189 48.2507C121.428 47.456 124.317 43.8986 123.643 40.3051C122.97 36.7116 118.988 34.4428 114.749 35.2375C110.511 36.0322 107.621 39.5896 108.295 43.1831C108.969 46.7766 112.951 49.0454 117.189 48.2507Z" fill="white" stroke="#8C6239" stroke-miterlimit="10"/>
<path id="Vector_58" d="M115.45 47.0386C117.904 46.5786 119.576 44.5193 119.186 42.4392C118.796 40.3591 116.491 39.0458 114.038 39.5059C111.584 39.966 109.911 42.0252 110.301 44.1053C110.691 46.1854 112.996 47.4987 115.45 47.0386Z" fill="black"/>
<path id="Vector_59" d="M116.185 41.984C116.854 41.8586 117.31 41.2975 117.203 40.7308C117.097 40.1641 116.469 39.8063 115.8 39.9317C115.131 40.0571 114.675 40.6182 114.782 41.1849C114.888 41.7516 115.516 42.1094 116.185 41.984Z" fill="#E6E6E6"/>
<path id="Vector_60" d="M89.1119 42.484C88.7999 42.544 88.6839 42.2 88.9399 41.976C89.4919 41.488 90.0799 40.92 90.6759 40.264C91.0999 39.796 91.4759 39.344 91.8039 38.912C91.9519 38.72 92.2199 38.684 92.3279 38.844L93.4879 40.596C93.5839 40.74 93.4919 40.976 93.2959 41.068C92.8519 41.284 92.3639 41.496 91.8399 41.696C90.8399 42.076 89.9199 42.324 89.1119 42.48V42.484Z" fill="#C9DEE2"/>
</g>
<g id="Group_14">
<path id="Vector_61" d="M93.6396 43.4068C94.3134 39.8133 91.4237 36.2559 87.1854 35.4612C82.947 34.6665 78.9649 36.9354 78.2911 40.5288C77.6173 44.1223 80.5069 47.6797 84.7453 48.4744C88.9837 49.2691 92.9658 47.0003 93.6396 43.4068Z" fill="white" stroke="#8C6239" stroke-miterlimit="10"/>
<path id="Vector_62" d="M91.6353 44.3314C92.0254 42.2513 90.3525 40.1921 87.899 39.732C85.4454 39.272 83.1402 40.5853 82.7502 42.6654C82.3601 44.7455 84.033 46.8047 86.4865 47.2647C88.9401 47.7248 91.2453 46.4115 91.6353 44.3314Z" fill="black"/>
<path id="Vector_63" d="M87.1579 41.41C87.2642 40.8433 86.8082 40.2823 86.1394 40.1569C85.4706 40.0315 84.8424 40.3892 84.7361 40.9559C84.6298 41.5226 85.0858 42.0837 85.7546 42.2091C86.4234 42.3345 87.0516 41.9767 87.1579 41.41Z" fill="#E6E6E6"/>
</g>
<g id="Group_15">
<g id="Group_16">
<path id="Vector_64" d="M77.588 135.668C74.956 135.668 72.812 133.044 72.812 129.816C72.812 126.588 74.952 123.964 77.588 123.964C80.224 123.964 82.364 126.588 82.364 129.816C82.364 133.044 80.224 135.668 77.588 135.668Z" fill="#FFF364"/>
<path id="Vector_65" d="M77.5881 124.164C80.1121 124.164 82.1641 126.7 82.1641 129.816C82.1641 132.932 80.1121 135.468 77.5881 135.468C75.0641 135.468 73.0121 132.932 73.0121 129.816C73.0121 126.7 75.0641 124.164 77.5881 124.164ZM77.5881 123.764C74.8401 123.764 72.6121 126.472 72.6121 129.816C72.6121 133.16 74.8401 135.868 77.5881 135.868C80.3361 135.868 82.5641 133.16 82.5641 129.816C82.5641 126.472 80.3361 123.764 77.5881 123.764Z" fill="#8C6239"/>
</g>
<path id="Vector_66" d="M79.66 125.608C79.616 125.404 76.364 125.004 74.836 126.464C74.092 127.176 74.092 128.008 74.092 128.744C74.092 131.036 75.78 132.784 75.948 132.732C76.108 132.68 74.704 131.076 75.204 129.028C75.296 128.656 75.576 127.588 76.688 126.748C78.04 125.728 79.688 125.756 79.656 125.608H79.66Z" fill="#FCF2D4"/>
<path id="Vector_67" d="M78.04 134.86C77.948 134.792 77.392 135.692 78.768 133.816C80.94 130.852 80.396 128.132 80.996 128.12C81.436 128.112 82.132 129.576 81.74 130.968C81.544 131.664 81.26 132.648 80.756 133.18C78.608 135.436 78.16 134.952 78.044 134.86H78.04Z" fill="#D8B759"/>
</g>
<g id="Group_17">
<g id="Group_18">
<path id="Vector_68" d="M93.088 135.456C90.456 135.456 88.312 132.832 88.312 129.604C88.312 126.376 90.452 123.752 93.088 123.752C95.724 123.752 97.864 126.376 97.864 129.604C97.864 132.832 95.724 135.456 93.088 135.456Z" fill="#FFF364"/>
<path id="Vector_69" d="M93.0881 123.952C95.6121 123.952 97.6641 126.488 97.6641 129.604C97.6641 132.72 95.6121 135.256 93.0881 135.256C90.5641 135.256 88.5121 132.72 88.5121 129.604C88.5121 126.488 90.5641 123.952 93.0881 123.952ZM93.0881 123.552C90.3401 123.552 88.1121 126.26 88.1121 129.604C88.1121 132.948 90.3401 135.656 93.0881 135.656C95.8361 135.656 98.0641 132.948 98.0641 129.604C98.0641 126.26 95.8361 123.552 93.0881 123.552Z" fill="#8C6239"/>
</g>
<path id="Vector_70" d="M95.16 125.396C95.116 125.192 91.864 124.792 90.336 126.252C89.592 126.964 89.592 127.796 89.592 128.532C89.592 130.824 91.28 132.572 91.448 132.52C91.608 132.468 90.204 130.864 90.704 128.816C90.796 128.444 91.076 127.376 92.188 126.536C93.54 125.516 95.188 125.544 95.156 125.396H95.16Z" fill="#FCF2D4"/>
<path id="Vector_71" d="M93.54 134.648C93.448 134.58 92.892 135.48 94.268 133.604C96.44 130.64 95.896 127.92 96.496 127.908C96.936 127.9 97.632 129.364 97.24 130.756C97.044 131.452 96.76 132.436 96.256 132.968C94.108 135.224 93.66 134.74 93.544 134.648H93.54Z" fill="#D8B759"/>
</g>
<g id="Group_19">
<g id="Group_20">
<path id="Vector_72" d="M109.572 134.464C106.94 134.464 104.796 131.84 104.796 128.612C104.796 125.384 106.936 122.76 109.572 122.76C112.208 122.76 114.348 125.384 114.348 128.612C114.348 131.84 112.208 134.464 109.572 134.464Z" fill="#FFF364"/>
<path id="Vector_73" d="M109.572 122.96C112.096 122.96 114.148 125.496 114.148 128.612C114.148 131.728 112.096 134.264 109.572 134.264C107.048 134.264 104.996 131.728 104.996 128.612C104.996 125.496 107.048 122.96 109.572 122.96ZM109.572 122.56C106.824 122.56 104.596 125.268 104.596 128.612C104.596 131.956 106.824 134.664 109.572 134.664C112.32 134.664 114.548 131.956 114.548 128.612C114.548 125.268 112.32 122.56 109.572 122.56Z" fill="#8C6239"/>
</g>
<path id="Vector_74" d="M111.648 124.404C111.604 124.2 108.352 123.8 106.824 125.26C106.08 125.972 106.08 126.804 106.08 127.54C106.08 129.832 107.768 131.58 107.936 131.528C108.096 131.476 106.692 129.872 107.192 127.824C107.284 127.452 107.564 126.384 108.676 125.544C110.028 124.524 111.676 124.552 111.644 124.404H111.648Z" fill="#FCF2D4"/>
<path id="Vector_75" d="M110.024 133.656C109.932 133.588 109.376 134.488 110.752 132.612C112.924 129.648 112.38 126.928 112.98 126.916C113.42 126.908 114.116 128.372 113.724 129.764C113.528 130.46 113.244 131.444 112.74 131.976C110.592 134.232 110.144 133.748 110.028 133.656H110.024Z" fill="#D8B759"/>
</g>
<g id="Group_21">
<g id="Group_22">
<path id="Vector_76" d="M125.072 134.252C122.44 134.252 120.296 131.628 120.296 128.4C120.296 125.172 122.436 122.548 125.072 122.548C127.708 122.548 129.848 125.172 129.848 128.4C129.848 131.628 127.708 134.252 125.072 134.252Z" fill="#FFF364"/>
<path id="Vector_77" d="M125.072 122.748C127.596 122.748 129.648 125.284 129.648 128.4C129.648 131.516 127.596 134.052 125.072 134.052C122.548 134.052 120.496 131.516 120.496 128.4C120.496 125.284 122.548 122.748 125.072 122.748ZM125.072 122.348C122.324 122.348 120.096 125.056 120.096 128.4C120.096 131.744 122.324 134.452 125.072 134.452C127.82 134.452 130.048 131.744 130.048 128.4C130.048 125.056 127.82 122.348 125.072 122.348Z" fill="#8C6239"/>
</g>
<path id="Vector_78" d="M127.148 124.192C127.104 123.988 123.852 123.588 122.324 125.048C121.58 125.76 121.58 126.592 121.58 127.328C121.58 129.62 123.268 131.368 123.436 131.316C123.596 131.264 122.192 129.66 122.692 127.612C122.784 127.24 123.064 126.172 124.176 125.332C125.528 124.312 127.176 124.34 127.144 124.192H127.148Z" fill="#FCF2D4"/>
<path id="Vector_79" d="M125.524 133.444C125.432 133.376 124.876 134.276 126.252 132.4C128.424 129.436 127.88 126.716 128.48 126.704C128.92 126.696 129.616 128.16 129.224 129.552C129.028 130.248 128.744 131.232 128.24 131.764C126.092 134.02 125.644 133.536 125.528 133.444H125.524Z" fill="#D8B759"/>
</g>
<g id="Group_23">
<g id="Group_24">
<path id="Vector_80" d="M93.612 137.456C91.904 136.336 91.004 133.836 91.204 132.972C91.432 131.988 93.38 131.908 93.464 131.904C93.508 131.904 93.552 131.904 93.604 131.904C94.388 131.904 95.764 132.128 95.976 132.976C96.188 133.84 95.232 136.412 93.616 137.456H93.612Z" fill="#CAD1DB"/>
<path id="Vector_81" d="M93.604 132.104C94.28 132.104 95.6 132.296 95.78 133.024C95.972 133.804 95.072 136.184 93.612 137.216C92.016 136.088 91.232 133.736 91.4 133.02C91.556 132.352 92.824 132.132 93.472 132.108C93.512 132.108 93.556 132.108 93.604 132.108M93.604 131.708C93.552 131.708 93.504 131.708 93.46 131.708C93.272 131.716 91.276 131.808 91.016 132.928C90.796 133.876 91.772 136.564 93.616 137.692C95.376 136.644 96.412 133.892 96.172 132.928C95.924 131.928 94.42 131.704 93.608 131.704L93.604 131.708Z" fill="#1B1464"/>
</g>
<path id="Vector_82" d="M93.6839 132.256C93.6679 132.168 92.6439 131.996 92.1639 132.624C91.9319 132.928 91.9319 133.284 91.9319 133.6C91.9319 134.584 92.4639 135.332 92.5159 135.312C92.5679 135.288 92.1239 134.6 92.2839 133.724C92.3119 133.564 92.3999 133.108 92.7519 132.748C93.1799 132.312 93.6959 132.324 93.6879 132.26L93.6839 132.256Z" fill="#FCF2D4"/>
<path id="Vector_83" d="M93.308 136.852C93.28 136.824 93.808 136.436 94.244 135.632C94.928 134.36 94.756 133.196 94.944 133.188C95.084 133.188 95.3 133.812 95.176 134.408C95.116 134.708 94.984 134.912 94.824 135.14C94.148 136.108 93.344 136.888 93.304 136.852H93.308Z" fill="#4B7C87"/>
</g>
<g id="Group_25">
<g id="Group_26">
<path id="Vector_84" d="M77.2521 137.804C75.5441 136.684 74.6441 134.184 74.8481 133.32C75.0761 132.336 77.0241 132.256 77.1081 132.252C77.1521 132.252 77.1961 132.252 77.2441 132.252C78.0281 132.252 79.4081 132.476 79.6161 133.324C79.8281 134.188 78.8721 136.76 77.2561 137.804H77.2521Z" fill="#CAD1DB"/>
<path id="Vector_85" d="M77.2441 132.448C77.9201 132.448 79.2401 132.64 79.4201 133.368C79.6121 134.148 78.7121 136.528 77.2521 137.56C75.6561 136.432 74.8721 134.08 75.0401 133.364C75.1961 132.696 76.4641 132.476 77.1121 132.452C77.1521 132.452 77.1961 132.452 77.2441 132.452M77.2441 132.052C77.1921 132.052 77.1441 132.052 77.1001 132.052C76.9121 132.06 74.9161 132.152 74.6561 133.272C74.4361 134.22 75.4121 136.908 77.2561 138.036C79.0161 136.988 80.0521 134.236 79.8121 133.272C79.5641 132.272 78.0601 132.048 77.2481 132.048L77.2441 132.052Z" fill="#1B1464"/>
</g>
<path id="Vector_86" d="M77.324 132.604C77.308 132.516 76.284 132.344 75.804 132.972C75.572 133.276 75.572 133.632 75.572 133.948C75.572 134.932 76.104 135.68 76.156 135.66C76.208 135.636 75.764 134.948 75.924 134.072C75.952 133.912 76.04 133.456 76.392 133.096C76.82 132.66 77.336 132.672 77.328 132.608L77.324 132.604Z" fill="#FCF2D4"/>
<path id="Vector_87" d="M76.9481 137.2C76.9201 137.172 77.4481 136.784 77.8841 135.98C78.5681 134.708 78.3961 133.544 78.5841 133.536C78.7241 133.536 78.9401 134.16 78.8161 134.756C78.7561 135.056 78.6241 135.26 78.4641 135.488C77.7881 136.456 76.9841 137.236 76.9441 137.2H76.9481Z" fill="#4B7C87"/>
</g>
<g id="Group_27">
<g id="Group_28">
<path id="Vector_88" d="M125.66 136.12C123.952 135 123.052 132.5 123.256 131.636C123.484 130.656 125.432 130.572 125.516 130.568C125.56 130.568 125.604 130.568 125.652 130.568C126.436 130.568 127.816 130.792 128.024 131.64C128.236 132.504 127.28 135.076 125.664 136.12H125.66Z" fill="#CAD1DB"/>
<path id="Vector_89" d="M125.652 130.768C126.328 130.768 127.648 130.96 127.828 131.688C128.02 132.468 127.12 134.848 125.66 135.88C124.064 134.752 123.28 132.4 123.448 131.684C123.604 131.016 124.872 130.796 125.52 130.772C125.56 130.772 125.604 130.772 125.652 130.772M125.652 130.372C125.6 130.372 125.552 130.372 125.508 130.372C125.32 130.38 123.324 130.472 123.064 131.592C122.844 132.54 123.82 135.228 125.664 136.356C127.424 135.308 128.46 132.556 128.22 131.592C127.972 130.592 126.468 130.368 125.656 130.368L125.652 130.372Z" fill="#1B1464"/>
</g>
<path id="Vector_90" d="M125.732 130.92C125.716 130.832 124.692 130.66 124.212 131.288C123.98 131.592 123.98 131.948 123.98 132.264C123.98 133.248 124.512 133.996 124.564 133.976C124.616 133.952 124.172 133.264 124.332 132.388C124.36 132.228 124.448 131.772 124.8 131.412C125.228 130.976 125.744 130.988 125.736 130.924L125.732 130.92Z" fill="#FCF2D4"/>
<path id="Vector_91" d="M125.356 135.516C125.328 135.488 125.856 135.1 126.292 134.296C126.976 133.024 126.804 131.86 126.992 131.852C127.132 131.852 127.348 132.476 127.224 133.072C127.164 133.372 127.032 133.576 126.872 133.804C126.196 134.772 125.392 135.552 125.352 135.516H125.356Z" fill="#4B7C87"/>
</g>
<g id="Group_29">
<g id="Group_30">
<path id="Vector_92" d="M109.3 136.468C107.592 135.348 106.692 132.848 106.896 131.984C107.124 131 109.072 130.92 109.156 130.916C109.2 130.916 109.244 130.916 109.296 130.916C110.08 130.916 111.456 131.14 111.668 131.988C111.88 132.852 110.924 135.424 109.308 136.468H109.3Z" fill="#CAD1DB"/>
<path id="Vector_93" d="M109.292 131.112C109.968 131.112 111.288 131.304 111.468 132.032C111.66 132.812 110.76 135.192 109.3 136.224C107.704 135.096 106.92 132.744 107.088 132.028C107.244 131.36 108.512 131.14 109.16 131.116C109.2 131.116 109.244 131.116 109.292 131.116M109.292 130.716C109.24 130.716 109.192 130.716 109.148 130.716C108.96 130.724 106.964 130.816 106.704 131.936C106.484 132.884 107.46 135.572 109.304 136.7C111.064 135.652 112.1 132.9 111.86 131.936C111.612 130.936 110.108 130.712 109.296 130.712L109.292 130.716Z" fill="#1B1464"/>
</g>
<path id="Vector_94" d="M109.372 131.264C109.356 131.176 108.332 131.004 107.852 131.632C107.62 131.936 107.62 132.292 107.62 132.608C107.62 133.592 108.152 134.34 108.204 134.32C108.256 134.296 107.812 133.608 107.972 132.732C108 132.572 108.088 132.116 108.44 131.756C108.868 131.32 109.384 131.332 109.376 131.268L109.372 131.264Z" fill="#FCF2D4"/>
<path id="Vector_95" d="M108.996 135.864C108.968 135.836 109.496 135.448 109.932 134.644C110.616 133.372 110.444 132.208 110.632 132.2C110.772 132.2 110.988 132.824 110.864 133.42C110.804 133.72 110.672 133.924 110.512 134.152C109.836 135.12 109.032 135.9 108.992 135.864H108.996Z" fill="#4B7C87"/>
</g>
<g id="Group_31">
<g id="Group_32">
<path id="Vector_96" d="M85.5 138.356C89.0104 138.356 91.856 135.209 91.856 131.328C91.856 127.447 89.0104 124.3 85.5 124.3C81.9897 124.3 79.144 127.447 79.144 131.328C79.144 135.209 81.9897 138.356 85.5 138.356Z" fill="#FFF364"/>
<path id="Vector_97" d="M85.5001 124.5C88.8961 124.5 91.6561 127.564 91.6561 131.328C91.6561 135.092 88.8921 138.156 85.5001 138.156C82.1081 138.156 79.3441 135.092 79.3441 131.328C79.3441 127.564 82.1081 124.5 85.5001 124.5ZM85.5001 124.1C81.8801 124.1 78.9441 127.336 78.9441 131.328C78.9441 135.32 81.8801 138.556 85.5001 138.556C89.1201 138.556 92.0561 135.32 92.0561 131.328C92.0561 127.336 89.1201 124.1 85.5001 124.1Z" fill="#8C6239"/>
</g>
<path id="Vector_98" d="M88.2321 126.3C88.1721 126.056 83.8841 125.576 81.8721 127.32C80.8921 128.168 80.8921 129.164 80.8921 130.04C80.8921 132.78 83.1161 134.868 83.3361 134.804C83.5441 134.744 81.6961 132.828 82.3561 130.38C82.4761 129.936 82.8441 128.66 84.3121 127.66C86.0961 126.444 88.2681 126.472 88.2241 126.3H88.2321Z" fill="#FCF2D4"/>
<path id="Vector_99" d="M86.0962 137.352C85.9762 137.268 85.2402 138.348 87.0562 136.104C89.9202 132.564 89.2002 129.316 89.9922 129.3C90.5722 129.288 91.4882 131.036 90.9722 132.7C90.7122 133.532 90.3402 134.708 89.6762 135.34C86.8482 138.036 86.2562 137.456 86.1002 137.348L86.0962 137.352Z" fill="#D8B759"/>
</g>
<g id="Group_33">
<g id="Group_34">
<path id="Vector_100" d="M85.3681 140.372C82.9001 138.62 81.6041 134.624 81.8961 133.248C82.2321 131.668 84.8601 131.52 85.1601 131.508C85.2201 131.508 85.2881 131.508 85.3561 131.508C85.6681 131.508 88.4001 131.556 88.7801 133.256C89.0881 134.636 87.7081 138.748 85.3681 140.38V140.372Z" fill="#CAD1DB"/>
<path id="Vector_101" d="M85.356 131.7C85.652 131.7 88.24 131.744 88.584 133.292C88.88 134.608 87.576 138.484 85.368 140.124C83.116 138.424 81.808 134.616 82.088 133.288C82.396 131.832 85.052 131.708 85.164 131.704C85.224 131.704 85.288 131.704 85.352 131.704M85.352 131.304C85.28 131.304 85.212 131.304 85.148 131.304C84.884 131.316 82.064 131.46 81.696 133.204C81.384 134.68 82.76 138.86 85.364 140.612C87.844 138.984 89.308 134.704 88.972 133.204C88.624 131.648 86.5 131.3 85.352 131.3V131.304Z" fill="#1B1464"/>
</g>
<path id="Vector_102" d="M85.4678 132.16C85.4478 132.024 84.0038 131.756 83.3238 132.728C82.9958 133.204 82.9958 133.756 82.9958 134.248C82.9958 135.78 83.7438 136.944 83.8198 136.908C83.8918 136.872 83.2678 135.804 83.4918 134.44C83.5318 134.192 83.6558 133.48 84.1518 132.92C84.7518 132.24 85.4838 132.256 85.4718 132.16H85.4678Z" fill="#FCF2D4"/>
<path id="Vector_103" d="M84.9359 139.312C84.8959 139.264 85.6439 138.664 86.2559 137.412C87.2199 135.436 86.9799 133.62 87.2439 133.612C87.4399 133.604 87.7479 134.584 87.5719 135.512C87.4839 135.976 87.2999 136.3 87.0759 136.652C86.1239 138.156 84.9839 139.372 84.9319 139.312H84.9359Z" fill="#4B7C87"/>
</g>
<g id="Group_35">
<g id="Group_36">
<path id="Vector_104" d="M117.488 137.152C113.984 137.152 111.132 134 111.132 130.124C111.132 126.248 113.984 123.096 117.488 123.096C120.992 123.096 123.844 126.248 123.844 130.124C123.844 134 120.992 137.152 117.488 137.152Z" fill="#FFF364"/>
<path id="Vector_105" d="M117.488 123.296C120.884 123.296 123.644 126.36 123.644 130.124C123.644 133.888 120.88 136.952 117.488 136.952C114.096 136.952 111.332 133.888 111.332 130.124C111.332 126.36 114.096 123.296 117.488 123.296ZM117.488 122.896C113.868 122.896 110.932 126.132 110.932 130.124C110.932 134.116 113.868 137.352 117.488 137.352C121.108 137.352 124.044 134.116 124.044 130.124C124.044 126.132 121.108 122.896 117.488 122.896Z" fill="#8C6239"/>
</g>
<path id="Vector_106" d="M120.22 125.096C120.16 124.852 115.872 124.372 113.86 126.116C112.88 126.964 112.88 127.96 112.88 128.836C112.88 131.576 115.104 133.664 115.324 133.6C115.532 133.54 113.684 131.624 114.344 129.176C114.464 128.732 114.832 127.456 116.3 126.456C118.084 125.24 120.256 125.268 120.212 125.096H120.22Z" fill="#FCF2D4"/>
<path id="Vector_107" d="M118.084 136.148C117.964 136.064 117.228 137.144 119.044 134.9C121.908 131.36 121.188 128.112 121.98 128.096C122.56 128.084 123.476 129.832 122.96 131.496C122.7 132.328 122.328 133.504 121.664 134.136C118.836 136.832 118.244 136.252 118.088 136.144L118.084 136.148Z" fill="#D8B759"/>
</g>
<g id="Group_37">
<g id="Group_38">
<path id="Vector_108" d="M117.772 139.464C115.304 137.712 114.008 133.716 114.3 132.34C114.636 130.76 117.264 130.612 117.564 130.6C117.624 130.6 117.692 130.6 117.76 130.6C118.072 130.6 120.804 130.648 121.184 132.348C121.492 133.728 120.112 137.836 117.772 139.472V139.464Z" fill="#CAD1DB"/>
<path id="Vector_109" d="M117.756 130.796C118.048 130.796 120.64 130.84 120.984 132.388C121.28 133.704 119.976 137.58 117.768 139.22C115.516 137.52 114.208 133.712 114.488 132.384C114.796 130.928 117.452 130.804 117.564 130.8C117.624 130.8 117.688 130.8 117.752 130.8M117.752 130.4C117.68 130.4 117.612 130.4 117.548 130.4C117.284 130.412 114.464 130.556 114.096 132.3C113.784 133.776 115.16 137.956 117.764 139.708C120.244 138.08 121.708 133.8 121.372 132.3C121.024 130.744 118.9 130.396 117.752 130.396V130.4Z" fill="#1B1464"/>
</g>
<path id="Vector_110" d="M117.868 131.252C117.848 131.116 116.404 130.848 115.724 131.82C115.396 132.296 115.396 132.848 115.396 133.34C115.396 134.872 116.144 136.036 116.22 136C116.292 135.964 115.668 134.896 115.892 133.532C115.932 133.284 116.056 132.572 116.552 132.012C117.152 131.332 117.884 131.348 117.872 131.252H117.868Z" fill="#FCF2D4"/>
<path id="Vector_111" d="M117.34 138.404C117.3 138.356 118.048 137.756 118.66 136.504C119.624 134.528 119.384 132.712 119.648 132.704C119.844 132.696 120.152 133.676 119.976 134.604C119.888 135.068 119.704 135.392 119.48 135.744C118.528 137.248 117.388 138.464 117.336 138.404H117.34Z" fill="#4B7C87"/>
</g>
<g id="Group_39">
<path id="Vector_112" d="M112.296 64.944H92.8959C90.245 64.944 88.0959 67.093 88.0959 69.744V95.96C88.0959 98.611 90.245 100.76 92.8959 100.76H112.296C114.947 100.76 117.096 98.611 117.096 95.96V69.744C117.096 67.093 114.947 64.944 112.296 64.944Z" fill="#F98D67" stroke="#C1272D" stroke-linecap="round" stroke-linejoin="round"/>
<path id="Vector_113" d="M98.008 66.92H94.032C92.3862 66.92 91.052 68.2542 91.052 69.9V78.004C91.052 79.6498 92.3862 80.984 94.032 80.984H98.008C99.6538 80.984 100.988 79.6498 100.988 78.004V69.9C100.988 68.2542 99.6538 66.92 98.008 66.92Z" fill="#666666"/>
<path id="Vector_114" d="M96.02 72.74C97.3543 72.74 98.436 71.8553 98.436 70.764C98.436 69.6727 97.3543 68.788 96.02 68.788C94.6857 68.788 93.604 69.6727 93.604 70.764C93.604 71.8553 94.6857 72.74 96.02 72.74Z" fill="#009EAA" stroke="black" stroke-miterlimit="10"/>
<path id="Vector_115" d="M96.02 77.796C97.3543 77.796 98.436 76.9113 98.436 75.82C98.436 74.7287 97.3543 73.844 96.02 73.844C94.6857 73.844 93.604 74.7287 93.604 75.82C93.604 76.9113 94.6857 77.796 96.02 77.796Z" fill="#009EAA" stroke="black" stroke-miterlimit="10"/>
<path id="Vector_116" d="M98.7479 79.996C99.4637 79.996 100.044 79.5071 100.044 78.904C100.044 78.3009 99.4637 77.812 98.7479 77.812C98.0321 77.812 97.4519 78.3009 97.4519 78.904C97.4519 79.5071 98.0321 79.996 98.7479 79.996Z" fill="#009EAA" stroke="black" stroke-miterlimit="10"/>
<path id="Vector_117" d="M96.1519 69.336C96.1359 69.26 95.1119 69.136 94.5399 69.556C93.6479 70.212 94.4639 71.76 94.5399 71.752C94.5959 71.748 94.2759 70.908 94.8079 70.212C95.1279 69.792 95.6119 69.552 95.6119 69.552C95.9279 69.396 96.1559 69.368 96.1479 69.332L96.1519 69.336Z" fill="white"/>
<path id="Vector_118" d="M96.3201 74.372C96.3041 74.296 95.2801 74.172 94.7081 74.592C93.8161 75.248 94.6321 76.796 94.7081 76.788C94.7641 76.784 94.4441 75.944 94.9761 75.248C95.2961 74.828 95.7801 74.588 95.7801 74.588C96.0961 74.432 96.3241 74.404 96.3161 74.368L96.3201 74.372Z" fill="white"/>
<path id="Vector_119" d="M98.9718 78.488C98.9638 78.46 98.4998 78.412 98.2398 78.572C97.8358 78.828 98.2038 79.428 98.2398 79.424C98.2638 79.424 98.1198 79.096 98.3598 78.828C98.5038 78.664 98.7238 78.572 98.7238 78.572C98.8678 78.512 98.9718 78.5 98.9678 78.488H98.9718Z" fill="white"/>
<path id="Vector_120" d="M114.68 90.432C114.66 92.536 114.18 95.376 111.728 97.244C109.7 98.788 107.352 98.888 107.432 99.44C107.548 100.268 112.972 101.336 115.22 99.44C116.36 98.476 116.184 97.164 116.024 94.604C115.556 87.14 116.116 83.404 115.756 83.396C115.544 83.392 115.212 84.664 114.68 90.428V90.432Z" fill="#D37366"/>
</g>
<g id="Group_40">
<g id="Group_41">
<g id="Vector_121">
<path d="M47.8359 81.592C50.5599 79.084 58.0919 72.832 69.2319 72.008C82.1079 71.052 96.4959 77.108 96.8239 83.108C96.9639 85.636 94.5079 86.488 86.4079 93.956C75.4399 104.064 76.3839 105.776 72.0479 107.828C62.9519 112.132 46.3559 110.472 38.2639 99.756C33.0119 92.8 31.1199 81.804 38.2639 73.524C45.0839 65.62 53.5519 64.696 64.4479 69.236" fill="#F4D160"/>
<path d="M47.8359 81.592C50.5599 79.084 58.0919 72.832 69.2319 72.008C82.1079 71.052 96.4959 77.108 96.8239 83.108C96.9639 85.636 94.5079 86.488 86.4079 93.956C75.4399 104.064 76.3839 105.776 72.0479 107.828C62.9519 112.132 46.3559 110.472 38.2639 99.756C33.0119 92.8 31.1199 81.804 38.2639 73.524C45.0839 65.62 53.5519 64.696 64.4479 69.236" stroke="#8C6239" stroke-linecap="round" stroke-linejoin="round"/>
</g>
<g id="Vector_122">
<path d="M89.7879 75.788C86.9439 75.46 75.4879 75.452 67.8279 79.32C63.6999 81.404 60.9839 84.028 59.3799 85.88" fill="#F4D160"/>
<path d="M89.7879 75.788C86.9439 75.46 75.4879 75.452 67.8279 79.32C63.6999 81.404 60.9839 84.028 59.3799 85.88" stroke="#8C6239" stroke-linecap="round" stroke-linejoin="round"/>
</g>
<g id="Vector_123">
<path d="M93.7279 78.312C90.8919 78.7 77.2399 80.968 71.0679 86.58C67.7399 89.604 65.9399 92.796 64.9719 94.972" fill="#F4D160"/>
<path d="M93.7279 78.312C90.8919 78.7 77.2399 80.968 71.0679 86.58C67.7399 89.604 65.9399 92.796 64.9719 94.972" stroke="#8C6239" stroke-linecap="round" stroke-linejoin="round"/>
</g>
<path id="Vector_124" opacity="0.59" d="M69.2359 70.996C69.2919 70.068 63.6759 68.42 57.9759 68.98C55.5639 69.216 51.4559 69.616 48.4039 72.512C44.3359 76.372 44.2839 82.64 45.5879 83.104C46.3199 83.368 47.0279 81.636 50.0919 79.068C55.3159 74.692 61.3039 72.988 63.0439 72.508C67.0399 71.412 69.2039 71.568 69.2359 70.996Z" fill="#D8B759"/>
<path id="Vector_125" opacity="0.59" d="M42.2039 102.78C42.8999 101.024 58.7399 108.616 69.7959 102.78C70.5239 102.396 73.4719 100.172 79.3679 95.716C82.3239 93.484 84.4719 91.812 87.8159 89.664C90.9879 87.624 94.9079 85.36 95.1359 85.628C95.2839 85.804 93.7439 86.944 89.5039 90.672C88.5719 91.492 87.1799 92.716 85.5639 94.204C83.8039 95.82 81.4079 98.024 78.8079 100.764C75.0239 104.748 75.7359 104.68 74.3039 105.808C70.3599 108.92 65.3159 109.172 61.9159 109.34C60.0319 109.432 53.0959 109.608 46.1479 105.808C44.5079 104.912 41.9239 103.5 42.2079 102.78H42.2039Z" fill="#D8B759"/>
<path id="Vector_126" opacity="0.59" d="M74.864 95.716C74.288 96.876 71.072 97.184 70.36 96.22C69.988 95.72 70.292 94.868 71.488 93.192C74.984 88.284 79.372 85.624 79.372 85.624C86.444 81.336 93.892 80.28 94.012 80.58C94.032 80.628 91.772 81.62 87.256 83.608C85.108 84.552 83.844 85.108 82.188 86.132C80.392 87.244 79.34 88.16 78.808 88.656C78.392 89.044 77.488 89.916 76.556 91.18C75.456 92.672 74.832 93.54 74.868 94.712C74.884 95.244 75.024 95.408 74.868 95.72L74.864 95.716Z" fill="#D8B759"/>
<path id="Vector_127" opacity="0.59" d="M89.5039 78.564C89.4599 78.4 85.8439 78.868 82.7479 79.572C80.6999 80.04 74.1039 81.696 66.9799 86.636C65.6599 87.552 58.0159 92.852 59.0959 94.708C59.6399 95.644 62.4159 95.716 64.1639 94.708C65.4599 93.964 65.3759 93.096 66.9799 90.672C68.7319 88.024 70.5679 86.432 70.9199 86.132C72.5479 84.744 73.9999 84.052 75.9879 83.104C79.3159 81.516 82.3839 80.64 86.1239 79.572C88.2439 78.968 89.5279 78.664 89.5039 78.564Z" fill="#D8B759"/>
<path id="Vector_128" opacity="0.59" d="M85.5639 75.536C82.9519 75.232 79.2359 75.016 74.8639 75.536C63.0759 76.944 52.2359 83.044 52.9039 85.12C53.1519 85.896 55.0359 86.232 56.2839 86.128C57.7519 86.004 58.7039 85.236 60.2239 84.112C62.6079 82.348 64.6079 81.024 65.2919 80.58C66.8199 79.592 69.2039 78.08 72.6119 77.048C74.4559 76.492 75.8799 76.292 77.6799 76.04C80.8519 75.596 83.5599 75.512 85.5639 75.536Z" fill="#D8B759"/>
<path id="Vector_129" d="M40.516 75.536C40.028 75.36 35.888 80.02 36.012 86.128C36.124 91.584 39.58 95.84 39.952 95.712C40.232 95.616 38.768 93.088 38.264 89.152C37.26 81.332 41.036 75.72 40.516 75.532V75.536Z" fill="#FCF2D4"/>
<path id="Vector_130" d="M74.8639 73.016C74.8199 72.78 69.5039 72.816 63.6039 74.528C54.9879 77.032 49.3639 81.876 49.5279 82.096C49.6719 82.288 54.2799 78.816 62.4799 76.044C69.5239 73.664 74.9119 73.256 74.8679 73.016H74.8639Z" fill="#FCF2D4"/>
<path id="Vector_131" d="M90.0679 77.048C90.0679 77.396 83.4999 76.712 76.5519 78.56C65.7479 81.436 59.4599 88.996 59.0959 88.648C58.8719 88.436 61.2879 85.616 64.7279 83.1C66.6319 81.704 73.7039 76.848 83.8719 76.54C87.0559 76.444 90.0639 76.808 90.0639 77.044L90.0679 77.048Z" fill="#FCF2D4"/>
<path id="Vector_132" d="M92.32 79.572C92.28 79.432 87.376 79.968 81.62 82.096C77.732 83.532 73.276 85.232 69.796 89.16C67.332 91.94 66.376 94.688 66.416 94.708C66.464 94.732 67.784 91.508 70.92 88.656C72.652 87.08 74.48 86.028 77.676 84.62C85.824 81.032 92.364 79.74 92.316 79.576L92.32 79.572Z" fill="#FCF2D4"/>
</g>
<path id="Vector_133" d="M76.556 94.708C76.432 94.604 79.236 91.344 83.312 88.148C88.936 83.744 94.468 81.44 94.572 81.588C94.672 81.728 90.06 83.956 83.872 88.652C79.332 92.096 76.668 94.804 76.552 94.704L76.556 94.708Z" fill="#FCF2D4"/>
</g>
<g id="Group_42">
<g id="Vector_134">
<path d="M157.212 76.456C154.488 73.948 146.956 67.696 135.816 66.872C122.94 65.916 108.552 71.972 108.224 77.972C108.084 80.5 110.54 81.352 118.64 88.82C129.608 98.928 128.664 100.64 133 102.692C142.096 106.996 158.692 105.336 166.784 94.62C172.036 87.664 173.928 76.668 166.784 68.388C159.964 60.484 151.496 59.56 140.6 64.1" fill="#F4D160"/>
<path d="M157.212 76.456C154.488 73.948 146.956 67.696 135.816 66.872C122.94 65.916 108.552 71.972 108.224 77.972C108.084 80.5 110.54 81.352 118.64 88.82C129.608 98.928 128.664 100.64 133 102.692C142.096 106.996 158.692 105.336 166.784 94.62C172.036 87.664 173.928 76.668 166.784 68.388C159.964 60.484 151.496 59.56 140.6 64.1" stroke="#8C6239" stroke-linecap="round" stroke-linejoin="round"/>
</g>
<g id="Vector_135">
<path d="M115.26 70.656C118.104 70.328 129.56 70.32 137.22 74.188C141.348 76.272 144.064 78.896 145.668 80.748" fill="#F4D160"/>
<path d="M115.26 70.656C118.104 70.328 129.56 70.32 137.22 74.188C141.348 76.272 144.064 78.896 145.668 80.748" stroke="#8C6239" stroke-linecap="round" stroke-linejoin="round"/>
</g>
<g id="Vector_136">
<path d="M111.32 73.18C114.156 73.568 127.808 75.836 133.98 81.448C137.308 84.472 139.108 87.664 140.076 89.84" fill="#F4D160"/>
<path d="M111.32 73.18C114.156 73.568 127.808 75.836 133.98 81.448C137.308 84.472 139.108 87.664 140.076 89.84" stroke="#8C6239" stroke-linecap="round" stroke-linejoin="round"/>
</g>
<path id="Vector_137" opacity="0.59" d="M135.816 65.864C135.76 64.936 141.376 63.288 147.076 63.848C149.488 64.084 153.596 64.484 156.648 67.38C160.716 71.24 160.768 77.508 159.464 77.972C158.732 78.236 158.024 76.504 154.96 73.936C149.736 69.56 143.748 67.856 142.008 67.376C138.012 66.28 135.848 66.436 135.816 65.864Z" fill="#D8B759"/>
<path id="Vector_138" opacity="0.59" d="M162.844 97.644C162.148 95.888 146.308 103.48 135.252 97.644C134.524 97.26 131.576 95.036 125.68 90.58C122.724 88.348 120.576 86.676 117.232 84.528C114.06 82.488 110.14 80.224 109.912 80.492C109.764 80.668 111.304 81.808 115.544 85.536C116.476 86.356 117.868 87.58 119.484 89.068C121.244 90.684 123.64 92.888 126.24 95.628C130.024 99.612 129.312 99.544 130.744 100.672C134.688 103.784 139.732 104.036 143.132 104.204C145.016 104.296 151.952 104.472 158.9 100.672C160.54 99.776 163.124 98.364 162.84 97.644H162.844Z" fill="#D8B759"/>
<path id="Vector_139" opacity="0.59" d="M130.184 90.584C130.76 91.744 133.976 92.052 134.688 91.088C135.06 90.588 134.756 89.736 133.56 88.06C130.064 83.152 125.676 80.492 125.676 80.492C118.604 76.204 111.156 75.148 111.036 75.448C111.016 75.496 113.276 76.488 117.792 78.476C119.94 79.42 121.204 79.976 122.86 81C124.656 82.112 125.708 83.028 126.24 83.524C126.656 83.912 127.56 84.784 128.492 86.048C129.592 87.54 130.216 88.408 130.18 89.58C130.164 90.112 130.024 90.276 130.18 90.588L130.184 90.584Z" fill="#D8B759"/>
<path id="Vector_140" opacity="0.59" d="M115.544 73.432C115.588 73.268 119.204 73.736 122.3 74.44C124.348 74.908 130.944 76.564 138.068 81.504C139.388 82.42 147.032 87.72 145.952 89.576C145.408 90.512 142.632 90.584 140.884 89.576C139.588 88.832 139.672 87.964 138.068 85.54C136.316 82.892 134.48 81.3 134.128 81C132.5 79.612 131.048 78.92 129.06 77.972C125.732 76.384 122.664 75.508 118.924 74.44C116.804 73.836 115.52 73.532 115.544 73.432Z" fill="#D8B759"/>
<path id="Vector_141" opacity="0.59" d="M119.484 70.404C122.096 70.1 125.812 69.884 130.184 70.404C141.972 71.812 152.812 77.912 152.144 79.988C151.896 80.764 150.012 81.1 148.764 80.996C147.296 80.872 146.344 80.104 144.824 78.98C142.44 77.216 140.44 75.892 139.756 75.448C138.228 74.46 135.844 72.948 132.436 71.916C130.592 71.36 129.168 71.16 127.368 70.908C124.196 70.464 121.488 70.38 119.484 70.404Z" fill="#D8B759"/>
<path id="Vector_142" d="M164.532 70.404C165.02 70.228 169.16 74.888 169.036 80.996C168.924 86.452 165.468 90.708 165.096 90.58C164.816 90.484 166.28 87.956 166.784 84.02C167.788 76.2 164.012 70.588 164.532 70.4V70.404Z" fill="#FCF2D4"/>
<path id="Vector_143" d="M130.184 67.88C130.228 67.644 135.544 67.68 141.444 69.392C150.06 71.896 155.684 76.74 155.52 76.96C155.376 77.152 150.768 73.68 142.568 70.908C135.524 68.528 130.136 68.12 130.18 67.88H130.184Z" fill="#FCF2D4"/>
<path id="Vector_144" d="M114.98 71.916C114.98 72.264 121.548 71.58 128.496 73.428C139.3 76.304 145.588 83.864 145.952 83.516C146.176 83.304 143.76 80.484 140.32 77.968C138.416 76.572 131.344 71.716 121.176 71.408C117.992 71.312 114.984 71.676 114.984 71.912L114.98 71.916Z" fill="#FCF2D4"/>
<path id="Vector_145" d="M112.728 74.44C112.768 74.3 117.672 74.836 123.428 76.964C127.316 78.4 131.772 80.1 135.252 84.028C137.716 86.808 138.672 89.556 138.632 89.576C138.584 89.6 137.264 86.376 134.128 83.524C132.396 81.948 130.568 80.896 127.372 79.488C119.224 75.9 112.684 74.608 112.732 74.444L112.728 74.44Z" fill="#FCF2D4"/>
</g>
</g>
<defs>
<clipPath id="clip0_122_2229">
<rect width="200" height="200" fill="white"/>
</clipPath>
</defs>
</svg>
