<svg width="45" height="45" viewBox="0 0 45 45" fill="none" xmlns="http://www.w3.org/2000/svg">
<path d="M44.965 23.8528C44.363 35.46 36.1118 44.5473 25.8001 44.9838C24.3048 45.0469 22.8448 44.9243 21.436 44.6357C20.485 44.4427 19.5565 44.1721 18.6567 43.8294C17.1598 42.8085 16.1561 40.9145 16.1561 38.7518C16.1561 35.4979 18.4262 32.859 21.2278 32.859C21.3511 32.859 21.4712 32.8626 21.5928 32.877C22.166 33.1169 22.7663 33.3027 23.3843 33.4199C23.9206 33.5192 24.4713 33.5733 25.0333 33.5733C30.7102 33.5733 35.2649 28.1476 34.831 21.6468C34.4692 16.2121 30.6974 11.9246 25.877 11.4701C21.5896 11.0678 17.8194 13.7681 16.1384 17.794C19.4668 19.0332 21.1702 20.3806 21.2486 21.8417C21.3703 24.1252 17.5169 26.6775 9.68505 29.5022C8.89419 29.7872 8.02808 29.6086 7.3781 29.026C1.91729 24.136 -0.860342 19.43 0.236302 17.0365C0.449227 16.5711 1.40339 14.8972 6.16618 15.101C6.72011 13.3009 7.47575 11.6054 8.3979 10.0433C9.9316 7.45131 11.9296 5.2363 14.2589 3.54979C17.3648 1.30411 21.0613 0 25.0301 0C36.4544 0 45.6406 10.8135 44.965 23.851V23.8528Z" fill="#240A6C"/>
</svg>
