<svg width="46" height="46" viewBox="0 0 46 46" fill="none" xmlns="http://www.w3.org/2000/svg">
<path d="M0.273437 30.2411L0.273439 15.8955C0.273439 14.7316 1.24761 13.7873 2.44834 13.7873L21.305 13.7873C21.7626 13.7873 22.1327 13.428 22.1327 12.9843L22.1327 1.33947C22.1327 0.640848 23.0026 0.29077 23.5131 0.783647L23.5252 0.795927L44.4057 21.0361C45.5627 22.1585 45.5627 23.9765 44.4057 25.0989L23.6702 45.2009C23.6128 45.2562 23.5539 45.3099 23.4935 45.3606C22.9634 45.8074 22.1327 45.4251 22.1327 44.7449C22.1327 41.9381 22.1327 35.4248 22.1327 33.1508C22.1327 32.707 21.7626 32.3493 21.305 32.3493L2.44833 32.3493C1.24761 32.3493 0.273437 31.405 0.273437 30.2411Z" fill="#240A6C"/>
</svg>
