<svg width="64" height="64" viewBox="0 0 64 64" fill="none" xmlns="http://www.w3.org/2000/svg">
<path d="M45.3057 13.7293C46.7193 15.9616 47.251 19.0189 47.251 20.2068C47.251 27.2624 39.0624 33.858 30.9539 33.8623C22.7527 33.8644 14.621 27.1189 14.6569 20.2068C14.6716 17.5863 15.2772 16.0123 16.4186 14.4804" stroke="#333333" stroke-linecap="round" stroke-linejoin="round"/>
<path d="M22.5859 8.31311C25.85 6.47114 29.2006 6.52389 30.9539 6.55132C36.7942 6.64416 40.8326 9.19084 41.9656 10.0749" stroke="#333333" stroke-linecap="round" stroke-linejoin="round"/>
<path d="M15.6445 14.6535C13.5873 13.5837 11.9922 11.2966 12.0154 8.75409C12.0491 5.10814 15.4335 2.35468 18.6216 2.14791C19.0984 2.11626 22.5861 1.26596 24.3479 4.79165" stroke="#333333" stroke-linecap="round" stroke-linejoin="round"/>
<path d="M37.5625 7.43328C37.5625 3.78522 40.5206 1.26596 44.1687 1.26596C48.0256 1.26596 50.6419 4.69882 50.7749 7.87215C50.8994 10.7965 48.9287 13.8306 46.3693 14.4783" stroke="#333333" stroke-linecap="round" stroke-linejoin="round"/>
<path d="M30.9538 18.004C35.5766 18.004 39.3217 20.9621 39.3217 24.6102C39.3217 28.2583 35.5745 31.2164 30.9538 31.2164C26.333 31.2164 22.5858 28.2583 22.5858 24.6102C22.5858 20.9621 26.333 18.004 30.9538 18.004ZM30.9538 16.7381C28.4345 16.7381 26.0545 17.523 24.2526 18.9451C22.3621 20.4389 21.3198 22.4496 21.3198 24.6102C21.3198 26.7708 22.3621 28.7837 24.2526 30.2754C26.0566 31.6996 28.4366 32.4824 30.9538 32.4824C33.4709 32.4824 35.853 31.6975 37.6549 30.2754C39.5454 28.7815 40.5877 26.7708 40.5877 24.6102C40.5877 22.4496 39.5454 20.4368 37.6549 18.9451C35.8509 17.5209 33.4709 16.7381 30.9538 16.7381Z" fill="#333333"/>
<path d="M18.1802 48.3954C21.8283 48.3954 24.7864 51.3536 24.7864 55.0016C24.7864 58.6497 21.8283 61.6078 18.1802 61.6078C14.5322 61.6078 11.5741 58.6497 11.5741 55.0016C11.5741 51.3536 14.5322 48.3954 18.1802 48.3954ZM18.1802 47.1295C13.8401 47.1295 10.3081 50.6615 10.3081 55.0016C10.3081 59.3418 13.8401 62.8738 18.1802 62.8738C22.5204 62.8738 26.0524 59.3418 26.0524 55.0016C26.0524 50.6615 22.5204 47.1295 18.1802 47.1295Z" fill="#333333"/>
<path d="M17.6001 46.4501C18.212 43.3696 19.3302 41.1964 19.9421 40.0275C20.7397 38.5062 21.9993 36.4638 23.9447 34.3602" stroke="#333333" stroke-linecap="round" stroke-linejoin="round"/>
<path d="M36.5706 59.2088C34.9966 59.4029 33.7095 59.4051 31.8359 59.4093C29.3609 59.4135 27.7321 59.4156 25.7065 59.0675" stroke="#333333" stroke-linecap="round" stroke-linejoin="round"/>
<path d="M40.2041 34.7421C41.5756 36.2908 45.8503 42.1395 46.8335 46.353" stroke="#333333" stroke-linecap="round" stroke-linejoin="round"/>
<path d="M45.4893 48.3954C49.1374 48.3954 52.0955 51.3536 52.0955 55.0016C52.0955 58.6497 49.1374 61.6078 45.4893 61.6078C41.8413 61.6078 38.8831 58.6497 38.8831 55.0016C38.8831 51.3536 41.8413 48.3954 45.4893 48.3954ZM45.4893 47.1295C41.1492 47.1295 37.6172 50.6615 37.6172 55.0016C37.6172 59.3418 41.1492 62.8738 45.4893 62.8738C49.8295 62.8738 53.3615 59.3418 53.3615 55.0016C53.3615 50.6615 49.8295 47.1295 45.4893 47.1295Z" fill="#333333"/>
<path d="M21.7042 32.9803C20.3919 33.3179 18.3684 34.0247 16.4189 35.624C13.5156 38.004 10.452 42.6332 12.0133 45.3149C12.3024 45.8108 12.9649 46.6083 14.6571 47.0767" stroke="#333333" stroke-linecap="round" stroke-linejoin="round"/>
<path d="M41.7715 33.2799C43.0839 33.6175 45.1073 34.3243 47.0569 35.9236C49.9601 38.3036 53.0237 42.9328 51.4624 45.6146C51.1733 46.1104 50.5108 46.9079 48.8186 47.3763" stroke="#333333" stroke-linecap="round" stroke-linejoin="round"/>
<path d="M24.7886 16.6832C25.7617 16.6832 26.5504 15.8944 26.5504 14.9214C26.5504 13.9484 25.7617 13.1596 24.7886 13.1596C23.8156 13.1596 23.0269 13.9484 23.0269 14.9214C23.0269 15.8944 23.8156 16.6832 24.7886 16.6832Z" fill="#4D4D4D"/>
<path d="M36.2413 16.6832C37.2143 16.6832 38.0031 15.8944 38.0031 14.9214C38.0031 13.9484 37.2143 13.1596 36.2413 13.1596C35.2683 13.1596 34.4795 13.9484 34.4795 14.9214C34.4795 15.8944 35.2683 16.6832 36.2413 16.6832Z" fill="#4D4D4D"/>
<path d="M30.9542 25.4921C31.9272 25.4921 32.716 24.7034 32.716 23.7304C32.716 22.7573 31.9272 21.9686 30.9542 21.9686C29.9812 21.9686 29.1924 22.7573 29.1924 23.7304C29.1924 24.7034 29.9812 25.4921 30.9542 25.4921Z" fill="#4D4D4D"/>
</svg>
