<svg width="62" height="62" viewBox="0 0 62 62" fill="none" xmlns="http://www.w3.org/2000/svg">
<g clip-path="url(#clip0_133_941)">
<path d="M58.2243 61.2293C57.1434 62.1841 55.4921 62.0849 54.5332 61.004L26.3211 29.2125L22.6755 38.2211C22.1692 39.4714 20.4435 39.5995 19.7553 38.4401L14.0368 28.7805C13.764 28.3197 13.2804 28.0221 12.7431 27.9828L1.52318 27.2037C0.17365 27.1107 -0.48355 25.5131 0.413383 24.4984L7.85752 16.0912C8.21505 15.6903 8.34732 15.1385 8.21918 14.6177L5.49532 3.73666C5.16878 2.4264 6.48732 1.3104 7.72938 1.84773L18.0483 6.30966C18.5422 6.52253 19.1084 6.4812 19.5652 6.196L29.0966 0.252263C30.2436 -0.462804 31.7172 0.444463 31.587 1.7878L30.5206 12.954C30.4689 13.4893 30.6859 14.0121 31.0972 14.3573L39.7152 21.5637C40.7526 22.4317 40.3434 24.1078 39.0208 24.4013L30.6756 26.2551L58.4495 57.5485C59.4064 58.6253 59.3072 60.2745 58.2243 61.2293Z" stroke="#333333" stroke-linecap="round" stroke-linejoin="round"/>
<path d="M34.1269 22.6775L25.7569 24.5313C25.4614 24.5975 25.2175 24.8021 25.1038 25.0831L21.8902 33.0109C21.605 33.7156 20.6336 33.7879 20.2472 33.1328L15.8927 25.7672C15.7398 25.5068 15.467 25.3394 15.1652 25.3187L6.61337 24.7215C5.85284 24.6677 5.48497 23.7687 5.98924 23.2004L11.6684 16.7937C11.8689 16.5685 11.9454 16.2585 11.871 15.965L9.7981 7.66733C9.61417 6.92953 10.3582 6.30333 11.0567 6.60506L18.9204 10.0109C19.1973 10.1308 19.5176 10.1081 19.7739 9.94686L27.0465 5.41673C27.6934 5.01373 28.52 5.52626 28.4477 6.28059L27.6293 14.7932C27.6004 15.0929 27.7223 15.3884 27.9538 15.5827L34.5216 21.08C35.1044 21.5677 34.873 22.5122 34.131 22.6775H34.1269Z" stroke="#333333" stroke-linecap="round" stroke-linejoin="round"/>
</g>
<defs>
<clipPath id="clip0_133_941">
<rect width="62" height="62" fill="white"/>
</clipPath>
</defs>
</svg>
