<svg width="63" height="63" viewBox="0 0 63 63" fill="none" xmlns="http://www.w3.org/2000/svg">
<g clip-path="url(#clip0_133_957)">
<path d="M30.7783 41.3217C30.6376 41.2398 30.2386 40.1121 30.1819 39.6291C30.1588 39.5892 30.1126 39.5241 30.0454 39.4569C29.4217 38.8458 27.9811 39.3288 27.9811 39.3267C27.7543 39.1545 28.0714 38.7492 28.1575 38.619C28.2436 38.4888 28.5334 38.0268 29.3923 37.7811L30.8896 37.6509C30.8896 37.6509 30.8413 37.6509 31.0891 37.6509C31.3369 37.6509 32.5864 37.7811 32.5864 37.7811C33.4453 38.0289 33.7351 38.4888 33.8212 38.619C33.9073 38.7492 34.2244 39.1545 33.9976 39.3267C33.9976 39.3267 32.557 38.8458 31.9333 39.4569C31.864 39.5241 31.8199 39.5892 31.7968 39.6291C31.7401 40.1121 31.3411 41.2398 31.2004 41.3217H30.7762H30.7783Z" fill="#333333"/>
<path d="M24.5076 37.5543C25.9597 37.5543 27.1368 35.8563 27.1368 33.7617C27.1368 31.6671 25.9597 29.9691 24.5076 29.9691C23.0556 29.9691 21.8784 31.6671 21.8784 33.7617C21.8784 35.8563 23.0556 37.5543 24.5076 37.5543Z" stroke="#333333" stroke-linecap="round" stroke-linejoin="round"/>
<path d="M24.8349 36.2082C26.1373 36.2082 27.1932 34.9878 27.1932 33.4824C27.1932 31.977 26.1373 30.7566 24.8349 30.7566C23.5324 30.7566 22.4766 31.977 22.4766 33.4824C22.4766 34.9878 23.5324 36.2082 24.8349 36.2082Z" fill="#333333"/>
<path d="M38.5818 37.8882C40.0339 37.8882 41.211 36.1902 41.211 34.0956C41.211 32.001 40.0339 30.303 38.5818 30.303C37.1298 30.303 35.9526 32.001 35.9526 34.0956C35.9526 36.1902 37.1298 37.8882 38.5818 37.8882Z" stroke="#333333" stroke-linecap="round" stroke-linejoin="round"/>
<path d="M38.2519 36.5421C39.5543 36.5421 40.6102 35.3217 40.6102 33.8163C40.6102 32.3109 39.5543 31.0905 38.2519 31.0905C36.9494 31.0905 35.8936 32.3109 35.8936 33.8163C35.8936 35.3217 36.9494 36.5421 38.2519 36.5421Z" fill="#333333"/>
<path d="M59.2837 15.8634C61.5034 16.9596 62.8012 19.8303 62.8096 22.365C62.8243 26.7057 59.0548 29.1564 58.8511 29.2845C59.2291 28.0959 61.1317 36.4266 60.6991 35.6979C59.8864 35.1729 59.0758 34.6479 58.2631 34.1208C60.4282 35.8218 61.4299 42.4893 58.3366 37.8063C59.3866 39.4863 61.0393 44.1063 57.9943 42.4515C59.4874 47.5062 58.4206 48.1047 57.8977 52.9767C52.8976 46.8321 56.4004 59.871 51.7615 52.2312C51.3331 58.3233 48.5254 51.0489 47.5342 56.1603C45.4216 53.1027 44.7286 54.8415 43.2376 57.4182C40.9339 55.9419 41.1733 54.2913 39.5101 57.5715C38.3845 55.8642 36.274 57.3006 35.3815 58.5984C34.3987 57.3468 32.6788 57.9621 31.9795 59.22C31.4713 57.8361 29.638 57.4245 28.7245 58.5984C27.8341 57.2985 25.7215 55.8621 24.598 57.5715C22.9117 54.3039 23.1973 55.9293 20.8705 57.4161C19.3438 54.8499 18.7222 53.0922 16.5739 56.1582C15.5743 51.0468 12.7855 58.3191 12.3487 52.2291C7.69929 59.8668 11.2168 46.83 6.21039 52.9746C5.68749 48.0984 4.62489 47.5083 6.11169 42.4494C3.06879 44.1063 4.71729 39.48 5.77149 37.8042C2.67819 42.4851 3.67569 35.8218 5.84499 34.1187C0.939386 38.5665 4.74249 31.0989 5.34309 29.3874C5.55309 28.9338 4.87689 27.3504 4.65849 28.1757C4.18809 27.8481 0.840686 25.4268 0.542486 21.1134C0.500486 20.4918 0.269486 17.1738 2.46189 14.9751C4.19439 13.2363 6.45819 13.1796 7.36749 13.1565C11.9245 13.0389 16.5109 16.4661 16.7776 15.9684C16.8133 15.9033 16.7797 15.7584 16.8784 15.3531C16.9435 15.0822 16.9771 14.9478 17.0233 14.8995C17.4118 14.5005 19.2031 16.3485 19.9213 15.855C19.999 15.8025 20.1313 15.4707 20.3938 14.8113C20.7214 13.986 20.7655 13.776 20.8936 13.7613C21.2548 13.7235 21.4963 15.3804 21.9268 15.3762C22.3699 15.372 22.6156 13.5912 22.8991 13.6206C23.1868 13.6521 23.1217 15.5232 23.4955 15.5862C23.8315 15.645 23.9827 14.1393 24.8206 13.8999C25.5283 13.6983 25.9714 14.6097 26.8324 14.3829C27.4267 14.2254 27.5443 13.7025 27.9748 13.7697C28.5124 13.8558 28.5901 14.721 29.0248 14.7189C29.5036 14.7189 29.8732 13.6668 30.1399 13.7844C30.1609 13.7928 30.1735 13.8054 30.1882 13.8222C31.0786 14.7798 31.3096 15.0213 31.4566 14.9814C31.7401 14.9058 31.6414 13.8075 31.822 13.7844C31.9879 13.7634 32.179 14.6748 32.326 14.6517C32.4961 14.6265 32.347 13.3497 32.6368 13.2552C32.914 13.167 33.145 14.2905 33.9178 14.4879C34.5436 14.6475 34.9237 14.0448 35.455 14.322C35.8057 14.5047 35.7049 14.8029 36.1522 15.0591C36.5554 15.2901 36.7612 15.12 37.1098 15.3993C37.3912 15.6261 37.408 15.8613 37.6075 15.8802C37.8553 15.9033 37.9267 15.5463 38.185 15.4812C38.71 15.3489 39.1069 16.6404 39.697 16.6278C40.3732 16.6131 40.7113 14.8911 41.1019 14.9625C41.4778 15.0318 41.2888 16.6509 41.8411 16.8609C42.4396 17.0898 43.3972 15.4686 43.7458 15.6849C44.0188 15.8529 43.6303 16.968 43.8613 17.0751C44.0713 17.1717 44.4451 16.2645 44.9491 16.2918C45.3691 16.3128 45.6085 16.9722 45.7555 17.2053C46.9315 19.0701 54.7561 13.6227 59.29 15.8613L59.2837 15.8634Z" stroke="#333333" stroke-linecap="round" stroke-linejoin="round"/>
<path d="M30.6417 41.16C30.7614 42.714 29.8395 44.121 28.5144 44.8707C27.8214 45.2634 27.0318 45.4923 26.2443 45.5931C25.4148 45.7002 24.5139 45.7191 23.7222 45.4104C22.9305 45.1017 22.4097 44.478 22.3026 43.6695C22.2648 43.3881 21.9036 43.2348 21.6558 43.302C21.3513 43.386 21.2505 43.6653 21.2883 43.9488C21.4122 44.8644 22.0338 45.6645 22.815 46.1307C23.7096 46.6641 24.7974 46.7586 25.8138 46.683C27.7626 46.5423 29.6841 45.7926 30.8349 44.1462C31.4376 43.2852 31.7694 42.2121 31.6875 41.1579C31.6665 40.8744 31.4607 40.6329 31.1625 40.6329C30.8958 40.6329 30.6165 40.8744 30.6375 41.1579L30.6417 41.16Z" fill="#333333"/>
<path d="M39.9425 43.6695C39.848 44.3751 39.4196 44.9421 38.798 45.2802C38.0567 45.6834 37.1642 45.6939 36.3431 45.6267C34.808 45.5007 33.1931 44.8959 32.2901 43.5813C31.7966 42.861 31.5362 42.0336 31.6034 41.1579C31.6244 40.8744 31.3472 40.6329 31.0784 40.6329C30.776 40.6329 30.5744 40.8744 30.5534 41.1579C30.4043 43.0941 31.6139 44.9085 33.275 45.8178C34.1444 46.2924 35.1062 46.5402 36.0848 46.6515C37.1138 46.767 38.1869 46.7208 39.1403 46.2798C40.0937 45.8388 40.8161 44.9673 40.9547 43.9488C40.9925 43.6674 40.8875 43.386 40.5872 43.302C40.3436 43.2348 39.9803 43.386 39.9404 43.6695H39.9425Z" fill="#333333"/>
</g>
<defs>
<clipPath id="clip0_133_957">
<rect width="63" height="63" fill="white" transform="translate(0.000488281)"/>
</clipPath>
</defs>
</svg>
