<svg width="61" height="61" viewBox="0 0 61 61" fill="none" xmlns="http://www.w3.org/2000/svg">
<path d="M45.3717 59.9264H15.498C13.8551 59.9264 12.5049 58.6149 12.4785 56.972C12.4155 53.1005 13.3549 46.8134 19.1438 41.0388C19.2597 40.9229 19.3857 40.8171 19.5199 40.7216C20.5447 39.9977 21.9762 38.7899 23.2084 36.9396C23.8184 36.0246 25.3373 33.7452 25.4491 30.9534C25.6545 25.9047 21.1364 22.3951 20.193 21.716C20.0994 21.6489 20.012 21.5798 19.9286 21.5025C18.2023 19.9328 14.8148 16.3846 13.2451 10.7543C12.69 8.75959 12.4765 6.91129 12.4358 5.32529C12.3931 3.62949 13.7595 2.23462 15.4553 2.23462H45.2579C46.9293 2.23462 48.2855 3.59085 48.2794 5.26225C48.2652 9.23335 47.1326 15.4798 41.0997 21.2992C40.9899 21.4049 40.872 21.5025 40.7459 21.5899C39.6825 22.3463 34.7191 26.1548 35.0058 31.2157C35.1502 33.7635 36.606 36.2726 36.8602 36.7118C37.7244 38.2043 38.7065 39.284 39.4547 39.9977C39.5442 40.0831 39.6418 40.1604 39.7414 40.2356C41.36 41.4231 44.7028 44.2372 46.7524 49.1233C47.9744 52.0391 48.3424 54.7516 48.3892 56.8459C48.4278 58.5356 47.0594 59.9223 45.3697 59.9223L45.3717 59.9264Z" stroke="#333333" stroke-miterlimit="10"/>
<path opacity="0.5" d="M23.1901 21.3419C22.5822 20.9352 21.0206 19.945 19.5566 18.0845C18.5785 16.8421 17.1857 15.0751 17.4399 13.8287C18.361 9.29844 41.7057 8.31633 43.2164 13.2167C43.6048 14.4814 42.6003 16.3297 42.1713 17.1186C40.9188 19.4204 39.0278 20.5895 38.1961 21.1426C36.1364 22.5151 33.3954 24.8941 30.5752 29.2942C27.7672 24.9368 25.136 22.6412 23.1922 21.3419H23.1901Z" fill="#333333"/>
<path opacity="0.5" d="M38.5194 45.2518C40.6218 46.5267 41.9252 48.2185 42.1529 48.5092C43.131 49.7516 44.5238 51.5186 44.2696 52.765C43.3485 57.2953 20.0038 58.2774 18.4931 53.377C18.1047 52.1123 19.1092 50.264 19.5382 49.4751C20.7806 47.1916 22.6024 46.0123 23.5134 45.4511C27.8586 42.7712 34.0765 42.5556 38.5173 45.2518H38.5194Z" fill="#333333"/>
<path opacity="0.5" d="M30.3983 33.7533C31.2405 33.7533 31.9233 33.0706 31.9233 32.2283C31.9233 31.3861 31.2405 30.7033 30.3983 30.7033C29.5561 30.7033 28.8733 31.3861 28.8733 32.2283C28.8733 33.0706 29.5561 33.7533 30.3983 33.7533Z" fill="#333333"/>
<path opacity="0.5" d="M30.5001 38.0233C31.0616 38.0233 31.5167 37.5681 31.5167 37.0067C31.5167 36.4452 31.0616 35.99 30.5001 35.99C29.9386 35.99 29.4834 36.4452 29.4834 37.0067C29.4834 37.5681 29.9386 38.0233 30.5001 38.0233Z" fill="#333333"/>
</svg>
