<svg width="78" height="78" viewBox="0 0 78 78" fill="none" xmlns="http://www.w3.org/2000/svg">
<g opacity="0.8" filter="url(#filter0_d_280_51)">
<rect x="4" width="70" height="70" rx="10" fill="white" fill-opacity="0.7" shape-rendering="crispEdges"/>
</g>
<g clip-path="url(#clip0_280_51)">
<path fill-rule="evenodd" clip-rule="evenodd" d="M63.3274 10.9637C64.5437 12.5708 65.0919 15.2349 65.3617 18.4737C65.7186 23.3069 65.862 29.1067 65.9991 35.0999C65.8217 41.2046 65.7494 47.3613 65.3617 51.7261C65.0558 55.0764 64.4056 57.3198 63.32 58.6805C61.939 60.0391 59.2896 61.1864 55.512 61.4583C50.9176 61.8503 45.2491 61.846 38.9954 62C32.0437 61.8811 27.3292 61.932 22.3831 61.4604C18.5248 61.1927 16.0008 60.0593 14.4477 58.6912C13.2972 57.1467 12.9605 55.5044 12.6418 51.6549C12.2434 47.2094 12.1552 41.1855 12.0044 35.1328C12.2307 29.112 12.2445 23.0435 12.645 18.5077C12.9137 14.929 13.3376 12.523 14.4243 10.9934C15.9487 9.6943 18.5492 9.04846 22.4288 8.72979C27.7403 8.10838 33.2706 7.98622 38.9879 8.00003C44.872 8.00959 50.5203 8.17743 55.5598 8.67349C58.9592 8.94542 61.7722 9.53072 63.3221 10.9637H63.3274Z" fill="#675CA8"/>
<path d="M38.31 18.3228C35.1585 18.3228 32.0777 19.2572 29.4573 21.008C26.8369 22.7589 24.7945 25.2473 23.5884 28.1588C22.3824 31.0703 22.0668 34.274 22.6817 37.3648C23.2965 40.4556 24.8141 43.2947 27.0426 45.5231C29.2711 47.7514 32.1104 49.269 35.2014 49.8838C38.2923 50.4986 41.4963 50.183 44.4079 48.9771C47.3196 47.7711 49.8082 45.7288 51.5591 43.1086C53.31 40.4883 54.2446 37.4077 54.2446 34.2563C54.2446 32.1639 53.8324 30.092 53.0316 28.1588C52.2308 26.2257 51.0571 24.4692 49.5774 22.9896C48.0978 21.51 46.3412 20.3364 44.4079 19.5356C42.4746 18.7349 40.4026 18.3228 38.31 18.3228ZM38.1199 25.1604C38.1408 25.0874 38.1772 25.0198 38.2265 24.9621C38.2758 24.9044 38.3369 24.8579 38.4056 24.8258C38.5128 24.7817 38.6276 24.7594 38.7434 24.7599C38.7434 24.7599 38.8847 24.7504 39.009 24.7546C43.2221 24.8672 46.8605 27.8585 47.3853 32.3889C47.4507 32.8522 47.4887 33.319 47.4989 33.7868C47.4989 33.9345 47.5053 34.2022 47.3237 34.3753C47.2556 34.4383 47.1726 34.4829 47.0825 34.5049C46.9513 34.4794 46.8312 34.4141 46.7383 34.318C46.634 34.1915 46.5769 34.0326 46.5769 33.8686C46.5328 33.0455 46.4158 32.2279 46.2274 31.4255C45.5273 28.4512 42.828 26.1058 39.7866 25.7659C39.4329 25.7266 39.0791 25.6873 38.7243 25.6713C38.4832 25.6607 38.2442 25.6161 38.1496 25.4589C38.1024 25.3667 38.0917 25.2601 38.1199 25.1604ZM39.7749 27.9605C39.6426 27.955 39.5112 27.9354 39.383 27.902C39.214 27.8574 39.0823 27.8213 38.9825 27.7055C38.9031 27.6078 38.8593 27.4861 38.8582 27.3603C38.8851 27.2516 38.9453 27.1539 39.0303 27.0809C39.1539 26.9943 39.3053 26.9565 39.4552 26.9747C41.9388 27.099 43.4091 28.5362 43.4091 28.5362C43.8575 28.9854 44.2366 29.4987 44.5341 30.0594C44.9648 30.8662 45.2275 31.7519 45.3063 32.663C45.326 32.8485 45.2971 33.0359 45.2224 33.2069C45.1856 33.3067 45.1215 33.3942 45.0376 33.4597C44.9443 33.5248 44.8326 33.5584 44.7189 33.5553C44.6387 33.5255 44.5662 33.4783 44.5064 33.4172C44.4391 33.352 44.3916 33.2692 44.3694 33.1782C44.2387 32.0384 44.0603 30.9252 43.3591 29.9628C42.4679 28.7444 41.208 28.2016 39.7749 27.9605ZM43.0224 32.2912C42.998 32.6216 42.8641 32.7437 42.8301 32.7724C42.7484 32.8384 42.649 32.8787 42.5444 32.8882C42.4356 32.8696 42.3347 32.8193 42.2544 32.7437C42.1572 32.6373 42.0995 32.5009 42.0908 32.3571C42.0578 32.0713 41.8528 31.1567 41.3854 30.735C41.0933 30.4716 40.6885 30.3324 40.0979 30.2464C39.861 30.2124 39.6305 30.1635 39.5476 30.0063C39.5064 29.9116 39.5037 29.8045 39.5402 29.7078C39.6368 29.3945 40.0171 29.3042 40.0469 29.2978C40.2987 29.3329 41.9102 29.5814 42.6474 30.7849C42.919 31.2388 43.0495 31.763 43.0224 32.2912ZM47.4607 41.1662C46.8562 41.9023 46.272 42.6778 45.556 43.2907C44.9409 43.8218 44.1378 43.8834 43.3379 43.5562C36.7697 40.8773 32.052 36.316 29.3336 29.7323C29.2656 29.5676 29.2103 29.3966 29.1519 29.2277C28.6431 27.7501 28.796 27.1765 30.0092 26.1823C30.409 25.8598 30.8265 25.5598 31.2595 25.2836C31.983 24.8141 32.7776 24.8194 33.3246 25.478C34.2443 26.5683 35.0867 27.7215 35.8455 28.9292C36.4021 29.8321 36.2035 30.3441 35.3866 31.024C35.1975 31.1812 34.9956 31.3224 34.8066 31.4786C34.3338 31.8716 34.1341 32.339 34.3423 32.9657C35.2559 35.6882 37.1638 37.4101 39.8217 38.3247C40.1308 38.4309 40.6142 38.1919 40.952 38.0007C41.2048 37.8573 41.3525 37.5312 41.5479 37.2869C42.0791 36.6262 42.9289 36.3468 43.6353 36.794C44.8952 37.5939 46.1031 38.4819 47.2875 39.3912C47.5414 39.5867 47.6062 40.0286 47.7401 40.3324C47.6296 40.6776 47.6147 40.9793 47.4607 41.1673V41.1662Z" fill="white"/>
</g>
<defs>
<filter id="filter0_d_280_51" x="0" y="0" width="78" height="78" filterUnits="userSpaceOnUse" color-interpolation-filters="sRGB">
<feFlood flood-opacity="0" result="BackgroundImageFix"/>
<feColorMatrix in="SourceAlpha" type="matrix" values="0 0 0 0 0 0 0 0 0 0 0 0 0 0 0 0 0 0 127 0" result="hardAlpha"/>
<feOffset dy="4"/>
<feGaussianBlur stdDeviation="2"/>
<feComposite in2="hardAlpha" operator="out"/>
<feColorMatrix type="matrix" values="0 0 0 0 0 0 0 0 0 0 0 0 0 0 0 0 0 0 0.25 0"/>
<feBlend mode="normal" in2="BackgroundImageFix" result="effect1_dropShadow_280_51"/>
<feBlend mode="normal" in="SourceGraphic" in2="effect1_dropShadow_280_51" result="shape"/>
</filter>
<clipPath id="clip0_280_51">
<rect width="54" height="54" fill="white" transform="translate(12 8)"/>
</clipPath>
</defs>
</svg>
