<svg width="78" height="78" viewBox="0 0 78 78" fill="none" xmlns="http://www.w3.org/2000/svg">
<g opacity="0.8" filter="url(#filter0_d_280_52)">
<rect x="4" width="70" height="70" rx="10" fill="white" fill-opacity="0.7" shape-rendering="crispEdges"/>
</g>
<g clip-path="url(#clip0_280_52)">
<path d="M56.55 8H21.45C16.2309 8 12 12.2309 12 17.45V52.55C12 57.7691 16.2309 62 21.45 62H56.55C61.7691 62 66 57.7691 66 52.55V17.45C66 12.2309 61.7691 8 56.55 8Z" fill="#4489C8"/>
<path d="M20.1169 24.6808H26.5969C26.7324 24.6806 26.8647 24.7217 26.9762 24.7985C27.0878 24.8754 27.1733 24.9845 27.2213 25.1111C27.9385 26.959 30.9169 34.1899 33.6422 34.7805C35.6672 34.7805 34.95 25.1618 32.3766 25.1618C31.7016 25.1618 33.5747 23.9636 33.7013 23.913C36.0928 23.2575 38.6166 23.2575 41.0081 23.913C42.2991 24.453 42.5185 25.9633 42.5522 27.2458C42.586 28.5283 41.1178 33.9958 43.05 34.5865C45.5813 35.3627 48.8381 27.423 49.5975 25.474C49.6469 25.3489 49.7329 25.2416 49.8444 25.1663C49.9558 25.091 50.0874 25.0512 50.2219 25.0521H57.436C57.5474 25.0517 57.6573 25.079 57.7556 25.1314C57.854 25.1839 57.9379 25.2599 57.9997 25.3527C58.0615 25.4454 58.0994 25.552 58.11 25.663C58.1206 25.774 58.1035 25.8859 58.0603 25.9886C56.5743 29.3786 54.7928 32.6312 52.7363 35.7086C52.5614 35.9626 52.4794 36.269 52.504 36.5764C52.5286 36.8837 52.6583 37.1732 52.8713 37.3961C55.0313 39.708 60.9375 46.2555 57.5625 46.2555H50.281C50.0928 46.256 49.9066 46.2163 49.735 46.1392C49.5633 46.0621 49.41 45.9493 49.2853 45.8083C48.1547 44.5596 44.8641 41.0833 43.3791 41.3618C42.1472 41.5896 42.0291 43.6821 42.0881 45.049C42.1068 45.4016 41.9864 45.7475 41.753 46.0125C41.5196 46.2775 41.1916 46.4405 40.8394 46.4665C39.5485 46.5424 37.785 46.5761 37.6247 46.5677C32.4778 46.2386 29.4319 42.8046 26.521 38.974C23.4718 34.9128 21.0932 30.3892 19.4756 25.5752C19.4426 25.4733 19.4339 25.3651 19.4504 25.2593C19.4668 25.1535 19.5079 25.053 19.5703 24.966C19.6327 24.8789 19.7147 24.8078 19.8096 24.7583C19.9046 24.7087 20.0098 24.6822 20.1169 24.6808Z" fill="white"/>
</g>
<defs>
<filter id="filter0_d_280_52" x="0" y="0" width="78" height="78" filterUnits="userSpaceOnUse" color-interpolation-filters="sRGB">
<feFlood flood-opacity="0" result="BackgroundImageFix"/>
<feColorMatrix in="SourceAlpha" type="matrix" values="0 0 0 0 0 0 0 0 0 0 0 0 0 0 0 0 0 0 127 0" result="hardAlpha"/>
<feOffset dy="4"/>
<feGaussianBlur stdDeviation="2"/>
<feComposite in2="hardAlpha" operator="out"/>
<feColorMatrix type="matrix" values="0 0 0 0 0 0 0 0 0 0 0 0 0 0 0 0 0 0 0.25 0"/>
<feBlend mode="normal" in2="BackgroundImageFix" result="effect1_dropShadow_280_52"/>
<feBlend mode="normal" in="SourceGraphic" in2="effect1_dropShadow_280_52" result="shape"/>
</filter>
<clipPath id="clip0_280_52">
<rect width="54" height="54" fill="white" transform="translate(12 8)"/>
</clipPath>
</defs>
</svg>
