<svg width="78" height="78" viewBox="0 0 78 78" fill="none" xmlns="http://www.w3.org/2000/svg">
<g opacity="0.8" filter="url(#filter0_d_280_54)">
<rect x="4" width="70" height="70" rx="10" fill="white" fill-opacity="0.7" shape-rendering="crispEdges"/>
</g>
<g clip-path="url(#clip0_280_54)">
<path fill-rule="evenodd" clip-rule="evenodd" d="M63.3275 10.9637C64.5439 12.5708 65.092 15.2349 65.3618 18.4737C65.7188 23.3069 65.8622 29.1067 65.9992 35.0999C65.8218 41.2046 65.7496 47.3613 65.3618 51.7261C65.0559 55.0764 64.4058 57.3198 63.3201 58.6805C61.9391 60.0391 59.2897 61.1864 55.5122 61.4583C50.9177 61.8503 45.2493 61.846 38.9955 62C32.0438 61.8811 27.3293 61.932 22.3832 61.4604C18.5249 61.1927 16.0009 60.0593 14.4478 58.6912C13.2973 57.1467 12.9606 55.5044 12.6419 51.6549C12.2435 47.2094 12.1554 41.1855 12.0045 35.1328C12.2308 29.112 12.2446 23.0435 12.6451 18.5077C12.9138 14.929 13.3377 12.523 14.4244 10.9934C15.9488 9.6943 18.5494 9.04846 22.4289 8.72979C27.7404 8.10838 33.2707 7.98622 38.9881 8.00003C44.8721 8.00959 50.5204 8.17743 55.56 8.67349C58.9593 8.94542 61.7723 9.53072 63.3222 10.9637H63.3275Z" fill="#25D366"/>
<path d="M49.5014 22.9627C48.0374 21.4891 46.2955 20.3207 44.3766 19.5252C42.4578 18.7296 40.4001 18.3228 38.3228 18.3282C29.612 18.3282 22.5232 25.4165 22.52 34.129C22.5166 36.9019 23.2443 39.6268 24.6298 42.0289L22.3883 50.2177L30.7656 48.0199C33.0826 49.282 35.679 49.9434 38.3175 49.9436H38.3239C47.0348 49.9436 54.1225 42.8542 54.1267 34.1417C54.1331 32.0652 53.7276 30.0079 52.9337 28.0891C52.1397 26.1702 50.9732 24.4278 49.5014 22.9627ZM38.3228 47.2742H38.3175C35.9654 47.2746 33.6564 46.6424 31.6325 45.444L31.1534 45.1593L26.1818 46.4637L27.5086 41.6167L27.1963 41.1196C26.1135 39.3956 25.4462 37.4436 25.2472 35.4175C25.0482 33.3915 25.3228 31.347 26.0494 29.4452C26.776 27.5435 27.9348 25.8367 29.4341 24.4596C30.9334 23.0824 32.7324 22.0725 34.6889 21.5097C36.6455 20.9469 38.7061 20.8465 40.7081 21.2165C42.7101 21.5864 44.5987 22.4167 46.2248 23.6416C47.8509 24.8665 49.1701 26.4526 50.0781 28.2746C50.9862 30.0967 51.4583 32.1049 51.4571 34.1407C51.455 41.383 45.5624 47.2742 38.3228 47.2742Z" fill="white"/>
<path d="M45.5284 37.4434C45.1332 37.2458 43.1913 36.2908 42.8302 36.1591C42.469 36.0274 42.2045 35.9615 41.9421 36.3567C41.6797 36.7519 40.9223 37.641 40.6917 37.9044C40.4612 38.1678 40.2307 38.2008 39.8366 38.0032C39.4425 37.8056 38.1698 37.3892 36.6614 36.0433C35.4875 34.996 34.695 33.7064 34.4645 33.3081C34.234 32.9097 34.4401 32.6994 34.6377 32.5018C34.8151 32.3244 35.0329 32.0408 35.2304 31.8103C35.3929 31.6108 35.526 31.389 35.6256 31.1517C35.6781 31.0428 35.7026 30.9225 35.6968 30.8018C35.6911 30.681 35.6553 30.5636 35.5927 30.4602C35.4939 30.2626 34.7046 28.3187 34.3753 27.5284C34.0566 26.7583 33.7294 26.8635 33.4872 26.8507C33.245 26.838 32.9932 26.8369 32.7309 26.8369C32.5308 26.8422 32.334 26.8888 32.1528 26.9738C31.9717 27.0588 31.81 27.1804 31.6781 27.3309C31.3159 27.726 30.2971 28.681 30.2971 30.6238C30.2971 32.5666 31.7121 34.4479 31.9097 34.7081C32.1073 34.9684 34.694 38.9571 38.6553 40.6694C39.3904 40.9862 40.1418 41.2638 40.9063 41.5011C41.7118 41.7459 42.5634 41.7994 43.3932 41.6573C44.1517 41.5436 45.7302 40.7013 46.0585 39.7803C46.3867 38.8593 46.3878 38.0669 46.289 37.9023C46.1902 37.7376 45.9225 37.6356 45.5284 37.4434Z" fill="white"/>
</g>
<defs>
<filter id="filter0_d_280_54" x="0" y="0" width="78" height="78" filterUnits="userSpaceOnUse" color-interpolation-filters="sRGB">
<feFlood flood-opacity="0" result="BackgroundImageFix"/>
<feColorMatrix in="SourceAlpha" type="matrix" values="0 0 0 0 0 0 0 0 0 0 0 0 0 0 0 0 0 0 127 0" result="hardAlpha"/>
<feOffset dy="4"/>
<feGaussianBlur stdDeviation="2"/>
<feComposite in2="hardAlpha" operator="out"/>
<feColorMatrix type="matrix" values="0 0 0 0 0 0 0 0 0 0 0 0 0 0 0 0 0 0 0.25 0"/>
<feBlend mode="normal" in2="BackgroundImageFix" result="effect1_dropShadow_280_54"/>
<feBlend mode="normal" in="SourceGraphic" in2="effect1_dropShadow_280_54" result="shape"/>
</filter>
<clipPath id="clip0_280_54">
<rect width="54" height="54" fill="white" transform="translate(12 8)"/>
</clipPath>
</defs>
</svg>
