<svg width="78" height="78" viewBox="0 0 78 78" fill="none" xmlns="http://www.w3.org/2000/svg">
<g opacity="0.8" filter="url(#filter0_d_280_49)">
<rect x="4" width="70" height="70" rx="10" fill="white" fill-opacity="0.7" shape-rendering="crispEdges"/>
</g>
<g clip-path="url(#clip0_280_49)">
<path d="M66 50.8816C66 57.5789 60.5684 63 53.8816 63H24.1184C17.4316 63 12 57.5684 12 50.8816V21.1184C12 14.4211 17.4316 9 24.1184 9H53.8816C60.5684 9 66 14.4211 66 21.1184V50.8816Z" fill="#EF3F38"/>
<path d="M36.4265 21.1816H34.7496L33.6105 25.5375L32.4292 21.1816H30.6785C31.0265 22.2047 31.3957 23.2488 31.7437 24.2719C32.2816 25.8223 32.6085 26.993 32.7562 27.784V32.277H34.4226V27.784L36.4265 21.1816ZM40.8773 29.6086V26.7082C40.8773 25.8223 40.7296 25.1789 40.4132 24.757C40.0019 24.1875 39.4113 23.9133 38.6625 23.9133C37.9136 23.9133 37.3335 24.198 36.9117 24.757C36.5953 25.1789 36.4476 25.8223 36.4476 26.7082V29.6086C36.4476 30.484 36.5953 31.1379 36.9117 31.5598C37.323 32.1187 37.9136 32.4035 38.6625 32.4035C39.4113 32.4035 39.9914 32.1187 40.4132 31.5598C40.7191 31.1379 40.8773 30.484 40.8773 29.6086ZM39.3691 29.8828C39.3691 30.6527 39.1371 31.0324 38.6519 31.0324C38.1667 31.0324 37.9347 30.6527 37.9347 29.8828V26.4023C37.9347 25.6324 38.1667 25.2527 38.6519 25.2527C39.1371 25.2527 39.3691 25.6324 39.3691 26.4023V29.8828ZM46.4144 32.277V24.0082H44.9167V30.3363C44.5792 30.8004 44.2734 31.043 43.9675 31.043C43.7671 31.043 43.6511 30.927 43.6195 30.6949C43.5984 30.6422 43.5984 30.4629 43.5984 30.1148V24.0187H42.1007V30.5578C42.1007 31.1379 42.1535 31.5387 42.2378 31.7918C42.3855 32.2137 42.723 32.4035 43.2082 32.4035C43.7566 32.4035 44.3261 32.066 44.9167 31.391V32.2875H46.4144V32.277Z" fill="white"/>
<path d="M41.7209 40.6196C41.4784 40.6196 41.2252 40.7356 40.9827 40.9782V45.9669C41.2252 46.2095 41.4784 46.3255 41.7209 46.3255C42.1428 46.3255 42.3643 45.9669 42.3643 45.2181V41.7271C42.3643 40.9993 42.1428 40.6196 41.7209 40.6196Z" fill="white"/>
<path d="M47.2266 40.6196C46.7309 40.6196 46.4883 40.9993 46.4883 41.7587V42.5181H47.9648V41.7587C47.9648 40.9993 47.7117 40.6196 47.2266 40.6196Z" fill="white"/>
<path d="M50.8441 36.4642C50.5488 35.1563 49.473 34.1966 48.1863 34.0489C45.1382 33.7114 42.0585 33.7114 39 33.7114C35.9308 33.7114 32.8511 33.7114 29.8136 34.0489C28.5269 34.186 27.4617 35.1563 27.1558 36.4642C26.7234 38.331 26.7234 40.356 26.7234 42.2649C26.7234 44.1739 26.7234 46.2095 27.1558 48.0657C27.4511 49.3735 28.5269 50.3333 29.8031 50.481C32.8511 50.8185 35.9308 50.8185 39 50.8185C42.0691 50.8185 45.1488 50.8185 48.1968 50.481C49.4835 50.3333 50.5488 49.3735 50.8546 48.0657C51.2871 46.2095 51.2871 44.1739 51.2871 42.2649C51.2765 40.3454 51.2765 38.3204 50.8441 36.4642ZM33.7265 38.1306H31.9441V47.57H30.2882V38.1306H28.5585V36.5802H33.7265V38.1306ZM38.2089 47.57H36.7218V46.6735C36.1312 47.3485 35.5722 47.6755 35.0238 47.6755C34.5492 47.6755 34.2117 47.4856 34.064 47.0638C33.9796 46.8106 33.9375 46.4204 33.9375 45.8509V39.3751H35.4246V45.4079C35.4246 45.756 35.4246 45.9353 35.4351 45.988C35.4667 46.22 35.5828 46.336 35.7832 46.336C36.0785 46.336 36.3949 46.104 36.7218 45.6399V39.3856H38.2089V47.57ZM43.8515 45.1126C43.8515 45.872 43.7988 46.4099 43.7039 46.7579C43.5035 47.3696 43.1132 47.6755 42.5121 47.6755C41.9847 47.6755 41.4785 47.3802 40.9828 46.7685V47.5595H39.4957V36.5802H40.9828V40.1661C41.4574 39.5755 41.9742 39.2802 42.5121 39.2802C43.1027 39.2802 43.5035 39.586 43.7039 40.2083C43.7988 40.5353 43.8515 41.0837 43.8515 41.8536V45.1126ZM49.4414 43.7521H46.4777V45.197C46.4777 45.9563 46.7203 46.336 47.2371 46.336C47.5957 46.336 47.8171 46.1356 47.9015 45.7454C47.9121 45.661 47.9332 45.3341 47.9332 44.7435H49.4414V44.9544C49.4414 45.429 49.4203 45.756 49.4097 45.9142C49.357 46.2411 49.241 46.5364 49.0617 46.8001C48.6503 47.3907 48.0386 47.686 47.2687 47.686C46.4882 47.686 45.8976 47.4013 45.4757 46.8528C45.1593 46.4415 45.0011 45.7981 45.0011 44.9333V42.0646C45.0011 41.1892 45.1382 40.5458 45.4546 40.1345C45.8871 39.5755 46.4777 39.3013 47.2371 39.3013C47.9753 39.3013 48.566 39.5755 48.9878 40.1345C49.2937 40.5458 49.4519 41.1892 49.4519 42.0646V43.7521H49.4414Z" fill="white"/>
</g>
<defs>
<filter id="filter0_d_280_49" x="0" y="0" width="78" height="78" filterUnits="userSpaceOnUse" color-interpolation-filters="sRGB">
<feFlood flood-opacity="0" result="BackgroundImageFix"/>
<feColorMatrix in="SourceAlpha" type="matrix" values="0 0 0 0 0 0 0 0 0 0 0 0 0 0 0 0 0 0 127 0" result="hardAlpha"/>
<feOffset dy="4"/>
<feGaussianBlur stdDeviation="2"/>
<feComposite in2="hardAlpha" operator="out"/>
<feColorMatrix type="matrix" values="0 0 0 0 0 0 0 0 0 0 0 0 0 0 0 0 0 0 0.25 0"/>
<feBlend mode="normal" in2="BackgroundImageFix" result="effect1_dropShadow_280_49"/>
<feBlend mode="normal" in="SourceGraphic" in2="effect1_dropShadow_280_49" result="shape"/>
</filter>
<clipPath id="clip0_280_49">
<rect width="54" height="54" fill="white" transform="translate(12 9)"/>
</clipPath>
</defs>
</svg>
