<?xml version="1.0" encoding="UTF-8"?>
<svg id="_Слой_1" data-name="Слой 1" xmlns="http://www.w3.org/2000/svg" xmlns:xlink="http://www.w3.org/1999/xlink" viewBox="0 0 300 300">
  <defs>
    <style>
      .cls-1 {
        fill: url(#_Безымянный_градиент_24);
      }
    </style>
    <linearGradient id="_Безымянный_градиент_24" data-name="Безымянный градиент 24" x1="150" y1="300" x2="150" y2="0" gradientUnits="userSpaceOnUse">
      <stop offset="0" stop-color="#009ee2"/>
      <stop offset=".08" stop-color="#08a0d0"/>
      <stop offset=".25" stop-color="#1aa5ae"/>
      <stop offset=".43" stop-color="#27a994"/>
      <stop offset=".61" stop-color="#31ab81"/>
      <stop offset=".8" stop-color="#37ad75"/>
      <stop offset="1" stop-color="#39ae72"/>
    </linearGradient>
  </defs>
  <path class="cls-1" d="m299.84,146.25c2.21,26.18-19.01,47.71-45.29,47.71h-60.35c-.13,0-.24.11-.24.24v60.35c0,26.28-21.53,47.5-47.71,45.29-22.53-1.9-40.22-20.79-40.22-43.81v-61.83c0-.13-.11-.24-.24-.24h-60.48C20.81,193.97,0,174.51,0,150.01c0-12.16,4.91-23.13,12.88-31.09,7.97-7.97,18.93-12.88,31.09-12.88h61.83c.13,0,.24-.11.24-.24v-60.48C106.03,20.81,125.49,0,149.99,0c12.16,0,23.13,4.91,31.09,12.88,7.97,7.97,12.88,18.93,12.88,31.09v61.83c0,.13.11.24.24.24h61.83c23.02,0,41.91,17.69,43.81,40.22Z"/>
</svg>