<svg width="200" height="200" viewBox="0 0 200 200" fill="none" xmlns="http://www.w3.org/2000/svg">
<g id="cow-m 2" clip-path="url(#clip0_131_832)">
<g id="Vector">
<path d="M178.65 63.02C179.67 65.03 181.12 68.3 182.02 72.53C182.89 76.63 183.55 83.1 176.4 109.39C173.24 121.02 171.17 126.88 171.91 133.17C172.03 134.16 172.41 136.83 171.91 140.3C171.26 144.9 169.52 147.81 168.54 149.81C163.42 160.31 169.37 166.16 164.05 174.78C161.69 178.61 157.31 182.92 153.94 181.91C152.67 181.53 151.41 180.36 151.13 178.94C150.59 176.22 153.93 174.11 156.19 171.21C159.77 166.62 159.89 160.16 159.56 147.43C159.26 135.93 158.44 129.59 158.44 129.59C156.33 116.22 154.91 102.01 152.82 85.59" fill="#F5F2DF"/>
<path d="M178.65 63.02C179.67 65.03 181.12 68.3 182.02 72.53C182.89 76.63 183.55 83.1 176.4 109.39C173.24 121.02 171.17 126.88 171.91 133.17C172.03 134.16 172.41 136.83 171.91 140.3C171.26 144.9 169.52 147.81 168.54 149.81C163.42 160.31 169.37 166.16 164.05 174.78C161.69 178.61 157.31 182.92 153.94 181.91C152.67 181.53 151.41 180.36 151.13 178.94C150.59 176.22 153.93 174.11 156.19 171.21C159.77 166.62 159.89 160.16 159.56 147.43C159.26 135.93 158.44 129.59 158.44 129.59C156.33 116.22 154.91 102.01 152.82 85.59" stroke="#947100" stroke-miterlimit="10"/>
</g>
<g id="Vector_2">
<path d="M66.7899 78.31C63.8299 84.81 63.9499 89.54 64.5399 92.58C65.8599 99.4 70.2299 101.25 74.6499 110.42C75.5699 112.32 75.4199 112.32 79.1399 124.69C84.3499 141.99 85.4799 144.75 85.8799 150.85C86.2599 156.57 86.6399 163.68 82.5099 167.5C79.6399 170.15 75.6599 170.22 75.7699 171.07C75.8199 171.45 76.6699 171.83 84.7599 172.26C89.5899 172.52 92.0099 172.64 92.6299 172.26C96.6099 169.82 94.6299 160.32 93.7499 147.29C93.2599 139.96 94.1199 146.48 93.7499 121.13C93.6099 111.33 93.2999 98.42 92.6299 83.08" fill="#F5F2DF"/>
<path d="M66.7899 78.31C63.8299 84.81 63.9499 89.54 64.5399 92.58C65.8599 99.4 70.2299 101.25 74.6499 110.42C75.5699 112.32 75.4199 112.32 79.1399 124.69C84.3499 141.99 85.4799 144.75 85.8799 150.85C86.2599 156.57 86.6399 163.68 82.5099 167.5C79.6399 170.15 75.6599 170.22 75.7699 171.07C75.8199 171.45 76.6699 171.83 84.7599 172.26C89.5899 172.52 92.0099 172.64 92.6299 172.26C96.6099 169.82 94.6299 160.32 93.7499 147.29C93.2599 139.96 94.1199 146.48 93.7499 121.13C93.6099 111.33 93.2999 98.42 92.6299 83.08" stroke="#947100" stroke-miterlimit="10"/>
</g>
<path id="Vector_3" d="M83.2001 166.04C85.2501 166.29 86.0801 168.38 89.4201 168.86C92.3501 169.28 94.2401 168.04 94.7501 168.86C95.2901 169.73 93.7001 172.05 92.0901 173.56C88.5001 176.92 82.8001 178.13 77.8801 176.38C76.2501 175.8 75.0301 175.01 74.3301 174.5C78.4201 167.2 81.2901 165.81 83.2101 166.04H83.2001Z" fill="#27200E"/>
<path id="Vector_4" d="M32.57 52.32C39.45 51.11 41.58 53.13 51.67 52.32C54.99 52.05 54.03 51.89 60.66 51.13C67.59 50.33 71.54 49.88 76.39 49.94C84.21 50.04 83.75 51.35 89.87 51.13C96.62 50.88 97.78 49.27 104.48 48.75C109.84 48.34 112.45 49.11 119.09 49.94C128.06 51.06 134.88 51.05 141.56 51.13C157.29 51.32 159.8 49.69 166.28 52.32C169.05 53.44 174.77 55.85 178.64 61.83C182.77 68.21 182.47 75.08 182.01 83.23C181.36 94.75 180.86 103.63 175.27 111.77C166.1 125.11 149.74 127.05 138.19 128.42C128.63 129.55 120.06 130.57 110.55 126.45C104.13 123.67 100.52 119.96 93.25 120.09C89.16 120.16 88.71 121.36 79.77 123.66C70.28 126.1 65.53 127.32 61.79 126.04C55.03 123.73 51.53 116.27 48.31 109.39C43.7 99.56 45.49 96.05 40.44 89.17C36.93 84.39 35.55 85.4 30.33 79.66C27.68 76.74 17.19 65.22 20.22 58.26C21.99 54.18 27.76 53.16 32.58 52.31L32.57 52.32Z" fill="#F5F2DF" stroke="#947100" stroke-miterlimit="10"/>
<path id="Vector_5" d="M168.12 134.06C167.54 136.07 165.81 138.9 162.97 139.65C161.41 140.07 160.41 139.62 159.15 139.07C159.13 140.51 158.59 142.04 157.58 142.86C156.03 144.11 154.3 142.92 154.21 142.86L153.27 137.8C152.42 137.81 151.61 137.89 150.82 137.98C151.31 139.72 150.83 142.19 149.44 143.31C147.89 144.56 146.16 143.37 146.07 143.31L145.01 137.64C143.88 137.24 142.9 136.73 142.9 136.73C141.71 136.1 140.87 135.46 140.3 134.99C136.64 132 134.79 130.51 134.11 128.46C132.72 124.31 135.96 120.32 136.18 120.07C139.58 116.01 145.57 115.61 148.55 115.4C149.55 115.34 150.44 115.28 151.64 115.4C157.58 116.03 161.35 120.16 162.98 121.93C165.49 124.68 169.56 129.14 168.13 134.06H168.12Z" fill="#CCA68F" stroke="#AA4700" stroke-miterlimit="10"/>
<g id="Vector_6">
<path d="M55.6102 82.64C52.6502 89.14 52.7702 93.87 53.3602 96.91C54.6802 103.73 59.0502 105.58 63.4702 114.75C64.3902 116.65 64.2402 116.65 67.9602 129.02C73.1702 146.32 74.3002 149.08 74.7002 155.18C75.1502 161.92 74.5002 167.19 71.3302 171.83C70.3602 173.25 68.4502 175.58 69.0802 176.59C69.5402 177.32 71.0102 176.85 73.5702 176.59C78.8902 176.05 80.0302 177.45 81.4402 176.59C85.4202 174.15 83.4402 164.65 82.5602 151.62C82.0702 144.29 82.9302 150.81 82.5602 125.46C82.4202 115.66 82.1102 102.75 81.4402 87.41" fill="#F5F2DF"/>
<path d="M55.6102 82.64C52.6502 89.14 52.7702 93.87 53.3602 96.91C54.6802 103.73 59.0502 105.58 63.4702 114.75C64.3902 116.65 64.2402 116.65 67.9602 129.02C73.1702 146.32 74.3002 149.08 74.7002 155.18C75.1502 161.92 74.5002 167.19 71.3302 171.83C70.3602 173.25 68.4502 175.58 69.0802 176.59C69.5402 177.32 71.0102 176.85 73.5702 176.59C78.8902 176.05 80.0302 177.45 81.4402 176.59C85.4202 174.15 83.4402 164.65 82.5602 151.62C82.0702 144.29 82.9302 150.81 82.5602 125.46C82.4202 115.66 82.1102 102.75 81.4402 87.41" stroke="#947100" stroke-miterlimit="10"/>
</g>
<path id="Vector_7" opacity="0.2" d="M167.96 134.37C167.38 136.38 165.65 139.21 162.81 139.96C161.25 140.38 160.25 139.94 158.99 139.39C158.97 140.83 158.43 142.35 157.42 143.17C155.87 144.43 154.14 143.23 154.05 143.17L153.11 138.12C152.26 138.13 151.45 138.2 150.66 138.3C151.15 140.04 150.67 142.51 149.28 143.63C147.73 144.88 146 143.69 145.91 143.63L144.85 137.96C143.72 137.57 142.74 137.04 142.74 137.04C142.1 136.7 141.57 136.36 141.12 136.05C141.12 136.05 140.63 135.71 140.14 135.3C138.44 133.89 136.93 132.65 135.95 130.81C135.51 129.98 134.84 128.4 134.83 126.05C136.61 127.93 139.58 130.49 143.82 132C145.28 132.52 147.56 133.3 150.56 133.19C154.56 133.04 157.51 131.39 160.67 129.62C163.01 128.31 164.81 126.99 165.97 126.05C167.62 128.45 168.85 131.32 167.96 134.37Z" fill="#6B574C"/>
<g id="Vector_8">
<path d="M127.52 87.4C129.44 92.42 133.04 99.89 139.88 106.43C146.39 112.65 150.11 112.56 154.49 118.32C160.13 125.74 157 129.9 161.23 143.29C166.64 160.42 176.55 166 173.59 174.21C171.86 179.02 166.93 181.57 167.97 183.72C168.97 185.79 174.26 184.98 174.71 184.91C175.77 184.75 178.57 184.36 180.33 182.53C182.98 179.77 182.5 175.1 181.45 168.26C179.69 156.78 177.61 147.48 176.96 144.48C175.6 138.21 174.92 133.93 173.59 125.45C170.75 107.37 169.32 98.33 170.22 93.34C172.05 83.15 176.88 76.98 173.59 69.56C172.6 67.33 171.23 65.78 170.22 64.8" fill="#F5F2DF"/>
<path d="M127.52 87.4C129.44 92.42 133.04 99.89 139.88 106.43C146.39 112.65 150.11 112.56 154.49 118.32C160.13 125.74 157 129.9 161.23 143.29C166.64 160.42 176.55 166 173.59 174.21C171.86 179.02 166.93 181.57 167.97 183.72C168.97 185.79 174.26 184.98 174.71 184.91C175.77 184.75 178.57 184.36 180.33 182.53C182.98 179.77 182.5 175.1 181.45 168.26C179.69 156.78 177.61 147.48 176.96 144.48C175.6 138.21 174.92 133.93 173.59 125.45C170.75 107.37 169.32 98.33 170.22 93.34C172.05 83.15 176.88 76.98 173.59 69.56C172.6 67.33 171.23 65.78 170.22 64.8" stroke="#947100" stroke-miterlimit="10"/>
</g>
<path id="Vector_9" d="M72.3598 171.26C74.2798 171.55 75.0598 173.96 78.1798 174.52C80.9298 175.01 82.6998 173.57 83.1698 174.52C83.6698 175.53 82.1798 178.21 80.6698 179.95C77.3098 183.84 71.9698 185.23 67.3598 183.21C65.8298 182.54 64.6898 181.63 64.0298 181.04C67.8698 172.6 70.5498 170.99 72.3498 171.26H72.3598Z" fill="#27200E"/>
<path id="Vector_10" d="M170.7 179.13C172.5 179.42 173.22 181.83 176.14 182.39C178.71 182.88 180.37 181.44 180.81 182.39C181.28 183.4 179.89 186.08 178.48 187.82C175.34 191.71 170.35 193.1 166.04 191.08C164.61 190.41 163.55 189.5 162.93 188.91C166.51 180.47 169.02 178.86 170.71 179.13H170.7Z" fill="#27200E"/>
<path id="Vector_11" d="M154.48 171.99C156.16 172.22 156.84 174.14 159.58 174.59C161.99 174.98 163.54 173.83 163.95 174.59C164.39 175.39 163.09 177.53 161.76 178.92C158.81 182.02 154.14 183.13 150.1 181.52C148.76 180.98 147.76 180.26 147.18 179.79C150.54 173.06 152.89 171.78 154.47 171.99H154.48Z" fill="#27200E"/>
<path id="Vector_12" d="M166.25 52.91C168.57 49.98 178.49 52.01 184.26 58.26C187.15 61.39 188.85 70.3 192.13 87.99C194.04 98.31 194.28 100.98 194.38 102.26C195.06 111.04 193.89 112.48 195.5 117.72C197.34 123.68 198.27 124.77 198.87 128.42C199 129.22 198.85 128.62 198.87 135.55C198.89 141.7 199 142.64 198.49 144.49C197.49 148.15 195.16 151.29 194.37 151.01C193.6 150.74 195.03 147.56 194.37 142.69C193.82 138.59 192.3 137.5 191 133.18C189.76 129.05 189.87 125.85 189.88 122.48C189.88 119.25 189.94 101.58 186.51 85.62C183.86 73.28 180.93 70.34 178.64 68.97C175.78 67.26 173.68 67.86 170.77 65.4C166.72 61.96 164.35 55.3 166.24 52.91H166.25Z" fill="#F5F2DF" stroke="#947100" stroke-miterlimit="10"/>
<path id="Vector_13" d="M87.63 98.69C86.36 99.7 84.34 97.78 83.14 98.69C81.97 99.58 82.8 102.21 83.14 105.82C83.64 111.15 82.85 116.41 82.02 116.52C80.66 116.7 80.19 103.08 74.72 101.52C71.65 100.65 70.15 104.55 65.73 103.9C60.56 103.14 57.09 97.36 56.74 96.77C54.49 92.93 55.13 90.4 53.37 89.64C51.2 88.7 48.93 91.98 46.75 93.6C46.15 92.23 45.35 90.79 44.15 89.18C42.43 86.84 41.23 85.89 39.82 84.85C37.95 74.74 38.22 59.3 41.79 51.95C45.31 52.1 48.49 52.88 55.39 52.32C56.57 52.22 57.21 52.14 57.83 52.05C58.75 52.95 59.29 53.81 61.23 55.17C66.72 59 73.25 59.66 75.84 59.93C80.05 60.36 81.89 59.82 82.58 61.12C83.8 63.39 78.16 67.03 79.21 70.63C79.93 73.11 82.88 72.52 85.39 76.11C86.58 77.81 86.93 79.62 87.64 83.24C88.33 86.81 87.66 86.06 88.2 94.41C88.34 96.6 88.48 98.04 87.64 98.7L87.63 98.69Z" fill="#964A28"/>
<g id="Group">
<path id="Vector_14" d="M26.2902 49.72C25.4902 49.24 24.7502 48.81 24.1002 48.45C17.3702 44.7 14.0202 44.36 12.3602 44.31C12.1002 44.3 11.9402 44.3 11.8102 44.3C11.5802 44.31 11.4302 44.33 11.0502 44.31C7.76021 44.23 4.12021 42.92 0.220215 39.59C0.250215 39.47 0.290215 39.36 0.340215 39.24C0.420215 39.07 0.510215 38.92 0.610215 38.78C2.57021 36.28 9.36022 39.04 10.3902 39.47C12.4402 40.33 12.9202 40.89 14.0902 41.53C14.2702 41.64 14.7602 41.89 15.6002 42.23C19.0602 43.62 22.1102 43.86 24.0802 45.68C25.1602 46.69 26.0202 48.28 26.2702 49.71L26.2902 49.72Z" fill="#38180D"/>
<path id="Vector_15" d="M26.37 50.71C26.34 51.14 26.25 51.55 26.06 51.9C25.13 53.53 23.16 52.8 16.93 53.28C11.96 53.67 10.98 53.94 9.09998 53.28C6.38998 52.33 4.80998 50.31 3.87998 49.14C1.95998 46.71 -0.530025 42.11 0.229975 39.59C4.12997 42.92 7.76998 44.23 11.06 44.31C11.44 44.32 11.58 44.31 11.82 44.3C11.95 44.3 12.11 44.3 12.37 44.31C14.03 44.37 17.38 44.7 24.11 48.45C24.76 48.81 25.51 49.24 26.3 49.72C26.37 50.07 26.39 50.4 26.38 50.71H26.37Z" fill="#77381F" stroke="#553900" stroke-linecap="round" stroke-linejoin="round"/>
<path id="Vector_16" d="M26.7099 40.15C24.2399 40.88 22.4199 42.97 21.4899 44.03C19.4299 46.39 19.6099 47.69 17.5799 50.5C16.3499 52.21 16.1599 51.81 15.4199 52.88C14.9199 53.61 13.3899 56.08 13.6599 62.25C13.9099 68 15.3199 67.53 14.9599 71.2C14.6199 74.67 13.0699 78.63 12.3499 80.26C11.8299 81.45 11.2799 82.48 11.0499 84.14C10.8899 85.26 10.3999 88.67 12.3499 90.61C13.7499 92 15.7299 91.97 18.8699 91.9C22.9899 91.82 26.0599 90.82 26.6999 90.61C33.3899 88.37 37.3799 84.06 38.4399 82.85C39.3399 81.82 41.9599 78.67 43.6599 73.79C45.5999 68.2 45.2099 63.51 44.9599 60.85C44.5799 56.8 44.1599 52.3 41.0499 47.91C38.0599 43.7 31.8999 38.61 26.6999 40.15H26.7099Z" fill="#964A28" stroke="#553900" stroke-miterlimit="10"/>
<path id="Vector_17" d="M30.6198 40.17C28.0998 39.96 26.1098 41.13 25.3998 41.55C23.7698 42.53 22.9198 43.69 21.4898 45.69C18.9698 49.21 17.4498 51.33 17.5798 53.97C17.6998 56.38 19.0598 56.39 20.1898 59.49C21.7798 63.86 21.1298 69.4 18.8898 73.29C17.0698 76.45 14.5198 77.96 14.9798 78.81C15.3098 79.42 16.6998 78.71 18.8898 78.81C23.4298 79.01 25.5798 82.38 26.7198 81.57C27.9198 80.72 25.3698 77.1 25.4198 71.91C25.4698 65.85 29.0298 60.84 31.9398 56.73C36.0698 50.9 38.7098 50.01 38.4598 47.07C38.1698 43.71 34.3698 40.47 30.6298 40.17H30.6198Z" fill="#FDFBEE"/>
<path id="Vector_18" d="M10.41 89.17C10.47 90.3 11.81 91.17 12.99 91.93C13.72 92.4 15.55 93.43 19.54 93.31C23.57 93.19 27.12 93.08 28.47 90.55C29.55 88.52 29.02 85.32 27.36 83.65C23 79.27 10.21 85.7 10.4 89.17H10.41Z" fill="#D9A387"/>
<path id="Vector_19" d="M8.44978 88.48C8.83978 90.15 11.4798 91.3 13.6698 91.24C16.0798 91.18 16.5398 89.71 18.8898 89.86C20.7498 89.98 20.9998 90.95 22.7998 91.24C25.1398 91.62 28.2198 90.58 29.3198 88.48C31.2998 84.69 26.6798 77.68 22.7998 77.44C20.8198 77.32 20.2098 79.04 17.5798 78.82C15.0398 78.61 14.1998 76.88 12.3598 77.44C11.0698 77.83 10.1298 79.1 9.74978 80.2C9.22978 81.73 10.0298 82.27 9.74978 84.34C9.41978 86.79 8.14978 87.21 8.44978 88.48Z" fill="#B3684B"/>
<path id="Vector_20" d="M20.8398 83.65C23.3598 80.99 23.4498 80.89 23.4498 80.89C23.4498 80.89 25.9398 81.41 26.0598 82.27C26.1498 82.91 24.9098 83.57 24.7598 83.65C23.1998 84.47 21.5198 83.92 20.8498 83.65H20.8398Z" fill="#85372D"/>
<path id="Vector_21" d="M15.7198 82.89C13.1998 80.23 13.1098 80.13 13.1098 80.13C13.1098 80.13 10.6198 80.65 10.4998 81.51C10.4098 82.15 11.6498 82.81 11.7998 82.89C13.3598 83.71 15.0398 83.16 15.7098 82.89H15.7198Z" fill="#85372D"/>
<path id="Vector_22" d="M33.88 67.08C35.3215 67.08 36.49 65.8443 36.49 64.32C36.49 62.7957 35.3215 61.56 33.88 61.56C32.4386 61.56 31.27 62.7957 31.27 64.32C31.27 65.8443 32.4386 67.08 33.88 67.08Z" fill="#DB8245" stroke="#351F00" stroke-width="0.25" stroke-miterlimit="10"/>
<path id="Vector_23" d="M33.6389 67.1038C34.7351 67.0258 35.5558 66.0069 35.4719 64.828C35.3881 63.649 34.4314 62.7566 33.3351 62.8346C32.2388 62.9126 31.4181 63.9315 31.502 65.1104C31.5859 66.2893 32.5426 67.1818 33.6389 67.1038Z" fill="black"/>
<path id="Vector_24" d="M17.5001 65.7C18.9416 65.7 20.1101 64.4643 20.1101 62.94C20.1101 61.4157 18.9416 60.18 17.5001 60.18C16.0587 60.18 14.8901 61.4157 14.8901 62.94C14.8901 64.4643 16.0587 65.7 17.5001 65.7Z" fill="#DB8245" stroke="#351F00" stroke-width="0.25" stroke-miterlimit="10"/>
<path id="Vector_25" d="M17.2619 65.7299C18.3582 65.6518 19.1789 64.6329 19.095 63.454C19.0111 62.2751 18.0544 61.3826 16.9581 61.4606C15.8619 61.5386 15.0411 62.5576 15.125 63.7365C15.2089 64.9154 16.1656 65.8079 17.2619 65.7299Z" fill="black"/>
<path id="Vector_26" d="M34.5401 64.32C34.8991 64.32 35.1901 64.0111 35.1901 63.63C35.1901 63.2489 34.8991 62.94 34.5401 62.94C34.1812 62.94 33.8901 63.2489 33.8901 63.63C33.8901 64.0111 34.1812 64.32 34.5401 64.32Z" fill="white"/>
<path id="Vector_27" d="M17.5802 62.94C17.9392 62.94 18.2302 62.6311 18.2302 62.25C18.2302 61.8689 17.9392 61.56 17.5802 61.56C17.2212 61.56 16.9302 61.8689 16.9302 62.25C16.9302 62.6311 17.2212 62.94 17.5802 62.94Z" fill="white"/>
<path id="Vector_28" d="M39.1001 51.9C41.1501 51.94 42.7701 48.31 43.0101 47.76C43.8201 45.95 43.6901 45.55 44.3101 45C46.5801 43 51.9301 46.78 52.1401 46.38C52.3601 45.95 46.5901 40.48 43.0101 42.24C41.6701 42.9 41.8401 43.86 39.1001 46.38C37.4501 47.9 36.5501 48.19 36.4901 49.14C36.4101 50.38 37.8001 51.87 39.1001 51.9Z" fill="#38180D"/>
<path id="Vector_29" d="M38.4498 51.21C38.5598 52.31 40.3798 53.17 41.7098 53.28C42.5198 53.35 43.3398 53.09 44.9698 52.59C46.0198 52.27 46.7898 51.96 46.9298 51.9C50.7098 50.36 52.6998 49.55 52.7998 48.45C52.9698 46.5 47.3198 43.29 44.3198 45C43.7298 45.34 43.8198 45.49 42.3598 47.07C39.7498 49.89 38.3498 50.21 38.4498 51.21Z" fill="#77381F" stroke="#553900" stroke-linecap="round" stroke-linejoin="round"/>
</g>
<path id="Vector_30" d="M135.39 87.27C134.7 88.58 133.73 88.11 129.77 90.84C128.96 91.4 126.12 93.36 124.15 95.6C119.41 101 121.43 106.12 118.53 107.49C114.95 109.18 108.19 103.04 105.05 96.79C103.75 94.2 102.49 91.69 102.8 88.47C103.51 81.25 111.29 79.14 110.67 74.2C110.2 70.53 105.69 70.31 105.05 65.88C104.45 61.75 107.81 58.2 108.42 57.56C112.64 53.09 120.34 51.86 124.15 55.18C127.3 57.92 124.98 61.32 127.52 69.45C130.69 79.58 137.23 83.77 135.39 87.29V87.27Z" fill="#964A28"/>
<path id="Vector_31" d="M179.21 100.35C177.18 100.68 175.51 95.09 172.47 95.59C170.91 95.85 169.57 97.61 169.1 99.16C168.71 100.46 169.07 101.11 169.1 102.73C169.14 104.75 168.67 108.34 166.85 109.86C163.96 112.27 158.32 108.96 157.86 108.67C152.52 105.44 150.69 99.28 149.99 96.78C148.11 90.12 150.29 88.47 148.87 82.51C147.38 76.27 144.3 75.24 139.88 68.24C136.33 62.6 133.59 55.77 132.62 50.82C137.18 51.07 141.25 51.08 145.27 51.13H145.47C146.82 51.99 148.31 52.94 149.99 53.97C158.37 59.17 159.26 59.17 165.72 63.48C174.16 69.12 178.37 71.93 180.33 75.37C186.08 85.5 182.31 99.83 179.21 100.34V100.35Z" fill="#964A28"/>
<path id="Vector_32" opacity="0.5" d="M196 148C195.79 147.97 196.37 145.91 196 143C195.37 138.09 192.65 135.49 192 131C191.94 130.59 191.79 129.45 192 128C192.18 126.76 192.65 124.97 193 125C193.52 125.05 192.58 129.07 194 134C195.16 138.02 196.71 138.52 197 142C197.27 145.19 196.24 148.03 196 148Z" fill="#6B574C"/>
<path id="Vector_33" opacity="0.5" d="M198.55 142.98C198.34 142.96 198.92 141.71 198.55 139.94C197.92 136.96 195.2 135.37 194.55 132.64C194.49 132.39 194.34 131.7 194.55 130.82C194.73 130.07 195.2 128.98 195.55 129C196.07 129.03 195.13 131.48 196.55 134.47C197.71 136.91 199.26 137.22 199.55 139.33C199.82 141.27 198.79 143 198.55 142.98Z" fill="#6B574C"/>
<g id="Group_2">
<path id="Vector_34" d="M90.8599 22.62C90.8599 30.7 80.5899 37.24 67.9299 37.24C63.7799 37.24 59.8899 36.53 56.5299 35.31C51.4999 36.35 46.4699 37.4 41.4399 38.44C43.3799 35.28 45.3199 32.11 47.2499 28.95C45.7999 27.03 44.9999 24.89 44.9999 22.62C44.9999 14.54 55.2699 8 67.9299 8C80.5899 8 90.8599 14.54 90.8599 22.62Z" fill="#E9F3FF" stroke="#1D1D1B" stroke-width="0.5" stroke-miterlimit="10"/>
<path id="Vector_35" d="M66.76 27.82C66.61 27.44 66.41 26.96 66.16 26.38C65.91 25.8 65.64 25.17 65.36 24.49C65.08 23.81 64.77 23.11 64.44 22.39C64.11 21.67 63.81 20.99 63.52 20.35C63.23 19.71 62.96 19.14 62.72 18.63C62.47 18.13 62.27 17.74 62.12 17.47C61.95 19.33 61.82 21.35 61.71 23.52C61.6 25.69 61.51 27.88 61.44 30.09H59.29C59.35 28.67 59.42 27.24 59.49 25.79C59.57 24.35 59.65 22.93 59.75 21.53C59.85 20.13 59.95 18.77 60.07 17.45C60.18 16.12 60.31 14.87 60.44 13.69H62.37C62.78 14.38 63.22 15.21 63.68 16.15C64.14 17.09 64.62 18.09 65.09 19.12C65.56 20.15 66.01 21.19 66.45 22.22C66.89 23.25 67.29 24.2 67.65 25.05C68.01 24.2 68.41 23.26 68.85 22.22C69.29 21.19 69.74 20.15 70.21 19.12C70.68 18.09 71.15 17.1 71.62 16.15C72.09 15.2 72.53 14.38 72.93 13.69H74.86C75.37 18.98 75.76 24.44 76.02 30.09H73.87C73.79 27.88 73.7 25.69 73.6 23.52C73.49 21.35 73.36 19.33 73.19 17.47C73.04 17.74 72.84 18.12 72.59 18.63C72.34 19.14 72.07 19.71 71.79 20.35C71.5 20.99 71.2 21.67 70.87 22.39C70.54 23.11 70.24 23.81 69.95 24.49C69.66 25.17 69.39 25.8 69.15 26.38C68.9 26.96 68.7 27.44 68.55 27.82H66.78H66.76Z" fill="#1B1464"/>
</g>
</g>
<defs>
<clipPath id="clip0_131_832">
<rect width="200" height="200" fill="white"/>
</clipPath>
</defs>
</svg>
