<svg width="200" height="200" viewBox="0 0 200 200" fill="none" xmlns="http://www.w3.org/2000/svg">
<g id="goldfinch 1">
<path id="Vector" d="M144.1 172.68C143.02 160.76 135.18 152.75 132.54 150.13C111.47 129.2 82.9898 142.53 51.5898 119.68C35.5598 108.02 28.7998 94.22 27.4998 91.49C17.4398 70.3 20.0198 48.62 19.7898 48.64C19.5198 48.66 13.3398 79.78 27.4998 105.02C39.8298 127.01 62.3498 135.2 78.5698 141.11C103.94 150.34 117.37 146.09 128.68 161.41C135.96 171.27 139.17 184.92 142.17 183.96C144.12 183.34 144.49 177.01 144.1 172.68Z" fill="#7A6C4F"/>
<g id="Vector_2">
<path d="M74.37 130.32C73.87 130.23 72.1 129.96 70.43 131.09C68.94 132.1 67.59 134.18 68.07 135.76C68.57 137.43 70.84 137.6 70.79 138.8C70.76 139.48 70 140.07 69.35 140.24C67.77 140.65 65.99 138.75 65.23 137.16C64.41 135.46 64.33 133.18 65.38 131.25C66.46 129.27 68.49 128.12 70.5 128.14C71.95 128.15 73.04 128.77 73.56 129.12" fill="#9D9E98"/>
<path d="M74.37 130.32C73.87 130.23 72.1 129.96 70.43 131.09C68.94 132.1 67.59 134.18 68.07 135.76C68.57 137.43 70.84 137.6 70.79 138.8C70.76 139.48 70 140.07 69.35 140.24C67.77 140.65 65.99 138.75 65.23 137.16C64.41 135.46 64.33 133.18 65.38 131.25C66.46 129.27 68.49 128.12 70.5 128.14C71.95 128.15 73.04 128.77 73.56 129.12" stroke="#808080" stroke-miterlimit="10"/>
</g>
<g id="Vector_3">
<path d="M76.7201 131.54C76.2201 131.45 74.4501 131.18 72.7801 132.31C71.2901 133.32 69.9401 135.4 70.4201 136.98C70.9201 138.65 73.1901 138.82 73.1401 140.02C73.1101 140.7 72.3501 141.29 71.7001 141.46C70.1201 141.87 68.3401 139.97 67.5801 138.38C66.7601 136.68 66.6801 134.4 67.7301 132.47C68.8101 130.49 70.8401 129.34 72.8501 129.36C74.3001 129.37 75.3901 129.99 75.9101 130.34" fill="#9D9E98"/>
<path d="M76.7201 131.54C76.2201 131.45 74.4501 131.18 72.7801 132.31C71.2901 133.32 69.9401 135.4 70.4201 136.98C70.9201 138.65 73.1901 138.82 73.1401 140.02C73.1101 140.7 72.3501 141.29 71.7001 141.46C70.1201 141.87 68.3401 139.97 67.5801 138.38C66.7601 136.68 66.6801 134.4 67.7301 132.47C68.8101 130.49 70.8401 129.34 72.8501 129.36C74.3001 129.37 75.3901 129.99 75.9101 130.34" stroke="#808080" stroke-miterlimit="10"/>
</g>
<g id="Vector_4">
<path d="M76.89 130.86C76.41 131.03 74.73 131.68 73.76 133.51C72.9 135.14 72.64 137.64 73.76 138.8C74.95 140.03 77.03 139.04 77.52 140.12C77.8 140.74 77.39 141.64 76.89 142.1C75.68 143.25 73.26 142.46 71.88 141.44C70.4 140.34 69.31 138.38 69.37 136.15C69.44 133.87 70.72 131.84 72.5 130.86C73.79 130.15 75.03 130.15 75.63 130.2" fill="#9D9E98"/>
<path d="M76.89 130.86C76.41 131.03 74.73 131.68 73.76 133.51C72.9 135.14 72.64 137.64 73.76 138.8C74.95 140.03 77.03 139.04 77.52 140.12C77.8 140.74 77.39 141.64 76.89 142.1C75.68 143.25 73.26 142.46 71.88 141.44C70.4 140.34 69.31 138.38 69.37 136.15C69.44 133.87 70.72 131.84 72.5 130.86C73.79 130.15 75.03 130.15 75.63 130.2" stroke="#808080" stroke-miterlimit="10"/>
</g>
<g id="Vector_5">
<path d="M88.4301 132.77C87.9301 132.68 86.1601 132.41 84.4901 133.54C83.0001 134.55 81.6501 136.63 82.1301 138.21C82.6301 139.88 84.9001 140.05 84.8501 141.25C84.8201 141.93 84.0601 142.52 83.4101 142.69C81.8301 143.1 80.0501 141.2 79.2901 139.61C78.4701 137.91 78.3901 135.63 79.4401 133.7C80.5201 131.72 82.5501 130.57 84.5601 130.59C86.0101 130.6 87.1001 131.22 87.6201 131.57" fill="#9D9E98"/>
<path d="M88.4301 132.77C87.9301 132.68 86.1601 132.41 84.4901 133.54C83.0001 134.55 81.6501 136.63 82.1301 138.21C82.6301 139.88 84.9001 140.05 84.8501 141.25C84.8201 141.93 84.0601 142.52 83.4101 142.69C81.8301 143.1 80.0501 141.2 79.2901 139.61C78.4701 137.91 78.3901 135.63 79.4401 133.7C80.5201 131.72 82.5501 130.57 84.5601 130.59C86.0101 130.6 87.1001 131.22 87.6201 131.57" stroke="#808080" stroke-miterlimit="10"/>
</g>
<g id="Vector_6">
<path d="M90.7802 133.99C90.2802 133.9 88.5102 133.63 86.8402 134.76C85.3502 135.77 84.0002 137.85 84.4802 139.43C84.9802 141.1 87.2502 141.27 87.2002 142.47C87.1702 143.15 86.4102 143.74 85.7602 143.91C84.1802 144.32 82.4002 142.42 81.6402 140.83C80.8202 139.13 80.7402 136.85 81.7902 134.92C82.8702 132.94 84.9002 131.79 86.9102 131.81C88.3602 131.82 89.4502 132.44 89.9702 132.79" fill="#9D9E98"/>
<path d="M90.7802 133.99C90.2802 133.9 88.5102 133.63 86.8402 134.76C85.3502 135.77 84.0002 137.85 84.4802 139.43C84.9802 141.1 87.2502 141.27 87.2002 142.47C87.1702 143.15 86.4102 143.74 85.7602 143.91C84.1802 144.32 82.4002 142.42 81.6402 140.83C80.8202 139.13 80.7402 136.85 81.7902 134.92C82.8702 132.94 84.9002 131.79 86.9102 131.81C88.3602 131.82 89.4502 132.44 89.9702 132.79" stroke="#808080" stroke-miterlimit="10"/>
</g>
<g id="Vector_7">
<path d="M90.9501 133.31C90.4701 133.48 88.7901 134.13 87.8201 135.96C86.9601 137.59 86.7001 140.09 87.8201 141.25C89.0101 142.48 91.0901 141.49 91.5801 142.57C91.8601 143.19 91.4501 144.09 90.9501 144.55C89.7401 145.7 87.3201 144.91 85.9401 143.89C84.4601 142.79 83.3701 140.83 83.4301 138.6C83.5001 136.32 84.7801 134.29 86.5601 133.31C87.8501 132.6 89.0901 132.6 89.6901 132.65" fill="#9D9E98"/>
<path d="M90.9501 133.31C90.4701 133.48 88.7901 134.13 87.8201 135.96C86.9601 137.59 86.7001 140.09 87.8201 141.25C89.0101 142.48 91.0901 141.49 91.5801 142.57C91.8601 143.19 91.4501 144.09 90.9501 144.55C89.7401 145.7 87.3201 144.91 85.9401 143.89C84.4601 142.79 83.3701 140.83 83.4301 138.6C83.5001 136.32 84.7801 134.29 86.5601 133.31C87.8501 132.6 89.0901 132.6 89.6901 132.65" stroke="#808080" stroke-miterlimit="10"/>
</g>
<path id="Vector_8" d="M149.89 115.16C133.34 134.87 110.29 136.44 107.49 136.59C77.3399 138.15 53.4699 115.18 48.7099 101.63C46.0299 94.02 46.0799 88.03 46.0799 88.02C46.1299 82.03 47.8099 74.78 48.4199 72.13C49.5399 67.29 50.4599 64.86 49.5899 61.54C48.8299 58.62 47.1799 56.89 45.8099 55.39C38.3199 47.14 34.3299 43.03 34.2499 39.32C34.0499 30.52 46.9599 21.33 58.5799 20.43C66.5599 19.81 72.5799 23.14 73.7599 23.81C82.2499 28.67 83.6799 35.65 93.0299 47.49C97.3699 52.99 101.07 56.42 108.45 63.28C135.43 88.34 156.33 90.68 156.63 102.75C156.74 106.99 154.24 109.97 149.88 115.15L149.89 115.16Z" fill="#F8F9E4" stroke="#666666" stroke-miterlimit="10"/>
<path id="Vector_9" d="M50.63 47.5C49.07 50.61 46.95 52.86 44.86 54.45C42.89 53.39 41.13 52.1 39.66 50.64C36.4 47.43 34.46 43.38 34.46 38.97C34.46 34.3 37.4 30.05 41.65 26.77C44.1 24.88 46.97 23.31 49.97 22.16C53.88 30.99 54.15 40.52 50.64 47.51L50.63 47.5Z" fill="#BB4426"/>
<path id="Vector_10" d="M88.65 40.88C88.31 41.36 87.99 41.88 87.66 42.42C83.62 47.05 82.49 48.11 80.98 49.19C78.04 51.28 73.15 53.76 65.56 53.7C66.98 53.05 69.27 51.75 71.34 49.19C71.88 48.52 78 40.72 75.19 32.27C75.07 31.92 73.03 26 68.44 24.38C65.64 23.39 64.48 24.91 58.8 24.38C55.89 24.11 53.75 23.48 53.02 23.25C51.96 22.92 50.96 22.53 50.02 22.11C51.81 21.42 53.64 20.89 55.46 20.53C56.58 20.3 57.68 20.16 58.76 20.07C66.74 19.45 72.75 22.78 73.94 23.45C73.99 23.47 74.03 23.51 74.07 23.54C80.83 27.46 83.09 32.75 88.62 40.87L88.65 40.88Z" fill="#191418"/>
<path id="Vector_11" opacity="0.62" d="M130.13 94.3C123.95 100.36 103.96 85.73 100.26 83.02C92.0398 77.01 90.5698 73.73 83.8798 71.74C79.0598 70.31 74.3898 70.09 64.6098 71.74C60.0398 72.51 54.3498 73.66 47.8398 75.44C48.0898 74.26 48.4598 72.91 49.0098 71.47C49.3798 70.48 49.7898 69.6 50.1798 68.82C53.4898 69.07 62.7698 69.27 72.3198 62.71C82.3198 55.84 86.4298 45.82 87.6698 42.41C88.0298 42.02 88.4098 41.58 88.8198 41.1C90.0898 42.95 91.5398 44.96 93.2398 47.12C97.5898 52.62 101.28 56.05 108.66 62.91C116.93 70.59 124.63 76.14 131.34 80.48C132.42 85.88 132.77 91.71 130.15 94.28L130.13 94.3Z" fill="#92745A"/>
<path id="Vector_12" d="M90.6198 62.73C85.1298 62.27 79.1198 61.87 73.2698 66.11C71.9898 67.04 65.2298 71.95 64.5998 79.64C63.8298 89.01 72.6298 96.6 75.1998 98.81C87.3298 109.26 100.86 107.34 144.58 102.19C172.04 98.96 184.98 97.55 185.05 95.42C185.15 92.56 160.61 97.38 134.94 81.89C132.04 80.14 124.65 75.95 113.74 70.61C102.77 65.24 97.2898 63.27 90.6098 62.72L90.6198 62.73Z" fill="#956E33"/>
<path id="Vector_13" d="M185.03 95.71C184.96 97.74 172.78 98.21 144.56 102.48C143.28 102.67 142.03 102.86 140.79 103.06C139.97 101.68 138.85 100.26 137.36 99.11C134.54 96.94 132.05 97.06 121.94 96.85C111.48 96.64 110.24 96.44 108.45 95.72C106.77 95.05 105.74 94.39 104.87 93.71C109.3 93.15 114.24 92.2 119.54 90.64C126.29 88.67 132.21 86.12 137.24 83.51C162.05 97.38 185.14 92.94 185.04 95.7L185.03 95.71Z" fill="#232732"/>
<path id="Vector_14" d="M104.22 105.31C104.15 105.66 104.06 106.04 103.91 106.47C103.02 106.47 102.13 106.46 101.22 106.44C98.3999 106.37 95.7999 106.25 93.3999 106C91.2899 105.8 89.3199 105.49 87.4599 105.06C82.8799 104.01 78.9499 102.21 75.1699 99.09C74.7399 98.74 74.1099 98.21 73.3599 97.55C74.3699 97.96 75.3499 98.29 76.2699 98.55C78.8399 99.31 81.0799 99.59 82.9099 99.67C86.2199 99.81 88.1099 99.28 93.5099 99.67C99.2499 100.09 103.16 100.43 104.11 103.05C104.24 103.38 104.44 104.1 104.22 105.31Z" fill="#161711"/>
<path id="Vector_15" d="M135.76 109.69C141.93 112.35 151.08 116.1 162.29 119.92C164.35 120.62 199.34 132.48 199.99 129.13C200.36 127.21 188.78 123.44 165.78 108.66C150.25 98.68 141.13 91.14 137.15 96.38C134.9 99.35 135.18 105.24 135.75 109.68L135.76 109.69Z" fill="#232732"/>
<path id="Vector_16" d="M140.79 103.05C134.45 104.02 128.57 104.94 122.41 105.58L104.22 105.31C104.44 104.1 104.24 103.38 104.11 103.05C103.16 100.42 99.2499 100.08 93.5099 99.67C88.1099 99.28 86.2199 99.81 82.9099 99.67C81.0799 99.59 78.8399 99.31 76.2699 98.55L73.1299 97.19C76.5699 94.11 79.4899 92.28 81.4699 91.21C83.9299 89.88 85.6699 89.29 87.2499 88.95C88.2199 88.75 92.7499 87.86 98.8099 90.08C101.82 91.17 103.02 92.25 104.34 93.31L102.18 94.03C103.05 93.94 103.94 93.84 104.86 93.71C105.74 94.39 106.77 95.05 108.44 95.72C110.23 96.44 111.48 96.63 121.93 96.85C132.04 97.05 134.53 96.94 137.35 99.11C138.84 100.26 139.96 101.68 140.78 103.06L140.79 103.05Z" fill="#FBE806"/>
<path id="Vector_17" d="M123.38 77.39C123.54 76.92 115.06 72.38 105.07 68.37C90.7502 62.62 85.6502 62.91 81.9402 63.86C76.7902 65.17 72.0402 68.32 72.3002 69.5C72.6502 71.05 81.3102 67.98 92.5402 68.37C110.43 68.99 123.18 77.98 123.38 77.39Z" fill="#875821"/>
<path id="Vector_18" d="M124.35 94.3C124.32 94.05 126.87 93.83 130.13 92.04C133.9 89.97 133.76 88.46 135.91 87.53C140.19 85.67 142.86 90.74 152.29 93.17C156.64 94.29 160.01 94.22 160 94.3C160 94.43 151.09 92.76 139.76 93.17C131.75 93.46 124.39 94.73 124.34 94.3H124.35Z" fill="white"/>
<path id="Vector_19" d="M144.58 97.68C147.97 95.43 151.95 96.22 155.18 96.55C162.11 97.27 165.7 95.96 165.78 96.55C165.88 97.36 159.22 99.56 152.29 99.93C149.11 100.1 143.77 100 143.62 98.8C143.58 98.44 144.01 98.06 144.58 97.67V97.68Z" fill="white"/>
<g id="Vector_20">
<path d="M97.8501 134.33C101.69 136.36 107.27 138.76 114.23 139.97C126.34 142.07 137.38 139.64 137.36 138.84C137.36 138.46 134.83 138.59 129.65 137.71C120.62 136.18 114.19 133.4 114.23 133.2C114.28 132.97 122.85 135.18 134.47 136.58C135.94 136.76 138.24 137.02 138.32 136.58C138.52 135.53 125.71 131.29 125.79 130.94C125.87 130.61 137.81 134.72 138.32 133.2C138.64 132.23 134.13 129.62 134.47 128.69C134.93 127.43 143.74 130.92 144.11 129.82C144.34 129.13 140.97 127.38 141.22 126.44C141.6 125.03 149.81 126.93 149.89 126.44C149.97 125.96 142.07 124.01 142.18 123.06C142.29 122.09 150.72 122.98 150.85 121.93C150.92 121.4 148.83 120.56 146.03 119.67" fill="#F8F9E4"/>
<path d="M97.8501 134.33C101.69 136.36 107.27 138.76 114.23 139.97C126.34 142.07 137.38 139.64 137.36 138.84C137.36 138.46 134.83 138.59 129.65 137.71C120.62 136.18 114.19 133.4 114.23 133.2C114.28 132.97 122.85 135.18 134.47 136.58C135.94 136.76 138.24 137.02 138.32 136.58C138.52 135.53 125.71 131.29 125.79 130.94C125.87 130.61 137.81 134.72 138.32 133.2C138.64 132.23 134.13 129.62 134.47 128.69C134.93 127.43 143.74 130.92 144.11 129.82C144.34 129.13 140.97 127.38 141.22 126.44C141.6 125.03 149.81 126.93 149.89 126.44C149.97 125.96 142.07 124.01 142.18 123.06C142.29 122.09 150.72 122.98 150.85 121.93C150.92 121.4 148.83 120.56 146.03 119.67" stroke="#666666" stroke-miterlimit="10"/>
</g>
<path id="Vector_21" opacity="0.34" d="M120.01 123.06C118.09 120.65 115.59 120.33 112.3 119.68C106.81 118.58 119.23 120.55 99.7701 116.3C85.7001 113.22 86.4901 113.79 84.3501 112.92C79.8401 111.09 74.0801 108.75 70.8601 102.77C66.6701 94.99 69.6301 86.33 67.9701 85.85C66.2701 85.36 60.8301 93.72 62.1901 101.64C63.5401 109.49 71.0301 113.75 81.4601 119.68C87.6701 123.21 92.5601 124.94 96.8801 126.45C104.43 129.08 119.74 134.41 121.94 129.83C122.86 127.92 121.3 124.68 120.01 123.06Z" fill="url(#paint0_radial_128_604)"/>
<path id="Vector_22" opacity="0.34" d="M58.8199 104.45C60.6299 103.19 58.3599 98.83 59.7799 90.92C61.0299 83.97 63.8299 81.51 62.6699 79.64C61.2699 77.38 55.4699 78.18 52.0699 81.9C48.3999 85.91 47.9899 92.82 50.1399 97.69C52.1899 102.34 56.8899 105.8 58.8099 104.46L58.8199 104.45Z" fill="url(#paint1_radial_128_604)"/>
<path id="Vector_23" d="M54.9599 36.79C54.2299 37.11 53.1499 37.53 51.8199 37.85C48.5699 38.63 47.4299 37.96 46.5799 38.97C45.4099 40.36 46.7599 42.57 46.2899 45.81C45.8399 48.9 43.9899 51.13 42.4399 52.58C40.6299 51.43 39.3799 50.14 38.5899 49.2C37.4099 47.79 34.2699 44.04 34.5299 39.19C34.6199 37.61 35.0299 36.51 35.5499 35.15C36.2899 33.21 37.8999 29.81 41.4799 26.65C41.9599 27.61 44.7599 32.97 50.5199 34.5C57.8099 36.44 63.2399 30.49 63.6499 30.03C60.7599 32.29 57.8699 34.54 54.9799 36.8L54.9599 36.79Z" fill="#191418"/>
<path id="Vector_24" d="M41.8998 39.87C41.9698 40.13 43.7098 46.34 41.1698 48.28C39.6698 49.43 37.3998 48.52 32.9998 46.7C29.1998 45.13 26.2598 43.42 24.3398 42.2C30.1898 41.42 36.0498 40.65 41.8998 39.87Z" fill="#C6C5CD" stroke="#808080" stroke-miterlimit="10"/>
<path id="Vector_25" d="M41.4902 42.28C41.5202 41.93 42.2902 33.45 39.0602 31.51C37.1502 30.36 34.7602 32.06 30.1502 35.43C26.1602 38.35 23.1702 41.24 21.2402 43.27C27.9902 42.94 34.7402 42.62 41.5002 42.29L41.4902 42.28Z" fill="#C6C5CD" stroke="#808080" stroke-miterlimit="10"/>
<path id="Vector_26" d="M51.59 38.48C54.252 38.48 56.41 36.7115 56.41 34.53C56.41 32.3485 54.252 30.58 51.59 30.58C48.928 30.58 46.77 32.3485 46.77 34.53C46.77 36.7115 48.928 38.48 51.59 38.48Z" fill="black" stroke="#808080" stroke-miterlimit="10"/>
<path id="Vector_27" d="M54 34.54C54.5302 34.54 54.96 34.0341 54.96 33.41C54.96 32.7859 54.5302 32.28 54 32.28C53.4698 32.28 53.04 32.7859 53.04 33.41C53.04 34.0341 53.4698 34.54 54 34.54Z" fill="white"/>
<path id="Vector_28" d="M48.2201 33.41C48.0401 33.43 47.7401 34.72 48.2201 35.67C48.9601 37.11 51.0801 36.93 51.1101 36.8C51.1301 36.7 50.0101 36.69 49.1801 35.67C48.3601 34.66 48.4001 33.39 48.2201 33.41Z" fill="white"/>
<path id="Vector_29" d="M49.1802 124.75C45.7902 123.9 39.8702 122.97 32.8002 124.75C24.0702 126.95 18.1902 132.13 15.4502 134.9C17.3602 135.99 24.6402 139.83 33.7602 137.16C43.0702 134.43 47.9802 126.76 49.1802 124.76V124.75Z" fill="#D3921E"/>
<path id="Vector_30" d="M32.7999 104.45C34.6799 102.64 36.8199 100.08 38.5799 96.56C44.3599 85 41.2999 72.45 40.5099 69.5C38.8799 71.54 37.1599 74.14 35.6899 77.39C30.6299 88.59 31.9999 99.86 32.7999 104.45Z" fill="#D3921E"/>
<path id="Vector_31" d="M22.2 84.15C21.23 79.35 19.34 72.41 15.45 64.98C11.55 57.52 7.10998 52.39 3.88998 49.19C-1.38002 61.27 0.779981 74.59 7.73998 80.77C13.36 85.75 20.36 84.54 22.2 84.15Z" fill="#D15F20"/>
</g>
<defs>
<radialGradient id="paint0_radial_128_604" cx="0" cy="0" r="1" gradientUnits="userSpaceOnUse" gradientTransform="translate(92.5753 108.605) scale(25.53 29.6925)">
<stop stop-color="#FF931E" stop-opacity="0.8"/>
<stop offset="0.36" stop-color="#FF9320" stop-opacity="0.79"/>
<stop offset="0.49" stop-color="#FF9727" stop-opacity="0.77"/>
<stop offset="0.58" stop-color="#FF9D34" stop-opacity="0.72"/>
<stop offset="0.66" stop-color="#FFA647" stop-opacity="0.65"/>
<stop offset="0.72" stop-color="#FFB25F" stop-opacity="0.57"/>
<stop offset="0.78" stop-color="#FFC07D" stop-opacity="0.46"/>
<stop offset="0.83" stop-color="#FFD2A1" stop-opacity="0.33"/>
<stop offset="0.88" stop-color="#FFE5CA" stop-opacity="0.19"/>
<stop offset="0.92" stop-color="#FFFBF8" stop-opacity="0.02"/>
<stop offset="0.93" stop-color="white" stop-opacity="0"/>
</radialGradient>
<radialGradient id="paint1_radial_128_604" cx="0" cy="0" r="1" gradientUnits="userSpaceOnUse" gradientTransform="translate(56.1799 91.4631) scale(9.4484 10.9889)">
<stop stop-color="#FF931E" stop-opacity="0.8"/>
<stop offset="0.36" stop-color="#FF9320" stop-opacity="0.79"/>
<stop offset="0.49" stop-color="#FF9727" stop-opacity="0.77"/>
<stop offset="0.58" stop-color="#FF9D34" stop-opacity="0.72"/>
<stop offset="0.66" stop-color="#FFA647" stop-opacity="0.65"/>
<stop offset="0.72" stop-color="#FFB25F" stop-opacity="0.57"/>
<stop offset="0.78" stop-color="#FFC07D" stop-opacity="0.46"/>
<stop offset="0.83" stop-color="#FFD2A1" stop-opacity="0.33"/>
<stop offset="0.88" stop-color="#FFE5CA" stop-opacity="0.19"/>
<stop offset="0.92" stop-color="#FFFBF8" stop-opacity="0.02"/>
<stop offset="0.93" stop-color="white" stop-opacity="0"/>
</radialGradient>
</defs>
</svg>
