<svg width="200" height="200" viewBox="0 0 200 200" fill="none" xmlns="http://www.w3.org/2000/svg">
<g id="squirrel_e 1">
<g id="Group">
<g id="Group_2">
<path id="Vector" d="M119.42 190.11C124.09 192.76 131.68 196.21 141.37 196.8C151.51 197.42 163.68 194.89 163.84 191.84C164 188.79 152.19 184.74 141.56 184.62C131.85 184.5 124.09 187.68 119.42 190.12V190.11Z" fill="#E57527"/>
<path id="Vector_2" d="M119.42 190.11C129.71 195.94 141.9 197.95 153.54 196C155.87 195.56 163.3 194.4 163.58 191.68C163.45 190.81 162.54 190.17 161.84 189.68C159.37 188.12 156.53 187.23 153.71 186.47C142.31 183.36 129.91 184.64 119.42 190.11ZM119.42 190.11C129.83 184.33 142.34 183.02 153.81 186.06C156.62 186.87 163.27 188.51 164.07 191.62C163.98 194.83 156.13 195.92 153.6 196.4C141.9 198.28 129.61 196.23 119.42 190.1V190.11Z" fill="#1D1D1B"/>
</g>
<g id="Group_3">
<path id="Vector_3" d="M138.27 193.77C138.27 200.76 159.13 200.76 158.85 193.77C159.13 186.78 138.27 186.55 138.27 193.77Z" fill="#E57527"/>
<path id="Vector_4" d="M138.27 193.77C138.9 199.77 150.55 199.5 154.75 197.87C159.91 196.24 159.87 191.29 154.75 189.63C150.46 187.95 138.91 187.61 138.27 193.77ZM138.27 193.77C138.77 187.67 150.57 187.62 154.89 189.23C160.47 190.97 160.52 196.56 154.89 198.27C150.66 199.83 138.77 199.72 138.27 193.77Z" fill="#1D1D1B"/>
</g>
<g id="Group_4">
<path id="Vector_5" d="M130.23 194.58C134.87 207.22 163.41 192.14 142.39 188.24L130.23 194.58Z" fill="#E57527"/>
<path id="Vector_6" d="M130.23 194.58C132.98 202.06 146.35 199.76 149.61 193.92C150.81 190.17 145.05 188.94 142.4 188.24C145.34 188.78 151.26 189.89 150.02 194.08C146.71 200.34 132.81 202.61 130.24 194.58H130.23Z" fill="#1D1D1B"/>
</g>
</g>
<g id="Group_5">
<g id="Group_6">
<path id="Vector_7" d="M88.47 188.54C83.7999 191.19 76.2099 194.64 66.5199 195.23C56.3799 195.85 44.2099 193.32 44.0499 190.27C43.8899 187.22 55.7 183.17 66.33 183.05C76.04 182.93 83.7999 186.11 88.47 188.55V188.54Z" fill="#E57527"/>
<path id="Vector_8" d="M88.4698 188.54C78.2698 194.67 65.9898 196.72 54.2898 194.84C51.7598 194.37 43.8898 193.25 43.8198 190.06C44.6398 186.93 51.2598 185.32 54.0798 184.5C65.5598 181.46 78.0598 182.76 88.4698 188.55V188.54ZM88.4698 188.54C77.9798 183.06 65.5798 181.79 54.1798 184.9C51.3698 185.65 48.5298 186.55 46.0498 188.11C45.3498 188.6 44.4298 189.24 44.3098 190.11C44.5598 192.82 52.0498 194 54.3498 194.43C65.9898 196.39 78.1798 194.38 88.4698 188.54Z" fill="#1D1D1B"/>
</g>
<g id="Group_7">
<path id="Vector_9" d="M69.6199 192.19C69.8999 199.18 48.7599 199.18 49.0399 192.19C48.7599 185.2 69.8999 185.2 69.6199 192.19Z" fill="#E57527"/>
<path id="Vector_10" d="M69.6199 192.19C69.3399 198.17 57.1699 198.23 53.0199 196.68C47.3799 194.98 47.3699 189.4 53.0199 187.7C57.1599 186.15 69.3399 186.21 69.6199 192.19ZM69.6199 192.19C69.2099 186.15 57.2799 186.48 53.1599 188.1C47.9899 189.72 47.9799 194.65 53.1599 196.28C57.2699 197.9 69.1999 198.24 69.6199 192.19Z" fill="#1D1D1B"/>
</g>
<g id="Group_8">
<path id="Vector_11" d="M77.3196 192.89C72.6796 205.53 44.1396 190.45 65.1596 186.55L77.3196 192.89Z" fill="#E57527"/>
<path id="Vector_12" d="M77.3198 192.89C74.7498 200.92 60.8498 198.65 57.5398 192.39C56.2898 188.19 62.2198 187.1 65.1598 186.55C62.4898 187.26 56.7798 188.44 57.9498 192.23C61.1998 198.07 74.5698 200.37 77.3298 192.89H77.3198Z" fill="#1D1D1B"/>
</g>
</g>
<g id="Group_9">
<path id="Vector_13" d="M122.03 130.28C115.92 134.77 128.04 117.05 118.77 119.98C119.94 118.36 123.43 109.51 118.17 111.72C119.65 109.37 123.18 95.88 116.53 98.32C119.12 95.48 123.65 82.94 115.25 84.39C119.03 80.18 118.48 62.27 111.77 60.66C113.57 56.26 111.98 46.95 106.86 45.02C107.92 32.58 91.0897 22.96 81.2297 24.22C67.7197 14.94 41.0396 14.75 32.1596 32.7C11.8096 37.79 -14.4504 78.27 13.8296 92.06C16.2196 93.88 18.9896 98.69 22.5796 95.6C25.3696 97.15 29.4097 104.95 32.7197 98.26C37.5797 102.96 41.2796 94.82 46.6096 101.92C47.3997 101.24 44.3296 110.39 48.5296 107.93C47.3096 112.54 52.8696 122.1 55.6796 126.98C55.4096 133.88 58.4996 142.92 64.0996 146.64C61.2296 149.78 62.8496 159.97 66.3396 162.1C61.7896 165.63 72.6396 177.78 73.8997 169.38C74.7597 171.93 77.7997 177.84 81.1796 174.51C84.7597 177.03 89.7197 179 91.0996 173.23C92.7896 178.8 106.98 177.65 107.56 172.49C111.27 175.23 117.62 159.42 115.42 157.65C120 154.69 116.28 145.4 118.24 144.06C117.9 141.06 118.43 133.95 122.02 130.3L122.03 130.28Z" fill="#E57527"/>
<path id="Vector_14" d="M122.03 130.28C119.91 131.88 120.01 130.57 120.58 128.78C121.28 126.2 122.73 123.57 122.28 120.84C121.85 119.26 119.92 119.61 118.73 120.01C119.75 118.54 122.74 111.47 119.53 111.4C119.04 111.42 118.56 111.59 118.11 111.77L118.15 111.7C119.73 108.89 123.09 96.14 116.55 98.35L116.39 98.4L116.5 98.27C119.36 94.84 123.38 83.14 115.26 84.43L115.09 84.46C115.85 83.61 116.32 82.53 116.65 81.44C118.26 76.01 118.1 62.69 111.65 60.71C113.11 56.56 112.37 51.63 110.08 47.91C109.28 46.69 108.18 45.63 106.82 45.11L106.74 45.08V45C107.29 38.77 103.12 33.22 98.2798 29.74C93.3698 26.26 87.2798 23.75 81.1798 24.36C77.3398 21.75 72.9198 20.08 68.3898 19.11C55.1998 16.19 38.5798 19.74 32.2898 32.86C15.9498 37.45 -1.07019 60.42 2.12981 77.6C3.33981 84.03 8.15981 89.1 13.9498 91.86C16.3498 93.83 19.2698 98.41 22.5598 95.33C25.0298 96.59 27.4298 101.56 30.5098 100.53C31.5298 100.05 32.1598 98.94 32.6698 97.92C33.6098 98.87 34.8298 99.6 36.1798 99.6C38.6798 99.57 41.3498 97.83 43.8398 99.16C45.0498 99.77 45.9298 100.79 46.7598 101.79L46.4998 101.76C46.5998 101.65 46.8198 101.66 46.8798 101.79C47.0398 102.29 46.7298 103.32 46.6898 103.87C46.4398 105.66 45.7598 109.65 48.7898 107.56C47.9698 111.04 49.6398 114.59 50.9798 117.77C52.3998 120.9 54.0998 123.9 55.8198 126.89C55.7598 130.58 56.3998 134.31 57.7698 137.76C59.1198 141.14 61.1298 144.43 64.1898 146.51L64.3098 146.59L64.2198 146.7C61.4398 150.32 62.8398 159.48 66.5498 162.07C62.8898 164.68 68.6798 173.13 72.3298 172.02C73.4498 171.47 73.6998 170.13 73.8898 169L74.0098 169.33C74.9698 172.11 77.8698 177.62 81.1998 174.39C84.5798 176.86 89.7698 178.88 91.0598 173.2L91.1198 172.97L91.1898 173.2C91.6798 174.78 93.1998 175.76 94.7198 176.25C98.3898 177.48 106.62 177.02 107.54 172.4C110.99 174.52 114.74 164.66 115.36 162.19C115.68 160.84 116.28 158.75 115.42 157.62C119.12 154.87 117.42 149.63 117.64 145.7C117.69 145.15 117.76 144.36 118.24 144.05C117.96 139.29 118.72 133.94 122.04 130.29L122.03 130.28ZM122.03 130.28C118.73 133.93 117.96 139.28 118.26 144.04C117.78 144.43 117.7 145.11 117.66 145.69C117.46 149.64 119.16 154.89 115.44 157.66C117.65 159.9 111.22 175.18 107.54 172.51L107.62 172.48C107.4 174.19 105.83 175.29 104.35 175.91C100.52 177.48 92.8798 177.84 91.0498 173.24H91.1798C89.8598 179.06 84.3598 177.06 81.2498 174.56C78.7798 177.11 76.0898 174.23 74.9198 171.88C74.4898 171.08 74.1198 170.26 73.8198 169.4L73.9998 169.38C73.8298 170.8 72.9798 172.63 71.2598 172.34C67.7698 171.82 62.9098 164.88 66.2698 162L66.2798 162.18C62.5698 159.44 61.1498 150.22 63.9998 146.54L64.0198 146.73C60.9098 144.62 58.8598 141.3 57.4898 137.87C56.1598 134.55 55.3498 130.32 55.5398 127.05C53.8098 124.07 52.0998 121.06 50.6598 117.91C49.3298 114.76 47.7198 111.4 48.3498 107.88L48.5998 108.07C47.9798 108.44 47.0098 108.84 46.4598 108.1C45.7198 106.74 46.1698 105.25 46.3098 103.83C46.3398 103.5 46.5198 102.6 46.5398 102.28C46.5398 102.2 46.5498 102.11 46.5498 102.04C46.5498 102.01 46.5398 101.96 46.5498 102C46.5498 102.02 46.6598 102.08 46.6898 102.06C46.7198 102.05 46.7098 102.06 46.7098 102.06L46.5698 102.18L46.4498 102.03C44.9298 99.93 42.6498 98.44 39.9898 99.27C38.7498 99.54 37.4998 100.01 36.1498 100.01C34.7898 100.01 33.5198 99.31 32.5698 98.4L32.8798 98.35C32.1998 99.8 30.7598 101.65 28.8898 101.02C26.1898 100.09 24.7598 97.25 22.4598 95.79L22.6998 95.77C19.2098 98.93 16.0098 94.19 13.7198 92.27C7.83981 89.48 2.88981 84.26 1.64981 77.72C-1.66019 60.29 15.5898 37.18 32.0998 32.52C33.5498 29.02 37.5398 24.65 41.3698 22.48C53.3798 15.49 69.7698 16.64 81.2898 24.12C86.9298 23.44 93.6198 26.07 98.4198 29.57C103.31 33.1 107.53 38.73 106.95 45.05C111.97 46.88 113.66 55.77 111.84 60.72L111.78 60.6C116.2 62.11 117.01 67.68 117.52 71.73C117.79 75 117.68 78.36 116.76 81.52C116.44 82.57 116 83.6 115.28 84.46L115.22 84.36C123.51 83.06 119.47 94.89 116.55 98.38L116.5 98.31C123.18 96.01 119.81 109.16 118.15 111.73C123.39 109.6 120.07 118.22 118.75 120C119.94 119.61 121.87 119.29 122.29 120.87C122.73 123.62 121.28 126.23 120.57 128.82C119.98 130.66 119.92 131.89 122.02 130.32L122.03 130.28Z" fill="#1D1D1B"/>
</g>
<g id="Group_10">
<path id="Vector_15" d="M4.66016 85.61C4.99016 87.45 8.09016 101.04 12.8002 93.82C11.8102 100.79 36.9602 113.57 39.9202 102.42C44.6902 111.07 72.9102 98.07 61.2802 91.28C70.6002 80.23 44.3702 66.98 42.2802 75.76C37.2102 76.21 37.1302 78.61 40.1402 81.56C31.3802 84.72 45.5502 91 48.2502 87.06" fill="#E57527"/>
<path id="Vector_16" d="M4.66016 85.61C5.35016 88.97 8.37016 100.42 12.7102 93.76L12.9502 93.41L12.9102 93.83C12.7202 101.69 37.8502 113.14 39.8502 101.88C43.6202 108.91 58.6502 102.94 62.4902 98.16C64.8002 95.53 63.9102 92.89 60.9402 91.33C62.9002 89.19 63.6602 86.08 62.4702 83.37C60.1802 78.21 54.7802 74.83 49.4702 73.4C46.9702 72.77 43.1902 72.72 42.4202 75.79L42.3902 75.89H42.2902C40.9202 76.08 39.0002 76.23 38.3602 77.62C37.9002 79.16 39.3802 80.55 40.3402 81.6L40.1702 81.66C32.5702 84.42 42.7502 89.31 46.4802 88.13C47.1602 87.97 47.8302 87.63 48.2502 87.05C47.8402 87.64 47.1702 87.99 46.4902 88.16C43.8702 89.2 34.2102 85.94 38.1902 82.43C38.7702 81.99 39.4402 81.71 40.1002 81.44L40.0602 81.63C39.5102 81.08 38.9802 80.5 38.5602 79.83C37.4502 78.19 38.0602 76.6 39.9602 76.05C40.7102 75.79 41.4902 75.7 42.2702 75.61L42.1402 75.72C42.9102 72.48 46.9202 72.41 49.5402 73.08C57.0102 74.76 68.0102 83.33 61.4502 91.41L61.3902 91.07C62.6102 91.8 63.8802 92.82 64.2002 94.36C65.4002 102.14 43.5902 109.83 39.7502 102.5L40.1102 102.46C36.8502 112.61 18.4602 103.41 14.2402 97.8C13.3402 96.68 12.5402 95.29 12.7002 93.8L12.8902 93.87C8.30016 100.65 5.34016 89.17 4.67016 85.6L4.66016 85.61Z" fill="#1D1D1B"/>
</g>
<path id="Vector_17" d="M127.1 120.67C132.09 123.1 134.68 128.53 132.67 133.07C137.38 131.5 137.57 137.44 136.92 144.29C138.6 141.36 141.39 146.27 139.03 148.58C141.99 147.68 143.5 152.12 141.28 154.06C144.36 151.18 143.35 158.76 142.07 160.54C149.72 158.36 139.76 183.7 137.6 177.6C131.24 191.96 115.31 186.34 102.79 183.92C91.2201 185.82 74.5701 191.06 69.2001 177.22C66.9901 183.31 57.1201 157.99 64.7301 160.16C63.4601 158.39 62.4401 150.8 65.5201 153.68C63.3001 151.74 64.8101 147.3 67.7701 148.2C65.4101 145.89 68.2001 140.98 69.8801 143.91C68.3201 142.02 70.9101 129.88 74.1301 132.69C70.0501 111.54 113.54 113.15 127.07 120.67H127.1Z" fill="#E57527" stroke="#1D1D1B" stroke-width="0.5" stroke-miterlimit="10"/>
<path id="Vector_18" d="M99.6699 74.15C102.41 92.52 89.7499 107.39 86.8799 110.62C116.05 111.59 122.7 66.8 106.27 51.68C102.59 30.3 44.0499 14.32 32.1299 37.13C53.0499 31.67 95.5099 42.86 99.6699 74.15Z" fill="#D56E34"/>
<g id="Group_11">
<g id="Group_12">
<path id="Vector_19" d="M124.09 66.46C127.7 55.06 126.87 24.27 130.2 50.82C133.36 57.44 127.51 82.17 124.09 66.46Z" fill="#F5B7D4"/>
<path id="Vector_20" d="M124.09 66.46C126.37 58.16 126.08 49.45 127.54 41.01C127.63 40.49 128.05 39.63 128.57 40.38C129.78 43.72 129.91 47.33 130.44 50.8C132.03 54.89 131.27 60.31 130.37 64.77C129.12 70.78 125.96 75.89 124.09 66.47V66.46ZM124.09 66.46C127.41 80.03 131.03 62.33 130.87 57.74C130.92 55.43 130.89 52.98 129.97 50.85C129.43 47.46 129.28 43.87 128.17 40.62C128.14 40.55 128.07 40.53 128.17 40.55C128.23 40.53 128.22 40.55 128.21 40.54C128.1 40.7 128.05 40.91 127.99 41.12C126.53 49.52 126.63 58.25 124.09 66.46Z" fill="#1D1D1B"/>
</g>
<g id="Group_13">
<path id="Vector_21" d="M119.42 56.08C125.35 40.32 132.22 28.51 126.46 52.66C125.38 63.69 125.71 67.42 119.42 56.08Z" fill="#E57527"/>
<path id="Vector_22" d="M119.42 56.08C121.35 50.8 123.3 45.51 126.16 40.64C126.69 39.93 127.12 38.88 128.11 38.66C130.33 38.95 127.04 50.81 126.69 52.71C125.72 61.76 126.02 68.94 119.43 56.08H119.42ZM119.42 56.08C120.09 56.98 124.05 64.89 125.04 62.23C125.88 59.59 125.89 55.42 126.24 52.64C126.88 49.9 127.48 47.15 127.96 44.39C128.18 42.72 128.63 40.95 128.27 39.3C128.21 39.17 128.16 39.11 128.11 39.12C127.41 39.39 126.98 40.25 126.53 40.88C123.66 45.67 121.55 50.92 119.43 56.09L119.42 56.08Z" fill="#1D1D1B"/>
</g>
</g>
<g id="Group_14">
<g id="Group_15">
<path id="Vector_23" d="M81.2698 68.46C77.6598 57.06 78.4898 26.27 75.1598 52.82C71.9998 59.44 77.8498 84.17 81.2698 68.46Z" fill="#F5B7D4"/>
<path id="Vector_24" d="M81.2699 68.46C78.7299 60.25 78.8299 51.52 77.3699 43.12C77.3099 42.91 77.2599 42.7 77.1499 42.54C77.1499 42.54 77.1299 42.54 77.1899 42.55C77.2799 42.53 77.2199 42.55 77.1899 42.62C76.0899 45.88 75.9299 49.48 75.3899 52.89C73.7499 57.25 74.5699 62.2 75.3299 66.69C76.4999 72.51 79.1699 77.6 81.2699 68.46ZM81.2699 68.46C79.4099 77.84 76.2599 72.83 74.9999 66.76C74.0999 62.31 73.3399 56.88 74.9299 52.79C75.4599 49.32 75.5899 45.71 76.7999 42.37C77.2999 41.65 77.7199 42.43 77.8299 43C79.2899 51.44 79.0099 60.15 81.2799 68.45L81.2699 68.46Z" fill="#1D1D1B"/>
</g>
<g id="Group_16">
<path id="Vector_25" d="M85.9399 58.08C80.0099 42.32 73.1399 30.51 78.8999 54.66C79.9799 65.69 79.6499 69.42 85.9399 58.08Z" fill="#E57527"/>
<path id="Vector_26" d="M85.94 58.08C83.82 52.91 81.71 47.66 78.84 42.87C78.39 42.24 77.96 41.38 77.26 41.11C77.21 41.1 77.16 41.15 77.1 41.29C76.74 42.94 77.19 44.71 77.41 46.38C77.89 49.14 78.49 51.89 79.13 54.63C79.48 57.42 79.49 61.56 80.33 64.22C81.32 66.89 85.29 58.96 85.95 58.07L85.94 58.08ZM85.94 58.08C79.35 70.94 79.65 63.77 78.68 54.71C78.33 52.78 75.04 40.99 77.26 40.66C78.25 40.87 78.68 41.93 79.21 42.64C82.07 47.51 84.02 52.8 85.95 58.08H85.94Z" fill="#1D1D1B"/>
</g>
</g>
<g id="Vector_27">
<path d="M126.35 107.36C123.98 103.76 131.47 100.93 128.82 98.44C130.28 97.17 132.13 95.25 131.86 93.05C130.4 93.08 133.21 83.47 130.37 84.03C132.49 82.89 133.44 78.35 130.23 78.44C131.27 76.21 131.96 72.09 128.27 73.53C129.36 71.69 128.67 68.19 126.29 69.57C127.67 68.35 128.09 63.37 125.63 66.35C128.67 63.44 123.44 58.41 121.29 60.55C122.8 57.49 121.27 54.97 118.13 57.32C120.1 53.02 111.94 50.37 110.66 54.79C110.34 51.16 109.02 49.74 107.27 53.67C107.35 52.46 103.3 49.36 103.03 48.3C103.03 48.3 104.35 57.72 102.12 54.28C99.2098 48.99 97.8798 50.15 96.3898 54.47C92.2498 49.91 94.8098 56.14 88.6798 54.16C89.9498 57.16 79.8698 57.67 83.4798 63.32C80.9698 61.56 76.6698 67.21 79.9998 69.69C77.1398 67.11 78.2598 71.95 79.7998 72.97C77.2398 71.95 77.0598 75.52 78.3898 77.18C74.5298 76.28 75.7998 80.27 77.1398 82.32C73.9598 82.7 75.5298 87.05 77.7898 87.87C74.8998 87.71 79.0298 96.86 77.5798 97.01C77.6198 99.22 79.7198 100.85 81.3498 101.9C79.0398 104.79 87.7398 107.27 85.9098 111.31" fill="#E57527"/>
<path d="M126.35 107.36C123.98 103.76 131.47 100.93 128.82 98.44C130.28 97.17 132.13 95.25 131.86 93.05C130.4 93.08 133.21 83.47 130.37 84.03C132.49 82.89 133.44 78.35 130.23 78.44C131.27 76.21 131.96 72.09 128.27 73.53C129.36 71.69 128.67 68.19 126.29 69.57C127.67 68.35 128.09 63.37 125.63 66.35C128.67 63.44 123.44 58.41 121.29 60.55C122.8 57.49 121.27 54.97 118.13 57.32C120.1 53.02 111.94 50.37 110.66 54.79C110.34 51.16 109.02 49.74 107.27 53.67C107.35 52.46 103.3 49.36 103.03 48.3C103.03 48.3 104.35 57.72 102.12 54.28C99.2098 48.99 97.8798 50.15 96.3898 54.47C92.2498 49.91 94.8098 56.14 88.6798 54.16C89.9498 57.16 79.8698 57.67 83.4798 63.32C80.9698 61.56 76.6698 67.21 79.9998 69.69C77.1398 67.11 78.2598 71.95 79.7998 72.97C77.2398 71.95 77.0598 75.52 78.3898 77.18C74.5298 76.28 75.7998 80.27 77.1398 82.32C73.9598 82.7 75.5298 87.05 77.7898 87.87C74.8998 87.71 79.0298 96.86 77.5798 97.01C77.6198 99.22 79.7198 100.85 81.3498 101.9C79.0398 104.79 87.7398 107.27 85.9098 111.31" stroke="#1D1D1B" stroke-width="0.5" stroke-miterlimit="10"/>
</g>
<path id="Vector_28" d="M104.94 108.58C102.65 103.9 102.68 80.94 94.25 73.2L100.89 78.72L96.99 65.61L102.45 76.87C103.33 62.6 102.78 60.42 105.33 76.38L110.18 68.73L108.68 77.87L112.46 71.38C102.75 80.84 122.34 115.24 104.94 108.58Z" fill="#D56E34"/>
<g id="Group_17">
<path id="Vector_29" d="M122.62 116.56C124.8 115.07 130.58 111.12 130.14 106.54C129.97 104.76 128.89 103.27 127 101.61C122.05 97.3 113.5 93.69 103.1 95.84C101.81 96.11 86.7403 99.39 85.7803 107.75C85.5503 109.74 86.1103 112.12 87.1203 113.92C88.6703 116.69 91.1803 117.96 93.8903 118.86C98.3503 120.35 110.93 124.55 122.62 116.56Z" fill="#FFF6BD"/>
<path id="Vector_30" d="M122.62 116.56C134.57 108.59 131.13 102.26 119.39 97.22C112.87 94.67 105.55 94.92 98.9802 97.17C93.8902 99.01 87.3902 101.53 86.0502 107.37C85.5302 110.72 86.8902 114.44 89.5802 116.54C91.3902 117.98 93.6602 118.66 95.8602 119.37C104.66 122.28 114.82 121.96 122.62 116.56ZM122.62 116.56C114.85 122.05 104.65 122.45 95.7902 119.61C93.5802 118.92 91.2702 118.26 89.3902 116.79C86.5702 114.62 85.1402 110.8 85.6502 107.3C86.9502 101.24 93.5802 98.56 98.8502 96.76C105.49 94.54 112.93 94.35 119.48 96.99C131.21 102.14 134.76 108.63 122.62 116.56Z" fill="#1D1D1B"/>
</g>
<g id="Vector_31">
<path d="M102.49 106.25C102.89 108.22 101.56 111.45 102.54 113.45C105.49 119.46 114.36 117.45 116.33 113.45C117.31 111.45 115.8 108.22 116.2 106.25" fill="#F2A1AE"/>
<path d="M102.49 106.25C102.89 108.22 101.56 111.45 102.54 113.45C105.49 119.46 114.36 117.45 116.33 113.45C117.31 111.45 115.8 108.22 116.2 106.25" stroke="#1D1D1B" stroke-width="0.5" stroke-miterlimit="10"/>
</g>
<g id="Group_18">
<path id="Vector_32" d="M121.26 139.34C133.49 151.08 142.43 183.37 123.09 192.38C109.92 198.51 92.3398 198.83 82.4298 187.02C64.9598 165.71 88.2998 115.67 121.25 139.34H121.26Z" fill="#FFF6BD"/>
<path id="Vector_33" d="M121.26 139.34C131.44 149.53 138.33 170.23 131.99 183.84C130.25 187.49 127.25 190.52 123.61 192.29C116.37 195.78 108.15 197.44 100.12 196.49C76.0398 193.54 71.2498 168.24 81.0498 149.34C89.6098 132.74 105.95 127.96 121.25 139.34H121.26ZM121.26 139.34C105.98 128.1 89.7398 132.87 81.2898 149.46C71.7098 168.21 76.4598 193 100.19 196.07C108.12 197.05 116.29 195.44 123.48 192.02C127.07 190.29 130.03 187.33 131.77 183.73C138.13 170.22 131.35 149.54 121.26 139.34Z" fill="#1D1D1B"/>
</g>
<g id="Group_19">
<path id="Vector_34" d="M109.64 111.11C106.04 112.44 107.68 108.12 107.12 106.96L109.33 106.8L109.64 111.11Z" fill="#FFF3CF" stroke="#1D1D1B" stroke-width="0.25" stroke-miterlimit="10"/>
<path id="Vector_35" d="M111.85 110.94C108.25 112.27 109.89 107.95 109.33 106.79L111.54 106.63L111.85 110.94Z" fill="#FFF3CF" stroke="#1D1D1B" stroke-width="0.25" stroke-miterlimit="10"/>
</g>
<g id="Group_20">
<g id="Vector_36">
<path d="M108.64 101.55C111.32 111.3 101.79 113.3 101.86 105.97L108.64 101.55Z" fill="#FFF6BD"/>
<path d="M108.64 101.55C111.32 111.3 101.79 113.3 101.86 105.97" stroke="#1D1D1B" stroke-width="0.5" stroke-miterlimit="10"/>
</g>
<g id="Vector_37">
<path d="M116.73 104.88C117.71 110.31 107.42 111.71 108.65 101.77L116.73 104.88Z" fill="#FFF6BD"/>
<path d="M116.73 104.88C117.71 110.31 107.42 111.71 108.65 101.77" stroke="#1D1D1B" stroke-width="0.5" stroke-miterlimit="10"/>
</g>
</g>
<path id="Vector_38" d="M9.89002 55.9C-2.70998 65.66 10.06 99.89 28 98.58C12.23 92.64 5.11002 63.17 9.89002 55.9Z" fill="#D56E34"/>
<path id="Vector_39" d="M97.1001 191.32C100.66 194.37 131.9 181.14 131.69 173.8C133.08 186.7 102.93 197.11 97.1001 191.32Z" fill="#E9E3BA"/>
<g id="Vector_40">
<path d="M108.44 100.53C114.84 96.71 112.1 102.76 108.51 104.44C105.24 102.86 102.24 96.51 108.46 100.53" fill="url(#paint0_radial_128_636)"/>
<path d="M108.44 100.53C114.84 96.71 112.1 102.76 108.51 104.44C105.24 102.86 102.24 96.51 108.46 100.53" stroke="#1D1D1B" stroke-width="0.5" stroke-miterlimit="10"/>
</g>
<path id="Vector_41" d="M128.06 38.88C128.06 38.88 123.19 30.91 123.05 30.33C122.91 29.75 128.63 33.58 128.63 33.58L128.06 20.78L131.11 32.63L134.56 25.01L133.33 34.54L136.86 35.88L128.06 38.88Z" fill="#A26F14" stroke="#1D1D1B" stroke-width="0.5" stroke-miterlimit="10"/>
<g id="Group_21">
<path id="Vector_42" d="M77.6398 41.89C77.6398 41.89 82.5098 33.92 82.6498 33.34C82.7898 32.76 77.0698 36.59 77.0698 36.59L77.6398 23.79L74.5898 35.64L71.1398 28.02L72.3699 37.55L68.8398 38.89L77.6398 41.89Z" fill="#A26F14"/>
<path id="Vector_43" d="M77.64 41.89C79.27 39.08 80.98 36.3 82.48 33.42L82.52 33.32C82.51 33.32 82.52 33.38 82.55 33.4C80.72 34.3 78.68 35.73 76.87 36.94L76.88 36.59L77.4 23.79L77.86 23.86L74.81 35.71L74.64 36.37L74.36 35.75L70.93 28.12L71.34 28L72.51 37.54C72.53 37.68 72.56 37.65 72.41 37.7L68.87 39.01V38.77L77.63 41.89H77.64ZM77.64 41.89L68.79 39L68.46 38.89L68.79 38.76L72.31 37.4L72.21 37.56C72.08 36.63 70.81 27.2 70.72 26.58C71.03 27.25 74.39 34.65 74.8 35.53L74.35 35.57L77.41 23.73L77.98 21.53L77.87 23.8L77.25 36.6L76.97 36.44C78.72 35.33 80.41 34.16 82.28 33.24C82.44 33.16 82.84 33.05 82.78 33.38C81.24 36.31 79.37 39.06 77.65 41.89H77.64Z" fill="#1D1D1B"/>
</g>
<g id="Group_22">
<g id="Vector_44">
<path d="M79.28 152.68C80.15 152.83 84.76 154 83.33 151.46C106.17 159.84 118.67 91.88 90.85 134.96C91.36 134.12 76.67 138.77 75.71 139.33" fill="#E57527"/>
<path d="M79.28 152.68C80.15 152.83 84.76 154 83.33 151.46C106.17 159.84 118.67 91.88 90.85 134.96C91.36 134.12 76.67 138.77 75.71 139.33" stroke="#1D1D1B" stroke-width="0.5" stroke-miterlimit="10"/>
</g>
<path id="Vector_45" d="M102.71 118.86C107.23 118.18 108.05 124.35 103.52 124.92C99.01 125.6 98.18 119.43 102.71 118.86Z" fill="#E57527" stroke="#1D1D1B" stroke-width="0.5" stroke-miterlimit="10"/>
<path id="Vector_46" d="M106.12 122.11C110.83 121.4 111.74 128.22 107.02 128.81C102.31 129.52 101.4 122.7 106.12 122.11Z" fill="#E57527" stroke="#1D1D1B" stroke-width="0.5" stroke-miterlimit="10"/>
<path id="Vector_47" d="M105.27 127.12C109.56 126.47 110.39 132.71 106.09 133.25C101.8 133.9 100.97 127.66 105.27 127.12Z" fill="#E57527" stroke="#1D1D1B" stroke-width="0.5" stroke-miterlimit="10"/>
<path id="Vector_48" d="M100.78 123.72C106.25 122.83 107.88 134.99 102.37 135.62C96.8999 136.51 95.2699 124.35 100.78 123.72Z" fill="#E57527"/>
</g>
<g id="Vector_49">
<path d="M118.31 133.48C120.1 131.36 121.35 129.3 122.25 127.47C124.77 122.32 124.22 119.48 127.17 115.46C128.5 113.64 130.32 111.16 132.09 111.46C136.22 112.14 136.91 127.25 137.01 129.48C137.25 134.72 136.96 141.55 135.04 149.5" fill="#E57527"/>
<path d="M118.31 133.48C120.1 131.36 121.35 129.3 122.25 127.47C124.77 122.32 124.22 119.48 127.17 115.46C128.5 113.64 130.32 111.16 132.09 111.46C136.22 112.14 136.91 127.25 137.01 129.48C137.25 134.72 136.96 141.55 135.04 149.5" stroke="#1D1D1B" stroke-width="0.5" stroke-miterlimit="10"/>
</g>
<g id="Group_23">
<g id="Group_24">
<path id="Vector_50" d="M103.04 89.49C104.99 94.86 97.6598 97.5 95.8398 92.09C93.8898 86.72 101.22 84.08 103.04 89.49Z" fill="#95C35A" stroke="#1D1D1B" stroke-width="0.5" stroke-miterlimit="10"/>
<path id="Vector_51" d="M102.23 90.4C103.81 94.77 98.5197 96.68 97.0297 92.28C95.4497 87.91 100.74 86 102.23 90.4Z" fill="black" stroke="#1D1D1B" stroke-width="0.5" stroke-miterlimit="10"/>
</g>
<path id="Vector_52" d="M98.1897 90.78C98.4297 91.36 97.5197 91.74 97.2997 91.15C97.0597 90.57 97.9697 90.19 98.1897 90.78Z" fill="white"/>
</g>
<g id="Group_25">
<g id="Group_26">
<path id="Vector_53" d="M110.89 89.94C111.04 95.66 118.81 95.35 118.52 89.64C118.37 83.92 110.6 84.23 110.89 89.94Z" fill="#83CACA" stroke="#1D1D1B" stroke-width="0.5" stroke-miterlimit="10"/>
<path id="Vector_54" d="M111.97 90.48C112.1 95.14 117.71 94.92 117.48 90.26C117.35 85.6 111.74 85.83 111.97 90.48Z" fill="black" stroke="#1D1D1B" stroke-width="0.5" stroke-miterlimit="10"/>
</g>
<path id="Vector_55" d="M113.63 89.28C113.63 89.91 112.65 89.91 112.67 89.28C112.67 88.65 113.65 88.65 113.63 89.28Z" fill="white"/>
</g>
<g id="Group_27">
<path id="Vector_56" d="M136.82 117.86C135.17 123.99 123.76 120.57 125.65 114.51C127.3 108.38 138.71 111.8 136.82 117.86Z" fill="#E57527" stroke="#1D1D1B" stroke-width="0.5" stroke-miterlimit="10"/>
<path id="Vector_57" d="M125.61 111.16C124.75 107.11 130.09 106.02 130.85 110.08C131.71 114.12 126.37 115.22 125.61 111.16Z" fill="#E57527" stroke="#1D1D1B" stroke-width="0.5" stroke-miterlimit="10"/>
<path id="Vector_58" d="M129.47 108.54C130.29 104.31 136.18 105.56 135.25 109.77C134.43 114 128.54 112.75 129.47 108.54Z" fill="#E57527" stroke="#1D1D1B" stroke-width="0.5" stroke-miterlimit="10"/>
<path id="Vector_59" d="M134.54 108.9C138.09 107.34 140.21 112.5 136.63 113.97C133.08 115.53 130.96 110.37 134.54 108.9Z" fill="#E57527" stroke="#1D1D1B" stroke-width="0.5" stroke-miterlimit="10"/>
<path id="Vector_60" d="M129.91 110.48C134.42 108.43 138.57 118.49 133.96 120.32C129.45 122.37 125.3 112.31 129.91 110.48Z" fill="#E57527"/>
<path id="Vector_61" d="M134.98 119.64C135.07 115.03 126.82 115.03 126.9 119.64C126.81 124.25 135.06 124.25 134.98 119.64Z" fill="#E57527"/>
<path id="Vector_62" d="M128.77 113.54C125.71 117.45 130.39 118.53 132.96 119.14C136.1 116.97 132.27 109.15 128.77 113.54Z" fill="#F2A1AE" stroke="#1D1D1B" stroke-width="0.5" stroke-miterlimit="10"/>
<path id="Vector_63" d="M126.61 110.21C126.48 111.75 128.64 112.51 128.75 110.65C128.88 109.11 126.72 108.35 126.61 110.21Z" fill="#F2A1AE" stroke="#1D1D1B" stroke-width="0.5" stroke-miterlimit="10"/>
<path id="Vector_64" d="M130.92 108C129.99 109.23 131.41 111.05 132.49 109.55C133.42 108.32 132 106.5 130.92 108Z" fill="#F2A1AE" stroke="#1D1D1B" stroke-width="0.5" stroke-miterlimit="10"/>
<path id="Vector_65" d="M135.54 110.32C134.04 110.56 133.83 112.87 135.62 112.54C137.12 112.3 137.33 109.99 135.54 110.32Z" fill="#F2A1AE" stroke="#1D1D1B" stroke-width="0.5" stroke-miterlimit="10"/>
</g>
<path id="Vector_66" d="M112.4 115.46C112.55 114.3 109.51 112.65 106.8 112.46C105.64 112.37 103.34 112.46 103.07 113.46C102.82 114.39 104.43 115.82 105.87 116.46C108.63 117.68 112.25 116.66 112.4 115.46Z" fill="#BF3261"/>
<path id="Vector_67" d="M138.01 93.43C139.55 93.85 141.71 95.95 143.69 99.44C146.53 104.45 144.75 114.5 140.85 122.47" stroke="#1D1D1B" stroke-linecap="round" stroke-linejoin="round"/>
<path id="Vector_68" d="M143.1 83.02C145.23 83.65 149.15 85.37 151.96 90.51C156.56 98.9 156.39 113.04 150.98 124.96" stroke="#1D1D1B" stroke-linecap="round" stroke-linejoin="round"/>
<path id="Vector_69" d="M144.9 75.41C148.8 76.05 157.38 78.08 163.61 85.42C172.79 96.24 173.11 114.19 163.61 129.47" stroke="#1D1D1B" stroke-linecap="round" stroke-linejoin="round"/>
<path id="Vector_70" d="M198.49 64.86C198.49 74.05 184.91 81.49 168.17 81.49C162.68 81.49 157.53 80.69 153.09 79.29L136.7 91.42L140.83 72.06C138.92 69.88 137.85 67.44 137.85 64.86C137.85 55.67 151.43 48.23 168.17 48.23C184.91 48.23 198.49 55.68 198.49 64.86Z" fill="white" stroke="#1D1D1B" stroke-width="0.5" stroke-miterlimit="10"/>
<path id="Vector_71" d="M172.09 65.73C172.09 66.81 171.93 67.79 171.63 68.69C171.32 69.59 170.85 70.36 170.21 71.02C169.57 71.68 168.77 72.19 167.81 72.56C166.85 72.93 165.73 73.11 164.45 73.11C163.33 73.11 162.34 73.03 161.48 72.87C160.62 72.71 160.03 72.55 159.71 72.39L160.1 70.26C160.28 70.35 160.52 70.43 160.82 70.5C161.12 70.57 161.45 70.64 161.82 70.7C162.19 70.76 162.57 70.81 162.97 70.85C163.37 70.89 163.77 70.9 164.17 70.9C165.79 70.9 167 70.52 167.81 69.75C168.62 68.99 169.08 67.93 169.2 66.59H162.85V64.57H169.14C168.96 63.37 168.49 62.41 167.72 61.7C166.95 60.99 165.82 60.64 164.32 60.64C163.5 60.64 162.78 60.7 162.16 60.82C161.54 60.94 161.06 61.07 160.72 61.21L160.12 59.19C160.32 59.1 160.58 59.01 160.91 58.92C161.24 58.83 161.6 58.75 161.99 58.68C162.38 58.61 162.78 58.55 163.2 58.51C163.62 58.47 164.03 58.44 164.43 58.44C165.69 58.44 166.79 58.63 167.74 59.01C168.69 59.39 169.48 59.91 170.12 60.57C170.76 61.23 171.24 62.01 171.57 62.89C171.9 63.77 172.06 64.72 172.06 65.74L172.09 65.73Z" fill="#A8111C"/>
</g>
<defs>
<radialGradient id="paint0_radial_128_636" cx="0" cy="0" r="1" gradientUnits="userSpaceOnUse" gradientTransform="translate(108.123 102.134) scale(2.8942 4.2914)">
<stop offset="0.17" stop-color="#EC72A8"/>
<stop offset="0.97" stop-color="#A33044"/>
</radialGradient>
</defs>
</svg>
