<svg width="50" height="50" viewBox="0 0 50 50" fill="none" xmlns="http://www.w3.org/2000/svg">
<path d="M35.645 10.845C36.7617 12.6083 37.1817 15.0233 37.1817 15.9617C37.1817 21.535 30.7133 26.745 24.3083 26.7483C17.83 26.75 11.4067 21.4217 11.435 15.9617C11.4467 13.8917 11.925 12.6483 12.8267 11.4383" stroke="#333333" stroke-linecap="round" stroke-linejoin="round"/>
<path d="M17.6983 6.56666C20.2767 5.11166 22.9233 5.15333 24.3083 5.17499C28.9217 5.24833 32.1117 7.25999 33.0067 7.95833" stroke="#333333" stroke-linecap="round" stroke-linejoin="round"/>
<path d="M12.215 11.575C10.59 10.73 9.32999 8.92334 9.34833 6.91501C9.37499 4.03501 12.0483 1.86001 14.5667 1.69667C14.9433 1.67167 17.6983 1.00001 19.09 3.78501" stroke="#333333" stroke-linecap="round" stroke-linejoin="round"/>
<path d="M29.5283 5.87167C29.5283 2.99 31.865 1 34.7467 1C37.7933 1 39.86 3.71167 39.965 6.21833C40.0633 8.52833 38.5067 10.925 36.485 11.4367" stroke="#333333" stroke-linecap="round" stroke-linejoin="round"/>
<path d="M24.3083 14.2217C27.96 14.2217 30.9183 16.5583 30.9183 19.44C30.9183 22.3217 27.9583 24.6583 24.3083 24.6583C20.6583 24.6583 17.6983 22.3217 17.6983 19.44C17.6983 16.5583 20.6583 14.2217 24.3083 14.2217ZM24.3083 13.2217C22.3183 13.2217 20.4383 13.8417 19.015 14.965C17.5217 16.145 16.6983 17.7333 16.6983 19.44C16.6983 21.1467 17.5217 22.7367 19.015 23.915C20.44 25.04 22.32 25.6583 24.3083 25.6583C26.2967 25.6583 28.1783 25.0383 29.6017 23.915C31.095 22.735 31.9183 21.1467 31.9183 19.44C31.9183 17.7333 31.095 16.1433 29.6017 14.965C28.1767 13.84 26.2967 13.2217 24.3083 13.2217Z" fill="#333333"/>
<path d="M14.2183 38.2283C17.1 38.2283 19.4367 40.565 19.4367 43.4467C19.4367 46.3283 17.1 48.665 14.2183 48.665C11.3367 48.665 9 46.3283 9 43.4467C9 40.565 11.3367 38.2283 14.2183 38.2283ZM14.2183 37.2283C10.79 37.2283 8 40.0183 8 43.4467C8 46.875 10.79 49.665 14.2183 49.665C17.6467 49.665 20.4367 46.875 20.4367 43.4467C20.4367 40.0183 17.6467 37.2283 14.2183 37.2283Z" fill="#333333"/>
<path d="M13.76 36.6917C14.2433 34.2583 15.1267 32.5417 15.61 31.6183C16.24 30.4167 17.235 28.8033 18.7717 27.1417" stroke="#333333" stroke-linecap="round" stroke-linejoin="round"/>
<path d="M28.745 46.77C27.5017 46.9233 26.485 46.925 25.005 46.9283C23.05 46.9317 21.7633 46.9333 20.1633 46.6583" stroke="#333333" stroke-linecap="round" stroke-linejoin="round"/>
<path d="M31.615 27.4433C32.6983 28.6667 36.075 33.2867 36.8517 36.615" stroke="#333333" stroke-linecap="round" stroke-linejoin="round"/>
<path d="M35.79 38.2283C38.6717 38.2283 41.0083 40.565 41.0083 43.4467C41.0083 46.3283 38.6717 48.665 35.79 48.665C32.9083 48.665 30.5717 46.3283 30.5717 43.4467C30.5717 40.565 32.9083 38.2283 35.79 38.2283ZM35.79 37.2283C32.3617 37.2283 29.5717 40.0183 29.5717 43.4467C29.5717 46.875 32.3617 49.665 35.79 49.665C39.2183 49.665 42.0083 46.875 42.0083 43.4467C42.0083 40.0183 39.2183 37.2283 35.79 37.2283Z" fill="#333333"/>
<path d="M17.0017 26.0517C15.965 26.3183 14.3667 26.8767 12.8267 28.14C10.5333 30.02 8.11333 33.6767 9.34666 35.795C9.575 36.1867 10.0983 36.8167 11.435 37.1867" stroke="#333333" stroke-linecap="round" stroke-linejoin="round"/>
<path d="M32.8533 26.2883C33.89 26.555 35.4883 27.1133 37.0283 28.3767C39.3217 30.2567 41.7417 33.9133 40.5083 36.0317C40.28 36.4233 39.7567 37.0533 38.42 37.4233" stroke="#333333" stroke-linecap="round" stroke-linejoin="round"/>
<path d="M19.4383 13.1783C20.2069 13.1783 20.83 12.5553 20.83 11.7867C20.83 11.0181 20.2069 10.395 19.4383 10.395C18.6697 10.395 18.0467 11.0181 18.0467 11.7867C18.0467 12.5553 18.6697 13.1783 19.4383 13.1783Z" fill="#4D4D4D"/>
<path d="M28.485 13.1783C29.2536 13.1783 29.8767 12.5553 29.8767 11.7867C29.8767 11.0181 29.2536 10.395 28.485 10.395C27.7164 10.395 27.0933 11.0181 27.0933 11.7867C27.0933 12.5553 27.7164 13.1783 28.485 13.1783Z" fill="#4D4D4D"/>
<path d="M24.3083 20.1367C25.0769 20.1367 25.7 19.5136 25.7 18.745C25.7 17.9764 25.0769 17.3533 24.3083 17.3533C23.5397 17.3533 22.9167 17.9764 22.9167 18.745C22.9167 19.5136 23.5397 20.1367 24.3083 20.1367Z" fill="#4D4D4D"/>
</svg>
