<svg width="50" height="50" viewBox="0 0 50 50" fill="none" xmlns="http://www.w3.org/2000/svg">
<path d="M30.875 3.16666C32.1533 3.16666 33.3083 3.68332 34.145 4.52166C34.6783 5.05332 35.08 5.71332 35.3017 6.45166C35.7617 6.31999 36.2483 6.24999 36.75 6.24999C39.65 6.24999 42 8.59999 42 11.5C42 12.6183 41.65 13.6567 41.0533 14.5083C41.355 14.4433 41.6683 14.41 41.99 14.41C44.4733 14.41 46.4883 16.4233 46.4883 18.9083C46.4883 20.7733 45.3517 22.3733 43.7333 23.0533C46.1533 24.1583 47.8333 26.5933 47.8333 29.4183C47.8333 33.2833 44.6883 36.4167 40.81 36.4167C40.7533 36.4167 40.6967 36.4167 40.64 36.4167C40.7667 36.8683 40.8333 37.3433 40.8333 37.835C40.8333 40.735 38.4833 43.085 35.5833 43.085C35.4583 43.085 35.3333 43.08 35.2117 43.0717C34.5583 44.8317 32.8633 46.085 30.875 46.085C28.32 46.085 26.25 44.015 26.25 41.46V7.79166C26.25 5.23666 28.32 3.16666 30.875 3.16666ZM30.875 2.16666C27.7733 2.16666 25.25 4.68999 25.25 7.79166V41.4583C25.25 44.56 27.7733 47.0833 30.875 47.0833C32.9717 47.0833 34.8917 45.9 35.855 44.0783C39.1767 43.9367 41.8333 41.19 41.8333 37.8333C41.8333 37.6733 41.8267 37.5133 41.815 37.355C45.7667 36.86 48.8333 33.49 48.8333 29.4183C48.8333 26.8817 47.6183 24.52 45.6333 23.0267C46.7933 22.0033 47.4883 20.515 47.4883 18.9083C47.4883 16.1133 45.3917 13.7983 42.6883 13.455C42.8933 12.83 43 12.1733 43 11.5C43 8.05332 40.1967 5.24999 36.75 5.24999C36.4717 5.24999 36.195 5.26832 35.92 5.30499C35.6483 4.75499 35.2867 4.24999 34.85 3.81332C33.79 2.75166 32.3783 2.16666 30.8733 2.16666H30.875Z" fill="#333333"/>
<path d="M40.75 36.4167C40.4133 36.4483 38.3117 36.615 36.75 35.0833C35.2183 33.5817 34.8433 31.0733 35.9167 29.25C36.6867 27.9417 37.9483 27.4183 38.4167 27.25" stroke="#333333" stroke-linecap="round" stroke-linejoin="round"/>
<path d="M33.0833 11.5833C32.96 12.0417 32.8183 12.8483 33.0833 13.75C33.5783 15.4317 35.2633 16.675 37.0833 16.75C39.595 16.8533 41.025 14.675 41.0833 14.5833" stroke="#333333" stroke-linecap="round" stroke-linejoin="round"/>
<path d="M29.7883 37.0867C29.6883 36.7167 29.5733 36.0667 29.7883 35.3383C30.2217 33.865 31.76 33.0633 33.0167 32.9183C34.345 32.7633 35.3733 33.3433 35.7517 33.585" stroke="#333333" stroke-linecap="round" stroke-linejoin="round"/>
<path d="M19.0417 3.10001C21.5967 3.10001 23.6667 5.17001 23.6667 7.72501V41.3917C23.6667 43.9467 21.5967 46.0167 19.0417 46.0167C17.0533 46.0167 15.3583 44.7633 14.705 43.0033C14.5833 43.0117 14.4583 43.0167 14.3333 43.0167C11.4333 43.0167 9.08333 40.6667 9.08333 37.7667C9.08333 37.275 9.15 36.8 9.27666 36.3483C9.22 36.35 9.16333 36.35 9.10667 36.35C5.22833 36.35 2.08333 33.2167 2.08333 29.3517C2.08333 26.5267 3.76333 24.0917 6.18333 22.9867C4.565 22.3067 3.42833 20.7067 3.42833 18.8417C3.42833 16.3567 5.44333 14.3433 7.92667 14.3433C8.24833 14.3433 8.56167 14.3767 8.86333 14.4417C8.26667 13.59 7.91667 12.5517 7.91667 11.4333C7.91667 8.53334 10.2667 6.18334 13.1667 6.18334C13.6683 6.18334 14.155 6.25334 14.615 6.38501C14.8367 5.64667 15.2383 4.98667 15.7717 4.45501C16.6083 3.61667 17.7633 3.10001 19.0417 3.10001ZM19.0417 2.10001C17.5383 2.10001 16.125 2.68501 15.0633 3.74834C14.6283 4.18167 14.2667 4.68834 13.995 5.23667C13.7217 5.20001 13.445 5.18167 13.165 5.18167C9.71833 5.18167 6.915 7.98501 6.915 11.4317C6.915 12.1033 7.02 12.7617 7.22667 13.3867C4.52333 13.7317 2.42667 16.045 2.42667 18.84C2.42667 20.4467 3.12167 21.935 4.28167 22.9583C2.29833 24.4517 1.08167 26.8133 1.08167 29.35C1.08167 33.4217 4.14833 36.7917 8.1 37.2867C8.08833 37.445 8.08167 37.605 8.08167 37.765C8.08167 41.12 10.74 43.8667 14.06 44.01C15.0217 45.8333 16.9417 47.015 19.04 47.015C22.1417 47.015 24.665 44.4917 24.665 41.39V7.72501C24.665 4.62334 22.1417 2.10001 19.04 2.10001H19.0417Z" fill="#333333"/>
<path d="M9.16666 36.3417C9.71332 36.385 13.12 36.6083 15.655 34.5467C18.14 32.525 18.7483 29.1483 17.0067 26.6933C15.7567 24.9333 13.7117 24.2267 12.9517 24" stroke="#333333" stroke-linecap="round" stroke-linejoin="round"/>
<path d="M8.83334 14.5167C8.89168 14.6083 10.3217 16.7867 12.8333 16.6833" stroke="#333333" stroke-linecap="round" stroke-linejoin="round"/>
</svg>
