<svg width="50" height="50" viewBox="0 0 50 50" fill="none" xmlns="http://www.w3.org/2000/svg">
<path d="M43.9483 1.53168H6.635C5.04166 1.53168 3.75 2.82334 3.75 4.41668V45.5317C3.75 47.125 5.04166 48.4167 6.635 48.4167H43.9483C45.5417 48.4167 46.8333 47.125 46.8333 45.5317V4.41668C46.8333 2.82334 45.5417 1.53168 43.9483 1.53168Z" stroke="#333333" stroke-miterlimit="10"/>
<path d="M10.6467 17.565C13.5517 17.565 15.9067 15.0548 15.9067 11.9583C15.9067 8.86184 13.5517 6.35165 10.6467 6.35165C7.74164 6.35165 5.38666 8.86184 5.38666 11.9583C5.38666 15.0548 7.74164 17.565 10.6467 17.565Z" stroke="#333333" stroke-miterlimit="10"/>
<path d="M10.6467 31.42C13.5517 31.42 15.9067 28.9098 15.9067 25.8133C15.9067 22.7169 13.5517 20.2067 10.6467 20.2067C7.74164 20.2067 5.38666 22.7169 5.38666 25.8133C5.38666 28.9098 7.74164 31.42 10.6467 31.42Z" stroke="#333333" stroke-miterlimit="10"/>
<path d="M10.6467 45.0617C13.5517 45.0617 15.9067 42.5515 15.9067 39.455C15.9067 36.3585 13.5517 33.8483 10.6467 33.8483C7.74164 33.8483 5.38666 36.3585 5.38666 39.455C5.38666 42.5515 7.74164 45.0617 10.6467 45.0617Z" stroke="#333333" stroke-miterlimit="10"/>
<path d="M43.56 10.5883H18.4783V13.08H43.56V10.5883Z" fill="#B3B3B3"/>
<path d="M43.56 24.6917H18.4783V27.1833H43.56V24.6917Z" fill="#B3B3B3"/>
<path d="M43.56 38.335H18.4783V40.8267H43.56V38.335Z" fill="#B3B3B3"/>
<path d="M10.455 15.55C9.93668 15.55 9.46668 15.4667 9.04001 15.3017C8.61334 15.1367 8.25001 14.895 7.94501 14.5767C7.64001 14.2583 7.40501 13.8667 7.23834 13.4017C7.07168 12.935 6.98834 12.4017 6.98834 11.8017C6.98834 11.2017 7.08168 10.6683 7.27001 10.2017C7.45834 9.73501 7.71168 9.34334 8.03001 9.02668C8.34834 8.70834 8.72168 8.46668 9.14668 8.30168C9.57168 8.13668 10.025 8.05334 10.5083 8.05334C10.8133 8.05334 11.0883 8.07334 11.3333 8.11501C11.5783 8.15668 11.79 8.20501 11.9717 8.26001C12.1517 8.31501 12.3 8.37001 12.4133 8.42501C12.5267 8.48001 12.605 8.52168 12.6467 8.55001L12.3483 9.37834C12.285 9.33668 12.1917 9.29168 12.0717 9.24334C11.9517 9.19501 11.815 9.14668 11.6617 9.09834C11.5083 9.05001 11.3433 9.01001 11.1617 8.98001C10.9817 8.94835 10.7983 8.93334 10.6133 8.93334C10.2233 8.93334 9.87168 8.99834 9.56001 9.13001C9.24834 9.26168 8.98168 9.45168 8.76168 9.70001C8.54168 9.94834 8.37334 10.25 8.25668 10.6067C8.14001 10.9617 8.08168 11.3617 8.08168 11.8033C8.08168 12.245 8.13334 12.6217 8.23668 12.9733C8.34001 13.325 8.49334 13.6283 8.70001 13.88C8.90501 14.1317 9.16334 14.3267 9.47168 14.465C9.78001 14.6033 10.14 14.6717 10.5517 14.6717C11.0267 14.6717 11.42 14.6233 11.7317 14.5267C12.0433 14.43 12.2767 14.3433 12.4333 14.2683L12.7 15.0967C12.65 15.1317 12.5617 15.175 12.4333 15.2267C12.305 15.2783 12.1467 15.3283 11.955 15.3767C11.7633 15.425 11.54 15.4667 11.285 15.5017C11.03 15.5367 10.7533 15.5533 10.455 15.5533V15.55Z" fill="#333333"/>
<path d="M10.8467 21.825C11.8817 21.825 12.6783 22.0167 13.235 22.4C13.7917 22.7833 14.07 23.355 14.07 24.115C14.07 24.53 13.9933 24.8833 13.8417 25.1767C13.6883 25.47 13.47 25.7083 13.1817 25.8917C12.895 26.075 12.545 26.2083 12.1333 26.29C11.7217 26.3733 11.2583 26.415 10.74 26.415H9.92168V29.0767H8.89001V22.0017C9.18001 21.9333 9.50501 21.8867 9.86335 21.8617C10.2217 21.8383 10.55 21.825 10.8467 21.825ZM10.9317 22.705C10.4917 22.705 10.155 22.715 9.92168 22.7367V25.5533H10.6983C11.0533 25.5533 11.3717 25.5317 11.655 25.4867C11.9383 25.4417 12.1783 25.3667 12.3733 25.2583C12.5683 25.1517 12.7183 25.005 12.825 24.8183C12.9317 24.6317 12.985 24.3933 12.985 24.1033C12.985 23.8133 12.93 23.6 12.82 23.42C12.71 23.24 12.5617 23.0967 12.3733 22.99C12.185 22.8833 11.9667 22.8083 11.72 22.7667C11.4717 22.725 11.21 22.705 10.9333 22.705H10.9317Z" fill="#333333"/>
<path d="M9.40334 39.1017C9.235 38.9117 9.05001 38.7 8.84667 38.47C8.64334 38.2383 8.43834 38.005 8.23501 37.7683C8.03167 37.5317 7.83334 37.2983 7.64001 37.07C7.44667 36.8417 7.27501 36.635 7.12501 36.45H8.07167C8.19501 36.6017 8.34167 36.7817 8.51167 36.9883C8.68167 37.195 8.86334 37.4117 9.05667 37.6367C9.25001 37.8617 9.445 38.09 9.64334 38.3217C9.84167 38.5533 10.03 38.7683 10.2083 38.97V36.4483H10.9867V38.97C11.16 38.7683 11.345 38.5533 11.5433 38.3217C11.7417 38.09 11.9367 37.86 12.13 37.6317C12.3233 37.4033 12.505 37.1867 12.6783 36.9833C12.8517 36.78 13 36.6017 13.1217 36.4483H14.06C13.9083 36.6333 13.7367 36.84 13.545 37.0683C13.3517 37.2967 13.1533 37.53 12.95 37.7667C12.7467 38.0033 12.5433 38.235 12.3433 38.465C12.1417 38.6933 11.9583 38.9033 11.79 39.0933C12.0133 39.2883 12.2367 39.5083 12.46 39.75C12.6833 39.9917 12.9 40.2433 13.1083 40.505C13.3183 40.7667 13.515 41.0333 13.6983 41.305C13.8833 41.5767 14.0467 41.8433 14.1917 42.105H13.27C13.1183 41.855 12.9483 41.6033 12.7583 41.35C12.5683 41.0967 12.3733 40.8517 12.1717 40.615C11.97 40.3783 11.7683 40.1567 11.565 39.95C11.3617 39.7433 11.1667 39.5617 10.9833 39.4033V42.1033H10.205V39.4033C10.02 39.5617 9.825 39.7433 9.61834 39.95C9.41167 40.1567 9.20834 40.3783 9.00667 40.615C8.80501 40.8517 8.61167 41.0967 8.425 41.35C8.23834 41.6033 8.06834 41.855 7.91834 42.105H7.005C7.145 41.8433 7.30667 41.5767 7.49 41.305C7.675 41.0333 7.87167 40.7667 8.08 40.505C8.29 40.2433 8.50667 39.9933 8.73334 39.755C8.96001 39.515 9.18167 39.2983 9.40001 39.1017H9.40334Z" fill="#333333"/>
</svg>
