<svg width="50" height="50" viewBox="0 0 50 50" fill="none" xmlns="http://www.w3.org/2000/svg">
<path d="M41.75 25.75C41.7467 30.6733 41.755 33.5983 41.7733 38.5233C41.7733 38.565 41.77 38.72 41.5117 38.975C41.18 39.3 40.725 39.47 40.26 39.47H7.695C6.16 39.47 4.91667 38.2267 4.91667 36.6917V14.945C4.91667 13.41 6.16 12.1667 7.695 12.1667L27.4167 12.25" stroke="#333333" stroke-linecap="round" stroke-linejoin="round"/>
<path d="M5.60001 31.96H41.095" stroke="#333333" stroke-linecap="round" stroke-linejoin="round"/>
<path d="M23.395 37.1667C24.1894 37.1667 24.8333 36.4951 24.8333 35.6667C24.8333 34.8382 24.1894 34.1667 23.395 34.1667C22.6006 34.1667 21.9567 34.8382 21.9567 35.6667C21.9567 36.4951 22.6006 37.1667 23.395 37.1667Z" fill="#333333"/>
<path d="M12.0667 47.6667H34.5917" stroke="#333333" stroke-linecap="round" stroke-linejoin="round"/>
<path d="M18.5667 47.6667V39.4767" stroke="#333333" stroke-linecap="round" stroke-linejoin="round"/>
<path d="M27.44 47.6667V39.4767" stroke="#333333" stroke-linecap="round" stroke-linejoin="round"/>
<path d="M42.4467 3.58334H34.0533C32.7812 3.58334 31.75 4.61458 31.75 5.88668V20.4383C31.75 21.7104 32.7812 22.7417 34.0533 22.7417H42.4467C43.7188 22.7417 44.75 21.7104 44.75 20.4383V5.88668C44.75 4.61458 43.7188 3.58334 42.4467 3.58334Z" stroke="#333333" stroke-linecap="round" stroke-linejoin="round"/>
<path d="M40.6667 4.83334H35.8333V5.16668H40.6667V4.83334Z" fill="#333333"/>
<path d="M38.5133 20.8333C38.9717 20.8333 39.3433 20.4461 39.3433 19.9683C39.3433 19.4906 38.9717 19.1033 38.5133 19.1033C38.0549 19.1033 37.6833 19.4906 37.6833 19.9683C37.6833 20.4461 38.0549 20.8333 38.5133 20.8333Z" fill="#333333"/>
</svg>
