<svg width="50" height="50" viewBox="0 0 50 50" fill="none" xmlns="http://www.w3.org/2000/svg">
<g clip-path="url(#clip0_69_138)">
<path d="M24.9483 0.633331C11.5017 0.633331 0.601669 11.5333 0.601669 24.98C0.601669 38.4267 11.5017 49.3283 24.9483 49.3283C38.395 49.3283 49.2967 38.4283 49.2967 24.98C49.2967 11.5317 38.3967 0.633331 24.9483 0.633331ZM25.0417 46.9167C12.96 46.9167 3.16667 37.1233 3.16667 25.0417C3.16667 12.96 12.96 3.16666 25.0417 3.16666C37.1233 3.16666 46.9167 12.96 46.9167 25.0417C46.9167 37.1233 37.1233 46.9167 25.0417 46.9167Z" fill="#B3B3B3"/>
<path d="M5.17166 24.3933L6.94999 23.7633L15.7517 30.6783L15.54 30.9867L12.305 21.8633L14.2567 21.1717L18.3617 32.7483L16.5533 33.39L7.85666 26.67L8.05833 26.365L11.22 35.28L9.27833 35.9683L5.17333 24.3917L5.17166 24.3933Z" fill="#333333"/>
<path d="M17.1017 20.1633L19.1033 19.4533L23.21 31.0383L21.2083 31.7483L17.1017 20.1633ZM18.1083 19.8067L25.0183 17.3567L25.5467 18.8467L18.6367 21.2967L18.1083 19.8067ZM19.9133 24.8983L26.01 22.7367L26.535 24.2183L20.4383 26.38L19.9133 24.8983ZM21.6867 29.9017L28.5967 27.4517L29.125 28.9417L22.215 31.3917L21.6867 29.9017Z" fill="#333333"/>
<path d="M32.4567 14.72L33.87 14.22L39.5033 22.3667L38.26 12.6633L40.3033 11.9383L41.585 24.525L39.4817 25.27L34.51 18.055L35.0717 26.8333L32.9583 27.5833L26.0367 16.9967L28.08 16.2733L33.215 24.5967L32.4583 14.7217L32.4567 14.72Z" fill="#333333"/>
</g>
<defs>
<clipPath id="clip0_69_138">
<rect width="50" height="50" fill="white"/>
</clipPath>
</defs>
</svg>
