<svg width="50" height="50" viewBox="0 0 50 50" fill="none" xmlns="http://www.w3.org/2000/svg">
<g clip-path="url(#clip0_124_4640)">
<path d="M33.4667 3.82499C34.4833 4.76666 35.6467 5.68333 36.9233 6.53333C38.4 7.51666 39.8917 8.31499 41.3267 8.92333C41.3933 8.25333 41.44 7.59999 41.465 6.96666C41.5767 4.45166 41.4133 2.26833 41.195 0.554993C39.7933 0.974993 37.7583 1.66833 35.4117 2.81166C34.7833 3.11499 34.135 3.45166 33.4683 3.82499H33.4667Z" stroke="#333333" stroke-linecap="round" stroke-linejoin="round"/>
<path d="M41.3267 8.92333C41.2933 9.28999 41.2533 9.65833 41.2033 10.035C41.13 10.61 41.0017 11.6383 40.7383 12.9717C40.48 14.3117 40.0833 15.9583 39.4833 17.77C38.0233 22.1683 35.34 27.525 30.3533 31.7183C30.155 31.175 29.8483 30.7067 29.3867 30.425C27.2667 29.1233 22.3567 32.03 21.6517 35.605C21.5867 35.9283 21.5633 36.2267 21.5617 36.485L16.745 33.28C16.95 33.1817 17.1683 33.0567 17.395 32.8933C20.2633 30.8383 20.8083 25.1483 18.7867 23.6967C18.19 23.27 17.4117 23.24 16.6433 23.3867C16.6667 23.3 16.6883 23.215 16.7117 23.1333C18.485 16.6967 22.3933 12.07 26.03 8.93666C27.4267 7.72833 28.7867 6.74166 29.9667 5.95999C31.1717 5.15833 32.19 4.56666 32.875 4.16666C33.075 4.05166 33.2717 3.93833 33.47 3.82666C34.4867 4.76833 35.65 5.68499 36.925 6.53499C38.4017 7.51833 39.895 8.31666 41.33 8.92499L41.3267 8.92333Z" stroke="#333333" stroke-linecap="round" stroke-linejoin="round"/>
<path d="M36.4737 14.2363C36.6848 12.0022 35.0286 10.0183 32.7742 9.80519C30.5199 9.5921 28.5212 11.2305 28.3101 13.4646C28.0989 15.6988 29.7551 17.6827 32.0095 17.8958C34.2638 18.1089 36.2625 16.4705 36.4737 14.2363Z" stroke="#333333" stroke-linecap="round" stroke-linejoin="round"/>
<path d="M30.6283 35.475C30.2133 39.88 26.88 42.5067 25.975 43.175C25.6033 42.0467 24.95 40.4967 23.775 38.8967C23.02 37.8717 22.24 37.0783 21.5633 36.4867H21.5617C21.5633 36.2267 21.5867 35.9283 21.6517 35.605C22.3583 32.03 27.2683 29.1233 29.3867 30.425C29.8483 30.7083 30.1533 31.175 30.3533 31.7183C30.8533 33.085 30.68 34.925 30.6283 35.475Z" stroke="#333333" stroke-linecap="round" stroke-linejoin="round"/>
<path d="M17.3933 32.8917C17.1667 33.0533 16.9483 33.18 16.7433 33.2783C16.7133 33.2933 16.6833 33.3083 16.6533 33.32C15.8483 32.925 14.825 32.5117 13.61 32.2133C11.71 31.7517 10.0733 31.7567 8.92 31.855C9.13833 30.7533 10.0867 26.6367 13.8067 24.525C14.205 24.3 15.41 23.615 16.64 23.3833C17.4083 23.2367 18.1867 23.2667 18.7833 23.6933C20.805 25.145 20.26 30.835 17.3917 32.89L17.3933 32.8917Z" stroke="#333333" stroke-linecap="round" stroke-linejoin="round"/>
<path d="M15.6267 34.5083C15.0383 35.18 14.2883 36.1983 13.725 37.58C12.7933 39.8667 12.8733 41.92 12.9933 42.9917C13.9667 42.86 16.8167 42.3417 18.8433 39.92C19.4817 39.1583 19.8917 38.3833 20.16 37.7267" stroke="#666666" stroke-miterlimit="10"/>
<path d="M13.2933 33.5533C12.1867 34.815 10.7783 36.7283 9.71833 39.3267C7.96666 43.625 8.11666 47.485 8.34333 49.5C10.1733 49.2533 15.5283 48.2783 19.3417 43.7267C20.54 42.295 21.3117 40.8383 21.8167 39.6033" stroke="#666666" stroke-miterlimit="10"/>
</g>
<defs>
<clipPath id="clip0_124_4640">
<rect width="50" height="50" fill="white"/>
</clipPath>
</defs>
</svg>
