<?xml version="1.0" encoding="UTF-8"?>
<svg id="_Слой_1" data-name="Слой 1" xmlns="http://www.w3.org/2000/svg" xmlns:xlink="http://www.w3.org/1999/xlink" viewBox="0 0 1440 1024">
  <defs>
    <style>
      .cls-1, .cls-2 {
        fill: #fff;
      }

      .cls-3 {
        fill: #49c2ef;
      }

      .cls-4 {
        fill: #c17802;
      }

      .cls-5 {
        fill: #fedd80;
      }

      .cls-6 {
        fill: #6fce1b;
        stroke: #006837;
      }

      .cls-6, .cls-2, .cls-7, .cls-8, .cls-9, .cls-10, .cls-11 {
        stroke-miterlimit: 10;
      }

      .cls-12 {
        fill: #fce4ca;
        opacity: .56;
      }

      .cls-13 {
        fill: #fdf4bb;
      }

      .cls-14 {
        fill: #ffe3c5;
      }

      .cls-15 {
        fill: #fffaf5;
      }

      .cls-16 {
        fill: #c69c6d;
      }

      .cls-17 {
        fill: #fdca88;
      }

      .cls-18 {
        fill: #80ddf9;
      }

      .cls-2, .cls-10, .cls-11 {
        stroke: #000;
      }

      .cls-7 {
        fill: url(#_Безымянный_градиент_5);
        stroke: #b3b3b3;
      }

      .cls-19 {
        fill: #ffc580;
      }

      .cls-20 {
        fill: #fbec9b;
      }

      .cls-21 {
        fill: #fadcdc;
      }

      .cls-22 {
        fill: #fefcef;
      }

      .cls-23 {
        fill: #42b8ea;
      }

      .cls-8 {
        fill: #fdf3f1;
      }

      .cls-8, .cls-9 {
        stroke: #c69c6d;
      }

      .cls-9 {
        fill: #f5dbb8;
      }

      .cls-10 {
        fill: #e99700;
      }

      .cls-24 {
        fill: #fffefa;
      }

      .cls-25 {
        fill: #1d7c05;
        opacity: .47;
      }

      .cls-26 {
        opacity: .25;
      }

      .cls-27 {
        fill: #bf60bf;
        opacity: .12;
      }

      .cls-11 {
        fill: #a8d113;
      }
    </style>
    <radialGradient id="_Безымянный_градиент_5" data-name="Безымянный градиент 5" cx="1180.01" cy="849.65" fx="1180.01" fy="849.65" r="43.19" gradientTransform="translate(-499.24 84.55) scale(1.19 .87)" gradientUnits="userSpaceOnUse">
      <stop offset="0" stop-color="#fff"/>
      <stop offset=".27" stop-color="#fbfbfa"/>
      <stop offset=".57" stop-color="#f0efed"/>
      <stop offset=".87" stop-color="#dedcd8"/>
      <stop offset="1" stop-color="#d5d2cd"/>
    </radialGradient>
  </defs>
  <g class="cls-26">
    <rect class="cls-21" x="2.75" width="1435.7" height="398.04"/>
    <g>
      <ellipse class="cls-13" cx="661.26" cy="409.27" rx="333.95" ry="339.29"/>
      <ellipse class="cls-14" cx="660.98" cy="409.55" rx="235.62" ry="239.38"/>
      <ellipse class="cls-17" cx="661.12" cy="409.22" rx="149.63" ry="152.02"/>
    </g>
    <path class="cls-20" d="m2.37,592.31c61.19,18.54,155.24,41.58,271.58,47.22,92.05,4.46,100.37-6.71,316.47-17.4,129.16-6.39,241.06-8.08,308.99-9.11,117.48-1.78,125.58.03,185.54-1.66,83.87-2.36,204.82-9.76,353.87-33.14-.25,127.03-.5,254.06-.75,381.09H2.37v-367.01Z"/>
    <path class="cls-5" d="m2.37,728.18c61.19,18.54,155.24,41.58,271.58,47.22,92.05,4.46,100.37-6.71,316.47-17.4,129.16-6.39,241.06-8.08,308.99-9.11,117.48-1.78,125.58.03,185.54-1.66,83.87-2.36,204.82-9.76,353.87-33.14-.25,127.03-.5,118.61-.75,245.64H2.37v-231.55Z"/>
    <path class="cls-19" d="m2,864.75c61.19,28.74,155.24,64.46,271.58,73.2,92.05,6.92,100.37-10.39,316.47-26.97,129.16-9.91,241.06-12.53,308.99-14.13,117.48-2.76,125.58.05,185.54-2.57,83.87-3.66,204.82-15.13,353.87-51.37-.25,196.92.25-15.84,0,181.08H2.75c0-189.64-.75,30.39-.75-159.25Z"/>
    <path class="cls-18" d="m2.75,668.12c12.96-.29,32.79-.27,56.86,1.66,71.07,5.7,93,21.18,137.66,24.03,58.78,3.75,55.85-20.84,130.93-28.17,73.3-7.15,81.7,15.74,163.1,14.91,84.61-.87,87.43-25.73,160.1-25.68,89.36.06,100.5,37.66,183.3,46.39,99.98,10.55,97.37-42.85,236.41-57.99,95.7-10.42,123.4,11.99,264.1,0,44.16-3.76,80.11-9.27,103.24-13.26v-107.7c-478.81,5.8-957.63,11.6-1436.44,17.4.25,42.8.5,85.61.75,128.41Z"/>
    <path class="cls-23" d="m2.75,606.84c12.96-.29,32.79-.27,56.86,1.66,71.07,5.7,93,21.18,137.66,24.03,58.78,3.75,55.85-20.84,130.93-28.17,73.3-7.15,81.7,15.74,163.1,14.91,84.61-.87,87.43-25.73,160.1-25.68,89.36.06,100.5,37.66,183.3,46.39,99.98,10.55,97.37-42.85,236.41-57.99,95.7-10.42,123.4,11.99,264.1,0,44.16-3.76,80.11-9.27,103.24-13.26v-107.7c-478.81,5.8-957.63,11.6-1436.44,17.4.25,42.8.5,85.61.75,128.41Z"/>
    <path class="cls-3" d="m2.75,526.48c12.96-.29,32.79-.27,56.86,1.66,71.07,5.7,93,21.18,137.66,24.03,58.78,3.75,55.85-20.84,130.93-28.17,73.3-7.15,81.7,15.74,163.1,14.91,84.61-.87,87.43-25.73,160.1-25.68,89.36.06,100.5,37.66,183.3,46.39,99.98,10.55,97.37-42.85,236.41-57.99,95.7-10.42,123.4,11.99,264.1,0,44.16-3.76,80.11-9.27,103.24-13.26v-107.7c-478.81,5.8-957.63,11.6-1436.44,17.4.25,42.8.5,85.61.75,128.41Z"/>
    <path class="cls-12" d="m436.11,415.44c1.09-2.21,17.59,12.35,44.21,13.28,26.56.92,43.92-12.39,44.96-9.96,1.16,2.71-18.55,23.4-43.46,23.24-26.56-.18-46.99-23.98-45.71-26.55Z"/>
    <path class="cls-12" d="m567.95,415.75c1.09-2.21,17.59,12.35,44.21,13.28,26.56.92,43.92-12.39,44.96-9.96,1.16,2.71-18.55,23.4-43.46,23.24-26.56-.18-46.99-23.98-45.71-26.55Z"/>
    <path class="cls-12" d="m690.1,415.75c1.09-2.21,17.59,12.35,44.21,13.28,26.56.92,43.92-12.39,44.96-9.96,1.16,2.71-18.55,23.4-43.46,23.24-26.56-.18-46.99-23.98-45.71-26.55Z"/>
    <path class="cls-12" d="m810.7,415.75c1.09-2.2,17.56,12.33,44.14,13.26,26.51.92,43.85-12.37,44.89-9.94,1.16,2.7-18.52,23.36-43.39,23.2-26.52-.18-46.91-23.94-45.64-26.51Z"/>
    <path class="cls-12" d="m327.05,471.19c1.09-2.21,17.59,12.35,44.21,13.28,26.56.92,43.92-12.39,44.96-9.96,1.16,2.71-18.55,23.4-43.46,23.24-26.56-.18-46.99-23.98-45.71-26.55Z"/>
    <path class="cls-12" d="m467.13,477.31c1.09-2.21,17.59,12.35,44.21,13.28,26.56.92,43.92-12.39,44.96-9.96,1.16,2.71-18.55,23.4-43.46,23.24-26.56-.18-46.99-23.98-45.71-26.55Z"/>
    <path class="cls-12" d="m593.78,474.82c1.09-2.21,17.59,12.35,44.21,13.28,26.56.92,43.92-12.39,44.96-9.96,1.16,2.71-18.55,23.4-43.46,23.24-26.56-.18-46.99-23.98-45.71-26.55Z"/>
    <path class="cls-12" d="m733.99,477.21c1.09-2.2,17.56,12.33,44.14,13.26,26.51.92,43.85-12.37,44.89-9.94,1.16,2.7-18.52,23.36-43.39,23.2-26.52-.18-46.91-23.94-45.64-26.51Z"/>
    <path class="cls-12" d="m874.29,468.77c1.09-2.2,17.56,12.33,44.14,13.26,26.51.92,43.85-12.37,44.89-9.94,1.16,2.7-18.52,23.36-43.39,23.2-26.52-.18-46.91-23.94-45.64-26.51Z"/>
    <g>
      <g>
        <path class="cls-10" d="m1092.36,501.48c-13.92-129.42-90.88-288.5-71.59-292.43,19.29-3.93,109.85,154.81,141.45,278.2,37.26,145.5,9.56,237.52-9.73,241.45-19.29,3.93-46.21-97.8-60.12-227.22Z"/>
        <path class="cls-6" d="m935.85,215.94c-6.88-16.43,36.41-80.48,92.28-86.63,31.02-3.41,66.88,10.93,68.19,24.22.64,6.42-6.73,13.05-39.86,27.74-58.78,26.06-113.97,50.53-120.62,34.66Z"/>
        <path class="cls-25" d="m1007.49,168.09c-.05-3.46-.28-20.77,8.83-30.37,2.4-2.53,5.61-4.69,13.24-6.07,12.88-2.33,34.25-1.72,35.31,6.07,1.04,7.63-19.2,8.73-39.72,36.44-4.55,6.15-9.43,14.03-13.24,12.15-4.2-2.07-4.37-14.67-4.41-18.22Z"/>
        <path class="cls-6" d="m1014.99,189.9c-2.89-27,86.42-90.26,169.17-65.35,45.94,13.83,91.28,55.28,87.52,74.58-1.81,9.31-15.2,14.14-68.95,14.75-95.38,1.08-184.94,2.1-187.73-23.98Z"/>
        <path class="cls-6" d="m1014.11,195.42c-6.42-25.81-106.87-25.73-172.12,48.59-36.23,41.27-62.73,106.7-52.96,121.48,4.71,7.14,18.21,2.99,66.2-30.37,85.14-59.19,165.09-114.76,158.88-139.7Z"/>
        <path class="cls-25" d="m797.85,359.42c-5.02-10.72,42.11-78.37,94.89-112.37,54.46-35.09,107.8-54.37,110.33-42.52,1.61,7.53-25.39,43.59-79.44,78.96-80.17,52.46-121.31,85.46-125.78,75.92Z"/>
        <path class="cls-25" d="m1252.8,180.7c1.29-10.56-51.78-62.02-102.3-60.62-52.14,1.45-108.19,34.92-107.22,45.06.62,6.44,40.32-20.32,92.2-21.36,76.96-1.53,116.17,46.31,117.32,36.91Z"/>
        <path class="cls-6" d="m1021.92,195.26c-17.45-12.95-91.15,80.99-102.37,196.53-6.23,64.16,6.6,136.95,21.06,138.67,6.98.83,14.85-14.83,33.61-84.16,33.3-123.02,64.56-238.53,47.7-251.04Z"/>
        <path class="cls-25" d="m945.29,509.18c-8.96-3.25-7.29-96.95,15.03-171.03,23.03-76.45,52.98-140.19,60.66-133.78,4.88,4.07,2.61,55.75-19.99,132.03-33.51,113.14-47.73,175.68-55.7,172.79Z"/>
        <path class="cls-6" d="m1013.89,202.53c3.17-26.93,102.19-50.14,175.61,7.99,40.77,32.28,74.89,90.63,67.07,107.47-3.77,8.13-17.59,7.17-68.97-14.59-91.17-38.6-176.77-74.85-173.71-100.87Z"/>
        <path class="cls-25" d="m1250.23,301.72c3.54-11.79-45.14-95.07-101.51-115.41-58.17-20.98-127.05-6.21-127.99,6.07-.59,7.8,52.53-3.14,110.33,18.22,85.74,31.68,116.02,101.6,119.16,91.11Z"/>
        <path class="cls-4" d="m1143.92,736.41c-7.33,1.52-15.8-12.33-24.23-37.17,18.71-27.88,25.99-53.27,29.26-70.46,11.78-61.89-10.55-110.12-57.37-261.18-9.53-30.73-17.52-57.52-23.7-78.48,31.82,56.49,68.05,136.73,85.75,205.85,37.29,145.53,9.58,237.55-9.71,241.44Z"/>
        <path class="cls-11" d="m1115.62,729.93c-2.25-10.97-7.85-31.87-22.07-48.59-4.57-5.38-9.15-9.29-13.24-12.15,4.85-1.59,13.01-3.35,22.07,0,30.27,11.2,41.11,68.52,44.13,66.81,2.84-1.6-2.64-54.35-26.48-97.18-5.96-10.7-19.65-32.64-35.31-54.67-3.65-5.13-6.72-9.32-8.83-12.15,12.95.95,34.12,5.07,52.96,24.3,41.47,42.31,43.88,129.39,52.96,127.55,4.33-.88,3.78-20.66,8.83-48.59,6.34-35.1,17.64-61.64,26.48-78.96-14.22.84-22.3,7.59-26.48,12.15-27.23,29.73-15.75,105.34-14.06,116.41.32,2.13.62,3.88.82,5.07"/>
        <path class="cls-10" d="m1200.62,577.33c21.22-67.33,20.11-169.68,29.71-165.27,9.6,4.41,16.95,111.03,5.05,181.22-14.04,82.77-46.21,118.34-55.81,113.94-9.6-4.41-.18-62.56,21.05-129.89Z"/>
        <path class="cls-6" d="m1190.29,387.61c.37-10.22,33.67-27.13,60.36-11.83,14.82,8.49,28.05,27.18,25.82,34.06-1.08,3.32-5.83,4.13-24.01.42-32.25-6.59-62.53-12.77-62.17-22.65Z"/>
        <path class="cls-25" d="m1233.02,387.84c.71-1.69,4.3-10.17,10.47-11.84,1.63-.44,3.55-.44,7.31,1.39,6.35,3.08,15.92,10.37,14.75,14.5-1.15,4.04-10.58-2.05-25.8,4.68-3.38,1.49-7.27,3.72-8.6,1.56-1.47-2.38,1.14-8.55,1.87-10.28Z"/>
        <path class="cls-6" d="m1231.78,400.87c4.43-14.04,58.47-15.51,90.75,23.64,17.93,21.74,29.7,56.68,23.88,64.81-2.81,3.92-9.91,1.89-34.46-15.4-43.56-30.68-84.46-59.49-80.17-73.05Z"/>
        <path class="cls-6" d="m1230.21,403.26c2.58-14.62-43.07-47.44-88.53-32.74-25.24,8.17-51.2,31.23-49.91,41.6.62,5,7.64,7.41,36.54,6.93,51.27-.86,99.42-1.66,101.91-15.79Z"/>
        <path class="cls-25" d="m1097.07,412.07c0-6.84,35.81-24.24,67.02-23.47,32.21.8,60.54,8.89,59.17,15.47-.87,4.18-20.81,12.84-52.89,12.31-47.58-.78-73.3,1.77-73.3-4.32Z"/>
        <path class="cls-25" d="m1341.76,474.21c2.83-4.7-10.32-47.03-33.57-62.87-23.99-16.35-56.58-18.46-58.3-13.22-1.09,3.33,22.64,3.33,46.43,19.8,35.29,24.44,42.92,60.47,45.44,56.29Z"/>
        <path class="cls-6" d="m1233.79,405.74c-5.17-11.99-58.64,9.47-88.33,61.84-16.49,29.08-26.15,68.59-19.94,74.16,2.99,2.69,9.9-2.34,33.18-29.83,41.31-48.78,80.09-94.59,75.09-106.17Z"/>
        <path class="cls-25" d="m1132.17,532.95c-3.38-4.51,17.32-49.41,43.23-78.05,26.73-29.55,53.9-50.67,56.03-45.05,1.35,3.57-10.68,27.89-37.18,57.51-39.3,43.92-59.07,69.61-62.07,65.59Z"/>
        <path class="cls-6" d="m1228.59,406.64c7.17-12.03,57.09,9.11,78.07,61.33,11.65,28.99,14.73,68.46,7.6,74.07-3.44,2.71-9.52-2.28-28.23-29.64-33.2-48.55-64.37-94.14-57.44-105.76Z"/>
        <path class="cls-25" d="m1314.84,532.07c4.12-4.56-.27-60.89-21.55-89.19-21.96-29.21-56.39-44.58-59.43-38.93-1.93,3.59,24.53,15.66,46.24,44.94,32.2,43.42,31.08,87.24,34.74,83.18Z"/>
        <path class="cls-4" d="m1174.04,708.16c-3.65-1.66-4.55-11.15-3.1-25.96,14.43-7.4,23.15-17.34,28.29-24.61,18.53-26.17,18.64-56.87,29.52-145.46,2.21-18.03,4.28-33.63,5.94-45.82,2.43,37.81,1.82,88.59-4.86,127.91-14.03,82.8-46.21,118.37-55.79,113.94Z"/>
      </g>
      <path class="cls-11" d="m1167.76,717.95c1.31-6.06,3.22-18.03.32-30.79-.93-4.1-2.18-7.5-3.43-10.22,2.54.81,6.62,2.63,10.02,7.22,11.37,15.34,4.09,46.69,5.83,46.85,1.63.15,10.37-27.23,8.65-55.81-.43-7.14-1.98-22.26-4.4-38.07-.56-3.68-1.07-6.72-1.42-8.78,5.68,4.7,14.42,13.62,18.89,29.11,9.83,34.09-7.6,77.12-3.09,79.2,2.15.99,6.11-8.78,14.35-20.68,10.35-14.95,21.13-24.13,28.83-29.64-6.64-4.25-11.75-3.62-14.61-2.77-18.7,5.51-29.57,45.95-31.16,51.87-.31,1.14-.55,2.09-.7,2.73"/>
    </g>
    <g>
      <path class="cls-2" d="m902.01,826.64c-1.07.01-2.15.01-3.24.01s-2.16,0-3.24-.01"/>
      <path class="cls-9" d="m906.95,841.64c-16.02,0-31.61-2.94-44.39-8.39-31.35-13.36-58.62-21.94-103.87-48.06-5.18-2.99-14.86-8.73-12.61-14.6,1.07-2.8,4.94-5.83,10.29-7.25,9.63-2.56,18.12,1.69,25.71-1.45,3.5-1.45,4.78-3.63,5.14-4.35,2.76-5.55-7.36-8.82-5.14-14.5.76-1.95,3.26-4.9,7.71-5.8,7.77-1.58,14.73,4.44,23.14,2.9,4.42-.81,6.68-3.23,7.71-4.35,6.59-7.08-5.56-13.38,0-18.85,3.96-3.89,15.34-5.84,23.14-4.35,10.65,2.03,11.43,9.85,20.57,10.15,3.99.13,8.13-1.21,10.28-2.9,4.99-3.9-2.29-8.25,2.27-12.4,3.06-2.78,10.05-4.18,15.73-3.55,8.7.97,12.33,6.46,12.86,7.25,2.9,4.39-.68,6.56,2.57,8.7,4.06,2.67,14.99,2.82,20.57,0,6.24-3.16,2.05-8.14,7.71-10.15,4.96-1.76,14.67-.26,18,2.9,4.15,3.94-2.46,8.59,2.57,11.6,1.81,1.08,5.05,1.89,7.71,1.45,5.47-.91,3.44-6.24,10.28-8.7,4.15-1.49,9.75-1.27,13.71-.34,1.19.28,4.89,1.15,6.86,3.24,4.07,4.3-4.17,8.51,0,13.05,1.7,1.85,4.38,2.68,5.14,2.9,6.8,1.93,11.72-2.26,20.76-2.58,6.85-.24,14.03,1.82,18.59,5.02,7.52,5.28,9.17,14.59,3.72,20.07-6.6,6.62-22.47,6.5-22.3,10.03.05,1.04,1.45,1.77,2.38,2.26,7.16,3.75,22.38-1.11,28.28,1.45,0,0,3.73,1.55,5.14,4.35,3.19,6.33-11.55,15.73-35.47,23.59l-67.4,31.93c-4.47,2.12-11.86,5.11-22.17,7.22-10.31,2.12-19.38,2.51-25.21,2.51Z"/>
      <path class="cls-8" d="m906.25,837.31c-15.25,0-30.07-2.74-42.24-7.82-29.82-12.45-55.77-20.45-98.83-44.8-4.78-2.7-13.14-7.85-11.99-13.61.16-.81.5-2.53,2.43-4,6.63-5.03,21.11,1.26,31.82-4.11,1.79-.9,3.9-2.1,4.89-4.06,2.38-4.68-7.01-8.56-4.89-13.52.11-.25.95-2.14,3.49-3.4,6.96-3.45,15.85,3.16,25.86.7,5.85-1.44,10.49-5.58,11.31-9.48,1.18-5.59-6.06-8.2-3.97-12.15,1.86-3.53,10.05-6.08,16.98-5.41,11.62,1.13,13.84,10.79,24.61,10.81.27,0,5.96-.04,9.79-2.7,6.02-4.19.58-10.08,6.49-14.38,3.26-2.37,8.7-3.33,13.01-2.51,6.74,1.29,11.26,7.05,9.68,8.53-.13.12-.21.13-.39.25-1.85,1.23-.73,4.91,1.98,7.15,4.1,3.38,11.32,3,12.89,2.89.74-.06,3.98-.33,7.71-1.92,8-3.42,7.09-8.13,12.73-9.36,3.97-.87,9.23.4,11.73,2.61,4.16,3.66-1.25,8.19,2.45,10.81,3.35,2.38,12.46,1.96,17.41-.88,3.93-2.25,4.7-5.69,9.29-6.27,1.54-.19,2.95,0,3.46.08,2.89.42,5.3,1.74,6.53,3.02,3.87,4.01-3.97,7.93,0,12.17,1.35,1.44,3.24,2.15,4.89,2.7,8.73,2.92,15.46-2.69,27.86-1.66,2.25.19,10.1.84,14.87,5.02,4.2,3.68,5.91,10.02,1.86,13.8-4.81,4.48-22.53,9.81-22.57,9.88-.03.06-.06.1-.06.1-1.37,2.38.9,6.09,4.05,7.58,5.38,2.53,14.09-1.09,24.16,0,.93.1,2.66.33,3.72,1.25,1.76,1.54.51,4,0,5.02-3.15,6.25-30.41,17.47-33.81,18.85l-64.13,29.76c-4.25,1.97-11.28,4.76-21.09,6.73-9.81,1.97-18.44,2.34-23.99,2.34Z"/>
      <path class="cls-1" d="m882.94,824.14c1.48-1.65-15.33-7.47-40.89-23.83-4.92-3.15-37.33-24.08-59.47-31.35-3.46-1.14-9.53-2.88-14.87-1.25-4.08,1.24-6.83,4.17-7.43,6.27-.62,2.15-.98,10.39,70.62,35.12,19.3,6.66,50.03,17.27,52.04,15.05Z"/>
      <path class="cls-1" d="m890.73,824.31c2.21-1.22-10.77-10.49-26.78-31.66-3.08-4.07-23.3-31.1-40.58-42.94-2.7-1.85-7.56-4.86-13.4-4.53-4.46.25-8.5,2.4-10.11,4.24-1.64,1.89-6.06,9.58,49.24,48.99,14.9,10.62,38.64,27.54,41.63,25.89Z"/>
      <path class="cls-1" d="m891.74,817.46c2.64-.73-5.74-12.16-11.86-35.57-1.18-4.5-8.78-34.34-20.17-49.08-1.78-2.3-5.12-6.14-10.85-6.98-4.37-.64-9.17.61-11.5,2.06-2.39,1.48-9.95,7.96,25.81,56.58,9.64,13.1,24.99,33.97,28.56,32.99Z"/>
      <path class="cls-1" d="m896.23,812.96c2.85-.14.08-12.76,4.93-36.3.93-4.53,7.3-34.49,3.18-50.88-.64-2.56-2.07-6.91-7.14-8.89-3.87-1.51-9.01-1.32-11.88-.43-2.95.91-13.1,5.51-1.23,59.19,3.2,14.47,8.29,37.51,12.14,37.32Z"/>
      <path class="cls-1" d="m903.78,815.21c2.8.46,5.92-12.25,21.35-33.88,2.97-4.16,22.8-31.64,26.35-48.26.56-2.6,1.17-7.08-2.78-10.05-3.02-2.27-8.04-3.16-11.21-2.91-3.25.26-15.09,2.55-28.28,56.66-3.55,14.58-9.21,37.81-5.43,38.44Z"/>
      <path class="cls-1" d="m914.29,820.49c2.66.75,8.65-11.49,28.83-31.25,3.88-3.8,29.75-28.89,37.05-44.95,1.14-2.51,2.77-6.87-.46-10.22-2.46-2.56-7.22-3.96-10.41-4.04-3.27-.08-15.49.95-40.87,53.05-6.84,14.04-17.73,36.4-14.14,37.41Z"/>
      <path class="cls-1" d="m921.83,824.05c2.31,1.16,12.56-9.71,39.29-25.54,5.14-3.04,39.32-23.1,52.23-37.46,2.02-2.25,5.18-6.2,3.27-9.98-1.46-2.88-5.56-5.03-8.63-5.64-3.14-.62-15.37-1.64-58.88,44.68-11.73,12.48-30.41,32.37-27.29,33.94Z"/>
      <path class="cls-1" d="m933.72,820.33c1.24,1.35,13.76-5.2,40.92-12.47,5.23-1.4,39.87-10.56,55.93-19.32,2.51-1.37,6.64-3.86,6.85-7.17.16-2.53-2-4.98-4.05-6.04-2.1-1.08-10.9-4.2-64.12,23.7-14.34,7.52-37.19,19.49-35.52,21.31Z"/>
      <path class="cls-27" d="m878.29,848.59c13.38,5.31,25.6,10.15,37.17,7.52,14.84-3.37,10.96-15.01,29.74-23.83,15.84-7.44,29.03-4.04,33.45-10.03,4.91-6.66-4.91-18.34-16.73-25.08-30.69-17.53-75.85-16.9-110.58-8.15-10.56,2.66-32.48,19.47-26.95,23.2,17.66,11.91,16.35,4.42,32.52,14.42,25.8,15.95,13.18,18.7,21.37,21.95Z"/>
      <g>
        <path class="cls-9" d="m902.66,853.35l88.38,2.54c16.95.91,33.9,1.82,50.84,2.74-5.55,7.51-15.2,18.13-31.59,27.59-36.73,21.2-80.72,21.27-109.65,21.32-19.81.03-76.62.15-117.75-25.09-4.66-2.86-25.7-16.2-21.64-23.82,1.57-2.95,11.06-5.01,42.69-2.5,32.91-.93,65.82-1.85,98.73-2.78Z"/>
        <g>
          <path class="cls-22" d="m875.57,879.49c-.3,0-.61-.01-.92-.04-4.6-.35-7.12-3.13-9.79-6.07-2.72-2.99-5.53-6.08-10.65-6.48-.35-.03-.7-.04-1.05-.04-4.56,0-8.35,2.32-11.7,4.37-2.81,1.72-5.46,3.35-8.12,3.35-.46,0-.92-.05-1.37-.15-3.15-.68-4.27-3.39-5.46-6.25-1.17-2.82-2.38-5.74-5.72-6.3-.34-.06-.69-.08-1.03-.08-2.75,0-5.19,1.75-7.79,3.59-2.79,1.99-5.67,4.04-9.11,4.04-.23,0-.46,0-.7-.03-3.79-.31-6.08-3.04-8.28-5.69-2.25-2.7-4.58-5.5-8.47-5.6h-.22c-2.93,0-5.08,1.58-7.16,3.11-2.11,1.55-4.29,3.16-7.35,3.16h-.15c-3.28-.05-6.54-1.9-9.68-5.49.04-.46.14-.92.28-1.39,5.12-17.03,66.8-30.37,140.42-30.37s135.29,13.34,140.42,30.37c.09.31.17.61.22.91-1.65-.39-3.24-.58-4.75-.58-1.07,0-2.12.1-3.1.3-5.5,1.1-7.63,4.78-9.7,8.33-1.75,3.01-3.39,5.85-7.05,6.72-.68.16-1.4.25-2.12.25-3.58,0-7.17-2-10.98-4.13-4.45-2.48-9.06-5.05-14.44-5.05-.72,0-1.44.05-2.15.14-5.33.7-8.04,3.69-10.65,6.58-2.56,2.83-4.98,5.5-9.78,5.96-.44.04-.88.06-1.3.06-4.21,0-7.41-2-10.81-4.12-3.73-2.33-7.59-4.74-13.1-4.74-.26,0-.51,0-.78.02-5.67.23-9.2,2.84-12.61,5.36-3.25,2.41-6.32,4.68-11.05,4.68,0,0-.31,0-.47,0-4.09-.13-6.43-1.82-8.9-3.61-2.52-1.83-5.13-3.72-9.68-3.92-.25-.01-.5-.02-.74-.02-5.23,0-8.87,2.41-12.38,4.74-3.18,2.1-6.18,4.09-10.1,4.09Z"/>
          <path class="cls-16" d="m901.56,827.65c35.9,0,70.1,3.16,96.28,8.9,25.38,5.56,41.3,13.26,43.66,21.12.01.03.02.07.03.1-1.41-.28-2.78-.42-4.08-.42-1.11,0-2.18.1-3.2.31-5.72,1.14-8.01,5.09-10.03,8.57-1.76,3.04-3.29,5.66-6.73,6.48-.65.15-1.32.23-2,.23-3.45,0-6.99-1.97-10.73-4.06-4.51-2.51-9.17-5.11-14.68-5.11-.74,0-1.49.05-2.22.15-5.51.73-8.28,3.78-10.96,6.74-2.5,2.76-4.85,5.36-9.45,5.8-.42.04-.84.06-1.26.06-4.06,0-7.21-1.96-10.54-4.04-3.79-2.37-7.71-4.81-13.37-4.81-.26,0-.53,0-.8.02-5.82.24-9.41,2.89-12.88,5.46-3.18,2.36-6.19,4.58-10.76,4.58-.15,0-.3,0-.45,0-3.94-.12-6.21-1.77-8.62-3.51-2.58-1.87-5.25-3.81-9.95-4.01-.26-.01-.51-.02-.76-.02-5.38,0-9.08,2.45-12.66,4.82-3.11,2.06-6.05,4.01-9.83,4.01-.29,0-.59-.01-.88-.03-4.4-.34-6.86-3.04-9.46-5.9-2.78-3.06-5.66-6.23-10.98-6.64-.36-.03-.73-.04-1.09-.04-4.7,0-8.56,2.36-11.96,4.45-2.75,1.68-5.34,3.27-7.86,3.27-.42,0-.85-.05-1.26-.13-2.9-.63-3.97-3.21-5.1-5.95-1.16-2.81-2.48-6-6.1-6.6-.37-.06-.74-.09-1.11-.09-2.91,0-5.42,1.79-8.08,3.69-2.72,1.94-5.53,3.95-8.82,3.95-.22,0-.44,0-.66-.03-3.58-.29-5.7-2.83-7.94-5.51-2.33-2.79-4.73-5.67-8.84-5.78-.08,0-.15,0-.23,0-3.09,0-5.31,1.63-7.46,3.21-2.14,1.57-4.16,3.06-7.05,3.06h-.14c-3.08-.05-6.17-1.79-9.17-5.16.05-.35.13-.71.24-1.08,2.36-7.85,18.28-15.55,43.66-21.11,26.18-5.74,60.38-8.9,96.28-8.9m0-1c-74.62,0-135.73,13.55-140.89,30.72-.17.54-.28,1.09-.32,1.64,0,.03,0,.06,0,.07,2.25,2.61,5.75,5.75,10.18,5.82.05,0,.1,0,.16,0,6.28,0,8.83-6.27,14.51-6.27.07,0,.14,0,.2,0,7.37.19,8.78,10.64,16.73,11.29.25.02.5.03.74.03,6.83,0,11.42-7.63,16.89-7.63.31,0,.63.03.95.08,6.22,1.03,4.42,11.08,11.15,12.54.5.11.99.16,1.47.16,6.07,0,11.6-7.72,19.82-7.72.33,0,.67.01,1.01.04,9.8.75,10.81,11.8,20.44,12.54.33.03.64.04.96.04,8.47,0,12.69-8.83,22.49-8.83.24,0,.48,0,.72.02,8.77.38,10.07,7.26,18.59,7.52.16,0,.32,0,.48,0,9.9,0,12.76-9.59,23.68-10.04.26-.01.51-.02.76-.02,10.38,0,14.89,8.86,23.91,8.86.44,0,.89-.02,1.35-.07,9.96-.95,10.14-11.18,20.44-12.54.71-.09,1.4-.14,2.09-.14,9.93,0,17.54,9.18,25.42,9.18.74,0,1.49-.08,2.23-.26,8.18-1.95,6.73-13.05,16.73-15.05,1.03-.2,2.04-.29,3.01-.29,2.08,0,3.95.38,5.32.74v-.07c-.04-.55-.15-1.1-.32-1.64-5.17-17.17-66.27-30.72-140.89-30.72h0Z"/>
        </g>
        <path class="cls-16" d="m778.86,863.02c.25-.38,1.29-1.8,3.72-2.51,2.19-.64,4.37-.35,5.58,0,4.39,1.28,5.27,6.15,5.58,7.52,2.85,13,22.02,26.88,20.44,27.59-1.23.55-11.72-8.33-18.59-16.3-4.8-5.58-7.2-8.37-7.43-11.29-.14-1.78.17-3.94-1.86-5.02-1.94-1.04-5.07-.57-7.43,0Z"/>
        <path class="cls-16" d="m810.45,869.29c.5-.8,2.73-4.15,7.43-5.02.84-.15,2.26-.4,3.72,0,2.58.72,3.42,2.99,3.72,3.76,2.09,5.51,5.91,10.71,7.43,16.3,1.32,4.86,5.41,11.5,17.83,19.01-2.36-.73-5.53-1.95-8.53-3.96-7.14-4.79-9.15-11.32-9.29-11.29-.11.03,1.84,3.77,1.86,3.76.03,0-4.86-5.65-7.43-13.8-1.45-4.58-1.53-7.95-5.58-10.03-.82-.42-2.87-1.45-5.58-1.25-3.34.24-5.25,2.17-5.58,2.51Z"/>
        <path class="cls-16" d="m845.77,871.8c3.39-1.74,5.17-2.63,7.43-2.51,1.91.1,3.49.89,5.58,2.51,4.98,3.87,7.03,7.97,7.43,8.78,4.54,9.06,6.8,13.6,9.29,16.3,5.32,5.79,11.69,8.34,11.15,8.78-.55.45-7.83-1.76-13.01-6.27-1.84-1.6-1.8-2.09-7.43-11.29-2.26-3.69-4.09-6.58-7.43-10.03-4.08-4.21-6.12-4.81-7.43-5.02-5.36-.85-10.67,2.94-11.15,2.51-.35-.32,2.69-2.28,5.58-3.76Z"/>
        <path class="cls-16" d="m884.79,879.32c1.9-3.74,7.15-6.27,13.01-6.27s11.11,2.53,13.01,6.27c-5.62-2.98-8.08-2.99-9.29-2.51-2.63,1.05-.93,5.07,0,13.8.68,6.4.78,13.74,0,13.8-.71.05-2.98-5.81-3.72-12.54-.99-9.07,1.46-13.68-1.86-15.05-1.57-.65-4.61-.65-11.15,2.51Z"/>
        <path class="cls-16" d="m955.42,876.81c-1.02-1.23-3.27-3.51-7.43-5.02-1.87-.68-5.35-1.94-9.29-1.25-1.06.18-3.24.7-5.58,2.51-5.24,4.06-5.15,9.97-5.58,15.05-.35,4.24-1.25,10.21-3.72,17.56,8.4-8.74,9.72-15.47,9.29-20.07-.32-3.46-1.82-7.83,1.86-10.03,2.54-1.52,6.49-1.37,9.29-1.25,5.24.21,9.14,1.63,11.15,2.51Z"/>
        <path class="cls-16" d="m1005.6,873.05c-4.23-2.59-8.26-4.11-11.15-5.02-3.74-1.17-6.81-2.1-9.29-1.25-3,1.02-3.52,4.07-3.72,5.02-2.44,11.72-24.39,29.11-22.3,30.1,1.21.57,13.42-5.42,18.59-15.05,2.11-3.94,4.74-11.63,11.15-15.05.83-.44,2.05-.99,3.72-1.25,5.17-.83,9.91,1.78,11.15,2.51h1.86Z"/>
        <path class="cls-16" d="m1039.05,859.25c-.56.39-1.44.88-2.68,1.14-1.36.28-2.42.04-2.9.12-3.38.59-7.43,8.78-7.43,8.78-4.38,8.87-13.43,13.58-13.01,13.8.4.2,8.28-4.21,13.01-11.29,1.72-2.57,2.45-4.66,5.58-7.52,2.61-2.39,5.43-4.01,7.43-5.02Z"/>
        <path class="cls-15" d="m767.71,865.53c2.37.58,5.46,1.03,7.43,0,1.06-.55,1.25-1.25,1.86-1.25,1.64-.02,2.77,4.97,3.72,7.52,3.79,10.26,17.29,15.92,16.73,16.3-.42.29-7.43-3.28-14.87-8.78-7.11-5.26-11.87-10.25-14.87-13.8Z"/>
        <path class="cls-15" d="m797.44,869.29c.6.35,1.86.97,3.72,1.25.59.09,2.03.29,3.72,0,2.33-.41,3.23-1.44,3.72-1.25.87.33-1.3,3.85-1.86,5.02-4.46,9.38,21.19,23.3,20.44,23.83-.38.27-7.66-2.88-14.87-8.78-9.1-7.45-13.03-15.15-14.87-20.07Z"/>
        <path class="cls-15" d="m829.04,874.3c.14.25,1.17,1.99,3.72,2.51,2.65.54,5.88-.44,7.43-2.51-.54.93-1.48,2.72-1.86,5.02-2.11,12.69,15.46,23.52,14.87,23.83-.39.21-8.09-4.48-14.87-12.54-5.33-6.35-7.93-12.21-9.29-16.3Z"/>
        <path class="cls-15" d="m882.94,879.32c-.39.39-2.27,2.17-5.58,2.51-3.62.37-7.46-1.13-9.29-3.76.41,1.22,1.02,2.96,1.86,5.02,1.46,3.6,3.17,7.81,5.58,11.29,1.93,2.78,5.62,7.01,13.01,11.29-2.03-2.97-4.39-7.23-5.58-12.54-1.26-5.65-.75-10.45,0-13.8Z"/>
        <path class="cls-15" d="m910.81,878.07c.77.36,2.03.87,3.72,1.25,1.31.3,5.77,1.33,9.29,0,2.56-.97,3.21-2.65,3.72-2.51.7.2-.7,3.42-1.86,6.27-2.78,6.85-2.03,6.35-3.72,10.03-2.51,5.48-6.42,11.49-7.43,11.29-.85-.17.17-4.83,1.86-12.54.87-3.96,1.47-6.14,0-8.78-1.34-2.41-3.76-4.03-5.58-5.02Z"/>
        <path class="cls-15" d="m957.28,876.81c.62-.35,3.06,2.26,7.43,2.51,4.22.24,8.06-1.84,9.29-2.51,2.52-1.37,3.46-2.61,3.72-2.51.53.21-3.34,5.59-9.29,12.54-8.79,10.27-14.63,15.16-14.87,15.05-.34-.15,12.68-9.16,9.29-17.56-1.55-3.83-6.33-7.1-5.58-7.52Z"/>
        <path class="cls-15" d="m1007.46,873.05c.82-.31,2.43,2.16,5.58,2.51,5.3.59,10.57-5.32,11.15-5.02.37.19-1.7,2.67-5.58,6.27-5.82,5.42-9.95,8.03-11.15,8.78-4.04,2.51-7.24,3.91-7.43,3.76-.31-.24,8.35-3.51,9.29-8.78.67-3.77-2.88-7.14-1.86-7.52Z"/>
        <path class="cls-15" d="m1026.04,873.05c-.36-.16,2.21-3.47,5.58-6.27,2.14-1.78,5.29-3.93,5.58-3.76.58.33-10.5,10.33-11.15,10.03Z"/>
      </g>
      <path class="cls-27" d="m774.21,782.13c-.33-.53-2.25-3.62,0-6.27,4.55-5.35,19.89-1.49,24.16-6.27,3.36-3.77-4.81-7.65-1.86-13.8,2.21-4.6,9.64-8.34,16.73-8.78,8.12-.5,11.56,3.6,16.73,2.51,6.24-1.31,1.01-10.23,9.29-15.05,1.14-.67,4.69-2.52,9.29-2.51,10.32.03,13.85,9.41,20.44,8.78,6.49-.62,5.4-9.93,16.73-13.8,1.61-.55,6.19-2.11,11.15-1.25,9.73,1.68,9.84,10.76,16.73,11.29,6.54.5,8.81-7.5,20.44-8.78,1.85-.2,7.26-.8,11.15,1.25,4.86,2.57,2.68,6.81,7.43,8.78,3.65,1.51,8.57.52,11.15,0,6.69-1.35,7.62-3.94,11.15-3.76,4.93.25,5.83,5.43,11.15,8.78,8.07,5.08,19.44-2,27.88,2.51,2.94,1.57,5.78,4.51,5.58,7.52-.35,5.1-9.18,6.56-11.15,13.8-.5,1.83-.9,3.31,0,5.02,3.53,6.68,21.36,5.67,22.3,10.03.38,1.75-2.84,3.68-9.29,7.52-6.95,4.15-14.29,6.78-14.87,6.27-.67-.6,9.45-4.02,9.29-8.78-.16-4.75-10.36-5.02-14.87-11.29-6.16-8.57,5.73-18.06,0-21.32-3.74-2.12-8.8,1.91-16.73,0-9.52-2.3-10.4-10.1-16.73-10.03-4.86.05-5.54,4.66-11.15,5.02-6,.38-7.55-4.74-16.73-6.27-.95-.16-8.61-1.42-14.87,1.25-6.55,2.8-5.11,6.8-11.15,8.78-4.58,1.5-11.49,1.19-14.87-1.25-5.1-3.69.98-9.98-3.72-12.54-3.12-1.7-9.52-.96-13.01,1.25-5.69,3.61-1.38,9.7-5.58,11.29-3.7,1.4-8.11-2.93-20.44-5.02-5.46-.92-11.95-2.02-14.87,0-5.28,3.66,5.51,14.5,1.86,16.3-3.45,1.7-13.29-7.9-24.16-6.27-5.21.78-9.99,4.04-11.15,7.52-2.1,6.29,8.14,11.69,5.58,13.8-2.44,2.01-12-2.66-16.73,0-3.88,2.18,0,6.76-3.72,8.78-4.13,2.25-15.4.1-18.59-5.02Z"/>
      <path class="cls-27" d="m840.19,861.57c.27-3.22-30.92-3.81-31.59-9.22-1.1-8.75,79.01-17.76,78.06-20.75-.58-1.83-31.13.01-61.33,4.61-18.86,2.87-57.38,8.74-57.61,17.29-.07,2.35,2.78,4.09,5.58,5.76,21.51,12.84,66.58,6.15,66.91,2.31Z"/>
      <path class="cls-27" d="m956.25,863.65c-.27-3.5,30.92-4.14,31.59-10.03,1.1-9.52-79.01-19.32-78.06-22.57.58-1.99,31.13.01,61.33,5.02,18.86,3.13,57.38,9.51,57.61,18.81.07,2.55-2.78,4.45-5.58,6.27-21.51,13.97-66.58,6.69-66.91,2.51Z"/>
      <ellipse class="cls-27" cx="895.02" cy="857.37" rx="45.53" ry="9.41"/>
      <ellipse class="cls-7" cx="900.59" cy="822.26" rx="55.76" ry="33.86"/>
      <ellipse class="cls-24" cx="877.36" cy="813.48" rx="13.94" ry="7.52"/>
      <ellipse class="cls-24" cx="926.61" cy="807.21" rx="6.5" ry="4.39"/>
      <path class="cls-24" d="m918.25,847.97c-15.46,1.39-32.96.94-44.6-6.27-11.78-7.29-13.96-19.25-16.73-18.81-1.87.3-2.71,6.07,0,11.29,5.33,10.24,22.77,15.21,35.31,16.3,10.85.95,20.03-.82,26.02-2.51Z"/>
      <path class="cls-27" d="m946.13,814.11c-.22.05,1.37,2.84,1.86,5.02,1.16,5.15-2.38,13.09-24.16,25.08,11.22-2.87,26-8.11,27.88-16.3,1.47-6.43-5.2-13.88-5.58-13.8Z"/>
    </g>
  </g>
</svg>