<svg width="376.666565" height="363.235901" viewBox="0 0 376.667 363.236" fill="none" xmlns="http://www.w3.org/2000/svg" xmlns:xlink="http://www.w3.org/1999/xlink">
	<desc>
			Created with Pixso.
	</desc>
	<defs>
		<radialGradient gradientTransform="translate(105.843 92.475) rotate(0) scale(12.2435 11.9857)" cx="0.000000" cy="0.000000" r="1.000000" id="paint_radial_2_737_0" gradientUnits="userSpaceOnUse">
			<stop stop-color="#831811"/>
			<stop offset="0.170000" stop-color="#7E1811"/>
			<stop offset="0.360000" stop-color="#701812"/>
			<stop offset="0.560000" stop-color="#591A15"/>
			<stop offset="0.780000" stop-color="#391B18"/>
			<stop offset="0.930000" stop-color="#1D1D1B"/>
		</radialGradient>
		<linearGradient x1="114.320724" y1="153.290192" x2="143.912231" y2="166.335739" id="paint_linear_2_767_0" gradientUnits="userSpaceOnUse">
			<stop offset="0.210000" stop-color="#FFF3AE"/>
			<stop offset="0.570000" stop-color="#E7DBA0"/>
			<stop offset="1.000000" stop-color="#CEC393"/>
		</linearGradient>
	</defs>
	<path id="path" d="M122.94 298.68C70.83 219.54 83.81 112.79 150.38 52.66C212.61 -3.53 307.49 -6.23 375.68 48.14C355.95 56.13 327.28 71.61 313.85 101.8C299.53 134 312.99 159.57 309.26 184.99C306.57 203.32 294.51 224.77 259.42 246.63C231.18 264.22 188.07 282.05 122.94 298.68Z" fill="#F08630" fill-opacity="1.000000" fill-rule="nonzero"/>
	<path id="path" d="M150.38 52.66C212.61 -3.53 307.49 -6.23 375.68 48.14C355.95 56.13 327.28 71.61 313.85 101.8C299.53 134 312.99 159.57 309.26 184.99C306.57 203.32 294.51 224.77 259.42 246.63C231.18 264.22 188.07 282.05 122.94 298.68C70.83 219.54 83.81 112.79 150.38 52.66Z" stroke="#1D1D1B" stroke-opacity="1.000000" stroke-width="1.000000"/>
	<path id="path" d="M249.2 9.44C269.03 8.02 302.96 8.67 339.52 26C353.74 32.75 365.46 40.65 374.76 48.08C355.03 56.07 326.36 71.55 312.93 101.74C278.48 102.08 250 81.61 242.9 54.36C237.55 33.81 245.99 15.57 249.2 9.44Z" fill="#FFFFFF" fill-opacity="1.000000" fill-rule="nonzero"/>
	<path id="path" d="M339.52 26C353.74 32.75 365.46 40.65 374.76 48.08C355.03 56.07 326.36 71.55 312.93 101.74C278.48 102.08 250 81.61 242.9 54.36C237.55 33.81 245.99 15.57 249.2 9.44C269.03 8.02 302.96 8.67 339.52 26Z" stroke="#1D1D1B" stroke-opacity="1.000000" stroke-width="1.000000"/>
	<path id="path" d="M236.72 234.28C238.62 237.22 292.49 218.33 298.58 180C301.09 164.21 295.34 146.32 292.37 146.38C289.92 146.44 289.92 158.7 286.8 170.96C276.13 213.07 235.01 231.62 236.72 234.28Z" fill="#C86C25" fill-opacity="1.000000" fill-rule="nonzero"/>
	<path id="path" d="M248.01 22.69C247.98 22.04 291.73 11.67 334.56 29.29C347.38 34.55 356.59 40.9 356.28 41.58C355.83 42.66 332.76 27.89 300.97 24.52C290.44 23.4 273.4 22.94 267.47 22.78C250.98 22.35 248.01 22.88 248.01 22.69Z" fill="#B7CCD1" fill-opacity="1.000000" fill-rule="nonzero"/>
	<path id="polyline" d="M305.59 125.48L315.2 123.53L305.44 133.22L307.67 134.43L305.68 139.6L313.15 143.75L306.26 152.26L305.59 125.48Z" fill="#F08630" fill-opacity="1.000000" fill-rule="nonzero"/>
	<path id="polyline" d="M305.59 125.48L315.2 123.53L305.44 133.22L307.67 134.43L305.68 139.6L313.15 143.75L306.26 152.26" stroke="#1D1D1B" stroke-opacity="1.000000" stroke-width="1.000000"/>
	<path id="polyline" d="M283.44 10.9L302.01 0.43L291.27 12.75L301.7 4.98L301.85 14.27L311.74 9.87L311.4 14.61L329.09 12.6L321.96 18.85L283.44 10.9Z" fill="#FFFFFD" fill-opacity="1.000000" fill-rule="nonzero"/>
	<path id="polyline" d="M283.44 10.9L302.01 0.43L291.27 12.75L301.7 4.98L301.85 14.27L311.74 9.87L311.4 14.61L329.09 12.6L321.96 18.85" stroke="#1D1D1B" stroke-opacity="1.000000" stroke-width="1.000000"/>
	<path id="path" d="M126.3 243.51C126.76 242.7 127.13 241.8 127.34 240.87C128.38 260.19 129.55 276.6 141.54 290.5C141.91 288.06 143.31 285.77 143.65 283.35C160.66 305.37 116.6 300.85 164.55 322.55C163.11 291.28 217.84 335.4 198.63 286.26C215.18 297.22 207.32 274.47 204.1 263.94C205.21 264.28 207.38 263.94 207.99 264.09C204.14 257.35 199.64 249.05 197.92 241.06C200.13 242.82 202.67 244.12 205.21 244.74C200.8 238.24 177.46 217.25 174.73 228.64C177.55 214.96 171.28 213.16 162.37 217.72C164.03 201.77 147.5 217.9 143.44 223.23C144.08 205.05 135.11 216.94 131.26 226.23C130.74 222.48 126.39 239.7 126.3 243.51Z" fill="#F08630" fill-opacity="1.000000" fill-rule="nonzero"/>
	<path id="path" d="M127.34 240.87C128.38 260.19 129.55 276.6 141.54 290.5C141.91 288.06 143.31 285.77 143.65 283.35C160.66 305.37 116.6 300.85 164.55 322.55C163.11 291.28 217.84 335.4 198.63 286.26C215.18 297.22 207.32 274.47 204.1 263.94C205.21 264.28 207.38 263.94 207.99 264.09C204.14 257.35 199.64 249.05 197.92 241.06C200.13 242.82 202.67 244.12 205.21 244.74C200.8 238.24 177.46 217.25 174.73 228.64C177.55 214.96 171.28 213.16 162.37 217.72C164.03 201.77 147.5 217.9 143.44 223.23C144.08 205.05 135.11 216.94 131.26 226.23C130.74 222.48 126.39 239.7 126.3 243.51C126.76 242.7 127.13 241.8 127.34 240.87Z" stroke="#1D1D1B" stroke-opacity="1.000000" stroke-width="1.000000"/>
	<path id="path" d="M202.67 310.26C202.18 310.26 201.69 310.26 201.2 310.26C201.6 310.26 202.79 311 202.67 310.26Z" fill="#F08630" fill-opacity="1.000000" fill-rule="nonzero"/>
	<path id="path" d="M201.2 310.26C201.6 310.26 202.79 311 202.67 310.26C202.18 310.26 201.69 310.26 201.2 310.26Z" stroke="#1D1D1B" stroke-opacity="1.000000" stroke-width="1.000000"/>
	<path id="path" d="M163.93 317.9C171.12 332.67 209.09 327.1 224.24 332.52C253.36 325.77 215.67 307.9 202.54 308.49C195.51 317.19 166.57 302.33 163.93 317.9Z" fill="#F08630" fill-opacity="1.000000" fill-rule="nonzero"/>
	<path id="path" d="M224.24 332.52C253.36 325.77 215.67 307.9 202.54 308.49C195.51 317.19 166.57 302.33 163.93 317.9C171.12 332.67 209.09 327.1 224.24 332.52Z" stroke="#1D1D1B" stroke-opacity="1.000000" stroke-width="1.000000"/>
	<path id="path" d="M187.4 318.31C187.83 335.83 221.88 343.17 226.93 327.97C229.07 313.69 193.15 301.28 187.4 318.31Z" fill="#F08630" fill-opacity="1.000000" fill-rule="nonzero"/>
	<path id="path" d="M226.93 327.97C229.07 313.69 193.15 301.28 187.4 318.31C187.83 335.83 221.88 343.17 226.93 327.97Z" stroke="#1D1D1B" stroke-opacity="1.000000" stroke-width="1.000000"/>
	<path id="path" d="M163.93 317.9C163.23 334.19 198.14 343.45 203.46 327.56C205.27 310.81 166.14 303.01 163.93 317.9Z" fill="#F08630" fill-opacity="1.000000" fill-rule="nonzero"/>
	<path id="path" d="M203.46 327.56C205.27 310.81 166.14 303.01 163.93 317.9C163.23 334.19 198.14 343.45 203.46 327.56Z" stroke="#1D1D1B" stroke-opacity="1.000000" stroke-width="1.000000"/>
	<path id="path" d="M241.12 330.69C233.84 331.68 226.1 328.68 229.25 321.09C231.55 318.71 240.7 325.52 241.12 330.69Z" fill="#F8F7D7" fill-opacity="1.000000" fill-rule="nonzero"/>
	<path id="path" d="M229.25 321.09C231.55 318.71 240.7 325.52 241.12 330.69C233.84 331.68 226.1 328.68 229.25 321.09Z" stroke="#1D1D1B" stroke-opacity="1.000000" stroke-width="1.000000"/>
	<path id="path" d="M226.96 336.79C218.36 336.23 210.04 330.72 214.97 322.7C218.03 320.44 227.39 330.69 226.96 336.79Z" fill="#F8F7D7" fill-opacity="1.000000" fill-rule="nonzero"/>
	<path id="path" d="M214.97 322.7C218.03 320.44 227.39 330.69 226.96 336.79C218.36 336.23 210.04 330.72 214.97 322.7Z" stroke="#1D1D1B" stroke-opacity="1.000000" stroke-width="1.000000"/>
	<path id="path" d="M207.1 338.43C198.29 337.35 189.69 331.5 195.08 323.51C198.32 321.4 207.68 332.18 207.1 338.43Z" fill="#F8F7D7" fill-opacity="1.000000" fill-rule="nonzero"/>
	<path id="path" d="M195.08 323.51C198.32 321.4 207.68 332.18 207.1 338.43C198.29 337.35 189.69 331.5 195.08 323.51Z" stroke="#1D1D1B" stroke-opacity="1.000000" stroke-width="1.000000"/>
	<path id="path" d="M160.69 313.35C160.42 323.85 182.57 323.85 182.29 313.35C182.57 302.86 160.42 302.86 160.69 313.35Z" fill="#F08630" fill-opacity="1.000000" fill-rule="nonzero"/>
	<path id="path" d="M58.87 220.59C57.49 222.61 66.79 213.6 69.52 224.96C66.7 211.28 72.97 209.48 81.88 214.03C80.23 198.09 96.75 214.22 100.82 219.54C100.17 201.37 109.14 213.26 112.99 222.54C113.51 218.8 117.83 235.98 117.92 239.79C117.46 238.99 117.09 238.09 116.88 237.16C115.84 256.48 114.68 272.89 102.68 286.79C102.32 284.34 100.91 282.05 100.57 279.64C83.56 301.65 127.62 297.13 79.68 318.83C81.11 287.56 26.38 331.68 45.59 282.55C29.04 293.51 36.9 270.75 40.12 260.22C39.01 260.56 36.84 260.22 36.23 260.38C40.09 253.63 55.87 232.02 57.59 224.03L58.87 220.59Z" fill="#F08630" fill-opacity="1.000000" fill-rule="nonzero"/>
	<path id="path" d="M58.87 220.59C57.49 222.61 66.79 213.6 69.52 224.96C66.7 211.28 72.97 209.48 81.88 214.03C80.23 198.09 96.75 214.22 100.82 219.54C100.17 201.37 109.14 213.26 112.99 222.54C113.51 218.8 117.83 235.98 117.92 239.79C117.46 238.99 117.09 238.09 116.88 237.16C115.84 256.48 114.68 272.89 102.68 286.79C102.32 284.34 100.91 282.05 100.57 279.64C83.56 301.65 127.62 297.13 79.68 318.83C81.11 287.56 26.38 331.68 45.59 282.55C29.04 293.51 36.9 270.75 40.12 260.22C39.01 260.56 36.84 260.22 36.23 260.38C40.09 253.63 55.87 232.02 57.59 224.03" stroke="#1D1D1B" stroke-opacity="1.000000" stroke-width="1.000000"/>
	<path id="path" d="M41.52 306.54C42.01 306.54 42.5 306.54 42.99 306.54C42.59 306.54 41.4 307.28 41.52 306.54Z" fill="#F08630" fill-opacity="1.000000" fill-rule="nonzero"/>
	<path id="path" d="M42.99 306.54C42.59 306.54 41.4 307.28 41.52 306.54C42.01 306.54 42.5 306.54 42.99 306.54Z" stroke="#1D1D1B" stroke-opacity="1.000000" stroke-width="1.000000"/>
	<path id="path" d="M80.23 314.22C73.04 328.99 35.07 323.42 19.92 328.83C-9.2 322.08 28.49 304.22 41.62 304.81C48.65 313.51 77.59 298.65 80.23 314.22Z" fill="#F08630" fill-opacity="1.000000" fill-rule="nonzero"/>
	<path id="path" d="M19.92 328.83C-9.2 322.08 28.49 304.22 41.62 304.81C48.65 313.51 77.59 298.65 80.23 314.22C73.04 328.99 35.07 323.42 19.92 328.83Z" stroke="#1D1D1B" stroke-opacity="1.000000" stroke-width="1.000000"/>
	<path id="path" d="M56.79 314.59C56.36 332.12 22.31 339.45 17.26 324.25C15.12 309.98 51.04 297.56 56.79 314.59Z" fill="#F08630" fill-opacity="1.000000" fill-rule="nonzero"/>
	<path id="path" d="M17.26 324.25C15.12 309.98 51.04 297.56 56.79 314.59C56.36 332.12 22.31 339.45 17.26 324.25Z" stroke="#1D1D1B" stroke-opacity="1.000000" stroke-width="1.000000"/>
	<path id="path" d="M80.23 314.22C80.93 330.51 46.02 339.76 40.7 323.88C38.89 307.13 78.02 299.33 80.23 314.22Z" fill="#F08630" fill-opacity="1.000000" fill-rule="nonzero"/>
	<path id="path" d="M40.7 323.88C38.89 307.13 78.02 299.33 80.23 314.22C80.93 330.51 46.02 339.76 40.7 323.88Z" stroke="#1D1D1B" stroke-opacity="1.000000" stroke-width="1.000000"/>
	<path id="path" d="M3.07 327.01C10.35 328 18.09 324.99 14.94 317.41C12.64 315.03 3.49 321.84 3.07 327.01Z" fill="#F8F7D7" fill-opacity="1.000000" fill-rule="nonzero"/>
	<path id="path" d="M14.94 317.41C12.64 315.03 3.49 321.84 3.07 327.01C10.35 328 18.09 324.99 14.94 317.41Z" stroke="#1D1D1B" stroke-opacity="1.000000" stroke-width="1.000000"/>
	<path id="path" d="M17.2 333.11C25.8 332.55 34.12 327.04 29.19 319.02C26.13 316.76 16.77 327.01 17.2 333.11Z" fill="#F8F7D7" fill-opacity="1.000000" fill-rule="nonzero"/>
	<path id="path" d="M29.19 319.02C26.13 316.76 16.77 327.01 17.2 333.11C25.8 332.55 34.12 327.04 29.19 319.02Z" stroke="#1D1D1B" stroke-opacity="1.000000" stroke-width="1.000000"/>
	<path id="path" d="M37.06 334.75C45.87 333.66 54.47 327.81 49.08 319.82C45.84 317.72 36.48 328.49 37.06 334.75Z" fill="#F8F7D7" fill-opacity="1.000000" fill-rule="nonzero"/>
	<path id="path" d="M49.08 319.82C45.84 317.72 36.48 328.49 37.06 334.75C45.87 333.66 54.47 327.81 49.08 319.82Z" stroke="#1D1D1B" stroke-opacity="1.000000" stroke-width="1.000000"/>
	<path id="path" d="M83.5 309.64C83.77 320.13 61.62 320.13 61.9 309.64C61.62 299.14 83.77 299.14 83.5 309.64Z" fill="#F08630" fill-opacity="1.000000" fill-rule="nonzero"/>
	<path id="path" d="M57.59 135.64C48.07 142.79 43.7 168.18 49.78 161.34C51.19 167.22 41.74 190.16 50.24 179.66C50.43 218.89 56.88 198.46 53.91 238.64C56.97 226.29 56.88 241.93 56.94 247.28C57.62 246.08 58.29 245.46 59.05 245.33C69.49 243.72 82.34 301.8 113.39 308.74C123.79 311.06 136.7 307.56 144.32 299.45C153.26 290.01 150.9 278.68 161.03 260.53C166.26 251.21 172.16 244.77 176.08 240.97C177.49 246.94 175.84 233.94 177.12 233.54C177.3 232.48 179.29 243.88 179.54 243.07C179.63 243.54 179.54 228.43 180.7 228.52C184 240.35 182.38 231.46 181.22 220.63C177.82 200.04 181.59 165.95 188.07 177.53C193.46 186.54 186.33 156.85 186.67 157.12C197.96 168.15 179.75 130.5 172.65 129.69C143.16 126.35 61.56 135.2 57.59 135.64Z" fill="#F08630" fill-opacity="1.000000" fill-rule="nonzero"/>
	<path id="path" d="M49.78 161.34C51.19 167.22 41.74 190.16 50.24 179.66C50.43 218.89 56.88 198.46 53.91 238.64C56.97 226.29 56.88 241.93 56.94 247.28C57.62 246.08 58.29 245.46 59.05 245.33C69.49 243.72 82.34 301.8 113.39 308.74C123.79 311.06 136.7 307.56 144.32 299.45C153.26 290.01 150.9 278.68 161.03 260.53C166.26 251.21 172.16 244.77 176.08 240.97C177.49 246.94 175.84 233.94 177.12 233.54C177.3 232.48 179.29 243.88 179.54 243.07C179.63 243.54 179.54 228.43 180.7 228.52C184 240.35 182.38 231.46 181.22 220.63C177.82 200.04 181.59 165.95 188.07 177.53C193.46 186.54 186.33 156.85 186.67 157.12C197.96 168.15 179.75 130.5 172.65 129.69C143.16 126.35 61.56 135.2 57.59 135.64C48.07 142.79 43.7 168.18 49.78 161.34Z" stroke="#1D1D1B" stroke-opacity="1.000000" stroke-width="1.000000"/>
	<path id="path" d="M163.17 99.41C166.99 108.76 172.47 119.29 178.96 126.81C175.87 124.34 172.35 122.26 169.69 119.26C172.99 126.88 180.82 133.19 183.12 141.24C179.9 139.85 176.91 137.93 174.28 135.45C175.28 147.43 182.78 169.2 168.86 149.26C168.74 154.37 169.99 159.57 169.38 164.52C168.13 162.73 166.01 162.02 165.04 159.66C164.06 166.16 159.89 188.02 158.09 195.11C156.44 192.79 154.79 190.38 153.16 188.02C152.58 194.25 144.05 211.65 140.04 215.92C139.95 214.37 139.76 212.85 139.49 211.34C138.91 215.24 128.72 225.55 128.66 229.17C127.65 225.67 125.48 215.42 125.38 215.02L121.1 232.82L111.04 215.02C110.97 215.39 108.8 225.67 107.76 229.17C107.7 225.98 102.77 219.39 101.83 215.8C100.91 218.27 99.81 220.81 98.64 223.07C97.82 219.2 92.4 203.13 92.04 197.25C90.9 200.44 89.53 203.66 87.75 206.54C85.82 200.78 83.84 194.25 83.25 188.05C81.63 190.41 79.98 192.79 78.33 195.14C76.52 188.05 77.47 179.39 77.56 172.11C76.52 175.42 74.26 177.71 71.84 180.13C70.77 173.32 67.68 154.43 67.56 149.32C53.61 169.29 61.13 147.46 62.14 135.51C59.54 137.99 56.55 139.91 53.3 141.3C55.6 133.28 63.43 126.97 66.73 119.32C64.07 122.32 60.55 124.4 57.46 126.88C83.93 68.51 130.03 48.51 163.17 99.41Z" fill="#FFFFFF" fill-opacity="1.000000" fill-rule="nonzero"/>
	<path id="path" d="M178.96 126.81C175.87 124.34 172.35 122.26 169.69 119.26C172.99 126.88 180.82 133.19 183.12 141.24C179.9 139.85 176.91 137.93 174.28 135.45C175.28 147.43 182.78 169.2 168.86 149.26C168.74 154.37 169.99 159.57 169.38 164.52C168.13 162.73 166.01 162.02 165.04 159.66C164.06 166.16 159.89 188.02 158.09 195.11C156.44 192.79 154.79 190.38 153.16 188.02C152.58 194.25 144.05 211.65 140.04 215.92C139.95 214.37 139.76 212.85 139.49 211.34C138.91 215.24 128.72 225.55 128.66 229.17C127.65 225.67 125.48 215.42 125.38 215.02L121.1 232.82L111.04 215.02C110.97 215.39 108.8 225.67 107.76 229.17C107.7 225.98 102.77 219.39 101.83 215.8C100.91 218.27 99.81 220.81 98.64 223.07C97.82 219.2 92.4 203.13 92.04 197.25C90.9 200.44 89.53 203.66 87.75 206.54C85.82 200.78 83.84 194.25 83.25 188.05C81.63 190.41 79.98 192.79 78.33 195.14C76.52 188.05 77.47 179.39 77.56 172.11C76.52 175.42 74.26 177.71 71.84 180.13C70.77 173.32 67.68 154.43 67.56 149.32C53.61 169.29 61.13 147.46 62.14 135.51C59.54 137.99 56.55 139.91 53.3 141.3C55.6 133.28 63.43 126.97 66.73 119.32C64.07 122.32 60.55 124.4 57.46 126.88C83.93 68.51 130.03 48.51 163.17 99.41C166.99 108.76 172.47 119.29 178.96 126.81Z" stroke="#1D1D1B" stroke-opacity="1.000000" stroke-width="1.000000"/>
	<path id="path" d="M144.51 115.02C150.9 118.11 162.25 130.41 171.52 126.81C167.36 123.93 162.28 120.13 159.13 115.7C169.44 121.52 187.06 128.27 198.08 126.16C189.17 119.48 180.85 109.94 173.08 101.83C185.99 108.45 200.13 111.27 213.19 116.88C205.33 104.27 195.69 94.52 182.11 90.87C190.95 95.05 202.24 94.37 212.21 94.74C203.19 82.57 186.73 74.8 175.56 65.42C178.31 62.66 188.62 53.16 202.15 44.46C276.77 -1.33 139.31 30.56 144.63 33.31C143.65 29.44 142.7 25.6 141.72 21.73C139.92 24.02 138.08 26.31 136.28 28.61C135.48 25.91 134.65 23.22 133.86 20.49C132.02 23.74 130.22 27 128.38 30.25C128.29 26.1 128.93 21.33 127.22 17.74C125.63 20.49 125.11 22.72 124.62 25.82C123.58 23.9 123.61 13.06 122.57 11.14C121.71 13.06 119.79 23.87 118.96 25.76C117.74 21.89 115.47 4.83 112.9 1.92C112.08 5.57 110.21 23.56 110.09 27.18C109.32 23.22 102.68 10.71 100.36 7.64C99.56 22.04 105.1 28.36 97.27 20.52C97.11 23.78 95.71 24.83 95.71 28.05C93.23 24.08 92.07 21.39 88.52 18.91C88.39 22.17 86.71 26.04 86.9 29.29C85.64 25.85 84.85 24.92 82.55 22.72C83.53 33.9 79.64 30.43 74.05 24.89C73.98 26.31 75.06 28.98 73.62 29.63C62.54 15.54 40.94 13.12 26.87 9.35C25.55 28.67 30.66 57.58 46.39 68.42C30.08 81.49 10.99 96.75 0.92 118.08C10.53 115.23 21.64 113.07 29.25 106.84C16.89 113.78 9.83 125.61 5.08 139.82C16.47 131.12 29.53 124.86 40.54 115.23C34.85 125.05 29.01 136.38 21.91 145.08C33.11 144.4 48.65 133.44 57.31 125.27C55.26 130.34 51.22 135.3 47.86 139.14C57.68 140.34 83.07 130.9 90.23 126.07C98.12 134.34 114.98 134.34 121.32 132.2C127.65 130.06 140.71 125.82 144.51 115.02Z" fill="#F08630" fill-opacity="1.000000" fill-rule="nonzero"/>
	<path id="path" d="M171.52 126.81C167.36 123.93 162.28 120.13 159.13 115.7C169.44 121.52 187.06 128.27 198.08 126.16C189.17 119.48 180.85 109.94 173.08 101.83C185.99 108.45 200.13 111.27 213.19 116.88C205.33 104.27 195.69 94.52 182.11 90.87C190.95 95.05 202.24 94.37 212.21 94.74C203.19 82.57 186.73 74.8 175.56 65.42C178.31 62.66 188.62 53.16 202.15 44.46C276.77 -1.33 139.31 30.56 144.63 33.31C143.65 29.44 142.7 25.6 141.72 21.73C139.92 24.02 138.08 26.31 136.28 28.61C135.48 25.91 134.65 23.22 133.86 20.49C132.02 23.74 130.22 27 128.38 30.25C128.29 26.1 128.93 21.33 127.22 17.74C125.63 20.49 125.11 22.72 124.62 25.82C123.58 23.9 123.61 13.06 122.57 11.14C121.71 13.06 119.79 23.87 118.96 25.76C117.74 21.89 115.47 4.83 112.9 1.92C112.08 5.57 110.21 23.56 110.09 27.18C109.32 23.22 102.68 10.71 100.36 7.64C99.56 22.04 105.1 28.36 97.27 20.52C97.11 23.78 95.71 24.83 95.71 28.05C93.23 24.08 92.07 21.39 88.52 18.91C88.39 22.17 86.71 26.04 86.9 29.29C85.64 25.85 84.85 24.92 82.55 22.72C83.53 33.9 79.64 30.43 74.05 24.89C73.98 26.31 75.06 28.98 73.62 29.63C62.54 15.54 40.94 13.12 26.87 9.35C25.55 28.67 30.66 57.58 46.39 68.42C30.08 81.49 10.99 96.75 0.92 118.08C10.53 115.23 21.64 113.07 29.25 106.84C16.89 113.78 9.83 125.61 5.08 139.82C16.47 131.12 29.53 124.86 40.54 115.23C34.85 125.05 29.01 136.38 21.91 145.08C33.11 144.4 48.65 133.44 57.31 125.27C55.26 130.34 51.22 135.3 47.86 139.14C57.68 140.34 83.07 130.9 90.23 126.07C98.12 134.34 114.98 134.34 121.32 132.2C127.65 130.06 140.71 125.82 144.51 115.02C150.9 118.11 162.25 130.41 171.52 126.81Z" stroke="#1D1D1B" stroke-opacity="1.000000" stroke-width="1.000000"/>
	<path id="path" d="M30.36 13.37C52.26 21.45 68.39 27.83 71.75 40.71C63.92 45.29 52.78 57.37 51.16 60.65C43.91 72.76 27.82 32.66 30.36 13.37Z" fill="#FCCC7E" fill-opacity="1.000000" fill-rule="nonzero"/>
	<path id="path" d="M71.75 40.71C63.92 45.29 52.78 57.37 51.16 60.65C43.91 72.76 27.82 32.66 30.36 13.37C52.26 21.45 68.39 27.83 71.75 40.71Z" stroke="#1D1D1B" stroke-opacity="1.000000" stroke-width="1.000000"/>
	<path id="path" d="M183.88 30.43C139.95 41.02 156.81 39.41 172.44 58.61C176.97 59.78 179.69 52.32 190.37 44.21C196 40.46 213.56 30.15 219.56 24.67C210.9 25.54 198.54 27.12 183.88 30.43Z" fill="#FCCC7E" fill-opacity="1.000000" fill-rule="nonzero"/>
	<path id="path" d="M172.44 58.61C176.97 59.78 179.69 52.32 190.37 44.21C196 40.46 213.56 30.15 219.56 24.67C210.9 25.54 198.54 27.12 183.88 30.43C139.95 41.02 156.81 39.41 172.44 58.61Z" stroke="#1D1D1B" stroke-opacity="1.000000" stroke-width="1.000000" stroke-linejoin="round"/>
	<path id="path" d="M94.88 83.78C85.73 82.85 87.29 67.4 96.41 68.61C105.56 69.54 104 84.98 94.88 83.78Z" fill="#FFFFFF" fill-opacity="1.000000" fill-rule="nonzero"/>
	<path id="path" d="M96.41 68.61C105.56 69.54 104 84.98 94.88 83.78C85.73 82.85 87.29 67.4 96.41 68.61Z" stroke="#1D1D1B" stroke-opacity="1.000000" stroke-width="0.500000"/>
	<path id="path" d="M124.83 83.59C115.9 81.33 119.39 66.25 128.26 68.79C137.19 71.05 133.71 86.13 124.83 83.59Z" fill="#FFFFFF" fill-opacity="1.000000" fill-rule="nonzero"/>
	<path id="path" d="M128.26 68.79C137.19 71.05 133.71 86.13 124.83 83.59C115.9 81.33 119.39 66.25 128.26 68.79Z" stroke="#1D1D1B" stroke-opacity="1.000000" stroke-width="0.500000"/>
	<path id="path" d="M95.09 112.14C95.65 115.05 97.63 120.16 99.35 122.73C102.84 117.71 104.49 107.06 95.09 112.14Z" fill="#FCF3CC" fill-opacity="1.000000" fill-rule="nonzero"/>
	<path id="path" d="M99.35 122.73C102.84 117.71 104.49 107.06 95.09 112.14C95.65 115.05 97.63 120.16 99.35 122.73Z" stroke="#1D1D1B" stroke-opacity="1.000000" stroke-width="0.500000"/>
	<path id="path" d="M123.85 111.24C123.15 114.15 120.95 119.17 119.11 121.74C115.84 116.69 114.68 106.07 123.85 111.24Z" fill="#FCF3CC" fill-opacity="1.000000" fill-rule="nonzero"/>
	<path id="path" d="M119.11 121.74C115.84 116.69 114.68 106.07 123.85 111.24C123.15 114.15 120.95 119.17 119.11 121.74Z" stroke="#1D1D1B" stroke-opacity="1.000000" stroke-width="0.500000"/>
	<path id="path" d="M109.35 90L109.35 108.27C108.65 118.61 87.51 117.9 88.61 107L109.35 90ZM108.87 90.02L108.85 90C108.85 89.72 109.07 89.5 109.35 89.5C109.63 89.5 109.85 89.72 109.85 90L109.83 90.02L108.87 90.02ZM88.13 106.97L88.11 106.95C88.14 106.67 88.38 106.47 88.66 106.5C88.94 106.53 89.13 106.77 89.11 107.05L89.08 107.07L88.13 106.97Z" fill="#F08630" fill-opacity="1.000000" fill-rule="nonzero"/>
	<path id="path" d="M109.35 90L109.35 108.27C108.65 118.61 87.51 117.9 88.61 107" stroke="#1D1D1B" stroke-opacity="1.000000" stroke-width="1.000000" stroke-linejoin="round" stroke-linecap="round"/>
	<path id="path" d="M108.4 88.45C90.38 87.83 101.18 94.68 106.54 97.71C106.35 99.75 107.43 99.2 109.32 99.23C110.85 99.54 110.61 98.73 110.7 97.71C116.85 94.4 126.33 87.68 108.4 88.45Z" fill="url(#paint_radial_2_737_0)" fill-opacity="1.000000" fill-rule="nonzero"/>
	<path id="path" d="M106.54 97.71C106.35 99.75 107.43 99.2 109.32 99.23C110.85 99.54 110.61 98.73 110.7 97.71C116.85 94.4 126.33 87.68 108.4 88.45C90.38 87.83 101.18 94.68 106.54 97.71Z" stroke="#1D1D1B" stroke-opacity="1.000000" stroke-width="1.000000"/>
	<path id="path" d="M136.06 104.43C136.55 116.04 115.53 121.77 109.35 108.27L136.06 104.43ZM135.58 104.47L135.56 104.45C135.55 104.17 135.76 103.94 136.04 103.93C136.32 103.92 136.55 104.13 136.56 104.41L136.54 104.43L135.58 104.47ZM108.92 108.49L108.9 108.48C108.78 108.22 108.89 107.93 109.14 107.81C109.4 107.7 109.69 107.81 109.81 108.06L109.8 108.09L108.92 108.49Z" fill="#F08630" fill-opacity="1.000000" fill-rule="nonzero"/>
	<path id="path" d="M136.06 104.43C136.55 116.04 115.53 121.77 109.35 108.27" stroke="#1D1D1B" stroke-opacity="1.000000" stroke-width="1.000000" stroke-linejoin="round" stroke-linecap="round"/>
	<path id="path" d="M103.57 99.91C103.57 101.36 101.31 101.36 101.34 99.91C101.34 98.45 103.6 98.45 103.57 99.91Z" fill="#000000" fill-opacity="1.000000" fill-rule="nonzero"/>
	<path id="path" d="M105.22 104.68C105.22 106.13 102.96 106.13 102.99 104.68C102.99 103.22 105.25 103.22 105.22 104.68Z" fill="#000000" fill-opacity="1.000000" fill-rule="nonzero"/>
	<path id="path" d="M98.37 104.03C98.37 105.48 96.1 105.48 96.14 104.03C96.14 102.57 98.4 102.57 98.37 104.03Z" fill="#000000" fill-opacity="1.000000" fill-rule="nonzero"/>
	<path id="path" d="M117.28 101.39C117.28 102.85 115.01 102.85 115.04 101.39C115.04 99.94 117.31 99.94 117.28 101.39Z" fill="#000000" fill-opacity="1.000000" fill-rule="nonzero"/>
	<path id="path" d="M122.2 106.13C121.74 107.49 119.6 106.78 120.09 105.42C120.55 104.06 122.69 104.77 122.2 106.13Z" fill="#000000" fill-opacity="1.000000" fill-rule="nonzero"/>
	<path id="path" d="M125.48 99.91C125.48 101.36 123.21 101.36 123.24 99.91C123.24 98.45 125.51 98.45 125.48 99.91Z" fill="#000000" fill-opacity="1.000000" fill-rule="nonzero"/>
	<path id="path" d="M76.83 42.75C73.07 40.83 43.54 76.53 53.94 91.98C52.32 83.81 68.23 48.3 76.83 42.75Z" fill="#C86C25" fill-opacity="1.000000" fill-rule="nonzero"/>
	<path id="path" d="M142.55 35.26C146.31 33.34 175.84 69.04 165.43 84.49C167.05 76.32 151.14 40.8 142.55 35.26Z" fill="#C86C25" fill-opacity="1.000000" fill-rule="nonzero"/>
	<path id="path" d="M104.27 361.71C93.08 361.71 39.63 334.41 30.82 320.44C30.02 318.31 29.29 315.77 28.77 313.1L37.85 287.28C38.43 285.61 39.63 284.56 40.88 284.56C41.28 284.56 41.68 284.68 42.04 284.9L114.37 326.64C116.14 327.66 116.91 330.6 116.02 333.04C115.56 333.76 114.68 336.45 113.02 341.56C111.07 347.6 107 360.1 105.16 361.62C105.16 361.62 104.73 361.71 104.27 361.71Z" fill="#FCEE21" fill-opacity="1.000000" fill-rule="nonzero"/>
	<path id="path" d="M40.88 286.08C40.88 286.08 41.16 286.11 41.28 286.2L113.61 327.94C114.55 328.49 115.2 330.47 114.65 332.3C114 333.57 113.15 336.2 111.59 341.03C109.81 346.51 106.2 357.6 104.37 360.14C93.72 360.14 41.13 333.17 32.25 319.82C31.46 317.72 30.82 315.49 30.33 313.2L39.29 287.78C39.69 286.66 40.39 286.08 40.88 286.08ZM40.88 282.98C39.01 282.98 37.24 284.37 36.41 286.73L27.17 312.95C27.57 314.99 28.28 317.97 29.53 321.25C38.62 335.65 92.59 363.23 104.27 363.23C104.76 363.23 105.19 363.17 105.53 363.08C108.74 362.89 115.87 336.23 117.49 333.51C118.62 330.32 117.55 326.64 115.14 325.21L42.81 283.48C42.2 283.1 41.52 282.98 40.88 282.98Z" fill="#000000" fill-opacity="1.000000" fill-rule="nonzero"/>
	<line id="line" x1="108.102783" y1="332.182190" x2="97.455811" y2="359.427856" stroke="#000000" stroke-opacity="1.000000" stroke-width="1.000000"/>
	<line id="line" x1="69.094208" y1="315.308411" x2="58.477783" y2="342.523132" stroke="#000000" stroke-opacity="1.000000" stroke-width="1.000000"/>
	<line id="line" x1="77.599640" y1="318.032959" x2="66.983215" y2="345.247620" stroke="#000000" stroke-opacity="1.000000" stroke-width="1.000000"/>
	<line id="line" x1="94.610382" y1="328.931274" x2="83.993958" y2="356.145935" stroke="#000000" stroke-opacity="1.000000" stroke-width="1.000000"/>
	<line id="line" x1="83.993958" y1="323.482178" x2="73.346985" y2="350.696838" stroke="#000000" stroke-opacity="1.000000" stroke-width="1.000000"/>
	<line id="line" x1="69.094208" y1="315.308411" x2="58.477783" y2="342.523132" stroke="#000000" stroke-opacity="1.000000" stroke-width="1.000000"/>
	<line id="line" x1="60.588867" y1="309.859314" x2="49.972443" y2="337.104919" stroke="#000000" stroke-opacity="1.000000" stroke-width="1.000000"/>
	<line id="line" x1="52.083466" y1="304.410156" x2="41.436462" y2="331.655823" stroke="#000000" stroke-opacity="1.000000" stroke-width="1.000000"/>
	<line id="line" x1="43.578094" y1="296.236450" x2="32.931061" y2="323.482117" stroke="#000000" stroke-opacity="1.000000" stroke-width="1.000000"/>
	<path id="path" d="M111.1 338C103.29 338 88.15 332.36 72.49 323.63C47.7 309.79 34.39 295.74 35.74 291.74L38.83 282.7L118.35 327.07L115.1 336.64C114.68 337.87 112.17 338 111.1 338Z" fill="#CEC393" fill-opacity="1.000000" fill-rule="nonzero"/>
	<path id="path" d="M39.69 284.96L116.51 327.81L113.76 336.02C113.76 336.02 113.18 336.48 111.13 336.48C103.57 336.48 88.7 330.91 73.25 322.3C48.74 308.65 36.6 295.3 37.21 292.27L39.69 284.96ZM37.97 280.47L34.3 291.28C32.28 297.25 49.05 312.33 71.75 325.03C88.21 334.22 103.26 339.61 111.1 339.61C114.06 339.61 115.99 338.83 116.54 337.19L120.21 326.39L37.97 280.47Z" fill="#000000" fill-opacity="1.000000" fill-rule="nonzero"/>
	<path id="path" d="M114.98 326.91C107.27 326.91 92.16 321.28 76.52 312.55C51.9 298.8 38.62 284.9 39.93 281C40.21 280.16 41.62 279.7 43.79 279.7C51.5 279.7 66.61 285.33 82.25 294.06C106.87 307.81 120.15 321.71 118.84 325.61C118.56 326.45 117.15 326.91 114.98 326.91Z" fill="#FFF3AE" fill-opacity="1.000000" fill-rule="nonzero"/>
	<path id="path" d="M43.79 281.25C51.25 281.25 66.06 286.82 81.51 295.43C105.74 308.93 117.61 321.71 117.4 324.99C117.19 325.12 116.51 325.37 114.98 325.37C107.52 325.37 92.71 319.79 77.26 311.19C53.03 297.69 41.16 284.9 41.37 281.62C41.58 281.49 42.26 281.25 43.79 281.25ZM43.79 278.15C40.91 278.15 39.05 278.89 38.49 280.5C36.51 286.35 53.21 301.31 75.79 313.91C92.25 323.07 107.27 328.49 114.98 328.49C117.86 328.49 119.72 327.75 120.28 326.14C122.26 320.29 105.56 305.33 82.98 292.73C66.52 283.57 51.5 278.15 43.79 278.15Z" fill="#000000" fill-opacity="1.000000" fill-rule="nonzero"/>
	<path id="path" d="M76.89 299.42C76.92 298.43 77.38 295.92 78.57 292.39C79.37 290.47 91.85 253.63 107.64 207C132.21 134.37 169.38 24.61 171.31 20.96C172.68 18.67 174.4 17.34 176.05 17.34C176.94 17.34 177.73 17.71 178.41 18.42C179.48 19.56 180.03 21.48 179.9 23.65C179.48 25.98 178.78 28.58 177.82 31.45L87.2 297.81C86.13 300.91 85.18 302.86 84.63 303.76L76.89 299.42Z" fill="url(#paint_linear_2_767_0)" fill-opacity="1.000000" fill-rule="nonzero"/>
	<path id="path" d="M176.05 18.88C176.51 18.88 176.91 19.07 177.27 19.47C178.04 20.28 178.44 21.7 178.37 23.37C177.76 26.75 177.73 26.84 176.36 30.93L85.73 297.25C85.09 299.14 84.48 300.6 83.99 301.59L78.51 298.55C78.7 297.44 79.12 295.49 79.98 292.95C81.08 290.1 91.3 259.95 109.05 207.5C133.4 135.58 170.14 27.03 172.62 21.67C173.69 19.91 174.98 18.88 176.05 18.88ZM176.02 15.76C174 15.76 171.77 17.09 169.99 20.12C167.7 23.37 79.34 286.54 77.14 291.87C75.64 296.23 74.96 300.07 75.61 300.44L84.75 305.55C85.46 305.55 87.23 302.39 88.64 298.24L179.26 31.92C180.76 27.52 180.76 27.52 181.43 23.68C181.71 18.82 179.08 15.76 176.02 15.76Z" fill="#000000" fill-opacity="1.000000" fill-rule="nonzero"/>
	<path id="path" d="M57.68 138.02C55.84 138.52 53.61 141.8 50.4 143.47C46.91 145.27 41.43 150.9 33.97 160.31C30.69 164.43 30.72 200.04 27.76 209.51C26.99 211.96 24.88 219.29 25.55 226.91C27.02 243.6 46.66 238.77 52.2 236.97L57.68 138.02ZM57.53 137.56L57.55 137.54C57.82 137.47 58.09 137.62 58.16 137.89C58.23 138.16 58.08 138.43 57.81 138.5L57.78 138.49L57.53 137.56ZM52.03 236.52L52.05 236.5C52.31 236.41 52.59 236.55 52.68 236.82C52.76 237.08 52.62 237.36 52.36 237.45L52.33 237.44L52.03 236.52Z" fill="#F08630" fill-opacity="1.000000" fill-rule="nonzero"/>
	<path id="path" d="M57.68 138.02C55.84 138.52 53.61 141.8 50.4 143.47C46.91 145.27 41.43 150.9 33.97 160.31C30.69 164.43 30.72 200.04 27.76 209.51C26.99 211.96 24.88 219.29 25.55 226.91C27.02 243.6 46.66 238.77 52.2 236.97" stroke="#1D1D1B" stroke-opacity="1.000000" stroke-width="1.000000" stroke-linejoin="round" stroke-linecap="round"/>
	<path id="path" d="M47.4 237.07C55.05 239.08 70.37 235.8 68.17 233.26C72.24 233.6 80.44 230.81 78.45 229.63C80.87 229.11 88.7 226.54 85.73 224.37L104.73 195.61C88.36 189.66 77.29 199.85 77.96 199.54C76.22 199.63 74.05 199.26 72.42 199.29C79.52 197.68 70.16 197.59 67.22 198.49C77.29 194.18 61.13 193.81 55.38 194.22C61.59 190.5 56.42 191.92 52.23 191.46C52.87 191.27 54.22 190.81 54.74 190.69C52.2 190.62 41.77 190.28 48.25 189.2L47.4 237.07Z" fill="#F08630" fill-opacity="1.000000" fill-rule="nonzero"/>
	<path id="path" d="M47.4 237.07C55.05 239.08 70.37 235.8 68.17 233.26C72.24 233.6 80.44 230.81 78.45 229.63C80.87 229.11 88.7 226.54 85.73 224.37L104.73 195.61C88.36 189.66 77.29 199.85 77.96 199.54C76.22 199.63 74.05 199.26 72.42 199.29C79.52 197.68 70.16 197.59 67.22 198.49C77.29 194.18 61.13 193.81 55.38 194.22C61.59 190.5 56.42 191.92 52.23 191.46C52.87 191.27 54.22 190.81 54.74 190.69C52.2 190.62 41.77 190.28 48.25 189.2" stroke="#1D1D1B" stroke-opacity="1.000000" stroke-width="1.000000"/>
	<path id="path" d="M79.31 224.22C88.3 236.01 104.34 215.73 114.92 215.49C127.92 205.3 109.81 184.77 100.76 199.2L79.31 224.22Z" fill="#F08630" fill-opacity="1.000000" fill-rule="nonzero"/>
	<path id="path" d="M79.31 224.22C88.3 236.01 104.34 215.73 114.92 215.49C127.92 205.3 109.81 184.77 100.76 199.2" stroke="#1D1D1B" stroke-opacity="1.000000" stroke-width="1.000000"/>
	<path id="path" d="M98.71 218.89C106.05 231.46 123.24 218.3 115.59 205.98C108.25 193.41 91.06 206.57 98.71 218.89Z" fill="#F08630" fill-opacity="1.000000" fill-rule="nonzero"/>
	<path id="path" d="M115.59 205.98C108.25 193.41 91.06 206.57 98.71 218.89C106.05 231.46 123.24 218.3 115.59 205.98Z" stroke="#1D1D1B" stroke-opacity="1.000000" stroke-width="1.000000"/>
	<path id="path" d="M92.95 225.36C110.21 244.19 117.83 199.14 96.14 206.48L92.95 225.36Z" fill="#F08630" fill-opacity="1.000000" fill-rule="nonzero"/>
	<path id="path" d="M92.95 225.36C110.21 244.19 117.83 199.14 96.14 206.48" stroke="#1D1D1B" stroke-opacity="1.000000" stroke-width="1.000000"/>
	<path id="path" d="M120.61 201.27C117.95 202.92 114.65 202.73 114.83 199.36C115.38 197.99 119.82 199.36 120.61 201.27Z" fill="#F8F7D7" fill-opacity="1.000000" fill-rule="nonzero"/>
	<path id="path" d="M114.83 199.36C115.38 197.99 119.82 199.36 120.61 201.27C117.95 202.92 114.65 202.73 114.83 199.36Z" stroke="#1D1D1B" stroke-opacity="1.000000" stroke-width="1.000000"/>
	<path id="path" d="M117.8 208.33C115.14 209.97 111.83 209.79 112.01 206.41C112.57 205.05 117 206.41 117.8 208.33Z" fill="#F8F7D7" fill-opacity="1.000000" fill-rule="nonzero"/>
	<path id="path" d="M112.01 206.41C112.57 205.05 117 206.41 117.8 208.33C115.14 209.97 111.83 209.79 112.01 206.41Z" stroke="#1D1D1B" stroke-opacity="1.000000" stroke-width="1.000000"/>
	<path id="path" d="M109.38 215.45C106.72 217.1 103.42 216.91 103.6 213.54C104.15 212.17 108.59 213.54 109.38 215.45Z" fill="#F8F7D7" fill-opacity="1.000000" fill-rule="nonzero"/>
	<path id="path" d="M103.6 213.54C104.15 212.17 108.59 213.54 109.38 215.45C106.72 217.1 103.42 216.91 103.6 213.54Z" stroke="#1D1D1B" stroke-opacity="1.000000" stroke-width="1.000000"/>
	<path id="path" d="M163.84 129.72C165.86 129.94 168.8 132.97 172.47 134.18C176.45 135.48 183.21 140.44 192.75 149.07C196.95 152.85 203.13 158.42 207.9 167.93C209.15 170.41 212.64 177.78 213.25 185.95C214.63 203.91 193.09 202.3 186.94 201.4L163.84 129.72ZM163.81 130.2L163.79 130.22C163.51 130.19 163.32 129.95 163.35 129.67C163.37 129.39 163.62 129.2 163.9 129.23L163.91 129.25L163.81 130.2ZM186.89 201.88L186.87 201.89C186.59 201.85 186.41 201.6 186.45 201.33C186.49 201.05 186.74 200.86 187.01 200.9L187.03 200.93L186.89 201.88Z" fill="#F08630" fill-opacity="1.000000" fill-rule="nonzero"/>
	<path id="path" d="M163.84 129.72C165.86 129.94 168.8 132.97 172.47 134.18C176.45 135.48 183.21 140.44 192.75 149.07C196.95 152.85 203.13 158.42 207.9 167.93C209.15 170.41 212.64 177.78 213.25 185.95C214.63 203.91 193.09 202.3 186.94 201.4" stroke="#1D1D1B" stroke-opacity="1.000000" stroke-width="1.000000" stroke-linejoin="round" stroke-linecap="round"/>
	<path id="path" d="M192.02 200.66C184.31 204.15 167.57 203.47 169.47 200.38C165.25 201.46 156.13 199.97 158 198.4C155.37 198.27 146.65 196.97 149.4 194.12L124.34 167.09C140.53 157.87 154.02 166.63 153.23 166.44C155.06 166.23 157.33 165.42 159.04 165.17C151.27 164.74 161.12 162.98 164.36 163.38C153.01 160.62 169.96 157.31 176.08 156.69C168.89 153.87 174.58 154.46 178.93 153.22C178.22 153.16 176.72 152.88 176.14 152.85C178.83 152.36 189.76 150.1 182.72 150.1L192.02 200.66Z" fill="#F08630" fill-opacity="1.000000" fill-rule="nonzero"/>
	<path id="path" d="M192.02 200.66C184.31 204.15 167.57 203.47 169.47 200.38C165.25 201.46 156.13 199.97 158 198.4C155.37 198.27 146.65 196.97 149.4 194.12L124.34 167.09C140.53 157.87 154.02 166.63 153.23 166.44C155.06 166.23 157.33 165.42 159.04 165.17C151.27 164.74 161.12 162.98 164.36 163.38C153.01 160.62 169.96 157.31 176.08 156.69C168.89 153.87 174.58 154.46 178.93 153.22C178.22 153.16 176.72 152.88 176.14 152.85C178.83 152.36 189.76 150.1 182.72 150.1" stroke="#1D1D1B" stroke-opacity="1.000000" stroke-width="1.000000"/>
	<path id="path" d="M156.13 192.79C148.7 206.91 128.26 188.33 117.06 189.97C101.58 181.55 117.06 156.5 129.15 170.19L156.13 192.79Z" fill="#F08630" fill-opacity="1.000000" fill-rule="nonzero"/>
	<path id="path" d="M156.13 192.79C148.7 206.91 128.26 188.33 117.06 189.97C101.58 181.55 117.06 156.5 129.15 170.19" stroke="#1D1D1B" stroke-opacity="1.000000" stroke-width="1.000000"/>
	<path id="path" d="M134.78 190.66C129.24 205.3 108.8 194.46 114.74 180.04C120.27 165.39 140.71 176.23 134.78 190.66Z" fill="#F08630" fill-opacity="1.000000" fill-rule="nonzero"/>
	<path id="path" d="M114.74 180.04C120.27 165.39 140.71 176.23 134.78 190.66C129.24 205.3 108.8 194.46 114.74 180.04Z" stroke="#1D1D1B" stroke-opacity="1.000000" stroke-width="1.000000"/>
	<path id="path" d="M141.97 196.48C127.07 219.54 111.16 173.19 135.3 177.06L141.97 196.48Z" fill="#F08630" fill-opacity="1.000000" fill-rule="nonzero"/>
	<path id="path" d="M141.97 196.48C127.07 219.54 111.16 173.19 135.3 177.06" stroke="#1D1D1B" stroke-opacity="1.000000" stroke-width="1.000000"/>
	<path id="path" d="M108.62 175.92C111.71 177.19 115.17 176.38 114.37 172.85C113.57 171.52 109.11 173.75 108.62 175.92Z" fill="#F8F7D7" fill-opacity="1.000000" fill-rule="nonzero"/>
	<path id="path" d="M114.37 172.85C113.57 171.52 109.11 173.75 108.62 175.92C111.71 177.19 115.17 176.38 114.37 172.85Z" stroke="#1D1D1B" stroke-opacity="1.000000" stroke-width="1.000000"/>
	<path id="path" d="M112.78 182.88C115.87 184.15 119.33 183.35 118.53 179.82C117.74 178.49 113.27 180.72 112.78 182.88Z" fill="#F8F7D7" fill-opacity="1.000000" fill-rule="nonzero"/>
	<path id="path" d="M118.53 179.82C117.74 178.49 113.27 180.72 112.78 182.88C115.87 184.15 119.33 183.35 118.53 179.82Z" stroke="#1D1D1B" stroke-opacity="1.000000" stroke-width="1.000000"/>
	<path id="path" d="M122.91 188.92C126 190.19 129.45 189.39 128.66 185.86C127.86 184.52 123.4 186.75 122.91 188.92Z" fill="#F8F7D7" fill-opacity="1.000000" fill-rule="nonzero"/>
	<path id="path" d="M128.66 185.86C127.86 184.52 123.4 186.75 122.91 188.92C126 190.19 129.45 189.39 128.66 185.86Z" stroke="#1D1D1B" stroke-opacity="1.000000" stroke-width="1.000000"/>
	<ellipse id="circle" cx="127.622314" cy="78.797729" rx="5.262327" ry="5.325285" fill="#000000" fill-opacity="1.000000"/>
	<ellipse id="circle" cx="96.996796" cy="77.744995" rx="5.262327" ry="5.325285" fill="#000000" fill-opacity="1.000000"/>
	<path id="path" d="M95.34 74.95C96.35 76.13 94.57 77.8 93.63 76.59C92.62 75.42 94.39 73.75 95.34 74.95Z" fill="#FFFFFF" fill-opacity="1.000000" fill-rule="nonzero"/>
	<path id="path" d="M128.17 74.95C129.18 76.13 127.4 77.8 126.46 76.59C125.45 75.42 127.22 73.75 128.17 74.95Z" fill="#FFFFFF" fill-opacity="1.000000" fill-rule="nonzero"/>
</svg>
