<svg width="378.000000" height="320.000000" viewBox="0 0 378 320" fill="none" xmlns="http://www.w3.org/2000/svg" xmlns:xlink="http://www.w3.org/1999/xlink">
	<desc>
			Created with Pixso.
	</desc>
	<defs/>
	<path id="path" d="M7 305.29C10.89 307.98 14.78 310.67 18.67 313.35C33.5 308.37 52.11 299.82 70.01 284.34C80.38 275.38 90.6 264.02 89.47 262.57C88.27 261.07 75.4 271.38 57.57 281.92C37.33 293.89 19.37 301.04 7 305.29Z" fill="#5F8341" fill-opacity="1.000000" fill-rule="nonzero"/>
	<path id="path" d="M18.67 313.35C33.5 308.37 52.11 299.82 70.01 284.34C80.38 275.38 90.6 264.02 89.47 262.57C88.27 261.07 75.4 271.38 57.57 281.92C37.33 293.89 19.37 301.04 7 305.29C10.89 307.98 14.78 310.67 18.67 313.35Z" stroke="#1F4F00" stroke-opacity="1.000000" stroke-width="1.000000"/>
	<path id="path" d="M72.74 260.56C70.65 253.97 65.62 245.38 52.51 237.18C62.03 241.75 67.22 243.36 68.07 242.02C69.17 240.28 62.94 233.57 49.4 221.87C50.25 222.33 59.9 227.37 62.62 224.29C65.09 221.51 60.94 213.18 56.42 208.33C52.05 203.62 46.92 201.73 43.95 200.91C54.75 202.91 56.77 200.01 57.18 199.3C59.34 195.5 53.64 186.94 43.17 177.54C50.4 182.75 54.81 184.63 56.4 183.18C58.52 181.26 55.66 173.47 47.84 159.81C56.13 166.93 58.24 165.82 58.73 165.45C61.26 163.53 57.56 152.98 56.08 148.79C55.31 146.6 54.57 144.84 54.07 143.69C60.21 149.64 64.1 152.06 65.74 150.94C67.99 149.39 65.92 141.07 59.51 125.96C65.23 132.4 69.12 135.09 71.18 134.02C74.11 132.49 73.33 123.35 68.85 106.61C72.63 113.07 75.48 116.03 77.41 115.48C80.32 114.65 81.09 105.78 79.74 88.88C85.55 101.28 87.57 103.66 88.3 103.39C89.49 102.94 88.02 95.08 87.11 90.19C86.44 86.6 85.72 83.65 85.19 81.63C92.57 91.46 95.56 91.86 96.86 91.3C100.71 89.62 98.47 75.39 96.86 67.12C97.98 69.08 101.59 74.98 104.64 74.37C107.76 73.74 109.72 66.37 109.3 55.83C114.47 64.97 116.35 66.63 117.08 66.31C118.54 65.68 114.91 57.38 118.64 52.61C120.49 50.24 123.51 49.59 125.64 49.39C121.72 51.64 120.45 55.87 121.75 58.25C123.08 60.69 127.1 61.13 129.53 59.86C132.79 58.17 133.58 53.25 134.2 49.39C134.43 47.92 134.51 46.57 134.54 45.98C134.66 43.39 134.44 41.24 134.2 39.71C138.74 42.74 141.32 45.9 142.87 48.39C143.4 49.25 143.98 50.3 144.31 50.19C145.6 49.76 140.77 33.3 142.76 32.46C144.41 31.78 148.45 42.67 152.09 42.13C155.07 41.69 156.68 33.76 157.54 23.59C158.77 33.19 159.8 36.51 160.65 36.49C162.75 36.46 163.81 16.32 166.1 16.34C167.73 16.35 168.25 26.67 170.77 26.82C172.03 26.89 173.15 24.35 174.23 21.86C177.09 15.24 177.26 9.88 177.77 9.89C178.67 9.91 177.74 26.89 180.88 27.62C184.1 28.37 190.15 11.69 191.77 12.31C193.09 12.81 189.35 23.85 191.77 25.21C194.67 26.83 203.45 13.04 206.55 14.73C209.03 16.07 205.49 25.92 207.33 26.82C208.57 27.42 212.05 23.88 220.56 9.89C220.12 12.21 218.89 19.67 222.11 21.98C225.65 24.51 234.06 20.51 242.34 10.7C241.91 11.59 238.23 19.45 240.79 21.98C243.14 24.3 249.77 21.18 253.23 19.56C259.14 16.8 262.09 13.71 263.35 14.73C264.89 15.96 261.36 21.26 263.35 23.59C264.59 25.04 267.32 24.61 271.13 23.59C282.62 20.52 288.95 16.08 289.8 17.15C290.98 18.61 280.25 28.7 281.24 30.04C281.9 30.91 287.48 28.03 302.25 17.95C297.66 24.42 295.85 28.18 296.8 29.24C298.06 30.61 304.01 27.39 314.7 19.56C310.87 27.13 309.57 31.43 310.81 32.46C312.35 33.74 317.79 29.98 327.14 21.18C323.88 27.66 322.85 31.42 324.03 32.46C325.77 33.98 332.25 29.68 343.48 19.56C340.8 26.62 341.14 28.66 341.93 29.24C343.81 30.61 350.09 24.91 354.42 20.97C357.86 17.85 360.47 15.03 362.15 13.12C352.04 28.07 350.59 31.87 351.26 32.46C351.57 32.73 353.02 31.83 355.93 30.04C359.77 27.68 361.98 25.67 363.12 24.55C363.16 24.5 363.51 24.17 363.9 23.76C368.43 19.07 377.41 7.26 377.71 7.47C378.07 7.73 365.16 22.8 369.16 30.04C370.8 33.01 375.01 34.18 374.6 35.68C374.4 36.41 373.3 36.56 369.93 37.3C362.52 38.92 362.22 39.45 362.15 39.71C361.98 40.49 363.25 42.02 370.71 45.36C369.97 45.57 358.76 48.73 359.04 51C359.33 53.35 371.74 53.42 372.27 53.42C371.04 54.5 369.08 56.04 366.43 57.42C360.57 60.46 356.09 60.19 355.93 61.48C355.83 62.3 357.49 63.72 366.04 66.31C352.41 74.41 349.16 77.82 349.71 79.21C350.59 81.47 361.8 78.6 362.15 80.01C362.6 81.79 345.3 87.2 345.82 89.69C346.21 91.64 357.3 90.56 357.49 92.1C357.61 93.13 352.74 93.62 348.15 97.75C345.82 99.84 342.47 103.86 343.48 105.81C344.38 107.52 348.58 107.43 353.6 105.81C353.54 105.88 347.01 114.91 346.59 115.48C342.04 121.77 339.77 124.94 340.37 125.96C340.74 126.59 342.42 127.87 353.6 123.54C342.01 133.92 336.82 140.09 338.04 142.08C338.84 143.39 342.47 142.86 348.93 140.46C340.17 147.61 336.28 152.18 337.26 154.17C338.01 155.69 341.65 155.69 348.15 154.17C340.42 158.24 332.01 163.06 332.59 164.64C333.2 166.29 343.24 163.68 343.48 164.64C343.8 165.93 326.04 170.41 326.37 173.51C326.51 174.94 330.51 176.16 341.93 176.73C338.77 177.93 334.37 179.92 329.63 183.26C329.18 183.58 327.6 184.71 325.59 186.41C319.78 191.32 312.96 198.81 313.92 200.11C315.05 201.65 326.71 193.75 327.14 194.47C327.71 195.4 308.63 210.08 306.92 211.39C302.4 214.86 298.66 217.64 299.14 218.65C299.88 220.23 310.3 215.83 310.81 217.03C311.37 218.36 299.34 225.34 298.36 225.9C291.63 229.78 288 231.19 288.24 232.35C288.65 234.25 299.11 233.45 299.14 233.96C299.16 234.49 287.54 232.81 279.69 239.6C276.19 242.63 277.2 244.07 272.68 249.27C269.6 252.82 267.8 253.68 257.9 260.56C244.47 269.89 245.38 269.98 241.56 271.84C233.15 275.96 226.69 276.53 226.78 278.29C226.89 280.4 236.18 280.98 236.12 282.32C236.07 283.4 230.03 283.44 219.78 285.54C219.05 285.7 213.46 286.87 206.55 289.57C199.2 292.45 198.7 293.81 198.77 294.41C198.84 294.89 199.33 295.21 199.68 295.41C203.92 297.85 209.61 297.27 209.67 297.63C209.74 298.13 199.77 302.7 187.88 300.05C184.25 299.25 181.11 297.92 180.88 298.44C180.4 299.52 193.08 306.07 192.55 307.31C192.11 308.34 182.98 304.64 168.43 302.47C158.96 301.06 157.76 301.87 157.54 302.47C157.03 303.9 161.14 306.79 164.54 308.92C161.65 310.05 156.95 311.34 152.09 309.72C143.67 306.92 139.83 297.04 138.87 297.63C138.19 298.06 140.03 303.09 142.76 307.31C144.4 309.84 146.11 311.69 147.43 312.95C140.25 311.89 135.32 309.27 131.87 306.5C127.04 302.62 127.04 300.02 122.53 297.63C116.77 294.6 114.19 297.48 106.19 295.22C103.02 294.32 99.66 292.2 92.97 287.96C84.86 282.84 80.81 280.27 78.18 276.68C74.04 271 74.69 266.72 72.74 260.56Z" fill="#254F1C" fill-opacity="1.000000" fill-rule="nonzero"/>
	<path id="path" d="M52.51 237.18C62.03 241.75 67.22 243.36 68.07 242.02C69.17 240.28 62.94 233.57 49.4 221.87C50.25 222.33 59.9 227.37 62.62 224.29C65.09 221.51 60.94 213.18 56.42 208.33C52.05 203.62 46.92 201.73 43.95 200.91C54.75 202.91 56.77 200.01 57.18 199.3C59.34 195.5 53.64 186.94 43.17 177.54C50.4 182.75 54.81 184.63 56.4 183.18C58.52 181.26 55.66 173.47 47.84 159.81C56.13 166.93 58.24 165.82 58.73 165.45C61.26 163.53 57.56 152.98 56.08 148.79C55.31 146.6 54.57 144.84 54.07 143.69C60.21 149.64 64.1 152.06 65.74 150.94C67.99 149.39 65.92 141.07 59.51 125.96C65.23 132.4 69.12 135.09 71.18 134.02C74.11 132.49 73.33 123.35 68.85 106.61C72.63 113.07 75.48 116.03 77.41 115.48C80.32 114.65 81.09 105.78 79.74 88.88C85.55 101.28 87.57 103.66 88.3 103.39C89.49 102.94 88.02 95.08 87.11 90.19C86.44 86.6 85.72 83.65 85.19 81.63C92.57 91.46 95.56 91.86 96.86 91.3C100.71 89.62 98.47 75.39 96.86 67.12C97.98 69.08 101.59 74.98 104.64 74.37C107.76 73.74 109.72 66.37 109.3 55.83C114.47 64.97 116.35 66.63 117.08 66.31C118.54 65.68 114.91 57.38 118.64 52.61C120.49 50.24 123.51 49.59 125.64 49.39C121.72 51.64 120.45 55.87 121.75 58.25C123.08 60.69 127.1 61.13 129.53 59.86C132.79 58.17 133.58 53.25 134.2 49.39C134.43 47.92 134.51 46.57 134.54 45.98C134.66 43.39 134.44 41.24 134.2 39.71C138.74 42.74 141.32 45.9 142.87 48.39C143.4 49.25 143.98 50.3 144.31 50.19C145.6 49.76 140.77 33.3 142.76 32.46C144.41 31.78 148.45 42.67 152.09 42.13C155.07 41.69 156.68 33.76 157.54 23.59C158.77 33.19 159.8 36.51 160.65 36.49C162.75 36.46 163.81 16.32 166.1 16.34C167.73 16.35 168.25 26.67 170.77 26.82C172.03 26.89 173.15 24.35 174.23 21.86C177.09 15.24 177.26 9.88 177.77 9.89C178.67 9.91 177.74 26.89 180.88 27.62C184.1 28.37 190.15 11.69 191.77 12.31C193.09 12.81 189.35 23.85 191.77 25.21C194.67 26.83 203.45 13.04 206.55 14.73C209.03 16.07 205.49 25.92 207.33 26.82C208.57 27.42 212.05 23.88 220.56 9.89C220.12 12.21 218.89 19.67 222.11 21.98C225.65 24.51 234.06 20.51 242.34 10.7C241.91 11.59 238.23 19.45 240.79 21.98C243.14 24.3 249.77 21.18 253.23 19.56C259.14 16.8 262.09 13.71 263.35 14.73C264.89 15.96 261.36 21.26 263.35 23.59C264.59 25.04 267.32 24.61 271.13 23.59C282.62 20.52 288.95 16.08 289.8 17.15C290.98 18.61 280.25 28.7 281.24 30.04C281.9 30.91 287.48 28.03 302.25 17.95C297.66 24.42 295.85 28.18 296.8 29.24C298.06 30.61 304.01 27.39 314.7 19.56C310.87 27.13 309.57 31.43 310.81 32.46C312.35 33.74 317.79 29.98 327.14 21.18C323.88 27.66 322.85 31.42 324.03 32.46C325.77 33.98 332.25 29.68 343.48 19.56C340.8 26.62 341.14 28.66 341.93 29.24C343.81 30.61 350.09 24.91 354.42 20.97C357.86 17.85 360.47 15.03 362.15 13.12C352.04 28.07 350.59 31.87 351.26 32.46C351.57 32.73 353.02 31.83 355.93 30.04C359.77 27.68 361.98 25.67 363.12 24.55C363.16 24.5 363.51 24.17 363.9 23.76C368.43 19.07 377.41 7.26 377.71 7.47C378.07 7.73 365.16 22.8 369.16 30.04C370.8 33.01 375.01 34.18 374.6 35.68C374.4 36.41 373.3 36.56 369.93 37.3C362.52 38.92 362.22 39.45 362.15 39.71C361.98 40.49 363.25 42.02 370.71 45.36C369.97 45.57 358.76 48.73 359.04 51C359.33 53.35 371.74 53.42 372.27 53.42C371.04 54.5 369.08 56.04 366.43 57.42C360.57 60.46 356.09 60.19 355.93 61.48C355.83 62.3 357.49 63.72 366.04 66.31C352.41 74.41 349.16 77.82 349.71 79.21C350.59 81.47 361.8 78.6 362.15 80.01C362.6 81.79 345.3 87.2 345.82 89.69C346.21 91.64 357.3 90.56 357.49 92.1C357.61 93.13 352.74 93.62 348.15 97.75C345.82 99.84 342.47 103.86 343.48 105.81C344.38 107.52 348.58 107.43 353.6 105.81C353.54 105.88 347.01 114.91 346.59 115.48C342.04 121.77 339.77 124.94 340.37 125.96C340.74 126.59 342.42 127.87 353.6 123.54C342.01 133.92 336.82 140.09 338.04 142.08C338.84 143.39 342.47 142.86 348.93 140.46C340.17 147.61 336.28 152.18 337.26 154.17C338.01 155.69 341.65 155.69 348.15 154.17C340.42 158.24 332.01 163.06 332.59 164.64C333.2 166.29 343.24 163.68 343.48 164.64C343.8 165.93 326.04 170.41 326.37 173.51C326.51 174.94 330.51 176.16 341.93 176.73C338.77 177.93 334.37 179.92 329.63 183.26C329.18 183.58 327.6 184.71 325.59 186.41C319.78 191.32 312.96 198.81 313.92 200.11C315.05 201.65 326.71 193.75 327.14 194.47C327.71 195.4 308.63 210.08 306.92 211.39C302.4 214.86 298.66 217.64 299.14 218.65C299.88 220.23 310.3 215.83 310.81 217.03C311.37 218.36 299.34 225.34 298.36 225.9C291.63 229.78 288 231.19 288.24 232.35C288.65 234.25 299.11 233.45 299.14 233.96C299.16 234.49 287.54 232.81 279.69 239.6C276.19 242.63 277.2 244.07 272.68 249.27C269.6 252.82 267.8 253.68 257.9 260.56C244.47 269.89 245.38 269.98 241.56 271.84C233.15 275.96 226.69 276.53 226.78 278.29C226.89 280.4 236.18 280.98 236.12 282.32C236.07 283.4 230.03 283.44 219.78 285.54C219.05 285.7 213.46 286.87 206.55 289.57C199.2 292.45 198.7 293.81 198.77 294.41C198.84 294.89 199.33 295.21 199.68 295.41C203.92 297.85 209.61 297.27 209.67 297.63C209.74 298.13 199.77 302.7 187.88 300.05C184.25 299.25 181.11 297.92 180.88 298.44C180.4 299.52 193.08 306.07 192.55 307.31C192.11 308.34 182.98 304.64 168.43 302.47C158.96 301.06 157.76 301.87 157.54 302.47C157.03 303.9 161.14 306.79 164.54 308.92C161.65 310.05 156.95 311.34 152.09 309.72C143.67 306.92 139.83 297.04 138.87 297.63C138.19 298.06 140.03 303.09 142.76 307.31C144.4 309.84 146.11 311.69 147.43 312.95C140.25 311.89 135.32 309.27 131.87 306.5C127.04 302.62 127.04 300.02 122.53 297.63C116.77 294.6 114.19 297.48 106.19 295.22C103.02 294.32 99.66 292.2 92.97 287.96C84.86 282.84 80.81 280.27 78.18 276.68C74.04 271 74.69 266.72 72.74 260.56C70.65 253.97 65.62 245.38 52.51 237.18Z" stroke="#1F4F00" stroke-opacity="1.000000" stroke-width="1.000000"/>
	<path id="path" d="M79.74 271.04C80.14 271.55 118.21 241.14 146.65 217.84C261.64 123.63 351.22 37.36 350.48 36.49C349.85 35.74 282.38 98.89 158.32 204.14C118 238.34 79.34 270.51 79.74 271.04Z" fill="#76A23B" fill-opacity="1.000000" fill-rule="nonzero"/>
	<path id="path" d="M79.35 129.58C79.21 129.58 78.12 147.19 77.02 162.63C75.8 179.71 74.63 182.78 74.68 192.45C74.71 198.1 74.82 208.13 77.41 220.26C81.39 238.97 89.62 255.04 91.02 254.51C92.58 253.93 83.3 233.73 79.35 202.93C74.17 162.52 79.55 129.59 79.35 129.58Z" fill="#76A23B" fill-opacity="1.000000" fill-rule="nonzero"/>
	<path id="path" d="M98.47 148.51C91.92 192.61 99.49 228.81 105.41 249.27C102.01 227.5 99.53 198.5 102.3 164.64C105.11 130.33 112.41 101.85 119.42 80.82C111.7 96.69 102.75 119.65 98.47 148.51Z" fill="#76A23B" fill-opacity="1.000000" fill-rule="nonzero"/>
	<path id="path" d="M130.4 120.92C119.05 163.97 122.6 200.83 126.25 221.85C125.25 199.82 125.98 170.72 132.44 137.41C138.99 103.65 149.38 76.21 158.64 56.15C149.24 71.01 137.83 92.76 130.4 120.92Z" fill="#76A23B" fill-opacity="1.000000" fill-rule="nonzero"/>
	<path id="path" d="M164.68 109.86C150.86 149.73 147.61 185.08 147.25 209.26C150.12 185.46 155.26 157.29 164.53 126.48C175.68 89.4 189.73 58.71 202.66 34.88C190.52 52.46 175.9 77.51 164.68 109.86Z" fill="#76A23B" fill-opacity="1.000000" fill-rule="nonzero"/>
	<path id="path" d="M190.54 96.1C176.93 131.9 175.5 164.31 176.73 186.62C178.48 164.85 182.64 139.22 191.48 111.43C202.13 78 216.63 50.7 230.28 29.63C217.14 44.97 201.58 67.05 190.54 96.1Z" fill="#76A23B" fill-opacity="1.000000" fill-rule="nonzero"/>
	<path id="path" d="M221.03 87.36C209.66 116.39 204.94 142.11 202.82 159.7C206.4 142.37 211.68 121.88 219.62 99.45C229.19 72.45 239.96 50.1 249.54 32.74C240.93 45.55 230.25 63.81 221.03 87.36Z" fill="#76A23B" fill-opacity="1.000000" fill-rule="nonzero"/>
	<path id="path" d="M246.07 78.05C234.72 103.8 228.9 126.65 225.79 142.29C230.03 126.9 235.87 108.71 243.98 88.79C253.73 64.84 264.08 45.03 273.07 29.64C265.21 40.98 255.28 57.16 246.07 78.05Z" fill="#76A23B" fill-opacity="1.000000" fill-rule="nonzero"/>
	<path id="path" d="M279.93 65.57C270.58 84.69 264.79 101.52 261.36 113C265.44 101.66 270.76 88.22 277.59 73.46C285.82 55.7 293.97 40.94 300.86 29.45C295.05 37.96 287.51 50.06 279.93 65.57Z" fill="#76A23B" fill-opacity="1.000000" fill-rule="nonzero"/>
	<path id="path" d="M197.18 287.55C197.16 287.68 182.89 285.26 170.35 283.28C156.47 281.09 153.79 281.54 146.09 279.63C141.58 278.51 133.61 276.49 124.44 271.84C110.31 264.69 99.14 254.23 99.83 253.09C100.6 251.81 114.87 263.98 138.66 273.45C169.86 285.85 197.21 287.38 197.18 287.55Z" fill="#76A23B" fill-opacity="1.000000" fill-rule="nonzero"/>
	<path id="path" d="M185.9 266.83C149.39 264.19 122.02 250.47 106.88 241.23C123.58 248.47 146.22 256.25 173.79 260.3C201.73 264.4 225.92 263.35 244.09 261.14C229.89 264.98 209.78 268.55 185.9 266.83Z" fill="#76A23B" fill-opacity="1.000000" fill-rule="nonzero"/>
	<path id="path" d="M214.29 243.6C177.68 245.45 148.97 235.19 132.92 227.89C150.31 233.02 173.68 237.97 201.54 238.61C229.79 239.26 253.76 235.26 271.62 230.83C257.89 236.38 238.24 242.39 214.29 243.6Z" fill="#76A23B" fill-opacity="1.000000" fill-rule="nonzero"/>
	<path id="path" d="M229.96 215.1C195.38 219.78 166.53 215.88 147.17 211.55C166.74 213.57 190.22 214.4 216.67 212.05C248.49 209.22 275.77 202.57 297.37 195.59C280.92 203.06 258.01 211.3 229.96 215.1Z" fill="#76A23B" fill-opacity="1.000000" fill-rule="nonzero"/>
	<path id="path" d="M246.09 194.64C214.81 199.92 188.66 194.94 171.12 189.55C188.84 192.18 210.12 193.39 234.05 190.84C262.85 187.76 287.53 180.06 307.06 171.91C292.2 180.71 271.48 190.37 246.09 194.64Z" fill="#76A23B" fill-opacity="1.000000" fill-rule="nonzero"/>
	<path id="path" d="M259.16 169.09C233.73 173.66 212.27 172.92 197.8 171.43C212.34 171.57 229.75 170.79 249.24 168.01C272.69 164.67 292.67 159.33 308.43 154.12C296.49 159.35 279.79 165.37 259.16 169.09Z" fill="#76A23B" fill-opacity="1.000000" fill-rule="nonzero"/>
	<path id="path" d="M271.59 148.49C248.78 153.68 229.38 154.48 216.29 154.25C229.41 153.42 245.1 151.71 262.6 148.29C283.67 144.18 301.54 138.75 315.61 133.68C304.99 138.51 290.1 144.28 271.59 148.49Z" fill="#76A23B" fill-opacity="1.000000" fill-rule="nonzero"/>
	<path id="path" d="M288.31 120.64C271.18 125.32 256.6 127.25 246.75 128.11C256.61 126.64 268.4 124.48 281.54 121.21C297.35 117.28 310.76 112.83 321.31 108.89C313.36 112.45 302.2 116.85 288.31 120.64Z" fill="#76A23B" fill-opacity="1.000000" fill-rule="nonzero"/>
	<g opacity="0.390000">
		<path id="path" d="M94.52 249.27C92.12 249.41 88.92 228.46 87.52 213.81C84.97 187.08 86.09 156.79 89.08 156.58C92.02 156.38 97.03 185.32 97.63 212.2C98 228.36 96.9 249.14 94.52 249.27Z" fill="#53845D" fill-opacity="1.000000" fill-rule="nonzero"/>
	</g>
	<g opacity="0.390000">
		<path id="path" d="M114.22 233.18C111.82 233.11 110.28 211.96 110.05 197.24C109.62 170.38 113.13 140.29 116.13 140.34C119.08 140.38 121.78 169.65 120.26 196.49C119.35 212.63 116.61 233.24 114.22 233.18Z" fill="#53845D" fill-opacity="1.000000" fill-rule="nonzero"/>
	</g>
	<g opacity="0.390000">
		<path id="path" d="M132.47 225.71C130.08 225.44 130.15 204.24 131.04 189.54C132.65 162.73 138.43 133.02 141.42 133.32C144.35 133.61 144.83 162.99 141.28 189.63C139.15 205.64 134.85 225.96 132.47 225.71Z" fill="#53845D" fill-opacity="1.000000" fill-rule="nonzero"/>
	</g>
	<g opacity="0.390000">
		<path id="path" d="M155.22 206.58C153.51 206.15 156.43 188.47 159.05 176.3C163.84 154.09 172.07 129.84 174.2 130.36C176.3 130.87 172.68 155.41 166.5 177.3C162.78 190.45 156.91 207.01 155.22 206.58Z" fill="#53845D" fill-opacity="1.000000" fill-rule="nonzero"/>
	</g>
	<g opacity="0.390000">
		<path id="path" d="M184.26 179.11C181.92 177.95 184.17 165.65 186.55 157.49C190.9 142.58 199.65 127.75 202.57 129.19C205.44 130.6 202.89 147.88 196.65 161.86C192.9 170.26 186.58 180.26 184.26 179.11Z" fill="#53845D" fill-opacity="1.000000" fill-rule="nonzero"/>
	</g>
	<g opacity="0.390000">
		<path id="path" d="M110.84 253.32C110.04 255.67 128.52 264.79 141.68 270.33C165.71 280.43 194.06 287.91 195.1 285C196.12 282.14 170.76 268.97 146.05 260.74C131.2 255.79 111.65 250.99 110.84 253.32Z" fill="#53845D" fill-opacity="1.000000" fill-rule="nonzero"/>
	</g>
	<g opacity="0.390000">
		<path id="path" d="M131.33 238.3C130.71 240.71 149.85 248.23 163.41 252.64C188.16 260.67 217.01 265.72 217.81 262.73C218.6 259.78 192.28 248.81 167 242.71C151.81 239.04 131.94 235.92 131.33 238.3Z" fill="#53845D" fill-opacity="1.000000" fill-rule="nonzero"/>
	</g>
	<g opacity="0.390000">
		<path id="path" d="M143.43 222.29C142.99 224.74 162.64 230.68 176.5 233.97C201.78 239.97 230.92 242.64 231.49 239.59C232.05 236.6 204.98 227.79 179.32 223.77C163.89 221.35 143.86 219.86 143.43 222.29Z" fill="#53845D" fill-opacity="1.000000" fill-rule="nonzero"/>
	</g>
	<g opacity="0.390000">
		<path id="path" d="M167.58 205.11C167.5 206.94 184.68 209.05 196.7 209.89C218.61 211.42 243.39 210.13 243.52 207.86C243.64 205.63 219.9 202.27 197.89 202.2C184.66 202.16 167.66 203.31 167.58 205.11Z" fill="#53845D" fill-opacity="1.000000" fill-rule="nonzero"/>
	</g>
	<g opacity="0.390000">
		<path id="path" d="M201.23 184.05C201.65 186.7 213.67 187.95 221.9 187.9C236.93 187.8 253.14 183.3 252.64 180.01C252.15 176.76 235.43 174.4 220.72 176.63C211.88 177.98 200.83 181.43 201.23 184.05Z" fill="#53845D" fill-opacity="1.000000" fill-rule="nonzero"/>
	</g>
</svg>
