<?xml version="1.0" encoding="UTF-8"?>
<svg id="_Слой_1" data-name="Слой 1" xmlns="http://www.w3.org/2000/svg" width="500" height="500" viewBox="0 0 500 500">
  <defs>
    <style>
      .cls-1 {
        fill: #cccaca;
      }

      .cls-1, .cls-2, .cls-3, .cls-4, .cls-5, .cls-6 {
        opacity: .44;
      }

      .cls-2 {
        fill: #6b6161;
      }

      .cls-3 {
        fill: #efefef;
      }

      .cls-4 {
        fill: #fff;
      }

      .cls-7 {
        fill: #383131;
        stroke: #000;
        stroke-miterlimit: 10;
      }

      .cls-5 {
        fill: #e8e8e8;
      }

      .cls-6 {
        fill: #7c7272;
      }
    </style>
  </defs>
  <path class="cls-7" d="m239.5,21.5c-23.33,5.08-35.68,32.11-50,70-31,82-80,137-82,239-1.35,68.82,75.53,146.6,150,147,87.39.47,150.68-107.81,158-192,7.43-85.41-42.6-147.57-84-199-22.59-28.07-58.24-72.36-92-65Z"/>
  <path class="cls-1" d="m261.5,30.5c28.61,24.1,72.14,67.14,104,133,17.98,37.16,38.4,79.38,34,130-9.15,105.24-118.58,165.76-134,174,18.73-10.66,108.69-64.28,122-161,5.69-41.35-4.8-74.74-14-104-24.38-77.56-70.89-134.16-112-172Z"/>
  <path class="cls-3" d="m252,33c1.94-1.18,20,29,20,29,47.39,79.19,82.49,137.84,86,209,3.49,70.83-25.67,126.54-28,126-2.32-.54,21.69-57.27,18-130-6.61-130.2-98-232.79-96-234Z"/>
  <path class="cls-6" d="m246,42c1.66-.67,48.18,70.72,62,172,17.98,131.79-29.76,238.28-31,238-1.13-.26,37.45-89.47,27-211-10.04-116.77-59.77-198.29-58-199Z"/>
  <path class="cls-5" d="m257,95c-1.3.19,11.35,62.64,15,145,6,135.42-16.57,228.78-15,229,1.64.23,29.05-101.13,21-234-4.65-76.73-19.69-140.19-21-140Z"/>
  <path class="cls-4" d="m244,58c1.59-.05,8.08,97.1,9,210,.86,106.15-3.42,198.02-5,198-1.32-.02-.4-64.66-2-220-1.4-136.1-3.16-187.96-2-188Z"/>
  <path class="cls-1" d="m235,42c-1.62-.29-19.03,59.33-26,133-15.68,165.63,31.41,296.32,33,296,1.35-.27-31.12-94.53-29-234,1.67-109.7,23.93-194.66,22-195Z"/>
  <path class="cls-3" d="m223,40c-.49-.17-9.02,26.2-25,67-35.56,90.77-67.9,150.55-67,151,.77.38,25.48-42.67,50-100,27.05-63.24,42.7-117.76,42-118Z"/>
  <path class="cls-5" d="m224,455c-1.3.75-39.86-42.71-56-104-27.05-102.74,24.95-194.56,27-194,2.05.56-46.36,93.95-17,201,15.57,56.76,47.22,96.29,46,97Z"/>
  <path class="cls-2" d="m214,463c-1,1.04-46.78-26.08-72-79-26.68-55.99-16.54-111.91-15-112,1.51-.09-5.86,53.38,22,111,25.46,52.66,65.96,79.01,65,80Z"/>
</svg>