<?xml version="1.0" standalone="no"?>
<!DOCTYPE svg PUBLIC "-//W3C//DTD SVG 20010904//EN"
 "http://www.w3.org/TR/2001/REC-SVG-20010904/DTD/svg10.dtd">
<svg version="1.0" xmlns="http://www.w3.org/2000/svg"
 width="97.000000pt" height="97.000000pt" viewBox="0 0 97.000000 97.000000"
 preserveAspectRatio="xMidYMid meet">
<metadata>
Created by potrace 1.14, written by Peter Selinger 2001-2017
</metadata>
<g transform="translate(0.000000,97.000000) scale(0.100000,-0.100000)"
fill="#000000" stroke="none">
<path d="M34 924 c-13 -12 -26 -33 -29 -46 -3 -12 -4 -198 -3 -413 3 -371 4
-391 23 -412 26 -31 71 -37 152 -24 38 7 79 14 93 16 14 2 97 16 185 30 88 15
174 29 190 31 17 2 41 6 55 9 14 3 40 7 58 10 44 5 80 30 93 62 6 16 9 138 7
311 l-3 284 -27 23 c-14 12 -48 26 -75 30 -26 5 -52 9 -58 11 -10 2 -65 12
-192 34 -32 5 -69 12 -83 15 -104 21 -319 54 -338 53 -13 -1 -34 -12 -48 -24z"/>
</g>
</svg>
