<svg width="52" height="52" viewBox="0 0 52 52" fill="none" xmlns="http://www.w3.org/2000/svg">
<g id="like 1" clip-path="url(#clip0_132_896)">
<path id="Vector" d="M43.1374 49.806C41.6232 50.6266 40.9691 50.2833 34.7631 50.2215C23.6679 50.1133 20.8558 51.1605 17.6335 48.8395C16.5897 48.0876 15.2164 46.776 14.164 44.3966C14.1331 37.4077 14.1022 30.4206 14.0713 23.4318C15.297 22.479 16.9863 21.1245 18.9314 19.4249C20.6636 17.9124 22.6945 16.1391 24.0267 14.6833C29.8224 8.35022 28.0627 1.80944 31.8687 0.810303C33.6301 0.348501 35.6473 1.22919 36.6121 2.48241C38.2206 4.57339 37.0515 7.90043 35.74 11.6326C35.0103 13.7082 33.8327 16.4 31.867 19.3064C34.255 19.3185 38.5056 19.3322 44.0661 19.3064C47.6696 19.2893 48.6412 19.2704 49.5855 19.9949C50.6292 20.7966 51.9202 22.7262 48.9073 36.0326C46.3648 47.2618 44.7563 48.9288 43.1357 49.8043L43.1374 49.806Z" stroke="#333333" stroke-miterlimit="10"/>
<path id="Vector_2" d="M8.14162 18.6266H7.69527C4.37208 18.6266 1.6781 21.3206 1.6781 24.6438V44.3691C1.6781 47.6923 4.37208 50.3863 7.69527 50.3863H8.14162C11.4648 50.3863 14.1588 47.6923 14.1588 44.3691V24.6438C14.1588 21.3206 11.4648 18.6266 8.14162 18.6266Z" stroke="#333333" stroke-miterlimit="10"/>
</g>
<defs>
<clipPath id="clip0_132_896">
<rect width="51.5021" height="51.5021" fill="white" transform="translate(0.47644)"/>
</clipPath>
</defs>
</svg>
