<svg width="64" height="65" viewBox="0 0 64 65" fill="none" xmlns="http://www.w3.org/2000/svg">
<g id="play 4">
<path id="Vector" d="M32.2214 3.15323C16.2693 3.15323 3.32495 16.0849 3.32495 32.0497C3.32495 48.0144 16.2693 60.9461 32.2214 60.9461C48.1735 60.9461 61.1179 48.0018 61.1179 32.0497C61.1179 16.0976 48.1862 3.15323 32.2214 3.15323ZM32.3356 58.0908C17.9953 58.0908 6.37069 46.4662 6.37069 32.1258C6.37069 17.7855 17.9953 6.1609 32.3356 6.1609C46.676 6.1609 58.3006 17.7855 58.3006 32.1258C58.3006 46.4662 46.676 58.0908 32.3356 58.0908Z" fill="#B3B3B3"/>
<path id="Vector_2" d="M23.9218 17.6205C24.239 25.6029 23.8456 36.466 24.1629 44.4484L47.945 31.4025L23.9218 17.6332V17.6205Z" stroke="#666666" stroke-width="2" stroke-linecap="round" stroke-linejoin="round"/>
</g>
</svg>
