<svg width="64" height="64" viewBox="0 0 64 64" fill="none" xmlns="http://www.w3.org/2000/svg">
<g id="stages 2">
<path id="Vector" d="M9.73152 43.0994C6.34525 43.0994 3.59985 45.8448 3.59985 49.2311C3.59985 52.6174 6.34525 55.3628 9.73152 55.3628C13.1178 55.3628 15.8632 52.6174 15.8632 49.2311C15.8632 45.8448 13.1178 43.0994 9.73152 43.0994ZM9.75479 54.7536C6.71328 54.7536 4.24707 52.2874 4.24707 49.2459C4.24707 46.2044 6.71328 43.7382 9.75479 43.7382C12.7963 43.7382 15.2625 46.2044 15.2625 49.2459C15.2625 52.2874 12.7963 54.7536 9.75479 54.7536Z" fill="#333333"/>
<path id="Vector_2" d="M8.89185 35.9314L2.74749 33.4884C1.7534 33.0929 1.01946 32.1855 0.9412 31.1174C0.936969 31.0476 0.932739 30.9778 0.932739 30.908V15.269C0.932739 14.4187 1.74917 13.7313 2.75384 13.7313H17.0032C18.01 13.7313 18.8243 14.4208 18.8243 15.269V30.908C18.8243 31.0497 18.8138 31.1914 18.7926 31.331C18.6467 32.3061 17.9529 33.1119 17.0392 33.4842L11.0535 35.9229C10.3618 36.2042 9.58772 36.2084 8.89185 35.9314Z" stroke="#333333" stroke-miterlimit="10"/>
<path id="Vector_3" d="M9.83521 36.3628V41.3333" stroke="#333333" stroke-miterlimit="10"/>
<path id="Vector_4" d="M31.5509 43.3279C28.1646 43.3279 25.4192 46.0732 25.4192 49.4595C25.4192 52.8458 28.1646 55.5912 31.5509 55.5912C34.9371 55.5912 37.6825 52.8458 37.6825 49.4595C37.6825 46.0732 34.9371 43.3279 31.5509 43.3279ZM31.5741 54.982C28.5326 54.982 26.0664 52.5158 26.0664 49.4743C26.0664 46.4328 28.5326 43.9666 31.5741 43.9666C34.6156 43.9666 37.0818 46.4328 37.0818 49.4743C37.0818 52.5158 34.6156 54.982 31.5741 54.982Z" fill="#333333"/>
<path id="Vector_5" d="M31.792 36.5913L24.5648 33.7168C23.5707 33.3213 22.8367 32.4139 22.7585 31.3458C22.7542 31.276 22.75 31.2062 22.75 31.1364V15.4974C22.75 14.6471 23.5664 13.9597 24.5711 13.9597H38.8205C39.8273 13.9597 40.6416 14.6492 40.6416 15.4974V31.1364C40.6416 31.2062 40.6395 31.276 40.6331 31.3458C40.5549 32.4097 39.8273 33.315 38.8417 33.7168L31.792 36.5891V36.5913Z" stroke="#333333" stroke-miterlimit="10"/>
<path id="Vector_6" d="M31.6545 36.5912V41.5617" stroke="#333333" stroke-miterlimit="10"/>
<path id="Vector_7" d="M53.3364 43.7509C49.9501 43.7509 47.2047 46.4963 47.2047 49.8825C47.2047 53.2688 49.9501 56.0142 53.3364 56.0142C56.7227 56.0142 59.468 53.2688 59.468 49.8825C59.468 46.4963 56.7227 43.7509 53.3364 43.7509ZM53.3596 55.405C50.3181 55.405 47.8519 52.9388 47.8519 49.8973C47.8519 46.8558 50.3181 44.3896 53.3596 44.3896C56.4012 44.3896 58.8674 46.8558 58.8674 49.8973C58.8674 52.9388 56.4012 55.405 53.3596 55.405Z" fill="#333333"/>
<path id="Vector_8" d="M53.5776 37.0143L46.3503 34.1398C45.3562 33.7443 44.6222 32.8369 44.544 31.7688C44.5398 31.699 44.5355 31.6292 44.5355 31.5594V15.9204C44.5355 15.0701 45.352 14.3827 46.3566 14.3827H60.606C61.6128 14.3827 62.4271 15.0722 62.4271 15.9204V31.5594C62.4271 31.6292 62.425 31.699 62.4187 31.7688C62.3404 32.8327 61.6128 33.738 60.6272 34.1398L53.5776 37.0122V37.0143Z" stroke="#333333" stroke-miterlimit="10"/>
<path id="Vector_9" d="M53.4401 37.0143V41.9848" stroke="#333333" stroke-miterlimit="10"/>
<path id="Vector_10" d="M20.5693 46.4645C18.8899 46.4645 17.5299 47.8245 17.5299 49.5039C17.5299 51.1833 18.8899 52.5433 20.5693 52.5433C22.2487 52.5433 23.6087 51.1833 23.6087 49.5039C23.6087 47.8245 22.2487 46.4645 20.5693 46.4645ZM20.582 52.243C19.0739 52.243 17.8514 51.0205 17.8514 49.5124C17.8514 48.0043 19.0739 46.7818 20.582 46.7818C22.0901 46.7818 23.3126 48.0043 23.3126 49.5124C23.3126 51.0205 22.0901 52.243 20.582 52.243Z" fill="#333333" stroke="#333333" stroke-miterlimit="10"/>
<path id="Vector_11" d="M42.4839 46.382C40.8045 46.382 39.4445 47.7421 39.4445 49.4214C39.4445 51.1008 40.8045 52.4608 42.4839 52.4608C44.1632 52.4608 45.5232 51.1008 45.5232 49.4214C45.5232 47.7421 44.1632 46.382 42.4839 46.382ZM42.4965 52.1605C40.9885 52.1605 39.766 50.938 39.766 49.4299C39.766 47.9218 40.9885 46.6993 42.4965 46.6993C44.0046 46.6993 45.2271 47.9218 45.2271 49.4299C45.2271 50.938 44.0046 52.1605 42.4965 52.1605Z" fill="#333333" stroke="#333333" stroke-miterlimit="10"/>
<path id="Vector_12" d="M15.8633 49.2099H17.5554" stroke="#333333" stroke-miterlimit="10"/>
<path id="Vector_13" d="M23.6594 49.4214H25.5926" stroke="#333333" stroke-miterlimit="10"/>
<path id="Vector_14" d="M37.8602 49.5674H39.4508" stroke="#333333" stroke-miterlimit="10"/>
<path id="Vector_15" d="M45.6354 49.5674H47.2238" stroke="#333333" stroke-miterlimit="10"/>
<path id="Vector_16" d="M8.9088 20.4277H8.87073L6.68583 21.6058L6.36011 20.3113L9.10762 18.8456H10.5522V31.4262H8.91092V20.4256L8.9088 20.4277Z" fill="#1A1A1A"/>
<path id="Vector_17" d="M27.4646 31.4283V30.3919L28.8013 29.0954C32.0121 26.0327 33.4757 24.3999 33.4842 22.5026C33.4842 21.2251 32.8771 20.0406 31.0053 20.0406C29.8568 20.0406 28.9134 20.6307 28.3297 21.1045L27.7882 19.9137C28.6491 19.184 29.897 18.6341 31.3458 18.6341C34.051 18.6341 35.1889 20.4933 35.1889 22.2848C35.1889 24.6219 33.5053 26.498 30.8572 29.0404L29.861 29.9816V30.0197H35.4977V31.4304H27.4646V31.4283Z" fill="#1A1A1A"/>
<path id="Vector_18" d="M50.0876 29.4824C50.5677 29.7828 51.6866 30.2629 52.8795 30.2629C55.0538 30.2629 55.7349 28.8796 55.7264 27.8263C55.7053 26.0581 54.1105 25.3093 52.4713 25.3093H51.5195V24.0318H52.4734C53.7108 24.0318 55.2781 23.3931 55.2781 21.9083C55.2781 20.8972 54.6351 20.011 53.0657 20.011C52.0673 20.011 51.0944 20.4531 50.555 20.8401L50.0982 19.6091C50.7581 19.1206 52.0377 18.6362 53.3893 18.6362C55.8787 18.6362 57.0061 20.102 57.0061 21.6418C57.0061 22.9425 56.2129 24.0445 54.6837 24.605V24.6431C56.232 24.9392 57.4799 26.111 57.4799 27.8686C57.4799 29.8779 55.9041 31.6419 52.8901 31.6419C51.4772 31.6419 50.2441 31.2041 49.6307 30.7832L50.0855 29.4845L50.0876 29.4824Z" fill="#1A1A1A"/>
</g>
</svg>
