<?xml version="1.0" encoding="UTF-8"?>
<svg id="_Слой_1" data-name="Слой 1" xmlns="http://www.w3.org/2000/svg" xmlns:xlink="http://www.w3.org/1999/xlink" viewBox="0 0 300 300">
  <defs>
    <style>
      .cls-1 {
        fill: url(#_Безымянный_градиент_24);
      }
    </style>
    <linearGradient id="_Безымянный_градиент_24" data-name="Безымянный градиент 24" x1="137.35" y1="295" x2="137.35" y2="6" gradientTransform="translate(289.29) rotate(-180) scale(1 -1)" gradientUnits="userSpaceOnUse">
      <stop offset="0" stop-color="#009ee2"/>
      <stop offset=".08" stop-color="#08a0d0"/>
      <stop offset=".25" stop-color="#1aa5ae"/>
      <stop offset=".43" stop-color="#27a994"/>
      <stop offset=".61" stop-color="#31ab81"/>
      <stop offset=".8" stop-color="#37ad75"/>
      <stop offset="1" stop-color="#39ae72"/>
    </linearGradient>
  </defs>
  <path class="cls-1" d="m9.11,159.18c3.83,74.54,56.28,132.9,121.85,135.72,9.5.41,18.79-.38,27.75-2.23,6.05-1.24,11.95-2.98,17.67-5.18,9.51-6.56,15.9-18.72,15.9-32.62,0-20.9-14.43-37.85-32.25-37.85-.79,0-1.55.02-2.32.11-3.65,1.54-7.46,2.73-11.39,3.49-3.41.64-6.91.99-10.48.99-36.1,0-65.05-34.85-62.29-76.6,2.3-34.9,26.28-62.45,56.93-65.35,27.26-2.59,51.23,14.75,61.92,40.62-21.16,7.95-31.99,16.62-32.49,25.99-.78,14.66,23.73,31.06,73.52,49.2,5.03,1.83,10.54.68,14.67-3.06,34.71-31.41,52.37-61.63,45.4-76.99-1.36-2.99-7.42-13.74-37.71-12.43-3.53-11.56-8.32-22.45-14.19-32.48-9.75-16.65-22.45-30.87-37.26-41.7-19.75-14.43-43.25-22.8-68.48-22.8-72.64,0-131.05,69.45-126.74,153.18Z"/>
</svg>