<?xml version="1.0" encoding="utf-8"?>
<!-- Generator: Adobe Illustrator 27.1.1, SVG Export Plug-In . SVG Version: 6.00 Build 0)  -->
<svg version="1.1" id="Слой_1" xmlns="http://www.w3.org/2000/svg" xmlns:xlink="http://www.w3.org/1999/xlink" x="0px" y="0px"
	 viewBox="0 0 40 40" style="enable-background:new 0 0 40 40;" xml:space="preserve">
<style type="text/css">
	.st0{fill:none;stroke:#39AE72;stroke-width:2;stroke-linecap:round;stroke-linejoin:round;}
	.st1{fill:none;stroke:#009EE2;stroke-width:2;stroke-linecap:round;stroke-linejoin:round;}
</style>
<g>
	<path class="st0" d="M3.3,11.2c0-0.9,0.2-4.5,3.2-7.3c3.5-3.2,8.2-3,9.7-2.9c1.4,0.1,5.1,0.3,8,2.9c3.7,3.4,3.2,8.2,3.1,8.8
		c-0.4,3.3-2.7,6.2-4.7,8.7c-1.2,1.3-2.2,2.3-3.2,4.4c-0.5,1-0.6,1.4-1.6,4.4c-2,5.8-2.3,6.6-3.2,7.3c-2,1.6-4.5,1.5-4.8,1.4
		c-4-0.2-6.2-4-6.4-4.4c-1.9-3.4-0.2-6.8,0-7.3"/>
	<path class="st0" d="M12.9,20c-1.4,0-3.4-0.2-4.8-1.4c-2.9-2.7-1.4-9.2,3.2-11.7c3.3-1.8,8.9-1.8,11.2,1.5c2.3,3.1,0.1,7.1,0,7.3"
		/>
	<path class="st0" d="M11.3,11.2c0.6-0.2,2.3-0.8,4.1-0.2c1.9,0.6,3.1,2.3,3.5,3.7c0.9,3.6-3.7,4.7-4.9,10.8c-0.3,1.4-0.4,3.3-2,4.5
		c-0.2,0.2-1.4,1-2.7,0.8c-1.7-0.3-3-2.3-2.9-4.9"/>
	<path class="st1" d="M33.2,14.1c0.4-0.8,1-2.5,0.7-4.6c-0.3-3-2.1-4.9-2.7-5.5"/>
	<path class="st1" d="M34.9,1.5c1,0.9,3,3,3.8,6.3c1.2,4.9-1.3,8.7-1.9,9.6"/>
</g>
</svg>
