<?xml version="1.0" encoding="UTF-8"?>
<svg id="_Слой_1" data-name="Слой 1" xmlns="http://www.w3.org/2000/svg" viewBox="0 0 500 500">
  <defs>
    <style>
      .cls-1 {
        fill: #a7ad53;
        stroke: #42210b;
      }

      .cls-1, .cls-2, .cls-3, .cls-4, .cls-5 {
        stroke-miterlimit: 10;
      }

      .cls-2 {
        fill: #f9debd;
      }

      .cls-2, .cls-4, .cls-5 {
        stroke: #754c24;
      }

      .cls-6 {
        fill: #fff;
      }

      .cls-7, .cls-8, .cls-9 {
        opacity: .88;
      }

      .cls-8, .cls-10, .cls-11 {
        fill: #edbf7e;
      }

      .cls-12 {
        fill: #cf9d82;
      }

      .cls-13 {
        stroke: #000;
        stroke-linecap: round;
        stroke-linejoin: round;
      }

      .cls-3 {
        fill: #fff2e1;
        stroke: #8c6239;
      }

      .cls-14, .cls-15 {
        fill: #ccbbb6;
      }

      .cls-15, .cls-10, .cls-16, .cls-17, .cls-18 {
        opacity: .57;
      }

      .cls-19 {
        fill: #ffb3b3;
      }

      .cls-20 {
        opacity: .44;
      }

      .cls-21 {
        fill: #a76453;
      }

      .cls-22 {
        opacity: .38;
      }

      .cls-4 {
        fill: #fce7cd;
        stroke-width: .5px;
      }

      .cls-9 {
        fill: #b76042;
      }

      .cls-17 {
        fill: #6b4b3e;
      }

      .cls-23 {
        fill: #ffff2c;
      }

      .cls-24 {
        opacity: .46;
      }

      .cls-18 {
        fill: #49352e;
      }

      .cls-5 {
        fill: #fff7e9;
      }
    </style>
  </defs>
  <g>
    <path class="cls-3" d="m225.04,343.55c-23.47,2.88-58.99,8.75-100.6,22.01-48.64,15.49-107.92,34.37-107.94,57.64-.02,30.34,100.75,52.83,142.52,59.73,58.22,9.63,131.12,10.38,134.14-4.19,1.9-9.17-24.46-21.77-29.34-24.1-28.05-13.4-45.58-7.91-93.27-14.67-26.99-3.83-54.46-7.72-55.54-16.77-1.16-9.72,28.65-20.94,48.21-28.29,27.37-10.3,51.27-15.24,68.12-17.82"/>
    <g>
      <path class="cls-17" d="m292.79,477.33c-1.96,9.5-33.72,12.49-71.73,10.73-3.93-.18-7.93-.41-11.98-.69-.56-6.46.07-12.9,2.34-19.11,1.3-3.58,3.03-6.76,5-9.59,4.45-6.4,10.12-11.02,14.88-14.56,10.84,1.28,20.6,3.59,32.15,9.12,4.88,2.33,31.25,14.92,29.34,24.1Z"/>
      <path class="cls-17" d="m142.88,401.32c-6.29,2.65-12.36,5.47-17.25,8.35-10.02-6.29-25.82-13.74-44.16-17.91-9.92-2.26-18.61-3.1-25.94-3.34,19.65-8.61,43.93-16.42,66.23-23.52,4.42,2.76,8.68,6.38,12.1,11.14,6.85,9.53,6.36,18,9.01,25.28Z"/>
      <path class="cls-17" d="m130.22,431.48c-10.85,2.05-22.41,5.4-34.08,10.58-12.43,5.52-21.92,11.78-30.72,16.18-23.7-8.55-43.16-18.95-48.08-30.68,12.69-9.55,39.92-15.65,63.08-15.89,14.71-.16,27.25,2.06,36.75,4.33-1.81,1.96-2.76,3.91-2.54,5.8.49,4.16,6.56,7.22,15.58,9.68Z"/>
      <path class="cls-17" d="m169.5,461.97c-2.2,7.95,1.02,15.27,4.33,21.82-5.12-.69-10.21-1.45-15.17-2.26-8.86-1.47-20.37-3.64-33.02-6.42.21-9.14,3.41-18.23,8.24-24.66,5.33-7.11,13.06-11.45,21.21-14.09,4.93.76,10.03,1.49,15.1,2.21,7.79,1.1,14.77,1.88,21.12,2.46-10.55,4.91-19.29,11.87-21.8,20.95Z"/>
    </g>
    <g class="cls-7">
      <g>
        <g class="cls-16">
          <path class="cls-11" d="m142.01,403.29c-.52.22-1.05.44-1.56.66-12.99-7.91-30.53-16.26-45.88-22.14-3.09-1.18-6.13-2.28-9.09-3.29,11.72-4.09,23.83-7.96,35.41-11.64,4.42,2.76,8.68,6.38,12.1,11.14,6.85,9.53,6.36,18,9.01,25.28Z"/>
        </g>
        <path class="cls-10" d="m114.17,425.19c-10.48.15-22.64.84-36.36,2.72-14.61,2.01-37.32,6.25-52.93,12.07-3.98-3.34-6.89-6.84-8.39-10.46,12.69-9.55,39.92-15.65,63.08-15.89,9.99-.1,18.98.88,26.69,2.23h.01s7.66,6.02,7.66,6.02c-.17.64-.22,1.26-.15,1.88.06.49.2.96.4,1.43Z"/>
        <g class="cls-16">
          <path class="cls-11" d="m113.92,421.89l-7.66-6c3.65.64,7,1.36,10.05,2.09-1.22,1.32-2.04,2.63-2.39,3.92Z"/>
        </g>
        <g class="cls-16">
          <path class="cls-11" d="m170.02,440.62c-6.02,3.29-11.31,7.58-15.25,13.25-.53.75-1.04,1.53-1.52,2.34-5.3,8.94-5.5,17.73-4.59,25.69-7.11-1.29-15.24-2.91-23.9-4.82.21-9.14,3.41-18.23,8.24-24.66,2.57-3.42,5.68-6.19,9.13-8.45,3.73-2.44,7.85-4.28,12.08-5.65,4.93.76,10.03,1.49,15.1,2.21.24.03.47.06.71.09Z"/>
        </g>
      </g>
    </g>
    <path class="cls-8" d="m258.24,453.24c-6.64,3.71-13.55,8.86-19.05,16.59-4.62,6.5-7.37,13.55-8.91,20.56-3.3-.07-6.66-.2-10.09-.36-3.93-.18-7.93-.41-11.98-.69-.56-6.46.07-12.9,2.34-19.11,1.3-3.58,3.03-6.76,5-9.59,4.45-6.4,10.12-11.02,14.88-14.56,9.45,1.11,18.1,3.02,27.81,7.16Z"/>
  </g>
  <path class="cls-3" d="m274.3,167.5c-14.14-15.39-42.85-9.59-48.21-8.38-35.55,8.01-62.51,43.63-71.26,77.55-9.25,35.85,7.91,46.24-2.1,103.75-2.37,13.61-4.71,20.96-3.14,33.53,2.67,21.47,15.78,51.66,40.87,60.78,4.47,1.63,9.74,2.73,68.12-10.48,32.36-7.33,35.27-8.69,38.77-11.53,24.87-20.14,27.36-72.05,5.24-94.32-15.11-15.21-33.54-8.36-40.87-23.05-6.12-12.25,4.23-22.3,12.58-53.45,6.28-23.44,15.44-57.61,0-74.4Z"/>
  <path class="cls-8" d="m283.59,304.46c-26.22,12.65-65.4,26.17-109.66,29.4-7.14.52-13.56.72-19.35.79,2.14-14.73,2.54-26.37,2.14-36.2,15.03-.64,37.9-2.8,73.34-7.24,14.94-1.87,27.54-3.58,38.1-5.06.06,2.62.66,5.14,1.96,7.75,3.02,6.05,7.8,8.69,13.46,10.57Z"/>
  <path class="cls-8" d="m276.1,250.79c-3.28,10.65-6.61,18.67-9.12,25.21-11.94-.19-23.09-3.18-30.94-6.58-17.57-7.61-37.75-28.17-33.68-35.92,2.16-4.11,10.65-3.7,11.67-3.65,7.49.36,10.24,5.01,18.86,7.34,5.41,1.46,10.17,1.21,13.25.8-3.63-2.52-36.09-25.18-43.64-37.48-.35-.58-4.09-6.72-8.74-15.03-1.66-2.97-2.99-5.41-3.83-6.97.29-.39,3.75-4.76,9.23-4.39,3.42.23,5.7,2.18,6.42,2.86l70.51,73.82Z"/>
  <path class="cls-3" d="m191.14,435.3c-1.05-5.05,13.11-10.57,16.01-11.7,5.99-2.34,13.99-4.47,38.46-4.82,30.96-.44,36.39,2.71,38.55,4.14,7.99,5.29,13.95,15.3,10.42,20.8-1.14,1.77-3.91,4.08-26.81,4.28-15.36.14-32.29-.74-54.28-4.93-19.89-3.79-22.01-6.11-22.35-7.77Z"/>
  <path class="cls-9" d="m299.26,364.98c-12.18-.86-23.36-2.81-33.36-5.27-3.5-8.94-8.96-23.73-13.81-40.59,13.58,9.12,28.24,15.24,42.49,19.44.41.99.79,2,1.14,3.05.35,1.01,3.92,11.86,3.53,23.37Z"/>
  <g>
    <path class="cls-17" d="m290.32,310.76c-14.13,5.46-27.94,14.01-38.03,27.55-15.42,20.7-9.04,35.49-25.15,58.68-8.93,12.86-24.43,27.78-42.02,35.96-21.83-11.06-33.37-38.61-35.85-58.6-1.56-12.56.78-19.92,3.14-33.53.42-2.42.8-4.76,1.12-7.01,5.41-.06,11.4-.25,18.07-.73,41.31-3.02,77.88-15.64,102.36-27.45,4.95,1.66,10.63,2.68,16.36,5.13Z"/>
    <path class="cls-17" d="m263.35,273.19c-2.35,6.15-3.91,10.9-3.79,15.33-9.86,1.38-21.62,2.98-35.57,4.73-33.08,4.15-54.43,6.16-68.46,6.76-1.01-25.16-7.52-37.79-1.03-62.94,5.47-21.18,18.04-43.02,35.36-58.39,3.2,7.12,7.93,15.81,16.32,25.5,18.45,21.29,39.44,29.86,37.73,33.53-2.22,4.76-36.52-11.23-40.87-4.19-3.38,5.48,11.45,24.87,31.44,33.53,7.33,3.18,17.73,5.96,28.88,6.14Z"/>
    <path class="cls-17" d="m273.97,242.31c-.69,2.59-1.4,5.03-2.11,7.35l-65.82-68.91-8.11-8.49c8.45-6,17.79-10.47,27.83-12.73,5.35-1.21,34.07-7,48.21,8.38,2.45,2.67,4.29,5.77,5.61,9.21,7,18.17-.31,45.48-5.61,65.19Z"/>
  </g>
  <path class="cls-3" d="m349.75,278.58c9.76,7.18,1.36,26.79,1.57,72.83.02,4.62.87,13.71,1.66,21.86.72,7.51.32,1.69,1.49,11.67,1.13,9.73,1.03,12.16,3.14,13.62,2.84,1.97,5.36-.15,11.53,1.05,2.13.41,9.38,1.83,12.58,7.34,2.98,5.14,1.23,11.78-1.05,15.72-7.08,12.23-26.33,10.57-27.25,10.48-11.59-1.16-19.52-8.11-22.01-10.48-15.39-14.68-8.87-32.13-14.67-80.69-3.95-33.05-9.13-43.05-1.05-53.45,8.21-10.56,25.81-16.02,34.06-9.96Z"/>
  <path class="cls-3" d="m357.61,106.19c-23.6-11.49-61.6,1.38-86.98,34.58-32.7,62.93-31.26,111.4-28.29,135.18,4.93,39.5,23.17,83.82,26.2,91.17,16.1,39.12,24.15,41.65,28.29,68.12,3.96,25.27.56,48.05,14.67,56.59,3.91,2.36,10.58,4.5,17.82,3.14,6.19-1.16,13.84-5.07,16.77-11.53,4.33-9.55-4.23-18.97-10.48-33.53-7.01-16.34-6.77-31.85-6.29-62.88.36-23.56.6-39.11,7.34-58.68,1.94-5.63,8.63-19.47,22.01-47.16,7.33-15.17,10.07-20.38,13.62-30.39,5.06-14.22,8.21-28.1,9.43-33.53,0,0,1.98-8.81,3.14-15.72,2.41-14.32,7.12-78.62-27.25-95.36Z"/>
  <path class="cls-17" d="m344.51,177.98c-4.24,20.82-24.28,19.76-35.63,48.21-13.08,32.78,2.65,61.48-12.58,71.26-10.32,6.62-24.46-2.13-27.25,3.14-3.33,6.29,17.92,16.64,26.2,40.87.56,1.62,9.43,28.65-3.14,42.97-3.1,3.52-7.34,6.1-12.2,7.83-3.24-6.39-6.98-14.25-11.3-24.75-3.02-7.35-21.26-51.67-26.2-91.17-2.97-23.79-4.4-72.26,28.29-135.18,11.4-14.91,25.34-25.72,39.38-32.07,20.9,14.38,39.1,45.93,34.41,68.9Z"/>
  <path class="cls-8" d="m303.95,280.85c-12.75-4.41-26.92-9.86-41.71-16.42-7.81-3.46-14.7-6.75-20.77-9.71-.09-10.81.72-23.74,3.38-38.44,7.97,10.01,17.3,20.06,27.86,29.29,10.37,9.06,20.98,16.49,31.07,22.57.14,4.62.3,8.89.16,12.71Z"/>
  <g class="cls-22">
    <g>
      <path class="cls-18" d="m217.41,217.13c-3.41,5.29-6.41,10.86-9.1,16.59-2.31.03-4.02.57-4.8,1.81-.91,1.48-.5,3.96.97,6.98-7.13,17.61-11.64,36.09-15.6,52.31-.38,1.56-.75,3.12-1.11,4.68-13.48,1.38-23.8,2.18-31.76,2.52-1.01-25.16-7.53-37.79-1.03-62.94,5.47-21.18,18.04-43.02,35.35-58.39,3.2,7.12,7.94,15.81,16.33,25.5,3.55,4.1,7.19,7.72,10.75,10.94Z"/>
      <path class="cls-18" d="m278.11,175c-7.36,1.39-15.25,3.78-23.2,7.69-11.15,5.48-20.28,12.9-27.85,21.57l-20.53-21.5-8.11-8.49c8.45-6,17.78-10.47,27.83-12.73,5.34-1.21,34.07-7,48.21,8.38,1.43,1.55,2.64,3.25,3.66,5.08Z"/>
      <path class="cls-18" d="m184.28,434.26c-20.98-11.48-32.1-38.31-34.53-57.9-1.56-12.56.76-19.92,3.14-33.53.42-2.42.8-4.76,1.12-7.01,5.41-.06,11.4-.25,18.07-.73,3.26-.24,6.5-.53,9.69-.89-4.34,36.28-2.38,70.22,2.5,100.07Z"/>
    </g>
  </g>
  <path class="cls-8" d="m315.56,214.45c-1.94,2.87-3.78,6.18-5.45,10.07-11.21-8.46-23.59-18.04-36.34-28.2-7.36-5.86-13.82-11.11-19.52-15.78,4.08-11.86,9.36-24.47,16.16-37.73,6.26,14.62,14.48,30.33,25.37,46.17,6.47,9.41,13.2,17.91,19.79,25.47Z"/>
  <path class="cls-5" d="m343.98,55.89c-5.01-.23-6.3,1.12-34.58,12.58-26.57,10.76-25.69,9.67-28.29,11.53-19.2,13.66-28.52,45.2-19.91,71.26,1.73,5.23,8.08,24.46,26.2,32.49,11.94,5.29,22.93,3.03,36.68,0,23.29-5.13,48.39-10.65,60.78-33.53,13.55-25.02,1.87-52.24,0-56.59-.72-1.67-16.21-36.6-40.87-37.73Z"/>
  <path class="cls-2" d="m341.89,178.5c.17,3.3,8.57,6.5,15.72,5.24,10.35-1.82,16.61-12.72,14.67-15.72-3.07-4.76-30.7,4.39-30.39,10.48Z"/>
  <path class="cls-4" d="m337.17,124.53c-5.46,5-.54,12.74-2.62,25.67-2.56,15.87-12.55,20.52-9.43,27.25,2.63,5.68,11.92,7.76,18.86,6.29,8.04-1.7,14.47-8.47,16.24-17.29.54.69,6.25,7.77,13.1,6.81,8.66-1.22,13.62-14.51,10.48-22.01-2.73-6.52-9.65-3.95-19.91-12.58-9.09-7.64-9.38-15.51-16.77-16.77-3.08-.52-7.19.09-9.96,2.62Z"/>
  <path class="cls-17" d="m318.31,130.82c-2.88,5.04-6.62,9.12-6.62,9.12-2.55,2.74-5.41,5.19-8.52,7.38-11.89,5.85-23.79,11.7-35.68,17.55-1.44-2.31-20.36-33.73-6.29-61.83,3.82-7.63,12.67-19.03,24.1-25.15,1.43-.77,3.39-1.71,4.19-2.1,9.91-4.77,18.33-7.68,24.1-9.43,9.58,31.79,8.95,57.02,4.72,64.45Z"/>
  <path class="cls-17" d="m391.14,114.58c-9.88-2.66-22.07-6.97-35.11-14.15-19.93-10.98-33.76-24.22-42.44-34.06,5.34-2.77,19.33-9.06,35.63-5.24,21.94,5.15,39.03,26.49,41.92,53.45Z"/>
  <path class="cls-5" d="m332.98,72.13c-1.38,3.33-4.31,9.84-6.29,9.43-1.92-.39-2.05-7.08-2.1-9.43-.42-21.17,15.77-69.16,29.34-67.07,6.73,1.04,9.87,13.94,13.62,29.34,1.01,4.14,7.76,31.85,0,35.63-6.57,3.2-17.83-13.55-26.2-9.43-2.11,1.04-5.25,4-8.38,11.53Z"/>
  <path class="cls-5" d="m296.83,89.43c1.24-2.32-4.25-7.53-5.24-8.38-16.29-14.01-54.1-28.46-64.97-15.72-15.57,18.24,32.82,81.97,37.73,79.64,2.86-1.36-14.09-30.54-2.1-45.06,3.2-3.88,10.16-8.76,18.34-9.96,8.31-1.21,15,1.8,16.24-.52Z"/>
  <path class="cls-19" d="m329.31,81.04c-2.29-1.11,3.84-16.02,10.48-37.73,7.09-23.19,9.51-34.63,13.62-34.58,2.45.03,4.2,4.14,7.34,11.53,3.17,7.46,4.9,14.55,6.29,24.1,2.31,15.83,3.54,24.33,0,26.2-3.88,2.05-8.37-6.55-16.77-6.29-11.77.36-18.49,17.97-20.96,16.77Z"/>
  <path class="cls-19" d="m293.68,90.47c1.64-4.43-21.54-18.28-47.16-23.05-9.63-1.8-13.52-1.27-15.72,1.05-5.47,5.76,1.15,20.81,6.29,32.49.75,1.7,4.11,9.23,10.48,18.86.85,1.28,14.41,21.65,17.82,19.91,2.4-1.23-5.28-12.38-2.1-27.25.6-2.81,2.68-12.52,10.48-17.82,9.16-6.22,18.87-1.37,19.91-4.19Z"/>
  <path class="cls-8" d="m267.48,164.88c.97,6.68,11.82,11.16,19.91,11.53.87.04,13.03.42,19.39-7.86,3.73-4.85,1.2-7.12,4.72-14.15,5.12-10.21,12.62-9.72,14.67-17.82.76-2.99-.14-3.55-2.62-15.2-3.44-16.14-2.77-20.31-5.24-20.96-1.8-.47-4.16.72-17.82,18.86-10.32,13.72-8.93,15.55-15.72,24.1-10.89,13.74-18.12,15.75-17.29,21.48Z"/>
  <path class="cls-8" d="m341.36,89.95c-1.74,5.18,8,12.68,14.67,17.82,1.99,1.53,27.49,20.91,35.11,14.15,4.6-4.09,1.35-16.57-4.19-24.1-6.09-8.28-14.89-10.52-18.86-11.53-10.2-2.59-24.84-1.95-26.72,3.67Z"/>
  <g>
    <path class="cls-1" d="m357.61,119.82c-.49-1.63-2.09-7.67,1.05-13.62,2.34-4.43,7.92-9.97,12.58-8.38,4.19,1.43,5.37,7.86,5.24,11.53-.04,1.26-.29,8.42-6.29,11.53-3.89,2.02-8.74,1.58-12.58-1.05Z"/>
    <path class="cls-1" d="m326.17,136.58c-.22-.9-2.08-8.02-8.38-10.48-7.46-2.91-14.53,3.28-16.77,5.24-2.06,1.8-4.24,3.71-4.19,6.29.08,4.19,6.03,7.58,10.48,8.38,10.17,1.83,18.38-8.79,18.86-9.43Z"/>
  </g>
  <g class="cls-24">
    <circle class="cls-23" cx="312.55" cy="135.54" r="9.43"/>
    <ellipse class="cls-23" cx="366.51" cy="110.38" rx="7.86" ry="9.43"/>
  </g>
  <g>
    <path class="cls-13" d="m309.93,125.58c.04,2.88.42,6.98,2.1,11.53,1.2,3.27,3.36,7.59,4.19,7.34.84-.26.31-5.25-1.05-9.43-1.39-4.27-3.57-7.41-5.24-9.43Z"/>
    <path class="cls-13" d="m371.75,118.24c-1.58-1.5-3.47-3.56-5.24-6.29-2.13-3.28-3.34-6.38-4.05-8.71,1.57,1.14,4.07,3.24,6.15,6.62,2.06,3.34,2.83,6.48,3.14,8.38Z"/>
  </g>
  <g>
    <path class="cls-6" d="m310.45,140.78c.14-.07-2.49-3.13-2.1-7.34.27-2.82,1.75-4.6,1.05-5.24-.57-.52-2.34-.05-3.14,1.05-2.39,3.25,3.96,11.65,4.19,11.53Z"/>
    <path class="cls-6" d="m366.03,101.14c-.35.78,3.02,2.03,5.37,5.91,1.97,3.25,1.79,5.98,2.05,5.94.46-.06,1.43-8.38-2.77-11.24-1.84-1.25-4.37-1.23-4.65-.61Z"/>
  </g>
  <g>
    <g>
      <path class="cls-21" d="m345.03,158.59c.16-4.24,15.75-9.3,18.86-5.24,1.64,2.14-.31,6.67-1.05,8.38-.91,2.1-1.63,3.78-3.14,4.19-2.17.59-3.03-2.25-7.34-3.14-2.42-.5-3.61.09-5.24-1.05-.84-.59-2.14-1.89-2.1-3.14Z"/>
      <path class="cls-12" d="m343.98,159.64c1.12,2.12,4.71,2.1,5.24,2.1,3.34-.02,4.92-2.03,6.29-1.05.64.46,1.55,1.8,2.08,3.1.01.03.02.04.02.04.06.14.95,2.15,2.1,2.1,1.35-.06,2.04-2.92,2.1-3.14.73-3.09-1.06-4.66,0-6.29.86-1.32,2.35-.79,3.14-2.1.93-1.54.01-4.14-1.05-5.24-2.51-2.59-9.62-.67-17.82,4.19-2.14,2.03-2.98,4.63-2.1,6.29Z"/>
    </g>
    <g class="cls-20">
      <path class="cls-6" d="m358.66,165.93c-.21.09-.7-3.05-3.14-4.19-2.05-.95-3.25.54-6.29,0-3.11-.55-5.42-2.76-5.24-3.14.15-.32,1.97.79,5.24,1.05,3.63.29,4.58-.82,6.29,0,2.92,1.39,3.4,6.18,3.14,6.29Z"/>
      <path class="cls-6" d="m361.8,162.78c-.27.04-2-6.27,0-8.38.36-.38,1.08-.88,2.1-2.1.57-.68.84-1.12,1.05-1.05.3.1.36,1.2,0,2.1-.46,1.17-1.43,1.52-2.1,2.1-2.44,2.12-.8,7.3-1.05,7.34Z"/>
    </g>
  </g>
  <path class="cls-15" d="m310.97,474.55c.74,1.49,5.51-1.11,15.72-1.05,9.63.06,14,2.42,14.67,1.05.98-2.01-6.65-10.71-15.72-10.48-8.65.22-15.68,8.46-14.67,10.48Z"/>
  <path class="cls-14" d="m356.56,417.43c5.94-4.19,11.88-8.38,17.82-12.58-5.33-4.8-13.02-4.29-16.77,0-2.78,3.17-3.21,8.22-1.05,12.58Z"/>
  <path class="cls-14" d="m229.76,421.62c.1,1.91,15.65-1.49,37.73,6.29,16.63,5.86,26.79,14.48,28.29,12.58,1.21-1.54-4.45-8.36-9.43-12.58-1.9-1.61-6.2-4.95-12.58-7.34-18.88-7.07-44.14-1.38-44.01,1.05Z"/>
</svg>