<?xml version="1.0" encoding="utf-8"?>
<!-- Generator: Adobe Illustrator 27.1.1, SVG Export Plug-In . SVG Version: 6.00 Build 0)  -->
<svg version="1.1" id="_Слой_1" xmlns="http://www.w3.org/2000/svg" xmlns:xlink="http://www.w3.org/1999/xlink" x="0px"
	 y="0px" viewBox="0 0 162 145.1" style="enable-background:new 0 0 162 145.1;" xml:space="preserve">
<style type="text/css">
	.st0{fill:#F08630;stroke:#1D1D1B;stroke-miterlimit:10;}
	.st1{fill:#F8F7D7;stroke:#1D1D1B;stroke-miterlimit:10;}
	.st2{fill:#F08630;}
	.st3{fill:#FFFFFF;stroke:#1D1D1B;stroke-miterlimit:10;}
	.st4{fill:#FCCC7E;stroke:#1D1D1B;stroke-miterlimit:10;}
	.st5{fill:#FFB3F1;stroke:#1D1D1B;stroke-miterlimit:10;}
	.st6{fill:#FCF3CC;stroke:#1D1D1B;stroke-miterlimit:10;}
	.st7{fill:url(#SVGID_1_);stroke:#1D1D1B;stroke-miterlimit:10;}
	.st8{fill:#C86C25;}
	.st9{fill:#B7CCD1;}
	.st10{fill:#FFFFFD;stroke:#1D1D1B;stroke-miterlimit:10;}
	.st11{fill:#C9590D;}
	.st12{fill:#F08630;stroke:#1D1D1B;stroke-linecap:round;stroke-linejoin:round;}
	.st13{fill:#FFFFFF;stroke:#1D1D1B;stroke-width:0.5;stroke-miterlimit:10;}
	.st14{fill:#FFFFFF;}
</style>
<g>
	<path class="st0" d="M61.5,129c-24.3-30.4-22-74.1,4.4-100.7c24.7-24.9,64.7-29.1,95.1-9.3c-8.1,3.9-19.8,11.1-24.6,23.8
		c-5.1,13.5,1.3,23.5,0.5,33.9c-0.6,7.5-5.1,16.6-19.3,26.7C106.2,111.4,88.5,120,61.5,129z"/>
	<g>
		<g>
			<g>
				<path class="st0" d="M56.2,110.5c0.2-0.3,0.3-0.6,0.5-0.9c0.4,6.9,1,12.8,6.1,17.8c0.2-0.9,0.8-1.7,0.9-2.6
					c7.3,7.9-11.6,6.3,9,14.1c-0.6-11.2,22.9,4.6,14.6-13c7.1,3.9,3.7-4.2,2.3-8c0.5,0.1,1.4,0,1.7,0.1c-1.7-2.4-3.6-5.4-4.3-8.3
					c0.9,0.6,2,1.1,3.1,1.3c-1.9-2.3-11.9-9.9-13.1-5.8c1.2-4.9-1.5-5.6-5.3-3.9c0.7-5.7-6.4,0.1-8.1,2c0.3-6.5-3.6-2.3-5.2,1.1
					C58.1,103,56.2,109.1,56.2,110.5L56.2,110.5z"/>
				<path class="st0" d="M88.9,134.4c-0.2,0-0.4,0-0.6,0C88.5,134.4,89,134.7,88.9,134.4z"/>
				<g>
					<path class="st0" d="M72.3,137.2c3.1,5.3,19.4,3.3,25.9,5.2c12.5-2.4-3.7-8.8-9.3-8.6C85.9,136.9,73.4,131.6,72.3,137.2
						L72.3,137.2z"/>
					<path class="st0" d="M82.4,137.3c0.2,6.3,14.8,8.9,17,3.5C100.3,135.7,84.9,131.2,82.4,137.3z"/>
					<path class="st0" d="M72.3,137.2c-0.3,5.9,14.7,9.2,17,3.5C90.1,134.6,73.3,131.8,72.3,137.2z"/>
				</g>
			</g>
			<path class="st1" d="M105.5,141.8c-3.1,0.4-6.4-0.7-5.1-3.4C101.4,137.5,105.3,139.9,105.5,141.8z"/>
		</g>
		<path class="st1" d="M99.4,144c-3.7-0.2-7.3-2.2-5.1-5.1C95.6,138.1,99.6,141.8,99.4,144z"/>
		<path class="st1" d="M90.9,144.6c-3.8-0.4-7.5-2.5-5.2-5.4C87.1,138.4,91.1,142.3,90.9,144.6z"/>
		<path class="st2" d="M70.9,135.5c-0.1,3.8,9.4,3.8,9.3,0C80.3,131.8,70.8,131.8,70.9,135.5z"/>
	</g>
	<path class="st0" d="M26.1,107C26.1,107,26.1,107,26.1,107c0.5-0.1,1.1-0.2,1.7-0.3C27.2,106.8,26.7,107.1,26.1,107z"/>
	<g>
		<g>
			<g>
				<path class="st0" d="M27.2,102.3c-0.6,0.7,3.4-2.5,4.6,1.6c-1.2-4.9,1.5-5.6,5.3-3.9c-0.7-5.7,6.4,0.1,8.1,2
					c-0.3-6.5,3.6-2.3,5.2,1.1c0.2-1.3,2.1,4.8,2.1,6.2c-0.2-0.3-0.3-0.6-0.5-0.9c-0.4,6.9-1,12.8-6.1,17.8
					c-0.2-0.9-0.8-1.7-0.9-2.6c-7.3,7.9,11.6,6.3-9,14.1c0.6-11.2-22.9,4.6-14.6-13c-7.1,3.9-3.7-4.2-2.4-8c-0.5,0.1-1.4,0-1.7,0.1
					c1.7-2.4,3.6-5.4,4.3-8.3"/>
				<path class="st0" d="M19.8,133.1c0.2,0,0.4,0,0.6,0C20.2,133.1,19.7,133.4,19.8,133.1z"/>
				<g>
					<path class="st0" d="M36.4,135.9c-3.1,5.3-19.4,3.3-25.9,5.2c-12.5-2.4,3.7-8.8,9.3-8.6C22.8,135.6,35.2,130.3,36.4,135.9
						L36.4,135.9z"/>
					<path class="st0" d="M26.3,136c-0.2,6.3-14.8,8.9-17,3.5C8.4,134.3,23.9,129.9,26.3,136z"/>
					<path class="st0" d="M36.4,135.9c0.3,5.9-14.7,9.2-17,3.5C18.6,133.3,35.4,130.5,36.4,135.9z"/>
				</g>
			</g>
			<path class="st1" d="M3.2,140.4c3.1,0.4,6.4-0.7,5.1-3.4C7.4,136.1,3.4,138.6,3.2,140.4z"/>
		</g>
		<path class="st1" d="M9.3,142.6c3.7-0.2,7.3-2.2,5.1-5.1C13.1,136.8,9.1,140.4,9.3,142.6z"/>
		<path class="st1" d="M17.9,143.2c3.8-0.4,7.5-2.5,5.2-5.4C21.6,137.1,17.6,141,17.9,143.2z"/>
		<path class="st2" d="M37.8,134.2c0.1,3.8-9.4,3.8-9.3,0C28.4,130.5,37.9,130.5,37.8,134.2z"/>
	</g>
	<path class="st0" d="M26.7,71.8c-4.1,2.6-6,11.7-3.4,9.2c0.6,2.1-3.5,10.3,0.2,6.6c0.1,14.1,2.9,6.7,1.6,21.2
		c1.3-4.4,1.3,1.2,1.3,3.1c0.3-0.4,0.6-0.7,0.9-0.7c4.5-0.6,10,20.3,23.3,22.7c4.5,0.8,10-0.4,13.3-3.3c3.8-3.4,2.8-7.4,7.2-14
		c2.2-3.3,4.8-5.7,6.5-7c0.6,2.1-0.1-2.5,0.4-2.7c0.1-0.4,0.9,3.7,1,3.4c0,0.2,0-5.2,0.5-5.2c1.4,4.2,0.7,1.1,0.2-2.8
		c-1.5-7.4,0.2-19.6,2.9-15.5c2.3,3.2-0.8-7.4-0.6-7.3c4.8,3.9-3-9.6-6-9.8C63.4,68.4,28.4,71.6,26.7,71.8L26.7,71.8z"/>
	<path class="st3" d="M72,57.6c1.6,3.7,4,7.9,6.8,10.9c-1.3-1-2.8-1.8-4-3c1.4,3,4.8,5.6,5.8,8.8c-1.4-0.6-2.7-1.3-3.8-2.3
		c0.4,4.8,3.7,13.4-2.3,5.5c-0.1,2,0.5,4.1,0.2,6.1c-0.5-0.7-1.4-1-1.9-1.9c-0.4,2.6-2.2,11.3-3,14.1c-0.7-0.9-1.4-1.9-2.1-2.8
		c-0.2,2.5-3.9,9.4-5.6,11.1c0-0.6-0.1-1.2-0.2-1.8c-0.2,1.6-4.6,5.7-4.6,7.1c-0.4-1.4-1.4-5.5-1.4-5.6l-1.8,7.1l-4.3-7.1
		c0,0.2-1,4.2-1.4,5.6c0-1.3-2.1-3.9-2.5-5.3c-0.4,1-0.9,2-1.4,2.9c-0.4-1.5-2.7-7.9-2.8-10.3c-0.5,1.3-1.1,2.6-1.8,3.7
		c-0.8-2.3-1.7-4.9-1.9-7.4c-0.7,0.9-1.4,1.9-2.1,2.8c-0.8-2.8-0.4-6.3-0.3-9.2c-0.4,1.3-1.4,2.2-2.5,3.2C32.4,87,31,79.5,31,77.5
		c-6,7.9-2.8-0.7-2.3-5.5c-1.1,1-2.4,1.8-3.8,2.3c1-3.2,4.4-5.7,5.8-8.8c-1.1,1.2-2.6,2-4,3C38,45.3,57.8,37.3,72,57.6L72,57.6z"/>
	<path class="st0" d="M65,60.8c2.8,1.2,7.8,6.1,12,4.6c-1.8-1.1-4.1-2.6-5.5-4.4c4.6,2.3,12.4,4.9,17.3,4c-3.9-2.6-7.6-6.4-11.1-9.6
		c5.7,2.6,12,3.7,17.8,5.9c-3.5-5-7.7-8.9-13.8-10.3c3.9,1.6,9,1.3,13.4,1.4c-4-4.8-11.3-7.9-16.2-11.6c1.2-1.1,5.9-5,11.9-8.5
		c33.5-18.6-28-5.3-25.6-4.2c-0.4-1.5-0.8-3.1-1.2-4.6c-0.8,0.9-1.6,1.9-2.5,2.8c-0.3-1.1-0.7-2.1-1-3.2c-0.8,1.3-1.7,2.6-2.5,3.9
		c0-1.7,0.3-3.6-0.5-5c-0.7,1.1-1,2-1.2,3.2c-0.5-0.8-0.4-5.1-0.9-5.9c-0.4,0.8-1.3,5.1-1.7,5.9c-0.5-1.5-1.5-8.3-2.6-9.5
		c-0.4,1.5-1.3,8.6-1.3,10.1c-0.3-1.6-3.2-6.6-4.3-7.8c-0.4,5.8,2,8.3-1.4,5.2c-0.1,1.3-0.7,1.7-0.7,3c-1.1-1.6-1.6-2.6-3.2-3.6
		c-0.1,1.3-0.8,2.9-0.8,4.1c-0.5-1.4-0.9-1.7-1.9-2.6c0.4,4.5-1.3,3.1-3.8,0.9c0,0.6,0.4,1.6-0.2,1.9c-4.9-5.6-14.5-6.5-20.8-7.9
		c-0.7,7.7,1.5,19.2,8.5,23.5C14.1,47.9,5.6,54,1,62.6c4.3-1.2,9.3-2.1,12.7-4.6c-5.5,2.8-8.7,7.6-10.9,13.3c5.1-3.5,11-6.1,15.9-10
		c-2.6,3.9-5.2,8.5-8.4,12c5-0.3,12-4.7,15.9-8.1c-0.9,2-2.8,4-4.3,5.6c4.4,0.4,15.7-3.4,18.9-5.4c2.2,4,6.9,8.1,12.7,6.9
		C60.4,71,63.3,65.1,65,60.8L65,60.8z"/>
	<path class="st4" d="M14.1,20.8c9.4,3.2,16.3,5.8,17.8,10.9c-3.4,1.8-8.1,6.6-8.8,7.9C19.9,44.4,13,28.5,14.1,20.8z"/>
	<path class="st4" d="M81.8,27.6c-18.9,4.2-11.6,3.6-4.9,11.2c1.9,0.5,3.1-2.5,7.7-5.7c2.4-1.5,9.9-5.6,12.5-7.8
		C93.4,25.6,88.1,26.3,81.8,27.6L81.8,27.6z"/>
	<path class="st5" d="M44.2,62c0,0.4,0.2,5,3.5,6.9c3.9,2.3,9.8-0.4,11.5-4.6c1-2.4,0.3-4.8,0-5.8"/>
	<g>
		<g>
			<path class="st0" d="M77,108c-4.5-0.5-6.5-3.6-9.5-3.9c0.4-0.1,0.8-0.2,1.2-0.2c-1-0.2-4-1-2.4-1.8c-2.3-0.6-6.3-3.6-5-3.8
				c-1.2-0.7-5.7-1.1-2.8-2.5c-1.2-0.8-2.3-1.1-0.3-1.6c-11.5-3-4.7-18.8,1.8-24.8c6.2-2.8,5.1,15.6,3,13.9c1.7,0,3.5,0.4,3.2,0.2
				c0.9,0.4,2.2,0.6,3.1,1c-3.6-2.2,1.5-0.4,2.9,0.6c-4.8-4.1,4-1.1,7.1,0.2c-2.8-3,1.2-1.4,0.9-1.6c1.4,0.5,7.1,2.4,3.8,0.5
				c2.1,0.5,4.2,1,6.3,1.4"/>
			<g>
				<path class="st0" d="M52.7,90.1c-6.3-4.7,3.4-14.9,3.1-21.1c4.7-8,15.8,1.5,8.8,7.4"/>
				<path class="st0" d="M54.7,78.6c-6.7-3.7-0.6-14.3,5.9-10.4C67.3,71.8,61.3,82.4,54.7,78.6z"/>
				<path class="st0" d="M51.7,82.2c-10.2-9.1,12.4-15.7,9.5-2.8"/>
			</g>
		</g>
		<path class="st1" d="M63.1,65.4c-0.8,1.6-0.5,3.5,1.1,3.3C64.9,68.4,64.1,65.8,63.1,65.4z"/>
		<path class="st1" d="M59.6,67.4c-0.8,1.6-0.5,3.5,1.2,3.3C61.4,70.3,60.6,67.8,59.6,67.4z"/>
		<path class="st1" d="M56.2,72.6c-0.8,1.6-0.5,3.5,1.2,3.3C58,75.5,57.2,72.9,56.2,72.6z"/>
	</g>
	<g>
		<g>
			<path class="st0" d="M34.7,110.3c4.1-1.9,10-8.8,8.3-9c1.9-1.3,4.8-5.4,3.6-5.2c0.9-1.1,3.7-5,1.7-4.8c9.9-6.5-1.5-19.3-9.6-22.9
				c-6.8-0.7,0.1,16.4,1.6,14.2c-1.6,0.6-3.2,1.5-2.9,1.2c-0.8,0.7-1.9,1.3-2.6,1.9c2.7-3.2-1.5,0.1-2.6,1.5
				c3.3-5.4-4.2,0.2-6.6,2.5c1.7-3.8-0.2-1.3-2.2,0c0.2-0.3,0.7-1,0.9-1.2c-1.2,0.9-6,4.5-3.4,1.7"/>
			<g>
				<path class="st0" d="M52.1,85.6c4.5-6.4-8-13.1-9.7-19c-7-6.1-14.5,6.4-6,9.8"/>
				<path class="st0" d="M46.5,75.3c5.2-5.6-4-13.7-8.9-8C32.4,72.9,41.5,81.1,46.5,75.3z"/>
				<path class="st0" d="M50.6,77.8c6.8-11.9-16.7-11-9.9,0.4"/>
			</g>
		</g>
		<path class="st1" d="M34.5,66.1c1.2,1.3,1.6,3.2,0,3.5C33.7,69.4,33.6,66.8,34.5,66.1z"/>
		<path class="st1" d="M38.4,66.8c1.2,1.3,1.6,3.2,0,3.5C37.6,70.1,37.6,67.5,38.4,66.8z"/>
		<path class="st1" d="M43.3,70.7c1.2,1.3,1.6,3.2,0,3.5C42.5,74,42.4,71.3,43.3,70.7z"/>
	</g>
	<g>
		<g>
			<path class="st6" d="M44.1,63c0.2,1.3,1.1,3.5,1.9,4.7C47.5,65.5,48.2,60.8,44.1,63z"/>
			<path class="st6" d="M56.2,61.5c0,1.3-0.3,3.7-0.8,5C53.5,64.7,51.7,60.2,56.2,61.5z"/>
		</g>
		<path class="st0" d="M49.2,53.2v8.1c-0.3,4.6-9.6,4.3-9.2-0.6"/>
		
			<radialGradient id="SVGID_1_" cx="48.97" cy="94.77" r="5.42" gradientTransform="matrix(1 0 0 -1 0 148)" gradientUnits="userSpaceOnUse">
			<stop  offset="0" style="stop-color:#831811"/>
			<stop  offset="0.17" style="stop-color:#7E1811"/>
			<stop  offset="0.36" style="stop-color:#701812"/>
			<stop  offset="0.56" style="stop-color:#591A15"/>
			<stop  offset="0.78" style="stop-color:#391B18"/>
			<stop  offset="0.93" style="stop-color:#1D1D1B"/>
		</radialGradient>
		<path class="st7" d="M49,51.7c-8-0.3-3.2,2.8-0.8,4.1c-0.1,0.9,0.4,0.7,1.2,0.7c0.7,0.1,0.6-0.2,0.6-0.7
			C52.8,54.3,57,51.4,49,51.7L49,51.7z"/>
		<path class="st0" d="M62,56.3c0.5,5-10.2,11.4-12.8,4.4"/>
		<path d="M46,56.8c0,0.6-1,0.6-1,0C45,56.1,46,56.1,46,56.8z"/>
		<path d="M46.7,58.9c0,0.6-1,0.6-1,0C45.8,58.2,46.8,58.2,46.7,58.9z"/>
		<path d="M43.7,58.6c0,0.6-1,0.6-1,0C42.7,57.9,43.7,57.9,43.7,58.6z"/>
		<path d="M52.1,57.4c0,0.6-1,0.6-1,0C51.1,56.8,52.1,56.8,52.1,57.4z"/>
		<path d="M54.2,59.5c-0.2,0.6-1.2,0.3-0.9-0.3C53.5,58.6,54.5,58.9,54.2,59.5z"/>
		<path d="M55.7,56.8c0,0.6-1,0.6-1,0C54.7,56.1,55.7,56.1,55.7,56.8z"/>
	</g>
	<path class="st8" d="M32.2,33.3c-1.6-0.8-14.3,13.5-9.8,19.6C21.7,49.7,28.5,35.6,32.2,33.3z"/>
	<path class="st8" d="M65.8,32.1c1.6-0.8,14.3,13.5,9.8,19.6C76.4,48.4,69.5,34.3,65.8,32.1z"/>
	<path class="st3" d="M106.4,7.4c8.3-1.2,22.7-2.1,38.7,3.7c6.2,2.3,11.4,5.1,15.5,7.8c-8.1,3.9-19.8,11.1-24.6,23.8
		c-14.6,1.3-27.2-6.1-31-16.9C102.2,17.7,105.2,10,106.4,7.4L106.4,7.4z"/>
	<path class="st8" d="M107.7,99.1c0.9,1.1,23.1-8.3,24.6-24.1c0.6-6.5-2.4-13.6-3.6-13.4c-1,0.1-0.7,5.1-1.6,10.2
		C123.7,89.2,106.9,98,107.7,99.1z"/>
	<path class="st9" d="M106.3,12.8c0-0.3,18.2-5.9,36.8-0.2c5.6,1.7,9.6,4,9.5,4.3c-0.2,0.5-10.3-4.8-23.9-5.1
		c-4.5-0.1-11.7,0.3-14.2,0.4C107.5,12.6,106.3,12.9,106.3,12.8L106.3,12.8z"/>
	<polyline class="st0" points="116.8,103.2 123,103.5 118.5,102 123.9,100.8 121,100.1 128.5,96.4 125.6,96 	"/>
	<polyline class="st0" points="133.9,53.7 137.9,52.6 134.1,56.8 135,57.2 134.4,59.4 137.6,60.8 134.9,64.5 	"/>
	<polyline class="st10" points="120.9,6.9 128.4,2 124.3,7.4 128.4,3.9 128.8,7.6 132.8,5.5 132.8,7.4 140.2,6.1 137.4,8.8 	"/>
	<path class="st11" d="M35.8,44c-0.3-0.3-0.3-3,0.7-4.1c1.6-1.8,4.7-1.3,4.9-0.8c0,0.1-2.1,1.1-3.5,2.5C35.9,43.4,36.1,44.4,35.8,44
		L35.8,44z"/>
	<path class="st11" d="M62.3,43.3c0.3-0.3,0.3-3-0.7-4.1c-1.6-1.8-4.7-1.3-4.9-0.8c0,0.1,2.1,1.1,3.5,2.5
		C62.2,42.7,62,43.7,62.3,43.3L62.3,43.3z"/>
	<path class="st12" d="M24.6,74.7c-0.8,0.8-1.1,2.9-2.3,4.6c-1.3,1.8-2.7,6-4.1,12.5c-0.6,2.8-1.6,7-0.8,12.2
		c0.2,1.3,0.9,5.3,3.1,8.6c4.8,7.2,13.3-0.8,15.6-3.2"/>
	<path class="st12" d="M77.8,68.7c0.8,0.8,1.1,2.9,2.3,4.6c1.3,1.8,2.7,6,4.1,12.5c0.6,2.8,1.6,7,0.8,12.2c-0.2,1.3-0.9,5.3-3.1,8.6
		c-4.8,7.2-13.3-0.8-15.7-3.2"/>
	<path class="st13" d="M56.9,50.8c4.1-0.4,3.4-7.2-0.7-6.7C52.2,44.5,52.9,51.3,56.9,50.8z"/>
	<path class="st13" d="M43.6,50.7c4-1,2.4-7.6-1.5-6.5C38.1,45.2,39.6,51.8,43.6,50.7z"/>
	<circle cx="42.3" cy="48.6" r="2.3"/>
	<circle cx="56" cy="48.1" r="2.3"/>
	<path class="st14" d="M56.7,46.9c-0.4,0.5,0.3,1.2,0.8,0.7C57.9,47.1,57.1,46.4,56.7,46.9z"/>
	<path class="st14" d="M42.1,46.9c-0.4,0.5,0.3,1.2,0.8,0.7C43.3,47.1,42.5,46.4,42.1,46.9z"/>
</g>
</svg>
