<?xml version="1.0" encoding="UTF-8"?>
<svg id="_Слой_1" data-name="Слой 1" xmlns="http://www.w3.org/2000/svg" width="200" height="200" viewBox="0 0 200 200">
  <defs>
    <style>
      .cls-1 {
        fill: #fff;
      }

      .cls-2 {
        fill: #c69c6d;
      }

      .cls-3 {
        fill: gray;
      }

      .cls-4 {
        fill: #b3b3b3;
        stroke: #000;
        stroke-miterlimit: 10;
      }
    </style>
  </defs>
  <g>
    <path class="cls-2" d="m83.85,186.5c-1.35,0-2.54-.79-2.97-1.98L20.74,17.39c-.25-.69-.2-1.45.13-2.12.36-.73,1.01-1.28,1.83-1.53.32-.1.66-.15,1-.15,1.35,0,2.54.79,2.97,1.98l60.14,167.13c.25.69.2,1.45-.13,2.12-.36.73-1.01,1.28-1.83,1.54-.32.1-.66.15-1,.15Z"/>
    <path d="m23.69,14.09c1.14,0,2.14.66,2.5,1.65l60.14,167.13c.2.57.17,1.18-.11,1.73-.3.61-.84,1.06-1.53,1.28-.27.09-.56.13-.85.13-1.14,0-2.14-.66-2.5-1.65L21.21,17.22c-.2-.57-.17-1.18.11-1.73.3-.61.84-1.06,1.53-1.28.27-.09.56-.13.85-.13m0-1c-.38,0-.77.06-1.15.18-1.89.6-2.91,2.53-2.27,4.3l60.14,167.13c.51,1.41,1.93,2.31,3.44,2.31.38,0,.77-.06,1.15-.18,1.89-.6,2.91-2.53,2.27-4.3L27.13,15.4c-.51-1.41-1.93-2.31-3.44-2.31h0Z"/>
  </g>
  <path class="cls-4" d="m77.3,166.18c2.41,5.65,4.83,11.31,7.24,16.96,12.71-1.62,33.23-6.11,51.89-20.35,23.52-17.95,33.09-43.02,31.37-44.09-1.61-1.01-11.91,19.89-36.2,33.92-18.91,10.92-38.98,13.44-54.3,13.57Z"/>
  <g>
    <path class="cls-2" d="m51.19,89.05c-.57,0-1.07-.33-1.25-.82l-.58-1.61c-.1-.28-.08-.59.05-.86.15-.3.42-.53.76-.64l26.87-8.49c.14-.04.28-.06.42-.06.57,0,1.07.33,1.25.82l.58,1.61c.1.28.08.59-.05.86-.15.3-.42.53-.77.64l-26.87,8.49c-.14.04-.28.06-.42.06Z"/>
    <path d="m77.47,77.06c.35,0,.67.2.78.49l.58,1.61c.07.2.02.37-.03.47-.09.18-.26.32-.47.38l-26.87,8.49c-.09.03-.18.04-.27.04-.35,0-.67-.2-.78-.49l-.58-1.61c-.07-.2-.02-.37.03-.47.09-.18.26-.32.47-.38l26.87-8.49c.09-.03.18-.04.27-.04m0-1c-.19,0-.38.03-.57.09l-26.87,8.49c-.94.3-1.45,1.26-1.14,2.15l.58,1.61c.25.71.96,1.15,1.72,1.15.19,0,.38-.03.57-.09l26.87-8.49c.94-.3,1.45-1.26,1.14-2.15l-.58-1.61c-.25-.71-.96-1.15-1.72-1.15h0Z"/>
  </g>
  <path class="cls-1" d="m165.79,123.52c-.05-.04-4.03,6.64-11.86,14.45-21.12,21.05-47.19,27.32-46.91,27.94.2.45,14.69-2.04,30.1-12.28,19.09-12.68,28.76-30.05,28.68-30.11Z"/>
  <path class="cls-3" d="m87.56,180.32c-.8-1.13-1.61-2.26-2.41-3.39,5.83-.11,13.88-.79,22.93-3.39,23.53-6.77,37.16-21.76,37.41-21.48.23.26-11.22,13.16-31.37,21.48-10.37,4.28-19.79,6.02-26.55,6.78Z"/>
</svg>