<svg width="62" height="62" viewBox="0 0 62 62" fill="none" xmlns="http://www.w3.org/2000/svg">
<g id="attention2 1">
<path id="Vector" d="M40.7587 61.38H21.2039V50.8772H17.5211C15.2147 50.8772 13.3299 49.0048 13.3299 46.686V41.5028L8.8163 38.9112C7.7499 38.3036 7.5019 36.8776 8.3079 35.9476L12.0651 31.5704C12.0403 31.2108 12.0279 30.876 12.0279 30.5164C12.0279 20.7204 20.5467 12.7968 31.0619 12.7968C41.5771 12.7968 50.0959 20.7204 50.0959 30.5164C50.0959 31.6696 49.9843 32.7856 49.7487 33.8768C49.7487 33.8768 49.4263 35.4392 48.7195 37.1132C47.7647 39.3948 45.0739 43.4992 40.8951 48.236C40.8455 50.8648 40.8083 58.7388 40.7587 61.3676V61.38Z" stroke="#333333" stroke-linejoin="round"/>
<path id="Vector_2" d="M41.5522 53.8284V56.7796H41.4159C41.4035 55.862 41.4406 54.8824 41.5522 53.8284Z" fill="#606060"/>
<path id="Vector_3" d="M21.8489 32.0044L34.3233 25.9408V24.242L21.2041 4.93521" stroke="#333333" stroke-linejoin="round"/>
<path id="Vector_4" d="M54.6717 11.718L36.9521 24.6264L41.9494 36.3568" stroke="#333333" stroke-linejoin="round"/>
<path id="Vector_5" d="M35.6374 28.4704L28.4082 43.8216" stroke="#333333" stroke-linejoin="round"/>
<path id="Vector_6" d="M35.6378 31.186C38.5346 31.186 40.883 28.8376 40.883 25.9408C40.883 23.0439 38.5346 20.6956 35.6378 20.6956C32.7409 20.6956 30.3926 23.0439 30.3926 25.9408C30.3926 28.8376 32.7409 31.186 35.6378 31.186Z" fill="#E6E6E6" stroke="#333333" stroke-linejoin="round"/>
<path id="Vector_7" d="M20.2119 9.03961C22.2048 9.03961 23.8203 7.42408 23.8203 5.43122C23.8203 3.43835 22.2048 1.82281 20.2119 1.82281C18.219 1.82281 16.6035 3.43835 16.6035 5.43122C16.6035 7.42408 18.219 9.03961 20.2119 9.03961Z" fill="#E6E6E6" stroke="#333333" stroke-linejoin="round"/>
<path id="Vector_8" d="M54.6714 14.6072C56.6643 14.6072 58.2798 12.9917 58.2798 10.9988C58.2798 9.00595 56.6643 7.39041 54.6714 7.39041C52.6785 7.39041 51.063 9.00595 51.063 10.9988C51.063 12.9917 52.6785 14.6072 54.6714 14.6072Z" fill="#E6E6E6" stroke="#333333" stroke-linejoin="round"/>
<path id="Vector_9" d="M41.949 39.0724C43.4488 39.0724 44.6646 37.8566 44.6646 36.3568C44.6646 34.857 43.4488 33.6412 41.949 33.6412C40.4492 33.6412 39.2334 34.857 39.2334 36.3568C39.2334 37.8566 40.4492 39.0724 41.949 39.0724Z" fill="#E6E6E6" stroke="#333333" stroke-linejoin="round"/>
<path id="Vector_10" d="M28.4085 46.5372C29.9083 46.5372 31.1241 45.3214 31.1241 43.8216C31.1241 42.3218 29.9083 41.106 28.4085 41.106C26.9087 41.106 25.6929 42.3218 25.6929 43.8216C25.6929 45.3214 26.9087 46.5372 28.4085 46.5372Z" fill="#E6E6E6" stroke="#333333" stroke-linejoin="round"/>
<path id="Vector_11" d="M21.8489 34.72C23.3487 34.72 24.5645 33.5042 24.5645 32.0044C24.5645 30.5046 23.3487 29.2888 21.8489 29.2888C20.3491 29.2888 19.1333 30.5046 19.1333 32.0044C19.1333 33.5042 20.3491 34.72 21.8489 34.72Z" fill="#E6E6E6" stroke="#333333" stroke-linejoin="round"/>
</g>
</svg>
