<svg width="63" height="63" viewBox="0 0 63 63" fill="none" xmlns="http://www.w3.org/2000/svg">
<g id="ear2 1">
<path id="Vector" d="M28.6495 20.1487C28.6495 18.8823 28.8501 13.8796 32.7244 9.94269C37.2005 5.41645 43.1811 5.75497 44.9615 5.86782C46.6918 5.96812 51.4186 6.24396 55.1675 9.94269C59.9822 14.7197 59.3427 21.3774 59.2424 22.1798C58.7033 26.9443 55.7819 30.8562 53.1238 34.417C51.6819 36.3479 50.378 37.7271 49.049 40.5356C48.4095 41.8772 48.2591 42.5166 47.0052 46.6542C44.5478 54.7914 44.0964 55.832 42.9304 56.8602C40.4102 59.0669 37.2005 58.9289 36.8118 58.9039C31.6085 58.5904 28.9504 53.3996 28.6495 52.7853C26.2673 47.9581 28.3361 43.2563 28.6495 42.5793" stroke="#333333" stroke-linecap="round" stroke-linejoin="round"/>
<path id="Vector_2" d="M40.8866 32.3858C39.1187 32.4234 36.4732 32.1476 34.768 30.3421C31.1571 26.5556 33.0378 17.4906 38.8429 14.0176C43.0808 11.4849 50.1146 11.4974 53.1238 16.0613C56.0075 20.412 53.2617 25.9914 53.1238 26.2673" stroke="#333333" stroke-linecap="round" stroke-linejoin="round"/>
<path id="Vector_3" d="M38.843 20.1487C39.5577 19.8478 41.7519 19.0203 44.1341 19.8603C46.5163 20.7129 48.1713 22.9321 48.6729 25.0636C49.8514 30.0788 43.8959 31.5458 42.4038 40.1093C42.0528 42.1028 41.9148 44.7108 39.8962 46.3783C39.6078 46.6166 38.1158 47.7951 36.5109 47.4942C34.4045 47.093 32.6367 44.2845 32.737 40.5607" stroke="#333333" stroke-linecap="round" stroke-linejoin="round"/>
<path id="Vector_4" d="M14.356 16.0613C15.5721 17.4029 20.7629 23.4462 20.4745 32.3858C20.2739 38.4417 17.6535 42.7924 16.3997 44.623" stroke="#333333" stroke-linecap="round" stroke-linejoin="round"/>
<path id="Vector_5" d="M2.50781 13.002C4.66436 14.7322 13.8297 22.4933 13.3156 33.9907C12.9646 41.7769 8.33802 47.3688 6.10624 49.726" stroke="#333333" stroke-linecap="round" stroke-linejoin="round"/>
<path id="Vector_6" d="M24.562 40.5481C25.2265 39.4949 26.9192 36.4733 26.6057 32.3859C26.38 29.4645 25.2391 27.333 24.562 26.2673" stroke="#333333" stroke-linecap="round" stroke-linejoin="round"/>
</g>
</svg>
