<svg width="345.000000" height="309.000000" viewBox="0 0 345 309" fill="none" xmlns="http://www.w3.org/2000/svg" xmlns:xlink="http://www.w3.org/1999/xlink">
	<desc>
			Created with Pixso.
	</desc>
	<defs>
		<clipPath id="clip9_1">
			<rect id="fox_wow" width="345.000000" height="309.000000" fill="white" fill-opacity="0"/>
		</clipPath>
		<radialGradient gradientTransform="translate(104.288 113.435) rotate(0) scale(11.5426 11.535)" cx="0.000000" cy="0.000000" r="1.000000" id="paint_radial_9_61_0" gradientUnits="userSpaceOnUse">
			<stop stop-color="#831811"/>
			<stop offset="0.170000" stop-color="#7E1811"/>
			<stop offset="0.360000" stop-color="#701812"/>
			<stop offset="0.560000" stop-color="#591A15"/>
			<stop offset="0.780000" stop-color="#391B18"/>
			<stop offset="0.930000" stop-color="#1D1D1B"/>
		</radialGradient>
	</defs>
	<g clip-path="url(#clip9_1)">
		<path id="path" d="M130.88 274.81C79.07 210.09 84.12 116.88 140.3 60.18C192.79 7.2 278 -1.84 342.74 40.29C325.49 48.6 300.64 64.01 290.43 91.08C279.55 119.93 293.25 141.07 291.48 163.32C290.2 179.34 280.66 198.76 250.46 220.13C226.14 237.33 188.45 255.8 130.88 274.81Z" fill="#F08630" fill-opacity="1.000000" fill-rule="nonzero"/>
		<path id="path" d="M140.3 60.18C192.79 7.2 278 -1.84 342.74 40.29C325.49 48.6 300.64 64.01 290.43 91.08C279.55 119.93 293.25 141.07 291.48 163.32C290.2 179.34 280.66 198.76 250.46 220.13C226.14 237.33 188.45 255.8 130.88 274.81C79.07 210.09 84.12 116.88 140.3 60.18Z" stroke="#1D1D1B" stroke-opacity="1.000000" stroke-width="1.000000"/>
		<path id="path" d="M119.6 235.45C120.02 234.84 120.34 234.15 120.55 233.45C121.49 248.24 122.58 260.77 133.54 271.4C133.89 269.53 135.16 267.78 135.48 265.95C151.03 282.78 110.76 279.31 154.59 295.93C153.27 272.02 203.31 305.76 185.74 268.21C200.88 276.6 193.66 259.19 190.75 251.14C191.75 251.39 193.73 251.14 194.28 251.24C190.75 246.09 186.64 239.74 185.08 233.64C187.08 234.98 189.43 235.99 191.73 236.46C187.7 231.49 166.34 215.44 163.85 224.14C166.4 213.67 160.68 212.31 152.56 215.76C154.07 203.57 138.95 215.89 135.25 219.96C135.82 206.07 127.65 215.14 124.11 222.26C123.64 219.41 119.66 232.56 119.6 235.45Z" fill="#F08630" fill-opacity="1.000000" fill-rule="nonzero"/>
		<path id="path" d="M120.55 233.45C121.49 248.24 122.58 260.77 133.54 271.4C133.89 269.53 135.16 267.78 135.48 265.95C151.03 282.78 110.76 279.31 154.59 295.93C153.27 272.02 203.31 305.76 185.74 268.21C200.88 276.6 193.66 259.19 190.75 251.14C191.75 251.39 193.73 251.14 194.28 251.24C190.75 246.09 186.64 239.74 185.08 233.64C187.08 234.98 189.43 235.99 191.73 236.46C187.7 231.49 166.34 215.44 163.85 224.14C166.4 213.67 160.68 212.31 152.56 215.76C154.07 203.57 138.95 215.89 135.25 219.96C135.82 206.07 127.65 215.14 124.11 222.26C123.64 219.41 119.66 232.56 119.6 235.45C120.02 234.84 120.34 234.15 120.55 233.45Z" stroke="#1D1D1B" stroke-opacity="1.000000" stroke-width="1.000000"/>
		<path id="path" d="M189.43 286.47C188.96 286.47 188.53 286.47 188.08 286.47C188.47 286.47 189.53 287.04 189.43 286.47Z" fill="#F08630" fill-opacity="1.000000" fill-rule="nonzero"/>
		<path id="path" d="M188.08 286.47C188.47 286.47 189.53 287.04 189.43 286.47C188.96 286.47 188.53 286.47 188.08 286.47Z" stroke="#1D1D1B" stroke-opacity="1.000000" stroke-width="1.000000"/>
		<path id="path" d="M154.01 292.33C160.59 303.63 195.3 299.36 209.15 303.5C235.79 298.34 201.33 284.68 189.3 285.13C182.85 291.8 156.42 280.42 154.01 292.33Z" fill="#F08630" fill-opacity="1.000000" fill-rule="nonzero"/>
		<path id="path" d="M209.15 303.5C235.79 298.34 201.33 284.68 189.3 285.13C182.85 291.8 156.42 280.42 154.01 292.33C160.59 303.63 195.3 299.36 209.15 303.5Z" stroke="#1D1D1B" stroke-opacity="1.000000" stroke-width="1.000000"/>
		<path id="path" d="M175.46 292.63C175.84 306.03 206.97 311.64 211.6 300.02C213.58 289.11 180.72 279.63 175.46 292.63Z" fill="#F08630" fill-opacity="1.000000" fill-rule="nonzero"/>
		<path id="path" d="M211.6 300.02C213.58 289.11 180.72 279.63 175.46 292.63C175.84 306.03 206.97 311.64 211.6 300.02Z" stroke="#1D1D1B" stroke-opacity="1.000000" stroke-width="1.000000"/>
		<path id="path" d="M154.01 292.33C153.37 304.8 185.29 311.85 190.15 299.73C191.81 286.92 156.03 280.95 154.01 292.33Z" fill="#F08630" fill-opacity="1.000000" fill-rule="nonzero"/>
		<path id="path" d="M190.15 299.73C191.81 286.92 156.03 280.95 154.01 292.33C153.37 304.8 185.29 311.85 190.15 299.73Z" stroke="#1D1D1B" stroke-opacity="1.000000" stroke-width="1.000000"/>
		<path id="path" d="M224.59 302.11C217.94 302.86 210.85 300.56 213.75 294.76C215.85 292.93 224.2 298.13 224.59 302.11Z" fill="#F8F7D7" fill-opacity="1.000000" fill-rule="nonzero"/>
		<path id="path" d="M213.75 294.76C215.85 292.93 224.2 298.13 224.59 302.11C217.94 302.86 210.85 300.56 213.75 294.76Z" stroke="#1D1D1B" stroke-opacity="1.000000" stroke-width="1.000000"/>
		<path id="path" d="M211.64 306.78C203.78 306.35 196.18 302.13 200.69 296C203.5 294.27 212.04 302.09 211.64 306.78Z" fill="#F8F7D7" fill-opacity="1.000000" fill-rule="nonzero"/>
		<path id="path" d="M200.69 296C203.5 294.27 212.04 302.09 211.64 306.78C203.78 306.35 196.18 302.13 200.69 296Z" stroke="#1D1D1B" stroke-opacity="1.000000" stroke-width="1.000000"/>
		<path id="path" d="M193.49 308.04C185.44 307.21 177.59 302.73 182.5 296.64C185.46 295.04 194.05 303.26 193.49 308.04Z" fill="#F8F7D7" fill-opacity="1.000000" fill-rule="nonzero"/>
		<path id="path" d="M182.5 296.64C185.46 295.04 194.05 303.26 193.49 308.04C185.44 307.21 177.59 302.73 182.5 296.64Z" stroke="#1D1D1B" stroke-opacity="1.000000" stroke-width="1.000000"/>
		<path id="path" d="M151.05 288.84C150.82 296.85 171.05 296.85 170.79 288.84C171.03 280.82 150.79 280.82 151.05 288.84Z" fill="#F08630" fill-opacity="1.000000" fill-rule="nonzero"/>
		<path id="path" d="M55.62 228.02C56.86 227.87 57.94 227.63 59.18 227.46C58.01 227.7 56.81 228.29 55.62 228.02Z" fill="#F08630" fill-opacity="1.000000" fill-rule="nonzero"/>
		<path id="path" d="M59.18 227.46C58.01 227.7 56.81 228.29 55.62 228.02C56.86 227.87 57.94 227.63 59.18 227.46Z" stroke="#1D1D1B" stroke-opacity="1.000000" stroke-width="1.000000"/>
		<path id="path" d="M57.94 217.92C56.69 219.45 65.18 212.57 67.67 221.26C65.12 210.8 70.85 209.43 78.96 212.89C77.45 200.7 92.57 213.01 96.28 217.08C95.7 203.19 103.88 212.27 107.41 219.39C107.88 216.53 111.84 229.68 111.91 232.58C111.48 231.96 111.16 231.28 110.95 230.57C110.01 245.36 108.93 257.89 97.96 268.53C97.62 266.65 96.34 264.9 96.02 263.07C80.47 279.91 120.75 276.43 76.92 293.06C78.24 269.15 28.19 302.88 45.76 265.33C30.62 273.73 37.84 256.32 40.76 248.26C39.75 248.52 37.77 248.26 37.22 248.37C40.76 243.21 44.87 236.86 46.42 230.77L57.94 217.92Z" fill="#F08630" fill-opacity="1.000000" fill-rule="nonzero"/>
		<path id="path" d="M57.94 217.92C56.69 219.45 65.18 212.57 67.67 221.26C65.12 210.8 70.85 209.43 78.96 212.89C77.45 200.7 92.57 213.01 96.28 217.08C95.7 203.19 103.88 212.27 107.41 219.39C107.88 216.53 111.84 229.68 111.91 232.58C111.48 231.96 111.16 231.28 110.95 230.57C110.01 245.36 108.93 257.89 97.96 268.53C97.62 266.65 96.34 264.9 96.02 263.07C80.47 279.91 120.75 276.43 76.92 293.06C78.24 269.15 28.19 302.88 45.76 265.33C30.62 273.73 37.84 256.32 40.76 248.26C39.75 248.52 37.77 248.26 37.22 248.37C40.76 243.21 44.87 236.86 46.42 230.77" stroke="#1D1D1B" stroke-opacity="1.000000" stroke-width="1.000000"/>
		<path id="path" d="M42.08 283.66C42.55 283.66 42.97 283.66 43.42 283.66C43.03 283.66 41.97 284.23 42.08 283.66Z" fill="#F08630" fill-opacity="1.000000" fill-rule="nonzero"/>
		<path id="path" d="M43.42 283.66C43.03 283.66 41.97 284.23 42.08 283.66C42.55 283.66 42.97 283.66 43.42 283.66Z" stroke="#1D1D1B" stroke-opacity="1.000000" stroke-width="1.000000"/>
		<path id="path" d="M77.47 289.5C70.89 300.79 36.18 296.53 22.33 300.66C-4.31 295.51 30.15 281.85 42.18 282.29C48.64 288.96 75.06 277.58 77.47 289.5Z" fill="#F08630" fill-opacity="1.000000" fill-rule="nonzero"/>
		<path id="path" d="M22.33 300.66C-4.31 295.51 30.15 281.85 42.18 282.29C48.64 288.96 75.06 277.58 77.47 289.5C70.89 300.79 36.18 296.53 22.33 300.66Z" stroke="#1D1D1B" stroke-opacity="1.000000" stroke-width="1.000000"/>
		<path id="path" d="M56.05 289.79C55.66 303.2 24.53 308.8 19.91 297.19C17.93 286.28 50.79 276.79 56.05 289.79Z" fill="#F08630" fill-opacity="1.000000" fill-rule="nonzero"/>
		<path id="path" d="M19.91 297.19C17.93 286.28 50.79 276.79 56.05 289.79C55.66 303.2 24.53 308.8 19.91 297.19Z" stroke="#1D1D1B" stroke-opacity="1.000000" stroke-width="1.000000"/>
		<path id="path" d="M77.47 289.5C78.11 301.96 46.19 309.02 41.33 296.89C39.67 284.08 75.45 278.12 77.47 289.5Z" fill="#F08630" fill-opacity="1.000000" fill-rule="nonzero"/>
		<path id="path" d="M41.33 296.89C39.67 284.08 75.45 278.12 77.47 289.5C78.11 301.96 46.19 309.02 41.33 296.89Z" stroke="#1D1D1B" stroke-opacity="1.000000" stroke-width="1.000000"/>
		<path id="path" d="M6.92 299.28C13.56 300.02 20.65 297.72 17.76 291.93C15.65 290.09 7.3 295.29 6.92 299.28Z" fill="#F8F7D7" fill-opacity="1.000000" fill-rule="nonzero"/>
		<path id="path" d="M17.76 291.93C15.65 290.09 7.3 295.29 6.92 299.28C13.56 300.02 20.65 297.72 17.76 291.93Z" stroke="#1D1D1B" stroke-opacity="1.000000" stroke-width="1.000000"/>
		<path id="path" d="M19.86 303.94C27.72 303.52 35.33 299.3 30.81 293.16C28 291.44 19.46 299.26 19.86 303.94Z" fill="#F8F7D7" fill-opacity="1.000000" fill-rule="nonzero"/>
		<path id="path" d="M30.81 293.16C28 291.44 19.46 299.26 19.86 303.94C27.72 303.52 35.33 299.3 30.81 293.16Z" stroke="#1D1D1B" stroke-opacity="1.000000" stroke-width="1.000000"/>
		<path id="path" d="M38.01 305.2C46.06 304.37 53.92 299.9 49 293.8C46.04 292.2 37.46 300.43 38.01 305.2Z" fill="#F8F7D7" fill-opacity="1.000000" fill-rule="nonzero"/>
		<path id="path" d="M49 293.8C46.04 292.2 37.46 300.43 38.01 305.2C46.06 304.37 53.92 299.9 49 293.8Z" stroke="#1D1D1B" stroke-opacity="1.000000" stroke-width="1.000000"/>
		<path id="path" d="M80.45 286C80.69 294.01 60.46 294.01 60.71 286C60.48 277.99 80.71 277.99 80.45 286Z" fill="#F08630" fill-opacity="1.000000" fill-rule="nonzero"/>
		<path id="path" d="M56.77 152.98C48.06 158.44 44.06 177.85 49.64 172.63C50.91 177.15 42.29 194.67 50.04 186.65C50.21 216.64 56.11 201.02 53.41 231.75C56.2 222.31 56.13 234.26 56.17 238.35C56.77 237.44 57.41 236.95 58.09 236.86C67.63 235.62 79.37 280.03 107.78 285.34C117.3 287.13 129.07 284.42 136.06 278.24C144.24 271.02 142.06 262.37 151.35 248.5C156.12 241.36 161.53 236.43 165.11 233.54C166.38 238.1 164.89 228.17 166.04 227.87C166.21 227.06 168.02 235.77 168.26 235.16C168.32 235.5 168.24 223.97 169.34 224.03C172.37 233.07 170.88 226.27 169.81 218C166.7 202.25 170.15 176.19 176.07 185.03C181.01 191.92 174.48 169.22 174.77 169.41C185.1 177.83 168.45 149.04 161.95 148.42C134.99 145.86 60.39 152.64 56.77 152.98Z" fill="#F08630" fill-opacity="1.000000" fill-rule="nonzero"/>
		<path id="path" d="M49.64 172.63C50.91 177.15 42.29 194.67 50.04 186.65C50.21 216.64 56.11 201.02 53.41 231.75C56.2 222.31 56.13 234.26 56.17 238.35C56.77 237.44 57.41 236.95 58.09 236.86C67.63 235.62 79.37 280.03 107.78 285.34C117.3 287.13 129.07 284.42 136.06 278.24C144.24 271.02 142.06 262.37 151.35 248.5C156.12 241.36 161.53 236.43 165.11 233.54C166.38 238.1 164.89 228.17 166.04 227.87C166.21 227.06 168.02 235.77 168.26 235.16C168.32 235.5 168.24 223.97 169.34 224.03C172.37 233.07 170.88 226.27 169.81 218C166.7 202.25 170.15 176.19 176.07 185.03C181.01 191.92 174.48 169.22 174.77 169.41C185.1 177.83 168.45 149.04 161.95 148.42C134.99 145.86 60.39 152.64 56.77 152.98C48.06 158.44 44.06 177.85 49.64 172.63Z" stroke="#1D1D1B" stroke-opacity="1.000000" stroke-width="1.000000"/>
		<path id="path" d="M153.31 122.79C156.8 130.73 161.83 139.66 167.75 146.06C164.91 143.95 161.7 142.2 159.25 139.64C162.27 146.12 169.45 151.47 171.54 158.29C168.6 157.1 165.85 155.48 163.47 153.37C164.38 163.53 171.26 182.01 158.5 165.09C158.38 169.43 159.53 173.82 158.97 178.06C157.82 176.55 155.91 175.93 155.01 173.93C154.12 179.45 150.33 198.01 148.66 204.02C147.15 202.04 145.66 199.99 144.15 198.01C143.62 203.27 135.8 218.06 132.16 221.69C132.1 220.37 131.92 219.07 131.65 217.79C131.12 221.11 121.81 229.85 121.77 232.94C120.83 229.98 118.85 221.26 118.79 220.94L114.87 236.07L105.67 220.94C105.6 221.26 103.62 229.98 102.69 232.94C102.64 230.23 98.13 224.63 97.28 221.58C96.45 223.69 95.42 225.84 94.38 227.76C93.61 224.48 88.67 210.82 88.33 205.83C87.29 208.54 86.03 211.29 84.43 213.72C82.67 208.82 80.86 203.3 80.32 198.01C78.83 200.01 77.32 202.04 75.81 204.02C74.17 198.01 75.02 190.64 75.11 184.46C74.17 187.27 72.08 189.23 69.89 191.26C68.91 185.48 66.08 169.43 65.97 165.11C53.21 182.05 60.09 163.53 61.01 153.39C58.62 155.5 55.88 157.12 52.94 158.31C55.02 151.49 62.2 146.12 65.23 139.66C62.78 142.22 59.58 143.97 56.73 146.08C80.92 96.53 122.98 79.57 153.31 122.79Z" fill="#FFFFFF" fill-opacity="1.000000" fill-rule="nonzero"/>
		<path id="path" d="M167.75 146.06C164.91 143.95 161.7 142.2 159.25 139.64C162.27 146.12 169.45 151.47 171.54 158.29C168.6 157.1 165.85 155.48 163.47 153.37C164.38 163.53 171.26 182.01 158.5 165.09C158.38 169.43 159.53 173.82 158.97 178.06C157.82 176.55 155.91 175.93 155.01 173.93C154.12 179.45 150.33 198.01 148.66 204.02C147.15 202.04 145.66 199.99 144.15 198.01C143.62 203.27 135.8 218.06 132.16 221.69C132.1 220.37 131.92 219.07 131.65 217.79C131.12 221.11 121.81 229.85 121.77 232.94C120.83 229.98 118.85 221.26 118.79 220.94L114.87 236.07L105.67 220.94C105.6 221.26 103.62 229.98 102.69 232.94C102.64 230.23 98.13 224.63 97.28 221.58C96.45 223.69 95.42 225.84 94.38 227.76C93.61 224.48 88.67 210.82 88.33 205.83C87.29 208.54 86.03 211.29 84.43 213.72C82.67 208.82 80.86 203.3 80.32 198.01C78.83 200.01 77.32 202.04 75.81 204.02C74.17 198.01 75.02 190.64 75.11 184.46C74.17 187.27 72.08 189.23 69.89 191.26C68.91 185.48 66.08 169.43 65.97 165.11C53.21 182.05 60.09 163.53 61.01 153.39C58.62 155.5 55.88 157.12 52.94 158.31C55.02 151.49 62.2 146.12 65.23 139.66C62.78 142.22 59.58 143.97 56.73 146.08C80.92 96.53 122.98 79.57 153.31 122.79C156.8 130.73 161.83 139.66 167.75 146.06Z" stroke="#1D1D1B" stroke-opacity="1.000000" stroke-width="1.000000"/>
		<path id="path" d="M138.44 129.58C144.47 132.16 155.14 142.54 163.98 139.39C160.06 136.96 155.27 133.76 152.31 130.03C162.04 134.89 178.71 140.49 189.19 138.62C180.8 133.01 172.99 124.96 165.66 118.12C177.84 123.64 191.24 125.94 203.61 130.61C196.24 119.95 187.19 111.73 174.33 108.72C182.68 112.19 193.41 111.53 202.89 111.77C194.43 101.48 178.84 95 168.34 87.13C170.98 84.77 180.84 76.58 193.75 69.08C264.99 29.53 134.23 57.77 139.23 60.07C138.36 56.79 137.46 53.53 136.59 50.24C134.84 52.21 133.1 54.19 131.37 56.15C130.63 53.87 129.88 51.57 129.16 49.29C127.39 52.06 125.64 54.85 123.88 57.62C123.83 54.08 124.47 50.03 122.88 46.98C121.34 49.35 120.81 51.25 120.32 53.87C119.34 52.25 119.47 43.02 118.49 41.4C117.68 43.02 115.74 52.25 114.93 53.87C113.8 50.59 111.78 36.09 109.39 33.62C108.59 36.73 106.67 52.06 106.52 55.15C105.82 51.78 99.62 41.19 97.45 38.59C96.55 50.84 101.77 56.19 94.42 49.58C94.25 52.35 92.89 53.25 92.87 56C90.55 52.63 89.48 50.37 86.12 48.28C85.97 51.03 84.33 54.36 84.48 57.13C83.33 54.23 82.56 53.42 80.41 51.57C81.26 61.07 77.6 58.15 72.32 53.46C72.25 54.68 73.25 56.94 71.87 57.49C61.48 45.58 40.99 43.72 27.68 40.61C26.27 57.06 30.87 81.61 45.7 90.73C30.11 101.99 11.84 115.11 2.12 133.38C11.26 130.88 21.85 128.94 29.13 123.57C17.33 129.56 10.52 139.71 5.92 151.83C16.8 144.33 29.26 138.92 39.78 130.63C34.3 139.02 28.64 148.72 21.82 156.16C32.45 155.48 47.32 146.06 55.6 139C53.62 143.33 49.72 147.59 46.51 150.87C55.83 151.81 80.01 143.56 86.84 139.43C91.55 148 101.6 156.67 113.89 154.2C128.56 151.26 134.74 138.81 138.44 129.58Z" fill="#F08630" fill-opacity="1.000000" fill-rule="nonzero"/>
		<path id="path" d="M163.98 139.39C160.06 136.96 155.27 133.76 152.31 130.03C162.04 134.89 178.71 140.49 189.19 138.62C180.8 133.01 172.99 124.96 165.66 118.12C177.84 123.64 191.24 125.94 203.61 130.61C196.24 119.95 187.19 111.73 174.33 108.72C182.68 112.19 193.41 111.53 202.89 111.77C194.43 101.48 178.84 95 168.34 87.13C170.98 84.77 180.84 76.58 193.75 69.08C264.99 29.53 134.23 57.77 139.23 60.07C138.36 56.79 137.46 53.53 136.59 50.24C134.84 52.21 133.1 54.19 131.37 56.15C130.63 53.87 129.88 51.57 129.16 49.29C127.39 52.06 125.64 54.85 123.88 57.62C123.83 54.08 124.47 50.03 122.88 46.98C121.34 49.35 120.81 51.25 120.32 53.87C119.34 52.25 119.47 43.02 118.49 41.4C117.68 43.02 115.74 52.25 114.93 53.87C113.8 50.59 111.78 36.09 109.39 33.62C108.59 36.73 106.67 52.06 106.52 55.15C105.82 51.78 99.62 41.19 97.45 38.59C96.55 50.84 101.77 56.19 94.42 49.58C94.25 52.35 92.89 53.25 92.87 56C90.55 52.63 89.48 50.37 86.12 48.28C85.97 51.03 84.33 54.36 84.48 57.13C83.33 54.23 82.56 53.42 80.41 51.57C81.26 61.07 77.6 58.15 72.32 53.46C72.25 54.68 73.25 56.94 71.87 57.49C61.48 45.58 40.99 43.72 27.68 40.61C26.27 57.06 30.87 81.61 45.7 90.73C30.11 101.99 11.84 115.11 2.12 133.38C11.26 130.88 21.85 128.94 29.13 123.57C17.33 129.56 10.52 139.71 5.92 151.83C16.8 144.33 29.26 138.92 39.78 130.63C34.3 139.02 28.64 148.72 21.82 156.16C32.45 155.48 47.32 146.06 55.6 139C53.62 143.33 49.72 147.59 46.51 150.87C55.83 151.81 80.01 143.56 86.84 139.43C91.55 148 101.6 156.67 113.89 154.2C128.56 151.26 134.74 138.81 138.44 129.58C144.47 132.16 155.14 142.54 163.98 139.39Z" stroke="#1D1D1B" stroke-opacity="1.000000" stroke-width="1.000000"/>
		<path id="path" d="M29.96 44.28C50 51.14 64.74 56.55 67.8 67.48C60.65 71.36 50.47 81.63 48.98 84.41C42.35 94.7 27.66 60.67 29.96 44.28Z" fill="#FCCC7E" fill-opacity="1.000000" fill-rule="nonzero"/>
		<path id="path" d="M67.8 67.48C60.65 71.36 50.47 81.63 48.98 84.41C42.35 94.7 27.66 60.67 29.96 44.28C50 51.14 64.74 56.55 67.8 67.48Z" stroke="#1D1D1B" stroke-opacity="1.000000" stroke-width="1.000000"/>
		<path id="path" d="M174.16 58.77C133.99 67.76 149.39 66.4 163.7 82.68C167.85 83.68 170.32 77.33 180.1 70.47C185.23 67.27 201.29 58.51 206.78 53.89C198.86 54.61 187.55 55.98 174.16 58.77Z" fill="#FCCC7E" fill-opacity="1.000000" fill-rule="nonzero"/>
		<path id="path" d="M163.7 82.68C167.85 83.68 170.32 77.33 180.1 70.47C185.23 67.27 201.29 58.51 206.78 53.89C198.86 54.61 187.55 55.98 174.16 58.77C133.99 67.76 149.39 66.4 163.7 82.68Z" stroke="#1D1D1B" stroke-opacity="1.000000" stroke-width="1.000000"/>
		<path id="path" d="M94.17 132.06C94.17 132.99 94.53 142.63 101.54 146.82C109.88 151.83 122.51 145.95 126.13 136.98C128.22 131.8 126.86 126.77 126.13 124.66L94.17 132.06Z" fill="#FFB3F1" fill-opacity="1.000000" fill-rule="nonzero"/>
		<path id="path" d="M94.17 132.06C94.17 132.99 94.53 142.63 101.54 146.82C109.88 151.83 122.51 145.95 126.13 136.98C128.22 131.8 126.86 126.77 126.13 124.66" stroke="#1D1D1B" stroke-opacity="1.000000" stroke-width="1.000000"/>
		<path id="path" d="M164.06 230.15C154.54 229.04 150.13 222.41 143.89 221.77C144.72 221.6 145.56 221.43 146.36 221.28C144.3 220.88 137.87 219.19 141.25 217.47C136.44 216.13 127.86 209.75 130.54 209.37C127.9 207.81 118.42 206.96 124.54 204.11C122.07 202.44 119.66 201.83 123.81 200.78C99.36 194.35 113.76 160.67 127.69 148C140.85 141.99 138.61 181.18 134.06 177.68C137.72 177.72 141.47 178.64 140.76 178.04C142.74 178.87 145.41 179.39 147.26 180.11C139.55 175.44 150.43 179.28 153.52 181.45C143.25 172.74 162.06 179.09 168.6 181.92C162.59 175.44 171.05 178.85 170.45 178.49C173.41 179.51 185.61 183.52 178.44 179.64C182.91 180.66 187.38 181.71 191.88 182.73L164.06 230.15Z" fill="#F08630" fill-opacity="1.000000" fill-rule="nonzero"/>
		<path id="path" d="M164.06 230.15C154.54 229.04 150.13 222.41 143.89 221.77C144.72 221.6 145.56 221.43 146.36 221.28C144.3 220.88 137.87 219.19 141.25 217.47C136.44 216.13 127.86 209.75 130.54 209.37C127.9 207.81 118.42 206.96 124.54 204.11C122.07 202.44 119.66 201.83 123.81 200.78C99.36 194.35 113.76 160.67 127.69 148C140.85 141.99 138.61 181.18 134.06 177.68C137.72 177.72 141.47 178.64 140.76 178.04C142.74 178.87 145.41 179.39 147.26 180.11C139.55 175.44 150.43 179.28 153.52 181.45C143.25 172.74 162.06 179.09 168.6 181.92C162.59 175.44 171.05 178.85 170.45 178.49C173.41 179.51 185.61 183.52 178.44 179.64C182.91 180.66 187.38 181.71 191.88 182.73" stroke="#1D1D1B" stroke-opacity="1.000000" stroke-width="1.000000"/>
		<path id="path" d="M112.31 191.98C98.83 182.07 119.51 160.14 118.96 147.02C128.94 129.88 152.58 150.17 137.67 162.85L112.31 191.98Z" fill="#F08630" fill-opacity="1.000000" fill-rule="nonzero"/>
		<path id="path" d="M112.31 191.98C98.83 182.07 119.51 160.14 118.96 147.02C128.94 129.88 152.58 150.17 137.67 162.85" stroke="#1D1D1B" stroke-opacity="1.000000" stroke-width="1.000000"/>
		<path id="path" d="M116.57 167.45C102.41 159.67 115.27 137.02 129.2 145.23C143.36 153 130.5 175.66 116.57 167.45Z" fill="#F08630" fill-opacity="1.000000" fill-rule="nonzero"/>
		<path id="path" d="M129.2 145.23C143.36 153 130.5 175.66 116.57 167.45C102.41 159.67 115.27 137.02 129.2 145.23Z" stroke="#1D1D1B" stroke-opacity="1.000000" stroke-width="1.000000"/>
		<path id="path" d="M110.01 175.23C88.29 155.84 136.42 141.73 130.18 169.33L110.01 175.23Z" fill="#F08630" fill-opacity="1.000000" fill-rule="nonzero"/>
		<path id="path" d="M110.01 175.23C88.29 155.84 136.42 141.73 130.18 169.33" stroke="#1D1D1B" stroke-opacity="1.000000" stroke-width="1.000000"/>
		<path id="path" d="M134.35 139.47C132.74 142.92 133.18 146.99 136.8 146.46C138.23 145.67 136.48 140.28 134.35 139.47Z" fill="#F8F7D7" fill-opacity="1.000000" fill-rule="nonzero"/>
		<path id="path" d="M136.8 146.46C138.23 145.67 136.48 140.28 134.35 139.47C132.74 142.92 133.18 146.99 136.8 146.46Z" stroke="#1D1D1B" stroke-opacity="1.000000" stroke-width="1.000000"/>
		<path id="path" d="M126.9 143.58C125.28 147.04 125.73 151.11 129.35 150.57C130.78 149.78 129.03 144.39 126.9 143.58Z" fill="#F8F7D7" fill-opacity="1.000000" fill-rule="nonzero"/>
		<path id="path" d="M129.35 150.57C130.78 149.78 129.03 144.39 126.9 143.58C125.28 147.04 125.73 151.11 129.35 150.57Z" stroke="#1D1D1B" stroke-opacity="1.000000" stroke-width="1.000000"/>
		<path id="path" d="M119.7 154.64C118.08 158.1 118.53 162.17 122.15 161.63C123.58 160.85 121.83 155.45 119.7 154.64Z" fill="#F8F7D7" fill-opacity="1.000000" fill-rule="nonzero"/>
		<path id="path" d="M122.15 161.63C123.58 160.85 121.83 155.45 119.7 154.64C118.08 158.1 118.53 162.17 122.15 161.63Z" stroke="#1D1D1B" stroke-opacity="1.000000" stroke-width="1.000000"/>
		<path id="path" d="M73.91 235.09C82.58 231.02 95.27 216.4 91.53 215.85C95.66 213.06 101.79 204.28 99.13 204.77C101.13 202.47 107.07 194.18 102.79 194.5C123.92 180.64 99.6 153.28 82.37 145.67C67.99 144.16 82.54 180.6 85.76 175.85C82.35 177.04 79.03 179.11 79.49 178.32C77.9 179.75 75.53 181.07 73.98 182.35C79.81 175.49 70.72 182.56 68.46 185.61C75.43 174.08 59.6 186.1 54.3 190.85C57.94 182.8 53.85 188.02 49.51 190.81C50.02 190.15 51 188.72 51.45 188.19C48.96 190.11 38.67 197.78 44.23 191.83L73.91 235.09Z" fill="#F08630" fill-opacity="1.000000" fill-rule="nonzero"/>
		<path id="path" d="M73.91 235.09C82.58 231.02 95.27 216.4 91.53 215.85C95.66 213.06 101.79 204.28 99.13 204.77C101.13 202.47 107.07 194.18 102.79 194.5C123.92 180.64 99.6 153.28 82.37 145.67C67.99 144.16 82.54 180.6 85.76 175.85C82.35 177.04 79.03 179.11 79.49 178.32C77.9 179.75 75.53 181.07 73.98 182.35C79.81 175.49 70.72 182.56 68.46 185.61C75.43 174.08 59.6 186.1 54.3 190.85C57.94 182.8 53.85 188.02 49.51 190.81C50.02 190.15 51 188.72 51.45 188.19C48.96 190.11 38.67 197.78 44.23 191.83" stroke="#1D1D1B" stroke-opacity="1.000000" stroke-width="1.000000"/>
		<path id="path" d="M110.86 182.48C120.49 168.79 93.93 154.58 90.29 141.94C75.38 128.88 59.39 155.6 77.56 162.91L110.86 182.48Z" fill="#F08630" fill-opacity="1.000000" fill-rule="nonzero"/>
		<path id="path" d="M110.86 182.48C120.49 168.79 93.93 154.58 90.29 141.94C75.38 128.88 59.39 155.6 77.56 162.91" stroke="#1D1D1B" stroke-opacity="1.000000" stroke-width="1.000000"/>
		<path id="path" d="M99.07 160.55C110.03 148.68 90.65 131.29 80.05 143.48C69.08 155.35 88.46 172.74 99.07 160.55Z" fill="#F08630" fill-opacity="1.000000" fill-rule="nonzero"/>
		<path id="path" d="M80.05 143.48C69.08 155.35 88.46 172.74 99.07 160.55C110.03 148.68 90.65 131.29 80.05 143.48Z" stroke="#1D1D1B" stroke-opacity="1.000000" stroke-width="1.000000"/>
		<path id="path" d="M107.75 165.83C122.19 140.54 72.1 142.46 86.76 166.64L107.75 165.83Z" fill="#F08630" fill-opacity="1.000000" fill-rule="nonzero"/>
		<path id="path" d="M107.75 165.83C122.19 140.54 72.1 142.46 86.76 166.64" stroke="#1D1D1B" stroke-opacity="1.000000" stroke-width="1.000000"/>
		<path id="path" d="M73.4 140.86C76.02 143.63 76.9 147.61 73.3 148.25C71.7 147.95 71.64 142.28 73.4 140.86Z" fill="#F8F7D7" fill-opacity="1.000000" fill-rule="nonzero"/>
		<path id="path" d="M73.3 148.25C71.7 147.95 71.64 142.28 73.4 140.86C76.02 143.63 76.9 147.61 73.3 148.25Z" stroke="#1D1D1B" stroke-opacity="1.000000" stroke-width="1.000000"/>
		<path id="path" d="M81.77 142.37C84.39 145.14 85.27 149.13 81.67 149.76C80.07 149.47 80.01 143.8 81.77 142.37Z" fill="#F8F7D7" fill-opacity="1.000000" fill-rule="nonzero"/>
		<path id="path" d="M81.67 149.76C80.07 149.47 80.01 143.8 81.77 142.37C84.39 145.14 85.27 149.13 81.67 149.76Z" stroke="#1D1D1B" stroke-opacity="1.000000" stroke-width="1.000000"/>
		<path id="path" d="M92.12 150.6C94.74 153.37 95.62 157.35 92.02 157.99C90.42 157.69 90.36 152.02 92.12 150.6Z" fill="#F8F7D7" fill-opacity="1.000000" fill-rule="nonzero"/>
		<path id="path" d="M92.02 157.99C90.42 157.69 90.36 152.02 92.12 150.6C94.74 153.37 95.62 157.35 92.02 157.99Z" stroke="#1D1D1B" stroke-opacity="1.000000" stroke-width="1.000000"/>
		<path id="path" d="M93.89 134.31C94.42 137.06 96.28 141.86 97.87 144.29C101.15 139.56 102.69 129.54 93.89 134.31Z" fill="#FCF3CC" fill-opacity="1.000000" fill-rule="nonzero"/>
		<path id="path" d="M97.87 144.29C101.15 139.56 102.69 129.54 93.89 134.31C94.42 137.06 96.28 141.86 97.87 144.29Z" stroke="#1D1D1B" stroke-opacity="1.000000" stroke-width="1.000000"/>
		<path id="path" d="M119.74 131.08C119.85 133.87 119.11 138.96 118.1 141.69C113.85 137.81 110.1 128.39 119.74 131.08Z" fill="#FCF3CC" fill-opacity="1.000000" fill-rule="nonzero"/>
		<path id="path" d="M118.1 141.69C113.85 137.81 110.1 128.39 119.74 131.08C119.85 133.87 119.11 138.96 118.1 141.69Z" stroke="#1D1D1B" stroke-opacity="1.000000" stroke-width="1.000000"/>
		<path id="path" d="M104.67 113.28L104.67 130.5C104.01 140.26 84.14 139.58 85.16 129.31L104.67 113.28Z" fill="#F08630" fill-opacity="1.000000" fill-rule="nonzero"/>
		<path id="path" d="M104.67 113.28L104.67 130.5C104.01 140.26 84.14 139.58 85.16 129.31" stroke="#1D1D1B" stroke-opacity="1.000000" stroke-width="1.000000"/>
		<path id="path" d="M104.45 110.19C87.52 109.62 97.66 116.05 102.71 118.91C102.54 120.83 103.54 120.31 105.33 120.36C106.75 120.65 106.54 119.91 106.63 118.91C112.4 115.8 121.32 109.47 104.45 110.19Z" fill="url(#paint_radial_9_61_0)" fill-opacity="1.000000" fill-rule="nonzero"/>
		<path id="path" d="M102.71 118.91C102.54 120.83 103.54 120.31 105.33 120.36C106.75 120.65 106.54 119.91 106.63 118.91C112.4 115.8 121.32 109.47 104.45 110.19C87.52 109.62 97.66 116.05 102.71 118.91Z" stroke="#1D1D1B" stroke-opacity="1.000000" stroke-width="1.000000"/>
		<path id="path" d="M131.97 119.93C133.1 130.52 110.14 144.16 104.69 129.26L131.97 119.93Z" fill="#F08630" fill-opacity="1.000000" fill-rule="nonzero"/>
		<path id="path" d="M131.97 119.93C133.1 130.52 110.14 144.16 104.69 129.26" stroke="#1D1D1B" stroke-opacity="1.000000" stroke-width="1.000000"/>
		<path id="path" d="M98 120.97C98 122.34 95.89 122.34 95.91 120.97C95.91 119.61 98.02 119.61 98 120.97Z" fill="#000000" fill-opacity="1.000000" fill-rule="nonzero"/>
		<path id="path" d="M99.53 125.45C99.53 126.81 97.43 126.81 97.45 125.45C97.45 124.09 99.56 124.09 99.53 125.45Z" fill="#000000" fill-opacity="1.000000" fill-rule="nonzero"/>
		<path id="path" d="M93.1 124.83C93.1 126.2 90.99 126.2 91.02 124.83C91.02 123.47 93.12 123.47 93.1 124.83Z" fill="#000000" fill-opacity="1.000000" fill-rule="nonzero"/>
		<path id="path" d="M110.89 122.38C110.89 123.74 108.78 123.74 108.8 122.38C108.8 121.02 110.91 121.02 110.89 122.38Z" fill="#000000" fill-opacity="1.000000" fill-rule="nonzero"/>
		<path id="path" d="M115.51 126.83C115.08 128.13 113.06 127.43 113.53 126.15C113.95 124.85 115.97 125.56 115.51 126.83Z" fill="#000000" fill-opacity="1.000000" fill-rule="nonzero"/>
		<path id="path" d="M118.57 120.97C118.57 122.34 116.46 122.34 116.49 120.97C116.49 119.61 118.59 119.61 118.57 120.97Z" fill="#000000" fill-opacity="1.000000" fill-rule="nonzero"/>
		<path id="path" d="M68.57 71.07C65.14 69.45 38.12 99.75 47.66 112.88C46.17 105.93 60.71 75.8 68.57 71.07Z" fill="#C86C25" fill-opacity="1.000000" fill-rule="nonzero"/>
		<path id="path" d="M140.23 68.34C143.66 66.72 170.69 97.02 161.14 110.15C162.64 103.2 148.09 73.07 140.23 68.34Z" fill="#C86C25" fill-opacity="1.000000" fill-rule="nonzero"/>
		<path id="path" d="M226.57 15.83C244.31 13.21 274.91 11.35 308.88 23.73C322.1 28.55 333.13 34.54 341.97 40.31C324.72 48.63 299.87 64.03 289.67 91.1C258.68 93.82 231.78 78.16 223.71 55.12C217.62 37.71 224.08 21.35 226.57 15.83Z" fill="#FFFFFF" fill-opacity="1.000000" fill-rule="nonzero"/>
		<path id="path" d="M308.88 23.73C322.1 28.55 333.13 34.54 341.97 40.31C324.72 48.63 299.87 64.03 289.67 91.1C258.68 93.82 231.78 78.16 223.71 55.12C217.62 37.71 224.08 21.35 226.57 15.83C244.31 13.21 274.91 11.35 308.88 23.73Z" stroke="#1D1D1B" stroke-opacity="1.000000" stroke-width="1.000000"/>
		<path id="path" d="M229.27 211.1C231.17 213.5 278.47 193.37 281.57 159.8C282.85 145.97 276.55 130.9 273.91 131.18C271.71 131.42 272.46 142.01 270.42 152.81C263.41 189.98 227.57 208.92 229.27 211.1Z" fill="#C86C25" fill-opacity="1.000000" fill-rule="nonzero"/>
		<path id="path" d="M226.31 27.36C226.25 26.78 264.99 14.72 304.62 26.91C316.48 30.55 325.15 35.37 324.93 35.99C324.59 36.95 302.91 25.82 274.1 25.16C264.54 24.95 249.18 25.76 243.84 26.04C228.97 26.82 226.33 27.51 226.31 27.36Z" fill="#B7CCD1" fill-opacity="1.000000" fill-rule="nonzero"/>
		<path id="polyline" d="M248.65 220L261.88 220.58L252.34 217.36L263.79 214.74L257.7 213.23L273.65 205.41L267.5 204.66L248.65 220Z" fill="#F08630" fill-opacity="1.000000" fill-rule="nonzero"/>
		<path id="polyline" d="M248.65 220L261.88 220.58L252.34 217.36L263.79 214.74L257.7 213.23L273.65 205.41L267.5 204.66" stroke="#1D1D1B" stroke-opacity="1.000000" stroke-width="1.000000"/>
		<path id="polyline" d="M285.15 114.39L293.67 112.05L285.47 121.12L287.58 121.98L286.11 126.58L293.07 129.67L287.39 137.51L285.15 114.39Z" fill="#F08630" fill-opacity="1.000000" fill-rule="nonzero"/>
		<path id="polyline" d="M285.15 114.39L293.67 112.05L285.47 121.12L287.58 121.98L286.11 126.58L293.07 129.67L287.39 137.51" stroke="#1D1D1B" stroke-opacity="1.000000" stroke-width="1.000000"/>
		<path id="polyline" d="M257.45 14.66L273.53 4.28L264.62 15.7L273.53 8.24L274.25 16.28L282.85 11.76L282.85 15.87L298.65 12.89L292.63 18.81L257.45 14.66Z" fill="#FFFFFD" fill-opacity="1.000000" fill-rule="nonzero"/>
		<path id="polyline" d="M257.45 14.66L273.53 4.28L264.62 15.7L273.53 8.24L274.25 16.28L282.85 11.76L282.85 15.87L298.65 12.89L292.63 18.81" stroke="#1D1D1B" stroke-opacity="1.000000" stroke-width="1.000000"/>
		<path id="path" d="M76.13 93.7C75.47 92.99 75.38 87.41 77.62 84.87C81.01 81.02 87.63 82.1 88.01 83.11C88.08 83.28 83.63 85.43 80.58 88.41C76.41 92.5 76.94 94.55 76.13 93.7Z" fill="#C9590D" fill-opacity="1.000000" fill-rule="nonzero"/>
		<path id="path" d="M132.78 92.27C133.44 91.57 133.52 85.98 131.29 83.45C127.9 79.59 121.28 80.68 120.89 81.68C120.83 81.85 125.28 84 128.33 86.98C132.5 91.08 131.97 93.12 132.78 92.27Z" fill="#C9590D" fill-opacity="1.000000" fill-rule="nonzero"/>
		<path id="path" d="M52.36 159.12C50.68 160.76 50 165.32 47.44 168.97C44.7 172.89 41.78 181.77 38.69 195.6C37.33 201.66 35.33 210.61 37.05 221.67C37.5 224.52 39.03 232.96 43.63 239.91C53.75 255.17 72.02 238.18 76.96 232.98L52.36 159.12ZM52.01 158.79L52.01 158.76C52.21 158.57 52.53 158.57 52.72 158.77C52.92 158.97 52.91 159.28 52.71 159.48L52.68 159.48L52.01 158.79ZM76.6 232.67L76.6 232.64C76.79 232.43 77.1 232.43 77.3 232.62C77.51 232.81 77.52 233.12 77.32 233.33L77.29 233.33L76.6 232.67Z" fill="#F08630" fill-opacity="1.000000" fill-rule="nonzero"/>
		<path id="path" d="M52.36 159.12C50.68 160.76 50 165.32 47.44 168.97C44.7 172.89 41.78 181.77 38.69 195.6C37.33 201.66 35.33 210.61 37.05 221.67C37.5 224.52 39.03 232.96 43.63 239.91C53.75 255.17 72.02 238.18 76.96 232.98" stroke="#1D1D1B" stroke-opacity="1.000000" stroke-width="1.000000" stroke-linejoin="round" stroke-linecap="round"/>
		<path id="path" d="M165.77 146.42C167.45 148.06 168.13 152.62 170.69 156.26C173.43 160.19 176.35 169.07 179.44 182.9C180.8 188.95 182.8 197.9 181.08 208.96C180.63 211.82 179.1 220.26 174.5 227.21C164.38 242.46 146.11 225.48 141.17 220.28L165.77 146.42ZM165.44 146.78L165.42 146.78C165.22 146.58 165.21 146.27 165.41 146.07C165.6 145.87 165.91 145.87 166.11 146.06L166.12 146.09L165.44 146.78ZM140.83 220.63L140.81 220.62C140.61 220.42 140.62 220.11 140.82 219.92C141.03 219.73 141.34 219.73 141.53 219.94L141.53 219.96L140.83 220.63Z" fill="#F08630" fill-opacity="1.000000" fill-rule="nonzero"/>
		<path id="path" d="M165.77 146.42C167.45 148.06 168.13 152.62 170.69 156.26C173.43 160.19 176.35 169.07 179.44 182.9C180.8 188.95 182.8 197.9 181.08 208.96C180.63 211.82 179.1 220.26 174.5 227.21C164.38 242.46 146.11 225.48 141.17 220.28" stroke="#1D1D1B" stroke-opacity="1.000000" stroke-width="1.000000" stroke-linejoin="round" stroke-linecap="round"/>
		<path id="path" d="M121.21 108.21C129.88 107.34 128.41 92.84 119.77 93.97C111.1 94.85 112.57 109.34 121.21 108.21Z" fill="#FFFFFF" fill-opacity="1.000000" fill-rule="nonzero"/>
		<path id="path" d="M119.77 93.97C111.1 94.85 112.57 109.34 121.21 108.21C129.88 107.34 128.41 92.84 119.77 93.97Z" stroke="#1D1D1B" stroke-opacity="1.000000" stroke-width="0.500000"/>
		<path id="path" d="M92.78 108.02C101.26 105.91 97.94 91.76 89.52 94.12C81.05 96.23 84.37 110.38 92.78 108.02Z" fill="#FFFFFF" fill-opacity="1.000000" fill-rule="nonzero"/>
		<path id="path" d="M89.52 94.12C81.05 96.23 84.37 110.38 92.78 108.02C101.26 105.91 97.94 91.76 89.52 94.12Z" stroke="#1D1D1B" stroke-opacity="1.000000" stroke-width="0.500000"/>
		<ellipse id="circle" cx="90.147217" cy="103.525696" rx="5.004625" ry="5.007927" fill="#000000" fill-opacity="1.000000"/>
		<ellipse id="circle" cx="119.195312" cy="102.524109" rx="5.004625" ry="5.007927" fill="#000000" fill-opacity="1.000000"/>
		<path id="path" d="M120.77 99.92C119.83 101.03 121.49 102.58 122.41 101.45C123.34 100.35 121.68 98.79 120.77 99.92Z" fill="#FFFFFF" fill-opacity="1.000000" fill-rule="nonzero"/>
		<path id="path" d="M89.63 99.92C88.69 101.03 90.36 102.58 91.27 101.45C92.21 100.35 90.55 98.79 89.63 99.92Z" fill="#FFFFFF" fill-opacity="1.000000" fill-rule="nonzero"/>
	</g>
</svg>
