<?xml version="1.0" encoding="UTF-8"?>
<svg id="_Слой_1" data-name="Слой 1" xmlns="http://www.w3.org/2000/svg" width="500" height="500" viewBox="0 0 500 500">
  <defs>
    <style>
      .cls-1 {
        fill: #fdfef5;
      }

      .cls-1, .cls-2, .cls-3 {
        opacity: .49;
      }

      .cls-4 {
        fill: #fffcc6;
      }

      .cls-4, .cls-5 {
        stroke: #d8bb2b;
        stroke-miterlimit: 10;
      }

      .cls-6 {
        fill: #ffff94;
      }

      .cls-2 {
        fill: #fffdfc;
      }

      .cls-3 {
        fill: #fffee3;
      }

      .cls-5 {
        fill: #f9e570;
      }
    </style>
  </defs>
  <path class="cls-5" d="m68.7,327.6c6.95-12.45,13.32-21.94,16.02-37.69,0,0,2.41-14.07.16-27.5-7.59-45.13-73.35-65.11-68.63-81.28,1.71-5.85,23.65-10.98,67.54-21.25,14.21-3.33,22.14-4.99,27.32-12.25,5.45-7.64,3.49-15.42,0-43.34-5.28-42.25-3.44-45.59-1.88-46.17,4.14-1.55,10.03,15.12,30.15,32.04,9.87,8.3,23.59,19.84,34.86,16.02,4.84-1.64,8.29-5.79,17.9-31.09,12.16-32.02,15.33-48.27,19.79-48.05,2.85.14,3.57,6.9,9.42,23.56,7.27,20.7,10.91,31.05,16.96,33.92,11.8,5.6,29.9-8.95,48.05-23.56,29.84-23.99,35.48-38.89,43.34-36.75,16.66,4.54-1.86,73.33,30.15,93.28,7.08,4.41,16.34,4.51,34.86,4.71,44.06.48,69.29-11.92,72.55-5.65,3.67,7.04-28.83,21.5-39.57,60.3-2.03,7.33-3.38,12.21-2.83,18.84,3.18,38.22,62.93,56.25,59.36,66.9-3.23,9.63-51.75-5.98-61.25,10.36-2.48,4.26-2.89,11.72,19.79,49,24.68,40.57,40.72,57.27,36.75,62.19-5.04,6.25-34.57-16.1-84.8-18.84-17.7-.97-22.75,1.33-25.44,4.71-13.6,17.07,28.03,67.6,21.67,72.55-3.87,3.01-22.27-13.32-34.86-24.5-26.55-23.56-31.91-33.83-39.57-32.04-9.69,2.27-7.69,20.23-22.61,50.88-7.75,15.91-19.21,39.66-30.15,38.63-16.95-1.59-13.63-60.84-47.02-73.14-6.94-2.56-12.85-2.12-17.16-1.81-44.81,3.29-70.17,66.48-78.57,62.31-3.95-1.96,1.52-16.07,2.71-47.86.76-20.4,1.05-30.69-3.61-35.22-16-15.54-64.19,19.92-74.01,8.09-6.6-7.95,7.49-33.2,22.61-60.3Z"/>
  <path class="cls-6" d="m106.55,318.4c4.39-4.96,11.95-13,17.16-26.19,1.43-3.63,4.1-10.39,4.52-17.16,1.58-25.92-24.79-49.11-38.48-60.86-23.63-20.28-41.76-26.06-40.08-31.26,1.24-3.84,18.51-4.72,53.06-6.47.3-.02.78-.04,1.42-.1,4.28-.36,15.13-1.87,20.7-9.16,4.42-5.77,2.83-11.65,0-32.75-4.28-31.92-2.78-34.44-1.53-34.88,3.35-1.17,8.12,11.42,24.42,24.2,7.99,6.27,19.1,14.99,28.23,12.1,3.92-1.24,6.72-4.38,14.5-23.49,9.85-24.19,12.41-36.47,16.02-36.3,2.31.11,2.89,5.21,7.63,17.8,5.89,15.64,8.83,23.46,13.74,25.63,9.56,4.23,24.21-6.77,38.92-17.8,24.17-18.13,28.74-29.38,35.1-27.76,13.49,3.43-1.51,55.4,24.42,70.47,5.73,3.33,13.23,3.41,28.23,3.56,35.68.36,56.11-9.01,58.76-4.27,2.97,5.32-23.35,16.24-32.05,45.56-1.64,5.53-2.74,9.22-2.29,14.24,2.57,28.87,50.97,42.5,48.07,50.54-2.61,7.27-41.91-4.52-49.6,7.83-2.01,3.22-2.34,8.86,16.02,37.02,19.99,30.65,32.98,43.26,29.76,46.98-4.08,4.72-28-12.16-68.68-14.24-14.34-.73-18.42,1-20.6,3.56-11.02,12.9,22.7,51.07,17.55,54.81-1.86,1.35-8.96-6.05-28.23-18.51-11.31-7.31-17.26-10.19-21.63-7.96-4.08,2.08-5.03,7.72-5.42,9.93-3.57,20.35-16.54,75.27-24.38,75.86-6.18.46-5.19-33.17-30.7-55.09-4.25-3.65-15.21-12.81-30.7-13.55-5.95-.28-14.57.58-29.8,9.03-30.56,16.96-40.88,38.49-46.06,36.12-9.38-4.28,23.49-75.55,7.08-87.1-14.65-10.31-59.8,33.06-64.88,27.49-3.43-3.75,14.1-30.11,29.8-47.86Z"/>
  <circle class="cls-4" cx="254.65" cy="254.29" r="111.08"/>
  <circle class="cls-3" cx="254.65" cy="254.29" r="93.02"/>
  <circle class="cls-1" cx="254.38" cy="254.14" r="72.91"/>
  <circle class="cls-2" cx="250.38" cy="249.98" r="57.24"/>
</svg>