<?xml version="1.0" encoding="UTF-8"?>
<svg id="_Слой_1" data-name="Слой 1" xmlns="http://www.w3.org/2000/svg" width="500" height="500" viewBox="0 0 500 500">
  <defs>
    <style>
      .cls-1 {
        fill: #636b03;
        opacity: .5;
      }

      .cls-2 {
        fill: #94a514;
        stroke: #2a4700;
      }

      .cls-2, .cls-3, .cls-4, .cls-5, .cls-6, .cls-7, .cls-8, .cls-9 {
        stroke-miterlimit: 10;
      }

      .cls-10 {
        fill: #7d5b1b;
      }

      .cls-10, .cls-11, .cls-12 {
        opacity: .49;
      }

      .cls-11 {
        fill: #5d330b;
      }

      .cls-13, .cls-14 {
        opacity: .57;
      }

      .cls-13, .cls-15 {
        fill: #f6f9d4;
      }

      .cls-12 {
        fill: #774019;
      }

      .cls-14 {
        fill: #593f05;
      }

      .cls-3, .cls-4, .cls-5, .cls-7, .cls-9 {
        stroke: #f7931e;
      }

      .cls-3, .cls-8 {
        fill: none;
      }

      .cls-16 {
        fill: #2d0d00;
      }

      .cls-4 {
        fill: #fbe305;
      }

      .cls-5 {
        fill: #f4c714;
      }

      .cls-17, .cls-9 {
        fill: #f1b517;
      }

      .cls-6 {
        fill: #7c5900;
        stroke: #492f00;
      }

      .cls-7 {
        fill: #f2c40c;
      }

      .cls-8 {
        stroke: #000;
        stroke-width: .5px;
      }
    </style>
  </defs>
  <path class="cls-2" d="m209.5,335.5c16.65,11.22,30.97,25.83,30,27-1.75,2.12-55.46-37.79-54-40,.71-1.07,14.46,6.57,24,13Z"/>
  <path class="cls-6" d="m179.36,429.46c6.52-3.42,9.78-5.12,14.57-5.83,10.9-1.6,15.47,3.8,27.06,5,8.74.9,8.79-1.9,24.15-4.16,10.37-1.53,28.55-4.02,47.88,2.5,7.79,2.63,14.64,6.33,18.32,8.33,11.18,6.06,16.77,9.08,16.65,10.83-.79,11.67-169.13,14.34-170.7-.42-.47-4.43,13.92-11.97,22.07-16.24Z"/>
  <g>
    <path class="cls-2" d="m225.74,436.08c2.73,6.23,6.58,4.18,7.91,3.47,12.22-6.49,18.04-69.67,18.74-108.77,1.01-56.54-7.95-104.57-17.9-133.08-1.88-5.39-4.23-11.12-4.23-11.12-1.08-2.51-5.9-13.72-6.6-12.03-.91,2.23,6.39,24.4,9.58,41.66,14.93,80.95-18.9,193.82-7.49,219.86Z"/>
    <path class="cls-1" d="m252.52,330.39c-.7,39.1-6.51,102.28-18.74,108.77-1.32.71-5.18,2.75-7.91-3.47-.99-2.26-1.64-5.17-2-8.66,2.85-.54,6.12-2.43,9.36-7.16,9.23-13.52,12.15-41.45,14.57-65.96,2.94-29.69,3.16-57.71,2.26-81.58,1.86,17.86,2.82,37.39,2.46,58.06Z"/>
    <path class="cls-1" d="m241.36,220.52c-.9,2.52-1.93,4.99-3.13,7.27-.85,1.63-1.71,3.02-2.54,4.18-.29-2.7-.62-5.38-1-8.03-.39-2.73-.83-5.43-1.32-8.1-3.18-17.25-10.49-39.44-9.58-41.66.7-1.7,5.52,9.51,6.6,12.02,0,0,2.35,5.73,4.23,11.12,1.67,4.79,3.31,10.13,4.89,15.97.63,2.33,1.24,4.74,1.85,7.23Z"/>
  </g>
  <path class="cls-14" d="m326.12,445.89c-.4,5.95-46.63,9.45-89.69,9.25,37.51-6.57,51.36-10.26,51.14-12.12-.32-2.82-32.51,1.05-36.5-9.92-.93-2.56-.17-5.53,1.56-8.59,10.16-1.25,24.78-2.05,40.16,3.13,7.43,2.5,13.95,6.03,17.46,7.93,10.66,5.77,15.98,8.65,15.87,10.31Z"/>
  <path class="cls-14" d="m206.41,425.17c-7.07,5.13-15.78,10.38-26.22,14.7-8.38,3.48-16.25,5.69-23.16,7.11-.29-.38-.46-.78-.5-1.19-.02-.23,0-.47.05-.72.97-4.49,14.31-11.48,22.02-15.52,6.52-3.42,9.78-5.13,14.57-5.83,2.66-.39,4.95-.37,7.05-.08,2.19.29,4.18.86,6.2,1.52Z"/>
  <g>
    <g>
      <circle class="cls-16" cx="232.27" cy="152.91" r="68.73"/>
      <circle class="cls-11" cx="232.27" cy="152.91" r="57.56"/>
      <circle class="cls-12" cx="232.1" cy="152.83" r="45.12"/>
      <circle class="cls-10" cx="232.1" cy="152.73" r="35.42"/>
    </g>
    <g>
      <line class="cls-8" x1="181.01" y1="84.48" x2="178.71" y2="218.65"/>
      <line class="cls-8" x1="187.48" y1="84.48" x2="185.18" y2="218.65"/>
      <line class="cls-8" x1="168.05" y1="81.7" x2="165.75" y2="215.87"/>
      <line class="cls-8" x1="174.53" y1="81.7" x2="172.23" y2="215.87"/>
      <line class="cls-8" x1="205.99" y1="87.25" x2="203.69" y2="221.43"/>
      <line class="cls-8" x1="212.47" y1="87.25" x2="210.17" y2="221.43"/>
      <line class="cls-8" x1="193.04" y1="84.48" x2="190.74" y2="218.65"/>
      <line class="cls-8" x1="199.51" y1="84.48" x2="197.21" y2="218.65"/>
      <line class="cls-8" x1="231.9" y1="80.91" x2="229.6" y2="221.43"/>
      <line class="cls-8" x1="238.38" y1="80.91" x2="236.08" y2="221.43"/>
      <line class="cls-8" x1="218.94" y1="84.48" x2="216.65" y2="218.65"/>
      <line class="cls-8" x1="225.42" y1="78" x2="223.12" y2="218.52"/>
      <line class="cls-8" x1="256.88" y1="90.03" x2="254.58" y2="224.2"/>
      <line class="cls-8" x1="263.36" y1="90.03" x2="261.06" y2="224.2"/>
      <line class="cls-8" x1="243.93" y1="80.91" x2="241.63" y2="221.43"/>
      <line class="cls-8" x1="250.41" y1="87.25" x2="248.11" y2="221.43"/>
      <line class="cls-8" x1="283.72" y1="92.81" x2="281.42" y2="226.98"/>
      <line class="cls-8" x1="290.19" y1="92.81" x2="287.9" y2="226.98"/>
      <line class="cls-8" x1="270.76" y1="90.03" x2="268.46" y2="224.2"/>
      <line class="cls-8" x1="277.24" y1="90.03" x2="274.94" y2="224.2"/>
      <line class="cls-8" x1="295.75" y1="92.81" x2="293.45" y2="226.98"/>
      <line class="cls-8" x1="163.97" y1="204.29" x2="298.15" y2="202.99"/>
      <line class="cls-8" x1="163.79" y1="197.81" x2="297.98" y2="196.52"/>
      <line class="cls-8" x1="161.54" y1="217.31" x2="295.72" y2="216.02"/>
      <line class="cls-8" x1="161.36" y1="210.83" x2="295.55" y2="209.54"/>
      <line class="cls-8" x1="166.07" y1="179.24" x2="300.26" y2="177.94"/>
      <line class="cls-8" x1="165.9" y1="172.76" x2="300.09" y2="171.47"/>
      <line class="cls-8" x1="163.64" y1="192.26" x2="297.83" y2="190.97"/>
      <line class="cls-8" x1="163.47" y1="185.79" x2="297.66" y2="184.49"/>
      <line class="cls-8" x1="159.04" y1="153.51" x2="299.57" y2="152.05"/>
      <line class="cls-8" x1="158.86" y1="147.03" x2="299.39" y2="145.57"/>
      <line class="cls-8" x1="162.95" y1="166.36" x2="297.14" y2="165.07"/>
      <line class="cls-8" x1="156.3" y1="160.06" x2="296.83" y2="158.6"/>
      <line class="cls-8" x1="167.49" y1="128.29" x2="301.67" y2="127"/>
      <line class="cls-8" x1="167.31" y1="121.81" x2="301.5" y2="120.52"/>
      <line class="cls-8" x1="158.71" y1="141.48" x2="299.24" y2="140.02"/>
      <line class="cls-8" x1="164.88" y1="134.84" x2="299.07" y2="133.55"/>
      <line class="cls-8" x1="169.54" y1="101.39" x2="303.73" y2="100.1"/>
      <line class="cls-8" x1="169.37" y1="94.91" x2="303.56" y2="93.62"/>
      <line class="cls-8" x1="167.11" y1="114.41" x2="301.3" y2="113.12"/>
      <line class="cls-8" x1="166.94" y1="107.94" x2="301.13" y2="106.65"/>
      <line class="cls-8" x1="169.22" y1="89.36" x2="303.41" y2="88.07"/>
    </g>
    <g>
      <g>
        <path class="cls-5" d="m176.05,114.88c4.35-.43,8.92-3.97,9.85-4.69,3.47-2.69,4.47-4.89,6.86-7.8,7.1-8.63,13.53-6.96,15.47-11.9,3.66-9.33-7.48-24.14-19.52-31.48-9.73-5.93-28.56-12.14-37.75-3.16-12.2,11.92,3.64,39.76,4.69,41.56,1.92,3.3,10.51,18.45,20.4,17.47Z"/>
        <g>
          <g>
            <path class="cls-17" d="m189.84,103.54c.03-.82-6.06-.41-14.5-3.84-8.78-3.57-12.91-8.38-13.45-7.79-.64.7,4.08,8.59,12.4,11.75,7.58,2.87,15.51.82,15.55-.11Z"/>
            <path class="cls-3" d="m189.84,103.54c.03-.82-6.06-.41-14.5-3.84-8.78-3.57-12.91-8.38-13.45-7.79-.64.7,4.08,8.59,12.4,11.75,7.58,2.87,15.51.82,15.55-.11Z"/>
          </g>
          <path class="cls-9" d="m191.23,98.27c.73-.68-5.28-8.41-10.22-13.89-6.91-7.66-15.4-15-16.18-14.26-.73.69,5.39,8.51,10.39,14.03,6.82,7.53,15.23,14.84,16.01,14.11Z"/>
          <g>
            <path class="cls-17" d="m196.29,95.87c-.82-.03,0-6.08-2.85-14.73-2.97-9-7.49-13.45-6.86-13.95.74-.59,8.3,4.65,10.88,13.17,2.35,7.76-.24,15.53-1.17,15.5Z"/>
            <path class="cls-3" d="m196.29,95.87c-.82-.03,0-6.08-2.85-14.73-2.97-9-7.49-13.45-6.86-13.95.74-.59,8.3,4.65,10.88,13.17,2.35,7.76-.24,15.53-1.17,15.5Z"/>
          </g>
        </g>
      </g>
      <g>
        <path class="cls-5" d="m172.58,177.86c1.83-3.97,1.09-9.71.93-10.87-.56-4.35-1.96-6.33-3.26-9.86-3.85-10.49.85-15.19-2.44-19.37-6.2-7.88-24.61-5.76-37.03.92-10.03,5.4-24.92,18.49-21.82,30.97,4.11,16.56,36.14,16.97,38.23,16.97,3.82,0,21.23.26,25.39-8.76Z"/>
        <g>
          <g>
            <path class="cls-17" d="m169.77,160.23c-.69-.44-3.42,5.02-10.65,10.57-7.52,5.77-13.76,6.9-13.53,7.66.28.91,9.47.83,16.41-4.76,6.31-5.09,8.55-12.97,7.76-13.47Z"/>
            <path class="cls-3" d="m169.77,160.23c-.69-.44-3.42,5.02-10.65,10.57-7.52,5.77-13.76,6.9-13.53,7.66.28.91,9.47.83,16.41-4.76,6.31-5.09,8.55-12.97,7.76-13.47Z"/>
          </g>
          <path class="cls-9" d="m165.93,156.36c-.22-.97-9.92.3-17.15,1.79-10.1,2.09-20.73,5.7-20.49,6.74.23.98,10.07-.34,17.36-1.86,9.94-2.07,20.51-5.63,20.27-6.67Z"/>
          <g>
            <path class="cls-17" d="m166.42,150.79c-.44.69-5.24-3.08-14.14-4.99-9.27-1.99-15.39-.34-15.5-1.13-.14-.94,8.21-4.81,16.87-2.72,7.88,1.9,13.28,8.06,12.78,8.85Z"/>
            <path class="cls-3" d="m166.42,150.79c-.44.69-5.24-3.08-14.14-4.99-9.27-1.99-15.39-.34-15.5-1.13-.14-.94,8.21-4.81,16.87-2.72,7.88,1.9,13.28,8.06,12.78,8.85Z"/>
          </g>
        </g>
      </g>
      <g>
        <path class="cls-4" d="m166.04,143.48c3.36-2.8,5.15-8.3,5.52-9.41,1.36-4.17.95-6.56,1.3-10.3,1.03-11.13,7.3-13.35,6.13-18.54-2.21-9.78-19.74-15.78-33.83-15.09-11.38.56-30.45,5.98-33.02,18.57-3.41,16.71,25.33,30.86,27.21,31.76,3.44,1.65,19.05,9.37,26.69,3Z"/>
        <g>
          <path class="cls-7" d="m171.08,126.36c-.43-.7-5.25,3.07-14.15,4.96-9.27,1.97-15.39.31-15.51,1.1-.14.94,8.2,4.82,16.86,2.76,7.88-1.88,13.3-8.03,12.8-8.82Z"/>
          <path class="cls-7" d="m169.28,121.21c.22-.98-9.09-4-16.25-5.76-10.02-2.46-21.16-3.77-21.39-2.72-.22.98,9.24,4.02,16.48,5.78,9.86,2.4,20.94,3.74,21.17,2.69Z"/>
          <path class="cls-7" d="m172.12,116.39c-.69.44-3.41-5.03-10.62-10.59-7.51-5.78-13.75-6.93-13.51-7.69.28-.91,9.48-.81,16.4,4.79,6.3,5.1,8.52,12.99,7.73,13.49Z"/>
        </g>
      </g>
      <g>
        <path class="cls-5" d="m223.23,216.84c-1.9-3.94-6.8-7.01-7.79-7.64-3.72-2.33-6.13-2.52-9.68-3.76-10.55-3.7-11.18-10.32-16.5-10.44-10.02-.23-20.1,15.32-22.85,29.15-2.22,11.18-1.59,30.99,10.01,36.54,15.39,7.36,36.09-17.08,37.42-18.69,2.44-2.94,13.71-16.21,9.39-25.16Z"/>
        <g>
          <g>
            <path class="cls-17" d="m207.84,207.79c-.78.25,1.7,5.84,1.38,14.94-.34,9.47-3.44,15-2.7,15.31.88.36,6.67-6.78,6.77-15.69.09-8.1-4.56-14.85-5.45-14.56Z"/>
            <path class="cls-3" d="m207.84,207.79c-.78.25,1.7,5.84,1.38,14.94-.34,9.47-3.44,15-2.7,15.31.88.36,6.67-6.78,6.77-15.69.09-8.1-4.56-14.85-5.45-14.56Z"/>
          </g>
          <path class="cls-9" d="m202.41,208.29c-.89-.45-6.08,7.85-9.53,14.37-4.82,9.12-8.79,19.61-7.83,20.09.9.45,6.14-7.99,9.61-14.58,4.72-8.99,8.7-19.41,7.75-19.88Z"/>
          <g>
            <path class="cls-17" d="m198.42,204.37c.26.78-5.71,2.09-12.85,7.74-7.43,5.88-10.05,11.65-10.74,11.24-.81-.49,1.52-9.39,8.63-14.74,6.48-4.87,14.67-5.12,14.96-4.23Z"/>
            <path class="cls-3" d="m198.42,204.37c.26.78-5.71,2.09-12.85,7.74-7.43,5.88-10.05,11.65-10.74,11.24-.81-.49,1.52-9.39,8.63-14.74,6.48-4.87,14.67-5.12,14.96-4.23Z"/>
          </g>
        </g>
      </g>
      <g>
        <path class="cls-4" d="m192.55,200c-.02-4.37-3.12-9.25-3.75-10.24-2.35-3.71-4.46-4.91-7.12-7.56-7.93-7.88-5.66-14.13-10.4-16.52-8.95-4.52-24.74,5.19-33.17,16.49-6.81,9.13-14.76,27.29-6.68,37.29,10.72,13.27,39.93.09,41.82-.78,3.46-1.61,19.35-8.74,19.3-18.68Z"/>
        <g>
          <path class="cls-7" d="m182.55,185.22c-.81-.11-.97,6-5.18,14.08-4.38,8.41-9.55,12.07-9.02,12.66.63.7,8.94-3.25,12.86-11.25,3.57-7.28,2.27-15.37,1.34-15.49Z"/>
          <path class="cls-7" d="m177.43,183.34c-.61-.79-8.86,4.47-14.78,8.88-8.27,6.16-16.37,13.93-15.71,14.77.62.8,8.98-4.57,14.95-9.03,8.13-6.08,16.2-13.78,15.55-14.62Z"/>
          <path class="cls-7" d="m175.51,178.08c-.1.81-6.05-.57-14.93,1.46-9.24,2.11-14.09,6.2-14.53,5.53-.52-.79,5.41-7.83,14.13-9.6,7.94-1.61,15.44,1.69,15.33,2.61Z"/>
        </g>
      </g>
      <g>
        <path class="cls-5" d="m283.57,198.46c-4.36-.35-9.49,2.32-10.53,2.86-3.89,2.03-5.27,4.02-8.14,6.45-8.53,7.23-14.56,4.43-17.35,8.95-5.27,8.53,3.05,25.09,13.59,34.46,8.52,7.57,25.93,17.05,36.58,9.85,14.14-9.55,3.52-39.77,2.8-41.73-1.3-3.59-7.05-20.03-16.96-20.83Z"/>
        <g>
          <g>
            <path class="cls-17" d="m267.98,207.15c-.18.8,5.89,1.48,13.58,6.37,8,5.08,11.2,10.55,11.84,10.07.76-.57-2.48-9.18-10.11-13.77-6.94-4.18-15.12-3.57-15.32-2.66Z"/>
            <path class="cls-3" d="m267.98,207.15c-.18.8,5.89,1.48,13.58,6.37,8,5.08,11.2,10.55,11.84,10.07.76-.57-2.48-9.18-10.11-13.77-6.94-4.18-15.12-3.57-15.32-2.66Z"/>
          </g>
          <path class="cls-9" d="m265.66,212.09c-.84.54,3.69,9.21,7.58,15.49,5.43,8.77,12.47,17.51,13.37,16.92.85-.55-3.78-9.34-7.72-15.66-5.36-8.62-12.34-17.32-13.23-16.74Z"/>
          <g>
            <path class="cls-17" d="m260.26,213.55c.8.17-1.09,5.98.17,15,1.31,9.39,4.97,14.57,4.26,14.95-.83.45-7.33-6.06-8.35-14.9-.93-8.05,3.01-15.24,3.92-15.04Z"/>
            <path class="cls-3" d="m260.26,213.55c.8.17-1.09,5.98.17,15,1.31,9.39,4.97,14.57,4.26,14.95-.83.45-7.33-6.06-8.35-14.9-.93-8.05,3.01-15.24,3.92-15.04Z"/>
          </g>
        </g>
      </g>
      <g>
        <path class="cls-4" d="m253.53,216.41c-3.78-2.19-9.56-1.99-10.73-1.95-4.39.15-6.49,1.36-10.12,2.32-10.81,2.85-15.05-2.26-19.51.62-8.42,5.43-8.04,23.96-2.55,36.95,4.44,10.5,16.08,26.54,28.79,24.63,16.87-2.54,20.28-34.39,20.48-36.47.37-3.8,2.25-21.11-6.35-26.1Z"/>
        <g>
          <path class="cls-7" d="m235.72,217.56c-.5.65,4.68,3.87,9.52,11.59,5.04,8.03,5.58,14.35,6.36,14.18.93-.19,1.71-9.36-3.2-16.78-4.47-6.76-12.11-9.73-12.68-8.99Z"/>
          <path class="cls-7" d="m231.5,221.02c-.99.13-.63,9.91.18,17.24,1.13,10.25,3.73,21.17,4.8,21.03,1-.13.6-10.06-.23-17.46-1.13-10.09-3.69-20.95-4.75-20.81Z"/>
          <path class="cls-7" d="m226,220.01c.65.5-3.55,4.93-6.29,13.61-2.85,9.04-1.78,15.29-2.58,15.33-.95.05-4.02-8.62-1.13-17.05,2.62-7.67,9.27-12.47,10.01-11.9Z"/>
        </g>
      </g>
      <g>
        <path class="cls-5" d="m293.66,130.4c-2.08,3.85-1.7,9.62-1.62,10.79.29,4.38,1.56,6.44,2.62,10.05,3.18,10.72-1.81,15.11,1.2,19.49,5.68,8.26,24.2,7.31,37.01,1.44,10.36-4.75,26.04-16.87,23.75-29.52-3.05-16.78-34.99-19.23-37.07-19.37-3.81-.25-21.17-1.61-25.89,7.13Z"/>
        <g>
          <g>
            <path class="cls-17" d="m295.34,148.17c.66.48,3.73-4.8,11.3-9.87,7.87-5.28,14.17-6.01,13.99-6.79-.22-.92-9.4-1.43-16.68,3.71-6.62,4.67-9.36,12.4-8.61,12.95Z"/>
            <path class="cls-3" d="m295.34,148.17c.66.48,3.73-4.8,11.3-9.87,7.87-5.28,14.17-6.01,13.99-6.79-.22-.92-9.4-1.43-16.68,3.71-6.62,4.67-9.36,12.4-8.61,12.95Z"/>
          </g>
          <path class="cls-9" d="m298.92,152.28c.16.99,9.92.33,17.23-.7,10.21-1.44,21.05-4.37,20.87-5.43-.16-1-10.07-.3-17.45.75-10.05,1.44-20.83,4.32-20.66,5.37Z"/>
          <g>
            <path class="cls-17" d="m298.08,157.81c.48-.67,5.03,3.4,13.8,5.88,9.12,2.58,15.34,1.32,15.4,2.12.08.95-8.5,4.27-17.01,1.64-7.74-2.39-12.74-8.89-12.19-9.64Z"/>
            <path class="cls-3" d="m298.08,157.81c.48-.67,5.03,3.4,13.8,5.88,9.12,2.58,15.34,1.32,15.4,2.12.08.95-8.5,4.27-17.01,1.64-7.74-2.39-12.74-8.89-12.19-9.64Z"/>
          </g>
        </g>
      </g>
      <g>
        <path class="cls-4" d="m297.99,165.13c-3.53,2.58-5.67,7.95-6.1,9.04-1.62,4.08-1.37,6.49-1.95,10.2-1.74,11.04-8.13,12.86-7.29,18.11,1.58,9.9,18.7,17.01,32.8,17.21,11.39.17,30.77-4.03,34.13-16.44,4.47-16.46-23.32-32.41-25.14-33.43-3.33-1.87-18.42-10.56-26.44-4.7Z"/>
        <g>
          <path class="cls-7" d="m291.87,181.89c.39.72,5.43-2.73,14.44-4.05,9.38-1.38,15.38.67,15.55-.11.2-.93-7.87-5.34-16.65-3.83-7.99,1.37-13.78,7.17-13.34,7.99Z"/>
          <path class="cls-7" d="m293.34,187.15c-.28.96,8.81,4.57,15.85,6.78,9.84,3.09,20.88,5.11,21.18,4.08.28-.97-8.96-4.6-16.07-6.82-9.69-3.03-20.66-5.06-20.96-4.04Z"/>
          <path class="cls-7" d="m290.21,191.78c.72-.39,3.08,5.24,9.93,11.24,7.13,6.25,13.28,7.79,12.99,8.54-.34.89-9.51.2-16.06-5.83-5.96-5.49-7.68-13.5-6.86-13.95Z"/>
        </g>
      </g>
      <g>
        <path class="cls-5" d="m238.41,83.28c2.27,3.74,7.44,6.33,8.48,6.86,3.92,1.97,6.35,1.92,9.99,2.82,10.85,2.68,12.12,9.2,17.42,8.82,10-.73,18.55-17.17,19.96-31.2,1.14-11.34-1.38-31-13.45-35.42-16.02-5.86-34.29,20.45-35.46,22.18-2.14,3.16-12.1,17.45-6.95,25.94Z"/>
        <g>
          <g>
            <path class="cls-17" d="m254.59,90.81c.75-.33-2.25-5.65-2.8-14.74-.57-9.46,1.99-15.26,1.22-15.5-.91-.28-5.99,7.39-5.24,16.26.68,8.08,5.96,14.34,6.82,13.97Z"/>
            <path class="cls-3" d="m254.59,90.81c.75-.33-2.25-5.65-2.8-14.74-.57-9.46,1.99-15.26,1.22-15.5-.91-.28-5.99,7.39-5.24,16.26.68,8.08,5.96,14.34,6.82,13.97Z"/>
          </g>
          <path class="cls-9" d="m259.94,89.8c.93.36,5.3-8.39,8.11-15.21,3.93-9.54,6.88-20.36,5.88-20.75-.94-.36-5.35,8.54-8.17,15.43-3.84,9.4-6.81,20.15-5.82,20.53Z"/>
          <g>
            <path class="cls-17" d="m264.29,93.32c-.33-.75,5.48-2.62,12.05-8.93,6.84-6.56,8.9-12.56,9.62-12.21.85.41-.61,9.49-7.18,15.5-5.98,5.47-14.11,6.49-14.49,5.64Z"/>
            <path class="cls-3" d="m264.29,93.32c-.33-.75,5.48-2.62,12.05-8.93,6.84-6.56,8.9-12.56,9.62-12.21.85.41-.61,9.49-7.18,15.5-5.98,5.47-14.11,6.49-14.49,5.64Z"/>
          </g>
        </g>
      </g>
      <g>
        <path class="cls-4" d="m275.56,106.1c.44,4.35,3.99,8.91,4.71,9.84,2.7,3.46,4.9,4.46,7.81,6.84,8.65,7.09,6.98,13.52,11.93,15.45,9.34,3.64,24.13-7.53,31.44-19.59,5.91-9.74,12.09-28.58,3.09-37.76-11.94-12.18-39.75,3.72-41.55,4.78-3.3,1.93-18.42,10.55-17.43,20.44Z"/>
        <g>
          <path class="cls-7" d="m286.92,119.86c.82.03.4-6.06,3.81-14.51,3.55-8.79,8.36-12.93,7.77-13.47-.7-.64-8.59,4.09-11.72,12.43-2.86,7.59-.79,15.51.15,15.55Z"/>
          <path class="cls-7" d="m292.2,121.25c.69.73,8.4-5.29,13.87-10.25,7.65-6.92,14.97-15.43,14.23-16.21-.69-.73-8.5,5.41-14.01,10.42-7.51,6.83-14.81,15.26-14.08,16.04Z"/>
          <path class="cls-7" d="m294.61,126.3c.02-.82,6.08,0,14.72-2.88,8.99-2.99,13.43-7.52,13.94-6.89.59.74-4.63,8.31-13.15,10.91-7.75,2.37-15.53-.21-15.5-1.14Z"/>
        </g>
      </g>
      <g>
        <path class="cls-4" d="m202.4,91.85c4.11,1.48,9.76.25,10.91,0,4.29-.94,6.14-2.5,9.54-4.09,10.13-4.74,15.21-.46,19.09-4.09,7.32-6.85,3.63-25.02-4.09-36.81-6.24-9.53-20.56-23.24-32.72-19.09-16.14,5.51-13.81,37.46-13.64,39.54.32,3.81,1.56,21.17,10.91,24.54Z"/>
        <g>
          <path class="cls-7" d="m219.72,87.54c.38-.73-5.3-2.98-11.44-9.7-6.39-7-8.05-13.12-8.79-12.82-.88.35-.01,9.51,6.15,15.94,5.61,5.85,13.65,7.41,14.08,6.58Z"/>
          <path class="cls-7" d="m223.25,83.38c.95-.3-1.15-9.86-3.26-16.93-2.94-9.89-7.45-20.16-8.47-19.83-.96.31,1.2,10,3.34,17.14,2.92,9.72,7.37,19.95,8.38,19.63Z"/>
          <path class="cls-7" d="m228.85,83.39c-.73-.38,2.62-5.49,3.76-14.52,1.19-9.4-.98-15.36-.2-15.55.92-.22,5.49,7.77,4.16,16.57-1.21,8.01-6.89,13.92-7.72,13.49Z"/>
        </g>
      </g>
    </g>
  </g>
  <path class="cls-2" d="m260.31,298.24c14.58-13.81,31.96-24.6,32.89-23.4,1.69,2.17-48.96,45.89-50.8,43.99-.89-.92,9.56-12.68,17.92-20.59Z"/>
  <g>
    <path class="cls-2" d="m205.83,323.96c1.82-10.54-17.43-25.04-33.16-29.12-26.48-6.86-49.97,14.02-54.5,18.2,23.32,29.75,46.96,39.63,59.93,43.43,17.63,5.16,43.03,7.14,45.68-.74,2.12-6.32-10.94-17.35-22.08-25.51,1.81-1.45,3.66-3.51,4.13-6.27Z"/>
    <path class="cls-15" d="m170.94,301.29c.13-.88-5.78-3.9-13.03-3.98-13.88-.15-25.16,10.53-24.82,11.21.2.41,4.36-2.98,12.62-5.31,13.98-3.94,25.05-.74,25.23-1.93Z"/>
    <path class="cls-1" d="m185.59,329.03c-13.5-8.21-34.41-16.02-66.81-14.05,17.46-1.42,32.14-.36,42.97,1.08,0,0,22.06,2.94,35.5,12.57,3.69,2.64,6.43,5.96,6.43,5.97h0c1.91,2.27,4.91,6.4,4.5,7.06-.84,1.35-17.31-9.42-22.59-12.62Z"/>
    <path class="cls-13" d="m179.61,353.88c.03-.3,33.49,6.1,36.27-2.36.94-2.88-1.94-6.65-4.51-9.37,4.77,3.86,9.24,8.38,8.28,11.47-2.49,8.04-40.07.58-40.04.26Z"/>
    <path class="cls-2" d="m280.67,278.27c-.5-9.58,19.74-19.97,35.36-21.56,26.3-2.68,46.44,18.85,50.31,23.15-25.97,23.39-49.9,29.11-62.83,30.81-17.58,2.31-42.26.8-43.88-6.52-1.3-5.87,12.58-13.98,24.27-19.78-1.57-1.52-3.1-3.58-3.23-6.09Z"/>
    <path class="cls-13" d="m315.7,265.98c-.03-.8,6.01-2.75,13.01-1.93,13.38,1.57,23.04,12.44,22.64,13.01-.24.34-3.86-3.18-11.56-6.26-13.02-5.22-24.05-3.74-24.08-4.82Z"/>
    <path class="cls-1" d="m299.54,285.37c13.97-5.55,35.02-9.78,65.97-3.87-16.64-3.5-30.9-4.45-41.48-4.57,0,0-21.58-.23-35.66,6.58-3.87,1.87-6.89,4.46-6.9,4.46h0c-2.11,1.77-5.48,5.04-5.17,5.68.65,1.3,17.78-6.13,23.24-8.29Z"/>
    <path class="cls-15" d="m302.36,308.18c.01-.27-32.96,1.1-34.63-6.75-.57-2.67,2.66-5.65,5.45-7.73-5.04,2.81-9.89,6.25-9.33,9.11,1.44,7.45,38.5,5.67,38.51,5.38Z"/>
  </g>
</svg>