<?xml version="1.0" encoding="utf-8"?>
<!-- Generator: Adobe Illustrator 27.1.1, SVG Export Plug-In . SVG Version: 6.00 Build 0)  -->
<svg version="1.1" id="Слой_1" xmlns="http://www.w3.org/2000/svg" xmlns:xlink="http://www.w3.org/1999/xlink" x="0px" y="0px"
	 viewBox="0 0 500 500" style="enable-background:new 0 0 500 500;" xml:space="preserve">
<style type="text/css">
	.st0{fill:#FFFFFF;stroke:#B0EBFF;stroke-miterlimit:10;}
	.st1{opacity:0.13;fill:#949881;}
	.st2{fill:#FDFEFF;stroke:#B0EBFF;stroke-miterlimit:10;}
	.st3{fill:#E4E0BD;}
	.st4{fill:#F4EB82;}
	.st5{fill:#EDF4F7;stroke:#B0EBFF;stroke-miterlimit:10;}
	.st6{fill:#485B04;}
	.st7{fill:#6D8F07;stroke:#467200;stroke-miterlimit:10;}
</style>
<g>
	<g>
		<path class="st0" d="M178.3,98.7c1.4,4.7-6.1,11.2-10.4,13.9c-5,3.1-9.6,3.4-17,3.9c-6.5,0.4-10-0.5-15.8-1.9
			c-2.7-0.7-3.9-1.2-4.6-2.3c-2.1-3.4,2.4-10.1,5.4-13.1C147.7,87,175.9,90.7,178.3,98.7z"/>
		<path class="st0" d="M174.1,81c3.7,9.7,4.3,11.8,4.2,11.9c-0.3,0.1-3.4-20.1-19.7-29.1c-9.5-5.3-22.5-6.3-25.4-2.7
			c-0.7,0.9-0.8,2-2.3,3.4c-2.6,2.4-5.2,1.7-6.9,3.4c-3,2.8-0.4,9,0,9.8c1.9,4.5,4.5,4.6,9.2,11.2c2.9,4,2.3,4.5,4.2,6.4
			c4.5,4.4,11.3,5.1,14.3,5.4c13.3,1.4,23.9-5.8,26.6-7.8L174.1,81z"/>
		<path class="st1" d="M156.7,88.6c-2.8-0.2-4.3-2.3-7.7-6.2C137.2,69,131.7,66.5,132.8,64c1.3-2.9,9.6-2,17-1.2
			c5.2,0.6,8.1,1,11.2,3.1c1,0.7,7.5,5.2,6.9,11.9C167.4,83.9,161.5,89.1,156.7,88.6z"/>
		<path class="st2" d="M184.9,95.2c8.3-9,5.3-22.6,3.1-32.8c-1.3-6-3.3-15-8.9-16.6c-2.4-0.7-4.7,0.2-7.3-1.5
			c-3.3-2.3-2.6-6-4.2-6.6c-3.6-1.3-17,12.6-17,29.3c0,17,14.1,34.8,25.4,33.5C180.4,100.1,183.3,96.9,184.9,95.2z"/>
		<g>
			<g>
				<path class="st3" d="M176.7,99.8c0.1,0,1-6.8-0.7-13.3c-0.5-1.7-1-3-1.2-3.5c-1.5-3.6-3.5-5.9-3.5-5.8c-0.1,0.1,3.2,3.4,4.8,9.3
					C178.1,93.4,176.7,99.8,176.7,99.8z"/>
				
					<ellipse transform="matrix(0.1059 -0.9944 0.9944 0.1059 76.5192 238.5466)" class="st4" cx="170.9" cy="76.7" rx="2.5" ry="1.9"/>
			</g>
			<g>
				<path class="st3" d="M175.4,106c0.1,0,1-6.8-0.7-13.3c-0.5-1.7-1-3-1.2-3.5c-1.5-3.6-3.5-5.9-3.5-5.8c-0.1,0.1,3.2,3.4,4.8,9.3
					C176.7,99.6,175.4,106,175.4,106z"/>
				
					<ellipse transform="matrix(0.1059 -0.9944 0.9944 0.1059 69.2159 242.7589)" class="st4" cx="169.6" cy="82.9" rx="2.5" ry="1.9"/>
			</g>
			<g>
				<path class="st3" d="M174.5,99.2c0.1,0-2.1-6.4-6.5-10.8c-1.1-1.1-2.2-1.9-2.6-2.2c-2.9-2.1-5.5-2.8-5.6-2.6
					c0,0.2,4.2,0.8,8.2,4.8C172.8,93,174.4,99.3,174.5,99.2z"/>
				
					<ellipse transform="matrix(0.9963 -8.567029e-02 8.567029e-02 0.9963 -6.5661 13.9589)" class="st4" cx="159.4" cy="83.5" rx="1.9" ry="2.5"/>
			</g>
			<g>
				<path class="st3" d="M176.1,105.3c0.1,0-2.1-6.4-6.5-10.8c-1.1-1.1-2.2-1.9-2.6-2.2c-2.9-2.1-5.5-2.8-5.6-2.6
					c0,0.2,4.2,0.8,8.2,4.8C174.4,99,176,105.3,176.1,105.3z"/>
				
					<ellipse transform="matrix(0.9963 -8.567029e-02 8.567029e-02 0.9963 -7.0792 14.1197)" class="st4" cx="161" cy="89.5" rx="1.9" ry="2.5"/>
			</g>
			<g>
				<path class="st3" d="M176.8,96.7c0,0-1.6-6.1-4.7-10c-0.8-1-1.6-1.7-1.8-1.9c-2.1-1.7-4-2.1-4-2c0,0.2,3,0.4,5.9,3.8
					C175.5,90.7,176.8,96.8,176.8,96.7z"/>
				
					<ellipse transform="matrix(8.282172e-03 -1 1 8.282172e-03 81.7444 247.9879)" class="st4" cx="165.9" cy="82.8" rx="2.5" ry="1.4"/>
			</g>
			<g>
				<path class="st3" d="M178,102.6c0,0-1.6-6.1-4.7-10c-0.8-1-1.6-1.7-1.8-1.9c-2.1-1.7-4-2.1-4-2c0,0.2,3,0.4,5.9,3.8
					C176.7,96.5,178,102.6,178,102.6z"/>
				
					<ellipse transform="matrix(8.282172e-03 -1 1 8.282172e-03 77.1241 255.0016)" class="st4" cx="167.1" cy="88.6" rx="2.5" ry="1.4"/>
			</g>
			<g>
				<path class="st3" d="M175.3,97.9c0-0.1-3.3-3.5-7.3-3.7c-1-0.1-1.9,0.1-2.2,0.2c-2.4,0.5-4.2,1.9-4.1,2c0,0.2,2.7-2.4,6.4-2.3
					C172.2,94.3,175.3,98,175.3,97.9z"/>
				
					<ellipse transform="matrix(0.9996 -2.805323e-02 2.805323e-02 0.9996 -2.6478 4.5626)" class="st4" cx="161.3" cy="96.6" rx="1.4" ry="2.4"/>
			</g>
			<g>
				<path class="st3" d="M178.2,101.5c0-0.1-3.3-3.5-7.3-3.7c-1-0.1-1.9,0.1-2.2,0.2c-2.4,0.5-4.2,1.9-4.1,2c0,0.2,2.7-2.4,6.4-2.3
					C175.2,97.8,178.2,101.6,178.2,101.5z"/>
				
					<ellipse transform="matrix(0.9996 -2.805323e-02 2.805323e-02 0.9996 -2.7475 4.6457)" class="st4" cx="164.2" cy="100.2" rx="1.4" ry="2.4"/>
			</g>
			<g>
				<path class="st3" d="M177.8,100.6c0,0,0.5-3.8-0.3-7.4c-0.2-0.9-0.5-1.7-0.6-1.9c-0.7-2-1.7-3.3-1.7-3.2c0,0.1,1.5,1.9,2.4,5.2
					C178.5,97,177.8,100.6,177.8,100.6z"/>
				<ellipse transform="matrix(0.1021 -0.9948 0.9948 0.1021 69.8232 252.922)" class="st4" cx="175" cy="87.8" rx="1.4" ry="0.9"/>
			</g>
			<g>
				<path class="st3" d="M177.1,104.1c0,0,0.5-3.8-0.3-7.4c-0.2-0.9-0.5-1.7-0.6-1.9c-0.7-2-1.7-3.3-1.7-3.2c0,0.1,1.5,1.9,2.4,5.2
					C177.8,100.5,177.1,104.1,177.1,104.1z"/>
				
					<ellipse transform="matrix(0.1021 -0.9948 0.9948 0.1021 65.7775 255.3439)" class="st4" cx="174.3" cy="91.2" rx="1.4" ry="0.9"/>
			</g>
			<g>
				<path class="st3" d="M176.7,100.3c0,0-1-3.5-3.2-6c-0.6-0.6-1.1-1.1-1.3-1.2c-1.4-1.1-2.7-1.5-2.8-1.4c0,0.1,2.1,0.4,4,2.6
					C175.9,96.8,176.6,100.3,176.7,100.3z"/>
				
					<ellipse transform="matrix(0.9995 -3.143388e-02 3.143388e-02 0.9995 -2.797 5.3653)" class="st4" cx="169.2" cy="91.6" rx="0.9" ry="1.4"/>
			</g>
			<g>
				<path class="st3" d="M177.4,103.7c0,0-1-3.5-3.2-6c-0.6-0.6-1.1-1.1-1.3-1.2c-1.4-1.1-2.7-1.5-2.8-1.4c0,0.1,2.1,0.4,4,2.6
					C176.6,100.2,177.4,103.7,177.4,103.7z"/>
				
					<ellipse transform="matrix(0.9995 -3.143388e-02 3.143388e-02 0.9995 -2.9026 5.3913)" class="st4" cx="170" cy="95" rx="0.9" ry="1.4"/>
			</g>
			<g>
				<path class="st3" d="M177.8,98.9c0,0-0.8-3.4-2.3-5.5c-0.4-0.6-0.8-0.9-0.9-1c-1-1-2-1.2-2-1.1c0,0.1,1.5,0.2,2.9,2.1
					C177.2,95.6,177.8,98.9,177.8,98.9z"/>
				
					<ellipse transform="matrix(2.299006e-02 -0.9997 0.9997 2.299006e-02 77.3543 261.5574)" class="st4" cx="172.5" cy="91.2" rx="1.4" ry="0.7"/>
			</g>
			<g>
				<path class="st3" d="M178.4,102.1c0,0-0.8-3.4-2.3-5.5c-0.4-0.6-0.8-0.9-0.9-1c-1-1-2-1.2-2-1.1c0,0.1,1.5,0.2,2.9,2.1
					C177.8,98.8,178.4,102.2,178.4,102.1z"/>
				
					<ellipse transform="matrix(2.299006e-02 -0.9997 0.9997 2.299006e-02 74.6725 265.31)" class="st4" cx="173.1" cy="94.5" rx="1.4" ry="0.7"/>
			</g>
			<g>
				<path class="st3" d="M177.1,99.6c0,0-1.6-1.9-3.6-2c-0.5,0-0.9,0.1-1.1,0.1c-1.2,0.3-2.1,1.1-2.1,1.2c0,0.1,1.4-1.4,3.2-1.3
					C175.6,97.6,177.1,99.6,177.1,99.6z"/>
				
					<ellipse transform="matrix(1 -3.965740e-03 3.965740e-03 1 -0.3912 0.6755)" class="st4" cx="170.1" cy="99" rx="0.7" ry="1.3"/>
			</g>
			<g>
				<path class="st3" d="M178.5,101.6c0,0-1.6-1.9-3.6-2c-0.5,0-0.9,0.1-1.1,0.1c-1.2,0.3-2.1,1.1-2.1,1.2c0,0.1,1.4-1.4,3.2-1.3
					C177,99.5,178.5,101.6,178.5,101.6z"/>
				
					<ellipse transform="matrix(1 -3.965740e-03 3.965740e-03 1 -0.399 0.6812)" class="st4" cx="171.6" cy="101" rx="0.7" ry="1.3"/>
			</g>
		</g>
		<path class="st5" d="M157.9,114.5c-1.5-1.8,9.4-5.6,17.5-15.1c13.2-15.5,6.9-31.8,10.4-32.1c2.8-0.2,8.3,9.8,7.7,20.1
			c-0.2,3.8-0.8,13.5-10.9,20.5C173.4,114.3,159.5,116.3,157.9,114.5z"/>
	</g>
	<path class="st6" d="M266.5,491.9c-7.7-3.9,1.1-30.2,4.4-68.5c0,0,2-23.5-2.2-77.4c-7.8-100.7-77-267.7-71.1-270.5
		c5.8-2.8,72.1,161,102.8,288.4c5.5,22.9,17.2,75.1-8.7,110C284.5,483.5,272.3,494.9,266.5,491.9z"/>
	<g>
		<path class="st7" d="M248.3,235.3c-9.1,19-6.3,46.5,8.5,62c14.4,15,34.8,13.2,78.2,13.5c26.4,0.2,63.5,1.1,108.8,4.5
			c0.4-7.7,2.2-66.7-40.6-99.8C353.2,176.7,268.3,193.5,248.3,235.3z"/>
		<path class="st6" d="M419.1,290.9c-1.2,0.5-6.3-19.2-21.6-36.4c-18.4-20.5-54-40.1-130.1-34.9c23.7-15,65.1-36.2,98.6-21
			C408.9,218.2,421.4,289.9,419.1,290.9z"/>
	</g>
	<g>
		<path class="st7" d="M234,156.6c-16.3-13.3-25.5-39.4-18.6-59.7c6.6-19.6,25.9-26.7,65.1-45.4c23.8-11.3,57.1-27.9,96.6-50.3
			c3.6,6.9,30.3,59.5,5.6,107.7C353.8,165.2,269.8,186,234,156.6z"/>
		<path class="st6" d="M255.7,144.6c-0.1-1.3,20.2,0.7,41.6-7.9c25.6-10.2,56.2-37,77.4-110.2c6,27.5,11.7,73.6-14.1,99.8
			C327.5,159.9,255.9,147.1,255.7,144.6z"/>
	</g>
	<g>
		<path class="st7" d="M277.1,194.9c-19.8-3.3-26.6,3.3-44.3,2.3c-23.7-1.4-28.5-14.4-49.6-21c-32.4-10.2-79.3,2.2-93.1,28.5
			c-9.7,18.5-3.1,43.9,9.8,93.1c4.6,17.6,10.4,35.1,1.5,50.3c-7.5,12.7-21,16.4-20.3,18c1.2,2.6,40.1-3.3,72.9-30
			c32.5-26.6,22.9-44.3,56.3-68.3c13.1-9.4,28.4-16.6,58.6-30.8c27.6-13,41.6-17.6,41.3-24.8C309.8,203.7,289.9,197,277.1,194.9z"/>
		<path class="st6" d="M150.1,321.8c-0.7-0.5-0.2-4.4,26.3-51.1c26.4-46.5,30.5-50.8,36.1-54.8c32.2-23.1,81.3-12,81.9-6
			c0.3,3.7-18.1,4.2-42.1,14.3C184,252.8,153.5,324,150.1,321.8z"/>
	</g>
	<g>
		<g>
			<path class="st0" d="M184.1,142.8c-1.7-9.3,2.6-11.8,1.6-22.3c-0.3-3.2-1.1-11.3-5.7-14.3c-3.5-2.2-5.4,0.9-11.4,0
				c-6-0.9-6.4-4.5-15.1-8.6c-5.7-2.6-9.8-4.5-14.3-2.9c-5.4,2.1-8.1,8.2-10.2,12.8c-1.7,3.8-3.8,8.6-3.3,14.7
				c0.4,3.9,2.7,7.9,7.3,15.7c3.9,6.6,5.9,9.9,8.6,11.9c2.3,1.7,3.6,1.9,12.2,3.8c13.4,3,14.9,3.8,19.6,3.8c5.2,0,11.4,0,13.1-3.8
				C187.8,150.9,185.3,149,184.1,142.8z"/>
			<path class="st0" d="M184.6,142.3c5.2-8.9,19.5-10.2,29.4-3.8c7.4,4.8,12.9,14.3,13.1,23.3c0.1,5.3-1.7,6.1-1.2,11.9
				c0.9,9.8,6.8,14.8,4.9,18.1c-1.4,2.4-5.1,0.1-7.8,3.3c-2.2,2.6-0.6,5.2-2.4,8.6c-1.5,2.6-3.3,2.5-12.2,5.7
				c-7.6,2.8-8.8,3.8-11,2.9c-3.7-1.5-5.3-6.3-6.1-8.6c-2.2-6.2-0.2-8.9-1.2-18.1c-0.5-4.5-1.4-7.7-3.3-14.3
				c-2.8-9.8-4.3-11.4-4.5-16.6C182,152.7,181.9,146.9,184.6,142.3z"/>
			<path class="st0" d="M183.3,131.9c0-4.9-0.2-6,0-10.9c0.2-3.9,0.5-6.9,1.2-12.8c1-8.1,1.5-10.4,2-12.4c1.3-4.6,2.1-7.4,4.1-8.1
				c3.1-1.1,7.2,3.6,9,6.2c2,2.9,1.9,4.6,4.1,6.2c2.3,1.7,3.3,0.4,5.7,1.9c0.6,0.4,1.2,0.9,5.3,8.6c2.1,3.9,2.5,5,2.9,6.7
				c0.5,2.5-0.4,2.9,0,5.7c0.5,3.5,2.1,6,2.7,6.9c1.6,2.4,2.3,2.1,3.1,3.6c2,3.7,0.1,10.6-3.3,14.7c-2.3,2.9-5.2,3.5-11,4.8
				c-3.9,0.8-4.8,0.5-15.1,1c-8.6,0.4-9.5,0.7-10.6-0.5C180.9,150.6,183.2,146.6,183.3,131.9z"/>
			<path class="st0" d="M188.4,154.5c4.6,6.6,3.4,15.3,1.2,30.9c-1.1,7.9-2.3,11.8-3.7,15.2c-1.8,4.3-3.6,7.1-4.9,9
				c-3.9,5.9-8.6,12.9-16.3,15.2c-4,1.2-7.4,0.7-9.4,0.5c-3.2-0.4-6.2-1.7-12.2-4.3c-4.5-1.9-6.7-2.9-7.8-3.8
				c-3.1-2.7-4.3-6.6-6.5-14.3c-2.6-8.8-4-13.5-2.9-19.5c0.5-2.7,1.4-4.7,3.3-8.6c4.9-10.2,7.9-16.5,13.1-20
				c5.6-3.7,6.4,0.6,19.2-1.9c11-2.2,16.2-6.5,22.4-2.9C184.4,150.5,186.5,151.7,188.4,154.5z"/>
			<path class="st1" d="M218,140c0.5-2.6-1.8-3.6-4.1-11.4c-1.6-5.4-1-6.6-2.4-10.5c-1.3-3.6-2.9-5.3-6.5-10
				c-9.9-12.5-11-15.3-12.7-14.7c-3.4,1.2-2.5,14.2-2.4,14.7c0.5,6.2,2.3,10.9,2.9,12.4c4.1,10.1,9.8,11.9,9.4,17.1
				c-0.5,5.4-6.7,7.2-6.1,9C197,149.9,216.7,147.4,218,140z"/>
			<path class="st1" d="M178,118.1c-2.1-2.5-4.4,0-9.4-1.4c-7.3-2.2-7.1-9-14.7-11.9c-6-2.3-11.3,0-12.2,0.5
				c-1.2,0.5-6.5,3.2-9.4,10c-0.8,1.9-2.1,5.1-1.6,9c0.8,6.2,5.6,10.9,10.2,12.4c5.1,1.6,6.3-2,13.5-1.4c3.6,0.3,6.9,1.8,13.5,4.8
				c7.8,3.5,10.4,5.7,11.8,4.3c1.3-1.3,0.1-3.7-0.4-11.4C178.6,123.3,180.1,120.4,178,118.1z"/>
			<path class="st1" d="M196.4,157.5c0.4-0.8,8,1.8,13.5,9c1.6,2.2,2.5,4,4.1,7.6c4.4,9.9,6.5,18.9,6.1,19
				c-0.4,0.2-2.2-12.5-11-23.8C202.6,161.2,196,158.3,196.4,157.5z"/>
			<path class="st1" d="M199.2,204.6c0.2,0-0.3-7.8-0.8-14.3c0,0,0-0.2,0-0.4c-0.8-9.4-3-25.7-3.3-25.7
				C194.7,164.3,198.9,204.6,199.2,204.6z"/>
			<path class="st1" d="M153.9,159.4c-1.1-2.1-7.6,0.5-8.6,1c-8,3.3-15.9,12.3-17.1,23.8c-0.7,6.8,1.2,12.2,4.1,20.4
				c0.8,2.2,3,8.4,4.1,8.1c1.6-0.4-2.7-12.5,0.4-25.2C140.9,170.5,155.7,162.7,153.9,159.4z"/>
			<g>
				<g>
					<path class="st3" d="M187.1,152c0.1,0,0.6,8.1-2.2,15.5c-0.7,1.9-1.5,3.4-1.8,4c-2.2,4-4.8,6.5-4.9,6.4
						c-0.1-0.1,4.2-3.6,6.8-10.3C188.1,159.7,187,152,187.1,152z"/>
					
						<ellipse transform="matrix(0.9964 -8.480428e-02 8.480428e-02 0.9964 -14.4776 15.7127)" class="st4" cx="177.7" cy="178.3" rx="2.3" ry="3"/>
				</g>
				<g>
					<path class="st3" d="M186.1,144.5c0.1,0,0.6,8.1-2.2,15.5c-0.7,1.9-1.5,3.4-1.8,4c-2.2,4-4.8,6.5-4.9,6.4
						c-0.1-0.1,4.2-3.6,6.8-10.3C187.1,152.2,186,144.5,186.1,144.5z"/>
					
						<ellipse transform="matrix(0.9964 -8.480428e-02 8.480428e-02 0.9964 -13.8513 15.6023)" class="st4" cx="176.7" cy="170.8" rx="2.3" ry="3"/>
				</g>
				<g>
					<path class="st3" d="M184.3,152.3c0.1,0.1-3.2,7.2-9,11.7c-1.5,1.2-2.9,1.9-3.3,2.2c-3.7,2-7,2.5-7.1,2.3
						c0-0.2,5.2-0.4,10.5-4.4C181.6,159.4,184.2,152.3,184.3,152.3z"/>
					
						<ellipse transform="matrix(0.1371 -0.9906 0.9906 0.1371 -25.3673 308.2968)" class="st4" cx="164.3" cy="168.7" rx="3" ry="2.3"/>
				</g>
				<g>
					<path class="st3" d="M186.9,145.4c0.1,0.1-3.2,7.2-9,11.7c-1.5,1.2-2.9,1.9-3.3,2.2c-3.7,2-7,2.5-7.1,2.3
						c0-0.2,5.2-0.4,10.5-4.4C184.1,152.5,186.8,145.4,186.9,145.4z"/>
					
						<ellipse transform="matrix(0.1371 -0.9906 0.9906 0.1371 -16.3189 304.9015)" class="st4" cx="166.8" cy="161.8" rx="3" ry="2.3"/>
				</g>
				<g>
					<path class="st3" d="M186.9,155.6c0,0.1-2.6,6.9-6.8,11c-1.1,1.1-2.1,1.7-2.4,2c-2.7,1.8-5,2-5,1.8c0-0.2,3.6,0,7.5-3.6
						C184.7,162.5,186.8,155.5,186.9,155.6z"/>
					
						<ellipse transform="matrix(6.162763e-02 -0.9981 0.9981 6.162763e-02 -8.5467 331.8011)" class="st4" cx="172.2" cy="170.4" rx="3" ry="1.7"/>
				</g>
				<g>
					<path class="st3" d="M188.9,148.9c0,0.1-2.6,6.9-6.8,11c-1.1,1.1-2.1,1.7-2.4,2c-2.7,1.8-5,2-5,1.8c0-0.2,3.6,0,7.5-3.6
						C186.8,155.8,188.9,148.9,188.9,148.9z"/>
					
						<ellipse transform="matrix(6.162763e-02 -0.9981 0.9981 6.162763e-02 7.160544e-02 327.6007)" class="st4" cx="174.3" cy="163.8" rx="3" ry="1.7"/>
				</g>
				<g>
					<path class="st3" d="M185.1,154c0,0.1-4.4,3.6-9.3,3.3c-1.3-0.1-2.3-0.4-2.7-0.5c-2.8-0.9-4.9-2.8-4.8-3
						c0.1-0.2,3.1,3.2,7.5,3.6C181.1,157.9,185.1,153.9,185.1,154z"/>
					
						<ellipse transform="matrix(9.614618e-02 -0.9954 0.9954 9.614618e-02 -1.0139 305.9088)" class="st4" cx="167.9" cy="153.5" rx="2.8" ry="1.7"/>
				</g>
				<g>
					<path class="st3" d="M189,150.1c0,0.1-4.4,3.6-9.3,3.3c-1.3-0.1-2.3-0.4-2.7-0.5c-2.8-0.9-4.9-2.8-4.8-3
						c0.1-0.2,3.1,3.2,7.5,3.6C185,154,189,150.1,189,150.1z"/>
					
						<ellipse transform="matrix(9.614618e-02 -0.9954 0.9954 9.614618e-02 6.3149 306.3567)" class="st4" cx="171.8" cy="149.7" rx="2.8" ry="1.7"/>
				</g>
				<g>
					<path class="st3" d="M188.5,151.2c0,0,0.3,4.5-1.1,8.7c-0.4,1.1-0.8,1.9-0.9,2.2c-1.1,2.3-2.4,3.6-2.4,3.6
						c-0.1-0.1,2.1-2,3.4-5.7C189,155.4,188.4,151.1,188.5,151.2z"/>
					
						<ellipse transform="matrix(0.9984 -5.669142e-02 5.669142e-02 0.9984 -9.1066 10.6876)" class="st4" cx="183.8" cy="165.8" rx="1.2" ry="1.7"/>
				</g>
				<g>
					<path class="st3" d="M188,147c0,0,0.3,4.5-1.1,8.7c-0.4,1.1-0.8,1.9-0.9,2.2c-1.1,2.3-2.4,3.6-2.4,3.6c-0.1-0.1,2.1-2,3.4-5.7
						C188.5,151.3,187.9,147,188,147z"/>
					
						<ellipse transform="matrix(0.9984 -5.669142e-02 5.669142e-02 0.9984 -8.8721 10.6532)" class="st4" cx="183.3" cy="161.7" rx="1.2" ry="1.7"/>
				</g>
				<g>
					<path class="st3" d="M187.1,151.4c0,0-1.6,4-4.5,6.6c-0.7,0.7-1.4,1.1-1.7,1.2c-1.9,1.1-3.5,1.4-3.5,1.3c0-0.1,2.6-0.2,5.2-2.5
						C185.7,155.3,187,151.3,187.1,151.4z"/>
					
						<ellipse transform="matrix(9.075608e-02 -0.9959 0.9959 9.075608e-02 1.2292 322.3629)" class="st4" cx="177.2" cy="160.5" rx="1.7" ry="1.2"/>
				</g>
				<g>
					<path class="st3" d="M188.4,147.5c0,0-1.6,4-4.5,6.6c-0.7,0.7-1.4,1.1-1.7,1.2c-1.9,1.1-3.5,1.4-3.5,1.3c0-0.1,2.6-0.2,5.2-2.5
						C187,151.5,188.3,147.5,188.4,147.5z"/>
					
						<ellipse transform="matrix(9.075608e-02 -0.9959 0.9959 9.075608e-02 6.225 320.1338)" class="st4" cx="178.4" cy="156.7" rx="1.7" ry="1.2"/>
				</g>
				<g>
					<path class="st3" d="M188.4,153.2c0,0-1.3,3.9-3.4,6.2c-0.5,0.6-1,1-1.2,1.1c-1.3,1-2.5,1.1-2.5,1c0-0.1,1.8,0,3.7-2
						C187.3,157,188.3,153.1,188.4,153.2z"/>
					
						<ellipse transform="matrix(4.987191e-02 -0.9988 0.9988 4.987191e-02 10.7698 334.2791)" class="st4" cx="181.1" cy="161.5" rx="1.7" ry="0.8"/>
				</g>
				<g>
					<path class="st3" d="M189.4,149.4c0,0-1.3,3.9-3.4,6.2c-0.5,0.6-1,1-1.2,1.1c-1.3,1-2.5,1.1-2.5,1c0-0.1,1.8,0,3.7-2
						C188.3,153.3,189.4,149.4,189.4,149.4z"/>
					
						<ellipse transform="matrix(4.987191e-02 -0.9988 0.9988 4.987191e-02 15.4774 331.7587)" class="st4" cx="182.1" cy="157.7" rx="1.7" ry="0.8"/>
				</g>
				<g>
					<path class="st3" d="M187.5,152.3c0,0-2.2,2-4.6,1.9c-0.6,0-1.1-0.2-1.3-0.3c-1.4-0.5-2.4-1.6-2.4-1.6c0-0.1,1.5,1.8,3.7,2
						C185.5,154.4,187.5,152.2,187.5,152.3z"/>
					
						<ellipse transform="matrix(7.540440e-02 -0.9972 0.9972 7.540440e-02 13.8898 319.0149)" class="st4" cx="179" cy="152" rx="1.6" ry="0.9"/>
				</g>
				<g>
					<path class="st3" d="M189.4,150.1c0,0-2.2,2-4.6,1.9c-0.6,0-1.1-0.2-1.3-0.3c-1.4-0.5-2.4-1.6-2.4-1.6c0-0.1,1.5,1.8,3.7,2
						C187.4,152.3,189.4,150.1,189.4,150.1z"/>
					
						<ellipse transform="matrix(7.540440e-02 -0.9972 0.9972 7.540440e-02 17.8066 318.9797)" class="st4" cx="180.9" cy="149.9" rx="1.6" ry="0.9"/>
				</g>
			</g>
		</g>
		<g>
			<path class="st0" d="M263.5,102.1c2.3,7.6-9.8,18-16.6,22.2c-8.1,5-15.4,5.4-27.1,6.2c-10.3,0.6-16-0.8-25.3-3.1
				c-4.3-1.1-6.3-1.9-7.4-3.7c-3.3-5.5,3.9-16.1,8.6-21C214.5,83.4,259.6,89.3,263.5,102.1z"/>
			<path class="st0" d="M256.7,73.8c5.9,15.6,6.9,18.9,6.8,19c-0.5,0.1-5.5-32.1-31.4-46.6c-15.1-8.5-36-10.1-40.7-4.3
				c-1.2,1.4-1.2,3.1-3.7,5.4c-4.2,3.9-8.2,2.8-11.1,5.4c-4.8,4.5-0.6,14.3,0,15.7c3.1,7.3,7.3,7.3,14.8,17.9
				c4.6,6.4,3.6,7.3,6.8,10.3c7.3,7,18,8.2,22.8,8.7c21.2,2.2,38.2-9.3,42.5-12.5L256.7,73.8z"/>
			<path class="st1" d="M228.9,86.1c-4.5-0.4-6.9-3.7-12.3-9.9c-18.9-21.6-27.7-25.5-25.9-29.6c2.1-4.7,15.3-3.2,27.1-1.8
				c8.3,1,12.9,1.5,17.9,4.9c1.7,1.1,12,8.3,11.1,19.1C246,78.5,236.6,86.8,228.9,86.1z"/>
			<path class="st2" d="M273.9,96.6c13.3-14.5,8.5-36.1,4.9-52.4c-2.1-9.5-5.3-23.9-14.2-26.5c-3.9-1.1-7.6,0.4-11.7-2.5
				c-5.3-3.7-4.2-9.6-6.8-10.5c-5.7-2-27.2,20.2-27.1,46.8c0.1,27.1,22.6,55.7,40.7,53.6C266.7,104.4,271.4,99.3,273.9,96.6z"/>
			<g>
				<g>
					<path class="st3" d="M260.9,103.9c0.1,0,1.6-10.8-1.2-21.3c-0.7-2.7-1.6-4.9-1.9-5.6c-2.4-5.8-5.5-9.5-5.7-9.3
						c-0.2,0.2,5,5.5,7.7,14.9C263,93.7,260.8,103.9,260.9,103.9z"/>
					
						<ellipse transform="matrix(0.1059 -0.9944 0.9944 0.1059 158.3247 310.1248)" class="st4" cx="251.6" cy="67" rx="4" ry="3.1"/>
				</g>
				<g>
					<path class="st3" d="M258.8,113.8c0.1,0,1.6-10.8-1.2-21.3c-0.7-2.7-1.6-4.9-1.9-5.6c-2.4-5.8-5.5-9.5-5.7-9.3
						c-0.2,0.2,5,5.5,7.7,14.9C260.9,103.6,258.7,113.8,258.8,113.8z"/>
					
						<ellipse transform="matrix(0.1059 -0.9944 0.9944 0.1059 146.6423 316.8629)" class="st4" cx="249.5" cy="76.9" rx="4" ry="3.1"/>
				</g>
				<g>
					<path class="st3" d="M257.3,103c0.1-0.1-3.4-10.2-10.4-17.2c-1.8-1.8-3.5-3.1-4.1-3.5c-4.6-3.3-8.9-4.4-8.9-4.2
						c-0.1,0.3,6.7,1.4,13.1,7.6C254.6,93,257.2,103.1,257.3,103z"/>
					
						<ellipse transform="matrix(0.9963 -8.567029e-02 8.567029e-02 0.9963 -5.8109 20.2585)" class="st4" cx="233.1" cy="77.8" rx="3.1" ry="4.1"/>
				</g>
				<g>
					<path class="st3" d="M259.9,112.7c0.1-0.1-3.4-10.2-10.4-17.2c-1.8-1.8-3.5-3.1-4.1-3.5c-4.6-3.3-8.9-4.4-8.9-4.2
						c-0.1,0.3,6.7,1.4,13.1,7.6C257.2,102.7,259.8,112.8,259.9,112.7z"/>
					
						<ellipse transform="matrix(0.9963 -8.567029e-02 8.567029e-02 0.9963 -6.6317 20.5158)" class="st4" cx="235.7" cy="87.5" rx="3.1" ry="4.1"/>
				</g>
				<g>
					<path class="st3" d="M261,99c0.1-0.1-2.6-9.7-7.6-15.9c-1.3-1.6-2.5-2.7-2.9-3c-3.3-2.8-6.3-3.4-6.4-3.2c0,0.3,4.7,0.6,9.4,6.1
						C259,89.4,261,99.1,261,99z"/>
					
						<ellipse transform="matrix(8.282172e-03 -1 1 8.282172e-03 164.8683 319.6657)" class="st4" cx="243.6" cy="76.7" rx="4" ry="2.2"/>
				</g>
				<g>
					<path class="st3" d="M263,108.3c0.1-0.1-2.6-9.7-7.6-15.9c-1.3-1.6-2.5-2.7-2.9-3c-3.3-2.8-6.3-3.4-6.4-3.2
						c0,0.3,4.7,0.6,9.4,6.1C260.9,98.7,262.9,108.4,263,108.3z"/>
					
						<ellipse transform="matrix(8.282172e-03 -1 1 8.282172e-03 157.4777 330.8847)" class="st4" cx="245.6" cy="86" rx="4" ry="2.2"/>
				</g>
				<g>
					<path class="st3" d="M258.6,101c0-0.1-5.3-5.5-11.7-5.9c-1.7-0.1-3,0.2-3.5,0.3c-3.8,0.8-6.7,3-6.6,3.2
						c0.1,0.2,4.4-3.9,10.2-3.7C253.7,95.1,258.6,101.1,258.6,101z"/>
					
						<ellipse transform="matrix(0.9996 -2.805323e-02 2.805323e-02 0.9996 -2.6814 6.6657)" class="st4" cx="236.2" cy="98.9" rx="2.3" ry="3.8"/>
				</g>
				<g>
					<path class="st3" d="M263.2,106.7c0-0.1-5.3-5.5-11.7-5.9c-1.7-0.1-3,0.2-3.5,0.3c-3.8,0.8-6.7,3-6.6,3.2
						c0.1,0.2,4.4-3.9,10.2-3.7C258.4,100.8,263.2,106.8,263.2,106.7z"/>
					
						<ellipse transform="matrix(0.9996 -2.805323e-02 2.805323e-02 0.9996 -2.8407 6.7986)" class="st4" cx="240.9" cy="104.6" rx="2.3" ry="3.8"/>
				</g>
				<g>
					<path class="st3" d="M262.6,105.3c0.1,0,0.9-6.1-0.5-11.9c-0.3-1.5-0.8-2.7-0.9-3.1c-1.2-3.2-2.7-5.3-2.8-5.2
						c-0.1,0.1,2.5,3,3.8,8.3C263.7,99.5,262.6,105.3,262.6,105.3z"/>
					
						<ellipse transform="matrix(0.1021 -0.9948 0.9948 0.1021 147.553 332.8984)" class="st4" cx="258.2" cy="84.7" rx="2.3" ry="1.5"/>
				</g>
				<g>
					<path class="st3" d="M261.5,110.8c0.1,0,0.9-6.1-0.5-11.9c-0.3-1.5-0.8-2.7-0.9-3.1c-1.2-3.2-2.7-5.3-2.8-5.2
						c-0.1,0.1,2.5,3,3.8,8.3C262.6,105.1,261.5,110.8,261.5,110.8z"/>
					
						<ellipse transform="matrix(0.1021 -0.9948 0.9948 0.1021 141.0814 336.7726)" class="st4" cx="257.1" cy="90.2" rx="2.3" ry="1.5"/>
				</g>
				<g>
					<path class="st3" d="M260.8,104.8c0,0-1.7-5.7-5.1-9.5c-0.9-1-1.7-1.7-2-1.9c-2.3-1.8-4.4-2.4-4.4-2.3c0,0.1,3.3,0.7,6.5,4.1
						C259.5,99.2,260.8,104.8,260.8,104.8z"/>
					
						<ellipse transform="matrix(0.9995 -3.143388e-02 3.143388e-02 0.9995 -2.7338 7.8705)" class="st4" cx="249" cy="90.9" rx="1.5" ry="2.3"/>
				</g>
				<g>
					<path class="st3" d="M262.1,110.2c0,0-1.7-5.7-5.1-9.5c-0.9-1-1.7-1.7-2-1.9c-2.3-1.8-4.4-2.4-4.4-2.3c0,0.1,3.3,0.7,6.5,4.1
						C260.8,104.6,262,110.2,262.1,110.2z"/>
					
						<ellipse transform="matrix(0.9995 -3.143388e-02 3.143388e-02 0.9995 -2.9027 7.912)" class="st4" cx="250.2" cy="96.3" rx="1.5" ry="2.3"/>
				</g>
				<g>
					<path class="st3" d="M262.7,102.5c0,0-1.2-5.4-3.7-8.8c-0.6-0.9-1.2-1.5-1.4-1.7c-1.6-1.5-3.1-1.9-3.1-1.7
						c0,0.1,2.3,0.3,4.6,3.3C261.7,97.1,262.7,102.5,262.7,102.5z"/>
					
						<ellipse transform="matrix(2.299006e-02 -0.9997 0.9997 2.299006e-02 158.1533 342.1955)" class="st4" cx="254.2" cy="90.2" rx="2.2" ry="1.1"/>
				</g>
				<g>
					<path class="st3" d="M263.6,107.7c0,0-1.2-5.4-3.7-8.8c-0.6-0.9-1.2-1.5-1.4-1.7c-1.6-1.5-3.1-1.9-3.1-1.7
						c0,0.1,2.3,0.3,4.6,3.3C262.6,102.3,263.6,107.7,263.6,107.7z"/>
					
						<ellipse transform="matrix(2.299006e-02 -0.9997 0.9997 2.299006e-02 153.8635 348.1982)" class="st4" cx="255.1" cy="95.4" rx="2.2" ry="1.1"/>
				</g>
				<g>
					<path class="st3" d="M261.5,103.6c0-0.1-2.6-3-5.8-3.2c-0.8,0-1.5,0.1-1.8,0.2c-1.9,0.5-3.3,1.7-3.3,1.9c0,0.1,2.2-2.2,5.1-2.1
						C259.1,100.4,261.5,103.7,261.5,103.6z"/>
					
						<ellipse transform="matrix(1 -3.965740e-03 3.965740e-03 1 -0.405 0.9937)" class="st4" cx="250.4" cy="102.6" rx="1.1" ry="2.1"/>
				</g>
				<g>
					<path class="st3" d="M263.8,106.8c0-0.1-2.6-3-5.8-3.2c-0.8,0-1.5,0.1-1.8,0.2c-1.9,0.5-3.3,1.7-3.3,1.9c0,0.1,2.2-2.2,5.1-2.1
						C261.4,103.5,263.7,106.8,263.8,106.8z"/>
					
						<ellipse transform="matrix(1 -3.965740e-03 3.965740e-03 1 -0.4175 1.0028)" class="st4" cx="252.7" cy="105.8" rx="1.1" ry="2.1"/>
				</g>
			</g>
			<path class="st5" d="M230.8,127.4c-2.4-2.8,15-8.9,28-24.1c21.1-24.7,11-50.9,16.6-51.4c4.4-0.3,13.2,15.7,12.2,32.2
				c-0.4,6.1-1.3,21.5-17.5,32.8C255.5,127.1,233.4,130.4,230.8,127.4z"/>
		</g>
		<g>
			<path class="st0" d="M296.3,190c3.1-14.7-4.9-18.8-3-35.5c0.6-5.1,2-18,10.6-22.7c6.5-3.5,10.1,1.5,21.1,0
				c11.2-1.5,11.8-7.2,27.9-13.6c10.6-4.2,18.2-7.2,26.4-4.5c10,3.3,15.1,13,18.9,20.4c3.1,6.1,7.1,13.7,6,23.4
				c-0.7,6.1-5,12.5-13.6,24.9c-7.2,10.5-10.9,15.8-15.9,18.9c-4.3,2.7-6.7,2.9-22.7,6c-24.9,4.8-27.6,6-36.3,6
				c-9.6,0-21.2,0-24.2-6C289.6,202.9,294.2,199.8,296.3,190z"/>
			<path class="st0" d="M295.6,189.2c-9.7-14.1-36.1-16.2-54.4-6c-13.7,7.6-23.9,22.7-24.2,37c-0.2,8.4,3.2,9.7,2.3,18.9
				c-1.6,15.6-12.5,23.6-9.1,28.7c2.6,3.9,9.4,0.2,14.4,5.3c4,4.2,1,8.3,4.5,13.6c2.8,4.1,6.1,3.9,22.7,9.1
				c14.1,4.4,16.3,6,20.4,4.5c6.8-2.4,9.9-10,11.3-13.6c4-9.9,0.4-14.1,2.3-28.7c0.9-7.1,2.6-12.3,6-22.7c5.1-15.6,8-18.1,8.3-26.4
				C300.2,205.7,300.5,196.5,295.6,189.2z"/>
			<path class="st0" d="M297.8,172.6c-0.1-7.8,0.4-9.6,0-17.4c-0.3-6.2-1-10.9-2.3-20.4c-1.8-12.9-2.7-16.5-3.8-19.6
				c-2.5-7.3-4-11.7-7.6-12.8c-5.7-1.7-13.3,5.7-16.6,9.8c-3.7,4.7-3.6,7.3-7.6,9.8c-4.3,2.7-6.2,0.6-10.6,3
				c-1.1,0.6-2.3,1.5-9.8,13.6c-3.8,6.1-4.7,7.9-5.3,10.6c-0.9,4,0.7,4.6,0,9.1c-0.9,5.6-3.8,9.5-4.9,11c-2.9,3.8-4.2,3.4-5.7,5.7
				c-3.8,5.9-0.1,16.8,6,23.4c4.2,4.6,9.7,5.6,20.4,7.6c7.3,1.3,8.9,0.8,27.9,1.5c16,0.6,17.7,1.1,19.6-0.8
				C302.3,202.4,298,196,297.8,172.6z"/>
			<path class="st0" d="M288.4,208.5c-8.5,10.5-6.3,24.3-2.3,49.1c2,12.5,4.2,18.8,6.8,24.2c3.2,6.8,6.7,11.3,9.1,14.4
				c7.3,9.4,15.9,20.5,30.2,24.2c7.4,1.9,13.7,1.2,17.4,0.8c5.9-0.7,11.5-2.7,22.7-6.8c8.3-3,12.4-4.5,14.4-6
				c5.7-4.4,7.9-10.5,12.1-22.7c4.8-14,7.3-21.5,5.3-31c-0.9-4.4-2.7-7.5-6-13.6c-9-16.2-14.5-26.2-24.2-31.7
				c-10.3-5.9-11.9,0.9-35.5-3c-20.4-3.4-30-10.4-41.5-4.5C295.8,202.1,291.9,204.2,288.4,208.5z"/>
			<path class="st1" d="M233.6,185.5c-0.9-4.2,3.3-5.7,7.6-18.1c2.9-8.5,1.8-10.4,4.5-16.6c2.5-5.7,5.3-8.5,12.1-15.9
				c18.3-19.9,20.4-24.4,23.4-23.4c6.2,2,4.6,22.5,4.5,23.4c-0.8,9.9-4.2,17.3-5.3,19.6c-7.7,16-18.2,18.9-17.4,27.2
				c0.8,8.5,12.4,11.4,11.3,14.4C272.6,201.2,236.1,197.3,233.6,185.5z"/>
			<path class="st1" d="M307.7,150.7c4-3.9,8.2,0.1,17.4-2.3c13.5-3.4,13.2-14.3,27.2-18.9c11.1-3.6,20.9,0.1,22.7,0.8
				c2.2,0.9,12.1,5,17.4,15.9c1.5,3,3.9,8.1,3,14.4c-1.4,9.8-10.4,17.3-18.9,19.6c-9.5,2.6-11.7-3.2-24.9-2.3
				c-6.6,0.5-12.7,2.8-24.9,7.6c-14.5,5.6-19.2,9-21.9,6.8c-2.5-2-0.2-6,0.8-18.1C306.6,159.1,303.9,154.4,307.7,150.7z"/>
			<path class="st1" d="M273.7,213.4c-0.7-1.2-14.9,2.8-24.9,14.4c-3,3.5-4.6,6.4-7.6,12.1c-8.2,15.7-12,30-11.3,30.2
				c0.7,0.3,4.2-19.9,20.4-37.8C262.2,219.2,274.3,214.6,273.7,213.4z"/>
			<path class="st1" d="M268.4,288.2c-0.3,0,0.5-12.4,1.4-22.8c0,0,0-0.3,0.1-0.7c1.4-14.9,5.5-40.9,6-40.8
				C276.8,224.1,269.1,288.3,268.4,288.2z"/>
			<path class="st1" d="M352.2,216.4c2-3.3,14,0.8,15.9,1.5c14.8,5.3,29.5,19.5,31.7,37.8c1.3,10.8-2.2,19.4-7.6,32.5
				c-1.4,3.5-5.5,13.3-7.6,12.8c-2.9-0.7,4.9-19.9-0.8-40C376.4,234.1,349.1,221.6,352.2,216.4z"/>
			<g>
				<g>
					<path class="st3" d="M290.9,204.6c-0.1,0-1,12.9,4.1,24.7c1.3,3.1,2.8,5.4,3.3,6.3c4.1,6.4,8.9,10.3,9.1,10.1
						c0.2-0.2-7.7-5.7-12.6-16.3C289.1,216.8,291,204.5,290.9,204.6z"/>
					
						<ellipse transform="matrix(0.2128 -0.9771 0.9771 0.2128 1.9367 495.1124)" class="st4" cx="308.2" cy="246.4" rx="4.8" ry="4.3"/>
				</g>
				<g>
					<path class="st3" d="M292.7,192.8c-0.1,0-1,12.9,4.1,24.7c1.3,3.1,2.8,5.4,3.3,6.3c4.1,6.4,8.9,10.3,9.1,10.1
						c0.2-0.2-7.7-5.7-12.6-16.3C290.9,205,292.8,192.7,292.7,192.8z"/>
					
						<ellipse transform="matrix(0.2128 -0.9771 0.9771 0.2128 14.9068 487.6038)" class="st4" cx="310.1" cy="234.6" rx="4.8" ry="4.3"/>
				</g>
				<g>
					<path class="st3" d="M296.1,205.1c-0.1,0.1,6,11.4,16.7,18.6c2.8,1.9,5.3,3.1,6.2,3.5c6.9,3.2,13,4,13.1,3.7
						c0-0.3-9.6-0.6-19.4-7C301.1,216.4,296.2,205,296.1,205.1z"/>
					
						<ellipse transform="matrix(0.9395 -0.3424 0.3424 0.9395 -59.0165 128.0389)" class="st4" cx="333.1" cy="231.2" rx="4.3" ry="4.8"/>
				</g>
				<g>
					<path class="st3" d="M291.3,194.2c-0.1,0.1,6,11.4,16.7,18.6c2.8,1.9,5.3,3.1,6.2,3.5c6.9,3.2,13,4,13.1,3.7
						c0-0.3-9.6-0.6-19.4-7C296.3,205.5,291.4,194.1,291.3,194.2z"/>
					
						<ellipse transform="matrix(0.9395 -0.3424 0.3424 0.9395 -55.5547 125.7446)" class="st4" cx="328.4" cy="220.2" rx="4.3" ry="4.8"/>
				</g>
				<g>
					<path class="st3" d="M291.3,210.3c-0.1,0.1,4.7,11,12.5,17.5c2,1.7,3.9,2.7,4.5,3.1c5,2.8,9.3,3.1,9.3,2.9
						c0-0.3-6.8,0-13.9-5.8C295.3,221.3,291.4,210.2,291.3,210.3z"/>
					
						<ellipse transform="matrix(0.9963 -8.559288e-02 8.559288e-02 0.9963 -18.8537 28.117)" class="st4" cx="318.5" cy="233.9" rx="3.1" ry="4.7"/>
				</g>
				<g>
					<path class="st3" d="M287.5,199.7c-0.1,0.1,4.7,11,12.5,17.5c2,1.7,3.9,2.7,4.5,3.1c5,2.8,9.3,3.1,9.3,2.9
						c0-0.3-6.8,0-13.9-5.8C291.5,210.7,287.5,199.6,287.5,199.7z"/>
					
						<ellipse transform="matrix(0.9963 -8.559288e-02 8.559288e-02 0.9963 -17.9586 27.7493)" class="st4" cx="314.6" cy="223.3" rx="3.1" ry="4.7"/>
				</g>
				<g>
					<path class="st3" d="M294.5,207.7c0,0.1,8.1,5.7,17.2,5.3c2.4-0.1,4.3-0.6,5-0.8c5.3-1.4,9.1-4.5,9-4.7
						c-0.1-0.3-5.7,5.1-13.9,5.7C302,213.9,294.5,207.6,294.5,207.7z"/>
					
						<ellipse transform="matrix(0.9897 -0.1431 0.1431 0.9897 -26.2711 48.8426)" class="st4" cx="326.3" cy="207" rx="3.2" ry="4.5"/>
				</g>
				<g>
					<path class="st3" d="M287.3,201.7c0,0.1,8.1,5.7,17.2,5.3c2.4-0.1,4.3-0.6,5-0.8c5.3-1.4,9.1-4.5,9-4.7
						c-0.1-0.3-5.7,5.1-13.9,5.7C294.8,207.9,287.3,201.5,287.3,201.7z"/>
					
						<ellipse transform="matrix(0.9897 -0.1431 0.1431 0.9897 -25.4786 47.7441)" class="st4" cx="319.1" cy="201" rx="3.2" ry="4.5"/>
				</g>
				<g>
					<path class="st3" d="M288.3,203.3c-0.1,0-0.5,7.2,2,13.8c0.7,1.7,1.4,3,1.7,3.5c2,3.6,4.4,5.8,4.5,5.7c0.1-0.1-3.8-3.2-6.3-9.1
						C287.4,210.1,288.4,203.3,288.3,203.3z"/>
					
						<ellipse transform="matrix(9.791403e-02 -0.9952 0.9952 9.791403e-02 42.335 499.9444)" class="st4" cx="296.9" cy="226.6" rx="2.7" ry="2.1"/>
				</g>
				<g>
					<path class="st3" d="M289.2,196.7c-0.1,0-0.5,7.2,2,13.8c0.7,1.7,1.4,3,1.7,3.5c2,3.6,4.4,5.8,4.5,5.7c0.1-0.1-3.8-3.2-6.3-9.1
						C288.3,203.5,289.3,196.7,289.2,196.7z"/>
					
						<ellipse transform="matrix(9.791403e-02 -0.9952 0.9952 9.791403e-02 49.7151 494.8954)" class="st4" cx="297.8" cy="220" rx="2.7" ry="2.1"/>
				</g>
				<g>
					<path class="st3" d="M290.9,203.6c-0.1,0.1,3,6.4,8.3,10.4c1.4,1.1,2.6,1.7,3.1,2c3.4,1.8,6.5,2.2,6.5,2.1
						c0-0.2-4.7-0.4-9.6-3.9C293.4,209.9,291,203.5,290.9,203.6z"/>
					
						<ellipse transform="matrix(0.9873 -0.1588 0.1588 0.9873 -30.7202 51.8916)" class="st4" cx="309.3" cy="218.1" rx="2.2" ry="2.7"/>
				</g>
				<g>
					<path class="st3" d="M288.5,197.5c-0.1,0.1,3,6.4,8.3,10.4c1.4,1.1,2.6,1.7,3.1,2c3.4,1.8,6.5,2.2,6.5,2.1
						c0-0.2-4.7-0.4-9.6-3.9C291,203.8,288.6,197.4,288.5,197.5z"/>
					
						<ellipse transform="matrix(0.9873 -0.1588 0.1588 0.9873 -29.7783 51.4384)" class="st4" cx="306.9" cy="212" rx="2.2" ry="2.7"/>
				</g>
				<g>
					<path class="st3" d="M288.5,206.5c0,0.1,2.3,6.2,6.2,9.8c1,1,1.9,1.5,2.2,1.7c2.5,1.6,4.6,1.7,4.6,1.6c0-0.2-3.3,0-6.9-3.2
						C290.5,212.6,288.6,206.4,288.5,206.5z"/>
					
						<ellipse transform="matrix(0.9978 -6.574116e-02 6.574116e-02 0.9978 -13.7884 20.3297)" class="st4" cx="302" cy="219.7" rx="1.5" ry="2.6"/>
				</g>
				<g>
					<path class="st3" d="M286.6,200.6c0,0.1,2.3,6.2,6.2,9.8c1,1,1.9,1.5,2.2,1.7c2.5,1.6,4.6,1.7,4.6,1.6c0-0.2-3.3,0-6.9-3.2
						C288.6,206.7,286.7,200.5,286.6,200.6z"/>
					
						<ellipse transform="matrix(0.9978 -6.574116e-02 6.574116e-02 0.9978 -13.4023 20.1916)" class="st4" cx="300.1" cy="213.7" rx="1.5" ry="2.6"/>
				</g>
				<g>
					<path class="st3" d="M290.1,205c0,0.1,4,3.2,8.5,2.9c1.2-0.1,2.1-0.3,2.5-0.4c2.6-0.8,4.5-2.5,4.4-2.6c0-0.2-2.8,2.9-6.9,3.2
						C293.9,208.5,290.1,205,290.1,205z"/>
					
						<ellipse transform="matrix(0.9946 -0.1037 0.1037 0.9946 -19.5801 32.8423)" class="st4" cx="305.9" cy="204.6" rx="1.6" ry="2.5"/>
				</g>
				<g>
					<path class="st3" d="M286.5,201.6c0,0.1,4,3.2,8.5,2.9c1.2-0.1,2.1-0.3,2.5-0.4c2.6-0.8,4.5-2.5,4.4-2.6c0-0.2-2.8,2.9-6.9,3.2
						C290.3,205.1,286.6,201.6,286.5,201.6z"/>
					
						<ellipse transform="matrix(0.9946 -0.1037 0.1037 0.9946 -19.2484 32.4516)" class="st4" cx="302.3" cy="201.3" rx="1.6" ry="2.5"/>
				</g>
			</g>
		</g>
	</g>
</g>
</svg>
