<?xml version="1.0" encoding="UTF-8"?>
<svg id="_Слой_1" data-name="Слой 1" xmlns="http://www.w3.org/2000/svg" width="500" height="500" xmlns:xlink="http://www.w3.org/1999/xlink" viewBox="0 0 500 500">
  <defs>
    <style>
      .cls-1 {
        fill: #466489;
      }

      .cls-1, .cls-2, .cls-3, .cls-4, .cls-5, .cls-6 {
        stroke: #534741;
      }

      .cls-1, .cls-2, .cls-3, .cls-4, .cls-5, .cls-6, .cls-7 {
        stroke-linecap: round;
        stroke-linejoin: round;
        stroke-width: .5px;
      }

      .cls-8 {
        fill: url(#_Безымянный_градиент_4-9);
      }

      .cls-2 {
        fill: #ff7455;
      }

      .cls-9 {
        fill: #f2f2e7;
      }

      .cls-10 {
        fill: #dbf784;
      }

      .cls-10, .cls-11, .cls-12, .cls-13, .cls-14, .cls-15, .cls-16, .cls-17, .cls-18, .cls-19, .cls-20, .cls-21 {
        stroke-miterlimit: 10;
      }

      .cls-10, .cls-11, .cls-12, .cls-13, .cls-15, .cls-17, .cls-20, .cls-21 {
        stroke: #1d1e1c;
      }

      .cls-22, .cls-14 {
        fill: #fff;
      }

      .cls-3 {
        fill: #57bfff;
      }

      .cls-11 {
        fill: #fbf2cb;
      }

      .cls-23 {
        fill: #807d71;
        opacity: .65;
      }

      .cls-24 {
        fill: url(#_Безымянный_градиент_4-7);
      }

      .cls-4 {
        fill: #faff1a;
      }

      .cls-12 {
        fill: url(#_Безымянный_градиент_2);
      }

      .cls-25 {
        fill: url(#_Безымянный_градиент_4-10);
      }

      .cls-13 {
        fill: url(#_Безымянный_градиент_5);
        stroke-width: .75px;
      }

      .cls-26 {
        fill: #e9e3c6;
        opacity: .52;
      }

      .cls-14, .cls-19 {
        stroke: #000f4c;
      }

      .cls-15, .cls-27 {
        fill: #b2afa1;
      }

      .cls-28 {
        fill: #7c7c7c;
      }

      .cls-29 {
        fill: url(#_Безымянный_градиент_4-2);
      }

      .cls-5 {
        fill: #bc9d1d;
      }

      .cls-16 {
        fill: #d84545;
        stroke: #000;
      }

      .cls-17 {
        fill: #ec6d8f;
      }

      .cls-30 {
        fill: url(#_Безымянный_градиент_4-8);
      }

      .cls-31 {
        opacity: .4;
      }

      .cls-18 {
        stroke: #1d1d1b;
      }

      .cls-18, .cls-20 {
        fill: #ccc8b4;
      }

      .cls-19 {
        fill: #57d4ff;
      }

      .cls-32 {
        fill: url(#_Безымянный_градиент_4-11);
      }

      .cls-6 {
        fill: #c64c38;
      }

      .cls-33 {
        fill: url(#_Безымянный_градиент_4);
      }

      .cls-21 {
        fill: url(#_Безымянный_градиент_2-2);
      }

      .cls-34 {
        fill: url(#_Безымянный_градиент_4-4);
      }

      .cls-35 {
        fill: url(#_Безымянный_градиент_4-5);
      }

      .cls-36 {
        fill: url(#_Безымянный_градиент_4-3);
      }

      .cls-7 {
        fill: #b4e0ef;
        stroke: #2e3192;
      }

      .cls-37 {
        fill: url(#_Безымянный_градиент_4-6);
      }

      .cls-38 {
        fill: url(#_Безымянный_градиент_4-12);
      }
    </style>
    <radialGradient id="_Безымянный_градиент_5" data-name="Безымянный градиент 5" cx="278.47" cy="150.7" fx="278.47" fy="150.7" r="2.7" gradientTransform="translate(-467.6 -839.14) rotate(21.3) scale(4.03 3.87) skewX(-2.18)" gradientUnits="userSpaceOnUse">
      <stop offset=".36" stop-color="#7a3a1b" stop-opacity=".72"/>
      <stop offset=".98" stop-color="#422918"/>
    </radialGradient>
    <radialGradient id="_Безымянный_градиент_2" data-name="Безымянный градиент 2" cx="272.34" cy="245.84" fx="272.34" fy="245.84" r="6.96" gradientTransform="translate(-848.8 -906.95) scale(4.06 3.84)" gradientUnits="userSpaceOnUse">
      <stop offset=".36" stop-color="#f6b8a3"/>
      <stop offset=".99" stop-color="#fff"/>
    </radialGradient>
    <radialGradient id="_Безымянный_градиент_2-2" data-name="Безымянный градиент 2" cx="-348.24" cy="132.47" fx="-348.24" fy="132.47" r="6.96" gradientTransform="translate(-480.47 -739.5) rotate(-156.52) scale(3.45 -3.02) skewX(2.14)" xlink:href="#_Безымянный_градиент_2"/>
    <radialGradient id="_Безымянный_градиент_4" data-name="Безымянный градиент 4" cx="233.8" cy="124.49" fx="233.8" fy="124.49" r="1.13" gradientTransform="translate(785.1 -1005.15) rotate(92.63) scale(4.75 3.16) skewX(-3.94)" gradientUnits="userSpaceOnUse">
      <stop offset=".63" stop-color="#3e3634" stop-opacity=".72"/>
      <stop offset=".99" stop-color="#fff" stop-opacity=".1"/>
    </radialGradient>
    <radialGradient id="_Безымянный_градиент_4-2" data-name="Безымянный градиент 4" cx="236.36" cy="125.8" fx="236.36" fy="125.8" r="1.13" gradientTransform="translate(800.55 -1008.49) rotate(92.63) scale(4.75 3.16) skewX(-3.94)" xlink:href="#_Безымянный_градиент_4"/>
    <radialGradient id="_Безымянный_градиент_4-3" data-name="Безымянный градиент 4" cx="243.07" cy="108.83" fx="243.07" fy="108.83" r="1.13" gradientTransform="translate(738.39 -1068.21) rotate(91.18) scale(4.7 3.2) skewX(-1.7)" xlink:href="#_Безымянный_градиент_4"/>
    <radialGradient id="_Безымянный_градиент_4-4" data-name="Безымянный градиент 4" cx="248.21" cy="82.71" fx="248.21" fy="82.71" r="1.13" gradientTransform="translate(603.08 -1128.86) rotate(88.36) scale(4.71 3.19) skewX(2.38)" xlink:href="#_Безымянный_градиент_4"/>
    <radialGradient id="_Безымянный_градиент_4-5" data-name="Безымянный градиент 4" cx="249.14" cy="55.39" fx="249.14" fy="55.39" r="1.13" gradientTransform="translate(480.34 -1172.72) rotate(86.36) scale(4.83 3.11) skewX(5.86)" xlink:href="#_Безымянный_градиент_4"/>
    <radialGradient id="_Безымянный_градиент_4-6" data-name="Безымянный градиент 4" cx="-78.88" cy="68.71" fx="-78.88" fy="68.71" r="1.13" gradientTransform="translate(173.14 -336.02) rotate(-87.06) scale(4.73 3.18) skewX(-4.34)" xlink:href="#_Безымянный_градиент_4"/>
    <radialGradient id="_Безымянный_градиент_4-7" data-name="Безымянный градиент 4" cx="-76.32" cy="70.02" fx="-76.32" fy="70.02" r="1.13" gradientTransform="translate(158.75 -333.98) rotate(-87.06) scale(4.73 3.18) skewX(-4.34)" xlink:href="#_Безымянный_градиент_4"/>
    <radialGradient id="_Безымянный_градиент_4-8" data-name="Безымянный градиент 4" cx="-73.62" cy="85.43" fx="-73.62" fy="85.43" r="1.13" gradientTransform="translate(81.42 -302.22) rotate(-88.57) scale(4.68 3.21) skewX(-2)" xlink:href="#_Безымянный_градиент_4"/>
    <radialGradient id="_Безымянный_градиент_4-9" data-name="Безымянный градиент 4" cx="-224.61" cy="45.96" fx="-224.61" fy="45.96" r="1.13" gradientTransform="translate(318.83 -505.12) rotate(-85.11) scale(2.52 2.02) skewX(-4.96)" xlink:href="#_Безымянный_градиент_4"/>
    <radialGradient id="_Безымянный_градиент_4-10" data-name="Безымянный градиент 4" cx="-222.05" cy="47.27" fx="-222.05" fy="47.27" r="1.13" gradientTransform="translate(310.74 -504.61) rotate(-85.11) scale(2.52 2.02) skewX(-4.96)" xlink:href="#_Безымянный_градиент_4"/>
    <radialGradient id="_Безымянный_градиент_4-11" data-name="Безымянный градиент 4" cx="-220.89" cy="77.77" fx="-220.89" fy="77.77" gradientTransform="translate(195.14 -482.19) rotate(-89.57) scale(2.5 2.04) skewX(-.41)" xlink:href="#_Безымянный_градиент_4"/>
    <radialGradient id="_Безымянный_градиент_4-12" data-name="Безымянный градиент 4" cx="-156.35" cy="61.02" fx="-156.35" fy="61.02" r="1.13" gradientTransform="translate(243.11 -449.93) rotate(-85.02) scale(3.19 2.57) skewX(-4.98)" xlink:href="#_Безымянный_градиент_4"/>
  </defs>
  <g>
    <g>
      <polygon class="cls-4" points="445.93 440.65 237.84 418.42 329.34 350.35 498.47 366.32 445.93 440.65"/>
      <path class="cls-7" d="m438.76,482.22l-197.97-19.15c1.81-2.8.95-9.91,1.39-19.83.38-8.51-2.1-14.87-3.48-17.82,67.64,6.38,140.01,13.22,207.65,19.6l-7.59,37.2Z"/>
      <path class="cls-4" d="m494.37,401.75l-55.53,80.48c2.04-2.98,5.37-8.69,6.67-16.61,1.96-11.95.02-24.6-1.5-27.72,19.12-24.99,36.23-46.49,55.35-71.48,1.11,3.02,3.41,10.5,1.62,19.98-1.41,7.47-4.71,12.73-6.61,15.35Z"/>
      <path class="cls-5" d="m439.62,444.45l-202.01-16.59c-1.78-.15-3.04-1.84-2.82-3.76l.24-1.99c.11-.95.57-1.79,1.22-2.36,0,0,.9-.79,2.37-.8,3.03-.03,163.17,14.99,205.39,18.96,1.46,2.32,7.12,11.92,5.05,24.61-1.57,9.64-6.81,16.11-8.5,18.16-2.44,2.94-4.87,4.97-6.64,6.27l-197.07-16.6c-1.78-.13-3.04-1.84-2.82-3.76l.24-1.99c.23-1.91,1.82-3.31,3.58-3.14,65.45,6.16,127.71,12.11,193.26,18.28.82-.59,12.52-9.26,12.26-22.9-.11-5.79-2.33-10.1-3.74-12.35Z"/>
    </g>
    <g>
      <polygon class="cls-3" points="311.42 416.09 486.47 391.15 408.83 351.05 266.54 369.95 311.42 416.09"/>
      <path class="cls-7" d="m317.81,442.42l170.72-22.67c-1.55-1.75-5.04-6.21-5.5-12.69-.39-5.57,1.64-9.86,2.78-11.86-56.91,7.56-117.79,15.64-174.7,23.2l6.71,24.03Z"/>
      <path class="cls-3" d="m270.29,392.41l47.45,50.03c-1.74-1.85-4.6-5.44-5.76-10.56-1.75-7.74-.23-16.14,1.03-18.26-16.32-15.44-30.91-28.69-47.23-44.13-.91,2.04-2.78,7.06-1.19,13.18,1.25,4.83,4.07,8.12,5.7,9.74Z"/>
      <path class="cls-1" d="m316.76,417.69l169.98-20.94c1.5-.19,2.55-2.24,2.34-3.49l-.22-.41c-.1-.62-.49-1.14-1.04-1.49,0,0-.76-.47-2-.41-2.55.13-137.28,17.96-172.8,22.66-1.21,1.59-5.89,8.17-4.04,16.39,1.41,6.25,5.87,10.23,7.32,11.49,2.08,1.81,4.15,3.02,5.65,3.78l169.97-20.95c1.5-.18,2.55-1.36,2.34-2.61l-.22-1.3c-.21-1.24-1.56-2.08-3.04-1.88-55.07,7.3-111.6,14.55-166.75,21.86-.7-.34-10.62-5.45-10.52-14.41.04-3.8,1.87-6.74,3.05-8.29Z"/>
    </g>
    <g>
      <polygon class="cls-2" points="426.29 371.3 250.22 352.99 325.9 310 468.96 323.5 426.29 371.3"/>
      <path class="cls-7" d="m421.15,397.85l-171.63-16.2c1.46-1.81,4.75-6.39,4.9-12.89.13-5.58-2.11-9.79-3.34-11.75,57.21,5.4,118.43,11.18,175.64,16.58l-5.57,24.26Z"/>
      <path class="cls-2" d="m466.27,346.09l-45.05,51.77c1.65-1.92,4.33-5.6,5.25-10.77,1.38-7.8-.54-16.13-1.89-18.2,15.58-16.04,29.53-29.83,45.1-45.88,1.01,2,3.11,6.95,1.81,13.13-1.02,4.87-3.69,8.26-5.23,9.95Z"/>
      <path class="cls-6" d="m421.03,373.1l-170.81-14.5c-1.5-.13-2.61-1.26-2.46-2.52l.15-1.3c.07-.62.44-1.16.97-1.52,0,0,.74-.5,1.98-.48,2.56.04,138,12.76,173.72,16.12,1.28,1.54,6.28,7.94,4.81,16.23-1.11,6.3-5.38,10.44-6.77,11.75-1.99,1.89-4,3.17-5.46,3.99l-170.81-14.51c-1.51-.12-2.61-1.26-2.46-2.52l.15-1.3c.15-1.25,1.46-2.14,2.95-2,55.36,5.21,112.19,10.32,167.64,15.54.68-.37,10.36-5.85,9.83-14.8-.22-3.8-2.19-6.66-3.44-8.17Z"/>
    </g>
  </g>
  <g>
    <g>
      <path class="cls-18" d="m173.44,106.22c-6.99,4.17-15.52,10.98-15.18,11.57.06.1.37.01.65-.09,2.25-.06,4.5-.12,6.76-.18-5.71,7.81-11.9,15.23-18.51,22.19,3.93-.72,7.86-1.44,11.8-2.16-11.27,11.03-22.55,22.06-33.82,33.09,2.76-.85,5.53-1.71,8.29-2.56-8.4,11.27-16.81,22.55-25.21,33.82,3.11-.83,6.21-1.65,9.32-2.48-8.99,10.03-17.99,20.05-26.98,30.08,5.1-.51,8.05,6.64,6.7,11.88-1.24,4.8-5.69,7.07-7.08,14.39-.52,2.75-.3,5.1-.07,6.54,1.69-.11,3.39-.22,5.08-.33-11.74,18.01-20.97,37.85-27.3,58.69-9.11,29.99-24.81,107.07-6.91,132.22,12.46,16,19.23,35.98,52.51,21.64,20.1-8.66,34.54-30.49,46.37-50.11,15.36-8.93,29.51-20.21,41.86-33.39,2.5,22.52,5.01,45.03,7.51,67.55,1.22,5.77,7.42,9.76,12.82,8.25,1.18,3.41,2.37,6.81,3.55,10.22,4.79-1.7,10.59,2.11,11.29,7.41,28.88-17.5,50.27-48.33,57.41-82.75.64,1.76,3.16.82,4.51-.41,16.26-14.84,27.82-35.36,32.43-57.57,2.54,2.3,5.09,4.61,7.63,6.91,4.2-10.81,4.91-23.11,1.98-34.38,2.06,2.7,4.12,5.41,6.18,8.11,1.81-7.33,2.08-15.08.8-22.54,2.49,1.99,4.98,3.98,7.47,5.98,1.12-12.58.95-25.29-.52-37.83,2.58,2.35,5.17,4.69,7.75,7.04,2.84-10.73,4.03-21.96,3.52-33.09,1.19,4.46,4.67,8.16,8.88,9.43,3.26-7.8,4-16.75,2.08-25.03,3.82,1.5,7.29,3.98,10.03,7.17,4.31-13.06,4.75-27.53,1.23-40.86.41,3.22,5.19,3.66,7.24,1.24,2.05-2.42,2.06-6.03,1.91-9.27-.6-13.07-1.95-26.11-4.04-39.01,3.49,0,6.98,0,10.47-.01-1.55-4.83.53-10.67,4.71-13.21-12.3-1.58-21.02-17.14-16.44-29.34-6.76.16-13.45,2.68-18.79,7.07-1.25-9.12-2.5-18.23-3.75-27.35-9.42,8.99-23.38,10.19-35.96,8.53-8.53-1.13-16.89-3.34-25.22-5.55-11.15-2.95-73.14-17.32-84.29-20.27-4.49-5.59-41.74,33.44-50.64,38.75Z"/>
      <path class="cls-20" d="m227.64,465.15c-6.18-3.32-13.22-3.5-17.62-.29-3.04,2.22-5.41,7.31-5.39,11.92.02,4.07,2.24,7.79,2.72,8.59,1.74,2.94,5.04,6.07,7.85,7.67,6.65,3.77,14.33,1.98,18.47-7.74"/>
      <g>
        <path class="cls-20" d="m245.39,482.88c2.21,6.24,7.3,10.74,12.83,11.15,3.83.28,9.2-1.92,12.47-5.28,2.88-2.95,3.88-7.03,4.1-7.91.8-3.21.59-7.52-.36-10.42-2.24-6.86-9.2-10.32-19.17-5.87"/>
        <path class="cls-20" d="m230.45,486.81c1.4,5.29,6.31,10.6,12.83,11.15,6.02.5,10.59-3.35,12.47-5.28,2.88-2.95,3.88-7.03,4.1-7.91.8-3.21.59-7.52-.36-10.42-.44-1.35-1.76-4.46-4.94-6.37-5.81-3.49-13.3.04-14.24.5-6.14,3-11.97,10.43-9.87,18.33Z"/>
      </g>
      <path class="cls-20" d="m230.69,59.5s-4.57,4.98-7.66,9.27c-3.1,4.3-6.47,12.77-6.47,12.77,3.74-1.21,7.49-2.43,11.23-3.64-7.49,3.97-12.82,11.95-13.59,20.33,3.17-2.15,6.34-4.3,9.51-6.45-5.65,4.73-9.49,11.62-10.5,18.85,2.2-1.04,4.71-1.38,7.06-.93-4.23,6.64-7.63,13.8-10.07,21.25,1.72-.29,3.44-.57,5.16-.86-4.28,5.53-6.31,12.73-5.54,19.55,4.78-2.78,10.15-4.5,15.59-4.97-3.43,4.9-5.01,11.03-4.34,16.86,5.23-1.62,10.04-4.72,13.73-8.83-1.17,4.46-.73,9.27,1.22,13.34,3.49-1.96,6.98-3.92,10.46-5.89-.7,3.85-.37,7.86.94,11.48,3.54-2.06,7.07-4.12,10.61-6.18,1.68,5.02,3.36,10.04,5.04,15.07,4.33-.58,8.41-3.22,10.78-6.97,1.25,3.71,2.51,7.42,3.76,11.13,2.41-2.5,6.63-2.18,9.37-.24,2.74,1.94,4.34,5.07,5.85,8.08,3.59-2.73,9.39-1.44,11.3,2.52l.9,2.95,2.87-2.03c3.69-2.6,9.43-1.09,11.18,2.94,2.86-1.95,5.86-3.96,9.25-4.42,3.39-.45,7.25,1.19,8.09,4.48,2.99-2.68,5.98-5.36,8.98-8.03.16,4.37,2.39,8.54,5.88,11.02,4.03-3.63,8.07-7.27,12.1-10.9,2.05,3.42,4.09,6.84,6.14,10.25,2.99-2.58,5.32-5.93,6.68-9.63,2.05,3.31,4.11,6.62,6.16,9.93,3.78-2.67,6.63-6.69,7.88-11.13,1.13,5.29,3.77,10.19,7.52,14,3.55-4.81,5.3-10.9,4.8-16.75,4.52,2.9,8.35,6.84,11.12,11.46,4.16-5.62,6.04-12.85,5.12-19.65,1.36,1.03,2.72,2.07,4.08,3.1,1.66-7.64,2.34-15.46,2.02-23.21,2.28.68,4.31,2.12,5.71,4.04,2.81-6.79,2.96-14.58.42-21.3,1.68,3.33,3.36,6.66,5.04,9.99,3.61-7.69,3.01-17.11-1.53-24.01,2.66,2.77,5.32,5.54,7.98,8.31,0,0,.47-1.43,1.39-12.72.92-11.29-2.07-13.34-2.07-13.34l.81-3.03c1.48-3.93-.03-8.69-3.47-10.89,1.03-.33,2.06-.66,3.09-.99-3.4-9.3-8.07-19.77-17.65-22.2,1.22-1.05,2.44-2.1,3.66-3.15-2.36-1.65-5.02-2.87-7.83-3.58,1.88-.86,3.55-2.19,4.83-3.83-7.13-2.23-14.38-4.09-21.72-5.56.81-1.09,1.22-2.47,1.13-3.8-.9.02-1.8.05-2.69.07-.55-1.85-1.11-3.7-1.66-5.55-2.04.93-4.08,1.85-6.12,2.78-.02-2.53,3.8-4.51,2-6.23-.75,1.17-6.39,3.87-8.72,2.62-2.19-1.17-1.1-6.21-.96-7.89-5.09,7.66-12.02,5.56-10.57-2.61-.75.8-2.9,3.11-4.17,2.74-.91-.26-1.08-2.96-1.3-3.67-1.14.34-2.27.67-3.41,1.01-.12-1.96-.9-3.86-2.17-5.31-.35,1.33-2.26,1.66-3.36.9s-1.56-2.13-1.97-3.42c-1.14.47-2.28.93-3.42,1.4-.42-1.87-.84-3.75-1.26-5.62-1.06,2.18-2.12,4.35-3.18,6.53.08-2.2.16-4.39.23-6.59-1.57,1.51-2.78,3.41-3.48,5.47-.1-.95-3.96-5.79-3.96-5.79,0,0-5.53,2.9-6.14,3.9-.14-2.22-.99-4.36-2.39-6.04-1.28,1.11-2.89,1.83-4.55,2.03-.52-1.09-1.04-2.18-1.56-3.27-1.18,1.12-2.36,2.25-3.54,3.37,0-2.57-1.05-5.09-2.86-6.85-1.68,2.97-4.13,5.51-7.02,7.3-.07-2.96,2.52-12.68-3.33-4.71-1.08,1.34-2.52,2.39-4.11,3.02-.17-1.26,1.12-7.93-.94-7.72-.95.1-5.19,6.91-6,7,.19-1.22-9.76-10.77-11.49-4.82-1.73,5.94-4.51,2.96-5.22,3.11-3.29.7-4.69-4.61-7.96-5.2-1.8-.32-3.62.98-4.51,2.63-.89,1.64-1.06,3.55-1.22,5.39-1.52-1.96-4.81-1.63-6.74.06-1.93,1.69-2.79,4.26-3.39,6.73-.37,1.5-.84,3.23-2.23,3.89-.97.46-2.09.25-3.12.02-3.61-.8-7.21-1.59-10.82-2.39.7,2.3,1.31,5.08-.28,6.96-2.69,3.19-8.72.49-11.41,3.67,1.47,1.83,2.93,3.66,4.4,5.5-3.42,1.46-6.85,2.93-10.27,4.39,1.86.54,3.33,2.16,3.69,4.07l-.85,3.25Z"/>
      <ellipse class="cls-26" cx="222.82" cy="315.95" rx="83.53" ry="73.42"/>
      <path class="cls-17" d="m322.6,110.21c-.84,1.21-10.63,15.08-9.5,20.28,1.56,7.2,9.93,12.7,17.85,11.26,7.13-1.3,19.81-13.55,20.24-14.39"/>
      <path class="cls-27" d="m346.45,167.67c3.27,3.47,17.17,16.85,43.26,7.58,11.14-3.96,20.77-10.72,27.15-15.85-9.27,3.88-21.01,7.86-33.9,9.77-16.03,2.37-28.17.7-36.5-1.5Z"/>
      <path class="cls-13" d="m340.38,109.18c-.44-.52-.27-5.22.26-7.05-.04-.18-.11-.49-.28-.84-1.56-3.19-8.14-3.72-8.14-3.72,0,0,0,0,0,0-.65-.98,1.28-1.95,1.83-2.28s2.45-1.55,6.31-1.09l6.26,1.89s-.19-.08.81.31c1,.39,5.85,2.83,5.85,2.83,3.08,2.25,3.52,4.37,3.67,4.98s.79,2.57-.4,2.84c0,0,0,0,0,0,0,0-5.06-4.01-8.55-2.78-.38.13-.67.3-.82.41-.99,1.65-4.38,5.1-5.08,5.18l-1.71-.67Z"/>
      <g>
        <path class="cls-12" d="m272.57,19.02c5.11,3.06,9.08,6.41,12.08,9.36.11,1.01.22,2.02.33,3.03-.33-.62-.66-1.25-1.19-1.72s-1.31-.76-2-.55c.92,2.27,1.84,4.54,2.76,6.82-3.11-1.09-4.68-4.56-7.72-5.79.91,1.57,1.34,3.38,1.22,5.16-1.57-1.58-3.45-2.88-5.52-3.82.87,2.57,1.9,5.09,3.1,7.54-2.09-1.89-4.17-3.78-6.26-5.68.56,2.45,1.02,4.92,1.35,7.41-2.26-1.79-4.51-3.59-6.77-5.38,1.85,2.7,3.7,5.4,5.55,8.09-1.99-1.27-3.87-2.68-5.62-4.22,1.37,2.23,2.39,4.67,3,7.18-1.89-1.25-3.94-2.56-6.25-2.51.22,1.11.45,2.21.67,3.32-.82-.57-1.75-1-2.72-1.27.71,1.87,1.43,3.74,2.14,5.61-1.57-1.43-3.25-2.75-5.02-3.95.67,1.09,1.06,2.34,1.13,3.6.03.62-.26,1.45-.9,1.37.24,2.06.13,4.15-.32,6.18-.94-.8-2.19-1.26-3.45-1.27-.13,0-.27,0-.37.09-.15.12-.12.35-.08.53.22.94.44,1.89.66,2.83-.6-.29-1.19-.58-1.79-.88-.2-.1-.48-.19-.63-.03-.08.08-.1.19-.11.3-.12.99-.32,1.71-.44,2.7-11.77-4.91-18.55-15.16-20.54-26.28-1.97-10.98,4.14-23.55,15.29-27.08,0,0,.08.02.22.07,6.55.67,17.26,2.66,28.22,9.23Z"/>
        <path class="cls-20" d="m246.19,8.83l8.16,1.84c5,1.46,11.39,3.85,18.18,7.86,5.33,3.14,9.55,6.48,12.77,9.4.67-1.19,2-3.18,4.42-4.88,1.71-1.2,3.37-1.84,4.55-2.19,2.36-.41,4.72-.81,7.08-1.22-14.22-7.62-30.55-11.68-46.9-11.65-2.29,0-9.19.87-10.33,1.21"/>
      </g>
      <g>
        <path class="cls-21" d="m440.58,81.59c-5.04.44-9.29,1.46-12.64,2.54-.43.68-.87,1.35-1.3,2.03.47-.33.95-.66,1.52-.81s1.28-.09,1.75.29c-1.5,1.3-3,2.59-4.5,3.89,2.8.28,5.22-1.64,8.02-1.49-1.25.8-2.21,1.94-2.73,3.24,1.77-.59,3.68-.87,5.62-.83-1.56,1.53-3.24,2.96-5.01,4.29,2.28-.63,4.55-1.27,6.83-1.9-1.28,1.54-2.49,3.14-3.6,4.79,2.38-.51,4.75-1.01,7.13-1.52-2.37,1.28-4.74,2.57-7.11,3.85,1.99-.22,3.94-.59,5.84-1.09-1.84,1.12-3.47,2.5-4.81,4.07,1.9-.25,3.96-.47,5.74.34-.56.71-1.11,1.41-1.67,2.12.84-.12,1.71-.12,2.56.02-1.2,1.08-2.4,2.17-3.6,3.25,1.71-.48,3.48-.85,5.28-1.09-.9.55-1.63,1.3-2.12,2.17-.24.43-.3,1.12.23,1.28-.9,1.38-1.53,2.9-1.88,4.48,1.01-.25,2.14-.15,3.13.27.1.04.21.1.26.19.07.14-.03.29-.12.4-.5.59-.99,1.19-1.49,1.78.57,0,1.13,0,1.7-.01.19,0,.44.03.5.19.03.08,0,.17-.02.25-.24.74-.34,1.32-.58,2.06,10.87.51,19.68-4.45,25.06-11.65,5.31-7.11,4.88-18.08-2.6-24.35,0,0-.07,0-.2-.02-5.34-1.74-14.37-3.96-25.18-3.02Z"/>
        <path class="cls-20" d="m464.66,83.31l-7-1.46c-4.4-.66-10.21-1.13-16.88-.6-5.24.42-9.68,1.35-13.19,2.33-.11-1.06-.47-2.93-1.77-4.95-.92-1.43-2-2.44-2.79-3.09-1.7-1.09-3.4-2.17-5.11-3.26,13.71-.58,27.85,2.08,40.58,7.63,1.79.78,6.87,3.73,7.64,4.35"/>
      </g>
      <g>
        <g class="cls-31">
          <path class="cls-9" d="m320.03,72.18l1.75,7.85,2.85,4.01-4.6.9c-8.04,2.21-16.07,4.43-24.11,6.64-5.61,1.55-11.28,3.11-16.39,5.88-6.92,3.75-12.58,9.56-19.69,12.92,3.03-11.47,11.08-21.13,20.57-28.31,9.49-7.18,20.44-12.18,31.29-17.12l13.74-5.35-5.42,12.58"/>
        </g>
        <g class="cls-31">
          <path class="cls-28" d="m327.58,80.65l2.4,2.63-4.6.9c-8.04,2.21-16.07,4.43-24.11,6.64-5.61,1.55-11.28,3.11-16.39,5.88-6.92,3.75-12.58,9.56-19.69,12.92.83-2.11,3.9-4.02,6.3-6.08,15.29-13.19,55.89-24.75,56.1-22.89Z"/>
        </g>
        <g class="cls-31">
          <path class="cls-28" d="m325.83,58.69l-13.74,5.35c-10.85,4.94-21.8,9.93-31.29,17.12-9.49,7.18-17.55,16.84-20.57,28.31,2.62-1.23,8.26-12.48,18.41-19.93,17.43-12.79,39.32-20.35,42.87-21.33"/>
        </g>
      </g>
      <g>
        <ellipse class="cls-10" cx="326.51" cy="71.81" rx="13.49" ry="8" transform="translate(90.92 309.01) rotate(-57.6)"/>
        <ellipse cx="325.56" cy="75.94" rx="9.7" ry="7.17" transform="translate(79.64 302.38) rotate(-55.77)"/>
        <ellipse class="cls-22" cx="325.92" cy="70.31" rx="2.65" ry="1.69" transform="translate(90.22 306.13) rotate(-57.19)"/>
      </g>
      <g>
        <g class="cls-31">
          <path class="cls-9" d="m377.43,96.6l-6.39,5.65-4.4,2.03,2.06,2.74c3.17,5.31,6.33,10.63,9.5,15.94,2.21,3.71,4.44,7.46,5.52,11.96,1.47,6.08.78,13.3,2.63,19.14,6.09-10.69,8.01-22.09,7.39-32.1-.61-10.01-3.57-18.87-6.52-27.63l-4.35-10.37-5.46,12.64"/>
        </g>
        <g class="cls-31">
          <path class="cls-28" d="m367.24,100.22l-3.2,1.11,2.06,2.74c3.17,5.31,6.33,10.63,9.5,15.94,2.21,3.71,4.44,7.46,5.52,11.96,1.47,6.08.78,13.3,2.63,19.14.96-2.08.48-4.98.5-7.72.12-17.45-15.62-44.6-17.02-43.17Z"/>
        </g>
        <g class="cls-31">
          <path class="cls-28" d="m383.29,83.05l4.35,10.37c2.94,8.77,5.9,17.63,6.52,27.63.61,10.01-1.31,21.41-7.39,32.1-.68-2.15,3.73-13.8,2.91-24.31-1.4-18.05-8.98-33.77-10.38-36.12"/>
        </g>
      </g>
      <g>
        <ellipse class="cls-10" cx="373.41" cy="92.76" rx="12.93" ry="8" transform="translate(99.13 362.59) rotate(-58.48)"/>
        <ellipse cx="370.65" cy="94.85" rx="9.31" ry="7.17" transform="translate(85.59 350.04) rotate(-56.19)"/>
        <ellipse class="cls-22" cx="376.12" cy="92.53" rx="2.54" ry="1.69" transform="translate(98.29 362.42) rotate(-57.99)"/>
      </g>
      <g>
        <path class="cls-11" d="m314.84,113.62c-.98,2.1-2.06,4.77-2.9,7.9-.71,2.62-1.08,4.94-1.27,6.84,1.32-.34,4.25-1.27,7.36-3.96,3.22-2.79,4.84-5.92,5.48-7.29-2.89-1.16-5.78-2.32-8.67-3.48Z"/>
        <path class="cls-11" d="m348.72,131.91c-1.44,1.84-3.37,4.04-5.83,6.27-2.06,1.87-4.01,3.31-5.67,4.41-.34-1.25-.92-4.14.03-8.02.98-4.02,3.06-6.91,4.02-8.11,2.48,1.82,4.97,3.63,7.45,5.45Z"/>
      </g>
      <path class="cls-20" d="m340.38,109.18l-4.52,8.14c-7.67,4.54-17,5.08-24.36,1.24-6.67-3.49-9.35-9.34-10.15-11.32"/>
      <path class="cls-20" d="m341.18,110.21l-4.87,7.96c.03,8.56,4.53,16.3,11.89,20.13,6.68,3.47,13.35,2.49,15.54,2.07"/>
      <g>
        <ellipse class="cls-33" cx="342.5" cy="45.52" rx="3.87" ry="7" transform="translate(217.09 367.46) rotate(-76.29)"/>
        <ellipse class="cls-29" cx="353.26" cy="53.7" rx="3.87" ry="7" transform="translate(217.34 384.17) rotate(-76.29)"/>
        <ellipse class="cls-36" cx="367.34" cy="52.34" rx="3.92" ry="6.92" transform="translate(176 370.25) rotate(-67.07)"/>
        <ellipse class="cls-34" cx="373.41" cy="64.25" rx="3.91" ry="6.94" transform="translate(87.64 313.04) rotate(-50.8)"/>
        <ellipse class="cls-35" cx="386.68" cy="67.67" rx="3.8" ry="7.15" transform="translate(33.13 238.27) rotate(-35.68)"/>
        <ellipse class="cls-37" cx="370.81" cy="72.42" rx="3.89" ry="6.98" transform="translate(175.47 395.82) rotate(-69.92)"/>
        <ellipse class="cls-24" cx="361.18" cy="63.06" rx="3.89" ry="6.98" transform="translate(177.94 380.62) rotate(-69.92)"/>
        <ellipse class="cls-30" cx="347.02" cy="62.79" rx="3.94" ry="6.88" transform="translate(121.72 334.1) rotate(-60.55)"/>
        <ellipse class="cls-8" cx="361.97" cy="77.22" rx="2.46" ry="3.73" transform="translate(177.1 397.86) rotate(-72.08)"/>
        <ellipse class="cls-25" cx="357.04" cy="71.81" rx="2.46" ry="3.73" transform="translate(178.84 389.43) rotate(-72.08)"/>
        <ellipse class="cls-32" cx="349.24" cy="72.17" rx="2.5" ry="3.67" transform="translate(104.23 331.3) rotate(-58.28)"/>
        <ellipse class="cls-38" cx="354.27" cy="77.88" rx="3.13" ry="4.72" transform="translate(171.67 391.3) rotate(-72.17)"/>
      </g>
      <path class="cls-27" d="m62.22,354.37c-2.32,7.21-9.71,33.34,3.89,60.99,2.88,5.86,15.05,30.59,42.75,39.92,6.73,2.27,12.69,3.06,16.84,3.36-11.54-10.34-26.62-26.07-39.9-47.94-13.17-21.69-19.94-41.78-23.58-56.33Z"/>
      <path class="cls-27" d="m282.74,416.82c-.02,1.73-.69,24.19-21.25,36.74-18.77,11.46-38.6,5.19-40.94,4.41,9.11-2.44,22.86-7.26,37.05-17.15,11.94-8.32,20.03-17.32,25.13-24Z"/>
      <path class="cls-27" d="m278.03,139.41c-4.71,1.32-23.99,5.76-40.99-15.12-7.26-8.91-11.67-19.46-14.23-27,5.71,7.92,13.47,17.15,23.36,25.2,12.29,10,23.54,14.64,31.85,16.92Z"/>
      <path class="cls-27" d="m308.71,131.39c.88,2.61,2.57,6.18,5.89,9.43,2.01,1.97,6.5,6.36,13.3,6.5,4.08.09,7.24-1.4,8.83-2.29-.3.51-7.59,6.17-15.86,6.53-6.57.29-10.1-4.15-12.09-6.03-1.89-1.79-.07-14.14-.07-14.14Z"/>
      <path class="cls-18" d="m102.69,267.68c.28-16.4,3.11-21.55.04-29.74-.9-2.42-5.04-13.45-16.48-12.52-8.45.69-16.45,7.56-24.79,14.73-6.84,5.87-13.07,11.23-17.73,19.24-5.55,9.54-6.46,18.73-5.29,41.48,1.46,28.41,7.66,70.76,27.99,93.65,3.53,3.98,25.28,20.56,48.92,24.62,19.65,3.38,39.1,2.67,44.16,1.37,13.98-3.58,19.3-6.05,26.02-9.42,10.61-5.33,26.3-18.43,31.2-34.33,3.23-10.5.32-17.55-1.69-22.4-.45-1.08-8.89-20.47-26.9-14.38-10.93,3.7-14.19,13-24.06,14.98-3.36.68-5.55.11-20.18-10.79-10.13-7.55-15.29-11.42-19.76-15.93-7.19-7.26-10.79-10.89-13.85-16.9-7.92-15.52-7.75-35.23-7.6-43.66Z"/>
      <path class="cls-23" d="m38.15,280.14c1.37-3.55,7.75-18.81,25.64-27.66,17.86-8.84,34.73-5.12,38.61-4.16.24,4.56.48,9.12.73,13.68-.24.48-.48.96-.73,1.44-3.34-.9-20.44-5.17-38.09,3.99-18.91,9.81-23.86,27.47-24.62,30.37-.52-5.88-1.03-11.77-1.55-17.65Z"/>
      <path class="cls-23" d="m40.64,320.68c1.37-3.55,7.75-18.81,25.64-27.66,17.86-8.84,32.15-5.68,36.03-4.73.24,4.56,3.06,9.68,3.31,14.24-.24.48-.48.96-.73,1.44-3.34-.9-20.44-5.17-38.09,3.99-18.91,9.81-22.45,27.47-23.21,30.37-.52-5.88-2.43-11.77-2.95-17.65Z"/>
      <path class="cls-23" d="m38.22,282.15c1.37-3.55,7.75-18.81,25.64-27.66,17.86-8.84,34.73-5.12,38.61-4.16.24,4.56.48,9.12.73,13.68-.24.48-.48.96-.73,1.44-3.34-.9-20.44-5.17-38.09,3.99-18.91,9.81-23.86,27.47-24.62,30.37-.52-5.88-1.03-11.77-1.55-17.65Z"/>
      <path class="cls-23" d="m131.68,336.73c-3.34-.9-36.02-3.22-53.67,5.95-18.91,9.81-20.5,34.81-21.26,37.72-.52-5.88-6.95-16.23-7.46-22.11,1.37-3.55,10.31-21.69,28.21-30.55,17.86-8.84,36.5-5.22,40.37-4.26"/>
      <path class="cls-23" d="m111.13,377.46c-13.6,15.83-10.55,35.09-9.58,37.94-3.71-4.75-15.23-6.65-18.94-11.39-.81-3.7-.77-24.07,9.52-40.49,10.27-16.4,40.18-24.07,44-25.18,2.74,3.76,9.22,6.73,11.97,10.49"/>
      <path class="cls-23" d="m166.47,396.7c7.19,19.23,15.55,15.27,18.46,16.45-6.22-.47-9.45,4.15-15.67,3.67-3.48-1.85-12.12-3.93-18.47-22.05-6.34-18.09,2.59-36.94,4.22-40.4,4.8.51,6.71,1.12,11.51,1.63"/>
      <path class="cls-20" d="m94.47,460.68c5.54-4.21,12.45-5.45,17.34-2.95,3.38,1.73,6.58,6.39,7.33,10.96.67,4.02-.9,8.03-1.23,8.89-1.22,3.16-3.95,6.76-6.45,8.75-5.93,4.73-13.81,4.12-19.54-4.85"/>
      <g>
        <path class="cls-20" d="m80.2,473.65c-4.5,5.01-11,7.4-16.3,5.84-3.67-1.08-7.79-5.02-9.5-9.28-1.51-3.75-.84-7.88-.69-8.78.52-3.26,2.41-7.19,4.43-9.55,4.78-5.58,12.6-6.35,20.11,1.29"/>
        <path class="cls-20" d="m92.53,482.55c-3.39,4.42-10.03,7.62-16.3,5.84-5.79-1.65-8.51-6.84-9.5-9.28-1.51-3.75-.84-7.88-.69-8.78.52-3.26,2.41-7.19,4.43-9.55.94-1.09,3.38-3.52,7.09-4.17,6.77-1.19,12.33,4.71,13.02,5.47,4.52,4.94,7.01,13.88,1.95,20.48Z"/>
      </g>
    </g>
    <g>
      <path class="cls-14" d="m228.42,303.47c-3.47-11.97-12.38-36.85-34.25-57.18-37.37-34.73-82.41-28.1-90.12-26.82,17.6-48,35.19-96,52.79-144,25.44,7.35,61.46,21.84,97.53,52,15.15,12.67,27.56,25.8,37.58,38-21.18,46-42.35,92-63.53,138Z"/>
      <path class="cls-14" d="m228.42,305.47c8.47-3.88,48.73-21.16,91.26,0,21.51,10.7,35,26.95,42.05,37,30.42-46.67,60.84-93.33,91.26-140-12.88-11.08-37.8-29.47-73.37-38-39.38-9.44-71.72-1.96-87.68,3-21.18,46-42.35,92-63.53,138Z"/>
    </g>
    <g>
      <path class="cls-19" d="m212.5,318.5c-3.88-11.97-13.84-36.85-38.28-57.18-41.77-34.73-92.11-28.1-100.72-26.82,19.67-48,39.33-96,59-144,28.43,7.35,68.69,21.84,109,52,16.93,12.67,30.8,25.8,42,38-23.67,46-47.33,92-71,138Z"/>
      <path class="cls-19" d="m212.5,320.5c9.47-3.88,54.46-21.16,102,0,24.04,10.7,39.12,26.95,47,37,34-46.67,68-93.33,102-140-14.4-11.08-42.24-29.47-82-38-44.01-9.44-80.16-1.96-98,3-23.67,46-47.33,92-71,138Z"/>
      <g>
        <circle class="cls-15" cx="115.5" cy="134.5" r="12"/>
        <circle class="cls-15" cx="96.5" cy="166.5" r="12"/>
        <circle class="cls-15" cx="108.5" cy="151.5" r="12"/>
      </g>
      <g>
        <circle class="cls-15" cx="417.17" cy="283.03" r="12"/>
        <circle class="cls-15" cx="434.6" cy="250.15" r="12"/>
        <circle class="cls-15" cx="423.34" cy="265.71" r="12"/>
      </g>
      <path class="cls-16" d="m338.14,257.68c-.86-2.8-1.65-5.55-2.38-8.24-.73-2.69-1.49-5.44-2.27-8.23l-33.69-4.57-8.87,14.63-10.84-1.47c3.73-6.05,7.22-11.65,10.47-16.79,3.25-5.14,6.4-10,9.47-14.6,3.06-4.59,6.08-8.97,9.05-13.13,2.97-4.16,6.04-8.26,9.21-12.31l9.55,1.3c1.98,4.74,3.84,9.51,5.6,14.31,1.75,4.8,3.49,9.82,5.22,15.07,1.73,5.25,3.47,10.78,5.23,16.59,1.76,5.82,3.63,12.14,5.62,18.97l-11.37-1.54Zm-6.7-23.9c-1.6-5.41-3.2-10.65-4.8-15.73-1.61-5.08-3.33-9.98-5.16-14.7-3.1,4.05-6.1,8.31-9,12.78-2.9,4.47-5.81,9.1-8.71,13.89l27.68,3.76Z"/>
      <path class="cls-16" d="m367.9,282.94c1,.47,2.07,1,3.2,1.57,1.13.57,2.27,1.17,3.41,1.79,1.14.62,2.26,1.25,3.36,1.89,1.1.64,2.09,1.27,2.97,1.89l-16.16,34.34-6.96-3.27,6.41-13.62-5.95-2.8c-.67-.32-1.37-.66-2.11-1.02-.73-.37-1.7-.89-2.89-1.58-1.24.4-2.61.9-4.12,1.5-1.51.6-3.05,1.27-4.62,2-1.57.73-3.16,1.52-4.75,2.37-1.59.85-3.09,1.7-4.49,2.56l-7.32-3.44c1.38-.95,2.93-1.88,4.64-2.79,1.71-.91,3.43-1.74,5.16-2.49s3.35-1.42,4.9-2.03c1.54-.61,2.86-1.08,3.96-1.42-.99-.75-1.98-1.63-2.97-2.63-.99-1-1.81-2.12-2.45-3.36-.64-1.24-1.01-2.6-1.11-4.06s.23-2.99.98-4.6c.85-1.81,2.1-3.17,3.75-4.07,1.65-.9,3.64-1.37,5.96-1.4,2.32-.03,4.93.35,7.83,1.14,2.9.79,6.02,1.97,9.37,3.55Zm-2.58,4c-1.82-.86-3.6-1.57-5.34-2.15-1.75-.58-3.38-.91-4.91-1.02-1.53-.11-2.88.1-4.05.61-1.18.51-2.07,1.42-2.68,2.73-1.17,2.48-.84,4.73.98,6.76,1.82,2.02,5,4.1,9.55,6.24l7.17,3.38,6.17-13.12c-.53-.25-1.14-.56-1.84-.93-.61-.33-1.32-.69-2.15-1.11-.83-.41-1.79-.87-2.89-1.39Z"/>
    </g>
  </g>
</svg>