<svg width="315" height="208" viewBox="0 0 315 208" fill="none" xmlns="http://www.w3.org/2000/svg">
<g clip-path="url(#clip0_978_529)">
<path d="M214.46 174.96C190.13 144.59 192.5 100.85 218.88 74.24C243.53 49.38 283.54 45.14 313.94 64.91C305.84 68.81 294.17 76.04 289.38 88.74C284.27 102.28 290.7 112.2 289.87 122.64C289.27 130.16 284.79 139.27 270.61 149.3C259.19 157.37 241.49 166.04 214.46 174.96Z" fill="#F08630" stroke="#1D1D1B" stroke-miterlimit="10"/>
<path d="M209.16 156.49C209.36 156.2 209.51 155.88 209.61 155.55C210.05 162.49 210.56 168.37 215.71 173.36C215.87 172.48 216.47 171.66 216.62 170.8C223.92 178.7 205.01 177.07 225.59 184.87C224.97 173.65 248.47 189.48 240.22 171.86C247.33 175.8 243.94 167.63 242.57 163.85C243.04 163.97 243.97 163.85 244.23 163.9C242.57 161.48 240.64 158.5 239.91 155.64C240.85 156.27 241.95 156.74 243.03 156.96C241.14 154.63 231.11 147.1 229.94 151.18C231.14 146.27 228.45 145.63 224.64 147.25C225.35 141.53 218.25 147.31 216.51 149.22C216.78 142.7 212.94 146.96 211.28 150.3C211.06 148.96 209.2 155.13 209.17 156.49H209.16Z" fill="#F08630" stroke="#1D1D1B" stroke-miterlimit="10"/>
<path d="M241.95 180.43C241.73 180.43 241.53 180.43 241.32 180.43C241.5 180.43 242 180.7 241.95 180.43Z" fill="#F08630" stroke="#1D1D1B" stroke-miterlimit="10"/>
<path d="M225.32 183.18C228.41 188.48 244.71 186.48 251.21 188.42C263.72 186 247.54 179.59 241.89 179.8C238.86 182.93 226.45 177.59 225.32 183.18Z" fill="#F08630" stroke="#1D1D1B" stroke-miterlimit="10"/>
<path d="M235.39 183.32C235.57 189.61 250.19 192.24 252.36 186.79C253.29 181.67 237.86 177.22 235.39 183.32Z" fill="#F08630" stroke="#1D1D1B" stroke-miterlimit="10"/>
<path d="M225.32 183.18C225.02 189.03 240.01 192.34 242.29 186.65C243.07 180.64 226.27 177.84 225.32 183.18Z" fill="#F08630" stroke="#1D1D1B" stroke-miterlimit="10"/>
<path d="M258.46 187.77C255.34 188.12 252.01 187.04 253.37 184.32C254.36 183.46 258.28 185.9 258.46 187.77Z" fill="#F8F7D7" stroke="#1D1D1B" stroke-miterlimit="10"/>
<path d="M252.38 189.96C248.69 189.76 245.12 187.78 247.24 184.9C248.56 184.09 252.57 187.76 252.38 189.96Z" fill="#F8F7D7" stroke="#1D1D1B" stroke-miterlimit="10"/>
<path d="M243.86 190.55C240.08 190.16 236.39 188.06 238.7 185.2C240.09 184.45 244.12 188.31 243.86 190.55Z" fill="#F8F7D7" stroke="#1D1D1B" stroke-miterlimit="10"/>
<path d="M223.93 181.54C223.82 185.3 233.32 185.3 233.2 181.54C233.31 177.78 223.81 177.78 223.93 181.54Z" fill="#F08630"/>
<path d="M179.12 153C179.12 153 179.08 152.97 179.06 152.96C179.64 152.89 180.21 152.82 180.79 152.74C180.24 152.85 179.68 153.13 179.12 153Z" fill="#F08630" stroke="#1D1D1B" stroke-miterlimit="10"/>
<path d="M180.21 148.26C179.62 148.98 183.61 145.75 184.78 149.83C183.58 144.92 186.27 144.28 190.08 145.9C189.37 140.18 196.47 145.96 198.21 147.87C197.94 141.35 201.78 145.61 203.44 148.95C203.66 147.61 205.52 153.78 205.55 155.14C205.35 154.85 205.2 154.53 205.1 154.2C204.66 161.14 204.15 167.02 199 172.01C198.84 171.13 198.24 170.31 198.09 169.45C190.79 177.35 209.7 175.72 189.12 183.52C189.74 172.3 166.24 188.13 174.49 170.51C167.38 174.45 170.77 166.28 172.14 162.5C171.67 162.62 170.74 162.5 170.48 162.55C172.14 160.13 174.07 157.15 174.8 154.29" fill="#F08630"/>
<path d="M180.21 148.26C179.62 148.98 183.61 145.75 184.78 149.83C183.58 144.92 186.27 144.28 190.08 145.9C189.37 140.18 196.47 145.96 198.21 147.87C197.94 141.35 201.78 145.61 203.44 148.95C203.66 147.61 205.52 153.78 205.55 155.14C205.35 154.85 205.2 154.53 205.1 154.2C204.66 161.14 204.15 167.02 199 172.01C198.84 171.13 198.24 170.31 198.09 169.45C190.79 177.35 209.7 175.72 189.12 183.52C189.74 172.3 166.24 188.13 174.49 170.51C167.38 174.45 170.77 166.28 172.14 162.5C171.67 162.62 170.74 162.5 170.48 162.55C172.14 160.13 174.07 157.15 174.8 154.29" stroke="#1D1D1B" stroke-miterlimit="10"/>
<path d="M172.76 179.11C172.98 179.11 173.18 179.11 173.39 179.11C173.21 179.11 172.71 179.38 172.76 179.11Z" fill="#F08630" stroke="#1D1D1B" stroke-miterlimit="10"/>
<path d="M189.38 181.85C186.29 187.15 169.99 185.15 163.49 187.09C150.98 184.67 167.16 178.26 172.81 178.47C175.84 181.6 188.25 176.26 189.38 181.85Z" fill="#F08630" stroke="#1D1D1B" stroke-miterlimit="10"/>
<path d="M179.32 181.99C179.14 188.28 164.52 190.91 162.35 185.46C161.42 180.34 176.85 175.89 179.32 181.99Z" fill="#F08630" stroke="#1D1D1B" stroke-miterlimit="10"/>
<path d="M189.38 181.85C189.68 187.7 174.69 191.01 172.41 185.32C171.63 179.31 188.43 176.51 189.38 181.85Z" fill="#F08630" stroke="#1D1D1B" stroke-miterlimit="10"/>
<path d="M156.25 186.44C159.37 186.79 162.7 185.71 161.34 182.99C160.35 182.13 156.43 184.57 156.25 186.44Z" fill="#F8F7D7" stroke="#1D1D1B" stroke-miterlimit="10"/>
<path d="M162.33 188.63C166.02 188.43 169.59 186.45 167.47 183.57C166.15 182.76 162.14 186.43 162.33 188.63Z" fill="#F8F7D7" stroke="#1D1D1B" stroke-miterlimit="10"/>
<path d="M170.85 189.22C174.63 188.83 178.32 186.73 176.01 183.87C174.62 183.12 170.59 186.98 170.85 189.22Z" fill="#F8F7D7" stroke="#1D1D1B" stroke-miterlimit="10"/>
<path d="M190.78 180.21C190.89 183.97 181.39 183.97 181.51 180.21C181.4 176.45 190.9 176.45 190.78 180.21Z" fill="#F08630"/>
<path d="M179.66 117.79C175.57 120.35 173.69 129.46 176.31 127.01C176.91 129.13 172.86 137.35 176.5 133.59C176.58 147.66 179.35 140.33 178.08 154.75C179.39 150.32 179.36 155.93 179.38 157.85C179.66 157.42 179.96 157.19 180.28 157.15C184.76 156.57 190.27 177.41 203.61 179.9C208.08 180.74 213.61 179.47 216.89 176.57C220.73 173.18 219.71 169.12 224.07 162.61C226.31 159.26 228.85 156.95 230.53 155.59C231.13 157.73 230.43 153.07 230.97 152.93C231.05 152.55 231.9 156.64 232.01 156.35C232.04 156.51 232 151.1 232.52 151.13C233.94 155.37 233.24 152.18 232.74 148.3C231.28 140.91 232.9 128.68 235.68 132.83C238 136.06 234.93 125.41 235.07 125.5C239.92 129.45 232.1 115.94 229.05 115.65C216.39 114.45 181.35 117.61 179.65 117.77L179.66 117.79Z" fill="#F08630" stroke="#1D1D1B" stroke-miterlimit="10"/>
<path d="M224.99 103.62C226.63 107.35 228.99 111.54 231.77 114.54C230.44 113.55 228.93 112.73 227.78 111.53C229.2 114.57 232.57 117.08 233.55 120.28C232.17 119.72 230.88 118.96 229.76 117.97C230.19 122.74 233.42 131.41 227.43 123.47C227.37 125.51 227.91 127.57 227.65 129.56C227.11 128.85 226.21 128.56 225.79 127.62C225.37 130.21 223.59 138.92 222.81 141.74C222.1 140.81 221.4 139.85 220.69 138.92C220.44 141.39 216.77 148.33 215.06 150.03C215.03 149.41 214.95 148.8 214.82 148.2C214.57 149.76 210.2 153.86 210.18 155.31C209.74 153.92 208.81 149.83 208.78 149.68L206.94 156.78L202.62 149.68C202.59 149.83 201.66 153.92 201.22 155.31C201.2 154.04 199.08 151.41 198.68 149.98C198.29 150.97 197.81 151.98 197.32 152.88C196.96 151.34 194.64 144.93 194.48 142.59C193.99 143.86 193.4 145.15 192.65 146.29C191.82 143.99 190.97 141.4 190.72 138.92C190.02 139.86 189.31 140.81 188.6 141.74C187.83 138.92 188.23 135.46 188.27 132.56C187.83 133.88 186.85 134.8 185.82 135.75C185.36 133.04 184.03 125.51 183.98 123.48C177.99 131.43 181.22 122.74 181.65 117.98C180.53 118.97 179.24 119.73 177.86 120.29C178.84 117.09 182.21 114.57 183.63 111.54C182.48 112.74 180.98 113.56 179.64 114.55C191 91.3 210.76 83.35 225 103.63L224.99 103.62Z" fill="white" stroke="#1D1D1B" stroke-miterlimit="10"/>
<path d="M218.01 106.81C220.84 108.02 225.85 112.89 230 111.41C228.16 110.27 225.91 108.77 224.52 107.02C229.09 109.3 236.92 111.93 241.84 111.05C237.9 108.42 234.23 104.64 230.79 101.43C236.51 104.02 242.8 105.1 248.61 107.29C245.15 102.29 240.9 98.43 234.86 97.02C238.78 98.65 243.82 98.34 248.27 98.45C244.3 93.62 236.98 90.58 232.05 86.89C233.29 85.78 237.92 81.94 243.98 78.42C277.43 59.86 216.03 73.11 218.38 74.19C217.97 72.65 217.55 71.12 217.14 69.58C216.32 70.5 215.5 71.43 214.69 72.35C214.34 71.28 213.99 70.2 213.65 69.13C212.82 70.43 212 71.74 211.17 73.04C211.15 71.38 211.45 69.48 210.7 68.05C209.98 69.16 209.73 70.05 209.5 71.28C209.04 70.52 209.1 66.19 208.64 65.43C208.26 66.19 207.35 70.52 206.97 71.28C206.44 69.74 205.49 62.94 204.37 61.78C203.99 63.24 203.09 70.43 203.02 71.88C202.69 70.3 199.78 65.33 198.76 64.11C198.34 69.86 200.79 72.37 197.34 69.27C197.26 70.57 196.62 70.99 196.61 72.28C195.52 70.7 195.02 69.64 193.44 68.66C193.37 69.95 192.6 71.51 192.67 72.81C192.13 71.45 191.77 71.07 190.76 70.2C191.16 74.66 189.44 73.29 186.96 71.09C186.93 71.66 187.4 72.72 186.75 72.98C181.87 67.39 172.25 66.52 166 65.06C165.34 72.78 167.5 84.3 174.46 88.58C167.14 93.86 158.56 100.02 154 108.59C158.29 107.42 163.26 106.51 166.68 103.99C161.14 106.8 157.94 111.56 155.78 117.25C160.89 113.73 166.74 111.19 171.68 107.3C169.11 111.24 166.45 115.79 163.25 119.28C168.24 118.96 175.22 114.54 179.11 111.23C178.18 113.26 176.35 115.26 174.84 116.8C179.22 117.24 190.57 113.37 193.78 111.43C195.99 115.45 200.71 119.52 206.48 118.36C213.37 116.98 216.29 111.14 218.03 106.81H218.01Z" fill="#F08630" stroke="#1D1D1B" stroke-miterlimit="10"/>
<path d="M167.07 66.78C176.48 70 183.4 72.54 184.84 77.67C181.48 79.49 176.7 84.31 176 85.61C172.89 90.44 165.99 74.47 167.07 66.78Z" fill="#FCCC7E" stroke="#1D1D1B" stroke-miterlimit="10"/>
<path d="M234.78 73.58C215.92 77.8 223.15 77.16 229.87 84.8C231.82 85.27 232.98 82.29 237.57 79.07C239.98 77.57 247.52 73.46 250.1 71.29C246.38 71.63 241.08 72.27 234.79 73.58H234.78Z" fill="#FCCC7E" stroke="#1D1D1B" stroke-miterlimit="10"/>
<path d="M197.22 107.97C197.22 108.41 197.39 112.93 200.68 114.9C204.6 117.25 210.53 114.49 212.23 110.28C213.21 107.85 212.57 105.49 212.23 104.5" fill="#FFB3F1"/>
<path d="M197.22 107.97C197.22 108.41 197.39 112.93 200.68 114.9C204.6 117.25 210.53 114.49 212.23 110.28C213.21 107.85 212.57 105.49 212.23 104.5" stroke="#1D1D1B" stroke-miterlimit="10"/>
<path d="M230.04 154C225.57 153.48 223.5 150.37 220.57 150.07C220.96 149.99 221.35 149.91 221.73 149.84C220.76 149.65 217.74 148.86 219.33 148.05C217.07 147.42 213.04 144.43 214.3 144.25C213.06 143.52 208.61 143.12 211.48 141.78C210.32 141 209.19 140.71 211.14 140.22C199.66 137.2 206.42 121.4 212.96 115.45C219.14 112.63 218.09 131.02 215.95 129.38C217.67 129.4 219.43 129.83 219.1 129.55C220.03 129.94 221.28 130.18 222.15 130.52C218.53 128.33 223.64 130.13 225.09 131.15C220.27 127.06 229.1 130.04 232.17 131.37C229.35 128.33 233.32 129.93 233.04 129.76C234.43 130.24 240.16 132.12 236.79 130.3C238.89 130.78 240.99 131.27 243.1 131.75" fill="#F08630"/>
<path d="M230.04 154C225.57 153.48 223.5 150.37 220.57 150.07C220.96 149.99 221.35 149.91 221.73 149.84C220.76 149.65 217.74 148.86 219.33 148.05C217.07 147.42 213.04 144.43 214.3 144.25C213.06 143.52 208.61 143.12 211.48 141.78C210.32 141 209.19 140.71 211.14 140.22C199.66 137.2 206.42 121.4 212.96 115.45C219.14 112.63 218.09 131.02 215.95 129.38C217.67 129.4 219.43 129.83 219.1 129.55C220.03 129.94 221.28 130.18 222.15 130.52C218.53 128.33 223.64 130.13 225.09 131.15C220.27 127.06 229.1 130.04 232.17 131.37C229.35 128.33 233.32 129.93 233.04 129.76C234.43 130.24 240.16 132.12 236.79 130.3C238.89 130.78 240.99 131.27 243.1 131.75" stroke="#1D1D1B" stroke-miterlimit="10"/>
<path d="M205.74 136.09C199.41 131.44 209.12 121.15 208.86 114.99C213.55 106.95 224.65 116.47 217.65 122.42" fill="#F08630"/>
<path d="M205.74 136.09C199.41 131.44 209.12 121.15 208.86 114.99C213.55 106.95 224.65 116.47 217.65 122.42" stroke="#1D1D1B" stroke-miterlimit="10"/>
<path d="M207.74 124.58C201.09 120.93 207.13 110.3 213.67 114.15C220.32 117.8 214.28 128.43 207.74 124.58Z" fill="#F08630" stroke="#1D1D1B" stroke-miterlimit="10"/>
<path d="M204.66 128.23C194.46 119.13 217.06 112.51 214.13 125.46L204.66 128.23Z" fill="#F08630"/>
<path d="M204.66 128.23C194.46 119.13 217.06 112.51 214.13 125.46" stroke="#1D1D1B" stroke-miterlimit="10"/>
<path d="M216.09 111.45C215.33 113.07 215.54 114.98 217.24 114.73C217.91 114.36 217.09 111.83 216.09 111.45Z" fill="#F8F7D7" stroke="#1D1D1B" stroke-miterlimit="10"/>
<path d="M212.59 113.38C211.83 115 212.04 116.91 213.74 116.66C214.41 116.29 213.59 113.76 212.59 113.38Z" fill="#F8F7D7" stroke="#1D1D1B" stroke-miterlimit="10"/>
<path d="M209.21 118.57C208.45 120.19 208.66 122.1 210.36 121.85C211.03 121.48 210.21 118.95 209.21 118.57Z" fill="#F8F7D7" stroke="#1D1D1B" stroke-miterlimit="10"/>
<path d="M187.71 156.32C191.78 154.41 197.74 147.55 195.98 147.29C197.92 145.98 200.8 141.86 199.55 142.09C200.49 141.01 203.28 137.12 201.27 137.27C211.19 130.77 199.77 117.93 191.68 114.36C184.93 113.65 191.76 130.75 193.27 128.52C191.67 129.08 190.11 130.05 190.33 129.68C189.58 130.35 188.47 130.97 187.74 131.57C190.48 128.35 186.21 131.67 185.15 133.1C188.42 127.69 180.99 133.33 178.5 135.56C180.21 131.78 178.29 134.23 176.25 135.54C176.49 135.23 176.95 134.56 177.16 134.31C175.99 135.21 171.16 138.81 173.77 136.02" fill="#F08630"/>
<path d="M187.71 156.32C191.78 154.41 197.74 147.55 195.98 147.29C197.92 145.98 200.8 141.86 199.55 142.09C200.49 141.01 203.28 137.12 201.27 137.27C211.19 130.77 199.77 117.93 191.68 114.36C184.93 113.65 191.76 130.75 193.27 128.52C191.67 129.08 190.11 130.05 190.33 129.68C189.58 130.35 188.47 130.97 187.74 131.57C190.48 128.35 186.21 131.67 185.15 133.1C188.42 127.69 180.99 133.33 178.5 135.56C180.21 131.78 178.29 134.23 176.25 135.54C176.49 135.23 176.95 134.56 177.16 134.31C175.99 135.21 171.16 138.81 173.77 136.02" stroke="#1D1D1B" stroke-miterlimit="10"/>
<path d="M205.06 131.63C209.58 125.21 197.11 118.54 195.4 112.61C188.4 106.48 180.89 119.02 189.42 122.45" fill="#F08630"/>
<path d="M205.06 131.63C209.58 125.21 197.11 118.54 195.4 112.61C188.4 106.48 180.89 119.02 189.42 122.45" stroke="#1D1D1B" stroke-miterlimit="10"/>
<path d="M199.52 121.34C204.67 115.77 195.57 107.61 190.59 113.33C185.44 118.9 194.54 127.06 199.52 121.34Z" fill="#F08630" stroke="#1D1D1B" stroke-miterlimit="10"/>
<path d="M203.6 123.82C210.38 111.95 186.86 112.85 193.74 124.2L203.6 123.82Z" fill="#F08630"/>
<path d="M203.6 123.82C210.38 111.95 186.86 112.85 193.74 124.2" stroke="#1D1D1B" stroke-miterlimit="10"/>
<path d="M187.47 112.1C188.7 113.4 189.11 115.27 187.42 115.57C186.67 115.43 186.64 112.77 187.47 112.1Z" fill="#F8F7D7" stroke="#1D1D1B" stroke-miterlimit="10"/>
<path d="M191.4 112.81C192.63 114.11 193.04 115.98 191.35 116.28C190.6 116.14 190.57 113.48 191.4 112.81Z" fill="#F8F7D7" stroke="#1D1D1B" stroke-miterlimit="10"/>
<path d="M196.26 116.67C197.49 117.97 197.9 119.84 196.21 120.14C195.46 120 195.43 117.34 196.26 116.67Z" fill="#F8F7D7" stroke="#1D1D1B" stroke-miterlimit="10"/>
<path d="M197.09 109.03C197.34 110.32 198.21 112.57 198.96 113.71C200.5 111.49 201.22 106.79 197.09 109.03Z" fill="#FCF3CC" stroke="#1D1D1B" stroke-miterlimit="10"/>
<path d="M209.23 107.51C209.28 108.82 208.93 111.21 208.46 112.49C206.46 110.67 204.7 106.25 209.23 107.51Z" fill="#FCF3CC" stroke="#1D1D1B" stroke-miterlimit="10"/>
<path d="M202.15 99.16V107.24C201.84 111.82 192.51 111.5 192.99 106.68" fill="#F08630"/>
<path d="M202.15 99.16V107.24C201.84 111.82 192.51 111.5 192.99 106.68" stroke="#1D1D1B" stroke-miterlimit="10"/>
<path d="M202.05 97.71C194.1 97.44 198.86 100.46 201.23 101.8C201.15 102.7 201.62 102.46 202.46 102.48C203.13 102.62 203.03 102.27 203.07 101.8C205.78 100.34 209.96 97.37 202.04 97.71H202.05Z" fill="url(#paint0_radial_978_529)" stroke="#1D1D1B" stroke-miterlimit="10"/>
<path d="M214.97 102.28C215.5 107.25 204.72 113.65 202.16 106.66L214.97 102.28Z" fill="#F08630"/>
<path d="M214.97 102.28C215.5 107.25 204.72 113.65 202.16 106.66" stroke="#1D1D1B" stroke-miterlimit="10"/>
<path d="M199.02 102.77C199.02 103.41 198.03 103.41 198.04 102.77C198.04 102.13 199.03 102.13 199.02 102.77Z" fill="black"/>
<path d="M199.74 104.87C199.74 105.51 198.75 105.51 198.76 104.87C198.76 104.23 199.75 104.23 199.74 104.87Z" fill="black"/>
<path d="M196.72 104.58C196.72 105.22 195.73 105.22 195.74 104.58C195.74 103.94 196.73 103.94 196.72 104.58Z" fill="black"/>
<path d="M205.07 103.43C205.07 104.07 204.08 104.07 204.09 103.43C204.09 102.79 205.08 102.79 205.07 103.43Z" fill="black"/>
<path d="M207.24 105.52C207.04 106.13 206.09 105.8 206.31 105.2C206.51 104.59 207.46 104.92 207.24 105.52Z" fill="black"/>
<path d="M208.68 102.77C208.68 103.41 207.69 103.41 207.7 102.77C207.7 102.13 208.69 102.13 208.68 102.77Z" fill="black"/>
<path d="M185.2 79.35C183.59 78.59 170.9 92.81 175.38 98.97C174.68 95.71 181.51 81.57 185.2 79.35Z" fill="#C86C25"/>
<path d="M218.85 78.07C220.46 77.31 233.15 91.53 228.67 97.69C229.37 94.43 222.54 80.29 218.85 78.07Z" fill="#C86C25"/>
<path d="M259.39 53.43C267.72 52.2 282.09 51.33 298.04 57.14C304.25 59.4 309.43 62.21 313.58 64.92C305.48 68.82 293.81 76.05 289.02 88.75C274.47 90.03 261.84 82.68 258.05 71.87C255.19 63.7 258.23 56.03 259.4 53.44L259.39 53.43Z" fill="white" stroke="#1D1D1B" stroke-miterlimit="10"/>
<path d="M260.66 145.06C261.55 146.19 283.76 136.74 285.22 120.99C285.82 114.5 282.86 107.43 281.62 107.56C280.59 107.67 280.94 112.64 279.98 117.71C276.69 135.15 259.86 144.04 260.66 145.06Z" fill="#C86C25"/>
<path d="M259.27 58.84C259.24 58.57 277.43 52.91 296.04 58.63C301.61 60.34 305.68 62.6 305.58 62.89C305.42 63.34 295.24 58.12 281.71 57.81C277.22 57.71 270.01 58.09 267.5 58.22C260.52 58.59 259.28 58.9 259.27 58.83V58.84Z" fill="#B7CCD1"/>
<path d="M269.76 149.24L275.97 149.51L271.49 148L276.87 146.77L274.01 146.06L281.5 142.39L278.61 142.04" fill="#F08630"/>
<path d="M269.76 149.24L275.97 149.51L271.49 148L276.87 146.77L274.01 146.06L281.5 142.39L278.61 142.04" stroke="#1D1D1B" stroke-miterlimit="10"/>
<path d="M286.9 99.68L290.9 98.58L287.05 102.84L288.04 103.24L287.35 105.4L290.62 106.85L287.95 110.53" fill="#F08630"/>
<path d="M286.9 99.68L290.9 98.58L287.05 102.84L288.04 103.24L287.35 105.4L290.62 106.85L287.95 110.53" stroke="#1D1D1B" stroke-miterlimit="10"/>
<path d="M273.89 52.88L281.44 48.01L277.26 53.37L281.44 49.87L281.78 53.64L285.82 51.52V53.45L293.24 52.05L290.41 54.83" fill="#FFFFFD"/>
<path d="M273.89 52.88L281.44 48.01L277.26 53.37L281.44 49.87L281.78 53.64L285.82 51.52V53.45L293.24 52.05L290.41 54.83" stroke="#1D1D1B" stroke-miterlimit="10"/>
<path d="M188.75 89.97C188.44 89.64 188.4 87.02 189.45 85.83C191.04 84.02 194.15 84.53 194.33 85C194.36 85.08 192.27 86.09 190.84 87.49C188.88 89.41 189.13 90.38 188.75 89.98V89.97Z" fill="#C9590D"/>
<path d="M215.35 89.3C215.66 88.97 215.7 86.35 214.65 85.16C213.06 83.35 209.95 83.86 209.77 84.33C209.74 84.41 211.83 85.42 213.26 86.82C215.22 88.74 214.97 89.71 215.35 89.31V89.3Z" fill="#C9590D"/>
<path d="M177.59 120.67C176.8 121.44 176.48 123.58 175.28 125.29C173.99 127.13 172.62 131.3 171.17 137.79C170.53 140.63 169.59 144.83 170.4 150.02C170.61 151.36 171.33 155.32 173.49 158.58C178.24 165.74 186.82 157.77 189.14 155.33" fill="#F08630"/>
<path d="M177.59 120.67C176.8 121.44 176.48 123.58 175.28 125.29C173.99 127.13 172.62 131.3 171.17 137.79C170.53 140.63 169.59 144.83 170.4 150.02C170.61 151.36 171.33 155.32 173.49 158.58C178.24 165.74 186.82 157.77 189.14 155.33" stroke="#1D1D1B" stroke-linecap="round" stroke-linejoin="round"/>
<path d="M230.84 114.71C231.63 115.48 231.95 117.62 233.15 119.33C234.44 121.17 235.81 125.34 237.26 131.83C237.9 134.67 238.84 138.87 238.03 144.06C237.82 145.4 237.1 149.36 234.94 152.62C230.19 159.78 221.61 151.81 219.29 149.37" fill="#F08630"/>
<path d="M230.84 114.71C231.63 115.48 231.95 117.62 233.15 119.33C234.44 121.17 235.81 125.34 237.26 131.83C237.9 134.67 238.84 138.87 238.03 144.06C237.82 145.4 237.1 149.36 234.94 152.62C230.19 159.78 221.61 151.81 219.29 149.37" stroke="#1D1D1B" stroke-linecap="round" stroke-linejoin="round"/>
<path d="M209.92 96.78C213.99 96.37 213.3 89.57 209.24 90.1C205.17 90.51 205.86 97.31 209.92 96.78Z" fill="white" stroke="#1D1D1B" stroke-width="0.5" stroke-miterlimit="10"/>
<path d="M196.57 96.69C200.55 95.7 198.99 89.06 195.04 90.17C191.06 91.16 192.62 97.8 196.57 96.69Z" fill="white" stroke="#1D1D1B" stroke-width="0.5" stroke-miterlimit="10"/>
<path d="M195.33 96.93C196.628 96.93 197.68 95.8779 197.68 94.58C197.68 93.2821 196.628 92.23 195.33 92.23C194.032 92.23 192.98 93.2821 192.98 94.58C192.98 95.8779 194.032 96.93 195.33 96.93Z" fill="black"/>
<path d="M208.97 96.46C210.268 96.46 211.32 95.4079 211.32 94.11C211.32 92.8121 210.268 91.76 208.97 91.76C207.672 91.76 206.62 92.8121 206.62 94.11C206.62 95.4079 207.672 96.46 208.97 96.46Z" fill="black"/>
<path d="M209.71 92.89C209.27 93.41 210.05 94.14 210.48 93.61C210.92 93.09 210.14 92.36 209.71 92.89Z" fill="white"/>
<path d="M195.09 92.89C194.65 93.41 195.43 94.14 195.86 93.61C196.3 93.09 195.52 92.36 195.09 92.89Z" fill="white"/>
</g>
<path d="M87.1519 139.568C94.0783 144.236 100.035 150.313 99.6319 150.8C98.9039 151.682 76.5606 135.079 77.1679 134.16C77.4633 133.715 83.1833 136.893 87.1519 139.568Z" fill="#94A514" stroke="#2A4700" stroke-miterlimit="10"/>
<path d="M74.6138 178.655C77.3261 177.233 78.6823 176.525 80.6749 176.23C85.2093 175.564 87.1104 177.811 91.9319 178.31C95.5677 178.684 95.5885 177.52 101.978 176.58C106.292 175.943 113.855 174.907 121.896 177.62C125.137 178.714 127.987 180.253 129.517 181.085C134.168 183.606 136.494 184.862 136.444 185.59C136.115 190.445 66.0858 191.556 65.4327 185.415C65.2371 183.572 71.2234 180.436 74.6138 178.66V178.655Z" fill="#7C5900" stroke="#492F00" stroke-miterlimit="10"/>
<path d="M93.9078 181.409C95.0434 184.001 96.645 183.148 97.1983 182.853C102.282 180.153 104.703 153.87 104.994 137.604C105.414 114.084 101.687 94.1034 97.5478 82.2432C96.7657 80.001 95.7881 77.6173 95.7881 77.6173C95.3388 76.5731 93.3337 71.9098 93.0425 72.6128C92.6639 73.5405 95.7007 82.7632 97.0278 89.9434C103.239 123.619 89.1654 170.572 93.9119 181.405L93.9078 181.409Z" fill="#94A514" stroke="#2A4700" stroke-miterlimit="10"/>
<path opacity="0.5" d="M105.048 137.442C104.757 153.708 102.34 179.991 97.2524 182.691C96.7033 182.986 95.0976 183.835 93.9619 181.247C93.55 180.307 93.2796 179.096 93.1299 177.644C94.3155 177.42 95.6758 176.634 97.0236 174.666C100.863 169.042 102.078 157.423 103.085 147.227C104.308 134.876 104.399 123.219 104.025 113.289C104.799 120.719 105.198 128.844 105.048 137.442Z" fill="#636B03"/>
<path opacity="0.5" d="M100.406 91.7363C100.031 92.7846 99.6028 93.8122 99.1036 94.7606C98.75 95.4387 98.3923 96.017 98.047 96.4995C97.9263 95.3763 97.7891 94.2614 97.631 93.159C97.4687 92.0234 97.2857 90.9002 97.0819 89.7894C95.759 82.6134 92.718 73.3824 93.0966 72.4589C93.3878 71.7517 95.3929 76.415 95.8422 77.4592C95.8422 77.4592 96.8198 79.8429 97.6019 82.0851C98.2966 84.0778 98.9788 86.2992 99.6361 88.7286C99.8982 89.6979 100.152 90.7005 100.406 91.7363Z" fill="#636B03"/>
<path opacity="0.57" d="M135.666 185.49C135.5 187.965 116.268 189.421 98.355 189.338C113.959 186.605 119.721 185.07 119.629 184.296C119.496 183.123 106.105 184.733 104.445 180.17C104.058 179.105 104.375 177.869 105.094 176.596C109.321 176.076 115.403 175.743 121.801 177.898C124.892 178.938 127.604 180.407 129.064 181.197C133.499 183.597 135.712 184.796 135.666 185.486V185.49Z" fill="#593F05"/>
<path opacity="0.57" d="M85.8666 176.871C82.9254 179.005 79.3021 181.189 74.959 182.986C71.473 184.434 68.199 185.353 65.3245 185.944C65.2038 185.786 65.1331 185.619 65.1165 185.449C65.1081 185.353 65.1165 185.253 65.1373 185.149C65.5408 183.281 71.0902 180.373 74.2976 178.693C77.0099 177.27 78.3661 176.559 80.3587 176.268C81.4653 176.105 82.4179 176.114 83.2915 176.234C84.2025 176.355 85.0304 176.592 85.8707 176.867L85.8666 176.871Z" fill="#593F05"/>
<path d="M96.6244 92.2022C112.415 92.2022 125.216 79.4013 125.216 63.6105C125.216 47.8198 112.415 35.0189 96.6244 35.0189C80.8336 35.0189 68.0327 47.8198 68.0327 63.6105C68.0327 79.4013 80.8336 92.2022 96.6244 92.2022Z" fill="#2D0D00"/>
<path opacity="0.49" d="M96.6244 87.5555C109.849 87.5555 120.569 76.835 120.569 63.6105C120.569 50.3861 109.849 39.6656 96.6244 39.6656C83.4 39.6656 72.6794 50.3861 72.6794 63.6105C72.6794 76.835 83.4 87.5555 96.6244 87.5555Z" fill="#5D330B"/>
<path opacity="0.49" d="M96.5536 82.3472C106.92 82.3472 115.324 73.9436 115.324 63.5773C115.324 53.2109 106.92 44.8073 96.5536 44.8073C86.1873 44.8073 77.7837 53.2109 77.7837 63.5773C77.7837 73.9436 86.1873 82.3472 96.5536 82.3472Z" fill="#774019"/>
<path opacity="0.49" d="M96.5536 78.2704C104.691 78.2704 111.288 71.6734 111.288 63.5357C111.288 55.3979 104.691 48.8009 96.5536 48.8009C88.4158 48.8009 81.8188 55.3979 81.8188 63.5357C81.8188 71.6734 88.4158 78.2704 96.5536 78.2704Z" fill="#7D5B1B"/>
<path d="M75.3001 35.1437L74.3433 90.9584" stroke="black" stroke-width="0.5" stroke-miterlimit="10"/>
<path d="M77.9917 35.1437L77.0349 90.9584" stroke="black" stroke-width="0.5" stroke-miterlimit="10"/>
<path d="M69.9087 33.9872L68.9519 89.8019" stroke="black" stroke-width="0.5" stroke-miterlimit="10"/>
<path d="M72.6045 33.9872L71.6477 89.8019" stroke="black" stroke-width="0.5" stroke-miterlimit="10"/>
<path d="M85.6919 36.296L84.7351 92.1149" stroke="black" stroke-width="0.5" stroke-miterlimit="10"/>
<path d="M88.3875 36.296L87.4307 92.1149" stroke="black" stroke-width="0.5" stroke-miterlimit="10"/>
<path d="M80.3047 35.1437L79.3479 90.9584" stroke="black" stroke-width="0.5" stroke-miterlimit="10"/>
<path d="M82.9961 35.1437L82.0393 90.9584" stroke="black" stroke-width="0.5" stroke-miterlimit="10"/>
<path d="M96.4705 33.6586L95.5137 92.1149" stroke="black" stroke-width="0.5" stroke-miterlimit="10"/>
<path d="M99.166 33.6586L98.2092 92.1149" stroke="black" stroke-width="0.5" stroke-miterlimit="10"/>
<path d="M91.0791 35.1437L90.1265 90.9584" stroke="black" stroke-width="0.5" stroke-miterlimit="10"/>
<path d="M93.7747 32.448L92.8179 90.9043" stroke="black" stroke-width="0.5" stroke-miterlimit="10"/>
<path d="M106.862 37.4525L105.905 93.2672" stroke="black" stroke-width="0.5" stroke-miterlimit="10"/>
<path d="M109.558 37.4525L108.601 93.2672" stroke="black" stroke-width="0.5" stroke-miterlimit="10"/>
<path d="M101.475 33.6586L100.518 92.1149" stroke="black" stroke-width="0.5" stroke-miterlimit="10"/>
<path d="M104.17 36.296L103.214 92.1149" stroke="black" stroke-width="0.5" stroke-miterlimit="10"/>
<path d="M118.027 38.6089L117.071 94.4237" stroke="black" stroke-width="0.5" stroke-miterlimit="10"/>
<path d="M120.719 38.6089L119.766 94.4237" stroke="black" stroke-width="0.5" stroke-miterlimit="10"/>
<path d="M112.636 37.4525L111.679 93.2672" stroke="black" stroke-width="0.5" stroke-miterlimit="10"/>
<path d="M115.332 37.4525L114.375 93.2672" stroke="black" stroke-width="0.5" stroke-miterlimit="10"/>
<path d="M123.032 38.6089L122.075 94.4237" stroke="black" stroke-width="0.5" stroke-miterlimit="10"/>
<path d="M68.2114 84.9846L124.03 84.4438" stroke="black" stroke-width="0.5" stroke-miterlimit="10"/>
<path d="M68.1365 82.289L123.96 81.7523" stroke="black" stroke-width="0.5" stroke-miterlimit="10"/>
<path d="M67.2007 90.401L123.02 89.8643" stroke="black" stroke-width="0.5" stroke-miterlimit="10"/>
<path d="M67.1257 87.7053L122.949 87.1686" stroke="black" stroke-width="0.5" stroke-miterlimit="10"/>
<path d="M69.085 74.5638L124.908 74.023" stroke="black" stroke-width="0.5" stroke-miterlimit="10"/>
<path d="M69.0144 71.8681L124.837 71.3315" stroke="black" stroke-width="0.5" stroke-miterlimit="10"/>
<path d="M68.0742 79.9801L123.897 79.4435" stroke="black" stroke-width="0.5" stroke-miterlimit="10"/>
<path d="M68.0034 77.2886L123.826 76.7478" stroke="black" stroke-width="0.5" stroke-miterlimit="10"/>
<path d="M66.1606 63.8602L124.621 63.2528" stroke="black" stroke-width="0.5" stroke-miterlimit="10"/>
<path d="M66.0857 61.1645L124.546 60.5571" stroke="black" stroke-width="0.5" stroke-miterlimit="10"/>
<path d="M67.7871 69.2058L123.61 68.6691" stroke="black" stroke-width="0.5" stroke-miterlimit="10"/>
<path d="M65.0208 66.585L123.481 65.9776" stroke="black" stroke-width="0.5" stroke-miterlimit="10"/>
<path d="M69.6758 53.3686L125.495 52.832" stroke="black" stroke-width="0.5" stroke-miterlimit="10"/>
<path d="M69.6008 50.673L125.424 50.1363" stroke="black" stroke-width="0.5" stroke-miterlimit="10"/>
<path d="M66.0232 58.8557L124.484 58.2483" stroke="black" stroke-width="0.5" stroke-miterlimit="10"/>
<path d="M68.5901 56.0934L124.413 55.5568" stroke="black" stroke-width="0.5" stroke-miterlimit="10"/>
<path d="M70.5286 42.1782L126.352 41.6416" stroke="black" stroke-width="0.5" stroke-miterlimit="10"/>
<path d="M70.4578 39.4826L126.281 38.9459" stroke="black" stroke-width="0.5" stroke-miterlimit="10"/>
<path d="M69.5178 47.5946L125.341 47.0579" stroke="black" stroke-width="0.5" stroke-miterlimit="10"/>
<path d="M69.447 44.903L125.27 44.3664" stroke="black" stroke-width="0.5" stroke-miterlimit="10"/>
<path d="M70.3955 37.1738L126.219 36.6371" stroke="black" stroke-width="0.5" stroke-miterlimit="10"/>
<path d="M73.2368 47.7901C75.0464 47.6112 76.9475 46.1385 77.3344 45.839C78.7779 44.72 79.1939 43.8048 80.1882 42.5942C83.1418 39.0041 85.8166 39.6989 86.6237 37.6438C88.1462 33.7625 83.512 27.6016 78.5034 24.5481C74.4557 22.0813 66.6224 19.4979 62.7994 23.2336C57.7242 28.1923 64.3136 39.7737 64.7504 40.5225C65.5491 41.8953 69.1226 48.1977 73.2368 47.7901Z" fill="#F4C714" stroke="#F7931E" stroke-miterlimit="10"/>
<path d="M78.9735 43.0726C78.9859 42.7315 76.4525 42.9021 72.9415 41.4752C69.289 39.9901 67.5709 37.9891 67.3463 38.2345C67.08 38.5257 69.0435 41.808 72.5047 43.1225C75.6579 44.3165 78.9568 43.4637 78.9735 43.0768V43.0726Z" fill="#F1B517"/>
<path d="M78.9735 43.0726C78.9859 42.7315 76.4525 42.9021 72.9415 41.4752C69.289 39.9901 67.5709 37.9891 67.3463 38.2345C67.08 38.5257 69.0435 41.808 72.5047 43.1225C75.6579 44.3165 78.9568 43.4637 78.9735 43.0768V43.0726Z" stroke="#F7931E" stroke-miterlimit="10"/>
<path d="M79.5516 40.8803C79.8553 40.5974 77.3551 37.3817 75.3001 35.1021C72.4255 31.9155 68.8937 28.8621 68.5692 29.1699C68.2656 29.4569 70.8115 32.7101 72.8915 35.0064C75.7286 38.1389 79.2271 41.1798 79.5516 40.8761V40.8803Z" fill="#F1B517" stroke="#F7931E" stroke-miterlimit="10"/>
<path d="M81.6566 39.8819C81.3155 39.8694 81.6566 37.3526 80.471 33.7542C79.2355 30.0102 77.3552 28.159 77.6173 27.951C77.9251 27.7056 81.0701 29.8854 82.1433 33.4297C83.1209 36.6579 82.0435 39.8902 81.6566 39.8777V39.8819Z" fill="#F1B517"/>
<path d="M81.6566 39.8819C81.3155 39.8694 81.6566 37.3526 80.471 33.7542C79.2355 30.0102 77.3552 28.159 77.6173 27.951C77.9251 27.7056 81.0701 29.8854 82.1433 33.4297C83.1209 36.6579 82.0435 39.8902 81.6566 39.8777V39.8819Z" stroke="#F7931E" stroke-miterlimit="10"/>
<path d="M71.7933 73.9897C72.5546 72.3382 72.2467 69.9504 72.1802 69.4678C71.9472 67.6582 71.3648 66.8346 70.824 65.3661C69.2224 61.0022 71.1776 59.047 69.809 57.3081C67.2298 54.0301 59.5712 54.912 54.4045 57.6909C50.232 59.9373 44.0378 65.3827 45.3274 70.5744C47.0371 77.4633 60.3616 77.6339 61.231 77.6339C62.8202 77.6339 70.0627 77.7421 71.7933 73.9897Z" fill="#F4C714" stroke="#F7931E" stroke-miterlimit="10"/>
<path d="M70.6242 66.6557C70.3371 66.4726 69.2015 68.744 66.1938 71.0528C63.0655 73.4531 60.4696 73.9232 60.5653 74.2394C60.6818 74.6179 64.5048 74.5846 67.3919 72.2592C70.0168 70.1418 70.9487 66.8637 70.62 66.6557H70.6242Z" fill="#F1B517"/>
<path d="M70.6242 66.6557C70.3371 66.4726 69.2015 68.744 66.1938 71.0528C63.0655 73.4531 60.4696 73.9232 60.5653 74.2394C60.6818 74.6179 64.5048 74.5846 67.3919 72.2592C70.0168 70.1418 70.9487 66.8637 70.62 66.6557H70.6242Z" stroke="#F7931E" stroke-miterlimit="10"/>
<path d="M69.0268 65.0458C68.9353 64.6422 64.9001 65.1706 61.8924 65.7904C57.6908 66.6598 53.2688 68.1616 53.3686 68.5942C53.4643 69.0019 57.5577 68.4528 60.5904 67.8205C64.7254 66.9594 69.1225 65.4784 69.0227 65.0458H69.0268Z" fill="#F1B517" stroke="#F7931E" stroke-miterlimit="10"/>
<path d="M69.2306 62.7286C69.0476 63.0157 67.0508 61.4474 63.3484 60.6528C59.4921 59.825 56.9461 60.5114 56.9004 60.1827C56.8421 59.7917 60.3157 58.1818 63.9183 59.0512C67.1964 59.8416 69.4428 62.4042 69.2348 62.7328L69.2306 62.7286Z" fill="#F1B517"/>
<path d="M69.2306 62.7286C69.0476 63.0157 67.0508 61.4474 63.3484 60.6528C59.4921 59.825 56.9461 60.5114 56.9004 60.1827C56.8421 59.7917 60.3157 58.1818 63.9183 59.0512C67.1964 59.8416 69.4428 62.4042 69.2348 62.7328L69.2306 62.7286Z" stroke="#F7931E" stroke-miterlimit="10"/>
<path d="M69.0726 59.6877C70.4704 58.5229 71.215 56.2349 71.369 55.7731C71.9347 54.0384 71.7642 53.0442 71.9098 51.4883C72.3383 46.8582 74.9466 45.9347 74.4599 43.7757C73.5405 39.7072 66.248 37.2112 60.3866 37.4982C55.6525 37.7312 47.7194 39.9859 46.6503 45.2234C45.2317 52.1747 57.1875 58.0611 57.9696 58.4355C59.4007 59.1219 65.8944 62.3334 69.0726 59.6835V59.6877Z" fill="#FBE305" stroke="#F7931E" stroke-miterlimit="10"/>
<path d="M71.1694 52.5658C70.9905 52.2746 68.9854 53.8429 65.283 54.6291C61.4266 55.4486 58.8807 54.7581 58.8308 55.0867C58.7726 55.4778 62.242 57.0918 65.8446 56.2349C69.1226 55.4528 71.3774 52.8944 71.1694 52.5658Z" fill="#F2C40C" stroke="#F7931E" stroke-miterlimit="10"/>
<path d="M70.4206 50.4233C70.5121 50.0157 66.6391 48.7593 63.6605 48.0272C59.4922 47.0038 54.858 46.4589 54.7623 46.8957C54.6708 47.3033 58.6061 48.568 61.618 49.3001C65.7197 50.2985 70.329 50.856 70.4247 50.4192L70.4206 50.4233Z" fill="#F2C40C" stroke="#F7931E" stroke-miterlimit="10"/>
<path d="M71.6019 48.4182C71.3149 48.6013 70.1833 46.3258 67.184 44.0128C64.0598 41.6083 61.464 41.1299 61.5638 40.8138C61.6803 40.4352 65.5075 40.4768 68.3862 42.8064C71.007 44.928 71.9305 48.2102 71.6019 48.4182Z" fill="#F2C40C" stroke="#F7931E" stroke-miterlimit="10"/>
<path d="M92.8636 90.2054C92.0732 88.5664 90.0348 87.2893 89.623 87.0272C88.0754 86.0579 87.0729 85.9789 85.5961 85.463C81.2073 83.9238 80.9452 81.1699 78.7321 81.12C74.5637 81.0243 70.3705 87.4931 69.2265 93.2464C68.303 97.8973 68.565 106.138 73.3906 108.447C79.7929 111.509 88.4041 101.342 88.9573 100.672C89.9724 99.449 94.6607 93.9286 92.8636 90.2054Z" fill="#F4C714" stroke="#F7931E" stroke-miterlimit="10"/>
<path d="M86.4612 86.4407C86.1367 86.5447 87.1684 88.8701 87.0353 92.6557C86.8938 96.5952 85.6042 98.8957 85.9121 99.0247C86.2781 99.1744 88.6868 96.2042 88.7284 92.4976C88.7658 89.128 86.8314 86.32 86.4612 86.4407Z" fill="#F1B517"/>
<path d="M86.4612 86.4407C86.1367 86.5447 87.1684 88.8701 87.0353 92.6557C86.8938 96.5952 85.6042 98.8957 85.9121 99.0247C86.2781 99.1744 88.6868 96.2042 88.7284 92.4976C88.7658 89.128 86.8314 86.32 86.4612 86.4407Z" stroke="#F7931E" stroke-miterlimit="10"/>
<path d="M84.2024 86.6486C83.8322 86.4614 81.6731 89.9142 80.2379 92.6266C78.2328 96.4205 76.5813 100.784 76.9806 100.984C77.355 101.171 79.5349 97.6602 80.9784 94.9187C82.9419 91.1789 84.5976 86.8442 84.2024 86.6486Z" fill="#F1B517" stroke="#F7931E" stroke-miterlimit="10"/>
<path d="M82.5425 85.0179C82.6507 85.3424 80.1672 85.8874 77.1969 88.2378C74.106 90.6838 73.0161 93.0842 72.7291 92.9136C72.3921 92.7098 73.3614 89.0074 76.3192 86.7818C79.0148 84.7558 82.4219 84.6518 82.5425 85.0221V85.0179Z" fill="#F1B517"/>
<path d="M82.5425 85.0179C82.6507 85.3424 80.1672 85.8874 77.1969 88.2378C74.106 90.6838 73.0161 93.0842 72.7291 92.9136C72.3921 92.7098 73.3614 89.0074 76.3192 86.7818C79.0148 84.7558 82.4219 84.6518 82.5425 85.0221V85.0179Z" stroke="#F7931E" stroke-miterlimit="10"/>
<path d="M80.1008 83.2C80.0924 81.3821 78.8028 79.352 78.5408 78.9402C77.5632 77.3968 76.6854 76.8976 75.5788 75.7952C72.28 72.5171 73.2243 69.9171 71.2524 68.9229C67.5292 67.0426 60.9606 71.0819 57.4537 75.7827C54.6208 79.5808 51.3136 87.1354 54.6748 91.2954C59.1344 96.8157 71.2857 91.3328 72.072 90.9709C73.5113 90.3011 80.1216 87.335 80.1008 83.2Z" fill="#FBE305" stroke="#F7931E" stroke-miterlimit="10"/>
<path d="M75.9409 77.0515C75.604 77.0058 75.5374 79.5475 73.786 82.9088C71.964 86.4074 69.8132 87.9299 70.0337 88.1754C70.2958 88.4666 73.7528 86.8234 75.3835 83.4954C76.8686 80.4669 76.3278 77.1014 75.9409 77.0515Z" fill="#F2C40C" stroke="#F7931E" stroke-miterlimit="10"/>
<path d="M73.8109 76.2694C73.5571 75.9408 70.1251 78.129 67.6624 79.9635C64.2221 82.5261 60.8525 85.7584 61.127 86.1078C61.385 86.4406 64.8627 84.2067 67.3462 82.3514C70.7283 79.8221 74.0854 76.6189 73.815 76.2694H73.8109Z" fill="#F2C40C" stroke="#F7931E" stroke-miterlimit="10"/>
<path d="M73.0122 74.0813C72.9706 74.4182 70.4954 73.8442 66.8013 74.6886C62.9575 75.5664 60.9399 77.2678 60.7568 76.9891C60.5405 76.6605 63.0074 73.7318 66.6349 72.9955C69.9379 72.3258 73.058 73.6986 73.0122 74.0813Z" fill="#F2C40C" stroke="#F7931E" stroke-miterlimit="10"/>
<path d="M117.965 82.5594C116.151 82.4138 114.017 83.5245 113.585 83.7491C111.966 84.5936 111.392 85.4214 110.198 86.4323C106.65 89.44 104.141 88.2752 102.981 90.1555C100.789 93.704 104.25 100.593 108.634 104.491C112.179 107.64 119.421 111.584 123.852 108.588C129.734 104.616 125.316 92.0442 125.016 91.2288C124.476 89.7354 122.084 82.8963 117.961 82.5635L117.965 82.5594Z" fill="#F4C714" stroke="#F7931E" stroke-miterlimit="10"/>
<path d="M111.48 86.1744C111.405 86.5072 113.93 86.7901 117.129 88.8243C120.457 90.9376 121.788 93.2131 122.054 93.0134C122.371 92.7763 121.023 89.1946 117.849 87.2851C114.962 85.5462 111.559 85.8 111.476 86.1786L111.48 86.1744Z" fill="#F1B517"/>
<path d="M111.48 86.1744C111.405 86.5072 113.93 86.7901 117.129 88.8243C120.457 90.9376 121.788 93.2131 122.054 93.0134C122.371 92.7763 121.023 89.1946 117.849 87.2851C114.962 85.5462 111.559 85.8 111.476 86.1786L111.48 86.1744Z" stroke="#F7931E" stroke-miterlimit="10"/>
<path d="M110.515 88.2294C110.165 88.4541 112.05 92.0608 113.668 94.6733C115.927 98.3216 118.855 101.957 119.23 101.712C119.583 101.483 117.657 97.8266 116.018 95.1974C113.789 91.6115 110.885 87.9923 110.515 88.2336V88.2294Z" fill="#F1B517" stroke="#F7931E" stroke-miterlimit="10"/>
<path d="M108.268 88.8368C108.601 88.9075 107.815 91.3245 108.339 95.0768C108.884 98.983 110.406 101.138 110.111 101.296C109.766 101.483 107.062 98.775 106.638 95.0976C106.251 91.7488 107.89 88.7577 108.268 88.8409V88.8368Z" fill="#F1B517"/>
<path d="M108.268 88.8368C108.601 88.9075 107.815 91.3245 108.339 95.0768C108.884 98.983 110.406 101.138 110.111 101.296C109.766 101.483 107.062 98.775 106.638 95.0976C106.251 91.7488 107.89 88.7577 108.268 88.8409V88.8368Z" stroke="#F7931E" stroke-miterlimit="10"/>
<path d="M105.469 90.0266C103.896 89.1155 101.492 89.1987 101.005 89.2154C99.1786 89.2778 98.305 89.7811 96.7949 90.1805C92.2979 91.3661 90.5341 89.2403 88.6787 90.4384C85.176 92.6973 85.3341 100.406 87.6179 105.81C89.465 110.178 94.3072 116.85 99.5946 116.056C106.613 114.999 108.031 101.749 108.114 100.884C108.268 99.3034 109.05 92.1024 105.473 90.0266H105.469Z" fill="#FBE305" stroke="#F7931E" stroke-miterlimit="10"/>
<path d="M98.0596 90.505C97.8516 90.7754 100.006 92.1149 102.02 95.3264C104.117 98.6669 104.341 101.296 104.666 101.225C105.053 101.146 105.377 97.3315 103.334 94.2448C101.475 91.4326 98.2967 90.1971 98.0596 90.505Z" fill="#F2C40C" stroke="#F7931E" stroke-miterlimit="10"/>
<path d="M96.304 91.9443C95.8921 91.9984 96.0419 96.0669 96.3788 99.1161C96.8489 103.38 97.9305 107.923 98.3757 107.865C98.7917 107.811 98.6253 103.68 98.28 100.601C97.8099 96.4038 96.7449 91.8861 96.304 91.9443Z" fill="#F2C40C" stroke="#F7931E" stroke-miterlimit="10"/>
<path d="M94.016 91.5242C94.2864 91.7322 92.5392 93.575 91.3994 97.1859C90.2138 100.947 90.6589 103.547 90.3261 103.563C89.9309 103.584 88.6538 99.9773 89.856 96.4704C90.946 93.2797 93.7123 91.2829 94.0202 91.52L94.016 91.5242Z" fill="#F2C40C" stroke="#F7931E" stroke-miterlimit="10"/>
<path d="M122.162 54.2464C121.297 55.848 121.455 58.2483 121.489 58.735C121.609 60.5571 122.137 61.4141 122.578 62.9158C123.901 67.3754 121.825 69.2016 123.078 71.0237C125.441 74.4598 133.145 74.0646 138.474 71.6227C142.784 69.6467 149.306 64.6048 148.354 59.3424C147.085 52.3619 133.798 51.3427 132.933 51.2845C131.348 51.1805 124.126 50.6147 122.162 54.2506V54.2464Z" fill="#F4C714" stroke="#F7931E" stroke-miterlimit="10"/>
<path d="M122.861 61.6387C123.136 61.8384 124.413 59.6419 127.562 57.5328C130.836 55.3363 133.457 55.0326 133.382 54.7082C133.29 54.3254 129.472 54.1133 126.443 56.2515C123.689 58.1942 122.549 61.4099 122.861 61.6387Z" fill="#F1B517"/>
<path d="M122.861 61.6387C123.136 61.8384 124.413 59.6419 127.562 57.5328C130.836 55.3363 133.457 55.0326 133.382 54.7082C133.29 54.3254 129.472 54.1133 126.443 56.2515C123.689 58.1942 122.549 61.4099 122.861 61.6387Z" stroke="#F7931E" stroke-miterlimit="10"/>
<path d="M124.351 63.3485C124.417 63.7603 128.477 63.4858 131.518 63.0573C135.766 62.4582 140.275 61.2394 140.2 60.7984C140.134 60.3824 136.011 60.6736 132.941 61.1104C128.76 61.7094 124.276 62.9075 124.347 63.3443L124.351 63.3485Z" fill="#F1B517" stroke="#F7931E" stroke-miterlimit="10"/>
<path d="M124.001 65.649C124.201 65.3702 126.094 67.0634 129.742 68.095C133.536 69.1683 136.124 68.6442 136.148 68.977C136.182 69.3722 132.612 70.7533 129.072 69.6592C125.852 68.665 123.772 65.961 124.001 65.649Z" fill="#F1B517"/>
<path d="M124.001 65.649C124.201 65.3702 126.094 67.0634 129.742 68.095C133.536 69.1683 136.124 68.6442 136.148 68.977C136.182 69.3722 132.612 70.7533 129.072 69.6592C125.852 68.665 123.772 65.961 124.001 65.649Z" stroke="#F7931E" stroke-miterlimit="10"/>
<path d="M123.964 68.6941C122.495 69.7674 121.605 72.0013 121.426 72.4547C120.752 74.152 120.856 75.1546 120.615 76.6979C119.891 81.2906 117.233 82.0477 117.582 84.2317C118.24 88.3501 125.361 91.3078 131.227 91.391C135.965 91.4618 144.027 89.7146 145.425 84.552C147.285 77.7046 135.724 71.0694 134.967 70.6451C133.582 69.8672 127.304 66.2522 123.968 68.6899L123.964 68.6941Z" fill="#FBE305" stroke="#F7931E" stroke-miterlimit="10"/>
<path d="M121.418 75.6662C121.58 75.9658 123.677 74.5306 127.425 73.9814C131.327 73.4074 133.823 74.2602 133.894 73.9357C133.977 73.5488 130.62 71.7142 126.967 72.3424C123.644 72.9123 121.235 75.3251 121.418 75.6662Z" fill="#F2C40C" stroke="#F7931E" stroke-miterlimit="10"/>
<path d="M122.029 77.8544C121.913 78.2538 125.694 79.7555 128.623 80.6749C132.717 81.9603 137.309 82.8006 137.434 82.3722C137.55 81.9686 133.707 80.4586 130.749 79.535C126.718 78.2746 122.154 77.4301 122.029 77.8544Z" fill="#F2C40C" stroke="#F7931E" stroke-miterlimit="10"/>
<path d="M120.727 79.7805C121.027 79.6182 122.009 81.9603 124.858 84.4563C127.824 87.0563 130.383 87.697 130.262 88.009C130.121 88.3792 126.306 88.0921 123.581 85.5837C121.102 83.2998 120.386 79.9677 120.727 79.7805Z" fill="#F2C40C" stroke="#F7931E" stroke-miterlimit="10"/>
<path d="M99.1785 34.6445C100.123 36.2003 102.274 37.2778 102.706 37.4982C104.337 38.3178 105.348 38.297 106.862 38.6714C111.376 39.7862 111.904 42.4986 114.109 42.3405C118.269 42.0368 121.826 35.1978 122.412 29.3613C122.886 24.6438 121.838 16.4653 116.817 14.6266C110.153 12.1888 102.552 23.1338 102.066 23.8534C101.175 25.168 97.032 31.1126 99.1744 34.6445H99.1785Z" fill="#F4C714" stroke="#F7931E" stroke-miterlimit="10"/>
<path d="M105.909 37.777C106.221 37.6397 104.973 35.4266 104.745 31.6451C104.508 27.7098 105.572 25.297 105.252 25.1971C104.874 25.0806 102.76 28.2714 103.072 31.9613C103.355 35.3226 105.552 37.9267 105.909 37.7728V37.777Z" fill="#F1B517"/>
<path d="M105.909 37.777C106.221 37.6397 104.973 35.4266 104.745 31.6451C104.508 27.7098 105.572 25.297 105.252 25.1971C104.874 25.0806 102.76 28.2714 103.072 31.9613C103.355 35.3226 105.552 37.9267 105.909 37.7728V37.777Z" stroke="#F7931E" stroke-miterlimit="10"/>
<path d="M108.135 37.3568C108.522 37.5066 110.34 33.8666 111.509 31.0294C113.144 27.0608 114.371 22.5597 113.955 22.3974C113.564 22.2477 111.729 25.9501 110.556 28.8163C108.959 32.7267 107.723 37.1987 108.135 37.3568Z" fill="#F1B517" stroke="#F7931E" stroke-miterlimit="10"/>
<path d="M109.945 38.8211C109.807 38.5091 112.224 37.7312 114.957 35.1062C117.803 32.3773 118.66 29.8813 118.959 30.0269C119.313 30.1974 118.705 33.9747 115.972 36.4749C113.485 38.7504 110.103 39.1747 109.945 38.8211Z" fill="#F1B517"/>
<path d="M109.945 38.8211C109.807 38.5091 112.224 37.7312 114.957 35.1062C117.803 32.3773 118.66 29.8813 118.959 30.0269C119.313 30.1974 118.705 33.9747 115.972 36.4749C113.485 38.7504 110.103 39.1747 109.945 38.8211Z" stroke="#F7931E" stroke-miterlimit="10"/>
<path d="M114.633 44.1376C114.816 45.9472 116.293 47.8441 116.592 48.231C117.715 49.6704 118.631 50.0864 119.841 51.0765C123.44 54.0259 122.745 56.7008 124.804 57.5037C128.69 59.0179 134.842 54.3712 137.883 49.3542C140.342 45.3024 142.913 37.4649 139.169 33.6461C134.202 28.5792 122.633 35.1936 121.884 35.6345C120.511 36.4374 114.221 40.0233 114.633 44.1376Z" fill="#FBE305" stroke="#F7931E" stroke-miterlimit="10"/>
<path d="M119.359 49.8618C119.7 49.8742 119.525 47.3408 120.944 43.8256C122.42 40.169 124.421 38.4467 124.176 38.2221C123.885 37.9558 120.602 39.9235 119.3 43.393C118.111 46.5504 118.972 49.8451 119.363 49.8618H119.359Z" fill="#F2C40C" stroke="#F7931E" stroke-miterlimit="10"/>
<path d="M121.555 50.44C121.842 50.7437 125.049 48.2394 127.325 46.176C130.507 43.2973 133.552 39.7571 133.245 39.4327C132.958 39.129 129.709 41.6832 127.416 43.7674C124.292 46.6087 121.255 50.1155 121.559 50.44H121.555Z" fill="#F2C40C" stroke="#F7931E" stroke-miterlimit="10"/>
<path d="M122.558 52.5408C122.566 52.1997 125.087 52.5408 128.681 51.3427C132.421 50.0989 134.268 48.2144 134.48 48.4765C134.726 48.7843 132.554 51.9334 129.01 53.015C125.786 54.001 122.549 52.9277 122.562 52.5408H122.558Z" fill="#F2C40C" stroke="#F7931E" stroke-miterlimit="10"/>
<path d="M84.1984 38.2096C85.9082 38.8253 88.2586 38.3136 88.737 38.2096C90.5216 37.8186 91.2912 37.1696 92.7056 36.5082C96.9197 34.5363 99.033 36.3168 100.647 34.8067C103.692 31.9571 102.157 24.3984 98.9456 19.4938C96.3498 15.5293 90.3927 9.82592 85.3341 11.5523C78.6199 13.8445 79.5891 27.1357 79.6599 28.001C79.793 29.5859 80.3088 36.8077 84.1984 38.2096Z" fill="#FBE305" stroke="#F7931E" stroke-miterlimit="10"/>
<path d="M91.4036 36.4166C91.5616 36.113 89.1988 35.177 86.6445 32.3814C83.9863 29.4694 83.2957 26.9235 82.9879 27.0483C82.6218 27.1939 82.9837 31.0045 85.5463 33.6794C87.88 36.113 91.2247 36.7619 91.4036 36.4166Z" fill="#F2C40C" stroke="#F7931E" stroke-miterlimit="10"/>
<path d="M92.872 34.6861C93.2672 34.5613 92.3936 30.5843 91.5159 27.6432C90.2928 23.5289 88.4167 19.2566 87.9923 19.3939C87.593 19.5229 88.4915 23.5539 89.3818 26.5241C90.5965 30.5677 92.4477 34.8233 92.8679 34.6902L92.872 34.6861Z" fill="#F2C40C" stroke="#F7931E" stroke-miterlimit="10"/>
<path d="M95.2015 34.6902C94.8979 34.5321 96.2915 32.4064 96.7657 28.6499C97.2607 24.7395 96.358 22.2601 96.6825 22.1811C97.0652 22.0896 98.9663 25.4134 98.4131 29.0742C97.9097 32.4064 95.5468 34.8649 95.2015 34.6861V34.6902Z" fill="#F2C40C" stroke="#F7931E" stroke-miterlimit="10"/>
<path d="M108.289 124.068C114.354 118.323 121.584 113.834 121.971 114.333C122.674 115.236 101.604 133.424 100.838 132.633C100.468 132.251 104.815 127.358 108.293 124.068H108.289Z" fill="#94A514" stroke="#2A4700" stroke-miterlimit="10"/>
<path d="M85.6253 134.767C86.3824 130.383 78.3744 124.351 71.8307 122.653C60.815 119.8 51.0432 128.486 49.1587 130.225C58.8598 142.601 68.6941 146.711 74.0896 148.292C81.4237 150.438 91.9901 151.262 93.0925 147.984C93.9744 145.355 88.5414 140.766 83.9072 137.372C84.6601 136.768 85.4297 135.911 85.6253 134.763V134.767Z" fill="#94A514" stroke="#2A4700" stroke-miterlimit="10"/>
<path d="M71.111 125.337C71.1651 124.971 68.7065 123.714 65.6905 123.681C59.9165 123.619 55.224 128.061 55.3654 128.344C55.4486 128.515 57.1792 127.105 60.6153 126.135C66.431 124.496 71.0361 125.828 71.111 125.332V125.337Z" fill="#F6F9D4"/>
<path opacity="0.5" d="M77.2053 136.876C71.5893 133.461 62.8908 130.212 49.4124 131.032C56.6757 130.441 62.7826 130.882 67.2879 131.481C67.2879 131.481 76.4648 132.704 82.0559 136.71C83.5909 137.808 84.7308 139.189 84.7308 139.194C85.5253 140.138 86.7733 141.856 86.6028 142.131C86.2533 142.692 79.4018 138.212 77.2053 136.881V136.876Z" fill="#636B03"/>
<path opacity="0.57" d="M74.7178 147.214C74.7303 147.089 88.6496 149.752 89.8061 146.232C90.1971 145.034 88.9991 143.466 87.9299 142.334C89.9143 143.94 91.7738 145.82 91.3744 147.106C90.3386 150.451 74.7053 147.347 74.7178 147.214Z" fill="#F6F9D4"/>
<path d="M116.759 115.76C116.551 111.775 124.971 107.453 131.468 106.791C142.409 105.676 150.787 114.633 152.397 116.422C141.594 126.152 131.639 128.532 126.26 129.239C118.947 130.2 108.68 129.572 108.006 126.526C107.465 124.084 113.239 120.711 118.102 118.298C117.449 117.666 116.813 116.809 116.759 115.764V115.76Z" fill="#94A514" stroke="#2A4700" stroke-miterlimit="10"/>
<path opacity="0.57" d="M131.331 110.648C131.319 110.315 133.831 109.504 136.743 109.845C142.309 110.498 146.328 115.02 146.161 115.257C146.062 115.398 144.556 113.934 141.353 112.653C135.936 110.481 131.348 111.097 131.335 110.648H131.331Z" fill="#F6F9D4"/>
<path opacity="0.5" d="M124.609 118.714C130.42 116.405 139.177 114.645 152.052 117.104C145.13 115.648 139.198 115.253 134.796 115.203C134.796 115.203 125.819 115.107 119.962 117.94C118.352 118.718 117.096 119.796 117.091 119.796C116.214 120.532 114.812 121.892 114.941 122.158C115.211 122.699 122.337 119.608 124.609 118.71V118.714Z" fill="#636B03"/>
<path d="M125.782 128.203C125.786 128.091 112.07 128.66 111.376 125.395C111.139 124.284 112.482 123.044 113.643 122.179C111.546 123.348 109.529 124.779 109.762 125.969C110.361 129.068 125.778 128.328 125.782 128.207V128.203Z" fill="#F6F9D4"/>
<defs>
<radialGradient id="paint0_radial_978_529" cx="0" cy="0" r="1" gradientUnits="userSpaceOnUse" gradientTransform="translate(201.97 99.23) scale(5.42)">
<stop stop-color="#831811"/>
<stop offset="0.17" stop-color="#7E1811"/>
<stop offset="0.36" stop-color="#701812"/>
<stop offset="0.56" stop-color="#591A15"/>
<stop offset="0.78" stop-color="#391B18"/>
<stop offset="0.93" stop-color="#1D1D1B"/>
</radialGradient>
<clipPath id="clip0_978_529">
<rect width="161.96" height="145.09" fill="white" transform="translate(153 46)"/>
</clipPath>
</defs>
</svg>
