<svg width="222" height="222" viewBox="0 0 222 222" fill="none" xmlns="http://www.w3.org/2000/svg">
<g clip-path="url(#clip0_564_318)">
<path opacity="0.3" d="M166.34 198.942C162.135 203.275 158.373 205.823 155.493 207.747C127.403 226.503 95.2924 221.096 85.3652 219.249C69.3483 216.268 55.8273 214.165 44.2109 203.67C17.8144 179.821 19.0979 130.072 39.2682 99.2549C41.66 95.6006 61.7997 65.7479 93.9796 61.5413C94.7664 61.4383 95.354 61.3797 95.8681 61.3253C100.846 60.7981 131.695 58.0162 156.849 79.0906C160.449 82.1071 166.244 87.5488 171.617 95.8471C191.265 126.191 191.327 173.188 166.34 198.943L166.34 198.942Z" fill="#398576"/>
<path d="M31.0327 216.757H29.0246C28.3945 216.757 27.8799 216.254 27.8655 215.624L27.0152 178.365C27.0002 177.714 27.5238 177.179 28.1743 177.179H31.5509C32.1978 177.179 32.719 177.708 32.71 178.354L32.1918 215.613C32.1828 216.247 31.6664 216.756 31.0327 216.756V216.757Z" fill="url(#paint0_linear_564_318)"/>
<path d="M68.0069 216.757H65.9987C65.3686 216.757 64.854 216.272 64.8396 215.664L63.9893 179.736C63.9744 179.109 64.498 178.592 65.1484 178.592H68.5251C69.1719 178.592 69.6931 179.102 69.6841 179.725L69.1659 215.654C69.157 216.266 68.6406 216.756 68.0069 216.756V216.757Z" fill="url(#paint1_linear_564_318)"/>
<path d="M26.4546 177.19H69.3066C69.7332 177.19 70.0803 177.536 70.0803 177.963V186.725H26.4546V177.19Z" fill="url(#paint2_linear_564_318)"/>
<path d="M35.2674 186.725H27.8002C27.0457 186.725 26.4234 186.135 26.3833 185.381L24.2255 144.878C24.1639 143.725 25.1153 142.774 26.2684 142.834L26.4437 142.843C30.2213 143.042 33.2359 146.066 33.4244 149.843L35.2674 186.724V186.725Z" fill="url(#paint3_linear_564_318)"/>
<path d="M62.3538 182.895C68.4268 191.265 66.6807 200.3 54.5018 206.38C53.6443 205.6 53.4032 204.87 54.2648 203.222C63.9694 196.234 62.4848 189.893 56.5177 185.866L62.3538 182.896V182.895Z" fill="url(#paint4_linear_564_318)"/>
<path d="M49.6711 186.704C54.5336 195.378 53.4696 202.147 39.492 206.631C38.7267 204.652 39.0444 203.554 40.231 203.164C50.811 197.848 48.1129 193.671 42.8603 189.163L49.6705 186.703L49.6711 186.704Z" fill="url(#paint5_linear_564_318)"/>
<path d="M39.4944 203.576C39.0958 205.251 39.2807 206.118 40.5499 206.465C41.3158 209.207 40.8934 210.726 39.5823 211.329C37.9511 209.01 36.7149 206.522 36.314 203.675C37.5257 203.226 39.2048 202.836 39.4938 203.576H39.4944Z" fill="url(#paint6_linear_564_318)"/>
<path d="M54.2649 203.221C53.8688 204.886 54.0525 205.747 55.3145 206.092C56.0756 208.818 55.6555 210.328 54.3529 210.928C52.7313 208.623 51.5028 206.149 51.1042 203.318C52.3088 202.873 53.9777 202.485 54.2655 203.221H54.2649Z" fill="url(#paint7_linear_564_318)"/>
<path d="M36.479 169.898C35.6503 175.555 38.3334 183.951 42.7896 189.834C45.949 190.183 49.3784 189.883 52.0286 188.217L48.6753 180.613L50.2562 180.142L56.827 186.877C59.7878 187.312 61.7667 185.81 64.0806 184.294C61.5046 178.615 55.6452 175.963 54.1343 168.03L36.4796 169.897L36.479 169.898Z" fill="url(#paint8_linear_564_318)"/>
<path d="M56.0308 170.214C50.2815 172.042 43.3546 172.228 35.7085 171.412L36.943 155.821C36.943 155.821 35.4237 144.958 42.3559 143.752C46.4393 142.642 46.4393 142.652 46.4393 142.652C46.4393 142.652 51.6626 141.839 56.0308 143.767C60.399 145.696 64.0078 157.284 64.0078 157.284L58.7845 159.374L57.4549 155.061L56.0302 170.214H56.0308Z" fill="url(#paint9_linear_564_318)"/>
<path fill-rule="evenodd" clip-rule="evenodd" d="M58.2084 132.481C58.2084 132.481 57.6471 130.898 59.0772 130.616C60.5074 130.334 59.1431 134.536 59.1431 134.536L58.2084 132.48V132.481Z" fill="url(#paint10_linear_564_318)"/>
<path fill-rule="evenodd" clip-rule="evenodd" d="M46.7751 136.776L46.2102 142.979C46.2102 142.979 49.484 144.892 52.3011 143.219L51.8009 137.802L46.7751 136.776Z" fill="url(#paint11_linear_564_318)"/>
<path fill-rule="evenodd" clip-rule="evenodd" d="M58.8696 132.365C58.8696 132.365 60.3045 129.908 58.4771 128.616C58.4771 128.616 59.4572 126.454 57.6034 124.89C57.6034 124.89 54.6504 117.979 48.4512 122.827C48.4512 122.827 43.1136 121.24 41.3968 127.877C41.3968 127.877 39.622 128.873 40.4346 131.353C40.4346 131.353 40.2354 140.552 48.292 137.452L58.8696 132.366V132.365Z" fill="url(#paint12_linear_564_318)"/>
<path fill-rule="evenodd" clip-rule="evenodd" d="M56.2163 127.227C56.2163 127.227 63.0457 137.518 55.9895 140.67C49.3295 143.645 46.5237 136.812 46.5237 136.812C46.5237 136.812 43.5952 133.777 44.579 131.442C45.5627 129.106 54.5516 125.949 56.2163 127.228V127.227Z" fill="url(#paint13_linear_564_318)"/>
<path fill-rule="evenodd" clip-rule="evenodd" d="M45.8578 135.191C45.8578 135.191 52.5424 133.075 51.9703 129.127C51.9703 129.127 53.1282 129.243 53.4836 127.879C53.4836 127.879 56.764 130.83 57.6286 128.767C57.6286 128.767 57.0542 123.657 53.0468 125.313C49.0395 126.968 45.3785 128.652 44.3062 129.831C43.2333 131.01 42.343 133.862 45.8584 135.191H45.8578Z" fill="url(#paint14_linear_564_318)"/>
<path fill-rule="evenodd" clip-rule="evenodd" d="M47.4005 137.73L46.2133 134.466C46.2133 134.466 43.9191 133.412 44.2213 135.188C44.5235 136.964 46.5855 137.945 47.4011 137.73H47.4005Z" fill="url(#paint15_linear_564_318)"/>
<path d="M127.039 219.265H130.505C131.592 219.265 132.48 218.468 132.505 217.472L133.972 158.506C133.998 157.477 133.095 156.63 131.972 156.63H126.144C125.028 156.63 124.128 157.467 124.144 158.49L125.039 217.456C125.054 218.459 125.945 219.265 127.039 219.265Z" fill="url(#paint16_linear_564_318)"/>
<path d="M51.7174 219.355H55.5913C56.5655 219.355 57.3614 218.641 57.3841 217.748L58.8609 158.401C58.8836 157.478 58.0746 156.719 57.0682 156.719H50.8169C49.817 156.719 49.0103 157.47 49.0241 158.387L49.9241 217.734C49.9378 218.632 50.7361 219.355 51.7168 219.355H51.7174Z" fill="url(#paint17_linear_564_318)"/>
<path d="M132.934 156.63H49.8649C48.3351 156.63 47.095 157.87 47.095 159.4V164.566C47.095 166.096 48.3351 167.336 49.8649 167.336H132.934C134.464 167.336 135.704 166.096 135.704 164.566V159.4C135.704 157.87 134.464 156.63 132.934 156.63Z" fill="url(#paint18_linear_564_318)"/>
<path d="M52.7265 156.418L52.4495 150.901L61.3372 149.684C61.3372 149.684 64.1915 137.313 67.2205 136.125C70.2496 134.936 69.8283 135.893 69.7248 136.152C69.6213 136.412 67.8476 137.09 67.8476 137.09C67.8476 137.09 69.8468 136.673 69.6919 137.265C69.5369 137.858 67.491 138.636 67.491 138.636C67.491 138.636 69.9174 138.294 69.419 138.883C68.9205 139.471 67.6328 139.594 67.6328 139.594C67.6328 139.594 69.261 139.195 69.0612 139.828C68.8613 140.461 67.3971 140.963 67.3971 140.963C67.3971 140.963 67.4725 142.664 67.1422 143.489C66.8118 144.313 65.5564 153.458 64.0916 154.616C62.6262 155.775 52.7277 156.418 52.7277 156.418L52.7265 156.418Z" fill="url(#paint19_linear_564_318)"/>
<path d="M53.0939 157.178C52.6152 154.744 52.2987 152.464 52.7008 150.867C48.3876 149.992 44.2247 149.075 41.7947 147.679C37.1913 144.14 36.9526 149.742 36.9424 155.821C42.0286 157.051 47.4428 157.425 53.0933 157.178H53.0939Z" fill="url(#paint20_linear_564_318)"/>
<path d="M70.9292 156.418H87.2549C87.628 156.418 87.9304 156.116 87.9304 155.743V139.417C87.9304 139.044 87.628 138.742 87.2549 138.742H70.9292C70.5561 138.742 70.2536 139.044 70.2536 139.417V155.743C70.2536 156.116 70.5561 156.418 70.9292 156.418Z" fill="url(#paint21_linear_564_318)"/>
<path d="M88.4236 156.418H104.861C105.203 156.418 105.48 156.141 105.48 155.799V139.362C105.48 139.019 105.203 138.742 104.861 138.742H88.4236C88.0812 138.742 87.8036 139.019 87.8036 139.362V155.799C87.8036 156.141 88.0812 156.418 88.4236 156.418Z" fill="url(#paint22_linear_564_318)"/>
<path d="M106.071 156.418H122.567C122.893 156.418 123.157 156.154 123.157 155.828V139.332C123.157 139.006 122.893 138.742 122.567 138.742H106.071C105.745 138.742 105.48 139.006 105.48 139.332V155.828C105.48 156.154 105.745 156.418 106.071 156.418Z" fill="url(#paint23_linear_564_318)"/>
<path d="M89.259 139.017H105.826C106.133 139.017 106.381 138.769 106.381 138.462V121.895C106.381 121.588 106.133 121.34 105.826 121.34H89.259C88.9526 121.34 88.7043 121.588 88.7043 121.895V138.462C88.7043 138.769 88.9526 139.017 89.259 139.017Z" fill="url(#paint24_linear_564_318)"/>
<path d="M71.7872 138.741H87.9442C88.3639 138.741 88.7041 138.401 88.7041 137.981V121.824C88.7041 121.404 88.3639 121.064 87.9442 121.064H71.7872C71.3675 121.064 71.0273 121.404 71.0273 121.824V137.981C71.0273 138.401 71.3675 138.741 71.7872 138.741Z" fill="url(#paint25_linear_564_318)"/>
<g opacity="0.3">
<path d="M68.3581 74.9319C68.1211 75.1557 67.7471 75.1449 67.5233 74.908C67.0883 74.4472 66.6275 73.9984 66.1524 73.5748C65.9119 73.3599 65.8885 72.9931 66.098 72.7502C66.1004 72.7472 66.1028 72.7442 66.1058 72.7412C66.323 72.4983 66.6964 72.4773 66.9393 72.6945C67.4389 73.1409 67.9248 73.6131 68.3826 74.0983C68.592 74.3198 68.5956 74.6614 68.4011 74.8876C68.388 74.9032 68.3736 74.9181 68.3581 74.9325V74.9319ZM63.6997 71.6683C63.1719 71.3129 62.6232 70.9772 62.0697 70.669C61.7848 70.511 61.6819 70.1514 61.8405 69.8666C62.0002 69.5812 62.3587 69.4788 62.6435 69.6374C63.2257 69.9611 63.8032 70.3148 64.3591 70.6888C64.6295 70.8707 64.7013 71.2375 64.5194 71.5079C64.5063 71.5277 64.4919 71.5462 64.477 71.5636C64.2849 71.7874 63.951 71.8371 63.7003 71.6683H63.6997ZM59.2573 69.3532C58.6649 69.1252 58.0557 68.9199 57.446 68.7434C57.133 68.6531 56.9523 68.3251 57.0432 68.0122C57.1342 67.6992 57.4609 67.5191 57.7745 67.6095C58.4165 67.7956 59.0586 68.0116 59.6821 68.2521C59.9861 68.3694 60.1381 68.7111 60.0208 69.0151C59.9957 69.0797 59.9604 69.1378 59.9179 69.1874C59.7599 69.3711 59.4972 69.4453 59.2579 69.3532H59.2573ZM54.4086 68.09C53.7797 67.9996 53.1394 67.9362 52.5057 67.8997C52.1802 67.8811 51.9313 67.6023 51.9498 67.2768C51.9684 66.9513 52.2472 66.7029 52.5727 66.7209C53.2399 66.7586 53.9143 66.8262 54.5761 66.9207C54.8986 66.9668 55.123 67.266 55.077 67.5885C55.0602 67.704 55.0117 67.807 54.9405 67.8895C54.8137 68.0373 54.6162 68.1193 54.4086 68.0894V68.09ZM49.3995 67.938C48.7676 67.9895 48.1291 68.069 47.5014 68.1744C47.1795 68.2282 46.8755 68.011 46.8217 67.6897C46.7678 67.3677 46.985 67.0638 47.3064 67.0099C47.9664 66.8992 48.6384 66.8154 49.3032 66.7616C49.6281 66.7346 49.9129 66.977 49.9392 67.3019C49.9524 67.4659 49.898 67.6191 49.7986 67.7345C49.7011 67.8482 49.5605 67.9248 49.3989 67.938H49.3995ZM44.482 68.8984C43.8764 69.0887 43.2715 69.3077 42.6839 69.5488C42.3823 69.6727 42.0376 69.5285 41.9137 69.2269C41.7899 68.9253 41.9341 68.5807 42.2357 68.4568C42.8538 68.2031 43.4911 67.9727 44.1283 67.7722C44.4395 67.6747 44.7704 67.8476 44.8685 68.1582C44.932 68.3605 44.8811 68.5705 44.7525 68.7201C44.6831 68.8009 44.5915 68.8637 44.482 68.8978V68.8984ZM28.9737 84.3911C28.6608 84.3002 28.4806 83.9723 28.5722 83.6593C28.7589 83.0178 28.9767 82.3764 29.2184 81.7523C29.3363 81.4483 29.678 81.2975 29.982 81.4154C30.286 81.5332 30.4368 81.8749 30.3189 82.1789C30.0891 82.7719 29.8826 83.3811 29.7055 83.9902C29.681 84.074 29.6403 84.1476 29.587 84.2098C29.441 84.3798 29.2035 84.4587 28.9737 84.3917V84.3911ZM39.9026 70.9239C39.3545 71.2441 38.8141 71.5917 38.2959 71.9579C38.0296 72.1458 37.661 72.0824 37.4731 71.8161C37.2852 71.5498 37.3499 71.1824 37.615 70.9933C38.1607 70.608 38.7303 70.2418 39.3072 69.9049C39.5884 69.7403 39.9504 69.8355 40.1144 70.1167C40.2448 70.3399 40.2119 70.6134 40.0528 70.7995C40.0115 70.8479 39.9606 70.8898 39.9026 70.9239ZM30.8377 79.5957C30.5528 79.4371 30.4511 79.0769 30.6103 78.7927C30.9358 78.2098 31.2912 77.633 31.6652 77.0783C31.8465 76.8072 32.2145 76.7372 32.485 76.9197C32.7549 77.1022 32.8261 77.469 32.6436 77.7395C32.2876 78.2667 31.9501 78.8142 31.6407 79.3683C31.621 79.4036 31.5982 79.4359 31.5725 79.4658C31.3936 79.6741 31.0866 79.7351 30.8371 79.5957H30.8377ZM35.891 73.9212C35.4291 74.3556 34.9797 74.8158 34.5548 75.2885C34.337 75.5315 33.9642 75.5518 33.7213 75.334C33.4819 75.1192 33.4586 74.753 33.6674 74.51C33.6704 74.507 33.6728 74.5035 33.6758 74.5005C34.1222 74.002 34.5955 73.5179 35.082 73.0607C35.3196 72.8376 35.6935 72.8489 35.9167 73.0865C36.1256 73.3085 36.1292 73.649 35.9347 73.8751C35.9209 73.8907 35.9066 73.9063 35.891 73.9212Z" fill="url(#paint26_linear_564_318)"/>
<path d="M28.7923 88.2776C28.8683 88.1897 28.9185 88.0784 28.9317 87.9539C28.9628 87.6511 29.0005 87.3441 29.0442 87.0408C29.0909 86.7182 28.8665 86.419 28.5439 86.3724C28.2214 86.3257 27.9216 86.5495 27.8756 86.8726C27.8295 87.1916 27.79 87.5147 27.7571 87.833C27.7236 88.1573 27.9599 88.4476 28.2836 88.4805C28.4835 88.5008 28.6702 88.4194 28.7923 88.2776Z" fill="url(#paint27_linear_564_318)"/>
</g>
<g opacity="0.3">
<path d="M34.091 105.477C34.2765 105.261 34.2837 104.936 34.0934 104.712C33.8972 104.479 33.7021 104.239 33.5142 103.997C33.3143 103.74 32.9433 103.693 32.686 103.893C32.4275 104.094 32.382 104.464 32.5819 104.721C32.78 104.975 32.9852 105.229 33.1917 105.473C33.4023 105.722 33.7745 105.753 34.0234 105.543C34.0479 105.522 34.0701 105.5 34.0904 105.476L34.091 105.477Z" fill="url(#paint28_linear_564_318)"/>
<path d="M68.2999 106.511C68.0755 106.747 67.7021 106.757 67.4652 106.533C67.2288 106.309 67.2192 105.936 67.443 105.698C67.8703 105.248 68.285 104.773 68.6805 104.28C68.8827 104.026 69.2561 103.985 69.5104 104.189C69.7648 104.393 69.8054 104.764 69.6014 105.019C69.4303 105.232 69.2555 105.442 69.079 105.648C68.8265 105.942 68.5644 106.232 68.2999 106.511ZM70.6306 102.581C70.3512 102.414 70.2608 102.051 70.4284 101.772C70.7503 101.235 71.0537 100.679 71.3289 100.119C71.4713 99.8264 71.8262 99.7055 72.1194 99.8497C72.412 99.9933 72.5323 100.347 72.3887 100.64C72.099 101.229 71.7801 101.815 71.4408 102.379C71.4235 102.408 71.4037 102.436 71.3822 102.46C71.1979 102.675 70.8813 102.732 70.6312 102.581H70.6306ZM65.9315 108.688C65.4187 109.098 64.8814 109.492 64.3338 109.859C64.0628 110.04 63.6966 109.968 63.5146 109.697C63.3333 109.426 63.4063 109.059 63.6768 108.878C64.1968 108.529 64.7072 108.155 65.1937 107.766C65.4486 107.562 65.8196 107.604 66.0237 107.858C66.2038 108.083 66.1924 108.4 66.0105 108.611C65.9872 108.638 65.9602 108.664 65.9309 108.687L65.9315 108.688ZM72.8602 98.036C72.5508 97.9337 72.3827 97.5998 72.485 97.2905C72.6813 96.6969 72.8542 96.0883 72.9996 95.4809C73.0756 95.1638 73.3939 94.9681 73.7111 95.0441C74.0282 95.1201 74.2239 95.4385 74.1479 95.7556C73.9947 96.3953 73.8128 97.0361 73.6064 97.6614C73.5812 97.7368 73.5429 97.8039 73.4939 97.8607C73.3425 98.0366 73.0948 98.1138 72.8608 98.0366L72.8602 98.036ZM61.5466 111.46C60.9566 111.747 60.3456 112.012 59.7311 112.25C59.4271 112.367 59.0854 112.217 58.9675 111.913C58.8497 111.609 59.001 111.266 59.3056 111.149C59.889 110.923 60.4695 110.671 61.0296 110.398C61.3228 110.256 61.6764 110.377 61.8188 110.67C61.9253 110.889 61.8846 111.141 61.7357 111.314C61.6848 111.373 61.6208 111.423 61.5466 111.459V111.46ZM56.6602 113.202C56.0199 113.353 55.3659 113.48 54.716 113.578C54.3935 113.626 54.0931 113.404 54.0446 113.082C53.9962 112.759 54.2182 112.458 54.5407 112.41C55.1582 112.318 55.78 112.197 56.3879 112.054C56.7051 111.978 57.0234 112.175 57.0982 112.492C57.1431 112.683 57.0898 112.875 56.9713 113.014C56.8929 113.105 56.7858 113.173 56.6602 113.203V113.202ZM51.5099 113.839C50.8517 113.847 50.1851 113.828 49.5304 113.782C49.2049 113.759 48.9602 113.477 48.9829 113.152C49.0057 112.826 49.2881 112.582 49.613 112.604C50.2353 112.649 50.8684 112.666 51.4943 112.658C51.8204 112.654 52.0879 112.915 52.0921 113.24C52.0939 113.39 52.0401 113.528 51.9497 113.633C51.8432 113.757 51.6858 113.836 51.5099 113.839ZM46.3435 113.337C45.699 113.201 45.0533 113.036 44.4232 112.847C44.1109 112.753 43.9338 112.424 44.0277 112.112C44.1217 111.8 44.4508 111.623 44.7631 111.716C45.3609 111.896 45.9742 112.052 46.5864 112.181C46.9053 112.248 47.1094 112.561 47.0424 112.88C47.0214 112.981 46.9753 113.07 46.9125 113.143C46.7767 113.301 46.5613 113.382 46.3429 113.336L46.3435 113.337ZM41.411 111.711C40.8138 111.437 40.2208 111.135 39.6476 110.811C39.3633 110.651 39.2634 110.29 39.4238 110.007C39.5835 109.724 39.9438 109.623 40.228 109.783C40.7725 110.09 41.3362 110.378 41.9035 110.638C42.1997 110.774 42.3301 111.124 42.1943 111.421C42.1703 111.472 42.1404 111.519 42.1051 111.56C41.9382 111.755 41.6563 111.824 41.4116 111.711L41.411 111.711ZM36.9608 109.044C36.5755 108.752 36.1937 108.444 35.8275 108.129C35.6946 108.015 35.5636 107.9 35.4343 107.784C35.192 107.566 35.1645 107.191 35.3895 106.95C35.6073 106.707 35.9807 106.687 36.223 106.905C36.3463 107.016 36.4707 107.125 36.597 107.234C36.9453 107.533 37.3079 107.826 37.6741 108.104C37.9338 108.301 37.9846 108.671 37.7878 108.931C37.7806 108.94 37.7728 108.95 37.765 108.96C37.5634 109.194 37.2109 109.234 36.9608 109.044Z" fill="url(#paint29_linear_564_318)"/>
<path d="M74.5411 92.8941C74.6177 92.805 74.6685 92.6925 74.6805 92.5674C74.7116 92.2491 74.7368 91.9248 74.7547 91.6022C74.7733 91.2767 74.5237 90.9979 74.1982 90.9799C73.8727 90.962 73.5938 91.2103 73.5759 91.5364C73.5585 91.8428 73.5352 92.151 73.5053 92.4531C73.4736 92.7775 73.7105 93.0665 74.0355 93.0982C74.2341 93.1173 74.4196 93.036 74.5411 92.8953V92.8941Z" fill="url(#paint30_linear_564_318)"/>
</g>
<path d="M68.1227 85.0697C68.1018 84.9536 68.0103 84.8639 67.8942 84.8453L64.5767 84.3247C63.9568 82.8844 63.1029 81.5327 62.0246 80.3317L62.9425 77.104C62.9749 76.9909 62.9318 76.8695 62.8348 76.8024L59.5312 74.4981C59.4348 74.4305 59.3062 74.4323 59.211 74.5011L56.4986 76.4775C54.999 75.8803 53.4354 75.5458 51.8695 75.4621L50.2347 72.5288C50.1772 72.4259 50.0612 72.3708 49.9451 72.3918L45.9796 73.0985C45.8635 73.1194 45.7738 73.211 45.7552 73.327L45.2346 76.6445C43.7943 77.2644 42.442 78.1183 41.2416 79.1966L38.0139 78.2787C37.9008 78.2463 37.7794 78.2894 37.7123 78.3864L35.408 81.69C35.3409 81.7864 35.3421 81.915 35.4116 82.0102L37.388 84.7226C36.7908 86.2222 36.4563 87.7858 36.3726 89.3517L33.4393 90.9865C33.3364 91.044 33.2813 91.16 33.3023 91.2761L34.0089 95.2416C34.0293 95.3577 34.1214 95.4475 34.2375 95.466L37.555 95.9866C38.1749 97.4269 39.0288 98.7786 40.1071 99.9796L39.1897 103.207C39.1574 103.32 39.2005 103.442 39.2975 103.509L42.6011 105.813C42.6975 105.881 42.8261 105.879 42.9213 105.81L45.6337 103.833C47.1333 104.43 48.6968 104.765 50.2628 104.849L51.8976 107.782C51.955 107.885 52.0711 107.94 52.1872 107.919L56.1527 107.212C56.2688 107.191 56.3585 107.1 56.3771 106.984L56.8977 103.666C58.338 103.046 59.6897 102.192 60.8907 101.114L64.1184 102.031C64.2315 102.064 64.3529 102.021 64.42 101.924L66.7243 98.6201C66.7913 98.5237 66.7902 98.3951 66.7207 98.2999L64.7443 95.5881C65.3415 94.0885 65.676 92.5249 65.7597 90.959L68.693 89.3242C68.7959 89.2668 68.851 89.1507 68.83 89.0346L68.1233 85.0691L68.1227 85.0697Z" fill="#42876F"/>
<path opacity="0.56" d="M53.718 93.2137C52.0317 94.6761 49.4695 94.4948 48.0064 92.808C47.2979 91.9912 46.9497 90.947 47.0263 89.8681C47.1029 88.7898 47.5947 87.8049 48.4121 87.0964C50.0984 85.634 52.6606 85.8153 54.1237 87.5021C55.4545 89.0364 55.424 91.2953 54.1375 92.7918C54.01 92.9402 53.87 93.0814 53.718 93.2131V93.2137ZM47.9687 89.9351C47.9101 90.7621 48.177 91.5627 48.7203 92.1892C49.8417 93.4823 51.8062 93.6218 53.0993 92.5004C54.393 91.379 54.5318 89.4145 53.4104 88.1214C52.289 86.8283 50.3246 86.6889 49.0315 87.8103C48.9142 87.912 48.8059 88.0209 48.7065 88.1364C48.2751 88.6384 48.0166 89.2631 47.9687 89.9351Z" fill="white"/>
<path opacity="0.56" d="M58.5182 96.6669C58.739 96.4096 58.9484 96.1404 59.1453 95.8585C59.2069 95.77 59.2674 95.6802 59.3266 95.5893C59.6174 95.1423 59.8724 94.6725 60.0872 94.1878C60.0902 94.1813 60.0932 94.1747 60.0961 94.1681C60.1045 94.1495 60.1123 94.1304 60.1207 94.1118C60.1368 94.0753 60.1524 94.0382 60.1674 94.0017C60.208 93.9048 60.1793 93.7965 60.1039 93.7313C60.0854 93.7157 60.0644 93.7026 60.0411 93.6924C59.9208 93.6421 59.7826 93.699 59.7323 93.8192C59.4732 94.438 59.1453 95.0334 58.7582 95.5881C56.8362 98.3448 53.7036 99.7648 50.5717 99.6349C48.8298 99.5625 47.0879 99.0108 45.5554 97.9415C45.2868 97.7542 45.0295 97.5543 44.7841 97.3437C43.1344 95.9255 42.0316 93.9988 41.6444 91.8278C41.1998 89.3344 41.7533 86.8164 43.202 84.7388C46.1951 80.4484 52.1161 79.3946 56.4047 82.3859C56.6692 82.5702 56.9235 82.7677 57.1659 82.9765C58.2184 83.8813 59.0609 85.0063 59.6294 86.2742C59.6444 86.3071 59.6653 86.3347 59.691 86.3568C59.7581 86.4143 59.8556 86.4322 59.9418 86.3933C60.0608 86.3395 60.1141 86.2006 60.0602 86.081C59.4631 84.7502 58.5786 83.5689 57.4734 82.6187C57.2185 82.3997 56.9516 82.1927 56.6746 81.9988C52.1718 78.8585 45.9534 79.9679 42.8143 84.4689C41.2932 86.65 40.7121 89.2931 41.1789 91.911C41.5852 94.1902 42.7424 96.2128 44.4748 97.7021C44.7321 97.9235 45.0025 98.133 45.2844 98.3298C47.4655 99.8509 50.1085 100.432 52.7265 99.9652C55.0063 99.5589 57.0288 98.4005 58.5182 96.6681V96.6669Z" fill="white"/>
<g opacity="0.3">
<path d="M93.3293 69.7493C93.4322 69.6296 93.449 69.4525 93.3586 69.3131C93.1905 69.0534 93.0115 68.7955 92.8278 68.546C92.7082 68.3838 92.4802 68.3497 92.318 68.4688C92.1553 68.5878 92.1217 68.8164 92.2408 68.9786C92.4162 69.2162 92.5861 69.4621 92.7471 69.7098C92.8566 69.8786 93.0822 69.9264 93.2515 69.8175C93.2814 69.7978 93.3077 69.775 93.3299 69.7487L93.3293 69.7493Z" fill="url(#paint31_linear_564_318)"/>
<path d="M91.5681 67.5736C91.4221 67.7118 91.1911 67.7058 91.0529 67.5598C90.7029 67.1912 90.3301 66.8364 89.9447 66.5049C89.8633 66.4349 89.7808 66.366 89.6976 66.2972C89.5426 66.1692 89.5199 65.9394 89.6479 65.7838C89.7748 65.6414 90.0057 65.6061 90.1613 65.7342C90.2487 65.806 90.3349 65.8784 90.4198 65.9514C90.8237 66.2984 91.2145 66.6706 91.5813 67.0572C91.7111 67.1936 91.7141 67.4054 91.5939 67.5455C91.5861 67.555 91.5771 67.564 91.5681 67.5724V67.5736ZM88.1992 65.2094C87.6792 64.8785 87.1347 64.5763 86.58 64.3124C86.3981 64.2256 86.3209 64.0084 86.4077 63.8265C86.4938 63.6458 86.7117 63.5674 86.8936 63.6542C87.4752 63.9306 88.0466 64.2472 88.5912 64.5942C88.7611 64.7025 88.8108 64.9275 88.7031 65.0981C88.6935 65.113 88.6827 65.1268 88.6714 65.14C88.5553 65.2752 88.3542 65.3081 88.1992 65.2094ZM84.8615 63.6231C84.2774 63.4298 83.6749 63.2712 83.0711 63.1515C82.8736 63.1126 82.745 62.9206 82.7845 62.7231C82.824 62.525 83.0148 62.397 83.2129 62.4359C83.8466 62.5609 84.4785 62.7279 85.0906 62.9301C85.2815 62.9936 85.3856 63.1994 85.3222 63.3909C85.3066 63.4376 85.2827 63.4788 85.2528 63.5142C85.1594 63.6231 85.0063 63.6703 84.8615 63.6231ZM81.2358 62.905C80.6213 62.8607 79.9984 62.8541 79.3851 62.8864C79.184 62.8966 79.0123 62.7422 79.0021 62.5412C78.9919 62.3407 79.1463 62.169 79.3474 62.1582C79.9912 62.1247 80.644 62.1319 81.2885 62.178C81.4896 62.1923 81.6404 62.367 81.626 62.5681C81.62 62.6489 81.5883 62.7219 81.5392 62.7793C81.4662 62.8637 81.3561 62.914 81.2364 62.9056L81.2358 62.905ZM77.5444 63.0941C76.9377 63.2006 76.3321 63.346 75.7445 63.5255C75.5524 63.5842 75.3484 63.4758 75.2891 63.2832C75.2305 63.0905 75.3382 62.8864 75.5315 62.8278C76.1478 62.6393 76.7827 62.4873 77.4182 62.3754C77.6162 62.3407 77.8053 62.473 77.8406 62.6716C77.8604 62.7835 77.8269 62.893 77.758 62.9726C77.7048 63.0342 77.6312 63.0785 77.545 63.0941H77.5444ZM74.011 64.1736C73.4491 64.4243 72.898 64.7121 72.372 65.0299C72.1997 65.134 71.9753 65.0789 71.8718 64.9066C71.7676 64.7342 71.8227 64.5111 71.995 64.4057C72.5461 64.0724 73.1248 63.7703 73.7142 63.5076C73.8979 63.4256 74.1139 63.5082 74.1959 63.6919C74.2551 63.8247 74.2282 63.9749 74.1396 64.0784C74.1055 64.1179 74.0624 64.1508 74.0116 64.1736H74.011ZM70.8503 66.0836C70.3686 66.463 69.9043 66.8783 69.4704 67.3175C69.3286 67.4605 69.0983 67.4617 68.9546 67.3205C68.8116 67.1792 68.8122 66.9507 68.9517 66.8047C69.407 66.3445 69.8935 65.9095 70.3985 65.511C70.5565 65.3865 70.7863 65.4134 70.9108 65.5714C71.0203 65.7102 71.0125 65.9047 70.9012 66.0345C70.8862 66.0519 70.8689 66.0686 70.8503 66.0836ZM66.7143 70.3734C66.5408 70.2711 66.4839 70.0473 66.5862 69.8744C66.8699 69.3945 67.1852 68.9223 67.5215 68.4712C67.5724 68.4023 67.6238 68.3347 67.6759 68.2671C67.7938 68.1049 68.0277 68.078 68.1875 68.2019C68.3467 68.3251 68.376 68.5537 68.2527 68.7135C68.2037 68.7763 68.1552 68.8404 68.1067 68.9062C67.7848 69.3376 67.4844 69.7882 67.2133 70.246C67.202 70.2651 67.1894 70.2825 67.1757 70.298C67.0626 70.4297 66.8681 70.465 66.7137 70.374L66.7143 70.3734Z" fill="url(#paint32_linear_564_318)"/>
</g>
<g opacity="0.3">
<path d="M91.9428 88.3147C91.5221 88.791 91.0692 89.2458 90.5958 89.6671C90.4456 89.8005 90.2147 89.7873 90.0812 89.6365C89.9472 89.4857 89.9633 89.256 90.1117 89.1219C90.5629 88.7204 90.9956 88.2866 91.3965 87.8318C91.5293 87.681 91.7603 87.6667 91.9111 87.7995C92.0607 87.9317 92.0762 88.1597 91.9464 88.3105C91.9464 88.3105 91.944 88.3129 91.9434 88.3141L91.9428 88.3147ZM92.6106 86.9025C92.4448 86.7882 92.403 86.5614 92.5172 86.3957C92.8607 85.8966 93.1773 85.3719 93.4585 84.8357C93.5518 84.6586 93.772 84.5886 93.951 84.6825C94.1293 84.7759 94.1981 84.9961 94.1048 85.1744C93.8103 85.7363 93.4782 86.2862 93.118 86.8092C93.1102 86.82 93.1025 86.8307 93.0941 86.8403C92.9744 86.9797 92.7662 87.009 92.6112 86.9025H92.6106ZM89.0933 90.8465C88.5697 91.2073 88.0204 91.5394 87.4591 91.8332C87.2808 91.9265 87.06 91.8577 86.9666 91.6794C86.8727 91.5011 86.9421 91.2815 87.1204 91.1869C87.656 90.9069 88.1802 90.5898 88.6798 90.2457C88.8456 90.1314 89.0729 90.1733 89.1866 90.3384C89.283 90.4779 89.2686 90.6604 89.1633 90.783C89.1436 90.8064 89.1202 90.8273 89.0933 90.8459V90.8465ZM94.4159 83.6443C94.2274 83.5737 94.1323 83.3631 94.2035 83.1746C94.4171 82.6079 94.5972 82.0221 94.7402 81.4339C94.7881 81.2388 94.985 81.1186 95.18 81.1652C95.3757 81.2125 95.496 81.41 95.4487 81.6056C95.2991 82.2226 95.11 82.8365 94.8856 83.4313C94.8701 83.4726 94.8479 83.5091 94.821 83.5402C94.7241 83.6533 94.5631 83.6994 94.4159 83.6437V83.6443ZM85.7178 92.6141C85.1242 92.8379 84.5109 93.0282 83.8945 93.179C83.6989 93.2268 83.5014 93.1072 83.4535 92.9115C83.4057 92.7158 83.5253 92.5183 83.721 92.4705C84.3092 92.3269 84.8938 92.1456 85.4599 91.9319C85.6484 91.8607 85.8584 91.9559 85.9296 92.1444C85.9787 92.2736 85.9488 92.413 85.865 92.5112C85.8267 92.556 85.7765 92.592 85.7178 92.6147V92.6141ZM82.0162 93.52C81.3849 93.5954 80.7441 93.6331 80.1104 93.6325C79.9093 93.6325 79.746 93.4692 79.7466 93.2675C79.7466 93.0665 79.9099 92.9031 80.1116 92.9031C80.7159 92.9037 81.3275 92.8678 81.9301 92.7954C82.1299 92.7715 82.3112 92.9145 82.3352 93.1143C82.3477 93.2197 82.3136 93.3208 82.2496 93.3956C82.1921 93.462 82.1108 93.5087 82.0162 93.52ZM78.2039 93.5141C77.5726 93.4363 76.9407 93.319 76.3256 93.1658C76.1299 93.1167 76.0114 92.9193 76.0599 92.7236C76.1084 92.5285 76.3065 92.4094 76.5015 92.4579C77.0879 92.6045 77.6905 92.7164 78.2925 92.79C78.4923 92.8146 78.6348 92.9965 78.6096 93.1963C78.6007 93.2705 78.5695 93.3363 78.5247 93.389C78.4481 93.4782 78.329 93.529 78.2033 93.5135L78.2039 93.5141Z" fill="url(#paint33_linear_564_318)"/>
<path d="M95.7017 79.9038C95.7478 79.8506 95.7783 79.7836 95.7873 79.7082C95.8232 79.3982 95.8501 79.0859 95.8675 78.7795C95.8789 78.5784 95.7251 78.4061 95.524 78.3947C95.3236 78.384 95.1512 78.5371 95.1393 78.7382C95.1231 79.0302 95.0974 79.3282 95.0633 79.6244C95.0399 79.8243 95.1836 80.0056 95.3834 80.0283C95.5085 80.0427 95.6258 79.9924 95.7017 79.9033V79.9038Z" fill="url(#paint34_linear_564_318)"/>
</g>
<path d="M91.4591 74.4101C91.4454 74.3323 91.3837 74.2725 91.306 74.2599L89.086 73.9117C88.6713 72.9477 88.0998 72.0429 87.3782 71.2399L87.9921 69.0797C88.0137 69.0037 87.9849 68.9229 87.9203 68.8781L85.7099 67.336C85.6453 67.2912 85.5591 67.2918 85.4957 67.3384L83.6808 68.6608C82.6773 68.2611 81.6313 68.0373 80.5829 67.9811L79.4891 66.0184C79.4508 65.9496 79.373 65.9125 79.2952 65.9262L76.642 66.399C76.5642 66.4127 76.5044 66.4744 76.4918 66.5521L76.1435 68.7722C75.1795 69.1868 74.2748 69.7583 73.4718 70.4799L71.3116 69.866C71.2356 69.8445 71.1548 69.8732 71.1099 69.9378L69.5679 72.1482C69.523 72.2129 69.5236 72.299 69.5703 72.3625L70.8927 74.1773C70.493 75.1808 70.2692 76.2268 70.213 77.2752L68.2503 78.369C68.1814 78.4073 68.1444 78.4851 68.1581 78.5629L68.6308 81.2161C68.6446 81.2939 68.7062 81.3537 68.784 81.3663L71.004 81.7146C71.4187 82.6786 71.9902 83.5833 72.7118 84.3864L72.0979 86.5465C72.0763 86.6225 72.105 86.7033 72.1697 86.7482L74.3801 88.2902C74.4447 88.3351 74.5309 88.3345 74.5943 88.2878L76.4092 86.9654C77.4127 87.3651 78.4587 87.5889 79.507 87.6451L80.6009 89.6078C80.6392 89.6767 80.717 89.7138 80.7948 89.7L83.448 89.2273C83.5258 89.2135 83.5856 89.1519 83.5982 89.0741L83.9464 86.8541C84.9104 86.4394 85.8152 85.8679 86.6182 85.1463L88.7784 85.7602C88.8544 85.7818 88.9352 85.7531 88.98 85.6884L90.5221 83.478C90.567 83.4134 90.5664 83.3272 90.5197 83.2638L89.1973 81.4489C89.597 80.4454 89.8208 79.3994 89.877 78.3511L91.8397 77.2572C91.9085 77.2189 91.9456 77.1411 91.9319 77.0633L91.4591 74.4101Z" fill="#308194"/>
<path opacity="0.56" d="M81.852 79.8967C81.2955 80.3796 80.584 80.6165 79.8492 80.5645C79.1144 80.5124 78.4442 80.1773 77.9613 79.6208C76.965 78.4719 77.0889 76.73 78.2378 75.7301C79.3867 74.7338 81.1321 74.8583 82.1278 76.0066C82.6107 76.5631 82.8477 77.274 82.7956 78.0088C82.7532 78.606 82.5234 79.1607 82.1404 79.6071C82.0524 79.7094 81.9561 79.8063 81.852 79.8967ZM78.5124 79.1427C78.8679 79.552 79.3609 79.7986 79.9013 79.8374C80.4416 79.8757 80.9646 79.701 81.3739 79.3462C81.7826 78.9907 82.0297 78.4977 82.068 77.9573C82.1063 77.417 81.9316 76.894 81.5767 76.4847C80.8437 75.6398 79.5602 75.5482 78.7153 76.2813C78.6393 76.3477 78.5693 76.4183 78.5052 76.4925C77.8608 77.2423 77.8452 78.3744 78.5118 79.1433L78.5124 79.1427Z" fill="white"/>
<path opacity="0.56" d="M85.1936 82.2998C85.3437 82.1251 85.4868 81.9408 85.6214 81.7481C85.8889 81.3645 86.1181 80.9534 86.3018 80.525C86.3101 80.5058 86.3179 80.4861 86.3263 80.467C86.3891 80.3174 86.3448 80.1498 86.2282 80.0499C86.2 80.0253 86.1671 80.005 86.1306 79.99C85.9451 79.9123 85.7321 80.0002 85.6537 80.1857C85.4856 80.5872 85.2731 80.9726 85.023 81.3304C85.0093 81.3502 84.9955 81.3699 84.9817 81.3891C84.3821 82.2316 83.5947 82.8928 82.6893 83.3344C82.198 83.5744 81.6709 83.7491 81.1198 83.8526C81.1156 83.8532 81.1108 83.8544 81.1066 83.855C81.0928 83.8574 81.0791 83.8604 81.0653 83.8622C79.4509 84.15 77.8209 83.7916 76.4763 82.8533C76.3022 82.7318 76.1358 82.6026 75.9767 82.4662C74.9085 81.5476 74.1947 80.3006 73.944 78.895C73.6561 77.2806 74.0146 75.6512 74.9528 74.306C75.8905 72.9626 77.2967 72.0621 78.9111 71.7742C80.5256 71.4864 82.1556 71.8449 83.5001 72.7825C83.6713 72.9016 83.8358 73.0297 83.9932 73.1643C84.6748 73.7501 85.2199 74.4783 85.5879 75.2987C85.6106 75.349 85.6435 75.3921 85.683 75.4262C85.7866 75.5153 85.9367 75.5423 86.0702 75.4824C86.2539 75.3992 86.3359 75.1844 86.2533 75.0001C85.8416 74.0822 85.2312 73.2672 84.4689 72.6114C84.293 72.46 84.1093 72.3176 83.9178 72.1835C82.4129 71.134 80.5896 70.7331 78.7831 71.055C76.9772 71.3769 75.404 72.3816 74.355 73.8877C73.3055 75.3927 72.9046 77.2153 73.2271 79.0219C73.5071 80.5944 74.306 81.9898 75.5009 83.0173C75.6781 83.1698 75.8648 83.3147 76.0592 83.4505C78.9728 85.482 82.9269 84.9363 85.1941 82.298L85.1936 82.2998Z" fill="white"/>
<path d="M161.36 184.067H158.101V219.308H161.36V184.067Z" fill="url(#paint35_linear_564_318)"/>
<path d="M174.001 219.987H145.459C145.459 218.815 146.409 217.866 147.581 217.866H171.879C173.051 217.866 174.001 218.815 174.001 219.987Z" fill="url(#paint36_linear_564_318)"/>
<path d="M145.856 176.172H174.732C176.666 176.172 178.236 177.742 178.236 179.676V182.844C178.236 184.778 176.666 186.348 174.732 186.348H145.856C143.922 186.348 142.352 184.778 142.352 182.844V179.676C142.352 177.742 143.922 176.172 145.856 176.172Z" fill="url(#paint37_linear_564_318)"/>
<path d="M135.673 160.571C135.673 160.571 130.831 161.321 125.387 164.96C124.53 165.533 124.06 166.532 124.189 167.554C124.84 172.718 127.521 189.431 136.36 205.755C136.826 206.616 136.96 207.618 136.754 208.575L135.219 215.721L132.371 218.391H139.706L144.59 205.174L142.502 204.513C140.882 204.001 139.772 202.512 139.742 200.814L139.497 186.637C139.706 180.32 135.624 175.962 135.624 175.962L147.338 175.393L135.674 160.569L135.673 160.571Z" fill="url(#paint38_linear_564_318)"/>
<path d="M129.507 219.681C128.84 220.555 136.697 221.709 140.667 219.796C140.667 219.796 146.17 210.221 146.17 205.292C146.17 205.292 145.733 204.287 142.502 204.515C142.502 204.515 140.654 215.852 138.703 217.121C136.752 218.391 133.245 217.25 133.245 217.25C133.245 217.25 130.493 218.391 129.508 219.681H129.507Z" fill="url(#paint39_linear_564_318)"/>
<path d="M145.856 176.172C145.794 176.064 133.244 174.663 133.244 174.663C133.244 174.663 133.655 178.478 132.371 183.731C131.088 188.984 112.662 211.741 112.662 211.741L114.594 217.866C108.62 219.946 102.745 220.279 96.9624 218.927L108.935 211.741C108.935 211.741 120.141 173.555 127.005 166.742L139.585 162.39L145.856 176.172H145.856Z" fill="url(#paint40_linear_564_318)"/>
<path d="M113.864 215.804C113.864 215.804 115.944 217.819 114.539 220.06C114.539 220.06 98.0616 222.981 93.5881 221.655C93.5881 221.655 94.5168 219.535 99.5546 217.122L99.183 217.407C98.7127 217.769 98.9885 218.521 99.5803 218.487C102.9 218.298 109.77 217.689 113.864 215.804Z" fill="url(#paint41_linear_564_318)"/>
<path d="M134.416 93.167C134.416 94.1699 143.441 131.273 143.441 131.273L169.154 138.835C174.113 140.293 179.437 138.281 182.191 133.907C189.033 123.039 185.764 108.682 174.892 101.848L171.25 99.5589C163.486 94.6791 156.784 88.2866 151.542 80.7631L150.171 78.7944L134.416 93.167H134.416Z" fill="url(#paint42_linear_564_318)"/>
<path d="M178.213 128.96C178.196 128.96 178.18 128.951 178.171 128.937C178.158 128.913 178.165 128.883 178.188 128.869C179.209 128.256 181.58 126.274 181.532 121.144C181.501 117.763 180.603 114.422 178.934 111.481C175.936 106.197 170.752 102.608 165.74 99.1358C165.393 98.8959 165.048 98.6565 164.703 98.4172C159.592 94.8616 153.947 90.5449 151.65 84.2972C151.641 84.272 151.654 84.2439 151.679 84.2349C151.704 84.2259 151.732 84.2385 151.742 84.2636C154.028 90.4844 159.66 94.7898 164.759 98.337C165.103 98.5764 165.448 98.8157 165.795 99.0557C170.817 102.533 176.009 106.13 179.018 111.433C180.695 114.388 181.598 117.746 181.629 121.143C181.677 126.324 179.273 128.331 178.238 128.953C178.23 128.958 178.221 128.96 178.213 128.96L178.213 128.96Z" fill="white"/>
<path d="M176.128 123.441C176.125 123.441 176.121 123.441 176.118 123.44C176.092 123.434 176.075 123.409 176.08 123.382C176.759 119.932 176.657 116.85 175.778 114.223C174.189 109.471 169.973 106.014 166.478 103.534C165.776 103.036 165.052 102.537 164.351 102.055C161.118 99.83 157.774 97.5292 155.35 94.3961C155.333 94.3745 155.337 94.344 155.359 94.3279C155.38 94.3105 155.411 94.3147 155.427 94.3362C157.843 97.4574 161.179 99.754 164.406 101.975C165.107 102.457 165.832 102.956 166.535 103.454C168.911 105.141 170.68 106.633 172.101 108.15C173.932 110.105 175.165 112.081 175.871 114.193C176.755 116.837 176.858 119.934 176.176 123.401C176.171 123.425 176.151 123.441 176.128 123.441Z" fill="white"/>
<path d="M157.647 154.96C157.647 154.96 139.245 134.682 135.1 129.372C132.86 126.502 132.156 122.723 133.193 119.232C135.085 112.857 138.448 106.254 138.755 105.226C139.225 103.651 148.666 103.716 148.666 103.716C148.666 103.716 167.244 115.774 174.543 136.198L166.345 138.75C166.345 138.75 161.494 130.612 156.701 125.438C156.701 125.438 173.354 150.865 174.542 154.927L157.646 154.96H157.647Z" fill="url(#paint43_linear_564_318)"/>
<path d="M136.217 94.2602C136.316 94.5875 140.175 104.919 140.368 105.089C140.561 105.259 145.772 105.539 148.225 103.862L142.14 91.9612L136.217 94.2602Z" fill="url(#paint44_linear_564_318)"/>
<path d="M130.512 143.295L136.698 137.332L145.256 140.948C145.256 140.948 153.775 142.268 158.65 140.948L163.525 139.628L174.543 136.198L176.273 141.088C176.712 142.33 176.271 143.708 175.197 144.471C174.244 145.148 173.127 145.892 172.415 146.203C170.964 146.838 136.649 145.764 136.649 145.764L130.512 143.294V143.295Z" fill="url(#paint45_linear_564_318)"/>
<path d="M137.219 77.1722C137.219 77.1722 132.755 79.3629 130.021 86.1474C127.287 92.9318 129.783 95.8513 132.723 96.1045C135.663 96.3576 140.021 96.0464 144.393 91.5155C148.764 86.9851 143.033 74.5459 137.219 77.1722Z" fill="url(#paint46_linear_564_318)"/>
<path d="M141.091 88.1639C141.091 88.1639 143.992 78.3002 135.414 78.6724L133.477 80.1964C133.477 80.1964 130.028 75.015 135.044 72.1632C140.061 69.3113 147.892 71.1519 150.484 77.9818C153.075 84.8112 152.044 89.375 148.579 92.9097C145.114 96.4443 143.393 92.7571 143.393 92.7571C143.393 92.7571 145.207 89.5318 144.302 87.9132C143.398 86.294 141.643 88.4098 141.643 88.4098L141.091 88.1633V88.1639Z" fill="url(#paint47_linear_564_318)"/>
<path d="M141.121 88.7916C141.121 88.7916 145.115 84.5437 146.577 87.5901C148.038 90.6364 142.605 91.3886 140.557 91.5047L141.121 88.7922V88.7916Z" fill="url(#paint48_linear_564_318)"/>
<path d="M181.824 169.612C181.512 167.027 179.356 162.819 177.387 159.415L170.825 147.878C164.491 149.769 157.445 151.211 154.422 151.081C154.163 151.069 154.028 151.383 154.212 151.565L157.646 154.96L158.1 154.927C151.279 155.42 144.52 156.036 143.003 156.625C139.728 157.896 127.131 162.391 127.131 162.391L144.417 177.164C144.417 177.164 164.671 177.169 172.257 176.841C179.844 176.512 182.417 174.518 181.824 169.613L181.824 169.612Z" fill="url(#paint49_linear_564_318)"/>
<path d="M126.76 143.015H146.748C147.074 143.015 147.338 142.751 147.338 142.425V122.437C147.338 122.111 147.074 121.846 146.748 121.846H126.76C126.434 121.846 126.169 122.111 126.169 122.437V142.425C126.169 142.751 126.434 143.015 126.76 143.015Z" fill="url(#paint50_linear_564_318)"/>
<path d="M20.3503 13.2063H23.1107C23.584 13.2063 24.0262 13.174 24.4385 13.1094C24.8502 13.0453 25.2098 12.9322 25.5162 12.7713C25.8225 12.6103 26.0637 12.4009 26.239 12.143C26.4137 11.8857 26.5017 11.5631 26.5017 11.176C26.5017 10.6285 26.2653 10.2174 25.792 9.94332C25.3187 9.66926 24.6527 9.53223 23.794 9.53223C22.83 9.53223 21.9887 9.63336 21.27 9.83441C20.5514 10.0361 19.8674 10.3059 19.2194 10.644L17.9047 7.67126C18.6054 7.26855 19.4515 6.94243 20.4419 6.69231C21.4316 6.44278 22.5584 6.31772 23.8203 6.31772C24.8017 6.31772 25.713 6.41884 26.5544 6.6199C27.3957 6.82156 28.1227 7.11955 28.7367 7.51389C29.35 7.90882 29.8275 8.40787 30.1698 9.01224C30.5115 9.6166 30.6826 10.3215 30.6826 11.1269C30.6826 11.7397 30.5025 12.3476 30.1435 12.9514C29.7838 13.5558 29.2363 14.0674 28.5003 14.4862C28.903 14.6795 29.2848 14.9057 29.6438 15.163C30.0028 15.4209 30.3182 15.7189 30.5904 16.057C30.8621 16.3951 31.0769 16.778 31.2343 17.2053C31.3923 17.6325 31.4707 18.1118 31.4707 18.6432C31.4707 20.4318 30.7825 21.7333 29.4068 22.5465C28.0306 23.3603 26.1157 23.7672 23.6624 23.7672C23.0484 23.7672 22.4399 23.7265 21.8349 23.6463C21.2299 23.5655 20.6519 23.465 20.0996 23.3441C19.5473 23.2232 19.0303 23.0826 18.5486 22.921C18.0663 22.7601 17.6414 22.5907 17.2734 22.4136L18.4828 19.4648C18.7281 19.5617 19.0303 19.67 19.3899 19.7909C19.7489 19.9118 20.1481 20.0291 20.5861 20.1416C21.0241 20.2547 21.4801 20.351 21.9534 20.4318C22.4267 20.5126 22.9 20.5526 23.3733 20.5526C24.53 20.5526 25.4635 20.3995 26.1732 20.0937C26.8829 19.7879 27.2377 19.256 27.2377 18.4984C27.2377 18.0311 27.1234 17.6523 26.896 17.3627C26.668 17.0725 26.3569 16.8516 25.9626 16.6979C25.5682 16.5447 25.1039 16.4406 24.5689 16.3837C24.034 16.3275 23.4517 16.2993 22.8204 16.2993H20.3491V13.2057L20.3503 13.2063Z" fill="#114F3D"/>
<path d="M46.7176 23.4297C46.5147 22.8475 46.2969 22.2497 46.0636 21.6369C45.8302 21.0242 45.5974 20.4126 45.3665 19.8047H38.2505C38.0207 20.4156 37.7897 21.0278 37.5588 21.6417C37.3272 22.2557 37.1124 22.8522 36.9131 23.4297H32.6538C33.3396 21.6256 33.99 19.9579 34.6051 18.4266C35.2203 16.8959 35.8222 15.4538 36.4117 14.1003C37.0011 12.7468 37.5809 11.462 38.1523 10.2455C38.7238 9.02901 39.3174 7.84062 39.9325 6.68036H43.8202C44.4186 7.84062 45.0086 9.02901 45.5896 10.2455C46.1707 11.462 46.7565 12.7468 47.3459 14.1003C47.9359 15.4538 48.5391 16.8959 49.1548 18.4266C49.7711 19.9573 50.4228 21.625 51.1091 23.4297H46.7164H46.7176ZM41.7899 10.4753C41.6984 10.7182 41.5643 11.0497 41.3884 11.468C41.2119 11.8869 41.0114 12.3704 40.7864 12.9191C40.5614 13.4678 40.3095 14.0722 40.0313 14.7316C39.753 15.3916 39.4706 16.0833 39.1834 16.8074H44.3935C44.1146 16.081 43.8448 15.3868 43.5833 14.7256C43.3218 14.0644 43.0734 13.4588 42.8383 12.9095C42.6031 12.3608 42.3967 11.8773 42.219 11.459C42.0412 11.0408 41.8982 10.7135 41.7893 10.4753H41.7899Z" fill="#114F3D"/>
<path d="M68.4359 6.68094V23.4303H64.3345V9.87152H57.5513V23.4303H53.45V6.68094H68.4359Z" fill="#114F3D"/>
<path d="M82.3386 18.5235C81.8306 19.5869 81.2962 20.4611 80.7355 21.1457C80.1748 21.8308 79.5968 22.3664 79.0014 22.7529C78.406 23.1395 77.801 23.4057 77.1883 23.5506C76.575 23.6954 75.9532 23.7684 75.3225 23.7684C74.7272 23.7684 74.109 23.7157 73.47 23.611C72.8303 23.5063 72.2301 23.3573 71.67 23.164L72.406 20.1428C73.2713 20.433 74.1276 20.5778 74.9755 20.5778C75.5224 20.5778 76.0478 20.4653 76.551 20.2397C77.0543 20.0141 77.536 19.5306 77.9949 18.7898C77.2721 17.7588 76.5797 16.6991 75.9185 15.6118C75.2573 14.5246 74.6314 13.4528 74.0408 12.3973C73.4502 11.3424 72.9033 10.3269 72.4006 9.35213C71.898 8.37737 71.4528 7.48757 71.0645 6.68155H75.6128C75.894 7.30985 76.2058 7.98303 76.5492 8.69989C76.8921 9.41676 77.2565 10.1582 77.6437 10.9235C78.0302 11.6888 78.4216 12.4541 78.8171 13.2195C79.2126 13.9848 79.595 14.7298 79.9642 15.455C80.5273 14.0375 81.0628 12.587 81.5733 11.1048C82.0831 9.6226 82.5755 8.14818 83.0507 6.68215H87.444C86.9856 7.92319 86.5356 9.08346 86.0952 10.1623C85.6542 11.2418 85.2216 12.2651 84.7985 13.232C84.3755 14.199 83.9566 15.117 83.5425 15.9876C83.1279 16.8576 82.7269 17.7038 82.3392 18.5253L82.3386 18.5235Z" fill="#114F3D"/>
<path d="M97.5395 23.7684C94.5775 23.7684 92.321 23.0114 90.7694 21.4963C89.2184 19.9818 88.4429 17.8312 88.4429 15.0433C88.4429 13.6575 88.6792 12.4212 89.1526 11.3334C89.6259 10.2455 90.2739 9.32759 91.0979 8.57782C91.9213 7.82864 92.9032 7.26078 94.0425 6.87363C95.1819 6.48707 96.4175 6.29379 97.7495 6.29379C98.5208 6.29379 99.2215 6.34645 99.8528 6.45117C100.484 6.55588 101.036 6.67676 101.509 6.81379C101.982 6.95082 102.377 7.09144 102.692 7.23684C103.008 7.38165 103.235 7.49475 103.376 7.57493L102.193 10.6201C101.631 10.346 100.978 10.1127 100.234 9.91939C99.489 9.72612 98.6435 9.62918 97.6969 9.62918C97.0662 9.62918 96.448 9.72612 95.8431 9.91939C95.2381 10.1127 94.7037 10.4232 94.2394 10.8499C93.7751 11.2771 93.4023 11.8288 93.1222 12.5056C92.8416 13.1824 92.7016 14.004 92.7016 14.9709C92.7016 15.7447 92.7937 16.4657 92.9774 17.1341C93.1617 17.8031 93.4591 18.3787 93.8714 18.8622C94.2831 19.3457 94.8222 19.7287 95.4882 20.0105C96.1542 20.2924 96.9602 20.4336 97.9069 20.4336C98.5023 20.4336 99.0372 20.4013 99.5106 20.3366C99.9839 20.2726 100.405 20.196 100.773 20.1069C101.141 20.0183 101.465 19.9178 101.746 19.8047C102.026 19.6922 102.28 19.5869 102.508 19.4905L103.638 22.5118C103.06 22.8343 102.245 23.1245 101.193 23.3818C100.142 23.6391 98.9229 23.7684 97.5389 23.7684H97.5395Z" fill="#114F3D"/>
<path d="M117.009 23.4297C116.64 22.8845 116.205 22.2957 115.703 21.6626C115.202 21.0296 114.662 20.3917 114.083 19.7484C113.505 19.1058 112.899 18.4888 112.267 17.8994C111.634 17.3094 111.002 16.7882 110.37 16.3358V23.4297H106.269V6.68094H110.37V12.9759C111.424 11.9581 112.496 10.893 113.584 9.78116C114.672 8.66996 115.676 7.63656 116.598 6.68094H121.465C120.225 8.03867 118.978 9.34374 117.723 10.5962C116.469 11.8492 115.148 13.11 113.762 14.3785C115.22 15.4963 116.626 16.8217 117.98 18.356C119.334 19.8902 120.635 21.5813 121.886 23.4297H117.01H117.009Z" fill="#114F3D"/>
<path d="M136.029 6.48767C138.745 6.48767 140.831 6.92688 142.286 7.80471C143.741 8.68314 144.468 10.1211 144.468 12.1191C144.468 14.1171 143.732 15.5873 142.26 16.4813C140.788 17.3752 138.684 17.8228 135.95 17.8228H134.661V23.4303H130.56V6.9227C131.454 6.76173 132.4 6.64864 133.399 6.58461C134.399 6.52058 135.275 6.48767 136.029 6.48767ZM136.291 9.70218C135.993 9.70218 135.7 9.71056 135.411 9.72612C135.122 9.74227 134.871 9.75843 134.661 9.77459V14.6083H135.95C137.37 14.6083 138.438 14.4312 139.157 14.0764C139.876 13.7221 140.235 13.0615 140.235 12.0945C140.235 11.6272 140.143 11.2406 139.959 10.9343C139.775 10.6285 139.512 10.3825 139.17 10.197C138.829 10.0121 138.412 9.88289 137.921 9.81049C137.431 9.73809 136.887 9.70158 136.291 9.70158V9.70218Z" fill="#114F3D"/>
<path d="M147.491 23.4297V6.68094H159.795V9.84698H151.593V13.1339H158.875V16.2275H151.593V20.2636H160.4V23.4297H147.491Z" fill="#114F3D"/>
<path d="M166.473 11.611C166.473 12.2716 166.56 12.8072 166.736 13.2183C166.91 13.6294 167.161 13.9555 167.485 14.1972C167.809 14.439 168.199 14.6041 168.655 14.6927C169.11 14.7812 169.61 14.8255 170.153 14.8255C170.574 14.8255 171.025 14.8094 171.507 14.7771C171.989 14.7447 172.484 14.6969 172.992 14.6322V6.68094H177.094V23.4303H172.992V17.8228C172.396 17.8875 171.818 17.9359 171.257 17.9676C170.696 17.9999 170.161 18.0161 169.653 18.0161C168.549 18.0161 167.546 17.9234 166.643 17.7385C165.74 17.5536 164.973 17.2232 164.343 16.7475C163.712 16.2724 163.226 15.6357 162.884 14.8381C162.542 14.0404 162.371 13.0298 162.371 11.8049V6.68094H166.472V11.6116L166.473 11.611Z" fill="#114F3D"/>
<path d="M181.301 23.4297V6.68094H185.376V16.5662C186.007 15.6962 186.682 14.7896 187.4 13.8472C188.119 12.9047 188.842 11.9946 189.569 11.1162C190.297 10.2383 191.011 9.41196 191.712 8.63885C192.413 7.86574 193.053 7.2129 193.631 6.68094H196.97V23.4303H192.922V12.4577C191.379 14.1176 189.924 15.8817 188.558 17.751C187.19 19.6204 185.919 21.5137 184.745 23.4309H181.301V23.4297Z" fill="#114F3D"/>
<path d="M0.855713 49.2427H3.48501C4.13306 48.2117 4.64168 47.1885 5.00969 46.173C5.37769 45.1581 5.65355 44.1271 5.83785 43.0794C6.02215 42.0322 6.13584 40.9527 6.17952 39.8409C6.22321 38.7291 6.24535 37.5611 6.24535 36.3362V35.6833H18.2866V49.2421H21.4149V56.9038H17.4716V52.4327H4.79965V56.9038H0.855713V49.2421V49.2427ZM10.1103 38.8739C10.075 39.744 10.014 40.6386 9.926 41.5565C9.83804 42.475 9.70639 43.3815 9.53166 44.2755C9.35634 45.1695 9.12416 46.0402 8.83515 46.8857C8.54613 47.7312 8.18171 48.5169 7.74429 49.2421H14.2906V38.8733H10.1103V38.8739Z" fill="#114F3D"/>
<path d="M41.3962 44.0463C41.3962 45.4807 41.1634 46.7415 40.6997 47.8287C40.2353 48.9166 39.5999 49.8267 38.7938 50.5597C37.9872 51.2934 37.028 51.8451 35.915 52.2155C34.802 52.5859 33.6053 52.7714 32.3265 52.7714C31.0478 52.7714 29.9079 52.5859 28.8038 52.2155C27.6998 51.8451 26.7352 51.2934 25.9119 50.5597C25.0879 49.8267 24.4398 48.916 23.9665 47.8287C23.4932 46.7415 23.2568 45.4807 23.2568 44.0463C23.2568 42.612 23.5022 41.3512 23.9928 40.264C24.4835 39.1761 25.1453 38.2624 25.9777 37.521C26.81 36.7802 27.774 36.2243 28.8697 35.8533C29.9647 35.4829 31.1178 35.2974 32.3271 35.2974C33.5365 35.2974 34.7458 35.4829 35.8504 35.8533C36.9544 36.2243 37.9184 36.7802 38.7424 37.521C39.5658 38.2624 40.2144 39.1767 40.6877 40.264C41.161 41.3512 41.3974 42.6126 41.3974 44.0463H41.3962ZM27.4886 44.0463C27.4886 44.8679 27.5981 45.6093 27.8171 46.2699C28.0361 46.9306 28.3515 47.499 28.7638 47.9741C29.1754 48.4498 29.6793 48.8161 30.2753 49.074C30.8707 49.3319 31.5546 49.4605 32.3259 49.4605C33.0972 49.4605 33.7591 49.3319 34.3634 49.074C34.9684 48.8167 35.4764 48.4498 35.8881 47.9741C36.2998 47.499 36.6151 46.9312 36.8347 46.2699C37.0537 45.6093 37.1633 44.8679 37.1633 44.0463C37.1633 43.2248 37.0537 42.4798 36.8347 41.8108C36.6151 41.1424 36.2998 40.5703 35.8881 40.0946C35.4758 39.6195 34.9678 39.2527 34.3634 38.9948C33.7591 38.7375 33.0793 38.6082 32.3259 38.6082C31.5726 38.6082 30.8707 38.7411 30.2753 39.0068C29.6793 39.2724 29.1754 39.6434 28.7638 40.1186C28.3515 40.5943 28.0361 41.1663 27.8171 41.8347C27.5975 42.5037 27.4886 43.2409 27.4886 44.0463Z" fill="#114F3D"/>
<path d="M49.6515 35.6833C49.968 36.2153 50.3325 36.8717 50.7453 37.6532C51.1582 38.4347 51.5885 39.2808 52.0367 40.191C52.4848 41.1017 52.9282 42.0322 53.3681 42.9824C53.8073 43.9333 54.2202 44.8278 54.6073 45.665C54.9939 44.8272 55.4067 43.9333 55.8466 42.9824C56.2858 42.0322 56.7292 41.1011 57.1774 40.191C57.6256 39.2808 58.0558 38.4347 58.4693 37.6532C58.8822 36.8717 59.2472 36.2153 59.5631 35.6833H63.2964C63.4712 36.7951 63.6339 38.0398 63.7829 39.4173C63.9313 40.7947 64.063 42.2291 64.1772 43.7196C64.2909 45.2102 64.3963 46.7044 64.4926 48.2027C64.5889 49.7011 64.6721 51.1115 64.7421 52.4321H60.7461C60.6935 50.8051 60.6234 49.0327 60.5355 47.1149C60.4475 45.1976 60.3159 43.2643 60.1412 41.3141C59.8246 41.9909 59.4728 42.7401 59.0862 43.5617C58.699 44.3832 58.3167 45.2054 57.9391 46.027C57.5615 46.8486 57.1965 47.6342 56.8447 48.3834C56.4928 49.1326 56.1942 49.7729 55.9477 50.3048H53.082C52.8355 49.7729 52.5369 49.1326 52.1851 48.3834C51.8332 47.6342 51.4682 46.8486 51.09 46.027C50.7118 45.2054 50.3295 44.3832 49.9429 43.5617C49.5558 42.7401 49.2045 41.9909 48.888 41.3141C48.7126 43.2637 48.581 45.1976 48.4936 47.1149C48.4057 49.0327 48.3357 50.8051 48.2836 52.4321H44.2876C44.3576 51.1109 44.4408 49.7011 44.5371 48.2027C44.6335 46.7044 44.7382 45.2102 44.8525 43.7196C44.9662 42.2297 45.0978 40.7953 45.2468 39.4173C45.3952 38.0398 45.558 36.7951 45.7333 35.6833H49.6509H49.6515Z" fill="#114F3D"/>
<path d="M80.6195 52.4327C80.4166 51.8505 80.1988 51.2527 79.9654 50.6399C79.732 50.0272 79.4993 49.4156 79.2683 48.8077H72.1523C71.9226 49.4186 71.6916 50.0308 71.4606 50.6447C71.229 51.2587 71.0142 51.8552 70.8149 52.4327H66.5557C67.2414 50.6286 67.8919 48.9609 68.507 47.4296C69.1221 45.8989 69.7241 44.4568 70.3135 43.1033C70.9029 41.7498 71.4827 40.465 72.0542 39.2485C72.6257 38.032 73.2193 36.8436 73.8344 35.6833H77.7221C78.3205 36.8436 78.9105 38.032 79.4915 39.2485C80.0725 40.465 80.6583 41.7498 81.2478 43.1033C81.8378 44.4568 82.4409 45.8989 83.0567 47.4296C83.673 48.9603 84.3246 50.628 85.011 52.4327H80.6183H80.6195ZM75.6918 39.4783C75.6002 39.7212 75.4662 40.0527 75.2903 40.471C75.1137 40.8899 74.9133 41.3734 74.6883 41.9221C74.4633 42.4708 74.2114 43.0752 73.9331 43.7346C73.6549 44.3946 73.3724 45.0863 73.0852 45.8104H78.2953C78.0165 45.0839 77.7466 44.3898 77.4851 43.7286C77.2236 43.0674 76.9753 42.4618 76.7401 41.9125C76.505 41.3638 76.2985 40.8803 76.1208 40.462C75.9431 40.0438 75.8001 39.7164 75.6912 39.4783H75.6918Z" fill="#114F3D"/>
<path d="M101.969 52.7714C99.0072 52.7714 96.7507 52.0144 95.1991 50.4993C93.6481 48.9848 92.8726 46.8342 92.8726 44.0464C92.8726 42.6605 93.1089 41.4243 93.5822 40.3364C94.0556 39.2485 94.7036 38.3306 95.5276 37.5808C96.351 36.8317 97.3329 36.2638 98.4722 35.8766C99.6115 35.4901 100.847 35.2968 102.179 35.2968C102.951 35.2968 103.651 35.3495 104.283 35.4542C104.913 35.5589 105.466 35.6798 105.939 35.8168C106.412 35.9538 106.806 36.0945 107.122 36.2399C107.437 36.3847 107.665 36.4978 107.805 36.578L106.622 39.6231C106.061 39.3491 105.408 39.1157 104.664 38.9224C103.919 38.7291 103.073 38.6322 102.127 38.6322C101.496 38.6322 100.878 38.7291 100.273 38.9224C99.6678 39.1157 99.1334 39.4263 98.6691 39.8529C98.2047 40.2801 97.832 40.8319 97.5519 41.5086C97.2713 42.1854 97.1312 43.007 97.1312 43.974C97.1312 44.7477 97.2234 45.4687 97.4071 46.1371C97.5914 46.8061 97.8888 47.3818 98.3011 47.8652C98.7128 48.3487 99.2519 48.7317 99.9179 49.0135C100.584 49.2954 101.39 49.4366 102.337 49.4366C102.932 49.4366 103.467 49.4043 103.94 49.3397C104.414 49.2756 104.834 49.199 105.202 49.1099C105.57 49.0213 105.895 48.9208 106.175 48.8077C106.455 48.6952 106.71 48.5899 106.938 48.4935L108.068 51.5148C107.489 51.8373 106.674 52.1275 105.623 52.3848C104.572 52.6421 103.353 52.7714 101.969 52.7714H101.969Z" fill="#114F3D"/>
<path d="M121.844 35.6833C122.161 36.2153 122.525 36.8717 122.938 37.6532C123.351 38.4347 123.781 39.2808 124.23 40.191C124.678 41.1017 125.121 42.0322 125.561 42.9824C126 43.9333 126.413 44.8278 126.8 45.665C127.187 44.8272 127.6 43.9333 128.039 42.9824C128.479 42.0322 128.922 41.1011 129.37 40.191C129.818 39.2808 130.249 38.4347 130.662 37.6532C131.075 36.8717 131.44 36.2153 131.756 35.6833H135.489C135.664 36.7951 135.827 38.0398 135.976 39.4173C136.125 40.7947 136.256 42.2291 136.37 43.7196C136.484 45.2102 136.589 46.7044 136.685 48.2027C136.782 49.7011 136.865 51.1115 136.935 52.4321H132.939C132.886 50.8051 132.816 49.0327 132.729 47.1149C132.641 45.1976 132.509 43.2643 132.335 41.3141C132.018 41.9909 131.666 42.7401 131.28 43.5617C130.893 44.3832 130.51 45.2054 130.133 46.027C129.755 46.8486 129.39 47.6342 129.038 48.3834C128.686 49.1326 128.387 49.7729 128.141 50.3048H125.276C125.029 49.7729 124.73 49.1326 124.379 48.3834C124.027 47.6342 123.662 46.8486 123.284 46.027C122.906 45.2054 122.524 44.3832 122.137 43.5617C121.75 42.7401 121.399 41.9909 121.082 41.3141C120.907 43.2637 120.775 45.1976 120.688 47.1149C120.6 49.0327 120.53 50.8051 120.478 52.4321H116.482C116.552 51.1109 116.635 49.7011 116.731 48.2027C116.828 46.7044 116.932 45.2102 117.047 43.7196C117.16 42.2297 117.292 40.7953 117.441 39.4173C117.59 38.0398 117.752 36.7951 117.927 35.6833H121.844Z" fill="#114F3D"/>
<path d="M152.813 52.4327C152.61 51.8505 152.393 51.2527 152.159 50.6399C151.926 50.0272 151.693 49.4156 151.462 48.8077H144.346C144.116 49.4186 143.885 50.0308 143.654 50.6447C143.423 51.2587 143.208 51.8552 143.009 52.4327H138.75C139.435 50.6286 140.086 48.9609 140.701 47.4296C141.316 45.8989 141.918 44.4568 142.507 43.1033C143.097 41.7498 143.677 40.465 144.248 39.2485C144.819 38.032 145.413 36.8436 146.028 35.6833H149.916C150.514 36.8436 151.104 38.032 151.686 39.2485C152.267 40.465 152.853 41.7498 153.442 43.1033C154.032 44.4568 154.635 45.8989 155.251 47.4296C155.867 48.9603 156.519 50.628 157.205 52.4327H152.813H152.813ZM147.886 39.4783C147.794 39.7212 147.66 40.0527 147.484 40.471C147.308 40.8899 147.108 41.3734 146.882 41.9221C146.657 42.4708 146.405 43.0752 146.127 43.7346C145.849 44.394 145.566 45.0863 145.279 45.8104H150.489C150.21 45.0839 149.94 44.3898 149.679 43.7286C149.417 43.0674 149.169 42.4618 148.934 41.9125C148.699 41.3638 148.492 40.8803 148.315 40.462C148.137 40.0438 147.994 39.7164 147.885 39.4783H147.886Z" fill="#114F3D"/>
<path d="M164.383 35.6833C164.7 36.2153 165.064 36.8717 165.477 37.6532C165.89 38.4347 166.32 39.2808 166.768 40.191C167.216 41.1017 167.66 42.0322 168.1 42.9824C168.539 43.9333 168.952 44.8278 169.339 45.665C169.725 44.8272 170.138 43.9333 170.578 42.9824C171.017 42.0322 171.461 41.1011 171.909 40.191C172.357 39.2808 172.787 38.4347 173.201 37.6532C173.614 36.8717 173.979 36.2153 174.295 35.6833H178.028C178.203 36.7951 178.365 38.0398 178.514 39.4173C178.663 40.7947 178.794 42.2291 178.909 43.7196C179.022 45.2102 179.128 46.7044 179.224 48.2027C179.32 49.7011 179.404 51.1115 179.474 52.4321H175.478C175.425 50.8051 175.355 49.0327 175.268 47.1149C175.18 45.1976 175.048 43.2643 174.873 41.3141C174.557 41.9909 174.205 42.7401 173.818 43.5617C173.431 44.3832 173.049 45.2054 172.671 46.027C172.294 46.8486 171.929 47.6342 171.577 48.3834C171.225 49.1326 170.926 49.7729 170.68 50.3048H167.814C167.568 49.7729 167.269 49.1326 166.917 48.3834C166.565 47.6342 166.2 46.8486 165.823 46.027C165.444 45.2054 165.062 44.3832 164.676 43.5617C164.288 42.7401 163.937 41.9909 163.621 41.3141C163.445 43.2637 163.314 45.1976 163.226 47.1149C163.138 49.0327 163.068 50.8051 163.016 52.4321H159.02C159.09 51.1109 159.173 49.7011 159.27 48.2027C159.366 46.7044 159.471 45.2102 159.585 43.7196C159.699 42.2297 159.83 40.7953 159.979 39.4173C160.128 38.0398 160.291 36.7951 160.466 35.6833H164.383Z" fill="#114F3D"/>
<path d="M200.48 44.0463C200.48 45.4807 200.247 46.7415 199.783 47.8287C199.319 48.9166 198.683 49.8267 197.877 50.5597C197.071 51.2934 196.112 51.8451 194.999 52.2155C193.886 52.5859 192.689 52.7714 191.41 52.7714C190.131 52.7714 188.991 52.5859 187.887 52.2155C186.783 51.8451 185.818 51.2934 184.995 50.5597C184.171 49.8267 183.523 48.916 183.05 47.8287C182.576 46.7415 182.34 45.4807 182.34 44.0463C182.34 42.612 182.585 41.3512 183.076 40.264C183.567 39.1761 184.228 38.2624 185.061 37.521C185.893 36.7802 186.857 36.2243 187.953 35.8533C189.048 35.4829 190.201 35.2974 191.41 35.2974C192.619 35.2974 193.829 35.4829 194.933 35.8533C196.037 36.2243 197.001 36.7802 197.825 37.521C198.649 38.2624 199.297 39.1767 199.771 40.264C200.244 41.3518 200.48 42.6126 200.48 44.0463H200.48ZM186.572 44.0463C186.572 44.8679 186.682 45.6093 186.901 46.2699C187.12 46.9306 187.435 47.499 187.847 47.9741C188.259 48.4498 188.763 48.8161 189.359 49.074C189.955 49.3319 190.638 49.4605 191.41 49.4605C192.181 49.4605 192.843 49.3319 193.447 49.074C194.052 48.8167 194.56 48.4498 194.972 47.9741C195.383 47.499 195.699 46.9312 195.918 46.2699C196.137 45.6093 196.247 44.8679 196.247 44.0463C196.247 43.2248 196.137 42.4798 195.918 41.8108C195.699 41.1424 195.383 40.5703 194.972 40.0946C194.559 39.6195 194.051 39.2527 193.447 38.9948C192.842 38.7375 192.163 38.6082 191.41 38.6082C190.656 38.6082 189.954 38.7411 189.359 39.0068C188.763 39.2724 188.259 39.6434 187.847 40.1186C187.436 40.5943 187.12 41.1663 186.901 41.8347C186.681 42.5037 186.572 43.2409 186.572 44.0463Z" fill="#114F3D"/>
<path d="M203.898 52.4327V35.6834H207.973V45.5686C208.603 44.6986 209.278 43.7921 209.997 42.8496C210.716 41.9071 211.439 40.997 212.166 40.1186C212.893 39.2408 213.608 38.4144 214.309 37.6413C215.01 36.8682 215.65 36.2153 216.228 35.6834H219.567V52.4327H215.518V41.4602C213.976 43.1201 212.521 44.8841 211.154 46.7534C209.787 48.6228 208.516 50.5161 207.342 52.4333H203.898V52.4327ZM212.048 34.2095C211.486 34.2095 210.948 34.1336 210.431 33.9798C209.914 33.8266 209.445 33.6016 209.024 33.303C208.603 33.005 208.257 32.6424 207.986 32.2151C207.714 31.7885 207.552 31.3008 207.499 30.7527L210.207 30.0999C210.347 30.7126 210.579 31.1476 210.904 31.4049C211.228 31.6628 211.609 31.7915 212.047 31.7915C212.485 31.7915 212.893 31.6748 213.217 31.4408C213.541 31.2075 213.773 30.7682 213.913 30.1238L216.595 30.7766C216.543 31.3247 216.381 31.8118 216.109 32.2391C215.837 32.6663 215.495 33.0247 215.083 33.3144C214.671 33.6046 214.202 33.826 213.676 33.9792C213.15 34.1324 212.607 34.2089 212.046 34.2089L212.048 34.2095Z" fill="#114F3D"/>
</g>
<defs>
<linearGradient id="paint0_linear_564_318" x1="74.3628" y1="164.966" x2="20.6526" y2="203.367" gradientUnits="userSpaceOnUse">
<stop stop-color="#18459F"/>
<stop offset="1" stop-color="#2874B5"/>
</linearGradient>
<linearGradient id="paint1_linear_564_318" x1="81.9037" y1="174.494" x2="61.8429" y2="204.837" gradientUnits="userSpaceOnUse">
<stop stop-color="#18459F"/>
<stop offset="1" stop-color="#2874B5"/>
</linearGradient>
<linearGradient id="paint2_linear_564_318" x1="61.9572" y1="169.308" x2="17.1036" y2="210.752" gradientUnits="userSpaceOnUse">
<stop stop-color="#18459F"/>
<stop offset="1" stop-color="#2874B5"/>
</linearGradient>
<linearGradient id="paint3_linear_564_318" x1="44.7668" y1="151.445" x2="1.1381" y2="191.757" gradientUnits="userSpaceOnUse">
<stop stop-color="#18459F"/>
<stop offset="1" stop-color="#2874B5"/>
</linearGradient>
<linearGradient id="paint4_linear_564_318" x1="65.6931" y1="194.81" x2="53.9564" y2="194.546" gradientUnits="userSpaceOnUse">
<stop stop-color="#C4421B"/>
<stop offset="1" stop-color="#5C0E16"/>
</linearGradient>
<linearGradient id="paint5_linear_564_318" x1="51.9959" y1="197.706" x2="40.2651" y2="196.07" gradientUnits="userSpaceOnUse">
<stop stop-color="#C4421B"/>
<stop offset="1" stop-color="#5C0E16"/>
</linearGradient>
<linearGradient id="paint6_linear_564_318" x1="36.8026" y1="209.296" x2="40.5073" y2="204.194" gradientUnits="userSpaceOnUse">
<stop stop-color="#2C759E"/>
<stop offset="1" stop-color="#051042"/>
</linearGradient>
<linearGradient id="paint7_linear_564_318" x1="51.5883" y1="208.908" x2="55.2708" y2="203.836" gradientUnits="userSpaceOnUse">
<stop stop-color="#2C759E"/>
<stop offset="1" stop-color="#051042"/>
</linearGradient>
<linearGradient id="paint8_linear_564_318" x1="62.2458" y1="175.592" x2="37.6924" y2="180.757" gradientUnits="userSpaceOnUse">
<stop stop-color="#2B3582"/>
<stop offset="1" stop-color="#150E42"/>
</linearGradient>
<linearGradient id="paint9_linear_564_318" x1="69.2802" y1="122.274" x2="22.0606" y2="199.542" gradientUnits="userSpaceOnUse">
<stop stop-color="#FDF53F"/>
<stop offset="1" stop-color="#D93C65"/>
</linearGradient>
<linearGradient id="paint10_linear_564_318" x1="62.6557" y1="139.103" x2="52.2635" y2="118.738" gradientUnits="userSpaceOnUse">
<stop stop-color="#C4421B"/>
<stop offset="1" stop-color="#5C0E16"/>
</linearGradient>
<linearGradient id="paint11_linear_564_318" x1="46.2323" y1="152.394" x2="51.7704" y2="131.628" gradientUnits="userSpaceOnUse">
<stop stop-color="#C4421B"/>
<stop offset="1" stop-color="#5C0E16"/>
</linearGradient>
<linearGradient id="paint12_linear_564_318" x1="95.6918" y1="-17.4637" x2="71.1749" y2="61.512" gradientUnits="userSpaceOnUse">
<stop stop-color="#CB236D"/>
<stop offset="1" stop-color="#4C246D"/>
</linearGradient>
<linearGradient id="paint13_linear_564_318" x1="55.5508" y1="140.502" x2="47.3026" y2="124.34" gradientUnits="userSpaceOnUse">
<stop stop-color="#C4421B"/>
<stop offset="1" stop-color="#5C0E16"/>
</linearGradient>
<linearGradient id="paint14_linear_564_318" x1="109.115" y1="-7.67776" x2="76.7556" y2="68.4217" gradientUnits="userSpaceOnUse">
<stop stop-color="#CB236D"/>
<stop offset="1" stop-color="#4C246D"/>
</linearGradient>
<linearGradient id="paint15_linear_564_318" x1="49.5059" y1="143.343" x2="41.3883" y2="127.435" gradientUnits="userSpaceOnUse">
<stop stop-color="#C4421B"/>
<stop offset="1" stop-color="#5C0E16"/>
</linearGradient>
<linearGradient id="paint16_linear_564_318" x1="91.4621" y1="132.979" x2="152.439" y2="221.082" gradientUnits="userSpaceOnUse">
<stop stop-color="#18459F"/>
<stop offset="1" stop-color="#2874B5"/>
</linearGradient>
<linearGradient id="paint17_linear_564_318" x1="30.6825" y1="158.366" x2="92.931" y2="236.264" gradientUnits="userSpaceOnUse">
<stop stop-color="#18459F"/>
<stop offset="1" stop-color="#2874B5"/>
</linearGradient>
<linearGradient id="paint18_linear_564_318" x1="39.5308" y1="107.321" x2="130.752" y2="203.455" gradientUnits="userSpaceOnUse">
<stop stop-color="#18459F"/>
<stop offset="1" stop-color="#2874B5"/>
</linearGradient>
<linearGradient id="paint19_linear_564_318" x1="51.1481" y1="171.749" x2="92.7863" y2="62.568" gradientUnits="userSpaceOnUse">
<stop stop-color="#C4421B"/>
<stop offset="1" stop-color="#5C0E16"/>
</linearGradient>
<linearGradient id="paint20_linear_564_318" x1="53.0227" y1="137.161" x2="17.1204" y2="209.745" gradientUnits="userSpaceOnUse">
<stop stop-color="#FDF53F"/>
<stop offset="1" stop-color="#D93C65"/>
</linearGradient>
<linearGradient id="paint21_linear_564_318" x1="87.0412" y1="131.213" x2="49.7464" y2="207.997" gradientUnits="userSpaceOnUse">
<stop stop-color="#53D8FF"/>
<stop offset="1" stop-color="#3840F7"/>
</linearGradient>
<linearGradient id="paint22_linear_564_318" x1="75.8803" y1="91.0619" x2="115.52" y2="198.971" gradientUnits="userSpaceOnUse">
<stop stop-color="#CB236D"/>
<stop offset="1" stop-color="#4C246D"/>
</linearGradient>
<linearGradient id="paint23_linear_564_318" x1="104.682" y1="135.65" x2="195.059" y2="247.526" gradientUnits="userSpaceOnUse">
<stop stop-color="#CB236D"/>
<stop offset="1" stop-color="#4C246D"/>
</linearGradient>
<linearGradient id="paint24_linear_564_318" x1="96.7747" y1="121.235" x2="101.76" y2="179.256" gradientUnits="userSpaceOnUse">
<stop stop-color="#A737D5"/>
<stop offset="1" stop-color="#EF497A"/>
</linearGradient>
<linearGradient id="paint25_linear_564_318" x1="66.8871" y1="82.0676" x2="83.269" y2="142.447" gradientUnits="userSpaceOnUse">
<stop stop-color="#53D8FF"/>
<stop offset="1" stop-color="#3840F7"/>
</linearGradient>
<linearGradient id="paint26_linear_564_318" x1="58.7758" y1="65.6949" x2="36.8283" y2="91.2292" gradientUnits="userSpaceOnUse">
<stop stop-color="#B37CFF"/>
<stop offset="1" stop-color="#F895E7"/>
</linearGradient>
<linearGradient id="paint27_linear_564_318" x1="29.0353" y1="86.6891" x2="27.7536" y2="88.1802" gradientUnits="userSpaceOnUse">
<stop stop-color="#B37CFF"/>
<stop offset="1" stop-color="#F895E7"/>
</linearGradient>
<linearGradient id="paint28_linear_564_318" x1="33.7767" y1="104.225" x2="32.8972" y2="105.248" gradientUnits="userSpaceOnUse">
<stop stop-color="#B37CFF"/>
<stop offset="1" stop-color="#F895E7"/>
</linearGradient>
<linearGradient id="paint29_linear_564_318" x1="66.956" y1="89.1714" x2="44.3498" y2="115.472" gradientUnits="userSpaceOnUse">
<stop stop-color="#B37CFF"/>
<stop offset="1" stop-color="#F895E7"/>
</linearGradient>
<linearGradient id="paint30_linear_564_318" x1="74.7538" y1="91.3155" x2="73.4885" y2="92.7876" gradientUnits="userSpaceOnUse">
<stop stop-color="#B37CFF"/>
<stop offset="1" stop-color="#F895E7"/>
</linearGradient>
<linearGradient id="paint31_linear_564_318" x1="93.0994" y1="68.7868" x2="92.4738" y2="69.5146" gradientUnits="userSpaceOnUse">
<stop stop-color="#B37CFF"/>
<stop offset="1" stop-color="#F895E7"/>
</linearGradient>
<linearGradient id="paint32_linear_564_318" x1="85.1756" y1="61.464" x2="72.9149" y2="75.7284" gradientUnits="userSpaceOnUse">
<stop stop-color="#B37CFF"/>
<stop offset="1" stop-color="#F895E7"/>
</linearGradient>
<linearGradient id="paint33_linear_564_318" x1="93.3782" y1="79.5839" x2="79.3841" y2="95.865" gradientUnits="userSpaceOnUse">
<stop stop-color="#B37CFF"/>
<stop offset="1" stop-color="#F895E7"/>
</linearGradient>
<linearGradient id="paint34_linear_564_318" x1="95.9352" y1="78.6698" x2="94.9781" y2="79.7834" gradientUnits="userSpaceOnUse">
<stop stop-color="#B37CFF"/>
<stop offset="1" stop-color="#F895E7"/>
</linearGradient>
<linearGradient id="paint35_linear_564_318" x1="157.186" y1="217.689" x2="164.229" y2="173.386" gradientUnits="userSpaceOnUse">
<stop stop-color="#2B3582"/>
<stop offset="1" stop-color="#150E42"/>
</linearGradient>
<linearGradient id="paint36_linear_564_318" x1="160.011" y1="218.138" x2="167.054" y2="173.834" gradientUnits="userSpaceOnUse">
<stop stop-color="#2B3582"/>
<stop offset="1" stop-color="#150E42"/>
</linearGradient>
<linearGradient id="paint37_linear_564_318" x1="154.569" y1="217.273" x2="161.612" y2="172.97" gradientUnits="userSpaceOnUse">
<stop stop-color="#53D8FF"/>
<stop offset="1" stop-color="#3840F7"/>
</linearGradient>
<linearGradient id="paint38_linear_564_318" x1="124.168" y1="189.481" x2="147.338" y2="189.481" gradientUnits="userSpaceOnUse">
<stop stop-color="#F9B776"/>
<stop offset="1" stop-color="#F47960"/>
</linearGradient>
<linearGradient id="paint39_linear_564_318" x1="138.345" y1="204.579" x2="134.937" y2="256.834" gradientUnits="userSpaceOnUse">
<stop stop-color="#CB236D"/>
<stop offset="1" stop-color="#4C246D"/>
</linearGradient>
<linearGradient id="paint40_linear_564_318" x1="96.9624" y1="191.064" x2="145.856" y2="191.064" gradientUnits="userSpaceOnUse">
<stop stop-color="#F9B776"/>
<stop offset="1" stop-color="#F47960"/>
</linearGradient>
<linearGradient id="paint41_linear_564_318" x1="105.459" y1="202.434" x2="102.051" y2="254.689" gradientUnits="userSpaceOnUse">
<stop stop-color="#CB236D"/>
<stop offset="1" stop-color="#4C246D"/>
</linearGradient>
<linearGradient id="paint42_linear_564_318" x1="548.71" y1="-348.281" x2="450.383" y2="-231.946" gradientUnits="userSpaceOnUse">
<stop stop-color="#CB236D"/>
<stop offset="0.31" stop-color="#4C246D"/>
</linearGradient>
<linearGradient id="paint43_linear_564_318" x1="153.27" y1="126.023" x2="160.221" y2="194.727" gradientUnits="userSpaceOnUse">
<stop stop-color="#FDF53F"/>
<stop offset="1" stop-color="#D93C65"/>
</linearGradient>
<linearGradient id="paint44_linear_564_318" x1="145.07" y1="117.336" x2="141.769" y2="96.1583" gradientUnits="userSpaceOnUse">
<stop stop-color="#F9B776"/>
<stop offset="1" stop-color="#F47960"/>
</linearGradient>
<linearGradient id="paint45_linear_564_318" x1="181.832" y1="134.841" x2="111.322" y2="152.755" gradientUnits="userSpaceOnUse">
<stop stop-color="#F9B776"/>
<stop offset="0.53" stop-color="#F47960"/>
</linearGradient>
<linearGradient id="paint46_linear_564_318" x1="130.198" y1="83.0257" x2="153.262" y2="96.8484" gradientUnits="userSpaceOnUse">
<stop stop-color="#F9B776"/>
<stop offset="1" stop-color="#F47960"/>
</linearGradient>
<linearGradient id="paint47_linear_564_318" x1="466.237" y1="-349.039" x2="374.663" y2="-227.318" gradientUnits="userSpaceOnUse">
<stop stop-color="#CB236D"/>
<stop offset="0.31" stop-color="#4C246D"/>
</linearGradient>
<linearGradient id="paint48_linear_564_318" x1="134.737" y1="75.3626" x2="150.406" y2="100.551" gradientUnits="userSpaceOnUse">
<stop stop-color="#F9B776"/>
<stop offset="1" stop-color="#F47960"/>
</linearGradient>
<linearGradient id="paint49_linear_564_318" x1="127.132" y1="162.52" x2="181.906" y2="162.52" gradientUnits="userSpaceOnUse">
<stop stop-color="#2B3582"/>
<stop offset="1" stop-color="#150E42"/>
</linearGradient>
<linearGradient id="paint50_linear_564_318" x1="144.355" y1="106.924" x2="126.344" y2="167.36" gradientUnits="userSpaceOnUse">
<stop stop-color="#53D8FF"/>
<stop offset="1" stop-color="#3840F7"/>
</linearGradient>
<clipPath id="clip0_564_318">
<rect width="222" height="222" fill="white"/>
</clipPath>
</defs>
</svg>
