<?xml version="1.0" encoding="UTF-8"?>
<svg id="_Слой_1" data-name="Слой 1" xmlns="http://www.w3.org/2000/svg" xmlns:xlink="http://www.w3.org/1999/xlink" viewBox="0 0 200 200">
  <defs>
    <style>
      .cls-1, .cls-2 {
        fill: #fff;
      }

      .cls-3 {
        fill: #f8f7d7;
      }

      .cls-3, .cls-4, .cls-5, .cls-6, .cls-7, .cls-8, .cls-9, .cls-10, .cls-2 {
        stroke-miterlimit: 10;
      }

      .cls-3, .cls-4, .cls-5, .cls-7, .cls-8, .cls-9, .cls-10, .cls-2, .cls-11, .cls-12 {
        stroke: #1d1d1b;
      }

      .cls-4, .cls-13, .cls-12 {
        fill: #f08630;
      }

      .cls-5 {
        fill: url(#_Безымянный_градиент_43);
      }

      .cls-6 {
        fill: #fffbe9;
        stroke: #1b1464;
      }

      .cls-7 {
        fill: #fffffd;
      }

      .cls-8 {
        fill: #fcfff4;
        stroke-width: .5px;
      }

      .cls-9, .cls-11 {
        fill: #fccc7e;
      }

      .cls-14 {
        fill: #b7ccd1;
      }

      .cls-15 {
        fill: #6a5d27;
      }

      .cls-15, .cls-16, .cls-17, .cls-18, .cls-19, .cls-11, .cls-20, .cls-21, .cls-12, .cls-22 {
        stroke-linecap: round;
        stroke-linejoin: round;
      }

      .cls-15, .cls-20, .cls-22 {
        stroke: #754c24;
      }

      .cls-23 {
        fill: #c86c25;
      }

      .cls-16 {
        fill: #36c154;
      }

      .cls-16, .cls-17, .cls-18, .cls-19, .cls-21 {
        stroke: #006837;
      }

      .cls-17 {
        fill: #219b40;
      }

      .cls-10 {
        fill: #fcf3cc;
      }

      .cls-18 {
        fill: #03561c;
      }

      .cls-19 {
        fill: #00782e;
      }

      .cls-20 {
        fill: #ffea89;
      }

      .cls-21 {
        fill: #007d4d;
      }

      .cls-22 {
        fill: #c6ad47;
      }

      .cls-24 {
        fill: #9fffc5;
      }
    </style>
    <radialGradient id="_Безымянный_градиент_43" data-name="Безымянный градиент 43" cx="126.31" cy="72.79" fx="126.31" fy="72.79" r="4.93" gradientTransform="translate(252.8 -13.33) rotate(-180) scale(1.07 -1.06)" gradientUnits="userSpaceOnUse">
      <stop offset="0" stop-color="#831811"/>
      <stop offset=".17" stop-color="#7e1811"/>
      <stop offset=".36" stop-color="#701812"/>
      <stop offset=".56" stop-color="#591a15"/>
      <stop offset=".78" stop-color="#391b18"/>
      <stop offset=".93" stop-color="#1d1d1b"/>
    </radialGradient>
  </defs>
  <path class="cls-4" d="m110.84,151.73c22.44-33.68,16.86-79.1-11.82-104.69-26.8-23.92-67.65-25.05-97.02-1.93,8.49,3.4,20.85,9.99,26.63,22.84,6.16,13.71.37,24.58,1.97,35.4,1.16,7.8,6.36,16.93,21.46,26.23,12.16,7.48,30.73,15.07,58.77,22.15Z"/>
  <path class="cls-2" d="m56.45,28.65c-8.53-.6-23.15-.33-38.9,7.05-6.13,2.87-11.17,6.23-15.18,9.39,8.49,3.4,20.85,9.99,26.63,22.84,14.84.14,27.1-8.56,30.16-20.16,2.31-8.75-1.33-16.5-2.71-19.12Z"/>
  <path class="cls-23" d="m61.84,124.34c-.82,1.25-24.02-6.78-26.65-23.09-1.08-6.72,1.4-14.34,2.67-14.3,1.05.03,1.06,5.24,2.4,10.46,4.6,17.92,22.31,25.82,21.58,26.94Z"/>
  <path class="cls-14" d="m56.97,34.29c.01-.28-18.83-4.69-37.28,2.8-5.52,2.24-9.48,4.93-9.35,5.23.2.46,10.13-5.82,23.82-7.26,4.54-.48,11.87-.67,14.43-.74,7.1-.19,8.38.04,8.38-.04Z"/>
  <polyline class="cls-4" points="32.17 78.03 28.03 77.21 32.24 81.33 31.27 81.84 32.13 84.04 28.92 85.81 31.89 89.44"/>
  <polyline class="cls-7" points="41.71 29.27 33.71 24.82 38.33 30.06 33.84 26.75 33.78 30.71 29.52 28.83 29.66 30.85 22.05 30 25.12 32.66"/>
  <g>
    <g>
      <g>
        <path class="cls-4" d="m109.38,128.26c-.2-.35-.35-.72-.45-1.12-.45,8.23-.95,15.21-6.11,21.12-.16-1.05-.77-2.02-.91-3.04-7.33,9.37,11.65,7.44-8.99,16.68.62-13.3-22.95,5.47-14.67-15.44-7.13,4.67-3.74-5.02-2.35-9.49-.47.14-1.4,0-1.67.07,1.66-2.87,3.6-6.4,4.34-9.8-.94.75-2.05,1.3-3.13,1.57,1.89-2.76,11.95-11.7,13.13-6.86-1.21-5.82,1.49-6.59,5.32-4.66-.71-6.78,6.41.07,8.15,2.34-.27-7.74,3.58-2.68,5.25,1.28.22-1.59,2.09,5.72,2.12,7.34Z"/>
        <path class="cls-4" d="m76.5,156.66c.22,0,.42,0,.63,0-.18,0-.69.32-.63,0Z"/>
        <g>
          <path class="cls-4" d="m93.17,159.92c-3.1,6.28-19.45,3.92-25.97,6.22-12.55-2.87,3.68-10.47,9.34-10.22,3.04,3.71,15.49-2.62,16.62,4Z"/>
          <path class="cls-4" d="m83.07,160.09c-.18,7.46-14.85,10.58-17.02,4.11-.93-6.07,14.55-11.35,17.02-4.11Z"/>
          <path class="cls-4" d="m93.17,159.92c.3,6.93-14.73,10.87-17.02,4.11-.78-7.12,16.07-10.45,17.02-4.11Z"/>
        </g>
      </g>
      <path class="cls-3" d="m59.94,165.37c3.13.42,6.47-.86,5.11-4.09-.99-1.01-4.93,1.88-5.11,4.09Z"/>
    </g>
    <path class="cls-3" d="m66.03,167.96c3.7-.24,7.28-2.58,5.16-6-1.32-.96-5.35,3.4-5.16,6Z"/>
    <path class="cls-3" d="m74.58,168.66c3.79-.46,7.49-2.95,5.18-6.35-1.39-.89-5.43,3.68-5.18,6.35Z"/>
    <path class="cls-13" d="m94.57,157.98c.11,4.46-9.41,4.46-9.3,0-.11-4.46,9.41-4.46,9.3,0Z"/>
  </g>
  <g>
    <g>
      <g>
        <path class="cls-4" d="m138.43,118.51c.59.86-3.41-2.98-4.58,1.86,1.21-5.82-1.49-6.59-5.32-4.66.71-6.78-6.41.07-8.15,2.34.27-7.74-3.58-2.68-5.25,1.28-.22-1.59-2.09,5.72-2.12,7.34.2-.35.35-.72.45-1.12.45,8.23.95,15.21,6.11,21.12.16-1.05.77-2.02.91-3.04,7.33,9.37-11.65,7.44,8.99,16.68-.62-13.3,22.95,5.47,14.67-15.44,7.13,4.67,3.74-5.02,2.35-9.49.47.14,1.4,0,1.67.07-1.66-2.87-8.46-12.07-9.2-15.47"/>
        <path class="cls-4" d="m145.89,155.09c-.22,0-.42,0-.63,0,.18,0,.69.32.63,0Z"/>
        <g>
          <path class="cls-4" d="m129.22,158.35c3.1,6.28,19.45,3.92,25.97,6.22,12.55-2.87-3.68-10.47-9.34-10.22-3.04,3.71-15.49-2.62-16.62,4Z"/>
          <path class="cls-4" d="m139.32,158.52c.18,7.46,14.85,10.58,17.02,4.11.93-6.07-14.55-11.35-17.02-4.11Z"/>
          <path class="cls-4" d="m129.22,158.35c-.3,6.93,14.73,10.87,17.02,4.11.78-7.12-16.07-10.45-17.02-4.11Z"/>
        </g>
      </g>
      <path class="cls-3" d="m162.46,163.79c-3.13.42-6.47-.86-5.11-4.09.99-1.01,4.93,1.88,5.11,4.09Z"/>
    </g>
    <path class="cls-3" d="m156.36,166.39c-3.7-.24-7.28-2.58-5.16-6,1.32-.96,5.35,3.4,5.16,6Z"/>
    <path class="cls-3" d="m147.81,167.08c-3.79-.46-7.49-2.95-5.18-6.35,1.39-.89,5.43,3.68,5.18,6.35Z"/>
    <path class="cls-13" d="m127.82,156.41c-.11,4.46,9.41,4.46,9.3,0,.11-4.46-9.41-4.46-9.3,0Z"/>
  </g>
  <path class="cls-4" d="m138.98,82.36c4.1,3.04,5.99,13.85,3.36,10.94-.6,2.51,3.46,12.27-.19,7.8-.08,16.69-2.86,7.99-1.58,25.1-1.32-5.26-1.28,1.4-1.3,3.68-.28-.52-.58-.78-.9-.83-4.49-.69-10.02,24.03-23.41,26.99-4.49.99-10.03-.51-13.33-3.95-3.85-4.02-2.83-8.84-7.2-16.56-2.25-3.97-4.79-6.71-6.48-8.32-.6,2.54.1-2.99-.45-3.16-.08-.45-.93,4.4-1.05,4.05-.04.19.01-6.23-.51-6.19-1.42,5.03-.72,1.25-.22-3.35,1.47-8.76-.16-23.27-2.95-18.34-2.32,3.84.76-8.8.61-8.69-4.87,4.69,2.98-11.34,6.04-11.68,12.7-1.43,47.85,2.33,49.55,2.52Z"/>
  <path class="cls-2" d="m93.51,66.95c-1.64,3.98-4.01,8.46-6.8,11.66,1.34-1.06,2.85-1.94,4-3.22-1.42,3.24-4.8,5.93-5.78,9.35,1.39-.6,2.68-1.41,3.8-2.47-.43,5.09-3.67,14.36,2.34,5.87.06,2.18-.48,4.38-.22,6.5.55-.76,1.44-1.07,1.87-2.07.42,2.77,2.21,12.07,2.99,15.08.71-.99,1.42-2.01,2.12-3.01.25,2.64,3.93,10.05,5.65,11.87.03-.66.11-1.31.24-1.95.25,1.66,4.64,6.05,4.66,7.59.44-1.48,1.38-5.86,1.4-6.02l1.85,7.58,4.34-7.58c.03.16.97,4.53,1.4,6.02.02-1.35,2.15-4.17,2.55-5.69.39,1.05.87,2.14,1.37,3.1.36-1.65,2.68-8.49,2.85-10.99.49,1.36,1.08,2.73,1.84,3.95.83-2.45,1.69-5.23,1.93-7.87.7,1,1.42,2.02,2.12,3.01.78-3.01.37-6.71.33-9.81.44,1.41,1.43,2.39,2.46,3.41.47-2.9,1.79-10.94,1.85-13.11,6.01,8.5,2.76-.79,2.34-5.87,1.12,1.06,2.42,1.87,3.8,2.47-.98-3.42-4.36-6.11-5.78-9.35,1.15,1.28,2.66,2.16,4,3.22-11.4-24.84-31.22-33.33-45.5-11.66Z"/>
  <path class="cls-4" d="m101.55,73.57c-2.75,1.32-7.64,6.55-11.63,5.02,1.79-1.23,3.98-2.85,5.34-4.73-4.44,2.47-12.03,5.35-16.78,4.45,3.83-2.84,7.41-6.9,10.77-10.36-5.55,2.82-11.64,4.02-17.27,6.41,3.39-5.37,7.53-9.51,13.39-11.07-3.8,1.77-8.67,1.49-12.97,1.65,3.88-5.18,10.98-8.49,15.79-12.47-1.19-1.18-5.62-5.22-11.45-8.92-32.14-19.48,27.06-5.92,24.78-4.74.42-1.64.83-3.28,1.25-4.93.78.98,1.56,1.95,2.34,2.93.35-1.15.69-2.3,1.04-3.45.79,1.38,1.57,2.77,2.36,4.15.04-1.77-.24-3.8.5-5.32.69,1.18.91,2.12,1.13,3.44.45-.82.44-5.43.89-6.25.36.81,1.19,5.41,1.56,6.22.53-1.65,1.51-8.9,2.6-10.15.35,1.55,1.16,9.21,1.21,10.76.33-1.68,3.19-7.01,4.19-8.32.35,6.12-2.04,8.82,1.32,5.49.06,1.38.68,1.83.67,3.2,1.06-1.69,1.56-2.83,3.1-3.89.05,1.38.78,3.03.7,4.41.54-1.46.89-1.86,1.87-2.8-.42,4.76,1.25,3.29,3.66.92.03.61-.44,1.74.19,2.02,4.77-6,14.07-7.02,20.13-8.63.56,8.22-1.63,20.52-8.41,25.14,7.02,5.56,15.25,12.05,19.58,21.14-4.14-1.21-8.93-2.13-12.2-4.78,5.32,2.95,8.37,7.99,10.4,14.03-4.9-3.7-10.53-6.36-15.27-10.46,2.45,4.18,4.97,9,8.03,12.7-4.82-.29-11.52-4.95-15.25-8.44.88,2.16,2.62,4.27,4.07,5.9-4.23.51-15.17-3.51-18.24-5.55-3.39,3.52-10.67,3.52-13.39,2.61s-8.36-2.72-10-7.32Z"/>
  <path class="cls-9" d="m150.7,30.32c-9.44,3.44-16.38,6.16-17.82,11.63,3.37,1.95,8.17,7.09,8.87,8.49,3.12,5.16,10.04-11.9,8.95-20.12Z"/>
  <path class="cls-11" d="m84.59,37.58c18.92,4.51,11.67,3.82,4.93,11.98-1.95.5-3.12-2.68-7.72-6.12-2.42-1.6-9.98-5.99-12.57-8.31,3.73.36,9.05,1.05,15.36,2.45Z"/>
  <path class="cls-8" d="m122.92,60.28c3.94-.39,3.27-6.97-.66-6.45-3.94.39-3.27,6.97.66,6.45Z"/>
  <path class="cls-8" d="m110.02,60.2c3.85-.96,2.34-7.38-1.48-6.3-3.85.96-2.34,7.38,1.48,6.3Z"/>
  <g>
    <path class="cls-10" d="m122.82,72.36c-.24,1.24-1.1,3.41-1.83,4.51-1.5-2.14-2.21-6.67,1.83-4.51Z"/>
    <path class="cls-10" d="m108.62,72.88c.3,1.23,1.26,3.38,2.04,4.46,1.41-2.15,1.91-6.67-2.04-4.46Z"/>
    <path class="cls-4" d="m116.68,62.93v7.78c.31,4.41,9.41,4.1,8.94-.54"/>
    <path class="cls-5" d="m117.1,62.28c7.76-.26,3.11,2.65.8,3.94.08.87-.38.63-1.2.65-.66.13-.56-.21-.6-.65-2.65-1.41-6.72-4.27,1-3.94Z"/>
    <path class="cls-4" d="m105.18,69.07c-.21,4.94,8.85,7.37,11.5,1.64"/>
    <path d="m119.17,67.15c0,.61.97.61.96,0,0-.61-.97-.61-.96,0Z"/>
    <path d="m118.46,69.18c0,.61.97.61.96,0,0-.61-.97-.61-.96,0Z"/>
    <path d="m121.41,68.9c0,.61.97.61.96,0,0-.61-.97-.61-.96,0Z"/>
    <path d="m113.27,67.79c0,.61.97.61.96,0,0-.61-.97-.61-.96,0Z"/>
    <path d="m111.14,69.8c.19.58,1.12.27.91-.31-.19-.58-1.12-.27-.91.31Z"/>
    <path d="m109.74,67.15c0,.61.97.61.96,0,0-.61-.97-.61-.96,0Z"/>
  </g>
  <path class="cls-1" d="m122.72,55.62c-.43.51.33,1.21.74.69.43-.51-.33-1.21-.74-.69Z"/>
  <path class="cls-23" d="m130.69,42.83c1.62-.81,14.34,14.38,9.85,20.95.7-3.48-6.15-18.59-9.85-20.95Z"/>
  <path class="cls-23" d="m102.39,39.65c-1.62-.81-14.34,14.38-9.85,20.95-.7-3.48,6.15-18.59,9.85-20.95Z"/>
  <path class="cls-6" d="m79.17,145.78c9.37.66,25.68.58,44.29-6.21,21.66-7.91,35.44-20.91,42.04-28.07,2.81,6.36,6.11,13.07,10,20,7.62,13.6,15.8,25.03,23.5,34.43-9.86,3.41-20.22,6.67-31.07,9.69-29.85,8.32-57.85,13.3-83.12,16.17,1.51-4.42,3.56-12.29,2.64-22.13-1.07-11.5-5.65-19.81-8.27-23.88Z"/>
  <path class="cls-1" d="m108.58,55.62c-.43.51.33,1.21.74.69.43-.51-.33-1.21-.74-.69Z"/>
  <g>
    <g>
      <path class="cls-15" d="m118.06,137.01c7.77,4.35,18.17,12.54,25.94,16.89-5.51-6.42-13.65-16.68-19.15-23.1-2.26,2.07-4.52,4.14-6.79,6.21Z"/>
      <path class="cls-20" d="m137.45,123.76c1.15,4.87,2.28,9.83,3.37,14.87,1.13,5.19,2.18,10.28,3.17,15.27-3.39-8.27-9.41-20.37-12.8-28.63,2.08-.5,4.17-1.01,6.25-1.51Z"/>
      <path class="cls-22" d="m121.87,133.1c3.11-2.61,6.22-5.23,9.33-7.84,3.39,8.27,9.41,20.37,12.8,28.63-6.5-5.65-15.63-15.14-22.13-20.8Z"/>
    </g>
    <path class="cls-16" d="m137.45,123.76c.72,2.01.55,3.88-.46,4.82-1.19,1.11-3.34.76-5.28-.89-11.18-16.29-22.35-32.57-33.53-48.86l5.75-3.93,33.53,48.86Z"/>
    <path class="cls-18" d="m122.8,133.77c.8,1.96.8,3.7-.01,4.51-.96.95-2.88.45-4.73-1.27-11.18-16.29-22.35-32.57-33.53-48.86l4.74-3.24,33.53,48.86Z"/>
    <path class="cls-17" d="m131.7,127.67c.47,2.18-.25,4.42-1.9,5.8-1.93,1.62-4.81,1.77-7.06.32-11.18-16.29-22.35-32.57-33.53-48.86l8.95-6.12,33.53,48.86Z"/>
    <path class="cls-21" d="m103.84,74.95l-19.31,13.2c-.56-.78-2.29-3.44-1.35-6.58.76-2.56,2.87-4.01,6.15-6.26,3.29-2.26,5.49-3.77,8.36-3.65,3.33.14,5.41,2.39,6.16,3.3Z"/>
    <path class="cls-19" d="m141.72,142.88c.8,3.76,1.56,7.47,2.28,11.12-2.9-1.62-6.16-3.78-9.51-6.07.17-.73.45-1.41.82-2.03.27-.44.58-.85.95-1.21.27-.28.57-.53.9-.75.62-.42,1.29-.72,1.99-.9.83-.21,1.7-.26,2.57-.16Z"/>
    <path class="cls-24" d="m101.43,74.49c-.02-.38-2.36-1.59-4.68-1.59-1.31,0-2.19.39-3.53,1.01-2.07.95-3.88,2.31-3.73,2.55.17.28,2.67-1.68,7.06-2.01,2.88-.22,4.9.39,4.88.04Z"/>
  </g>
  <g>
    <path class="cls-12" d="m84.07,89.97c-.75.44-1.36,2.15-2.58,3.28-1.33,1.22-3.08,4.35-5.28,9.41-.96,2.21-2.39,5.49-2.57,10.02-.05,1.18-.1,4.66,1.11,7.93,2.66,7.18,10.8,2.69,13.05,1.23"/>
    <g>
      <g>
        <path class="cls-4" d="m85.69,122.46c3.64-.04,10.06-3.32,8.77-4.17,1.85-.34,5.15-2.56,4.13-2.84,1.01-.52,4.19-2.59,2.61-3.2l4.98-14.96c-7.98-.65-11.69,5.17-11.41,4.96-.76.25-1.78.35-2.49.56,2.96-1.56-1.21-.48-2.4.27,3.95-3.11-3.27-1.33-5.78-.46,2.31-2.38.19-1.13-1.73-.83.27-.15.8-.52,1.03-.65-1.14.29-5.82,1.39-3.07.12"/>
        <g>
          <path class="cls-4" d="m98.32,112.95c5.42,4.12,10.1-6.75,14.78-8.14,4.55-6.05-5.97-12.93-8.25-5.47"/>
          <path class="cls-4" d="m106.29,108.27c4.77,4.66,10.84-3.21,5.95-7.72-4.77-4.66-10.84,3.21-5.95,7.72Z"/>
          <path class="cls-4" d="m104.52,111.82c9.93,6.22,7.9-14.55-.85-8.71"/>
        </g>
      </g>
      <path class="cls-3" d="m113.91,97.86c-.99,1.05-2.48,1.36-2.8-.15.08-.66,2.22-.6,2.8.15Z"/>
      <path class="cls-3" d="m113.51,101.31c-.99,1.05-2.48,1.36-2.8-.15.08-.66,2.22-.6,2.8.15Z"/>
      <path class="cls-3" d="m110.63,105.47c-.99,1.05-2.48,1.36-2.8-.15.08-.66,2.22-.6,2.8.15Z"/>
    </g>
  </g>
  <g>
    <path class="cls-12" d="m142.46,87.26c1.26,1.15,2.99,2.94,4.55,5.45.47.76,2.23,3.69,3.64,10,1,4.5,2.28,10.51.65,17.06-.57,2.29-1.5,4.65-3.5,6.59-.73.71-1.73,1.68-3.13,2.02-2.81.68-6.24-1.45-8.71-5.14"/>
    <g>
      <g>
        <path class="cls-4" d="m137.6,124.47c-3.19-1.21-7.77-6.15-6.37-6.48-1.51-.89-3.71-3.9-2.72-3.81-.72-.78-2.85-3.62-1.27-3.65l.38-14.72c7.21,2,8.61,8.29,8.44,8.02.58.47,1.45.88,2.01,1.29-2.11-2.32,1.21-.03,2.02,1.01-2.48-4,3.29-.12,5.22,1.45-1.27-2.83.2-1.05,1.78-.17-.19-.22-.54-.72-.69-.9.91.62,4.66,3.09,2.65,1.09"/>
        <g>
          <path class="cls-4" d="m129.53,112.07c-6.07,1.87-6.72-9.16-10.39-11.89-2.07-6.76,9.35-9.41,8.98-2.14"/>
          <path class="cls-4" d="m124.02,105.4c-5.67,2.54-8.49-6.3-2.77-8.68,5.67-2.54,8.49,6.3,2.77,8.68Z"/>
          <path class="cls-4" d="m124.45,109.08c-10.7,2.26-2.31-15.29,3.51-7.35"/>
        </g>
      </g>
      <path class="cls-3" d="m120.65,93.83c.53,1.24,1.75,1.99,2.5.77.14-.6-1.75-1.24-2.5-.77Z"/>
      <path class="cls-3" d="m119.9,96.98c.53,1.24,1.75,1.99,2.5.77.14-.6-1.75-1.24-2.5-.77Z"/>
      <path class="cls-3" d="m121.11,101.55c.53,1.24,1.75,1.99,2.5.77.14-.6-1.75-1.24-2.5-.77Z"/>
    </g>
  </g>
  <circle cx="109.28" cy="57.79" r="2.56"/>
  <ellipse cx="122.55" cy="58.07" rx="2.45" ry="2.64" transform="translate(-2.62 5.88) rotate(-2.72)"/>
  <circle class="cls-1" cx="109.98" cy="57.1" r=".93"/>
  <circle class="cls-1" cx="123.02" cy="57.1" r=".93"/>
</svg>