<svg width="46" height="46" viewBox="0 0 46 46" fill="none" xmlns="http://www.w3.org/2000/svg">
<path d="M0.6272 30.6259L0.627201 16.2803C0.627201 15.1164 1.60137 14.1721 2.8021 14.1721L21.6588 14.1721C22.1164 14.1721 22.4864 13.8128 22.4864 13.3691L22.4864 1.7243C22.4864 1.02567 23.3564 0.675593 23.8669 1.16847L23.879 1.18075L44.7595 21.421C45.9164 22.5434 45.9164 24.3613 44.7595 25.4837L24.024 45.5857C23.9666 45.641 23.9077 45.6948 23.8473 45.7454C23.3171 46.1922 22.4864 45.8099 22.4864 45.1297C22.4864 42.3229 22.4864 35.8096 22.4864 33.5356C22.4864 33.0918 22.1164 32.7341 21.6588 32.7341L2.8021 32.7341C1.60137 32.7341 0.6272 31.7898 0.6272 30.6259Z" fill="url(#paint0_linear_50_8)"/>
<defs>
<linearGradient id="paint0_linear_50_8" x1="23.1268" y1="0.938155" x2="23.1268" y2="45.9389" gradientUnits="userSpaceOnUse">
<stop stop-color="#009EE2"/>
<stop offset="0.08" stop-color="#08A0D0"/>
<stop offset="0.25" stop-color="#1AA5AE"/>
<stop offset="0.43" stop-color="#27A994"/>
<stop offset="0.61" stop-color="#31AB81"/>
<stop offset="0.8" stop-color="#37AD75"/>
<stop offset="1" stop-color="#39AE72"/>
</linearGradient>
</defs>
</svg>
