<svg width="168" height="103" viewBox="0 0 168 103" fill="none" xmlns="http://www.w3.org/2000/svg">
<g clip-path="url(#clip0_618_43)">
<path d="M166.119 0.473344C140.95 47.4766 83.2189 78.102 26.2298 87.4979C28.4553 86.6932 30.6279 85.8649 32.7209 84.9182C35.7413 83.5455 37.5164 83.2615 38.3642 80.0901C38.6821 78.954 37.9668 77.9837 36.7745 77.5813L35.8737 77.2737C33.5157 76.469 31.7936 80.0664 34.1251 80.9658C28.6938 78.9067 10.1478 87.4506 3.02087 90.1487C2.94139 90.1487 2.8884 90.1487 2.80892 90.1487C2.25254 90.1723 1.74915 90.4327 1.35173 90.764C-0.608841 91.6397 -0.449876 93.9591 1.64317 94.7165C9.35299 97.4382 17.0893 100.136 24.7991 102.858C27.2631 103.734 29.0912 99.9233 26.6272 99.0002C21.7788 97.1778 16.9568 95.3318 12.1084 93.5094C74.5553 86.8826 141.745 54.1271 167.895 1.39637C168.424 0.33134 166.702 -0.591684 166.119 0.473344Z" fill="#EC6E5C"/>
</g>
<defs>
<clipPath id="clip0_618_43">
<rect width="168" height="103" fill="white"/>
</clipPath>
</defs>
</svg>
