<svg width="894" height="766" viewBox="0 0 894 766" fill="none" xmlns="http://www.w3.org/2000/svg">
<path opacity="0.3" d="M399.3 765.456C510.834 765.456 601.25 670.379 601.25 553.096C601.25 435.813 510.834 340.737 399.3 340.737C287.766 340.737 197.35 435.813 197.35 553.096C197.35 670.379 287.766 765.456 399.3 765.456Z" fill="url(#paint0_radial_374_2)"/>
<path opacity="0.3" d="M668.65 700.972C793.107 700.972 894 599.661 894 474.688C894 349.715 793.107 248.405 668.65 248.405C544.193 248.405 443.3 349.715 443.3 474.688C443.3 599.661 544.193 700.972 668.65 700.972Z" fill="url(#paint1_radial_374_2)"/>
<path opacity="0.3" d="M257.57 523.883C403.136 523.883 521.14 411.395 521.14 272.635C521.14 133.875 403.136 21.3875 257.57 21.3875C112.004 21.3875 -6 133.875 -6 272.635C-6 411.395 112.004 523.883 257.57 523.883Z" fill="url(#paint2_radial_374_2)"/>
<path opacity="0.3" d="M619.01 434.75C740.115 434.75 838.29 337.505 838.29 217.547C838.29 97.589 740.115 0.34375 619.01 0.34375C497.905 0.34375 399.73 97.589 399.73 217.547C399.73 337.505 497.905 434.75 619.01 434.75Z" fill="url(#paint3_radial_374_2)"/>
<defs>
<radialGradient id="paint0_radial_374_2" cx="0" cy="0" r="1" gradientUnits="userSpaceOnUse" gradientTransform="translate(401.002 555.888) scale(202.393 212.695)">
<stop stop-color="#E66CC5"/>
<stop offset="0.09" stop-color="#E66CC5" stop-opacity="0.96"/>
<stop offset="0.25" stop-color="#E66CC5" stop-opacity="0.85"/>
<stop offset="0.44" stop-color="#E66CC5" stop-opacity="0.66"/>
<stop offset="0.68" stop-color="#E66CC5" stop-opacity="0.41"/>
<stop offset="0.93" stop-color="#E66CC5" stop-opacity="0.09"/>
<stop offset="1" stop-color="#E66CC5" stop-opacity="0"/>
</radialGradient>
<radialGradient id="paint1_radial_374_2" cx="0" cy="0" r="1" gradientUnits="userSpaceOnUse" gradientTransform="translate(667.796 472.416) scale(225.197 225.914)">
<stop stop-color="#6EEFFA"/>
<stop offset="0.12" stop-color="#63F0FA" stop-opacity="0.91"/>
<stop offset="0.37" stop-color="#4AF4FB" stop-opacity="0.67"/>
<stop offset="0.73" stop-color="#21FAFD" stop-opacity="0.3"/>
<stop offset="1" stop-color="#00FFFF" stop-opacity="0"/>
</radialGradient>
<radialGradient id="paint2_radial_374_2" cx="0" cy="0" r="1" gradientUnits="userSpaceOnUse" gradientTransform="translate(256.644 272.05) scale(263.205 251.149)">
<stop stop-color="#FCD28A"/>
<stop offset="0.09" stop-color="#FCD28A" stop-opacity="0.97"/>
<stop offset="0.22" stop-color="#FCD28A" stop-opacity="0.9"/>
<stop offset="0.37" stop-color="#FCD28A" stop-opacity="0.77"/>
<stop offset="0.55" stop-color="#FCD28A" stop-opacity="0.59"/>
<stop offset="0.73" stop-color="#FCD28A" stop-opacity="0.37"/>
<stop offset="0.93" stop-color="#FCD28A" stop-opacity="0.1"/>
<stop offset="1" stop-color="#FCD28A" stop-opacity="0"/>
</radialGradient>
<radialGradient id="paint3_radial_374_2" cx="0" cy="0" r="1" gradientUnits="userSpaceOnUse" gradientTransform="translate(619.87 219.008) scale(219.496 217.502)">
<stop offset="0.2" stop-color="#E798A2"/>
<stop offset="0.29" stop-color="#E798A2" stop-opacity="0.98"/>
<stop offset="0.4" stop-color="#E798A2" stop-opacity="0.92"/>
<stop offset="0.51" stop-color="#E798A2" stop-opacity="0.82"/>
<stop offset="0.63" stop-color="#E798A2" stop-opacity="0.67"/>
<stop offset="0.75" stop-color="#E798A2" stop-opacity="0.49"/>
<stop offset="0.87" stop-color="#E798A2" stop-opacity="0.27"/>
<stop offset="1" stop-color="#E798A2" stop-opacity="0"/>
</radialGradient>
</defs>
</svg>
