<svg width="200" height="200" viewBox="0 0 200 200" fill="none" xmlns="http://www.w3.org/2000/svg">
<g id="balloon 1">
<g id="Group">
<g id="Group_2">
<path id="Vector" d="M97.96 122.31C66.69 122.31 39.89 84.85 39.89 54.18C39.89 23.51 65.94 0.5 97.96 0.5C129.98 0.5 156.03 24.58 156.03 54.18C156.03 83.78 129.24 122.31 97.96 122.31Z" fill="#FFF036"/>
<path id="Vector_2" d="M97.96 1C129.7 1 155.53 24.86 155.53 54.18C155.53 68.88 149.2 85.67 138.59 99.1C127.02 113.75 112.59 121.81 97.96 121.81C83.33 121.81 68.9 113.74 57.33 99.1C46.72 85.67 40.39 68.88 40.39 54.18C40.39 24.86 66.22 1 97.96 1ZM97.96 0C65.61 0 39.39 24.26 39.39 54.18C39.39 84.1 65.61 122.81 97.96 122.81C130.31 122.81 156.53 84.1 156.53 54.18C156.53 24.26 130.3 0 97.96 0Z" fill="black"/>
</g>
<g id="Group_3">
<path id="Vector_3" d="M98.98 0.5C130.77 0.75 156.55 24.73 156.55 54.18C156.55 83.63 130.04 121.91 98.98 122.31V0.5Z" fill="#FF7F4D"/>
<path id="Vector_4" d="M99.48 1.01C130.76 1.5 156.05 25.17 156.05 54.18C156.05 68.88 149.72 85.67 139.11 99.1C127.8 113.41 113.77 121.44 99.48 121.8V1.01ZM98.48 0V122.81C130.82 122.81 157.05 84.11 157.05 54.18C157.05 24.25 130.82 0 98.48 0Z" fill="black"/>
</g>
<g id="Group_4">
<path id="Vector_5" d="M97.44 121.86C83.47 121.86 71.51 84.65 71.51 54.18C71.51 23.71 83.14 0.950001 97.44 0.950001C111.74 0.950001 123.37 24.83 123.37 54.18C123.37 83.53 111.4 121.86 97.44 121.86Z" fill="#64FF00"/>
<path id="Vector_6" d="M97.44 1.45C111.46 1.45 122.87 25.1 122.87 54.18C122.87 83.26 110.9 121.36 97.44 121.36C83.98 121.36 72.01 83.79 72.01 54.18C72.01 24.57 83.42 1.45 97.44 1.45ZM97.44 0.450001C82.85 0.450001 71.01 24.51 71.01 54.18C71.01 83.85 82.85 122.36 97.44 122.36C112.03 122.36 123.87 83.86 123.87 54.18C123.87 24.5 112.03 0.450001 97.44 0.450001Z" fill="black"/>
</g>
<path id="Vector_7" d="M127.61 8.27C125.82 16.99 113.14 23.75 97.78 23.75C82.42 23.75 69.74 17 67.95 8.27C76.69 3.47 86.88 0.720001 97.78 0.720001C108.68 0.720001 118.87 3.47 127.61 8.27Z" fill="#B8EEFF" stroke="black" stroke-miterlimit="10"/>
</g>
<g id="Group_5">
<path id="Vector_8" d="M98.63 153.45C71.62 153.45 57.49 150.83 57.49 149.42C57.49 148.01 71.62 145.39 98.63 145.39C125.64 145.39 139.77 148.01 139.77 149.42C139.77 150.83 125.64 153.45 98.63 153.45Z" fill="#8C6239"/>
<path id="Vector_9" d="M98.63 145.9C122.11 145.9 136.68 147.88 139.06 149.43C136.67 150.98 122.1 152.96 98.63 152.96C75.16 152.96 60.58 150.98 58.2 149.43C60.59 147.88 75.16 145.9 98.63 145.9ZM98.63 144.9C75.63 144.9 56.99 146.93 56.99 149.43C56.99 151.93 75.63 153.96 98.63 153.96C121.63 153.96 140.27 151.93 140.27 149.43C140.27 146.93 121.63 144.9 98.63 144.9Z" fill="black"/>
</g>
<path id="Vector_10" d="M56.99 149.42L50.17 88.75" stroke="black" stroke-miterlimit="10"/>
<path id="Vector_11" d="M138.56 151.08L145.39 90.82" stroke="black" stroke-miterlimit="10"/>
<g id="Group_6">
<path id="Vector_12" d="M116.22 154.87C125.76 152.26 128.11 131.44 126.05 130.76C125.33 130.52 123.59 132.59 119.81 139.71C119.97 139.22 112.62 143.57 112.18 143.98C108.19 146.34 106.44 149.94 107.45 152.25C108.58 154.83 113.12 155.72 116.22 154.87Z" fill="#E57527" stroke="#1D1D1B" stroke-width="0.5" stroke-miterlimit="10"/>
<path id="Vector_13" d="M128.01 137.01C126.96 140.6 119.74 138.59 120.94 135.05C121.99 131.46 129.21 133.47 128.01 137.01Z" fill="#E57527" stroke="#1D1D1B" stroke-width="0.5" stroke-miterlimit="10"/>
<path id="Vector_14" d="M120.91 133.09C120.37 130.72 123.74 130.08 124.23 132.46C124.77 134.83 121.4 135.47 120.91 133.09Z" fill="#E57527" stroke="#1D1D1B" stroke-width="0.5" stroke-miterlimit="10"/>
<path id="Vector_15" d="M123.36 131.56C123.88 129.08 127.61 129.82 127.02 132.28C126.5 134.76 122.77 134.02 123.36 131.56Z" fill="#E57527" stroke="#1D1D1B" stroke-width="0.5" stroke-miterlimit="10"/>
<path id="Vector_16" d="M126.57 131.77C128.82 130.85 130.16 133.88 127.89 134.74C125.64 135.66 124.3 132.63 126.57 131.77Z" fill="#E57527" stroke="#1D1D1B" stroke-width="0.5" stroke-miterlimit="10"/>
<path id="Vector_17" d="M123.63 132.7C126.49 131.5 129.11 137.39 126.2 138.46C123.34 139.66 120.72 133.77 123.63 132.7Z" fill="#E57527"/>
<path id="Vector_18" d="M126.3 138.05C126.36 135.35 121.13 135.35 121.19 138.05C121.13 140.75 126.36 140.75 126.3 138.05Z" fill="#E57527"/>
<path id="Vector_19" d="M122.91 134.49C120.97 136.78 123.94 137.41 125.56 137.77C127.55 136.5 125.12 131.92 122.91 134.49Z" fill="#F2A1AE" stroke="#1D1D1B" stroke-width="0.5" stroke-miterlimit="10"/>
<path id="Vector_20" d="M121.55 132.54C121.47 133.44 122.84 133.89 122.9 132.8C122.98 131.9 121.61 131.45 121.55 132.54Z" fill="#F2A1AE" stroke="#1D1D1B" stroke-width="0.5" stroke-miterlimit="10"/>
<path id="Vector_21" d="M124.28 131.24C123.69 131.96 124.59 133.03 125.27 132.15C125.86 131.43 124.96 130.36 124.28 131.24Z" fill="#F2A1AE" stroke="#1D1D1B" stroke-width="0.5" stroke-miterlimit="10"/>
<path id="Vector_22" d="M127.2 132.6C126.25 132.74 126.11 134.09 127.25 133.9C128.2 133.76 128.34 132.41 127.2 132.6Z" fill="#F2A1AE" stroke="#1D1D1B" stroke-width="0.5" stroke-miterlimit="10"/>
<g id="Group_7">
<g id="Group_8">
<path id="Vector_23" d="M108.14 180.13C110.77 181.51 115.04 183.31 120.49 183.62C126.2 183.94 133.04 182.62 133.13 181.03C133.22 179.44 126.57 177.33 120.6 177.26C115.14 177.2 110.77 178.86 108.14 180.13Z" fill="#E57527"/>
<path id="Vector_24" d="M108.14 180.13C114.03 183.15 120.77 184.07 127.27 183.09C128.87 182.84 130.5 182.55 131.96 181.86C132.4 181.65 132.93 181.28 132.87 180.96C132.83 180.61 132.33 180.24 131.9 179.98C130.5 179.18 128.91 178.72 127.34 178.33C120.95 176.75 114.12 177.31 108.13 180.13H108.14ZM108.14 180.13C114.01 177.05 121.01 176.31 127.45 177.89C129.32 178.37 131.32 178.84 132.87 180.07C133.08 180.28 133.33 180.52 133.37 180.91C133.28 182.78 128.81 183.26 127.33 183.54C120.78 184.51 113.89 183.4 108.13 180.13H108.14Z" fill="#1D1D1B"/>
</g>
<g id="Group_9">
<path id="Vector_25" d="M118.75 182.04C118.75 185.69 130.49 185.69 130.33 182.04C130.49 178.39 118.75 178.27 118.75 182.04Z" fill="#E57527"/>
<path id="Vector_26" d="M118.75 182.04C118.9 185.64 129.94 185.47 130.08 182.04C129.92 178.59 118.87 178.35 118.75 182.04ZM118.75 182.04C118.9 178.24 130.58 178.01 130.58 182.05C130.59 186 118.97 185.78 118.75 182.04Z" fill="#1D1D1B"/>
</g>
<g id="Group_10">
<path id="Vector_27" d="M114.22 182.46C116.83 189.06 132.89 181.19 121.06 179.15L114.22 182.46Z" fill="#E57527"/>
<path id="Vector_28" d="M114.22 182.46C116.29 187.87 129.98 182.57 123.29 179.85C122.58 179.54 121.82 179.36 121.06 179.15C122.6 179.4 124.39 179.55 125.38 180.96C126.13 182.72 123.9 183.93 122.58 184.52C119.84 185.63 115.38 185.82 114.22 182.46Z" fill="#1D1D1B"/>
</g>
</g>
<g id="Group_11">
<g id="Group_12">
<path id="Vector_29" d="M90.73 179.31C88.1 180.69 83.83 182.49 78.38 182.8C72.67 183.12 65.83 181.8 65.74 180.21C65.65 178.62 72.3 176.51 78.27 176.44C83.73 176.38 88.1 178.04 90.73 179.31Z" fill="#E57527"/>
<path id="Vector_30" d="M90.73 179.31C84.97 182.58 78.08 183.69 71.53 182.72C70.05 182.44 65.59 181.96 65.49 180.09C65.54 179.69 65.78 179.45 65.99 179.25C67.54 178.02 69.53 177.55 71.41 177.07C77.86 175.49 84.85 176.23 90.72 179.31H90.73ZM90.73 179.31C84.74 176.49 77.91 175.93 71.52 177.51C69.95 177.9 68.36 178.36 66.96 179.16C66.53 179.42 66.04 179.79 65.99 180.14C65.94 180.46 66.46 180.82 66.9 181.04C68.36 181.73 69.99 182.02 71.59 182.27C78.09 183.25 84.84 182.33 90.72 179.31H90.73Z" fill="#1D1D1B"/>
</g>
<g id="Group_13">
<path id="Vector_31" d="M80.1199 181.22C80.2799 184.87 68.3799 184.87 68.5399 181.22C68.3799 177.57 80.2799 177.57 80.1199 181.22Z" fill="#E57527"/>
<path id="Vector_32" d="M80.12 181.22C80.07 184.95 68.25 185.19 68.29 181.21C68.24 177.29 80.03 177.45 80.12 181.22ZM80.12 181.22C80.1 177.59 68.91 177.82 68.79 181.22C68.9 184.61 80.09 184.85 80.12 181.22Z" fill="#1D1D1B"/>
</g>
<g id="Group_14">
<path id="Vector_33" d="M84.46 181.58C81.85 188.18 65.79 180.31 77.62 178.27L84.46 181.58Z" fill="#E57527"/>
<path id="Vector_34" d="M84.46 181.58C83.29 184.94 78.84 184.75 76.1 183.64C74.78 183.06 72.55 181.84 73.3 180.08C74.29 178.66 76.08 178.51 77.62 178.27C76.86 178.48 76.1 178.65 75.39 178.97C68.71 181.69 82.4 186.99 84.46 181.58Z" fill="#1D1D1B"/>
</g>
</g>
<g id="Group_15">
<path id="Vector_35" d="M106.84 148.38C103.4 150.72 110.22 141.48 105.01 143C105.67 142.15 107.63 137.53 104.67 138.69C105.5 137.46 107.49 130.42 103.75 131.69C105.21 130.21 107.76 123.66 103.03 124.42C105.16 122.22 104.84 112.88 101.07 112.04C102.08 109.75 101.19 104.88 98.3101 103.88C98.9001 97.39 89.4401 92.37 83.8901 93.03C76.2901 88.19 61.2801 88.09 56.2801 97.45C44.8301 100.1 30.0601 121.23 45.9701 128.43C47.3101 129.38 48.8701 131.89 50.8901 130.28C52.4601 131.09 54.7301 135.16 56.6001 131.67C59.3401 134.12 61.4201 129.88 64.4101 133.58C64.8601 133.22 63.1301 138 65.4901 136.72C64.8101 139.13 67.9301 144.11 69.5201 146.66C69.3701 150.26 71.1101 154.98 74.2601 156.92C72.6501 158.56 73.5601 163.88 75.5201 164.99C72.9601 166.83 79.0701 173.18 79.7801 168.79C80.2601 170.12 81.9701 173.21 83.8801 171.47C85.8901 172.78 88.6801 173.81 89.4601 170.8C90.4101 173.71 98.3901 173.11 98.7201 170.41C100.81 171.84 104.38 163.59 103.14 162.67C105.72 161.13 103.63 156.28 104.73 155.58C104.54 154.02 104.84 150.3 106.86 148.4L106.84 148.38Z" fill="#E57527"/>
<path id="Vector_36" d="M106.84 148.38C105.73 149.16 105.67 148.63 106.01 147.61C106.4 146.25 107.26 144.83 106.93 143.4C106.6 142.6 105.57 142.9 104.92 143.06C105.68 142.03 107.49 137.7 104.68 138.75L104.54 138.8L104.62 138.67C105.52 137.14 107.33 130.65 103.77 131.79L103.46 131.89L103.68 131.65C105.3 129.83 107.41 123.9 103.04 124.56L102.72 124.6L102.93 124.35C105.02 121.68 104.71 113.36 101.03 112.19L100.87 112.15C101.21 111.41 101.32 110.58 101.32 109.75C101.27 107.53 100.42 104.79 98.1401 103.99C98.5101 100.56 95.9501 97.65 93.2501 95.88C90.4901 94.11 87.14 92.91 83.84 93.21C79.4701 90.53 74.1201 89.63 69.0601 90.12C64.0301 90.6 58.8001 92.98 56.4301 97.64C49.7501 99.46 44.4301 104.98 41.2701 110.99C37.7701 117.65 38.6001 125.02 46.0701 128.23C47.4601 129.22 48.9401 131.58 50.7601 130.11L50.8801 130.02C51.5101 130.35 51.9801 130.84 52.4501 131.28C53.7801 132.62 55.2801 133.81 56.4201 131.58L56.5601 131.35C57.7301 132.6 59.1301 132.32 60.6301 131.91C62.1401 131.45 63.6901 132.26 64.5801 133.46L64.3001 133.43C64.4801 133.29 64.7101 133.42 64.7001 133.64C64.67 134.58 64.1401 135.82 64.6001 136.66C64.8301 136.92 65.4901 136.5 65.7901 136.34C65.4801 137.32 65.6101 138.35 65.9401 139.35C66.7901 141.93 68.2601 144.26 69.6801 146.57C69.6801 150.41 71.1101 154.77 74.5201 156.89C72.7901 158.76 73.6201 163.42 75.6001 164.86L75.8101 164.99L75.6101 165.12C73.8801 166.59 76.6101 169.92 78.3201 170.15C79.3801 170.29 79.6001 169.07 79.7301 168.26C80.1101 169.31 80.6101 170.38 81.3901 171.17C82.0301 171.89 83.0601 172.09 83.7801 171.36L83.8601 171.29L83.9501 171.35C86.0101 172.72 88.8301 173.66 89.4401 170.37L89.5701 170.76C90.5501 173.45 97.9701 173.15 98.6201 170.4L98.6401 170.25L98.7601 170.34C100.75 171.54 104.18 164.03 103.09 162.72L103.03 162.66L103.09 162.62C105.11 161.25 104.23 158.48 104.34 156.43C104.35 156.17 104.46 155.64 104.68 155.58C104.51 153.07 105 150.24 106.84 148.4V148.38ZM106.84 148.38C105.02 150.24 104.55 153.07 104.74 155.57C104.47 155.75 104.44 156.11 104.4 156.42C104.32 158.5 105.21 161.3 103.15 162.7V162.61C103.34 162.76 103.39 163 103.42 163.21C103.47 164.69 102.83 166.11 102.23 167.44C101.59 168.6 100.26 171.29 98.6501 170.48L98.8001 170.41C98.0901 173 93.5801 173.1 91.4601 172.53C90.6001 172.28 89.6601 171.78 89.3301 170.83H89.5801C88.8701 173.9 85.7001 172.9 83.8001 171.57L83.9701 171.56C82.0501 173.27 80.2301 170.49 79.6401 168.83L79.9201 168.8C79.8301 169.61 79.2401 170.6 78.2901 170.43C76.2901 170.15 73.4301 166.52 75.4301 164.86L75.4401 165.12C74.7501 164.69 74.3401 164.01 74.0301 163.33C73.2301 161.31 72.7201 158.66 74.1401 156.79L74.1701 157.05C70.84 154.96 69.1701 150.11 69.3601 146.74C67.9201 144.41 66.4401 142.06 65.5601 139.44C65.2901 138.56 65.0701 137.62 65.3001 136.64L65.5801 136.87C63.3201 138.01 64.1501 134.78 64.2801 133.64V133.63C64.2801 133.64 64.2801 133.67 64.3001 133.68C64.3001 133.72 64.4601 133.78 64.4701 133.75C64.6601 133.72 64.2401 133.7 64.2401 133.7C63.3701 132.59 62.1101 131.88 60.6801 132.3C59.3201 132.71 57.5601 132.99 56.4401 131.82L56.7701 131.76C55.4701 134.27 53.6301 133.15 52.1201 131.58C51.6801 131.17 51.2501 130.73 50.7701 130.47L51.0101 130.45C50.6001 130.77 50.0901 131.02 49.5401 131.02C47.9401 130.98 46.9501 129.42 45.8201 128.62C38.2201 125.35 37.1201 117.75 40.8201 110.77C44.0601 104.65 49.4001 99.15 56.2201 97.24C57.9601 93.07 64.0701 90.06 69.0101 89.72C74.1501 89.25 79.5301 90.16 83.9701 92.87C86.7401 92.48 90.7801 93.8 93.4201 95.59C96.18 97.4 98.7601 100.37 98.4501 103.89L98.3501 103.73C99.1301 104 99.7701 104.56 100.24 105.21C101.58 107.17 102.02 109.84 101.19 112.09L101.09 111.89C105.02 113.1 105.32 121.71 103.11 124.5L103 124.29C107.64 123.62 105.61 129.77 103.8 131.74L103.71 131.6C107.56 130.47 105.68 137.03 104.71 138.71L104.65 138.63C105.12 138.48 105.73 138.28 106.11 138.74C106.57 139.7 106.07 140.77 105.74 141.68C105.54 142.14 105.33 142.6 105.03 143.02L105 142.97C105.65 142.8 106.67 142.57 106.98 143.37C107.3 144.84 106.42 146.23 106.03 147.61C105.66 148.66 105.77 149.13 106.84 148.38Z" fill="#1D1D1B"/>
</g>
<g id="Group_16">
<path id="Vector_37" d="M40.8 125.07C40.99 126.03 42.7301 133.12 45.3801 129.36C44.8201 133 58.97 139.67 60.64 133.85C63.33 138.36 79.2001 131.58 72.6601 128.04C77.9001 122.27 63.1401 115.36 61.9701 119.94C59.1201 120.18 59.07 121.43 60.7701 122.97C55.84 124.62 63.81 127.9 65.34 125.84" fill="#E57527"/>
<path id="Vector_38" d="M40.8 125.07C41.22 126.95 42.94 132.68 45.29 129.3L45.51 128.99L45.47 129.38C45.4 130.13 45.88 130.82 46.38 131.39C47.99 133.1 50.15 134.22 52.32 135.05C54.95 136.01 59.76 137.11 60.55 133.37L60.79 133.76C62.82 137.19 74.16 133.53 73.94 129.78C73.8 129.02 73 128.48 72.29 128.11C72.86 127.51 73.35 126.79 73.49 125.98C73.87 122.13 69.13 119.59 65.9 118.79C64.57 118.51 62.56 118.4 62.08 119.99L62.05 120.09C61.61 120.14 61.16 120.17 60.74 120.3C58.89 120.78 60.04 122.21 60.96 123.03C55.91 124.5 63.66 127.88 65.31 125.85C64.24 127.63 57.1 125.53 59.63 123.4C59.96 123.16 60.34 123.02 60.71 122.88L60.67 123.08C59.55 122.16 58.73 120.58 60.67 120.05C61.09 119.92 61.51 119.87 61.94 119.82L61.81 119.93C63.05 116.71 68.26 119 70.29 120.29C72.98 121.9 75.48 125.41 72.8 128.21L72.74 127.86C74.54 128.73 75.02 130.49 73.51 132C70.65 134.64 66.29 136.09 62.45 135.36C61.67 135.15 60.89 134.71 60.45 133.97L60.81 133.92C59.6 137.48 54.88 136.34 52.21 135.35C49.86 134.37 45.29 132.28 45.26 129.36L45.45 129.44C42.88 132.94 41.17 127.14 40.79 125.09L40.8 125.07Z" fill="#1D1D1B"/>
</g>
<path id="Vector_39" d="M112.46 143.89C115.27 145.16 116.72 147.99 115.59 150.36C118.24 149.54 118.35 152.64 117.98 156.21C118.93 154.68 120.5 157.25 119.17 158.45C120.84 157.98 121.69 160.3 120.44 161.31C122.17 159.81 121.6 163.77 120.89 164.69C125.2 163.55 119.59 176.78 118.38 173.59C114.8 181.09 105.84 178.15 98.7901 176.89C92.2801 177.88 82.9101 180.62 79.8901 173.39C78.6501 176.57 73.1001 163.35 77.3701 164.49C76.6501 163.56 76.0801 159.6 77.8201 161.11C76.5701 160.1 77.4201 157.78 79.0901 158.25C77.7601 157.05 79.3301 154.48 80.2801 156.01C79.4001 155.02 80.8601 148.69 82.6701 150.16C80.3801 139.12 104.84 139.96 112.46 143.89Z" fill="#E57527" stroke="#1D1D1B" stroke-width="0.5" stroke-miterlimit="10"/>
<g id="Group_17">
<path id="Vector_40" d="M109.18 153.64C116.06 159.76 121.09 176.62 110.21 181.32C102.8 184.52 92.91 184.69 87.34 178.52C77.51 167.4 90.64 141.28 109.18 153.64Z" fill="#FFF6BD"/>
<path id="Vector_41" d="M109.18 153.64C114.98 159.12 119.1 170.02 114.94 177.45C112.61 181.34 107.86 182.61 103.67 183.39C99.38 184.07 94.77 183.73 90.86 181.61C82.46 177.25 82.24 165.67 86.76 158.39C91.71 149.85 101.18 147.95 109.18 153.64ZM109.18 153.64C101.19 148.07 91.82 149.99 86.98 158.52C82.64 165.7 82.87 176.95 91.1 181.18C94.86 183.26 99.38 183.66 103.62 183.02C107.72 182.3 112.42 181.11 114.73 177.32C118.91 170 114.88 159.12 109.18 153.64Z" fill="#1D1D1B"/>
</g>
<path id="Vector_42" d="M94.26 119.09C95.8 128.68 88.68 136.44 87.06 138.12C103.47 138.63 107.21 115.25 97.97 107.36C95.9 96.2 62.96 87.86 56.26 99.77C68.03 96.92 91.92 102.76 94.26 119.09Z" fill="#D56E34"/>
<g id="Group_18">
<g id="Group_19">
<path id="Vector_43" d="M110.77 115.6C112.8 109.65 112.33 93.58 114.21 107.44C115.99 110.9 112.69 123.8 110.77 115.6Z" fill="#F5B7D4"/>
<path id="Vector_44" d="M110.77 115.6C111.99 111.26 111.79 106.69 112.62 102.27C112.71 102.05 112.7 101.78 113.08 101.73C113.29 101.76 113.33 101.87 113.38 101.92C114.05 103.55 114.23 105.93 114.43 107.33C115.52 110.35 114.8 113.65 113.8 116.58C112.46 119.83 111.22 118.09 110.78 115.6H110.77ZM110.77 115.6C112.66 122.49 114.55 113.54 114.48 111.07C114.52 109.85 114.48 108.56 113.97 107.51C113.66 105.74 113.56 103.86 112.97 102.18C112.96 102.15 112.93 102.18 113.04 102.19C113.18 102.17 113.14 102.14 113.14 102.17C113.11 102.22 113.08 102.31 113.05 102.4C112.22 106.77 112.24 111.36 110.76 115.6H110.77Z" fill="#1D1D1B"/>
</g>
<g id="Group_20">
<path id="Vector_45" d="M108.14 110.18C111.47 101.96 115.34 95.79 112.1 108.4C111.49 114.16 111.68 116.1 108.14 110.18Z" fill="#E57527"/>
<path id="Vector_46" d="M108.14 110.18C109.18 107.4 110.25 104.62 111.84 102.08C112.13 101.69 112.4 101.17 112.93 101C114.04 100.9 113.37 103.47 113.32 104.11C113.08 105.53 112.66 107.16 112.32 108.42L112.04 110.98C111.53 116.62 109.62 112.79 108.13 110.18H108.14ZM108.14 110.18C108.55 110.68 110.67 114.45 111.21 113.41C111.69 112.09 111.68 109.79 111.88 108.36C112.32 106.12 113.25 103.66 113.01 101.44C112.73 101.58 112.43 101.99 112.2 102.33C110.6 104.79 109.37 107.52 108.14 110.19V110.18Z" fill="#1D1D1B"/>
</g>
</g>
<g id="Group_21">
<g id="Group_22">
<path id="Vector_47" d="M86.13 115.6C84.1 109.65 84.57 93.58 82.69 107.44C80.91 110.9 84.21 123.8 86.13 115.6Z" fill="#F5B7D4"/>
<path id="Vector_48" d="M86.13 115.6C84.65 111.36 84.67 106.77 83.84 102.4C83.81 102.31 83.78 102.22 83.75 102.17C83.75 102.15 83.71 102.17 83.85 102.19C83.95 102.17 83.93 102.15 83.92 102.18C83.33 103.85 83.24 105.73 82.92 107.51C82.42 108.56 82.38 109.85 82.41 111.07C82.34 113.53 84.24 122.49 86.12 115.6H86.13ZM86.13 115.6C85.7 118.06 84.46 119.85 83.11 116.58C82.11 113.65 81.39 110.36 82.48 107.33C82.68 105.93 82.86 103.55 83.53 101.92C83.57 101.87 83.62 101.76 83.83 101.73C84.2 101.78 84.2 102.05 84.29 102.27C85.12 106.69 84.92 111.26 86.14 115.6H86.13Z" fill="#1D1D1B"/>
</g>
<g id="Group_23">
<path id="Vector_49" d="M88.7501 110.18C85.4201 101.96 81.5501 95.79 84.7901 108.4C85.4001 114.16 85.2101 116.1 88.7501 110.18Z" fill="#E57527"/>
<path id="Vector_50" d="M88.7501 110.18C87.5201 107.51 86.2901 104.78 84.6901 102.32C84.4601 101.99 84.1601 101.58 83.8801 101.43C83.6401 103.66 84.5701 106.12 85.0101 108.36C85.2101 109.79 85.2001 112.08 85.6801 113.4C86.2201 114.46 88.3601 110.66 88.7501 110.17V110.18ZM88.7501 110.18C87.2601 112.79 85.35 116.63 84.84 110.98L84.5601 108.42C84.2201 107.16 83.8101 105.53 83.5601 104.11C83.5001 103.47 82.8501 100.9 83.9501 101C84.4801 101.17 84.7501 101.69 85.0401 102.08C86.6301 104.62 87.7001 107.39 88.7401 110.18H88.7501Z" fill="#1D1D1B"/>
</g>
</g>
<g id="Vector_51">
<path d="M113.3 136.4C112.01 134.44 115.26 134.61 113.74 133.22C114.69 132.61 115.9 131.68 115.83 130.53C114.93 130.49 117.07 125.59 115.31 125.78C116.66 125.27 117.43 122.94 115.47 122.87C116.2 121.75 116.8 119.63 114.48 120.24C115.23 119.32 114.96 117.47 113.44 118.1C114.34 117.52 114.81 114.94 113.17 116.4C115.16 115 112.17 112.19 110.77 113.22C111.82 111.68 111 110.32 108.97 111.42C110.36 109.26 105.48 107.57 104.51 109.82C104.47 107.92 103.73 107.13 102.48 109.11C102.58 108.48 100.24 106.71 100.12 106.15C100.12 106.15 100.52 111.1 99.3101 109.23C97.7601 106.36 96.8901 106.92 95.7901 109.11C93.4501 106.58 94.7501 109.92 91.0801 108.66C91.7301 110.27 85.5401 110.15 87.5001 113.23C86.0401 112.22 83.1601 115 85.0901 116.41C83.4501 114.96 83.9301 117.52 84.8201 118.11C83.3001 117.48 83.0301 119.33 83.7801 120.25C81.4601 119.64 82.0601 121.76 82.7901 122.88C80.8201 122.96 81.6001 125.28 82.9501 125.8C81.1901 125.61 83.3201 130.53 82.4301 130.55C82.3601 131.7 83.5801 132.63 84.5301 133.24C82.9901 134.66 86.2701 134.39 84.9701 136.42" fill="#E57527"/>
<path d="M113.3 136.4C112.01 134.44 115.26 134.61 113.74 133.22C114.69 132.61 115.9 131.68 115.83 130.53C114.93 130.49 117.07 125.59 115.31 125.78C116.66 125.27 117.43 122.94 115.47 122.87C116.2 121.75 116.8 119.63 114.48 120.24C115.23 119.32 114.96 117.47 113.44 118.1C114.34 117.52 114.81 114.94 113.17 116.4C115.16 115 112.17 112.19 110.77 113.22C111.82 111.68 111 110.32 108.97 111.42C110.36 109.26 105.48 107.57 104.51 109.82C104.47 107.92 103.73 107.13 102.48 109.11C102.58 108.48 100.24 106.71 100.12 106.15C100.12 106.15 100.52 111.1 99.3101 109.23C97.7601 106.36 96.8901 106.92 95.7901 109.11C93.4501 106.58 94.7501 109.92 91.0801 108.66C91.7301 110.27 85.5401 110.15 87.5001 113.23C86.0401 112.22 83.1601 115 85.0901 116.41C83.4501 114.96 83.9301 117.52 84.8201 118.11C83.3001 117.48 83.0301 119.33 83.7801 120.25C81.4601 119.64 82.0601 121.76 82.7901 122.88C80.8201 122.96 81.6001 125.28 82.9501 125.8C81.1901 125.61 83.3201 130.53 82.4301 130.55C82.3601 131.7 83.5801 132.63 84.5301 133.24C82.9901 134.66 86.2701 134.39 84.9701 136.42" stroke="#1D1D1B" stroke-width="0.5" stroke-miterlimit="10"/>
</g>
<path id="Vector_52" d="M96.9401 137.36C96.0901 134.75 98.2001 122.93 94.2201 118.21L97.4101 121.63L96.4401 114.54L98.4501 120.81C100.23 113.54 100.13 112.37 100.09 120.81L103.47 117.29L101.81 121.86L104.5 118.85C98.2501 122.87 106 142.29 96.9501 137.35L96.9401 137.36Z" fill="#D56E34"/>
<g id="Group_24">
<path id="Vector_53" d="M100.37 144.79C132.72 136.46 93.7402 123.45 85.2902 136.1C86.0602 139.89 92.8202 145.25 100.37 144.79Z" fill="#FFF6BD"/>
<path id="Vector_54" d="M100.37 144.79C103.86 143.84 116.04 140.53 112.07 135.29C110.78 133.85 108.92 133.03 107.1 132.41C103.39 131.19 99.4201 130.84 95.5501 131.21C91.8101 131.47 87.4401 133.29 85.4501 136.06C87.3501 141.88 94.5901 145.01 100.38 144.78L100.37 144.79ZM100.37 144.79C95.7301 145.04 91.0201 143.25 87.6401 140.06C86.5101 138.97 85.5201 137.66 85.1201 136.08C87.3501 132.63 91.5701 131.18 95.4801 130.75C100.99 130.28 108.21 130.99 112.27 135.12C116.29 140.68 104.03 143.79 100.36 144.79H100.37Z" fill="#1D1D1B"/>
</g>
<g id="Group_25">
<path id="Vector_55" d="M96.04 128.84C95.94 131.82 91.56 131.64 91.75 128.66C91.85 125.68 96.23 125.86 96.04 128.84Z" fill="#95C35A" stroke="#1D1D1B" stroke-width="0.25" stroke-miterlimit="10"/>
<path id="Vector_56" d="M95.43 129.12C95.34 131.55 92.19 131.42 92.33 128.99C92.42 126.56 95.57 126.69 95.43 129.12Z" fill="black"/>
</g>
<path id="Vector_57" d="M93.2501 128.49C93.2501 128.82 92.7001 128.82 92.7101 128.49C92.7101 128.16 93.2601 128.16 93.2501 128.49Z" fill="white"/>
<g id="Group_26">
<path id="Vector_58" d="M99.3401 140.43C96.6101 141.45 98.0501 137.45 97.7001 136.32H99.3401V140.43Z" fill="#FFF3CF" stroke="#1D1D1B" stroke-width="0.25" stroke-miterlimit="10"/>
<path id="Vector_59" d="M100.98 140.43C98.2501 141.45 99.6901 137.45 99.3401 136.32H100.98V140.43Z" fill="#FFF3CF" stroke="#1D1D1B" stroke-width="0.25" stroke-miterlimit="10"/>
</g>
<g id="Group_27">
<g id="Vector_60">
<path d="M99.37 134.48C101.78 140.15 91.35 140.98 93.99 135.55L99.37 134.48Z" fill="#FFF6BD"/>
<path d="M99.37 134.48C101.78 140.15 91.35 140.98 93.99 135.55" stroke="#1D1D1B" stroke-width="0.25" stroke-miterlimit="10"/>
</g>
<g id="Vector_61">
<path d="M104.75 135.53C107.46 140.84 97.0101 140.23 99.3701 134.61L104.75 135.53Z" fill="#FFF6BD"/>
<path d="M104.75 135.53C107.46 140.84 97.0101 140.23 99.3701 134.61" stroke="#1D1D1B" stroke-width="0.25" stroke-miterlimit="10"/>
</g>
</g>
<path id="Vector_62" d="M43.7501 109.57C36.6601 114.67 43.8501 132.53 53.9401 131.84C45.0701 128.74 41.0601 113.36 43.7501 109.57Z" fill="#D56E34"/>
<path id="Vector_63" d="M105.37 142.11C105.94 142.48 111.5 137.34 110.86 136.63C111.79 138.19 107.27 142.73 105.37 142.11Z" fill="#E9E3BA"/>
<path id="Vector_64" d="M93.5001 141.1C92.9301 141.47 87.3701 136.33 88.0101 135.62C87.0801 137.18 91.6001 141.72 93.5001 141.1Z" fill="#E9E3BA"/>
<path id="Vector_65" d="M95.5901 180.76C97.5901 182.35 115.17 175.45 115.05 171.61C115.83 178.34 98.8701 183.77 95.5901 180.76Z" fill="#E9E3BA"/>
<g id="Group_28">
<path id="Vector_66" d="M102 128.84C102.1 131.82 106.48 131.64 106.29 128.66C106.19 125.68 101.81 125.86 102 128.84Z" fill="#83CACA" stroke="#1D1D1B" stroke-width="0.25" stroke-miterlimit="10"/>
<path id="Vector_67" d="M102.61 129.12C102.7 131.55 105.85 131.42 105.71 128.99C105.62 126.56 102.47 126.69 102.61 129.12Z" fill="black" stroke="#1D1D1B" stroke-width="0.25" stroke-miterlimit="10"/>
</g>
<g id="Vector_68">
<path d="M99.26 133.44C104 131.26 101.97 134.72 99.31 135.67C96.89 134.77 94.67 131.14 99.27 133.44" fill="url(#paint0_radial_121_2018)"/>
<path d="M99.26 133.44C104 131.26 101.97 134.72 99.31 135.67C96.89 134.77 94.67 131.14 99.27 133.44" stroke="#1D1D1B" stroke-width="0.5" stroke-miterlimit="10"/>
</g>
<path id="Vector_69" d="M120.85 148.64C120.97 141.07 110.06 141.07 110.18 148.64C110.06 156.21 120.97 156.21 120.85 148.64Z" fill="#E57527"/>
<path id="Vector_70" d="M113 101.21C113 101.21 110.26 97.05 110.18 96.75C110.1 96.45 113.32 98.45 113.32 98.45L113 91.77L114.72 97.95L116.66 93.97L115.97 98.95L117.96 99.65L113.01 101.22L113 101.21Z" fill="#A26F14" stroke="#1D1D1B" stroke-width="0.5" stroke-miterlimit="10"/>
<g id="Group_29">
<path id="Vector_71" d="M84.6401 101.21C84.6401 101.21 87.3801 97.05 87.4601 96.75C87.5401 96.45 84.3201 98.45 84.3201 98.45L84.6401 91.77L82.9201 97.95L80.9801 93.97L81.6701 98.95L79.6801 99.65L84.6301 101.22L84.6401 101.21Z" fill="#A26F14"/>
<path id="Vector_72" d="M84.64 101.21C85.55 99.72 86.5 98.26 87.33 96.73C87.31 96.8 87.39 96.85 87.42 96.85L87.38 96.86C86.25 97.39 85.19 98.12 84.13 98.78L84.14 98.44C84.21 96.21 84.32 93.98 84.41 91.76L84.87 91.83C84.25 94.09 83.64 96.36 82.99 98.62C82.9 98.44 80.95 94.4 80.8 94.07L81.21 93.94L81.84 98.92C81.86 99.07 81.89 99.04 81.74 99.09L79.74 99.76V99.52L84.65 101.21H84.64ZM84.64 101.21L79.65 99.76L79.28 99.65L79.65 99.51L81.63 98.78L81.53 98.95L80.78 93.98L80.57 92.6C80.97 93.42 82.71 96.93 83.15 97.82L82.71 97.86C83.43 95.16 84.24 92.37 85 89.68C84.84 92.57 84.7 95.55 84.51 98.43L84.24 98.27C85.29 97.69 86.28 96.99 87.41 96.57C87.48 96.55 87.63 96.62 87.61 96.74C86.74 98.29 85.65 99.7 84.66 101.18L84.64 101.21Z" fill="#1D1D1B"/>
</g>
<g id="Group_30">
<g id="Vector_73">
<path d="M82.5701 153.14C82.4201 153.59 81.4301 155.93 82.9301 155.36C76.6001 166.78 112.93 178.12 91.4101 160.47C91.8301 160.8 90.4001 152.75 90.1601 152.2" fill="#E57527"/>
<path d="M82.5701 153.14C82.4201 153.59 81.4301 155.93 82.9301 155.36C76.6001 166.78 112.93 178.12 91.4101 160.47C91.8301 160.8 90.4001 152.75 90.1601 152.2" stroke="#1D1D1B" stroke-width="0.5" stroke-miterlimit="10"/>
</g>
<path id="Vector_74" d="M99.35 167.83C99.38 170.25 95.94 170.25 95.97 167.83C95.94 165.41 99.38 165.41 99.35 167.83Z" fill="#E57527" stroke="#1D1D1B" stroke-width="0.5" stroke-miterlimit="10"/>
<path id="Vector_75" d="M97.3001 169.39C97.3301 171.91 93.5201 171.91 93.5601 169.39C93.5301 166.87 97.3401 166.87 97.3001 169.39Z" fill="#E57527" stroke="#1D1D1B" stroke-width="0.5" stroke-miterlimit="10"/>
<path id="Vector_76" d="M94.6201 168.6C94.6501 170.9 91.1701 170.9 91.2001 168.6C91.1701 166.3 94.6501 166.3 94.6201 168.6Z" fill="#E57527" stroke="#1D1D1B" stroke-width="0.5" stroke-miterlimit="10"/>
<path id="Vector_77" d="M96.8301 166.48C96.9001 169.42 90.1101 169.42 90.1801 166.48C90.1101 163.54 96.9001 163.54 96.8301 166.48Z" fill="#E57527"/>
</g>
<path id="Vector_78" d="M103.27 128.08C103.27 128.41 102.72 128.41 102.73 128.08C102.73 127.75 103.28 127.75 103.27 128.08Z" fill="white"/>
</g>
<g id="Group_31">
<path id="Vector_79" d="M98.11 198.32C71.1 198.32 56.98 195.7 56.98 194.29V150.23C61.82 153.01 83.18 154.05 98.11 154.05C113.04 154.05 134.41 153.01 139.25 150.23V194.29C139.25 195.7 125.12 198.32 98.11 198.32Z" fill="#D8A96C"/>
<path id="Vector_80" d="M138.76 151.1V194.13C137.17 195.7 122.42 197.82 98.12 197.82C73.82 197.82 59.07 195.7 57.49 194.13V151.1C59.23 151.8 62.49 152.55 68.58 153.21C76.48 154.07 86.98 154.54 98.13 154.54C109.28 154.54 119.78 154.07 127.69 153.21C133.78 152.55 137.04 151.8 138.78 151.1M139.78 149.02C139.78 151.52 121.14 153.55 98.14 153.55C75.14 153.55 56.51 151.52 56.51 149.02V194.29C56.51 196.8 75.15 198.82 98.14 198.82C121.13 198.82 139.78 196.8 139.78 194.29V149.02Z" fill="black"/>
</g>
<g id="Group_32">
<path id="Vector_81" d="M65.97 170.8C65.97 176.5 62.2699 181.12 57.7099 181.12C53.1499 181.12 49.45 176.5 49.45 170.8C49.45 165.1 53.1499 153.26 57.7099 153.26C62.2699 153.26 65.97 165.1 65.97 170.8Z" fill="#F4F93D" stroke="black" stroke-miterlimit="10"/>
<path id="Vector_82" d="M57.19 156.35C59.1837 156.35 60.8 154.734 60.8 152.74C60.8 150.746 59.1837 149.13 57.19 149.13C55.1962 149.13 53.58 150.746 53.58 152.74C53.58 154.734 55.1962 156.35 57.19 156.35Z" fill="#F4F93D" stroke="black" stroke-miterlimit="10"/>
</g>
<g id="Group_33">
<path id="Vector_83" d="M106.22 174.93C106.22 180.63 102.52 185.25 97.96 185.25C93.4 185.25 89.7 180.63 89.7 174.93C89.7 169.23 93.4 157.39 97.96 157.39C102.52 157.39 106.22 169.23 106.22 174.93Z" fill="#F4F93D" stroke="black" stroke-miterlimit="10"/>
<path id="Vector_84" d="M97.44 160.48C99.4337 160.48 101.05 158.864 101.05 156.87C101.05 154.876 99.4337 153.26 97.44 153.26C95.4462 153.26 93.83 154.876 93.83 156.87C93.83 158.864 95.4462 160.48 97.44 160.48Z" fill="#F4F93D" stroke="black" stroke-miterlimit="10"/>
</g>
<path id="Vector_85" d="M61.32 18.58C57.97 21.16 52.53 26.11 48.94 34.06C41.76 49.94 47.68 65.07 48.94 68.12C48.34 63.31 48.09 57.33 48.94 50.58C50.82 35.65 57.13 24.66 61.32 18.59V18.58Z" fill="#FFF6BD" stroke="#FCEE21" stroke-width="0.25" stroke-miterlimit="10"/>
<path id="Vector_86" d="M124.28 94.95C123.65 94.13 135.6 87.6 143.89 72.25C149.75 61.4 150.36 52.49 151.11 52.64C152.01 52.82 152.75 65.79 145.95 77.41C138.4 90.31 124.92 95.79 124.28 94.95Z" fill="#C66344"/>
<path id="Vector_87" d="M105.7 194.02C105.54 192.83 115.79 193.44 124.28 185.76C132.74 178.11 133.17 167.9 134.6 168.22C136.21 168.57 138.11 182.01 130.47 189.89C121.82 198.81 105.9 195.48 105.7 194.02Z" fill="#A88356"/>
<g id="Group_34">
<path id="Vector_88" d="M147.5 170.8C147.5 176.5 143.8 181.12 139.24 181.12C134.68 181.12 130.98 176.5 130.98 170.8C130.98 165.1 134.68 153.26 139.24 153.26C143.8 153.26 147.5 165.1 147.5 170.8Z" fill="#F4F93D" stroke="black" stroke-miterlimit="10"/>
<path id="Vector_89" d="M138.72 156.35C140.714 156.35 142.33 154.734 142.33 152.74C142.33 150.746 140.714 149.13 138.72 149.13C136.726 149.13 135.11 150.746 135.11 152.74C135.11 154.734 136.726 156.35 138.72 156.35Z" fill="#F4F93D" stroke="black" stroke-miterlimit="10"/>
</g>
<path id="Vector_90" d="M139.24 175.96C138.85 175.53 141.89 173.47 143.37 168.74C144.14 166.27 144 164.64 144.4 164.61C144.97 164.58 146.35 167.84 145.43 170.8C144.24 174.63 139.67 176.45 139.24 175.96Z" fill="#C9C93F"/>
<path id="Vector_91" d="M140.79 151.71C140.73 151.7 140.73 153.24 139.76 153.77C138.87 154.26 137.78 153.58 137.7 153.77C137.61 153.98 138.84 155.11 139.76 154.8C140.98 154.39 140.87 151.72 140.79 151.7V151.71Z" fill="#C9C93F"/>
<path id="Vector_92" d="M96.31 180.88C95.92 180.45 98.96 178.39 100.44 173.66C101.21 171.19 101.07 169.56 101.47 169.53C102.04 169.5 103.42 172.76 102.5 175.72C101.31 179.55 96.74 181.37 96.31 180.88Z" fill="#C9C93F"/>
<path id="Vector_93" d="M99.92 155.59C99.86 155.58 99.86 157.12 98.89 157.65C98 158.14 96.91 157.46 96.83 157.65C96.74 157.86 97.97 158.99 98.89 158.68C100.11 158.27 100 155.6 99.92 155.58V155.59Z" fill="#C9C93F"/>
<path id="Vector_94" d="M57.76 176.86C58.15 176.43 55.1101 174.37 53.6301 169.64C52.8601 167.17 53 165.54 52.6 165.51C52.03 165.48 50.65 168.74 51.57 171.7C52.76 175.53 57.33 177.35 57.76 176.86Z" fill="#C9C93F"/>
<path id="Vector_95" d="M55.18 151.57C55.24 151.56 55.24 153.1 56.21 153.63C57.1 154.12 58.19 153.44 58.27 153.63C58.36 153.84 57.13 154.97 56.21 154.66C54.99 154.25 55.1 151.58 55.18 151.56V151.57Z" fill="#C9C93F"/>
</g>
<defs>
<radialGradient id="paint0_radial_121_2018" cx="0" cy="0" r="1" gradientUnits="userSpaceOnUse" gradientTransform="translate(99.165 134.409) scale(2.155 2.4567)">
<stop offset="0.17" stop-color="#EC72A8"/>
<stop offset="0.97" stop-color="#A33044"/>
</radialGradient>
</defs>
</svg>
