<svg width="200" height="200" viewBox="0 0 200 200" fill="none" xmlns="http://www.w3.org/2000/svg">
<g id="bubbles 1" clip-path="url(#clip0_121_1694)">
<g id="Group">
<path id="Vector" d="M42.74 73.41C40.53 74.74 37.84 76.92 37.95 77.11C37.97 77.14 38.07 77.11 38.16 77.08C38.87 77.06 39.58 77.04 40.29 77.02C38.49 79.52 36.54 81.89 34.45 84.11L38.17 83.42C34.61 86.95 31.05 90.47 27.5 94C28.37 93.73 29.24 93.45 30.12 93.18C27.47 96.78 24.82 100.39 22.16 103.99C23.14 103.73 24.12 103.46 25.1 103.2C22.26 106.41 19.42 109.61 16.59 112.82C18.2 112.66 19.13 114.94 18.7 116.62C18.31 118.15 16.9 118.88 16.46 121.22C16.3 122.1 16.36 122.85 16.44 123.31C16.97 123.27 17.51 123.24 18.04 123.2C14.34 128.96 11.42 135.3 9.42998 141.96C6.55998 151.55 1.59998 176.19 7.24998 184.24C11.18 189.36 13.32 195.74 23.82 191.16C30.16 188.39 34.72 181.41 38.45 175.14C43.3 172.28 47.76 168.68 51.66 164.47C52.45 171.67 53.24 178.87 54.03 186.07C54.42 187.91 56.37 189.19 58.08 188.71L59.2 191.98C60.71 191.44 62.54 192.65 62.76 194.35C71.88 188.76 78.62 178.9 80.88 167.89C81.08 168.45 81.88 168.15 82.3 167.76C87.43 163.01 91.08 156.45 92.53 149.35C93.33 150.09 94.14 150.82 94.94 151.56C96.26 148.1 96.49 144.17 95.57 140.57C96.22 141.43 96.87 142.3 97.52 143.16C98.09 140.82 98.18 138.34 97.77 135.95C98.56 136.59 99.34 137.22 100.13 137.86C100.48 133.84 100.43 129.77 99.97 125.76C100.79 126.51 101.6 127.26 102.42 128.01C103.32 124.58 103.69 120.99 103.53 117.43C103.91 118.86 105 120.04 106.33 120.45C107.36 117.96 107.59 115.09 106.99 112.45C108.2 112.93 109.29 113.72 110.16 114.74C111.52 110.56 111.66 105.94 110.55 101.68C110.68 102.71 112.19 102.85 112.83 102.08C113.47 101.31 113.48 100.15 113.43 99.11C113.24 94.93 112.81 90.76 112.15 86.64C113.25 86.64 114.35 86.64 115.45 86.64C114.96 85.1 115.62 83.23 116.94 82.42C113.06 81.92 110.31 76.94 111.75 73.04C109.62 73.09 107.51 73.9 105.82 75.3C105.43 72.39 105.03 69.47 104.64 66.56C101.67 69.44 97.26 69.82 93.29 69.29C90.6 68.93 87.96 68.22 85.33 67.52C81.81 66.58 62.25 61.98 58.73 61.04C57.31 59.25 45.56 71.73 42.75 73.43L42.74 73.41Z" fill="#CCC8B4" stroke="#1D1D1B" stroke-miterlimit="10"/>
<g id="Vector_2">
<path d="M59.8499 188.17C57.8999 187.11 55.6799 187.05 54.2899 188.08C53.3299 188.79 52.5799 190.42 52.5899 191.89C52.5899 193.19 53.2999 194.38 53.4499 194.64C53.9999 195.58 55.0399 196.58 55.9299 197.09C58.0299 198.3 60.4499 197.72 61.7599 194.62" fill="#CCC8B4"/>
<path d="M59.8499 188.17C57.8999 187.11 55.6799 187.05 54.2899 188.08C53.3299 188.79 52.5799 190.42 52.5899 191.89C52.5899 193.19 53.2999 194.38 53.4499 194.64C53.9999 195.58 55.0399 196.58 55.9299 197.09C58.0299 198.3 60.4499 197.72 61.7599 194.62" stroke="#1D1E1C" stroke-miterlimit="10"/>
</g>
<g id="Group_2">
<g id="Vector_3">
<path d="M65.45 193.83C66.15 195.82 67.75 197.26 69.5 197.39C70.71 197.48 72.4 196.77 73.43 195.7C74.34 194.76 74.65 193.45 74.72 193.17C74.97 192.14 74.91 190.76 74.61 189.84C73.9 187.65 71.71 186.54 68.56 187.96" fill="#CCC8B4"/>
<path d="M65.45 193.83C66.15 195.82 67.75 197.26 69.5 197.39C70.71 197.48 72.4 196.77 73.43 195.7C74.34 194.76 74.65 193.45 74.72 193.17C74.97 192.14 74.91 190.76 74.61 189.84C73.9 187.65 71.71 186.54 68.56 187.96" stroke="#1D1E1C" stroke-miterlimit="10"/>
</g>
<path id="Vector_4" d="M60.73 195.09C61.17 196.78 62.72 198.48 64.78 198.65C66.68 198.81 68.12 197.58 68.71 196.96C69.62 196.02 69.93 194.71 70 194.43C70.25 193.4 70.19 192.02 69.89 191.1C69.75 190.67 69.34 189.67 68.33 189.06C66.5 187.95 64.13 189.07 63.84 189.22C61.9 190.18 60.06 192.55 60.73 195.08V195.09Z" fill="#CCC8B4" stroke="#1D1E1C" stroke-miterlimit="10"/>
</g>
<path id="Vector_5" d="M60.8101 58.46C60.8101 58.46 59.3701 60.05 58.3901 61.42C57.4101 62.79 56.3501 65.5 56.3501 65.5C57.5301 65.11 58.7101 64.72 59.8901 64.34C57.5301 65.61 55.8401 68.16 55.6001 70.84C56.6001 70.15 57.6001 69.46 58.6001 68.78C56.8201 70.29 55.6101 72.49 55.2901 74.81C55.9901 74.48 56.7801 74.37 57.5201 74.51C56.1801 76.63 55.1101 78.92 54.3401 81.3C54.8801 81.21 55.4301 81.12 55.9701 81.03C54.6201 82.8 53.9801 85.1 54.2201 87.28C55.7301 86.39 57.4201 85.84 59.1401 85.69C58.0601 87.26 57.5601 89.22 57.7701 91.08C59.4201 90.56 60.9401 89.57 62.1001 88.26C61.7301 89.69 61.8701 91.23 62.4901 92.52C63.5901 91.89 64.6901 91.27 65.7901 90.64C65.5701 91.87 65.6701 93.15 66.0901 94.31C67.2101 93.65 68.3201 92.99 69.4401 92.33C69.9701 93.94 70.5001 95.54 71.0301 97.15C72.4001 96.96 73.6801 96.12 74.4301 94.92C74.8301 96.11 75.2201 97.29 75.6201 98.48C76.3801 97.68 77.7101 97.78 78.5801 98.4C79.4401 99.02 79.9501 100.02 80.4301 100.99C81.5601 100.12 83.3901 100.53 83.9901 101.8L84.2701 102.74L85.1801 102.09C86.3401 101.26 88.1601 101.74 88.7101 103.03C89.6101 102.41 90.5601 101.76 91.6301 101.62C92.7001 101.47 93.9201 102 94.1801 103.05C95.1201 102.19 96.0701 101.34 97.0101 100.48C97.0601 101.88 97.7601 103.21 98.8701 104C100.14 102.84 101.42 101.68 102.69 100.51C103.34 101.6 103.98 102.7 104.63 103.79C105.57 102.97 106.31 101.89 106.74 100.71C107.39 101.77 108.04 102.83 108.68 103.88C109.87 103.03 110.77 101.74 111.17 100.32C111.53 102.01 112.36 103.58 113.54 104.8C114.66 103.26 115.21 101.31 115.05 99.44C116.48 100.37 117.69 101.63 118.56 103.1C119.87 101.3 120.47 98.99 120.18 96.82C120.61 97.15 121.04 97.48 121.47 97.81C121.99 95.37 122.21 92.87 122.11 90.39C122.83 90.61 123.47 91.07 123.91 91.68C124.8 89.51 124.85 87.02 124.04 84.87C124.57 85.93 125.1 87 125.63 88.06C126.77 85.6 126.58 82.59 125.15 80.38C125.99 81.27 126.83 82.15 127.67 83.04C127.67 83.04 127.82 82.58 128.11 78.97C128.4 75.36 127.46 74.7 127.46 74.7L127.72 73.73C128.19 72.47 127.71 70.95 126.63 70.25C126.96 70.14 127.28 70.04 127.61 69.93C126.54 66.96 125.06 63.61 122.04 62.83C122.42 62.49 122.81 62.16 123.19 61.82C122.45 61.29 121.6 60.9 120.72 60.68C121.31 60.4 121.84 59.98 122.25 59.46C120 58.75 117.71 58.15 115.4 57.68C115.66 57.33 115.79 56.89 115.76 56.47L114.91 56.49L114.39 54.71C113.75 55.01 113.1 55.3 112.46 55.6C112.46 54.79 113.66 54.16 113.09 53.61C112.85 53.98 111.07 54.85 110.34 54.45C109.65 54.07 109.99 52.46 110.04 51.93C108.43 54.38 106.25 53.71 106.71 51.09C106.47 51.35 105.79 52.08 105.39 51.97C105.1 51.89 105.05 51.02 104.98 50.8C104.62 50.91 104.26 51.02 103.9 51.12C103.86 50.49 103.62 49.89 103.21 49.42C103.1 49.84 102.5 49.95 102.15 49.71C101.8 49.47 101.66 49.03 101.53 48.62L100.45 49.07L100.05 47.27C99.7201 47.97 99.3801 48.66 99.0501 49.36C99.0701 48.66 99.1001 47.96 99.1201 47.25C98.6201 47.73 98.2401 48.34 98.0201 49C97.9901 48.7 96.7701 47.15 96.7701 47.15C96.7701 47.15 95.0201 48.08 94.8301 48.4C94.7901 47.69 94.5201 47.01 94.0801 46.47C93.6801 46.82 93.1701 47.05 92.6401 47.12L92.1501 46.07C91.7801 46.43 91.4001 46.79 91.0301 47.15C91.0301 46.33 90.7001 45.52 90.1301 44.96C89.6001 45.91 88.8301 46.72 87.9101 47.3C87.8901 46.35 88.7101 43.24 86.8601 45.79C86.5201 46.22 86.0701 46.56 85.5601 46.76C85.5101 46.36 85.9101 44.22 85.2601 44.29C84.9601 44.32 83.6201 46.5 83.3701 46.53C83.4301 46.14 80.2901 43.09 79.7501 44.99C79.2101 46.89 78.3301 45.94 78.1001 45.99C77.0601 46.21 76.6201 44.51 75.5901 44.33C75.0201 44.23 74.4501 44.64 74.1701 45.17C73.8901 45.7 73.8301 46.3 73.7901 46.89C73.3101 46.26 72.2701 46.37 71.6601 46.91C71.0501 47.45 70.7801 48.27 70.5901 49.06C70.4701 49.54 70.3301 50.09 69.8901 50.3C69.5801 50.45 69.2301 50.38 68.9101 50.3C67.7701 50.05 66.6301 49.79 65.5001 49.54C65.7201 50.28 65.9101 51.16 65.4101 51.77C64.5601 52.79 62.6601 51.93 61.8101 52.94C62.2701 53.53 62.7301 54.11 63.2001 54.7C62.1201 55.17 61.0401 55.64 59.9601 56.1C60.5501 56.27 61.0101 56.79 61.1201 57.4L60.8501 58.44L60.8101 58.46Z" fill="#CCC8B4" stroke="#1D1E1C" stroke-miterlimit="10"/>
<path id="Vector_6" opacity="0.52" d="M58.33 163.93C72.8882 163.93 84.69 153.422 84.69 140.46C84.69 127.498 72.8882 116.99 58.33 116.99C43.7717 116.99 31.97 127.498 31.97 140.46C31.97 153.422 43.7717 163.93 58.33 163.93Z" fill="#E9E3C6"/>
<g id="Vector_7">
<path d="M104.03 97.61C100.97 98.06 97.98 98.99 95.22 100.34C95.98 100.55 96.75 100.76 97.51 100.96C94.69 102.94 91.34 104.22 87.87 104.66C88.19 105.79 89.31 106.66 90.52 106.74C88.32 108.33 85.85 109.57 83.23 110.39C82.94 113.44 80.58 116.21 77.52 117.1C78.27 117.56 79.02 118.01 79.76 118.47C77.23 120.5 74.71 122.53 72.18 124.56C73 124.91 72.93 126.1 72.42 126.81C71.91 127.52 71.11 128.04 70.75 128.83C69.78 130.93 71.96 134.37 69.72 135.2C72.3 135.27 74.31 138.19 73.37 140.49C75.2 139.28 78.19 140.78 78.19 142.91C79.07 142.71 79.88 142.28 80.53 141.68C81.33 143.03 82.13 144.38 82.94 145.72C84.04 145.04 84.9 144 85.33 142.82C86.16 143.8 86.68 145.02 86.8 146.27C88.32 145.37 90.6 146.04 91.34 147.59C92.22 147.08 92.97 146.38 93.51 145.55C93.88 146.69 95.62 145.55 96.07 144.43C96.78 142.68 97.49 140.93 98.2 139.17C98.35 140.34 99.19 141.42 100.32 141.89C101.32 139.42 101.98 136.83 102.28 134.2C102.99 134.47 103.69 134.73 104.4 135C108.22 128.52 112.03 122.04 115.85 115.57C116.12 114.35 116.43 112.6 116.59 110.49C116.77 108.13 116.94 105.83 116.43 104.27C114.82 99.3 105.19 98.18 104.08 98.06" fill="#CCC8B4"/>
<path d="M104.03 97.61C100.97 98.06 97.98 98.99 95.22 100.34C95.98 100.55 96.75 100.76 97.51 100.96C94.69 102.94 91.34 104.22 87.87 104.66C88.19 105.79 89.31 106.66 90.52 106.74C88.32 108.33 85.85 109.57 83.23 110.39C82.94 113.44 80.58 116.21 77.52 117.1C78.27 117.56 79.02 118.01 79.76 118.47C77.23 120.5 74.71 122.53 72.18 124.56C73 124.91 72.93 126.1 72.42 126.81C71.91 127.52 71.11 128.04 70.75 128.83C69.78 130.93 71.96 134.37 69.72 135.2C72.3 135.27 74.31 138.19 73.37 140.49C75.2 139.28 78.19 140.78 78.19 142.91C79.07 142.71 79.88 142.28 80.53 141.68C81.33 143.03 82.13 144.38 82.94 145.72C84.04 145.04 84.9 144 85.33 142.82C86.16 143.8 86.68 145.02 86.8 146.27C88.32 145.37 90.6 146.04 91.34 147.59C92.22 147.08 92.97 146.38 93.51 145.55C93.88 146.69 95.62 145.55 96.07 144.43C96.78 142.68 97.49 140.93 98.2 139.17C98.35 140.34 99.19 141.42 100.32 141.89C101.32 139.42 101.98 136.83 102.28 134.2C102.99 134.47 103.69 134.73 104.4 135C108.22 128.52 112.03 122.04 115.85 115.57C116.12 114.35 116.43 112.6 116.59 110.49C116.77 108.13 116.94 105.83 116.43 104.27C114.82 99.3 105.19 98.18 104.08 98.06" stroke="#1D1D1B" stroke-miterlimit="10"/>
</g>
<g id="Vector_8">
<path d="M80.88 87.01C77.46 85.69 73.93 84.87 70.46 84.57C71.18 85.2 71.9 85.83 72.62 86.46C68.83 86.72 64.77 86.02 60.93 84.46C60.81 85.7 61.62 87.16 62.87 87.93C59.9 88.18 56.77 87.94 53.67 87.22C52.1 89.92 48.47 91.19 44.87 90.29L46.67 92.86C43.17 93.34 39.66 93.81 36.16 94.29C36.88 95.09 36.32 96.17 35.48 96.55C34.64 96.93 33.59 96.96 32.89 97.5C31 98.93 31.87 103.4 29.17 102.91C31.87 104.45 32.78 108.34 30.84 109.97C33.28 109.87 35.81 112.98 34.92 114.99C35.92 115.3 36.96 115.36 37.89 115.16C38.18 116.89 38.47 118.61 38.76 120.34C40.2 120.33 41.54 119.84 42.48 118.96C42.95 120.35 42.99 121.79 42.61 123.05C44.59 123.07 46.71 124.99 46.85 126.88C47.99 126.9 49.07 126.67 49.99 126.19C49.91 127.47 52.22 127.38 53.16 126.59C54.63 125.35 56.11 124.1 57.58 122.86C57.26 124.05 57.69 125.54 58.69 126.63C60.76 124.87 62.53 122.8 63.93 120.5C64.56 121.15 65.2 121.81 65.83 122.46C69.18 119.34 72.22 115.91 74.9 112.22C76.12 112.67 77.24 113.54 77.98 114.61C80.23 113.98 85.66 90.8 80.75 87.49" fill="#CCC8B4"/>
<path d="M80.88 87.01C77.46 85.69 73.93 84.87 70.46 84.57C71.18 85.2 71.9 85.83 72.62 86.46C68.83 86.72 64.77 86.02 60.93 84.46C60.81 85.7 61.62 87.16 62.87 87.93C59.9 88.18 56.77 87.94 53.67 87.22C52.1 89.92 48.47 91.19 44.87 90.29L46.67 92.86C43.17 93.34 39.66 93.81 36.16 94.29C36.88 95.09 36.32 96.17 35.48 96.55C34.64 96.93 33.59 96.96 32.89 97.5C31 98.93 31.87 103.4 29.17 102.91C31.87 104.45 32.78 108.34 30.84 109.97C33.28 109.87 35.81 112.98 34.92 114.99C35.92 115.3 36.96 115.36 37.89 115.16C38.18 116.89 38.47 118.61 38.76 120.34C40.2 120.33 41.54 119.84 42.48 118.96C42.95 120.35 42.99 121.79 42.61 123.05C44.59 123.07 46.71 124.99 46.85 126.88C47.99 126.9 49.07 126.67 49.99 126.19C49.91 127.47 52.22 127.38 53.16 126.59C54.63 125.35 56.11 124.1 57.58 122.86C57.26 124.05 57.69 125.54 58.69 126.63C60.76 124.87 62.53 122.8 63.93 120.5C64.56 121.15 65.2 121.81 65.83 122.46C69.18 119.34 72.22 115.91 74.9 112.22C76.12 112.67 77.24 113.54 77.98 114.61C80.23 113.98 85.66 90.8 80.75 87.49" stroke="#1D1D1B" stroke-miterlimit="10"/>
</g>
<path id="Vector_9" d="M45.1692 129.861C53.6208 126.424 58.1396 117.902 55.2623 110.827C52.385 103.751 43.201 100.802 34.7494 104.239C26.2978 107.676 21.779 116.198 24.6563 123.273C27.5336 130.349 36.7176 133.298 45.1692 129.861Z" fill="#CCC8B4"/>
<g id="Vector_10">
<path d="M89.81 74.68C89.54 75.07 86.46 79.5 86.81 81.16C87.3 83.46 89.94 85.22 92.44 84.76C94.69 84.35 98.69 80.43 98.83 80.16" fill="#EC6D8F"/>
<path d="M89.81 74.68C89.54 75.07 86.46 79.5 86.81 81.16C87.3 83.46 89.94 85.22 92.44 84.76C94.69 84.35 98.69 80.43 98.83 80.16" stroke="#1D1E1C" stroke-miterlimit="10"/>
</g>
<path id="Vector_11" d="M97.34 93.05C98.37 94.16 102.76 98.44 110.99 95.47C114.5 94.2 117.55 92.04 119.56 90.4C116.63 91.64 112.93 92.91 108.86 93.52C103.8 94.28 99.97 93.74 97.34 93.04V93.05Z" fill="#B2AFA1"/>
<path id="Vector_12" d="M85.4622 152.268C92.1927 150.255 95.5733 141.683 93.0129 133.122C90.4525 124.56 82.9208 119.252 76.1902 121.265C69.4597 123.278 66.0791 131.85 68.6395 140.411C71.1999 148.972 78.7316 154.281 85.4622 152.268Z" fill="#CCC8B4"/>
<g id="Group_3">
<path id="Vector_13" d="M103.89 96.65C102 97.3 100.79 99.53 101.2 101.55C101.32 102.09 101.54 102.54 101.85 102.9C100.61 104.35 98.8 106.72 98.42 107.76C97.8 109.43 97.87 111.2 98.62 112.34C99.12 113.07 100 112.9 100.98 112.79C101.51 112.73 102.19 112.71 102.6 112.89C103.01 113.07 103.34 113.5 103.6 113.83C104.15 114.5 104.91 115.56 106.1 115.39C106.8 115.28 107.57 114.9 108.27 114.55C108.67 114.36 110.1 113.64 111.22 112.27C112.12 111.18 113.25 109.57 113.47 108.58C114.31 108.66 115.29 108.47 116.24 107.99C118.25 107.01 119.3 105.22 118.62 103.92C118.23 103.14 117.34 102.65 116.29 102.52C116.44 101.99 116.43 101.45 116.21 100.94C115.71 99.74 114.29 99.04 112.77 99.16C112.79 98.81 112.75 98.45 112.63 98.1C112.08 96.44 110.16 95.49 108.3 96.05C107.7 96.24 107.18 96.57 106.76 97C105.96 96.47 104.92 96.3 103.88 96.65H103.89Z" fill="#CCC8B4" stroke="#1D1E1C" stroke-miterlimit="10"/>
<path id="Vector_14" d="M104.17 105.37C102.49 106.53 100.77 109.02 101.48 110.25C101.9 110.94 102.99 110.91 103.72 110.79C104.14 110.72 104.5 110.84 104.67 111.14C105.2 112.06 106.11 112.54 107.09 112.26C108.82 111.77 110.13 109.28 110.26 107.83C110.32 107.12 110.12 106.48 110.07 106.32C109.95 105.95 109.73 105.23 109.22 104.82C108.2 103.95 105.87 104.24 104.17 105.38V105.37Z" fill="#F2A0AE" stroke="#1D1E1C" stroke-miterlimit="10"/>
<path id="Vector_15" d="M114.15 104.15C113.2 104.56 112.67 105.54 112.99 106.31C113.31 107.07 114.36 107.29 115.33 106.82C116.3 106.36 116.8 105.43 116.47 104.73C116.14 104.01 115.1 103.74 114.16 104.15H114.15Z" fill="#F2A0AE" stroke="#1D1E1C" stroke-miterlimit="10"/>
<path id="Vector_16" d="M111.97 100.91C111.04 101.27 110.51 102.25 110.8 103.09C111.09 103.92 112.11 104.24 113.06 103.83C114.01 103.43 114.52 102.49 114.21 101.72C113.9 100.93 112.91 100.56 111.98 100.91H111.97Z" fill="#F2A0AE" stroke="#1D1E1C" stroke-miterlimit="10"/>
<path id="Vector_17" d="M108.63 98.13C107.71 98.45 107.17 99.47 107.43 100.4C107.69 101.31 108.67 101.74 109.6 101.37C110.53 101.01 111.06 100.03 110.78 99.17C110.5 98.3 109.55 97.82 108.63 98.13Z" fill="#F2A0AE" stroke="#1D1E1C" stroke-miterlimit="10"/>
<path id="Vector_18" d="M104.5 98.5C103.58 98.84 103.01 99.94 103.23 100.94C103.46 101.93 104.42 102.4 105.37 102C106.31 101.62 106.86 100.56 106.61 99.63C106.36 98.68 105.42 98.17 104.5 98.5Z" fill="#F2A0AE" stroke="#1D1E1C" stroke-miterlimit="10"/>
</g>
<path id="Vector_19" d="M95.43 74.35C95.29 74.18 95.34 72.68 95.51 72.09C95.5 72.03 95.48 71.93 95.42 71.82C94.93 70.8 92.85 70.63 92.85 70.63C92.65 70.32 93.25 70.01 93.43 69.9C93.61 69.79 94.2 69.41 95.42 69.55L97.39 70.15C97.39 70.15 97.33 70.13 97.64 70.25C97.95 70.37 99.48 71.16 99.48 71.16C100.45 71.88 100.59 72.56 100.64 72.75C100.69 72.94 100.89 73.57 100.51 73.66C100.51 73.66 98.91 72.38 97.81 72.77C97.69 72.81 97.6 72.87 97.55 72.9C97.24 73.43 96.17 74.53 95.95 74.55L95.41 74.34L95.43 74.35Z" fill="url(#paint0_radial_121_1694)" stroke="#1D1E1C" stroke-width="0.75" stroke-miterlimit="10"/>
<g id="Group_4">
<path id="Vector_20" d="M74.03 45.52C75.64 46.5 76.9 47.57 77.84 48.51C77.87 48.83 77.91 49.16 77.94 49.48C77.84 49.28 77.73 49.08 77.56 48.93C77.39 48.78 77.15 48.69 76.93 48.76C77.22 49.49 77.51 50.21 77.8 50.94C76.82 50.59 76.32 49.48 75.36 49.09C75.65 49.59 75.78 50.17 75.74 50.74C75.24 50.24 74.65 49.82 74 49.52C74.27 50.34 74.6 51.15 74.98 51.93C74.32 51.33 73.66 50.72 73.01 50.12C73.19 50.9 73.33 51.69 73.44 52.49C72.73 51.92 72.02 51.34 71.3 50.77C71.88 51.63 72.47 52.5 73.05 53.36C72.42 52.96 71.83 52.5 71.28 52.01C71.71 52.72 72.03 53.5 72.23 54.31C71.63 53.91 70.99 53.49 70.26 53.51C70.33 53.86 70.4 54.22 70.47 54.57C70.21 54.39 69.92 54.25 69.61 54.16C69.84 54.76 70.06 55.36 70.29 55.95C69.8 55.49 69.27 55.07 68.7 54.69C68.91 55.04 69.03 55.44 69.06 55.84C69.07 56.04 68.98 56.3 68.77 56.28C68.85 56.94 68.81 57.61 68.67 58.26C68.37 58 67.98 57.86 67.58 57.85C67.54 57.85 67.49 57.85 67.46 57.88C67.41 57.92 67.42 57.99 67.44 58.05C67.51 58.35 67.58 58.65 67.65 58.95C67.46 58.86 67.27 58.76 67.08 58.67C67.02 58.64 66.93 58.61 66.88 58.66C66.86 58.68 66.85 58.72 66.85 58.76C66.81 59.08 66.75 59.31 66.71 59.62C62.99 58.05 60.86 54.77 60.23 51.22C59.61 47.71 61.54 43.69 65.05 42.56C65.05 42.56 65.08 42.56 65.12 42.58C67.19 42.8 70.57 43.43 74.02 45.53L74.03 45.52Z" fill="url(#paint1_radial_121_1694)" stroke="#1D1E1C" stroke-miterlimit="10"/>
<g id="Vector_21">
<path d="M65.6999 42.27L68.2799 42.86C69.8599 43.33 71.8699 44.09 74.0199 45.37C75.6999 46.37 77.0299 47.44 78.0499 48.37C78.2599 47.99 78.6799 47.35 79.4499 46.81C79.9899 46.43 80.5099 46.22 80.8899 46.11C81.6399 45.98 82.3799 45.85 83.1299 45.72C78.6399 43.28 73.4899 41.99 68.3299 42C67.6099 42 65.4299 42.28 65.0699 42.39" fill="#CCC8B4"/>
<path d="M65.6999 42.27L68.2799 42.86C69.8599 43.33 71.8699 44.09 74.0199 45.37C75.6999 46.37 77.0299 47.44 78.0499 48.37C78.2599 47.99 78.6799 47.35 79.4499 46.81C79.9899 46.43 80.5099 46.22 80.8899 46.11C81.6399 45.98 82.3799 45.85 83.1299 45.72C78.6399 43.28 73.4899 41.99 68.3299 42C67.6099 42 65.4299 42.28 65.0699 42.39" stroke="#1D1E1C" stroke-miterlimit="10"/>
</g>
</g>
<g id="Group_5">
<path id="Vector_22" d="M127.05 65.53C125.46 65.67 124.12 66 123.06 66.34C122.92 66.56 122.79 66.77 122.65 66.99C122.8 66.89 122.95 66.78 123.13 66.73C123.31 66.68 123.53 66.7 123.68 66.82C123.21 67.23 122.73 67.65 122.26 68.06C123.14 68.15 123.91 67.53 124.79 67.58C124.4 67.84 124.09 68.2 123.93 68.62C124.49 68.43 125.09 68.34 125.7 68.35C125.21 68.84 124.68 69.3 124.12 69.72C124.84 69.52 125.56 69.31 126.28 69.11C125.88 69.6 125.5 70.11 125.14 70.64C125.89 70.48 126.64 70.32 127.39 70.15C126.64 70.56 125.89 70.97 125.15 71.38C125.78 71.31 126.39 71.19 126.99 71.03C126.41 71.39 125.9 71.83 125.47 72.33C126.07 72.25 126.72 72.18 127.28 72.44C127.1 72.67 126.93 72.89 126.75 73.12C127.01 73.08 127.29 73.08 127.56 73.12C127.18 73.47 126.8 73.81 126.42 74.16C126.96 74 127.52 73.89 128.09 73.81C127.81 73.98 127.57 74.22 127.42 74.5C127.34 74.64 127.33 74.86 127.49 74.91C127.21 75.35 127.01 75.84 126.9 76.34C127.22 76.26 127.58 76.29 127.89 76.43C127.92 76.44 127.96 76.46 127.97 76.49C127.99 76.53 127.97 76.58 127.93 76.62C127.77 76.81 127.62 77 127.46 77.19C127.64 77.19 127.82 77.19 128 77.19C128.06 77.19 128.14 77.19 128.16 77.25C128.17 77.28 128.16 77.3 128.16 77.33C128.08 77.57 128.05 77.75 127.98 77.99C131.41 78.15 134.19 76.57 135.89 74.26C137.57 71.99 137.43 68.48 135.07 66.47C135.07 66.47 135.05 66.47 135.01 66.47C133.33 65.91 130.47 65.2 127.06 65.51L127.05 65.53Z" fill="url(#paint2_radial_121_1694)" stroke="#1D1E1C" stroke-miterlimit="10"/>
<g id="Vector_23">
<path d="M134.64 66.08L132.43 65.61C131.04 65.4 129.21 65.25 127.1 65.42C125.45 65.55 124.05 65.85 122.94 66.17C122.91 65.83 122.79 65.23 122.38 64.59C122.09 64.13 121.75 63.81 121.5 63.6C120.96 63.25 120.43 62.91 119.89 62.56C124.22 62.37 128.68 63.22 132.7 65C133.26 65.25 134.87 66.19 135.11 66.39" fill="#CCC8B4"/>
<path d="M134.64 66.08L132.43 65.61C131.04 65.4 129.21 65.25 127.1 65.42C125.45 65.55 124.05 65.85 122.94 66.17C122.91 65.83 122.79 65.23 122.38 64.59C122.09 64.13 121.75 63.81 121.5 63.6C120.96 63.25 120.43 62.91 119.89 62.56C124.22 62.37 128.68 63.22 132.7 65C133.26 65.25 134.87 66.19 135.11 66.39" stroke="#1D1E1C" stroke-miterlimit="10"/>
</g>
</g>
<g id="Group_6">
<g id="Group_7" opacity="0.4">
<path id="Vector_24" d="M89 62.52L89.55 65.03L90.45 66.31L89 66.6C86.46 67.31 83.93 68.02 81.39 68.72C79.62 69.21 77.83 69.72 76.22 70.6C74.04 71.8 72.25 73.66 70.01 74.73C70.96 71.06 73.51 67.97 76.5 65.68C79.5 63.38 82.95 61.79 86.38 60.21L90.72 58.5L89.01 62.52" fill="#F2F2E7"/>
</g>
<g id="Group_8" opacity="0.4">
<path id="Vector_25" d="M91.39 65.23L92.15 66.07L90.7 66.36C88.16 67.07 85.63 67.78 83.09 68.48C81.32 68.97 79.53 69.48 77.92 70.36C75.74 71.56 73.95 73.42 71.71 74.49C71.97 73.81 72.94 73.21 73.7 72.54C78.53 68.32 91.34 64.63 91.4 65.22L91.39 65.23Z" fill="#7C7C7C"/>
</g>
<g id="Group_9" opacity="0.4">
<path id="Vector_26" d="M90.83 58.21L86.49 59.92C83.07 61.5 79.61 63.1 76.61 65.39C73.61 67.69 71.07 70.77 70.12 74.44C70.95 74.05 72.73 70.45 75.93 68.07C81.43 63.98 88.34 61.56 89.46 61.25" fill="#7C7C7C"/>
</g>
</g>
<g id="Group_10">
<path id="Vector_27" d="M93.1973 63.7325C94.4452 61.712 94.4931 59.4788 93.3043 58.7446C92.1155 58.0104 90.1401 59.0531 88.8922 61.0736C87.6443 63.0942 87.5964 65.3273 88.7852 66.0616C89.9741 66.7958 91.9494 65.753 93.1973 63.7325Z" fill="url(#paint3_radial_121_1694)" stroke="#1D1E1C" stroke-miterlimit="10"/>
<path id="Vector_28" d="M93.3887 63.5154C94.3197 62.0851 94.2226 60.3712 93.1719 59.6873C92.1211 59.0034 90.5147 59.6085 89.5837 61.0387C88.6528 62.469 88.7498 64.1829 89.8006 64.8668C90.8513 65.5507 92.4577 64.9456 93.3887 63.5154Z" fill="black"/>
<path id="Vector_29" d="M92.4277 61.1291C92.6736 60.7357 92.6679 60.2886 92.4151 60.1305C92.1622 59.9725 91.7578 60.1632 91.5119 60.5566C91.266 60.95 91.2717 61.397 91.5245 61.5551C91.7774 61.7132 92.1818 61.5224 92.4277 61.1291Z" fill="white"/>
</g>
<g id="Group_11">
<g id="Group_12" opacity="0.4">
<path id="Vector_30" d="M107.12 70.33L105.1 72.14L103.71 72.79L104.36 73.66C105.36 75.36 106.36 77.06 107.36 78.76C108.06 79.95 108.76 81.15 109.1 82.58C109.56 84.52 109.35 86.83 109.93 88.7C111.85 85.28 112.46 81.64 112.26 78.44C112.07 75.24 111.13 72.41 110.2 69.6L108.83 66.29L107.11 70.33" fill="#F2F2E7"/>
</g>
<g id="Group_13" opacity="0.4">
<path id="Vector_31" d="M103.9 71.48L102.89 71.83L103.54 72.7C104.54 74.4 105.54 76.1 106.54 77.8C107.24 78.99 107.94 80.19 108.28 81.62C108.74 83.56 108.53 85.87 109.11 87.74C109.41 87.07 109.26 86.15 109.27 85.27C109.31 79.69 104.34 71.01 103.9 71.47V71.48Z" fill="#7C7C7C"/>
</g>
<g id="Group_14" opacity="0.4">
<path id="Vector_32" d="M108.97 65.99L110.34 69.3C111.27 72.1 112.2 74.94 112.4 78.14C112.59 81.34 111.99 84.99 110.07 88.4C109.86 87.71 111.25 83.99 110.99 80.63C110.55 74.86 108.16 69.83 107.72 69.08" fill="#7C7C7C"/>
</g>
</g>
<g id="Group_15">
<path id="Vector_33" d="M108.028 70.3963C109.193 68.4414 109.163 66.277 107.963 65.562C106.762 64.8469 104.845 65.852 103.681 67.8069C102.516 69.7618 102.546 71.9262 103.746 72.6413C104.947 73.3563 106.864 72.3512 108.028 70.3963Z" fill="url(#paint4_radial_121_1694)" stroke="#1D1E1C" stroke-miterlimit="10"/>
<path id="Vector_34" d="M107.634 69.8924C108.511 68.5132 108.365 66.8495 107.308 66.1764C106.25 65.5034 104.681 66.0758 103.803 67.455C102.926 68.8342 103.072 70.4979 104.129 71.171C105.187 71.844 106.756 71.2716 107.634 69.8924Z" fill="black"/>
<path id="Vector_35" d="M107.161 67.8669C107.392 67.484 107.373 67.0486 107.117 66.8944C106.862 66.7402 106.468 66.9255 106.236 67.3084C106.005 67.6913 106.024 68.1267 106.28 68.281C106.535 68.4352 106.929 68.2498 107.161 67.8669Z" fill="white"/>
</g>
<g id="Group_16">
<path id="Vector_36" d="M87.37 75.77C87.06 76.44 86.72 77.29 86.45 78.29C86.23 79.13 86.11 79.87 86.05 80.48C86.47 80.37 87.39 80.07 88.37 79.21C89.39 78.32 89.9 77.32 90.1 76.88C89.19 76.51 88.28 76.14 87.37 75.77Z" fill="#FBF2CB" stroke="#1D1E1C" stroke-miterlimit="10"/>
<path id="Vector_37" d="M98.06 81.62C97.6 82.21 97 82.91 96.22 83.62C95.57 84.22 94.95 84.68 94.43 85.03C94.32 84.63 94.14 83.71 94.44 82.46C94.75 81.17 95.41 80.25 95.71 79.87C96.49 80.45 97.28 81.03 98.06 81.61V81.62Z" fill="#FBF2CB" stroke="#1D1E1C" stroke-miterlimit="10"/>
</g>
<g id="Vector_38">
<path d="M95.43 74.35L94 76.95C91.58 78.4 88.63 78.57 86.31 77.35C84.21 76.24 83.36 74.36 83.11 73.73" fill="#CCC8B4"/>
<path d="M95.43 74.35L94 76.95C91.58 78.4 88.63 78.57 86.31 77.35C84.21 76.24 83.36 74.36 83.11 73.73" stroke="#1D1E1C" stroke-miterlimit="10"/>
</g>
<g id="Vector_39">
<path d="M95.68 74.68L94.14 77.22C94.14 79.96 95.57 82.43 97.89 83.66C100 84.77 102.1 84.46 102.79 84.32" fill="#CCC8B4"/>
<path d="M95.68 74.68L94.14 77.22C94.14 79.96 95.57 82.43 97.89 83.66C100 84.77 102.1 84.46 102.79 84.32" stroke="#1D1E1C" stroke-miterlimit="10"/>
</g>
<g id="Group_17">
<path id="Vector_40" d="M98.2322 54.527C98.3984 53.8627 97.5731 53.084 96.3891 52.7879C95.205 52.4918 94.1104 52.7904 93.9443 53.4548C93.7781 54.1191 94.6033 54.8977 95.7874 55.1939C96.9715 55.49 98.0661 55.1914 98.2322 54.527Z" fill="url(#paint5_radial_121_1694)"/>
<path id="Vector_41" d="M101.619 57.1418C101.785 56.4774 100.96 55.6988 99.7759 55.4027C98.5918 55.1066 97.4972 55.4051 97.3311 56.0695C97.165 56.7339 97.9902 57.5125 99.1743 57.8086C100.358 58.1047 101.453 57.8062 101.619 57.1418Z" fill="url(#paint6_radial_121_1694)"/>
<path id="Vector_42" d="M105.943 57.0552C106.218 56.422 105.542 55.5181 104.432 55.0364C103.323 54.5547 102.2 54.6776 101.925 55.3108C101.651 55.944 102.327 56.8479 103.436 57.3296C104.546 57.8113 105.668 57.6885 105.943 57.0552Z" fill="url(#paint7_radial_121_1694)"/>
<path id="Vector_43" d="M107.537 61.3911C107.976 60.8658 107.577 59.808 106.645 59.0285C105.713 58.2489 104.601 58.0428 104.162 58.5681C103.723 59.0934 104.122 60.1512 105.054 60.9307C105.986 61.7103 107.098 61.9164 107.537 61.3911Z" fill="url(#paint8_radial_121_1694)"/>
<path id="Vector_44" d="M111.346 62.9466C111.888 62.566 111.744 61.4254 111.025 60.3991C110.305 59.3727 109.281 58.8493 108.738 59.2299C108.196 59.6105 108.34 60.751 109.06 61.7774C109.78 62.8037 110.803 63.3272 111.346 62.9466Z" fill="url(#paint9_radial_121_1694)"/>
<path id="Vector_45" d="M107.095 63.3699C107.335 62.7286 106.608 61.863 105.47 61.4365C104.332 61.01 103.215 61.1841 102.975 61.8253C102.734 62.4666 103.462 63.3322 104.599 63.7587C105.737 64.1852 106.854 64.0111 107.095 63.3699Z" fill="url(#paint10_radial_121_1694)"/>
<path id="Vector_46" d="M104.048 60.3733C104.289 59.7321 103.561 58.8665 102.424 58.44C101.286 58.0135 100.169 58.1876 99.9284 58.8288C99.688 59.4701 100.415 60.3357 101.553 60.7622C102.691 61.1887 103.808 61.0146 104.048 60.3733Z" fill="url(#paint11_radial_121_1694)"/>
<path id="Vector_47" d="M99.4079 60.6058C99.7568 60.0037 99.1952 59.0263 98.1534 58.4226C97.1117 57.819 95.9844 57.8178 95.6355 58.4199C95.2866 59.022 95.8483 59.9994 96.89 60.603C97.9317 61.2067 99.0591 61.2079 99.4079 60.6058Z" fill="url(#paint12_radial_121_1694)"/>
<path id="Vector_48" d="M103.356 64.5066C103.495 64.0928 103.106 63.5897 102.488 63.383C101.87 63.1762 101.257 63.344 101.118 63.7577C100.98 64.1715 101.369 64.6745 101.987 64.8813C102.605 65.0881 103.218 64.9203 103.356 64.5066Z" fill="url(#paint13_radial_121_1694)"/>
<path id="Vector_49" d="M101.801 62.777C101.939 62.3632 101.55 61.8602 100.932 61.6534C100.314 61.4466 99.7011 61.6144 99.5627 62.0282C99.4242 62.4419 99.813 62.945 100.431 63.1518C101.049 63.3585 101.662 63.1908 101.801 62.777Z" fill="url(#paint14_radial_121_1694)"/>
<path id="Vector_50" d="M99.1977 63.1463C99.4361 62.7743 99.1921 62.1925 98.6527 61.8469C98.1132 61.5012 97.4827 61.5226 97.2444 61.8946C97.006 62.2666 97.25 62.8484 97.7894 63.194C98.3289 63.5397 98.9594 63.5183 99.1977 63.1463Z" fill="url(#paint15_radial_121_1694)"/>
<path id="Vector_51" d="M101.222 64.8183C101.397 64.2942 100.905 63.6588 100.124 63.3989C99.3437 63.139 98.5693 63.3531 98.3949 63.8771C98.2205 64.4012 98.7121 65.0366 99.4928 65.2965C100.274 65.5564 101.048 65.3423 101.222 64.8183Z" fill="url(#paint16_radial_121_1694)"/>
</g>
<path id="Vector_52" d="M46.35 94.75C45.91 94.11 37.32 96.13 33.66 103.01C31.59 106.9 31.26 112.04 33.58 116.09C35.48 119.4 39.09 121.87 40.15 121.21C41.01 120.68 38.35 118.55 37.33 112.21C36.75 108.57 37.88 106.57 38.12 105.09C39.18 98.54 46.78 95.38 46.35 94.75Z" fill="#B2AFA1"/>
<path id="Vector_53" d="M96.33 136.76C96.93 136.88 97.24 141.38 92.65 144.21C90.05 145.81 86.09 146.74 82.4 146.21C79.38 145.78 76.65 144.38 76.93 143.77C77.16 143.27 79.41 144.25 84.62 143.8C87.61 143.54 88.93 142.69 90.03 142.35C94.94 140.85 95.74 136.66 96.33 136.77V136.76Z" fill="#B2AFA1"/>
<path id="Vector_54" d="M7.65004 152.74C6.92004 155.05 4.58004 163.4 8.88004 172.24C9.79004 174.11 13.63 182.02 22.37 185C24.49 185.72 26.38 185.98 27.68 186.07C24.04 182.77 19.28 177.73 15.09 170.74C10.93 163.81 8.80004 157.38 7.65004 152.73V152.74Z" fill="#B2AFA1"/>
<path id="Vector_55" d="M77.24 172.71C77.24 173.26 77.02 180.44 70.54 184.46C64.62 188.12 58.36 186.12 57.62 185.87C60.5 185.09 64.83 183.55 69.31 180.39C73.08 177.73 75.63 174.85 77.24 172.72V172.71Z" fill="#B2AFA1"/>
<path id="Vector_56" d="M75.75 84.02C74.26 84.44 68.18 85.86 62.82 79.19C60.53 76.34 59.14 72.97 58.33 70.56C60.13 73.09 62.58 76.04 65.7 78.62C69.58 81.82 73.13 83.3 75.75 84.03V84.02Z" fill="#B2AFA1"/>
<path id="Vector_57" d="M85.4301 81.45C85.7101 82.28 86.2401 83.42 87.2901 84.46C87.9301 85.09 89.3401 86.49 91.4901 86.54C92.7801 86.57 93.7801 86.09 94.2801 85.81C94.1801 85.97 91.8901 87.78 89.2701 87.9C87.2001 87.99 86.0801 86.57 85.4601 85.97C84.8601 85.4 85.4401 81.45 85.4401 81.45H85.4301Z" fill="#B2AFA1"/>
<path id="Vector_58" d="M20.42 125.03C20.51 119.79 21.4 118.14 20.43 115.52C20.14 114.75 18.84 111.22 15.23 111.52C12.56 111.74 10.04 113.94 7.41 116.23C5.25 118.11 3.29 119.82 1.82 122.38C0.0700043 125.43 -0.219996 128.37 0.150004 135.64C0.610004 144.72 2.57 158.26 8.98 165.58C10.1 166.85 16.96 172.15 24.42 173.45C30.62 174.53 36.76 174.3 38.35 173.89C42.76 172.74 44.44 171.96 46.56 170.88C49.91 169.18 54.86 164.99 56.4 159.9C57.42 156.54 56.5 154.29 55.87 152.74C55.73 152.4 53.06 146.19 47.38 148.14C43.93 149.32 42.9 152.3 39.79 152.93C38.73 153.15 38.04 152.97 33.42 149.48C30.22 147.07 28.59 145.83 27.18 144.39C24.91 142.07 23.78 140.91 22.81 138.99C20.31 134.03 20.36 127.73 20.41 125.03H20.42Z" fill="#CCC8B4" stroke="#1D1D1B" stroke-miterlimit="10"/>
<path id="Vector_59" opacity="0.65" d="M0.0500391 129.01C0.480039 127.88 2.49004 123 8.14004 120.17C13.78 117.34 19.1 118.53 20.32 118.84C20.4 120.3 20.47 121.76 20.55 123.21C20.47 123.36 20.4 123.52 20.32 123.67C19.27 123.38 13.87 122.02 8.30004 124.94C2.33004 128.08 0.770039 133.72 0.530039 134.65C0.370039 132.77 0.200039 130.89 0.0400391 129.01H0.0500391Z" fill="#807D71"/>
<path id="Vector_60" opacity="0.65" d="M0.839966 141.97C1.26997 140.84 3.27997 135.96 8.92997 133.13C14.57 130.3 19.08 131.31 20.3 131.62C20.38 133.08 21.27 134.72 21.34 136.17C21.26 136.32 21.19 136.48 21.11 136.63C20.06 136.34 14.66 134.98 9.08997 137.9C3.11997 141.04 1.99997 146.68 1.76997 147.61C1.60997 145.73 0.999966 143.85 0.839966 141.97Z" fill="#807D71"/>
<path id="Vector_61" opacity="0.65" d="M0.0700586 129.65C0.500059 128.52 2.51006 123.64 8.16006 120.81C13.8001 117.98 19.1201 119.17 20.3401 119.48C20.4201 120.94 20.4901 122.4 20.5701 123.85C20.4901 124 20.4201 124.16 20.3401 124.31C19.2901 124.02 13.8901 122.66 8.32006 125.58C2.35006 128.72 0.790059 134.36 0.550059 135.29C0.390059 133.41 0.220059 131.53 0.0600586 129.65H0.0700586Z" fill="#807D71"/>
<path id="Vector_62" opacity="0.65" d="M29.5699 147.11C28.5199 146.82 18.1999 146.08 12.6299 149.01C6.65995 152.15 6.15995 160.14 5.91995 161.07C5.75995 159.19 3.72995 155.88 3.56995 154C3.99995 152.87 6.81995 147.06 12.4699 144.23C18.1099 141.4 23.9899 142.56 25.2099 142.87" fill="#807D71"/>
<g id="Group_18">
<path id="Vector_63" d="M85.96 95.57C85.81 97.67 83.94 99.3 81.79 99.22C81.21 99.2 80.67 99.05 80.19 98.81C79.19 100.3 77.53 102.46 76.65 103C75.26 103.86 73.48 104.08 71.98 103.59C70.99 103.26 70.72 102.43 70.35 101.52C70.15 101.03 69.81 100.41 69.4 100.09C68.99 99.76 68.34 99.56 67.84 99.41C66.8 99.08 65.18 98.68 64.66 97.62C64.36 97 64.33 96.25 64.31 95.57C64.29 95.18 64.25 93.78 65.22 92.43C66.01 91.33 67.36 89.85 68.48 89.33C67.9 88.63 67.58 87.72 67.65 86.73C67.8 84.63 69.67 83 71.82 83.08C73.09 83.13 74.17 83.76 74.82 84.7C75.44 84.36 76.16 84.18 76.92 84.21C78.67 84.28 80.07 85.46 80.45 87.02C80.87 86.89 81.32 86.83 81.79 86.85C83.94 86.93 85.57 88.71 85.42 90.8C85.37 91.47 85.15 92.1 84.8 92.63C85.59 93.36 86.05 94.41 85.96 95.58V95.57Z" fill="#CCC8B4" stroke="#1D1E1C" stroke-miterlimit="10"/>
<path id="Vector_64" d="M76.71 97.04C76.19 98.89 74.37 100.99 72.77 100.57C71.84 100.32 71.34 99.32 71.1 98.62C70.96 98.23 70.65 97.92 70.24 97.84C68.94 97.58 67.91 96.89 67.68 95.97C67.27 94.33 69.48 92.48 71.14 91.96C71.95 91.7 72.81 91.7 73.03 91.71C73.53 91.71 74.47 91.72 75.18 92.09C76.61 92.84 77.25 95.15 76.72 97.04H76.71Z" fill="#F2A0AE" stroke="#1D1E1C" stroke-miterlimit="10"/>
<path id="Vector_65" d="M71.9471 89.0105C73.0533 88.8659 73.8433 87.9318 73.7115 86.9242C73.5798 85.9165 72.5762 85.217 71.47 85.3616C70.3638 85.5063 69.5739 86.4404 69.7056 87.448C69.8374 88.4556 70.8409 89.1552 71.9471 89.0105Z" fill="#F2A0AE" stroke="#1D1E1C" stroke-miterlimit="10"/>
<path id="Vector_66" d="M76.8643 90.0736C77.9704 89.9289 78.7604 88.9948 78.6286 87.9872C78.4969 86.9796 77.4933 86.28 76.3871 86.4246C75.2809 86.5693 74.491 87.5034 74.6227 88.511C74.7545 89.5187 75.7581 90.2182 76.8643 90.0736Z" fill="#F2A0AE" stroke="#1D1E1C" stroke-miterlimit="10"/>
<path id="Vector_67" d="M81.2372 92.6948C82.3434 92.5502 83.1333 91.6161 83.0015 90.6085C82.8698 89.6008 81.8662 88.9013 80.76 89.0459C79.6538 89.1906 78.8639 90.1247 78.9957 91.1323C79.1274 92.1399 80.131 92.8395 81.2372 92.6948Z" fill="#F2A0AE" stroke="#1D1E1C" stroke-miterlimit="10"/>
<path id="Vector_68" d="M82.084 97.0479C83.1902 96.9033 83.9801 95.9692 83.8484 94.9615C83.7166 93.9539 82.713 93.2543 81.6068 93.399C80.5006 93.5436 79.7107 94.4777 79.8425 95.4854C79.9742 96.493 80.9778 97.1926 82.084 97.0479Z" fill="#F2A0AE" stroke="#1D1E1C" stroke-miterlimit="10"/>
</g>
<path id="Vector_69" opacity="0.65" d="M23.0801 160.13C18.7901 165.19 19.7501 171.35 20.0601 172.26C18.8901 170.74 15.2601 170.14 14.0801 168.62C13.8301 167.44 13.8401 160.93 17.0801 155.67C20.3201 150.43 29.7601 147.98 30.9701 147.62C31.8401 148.82 33.8801 149.77 34.7501 150.97" fill="#807D71"/>
<path id="Vector_70" opacity="0.65" d="M40.54 166.28C42.81 172.43 45.45 171.16 46.36 171.54C44.4 171.39 43.38 172.87 41.41 172.71C40.31 172.12 37.59 171.45 35.58 165.66C33.58 159.87 36.4 153.85 36.91 152.74C38.42 152.9 39.03 153.1 40.54 153.26" fill="#807D71"/>
<g id="Vector_71">
<path d="M17.82 186.73C19.57 185.38 21.75 184.99 23.29 185.79C24.36 186.34 25.37 187.83 25.6 189.29C25.81 190.57 25.32 191.86 25.21 192.13C24.82 193.14 23.96 194.29 23.17 194.93C21.3 196.44 18.81 196.25 17 193.38" fill="#CCC8B4"/>
<path d="M17.82 186.73C19.57 185.38 21.75 184.99 23.29 185.79C24.36 186.34 25.37 187.83 25.6 189.29C25.81 190.57 25.32 191.86 25.21 192.13C24.82 193.14 23.96 194.29 23.17 194.93C21.3 196.44 18.81 196.25 17 193.38" stroke="#1D1E1C" stroke-miterlimit="10"/>
</g>
<g id="Group_19">
<g id="Vector_72">
<path d="M13.32 190.88C11.9 192.48 9.85 193.25 8.18 192.75C7.02 192.4 5.72 191.14 5.18 189.78C4.7 188.58 4.92 187.26 4.96 186.97C5.12 185.93 5.72 184.67 6.36 183.92C7.87 182.14 10.34 181.89 12.7 184.33" fill="#CCC8B4"/>
<path d="M13.32 190.88C11.9 192.48 9.85 193.25 8.18 192.75C7.02 192.4 5.72 191.14 5.18 189.78C4.7 188.58 4.92 187.26 4.96 186.97C5.12 185.93 5.72 184.67 6.36 183.92C7.87 182.14 10.34 181.89 12.7 184.33" stroke="#1D1E1C" stroke-miterlimit="10"/>
</g>
<path id="Vector_73" d="M17.21 193.73C16.14 195.14 14.04 196.17 12.07 195.6C10.24 195.07 9.38001 193.41 9.07001 192.63C8.59001 191.43 8.81001 190.11 8.85001 189.82C9.01001 188.78 9.61001 187.52 10.25 186.77C10.55 186.42 11.32 185.64 12.49 185.44C14.63 185.06 16.38 186.95 16.6 187.19C18.03 188.77 18.81 191.63 17.22 193.74L17.21 193.73Z" fill="#CCC8B4" stroke="#1D1E1C" stroke-miterlimit="10"/>
</g>
</g>
<g id="Group_20">
<g id="Group_21">
<g id="Group_22">
<path id="Vector_74" d="M123.13 157.27C116.97 157.27 111.95 152.79 111.95 147.28C111.95 141.77 116.97 137.29 123.13 137.29C129.29 137.29 134.31 141.77 134.31 147.28C134.31 152.79 129.29 157.27 123.13 157.27Z" fill="#EEFFFE"/>
<path id="Vector_75" d="M123.13 137.41C129.23 137.41 134.18 141.84 134.18 147.28C134.18 152.72 129.22 157.15 123.13 157.15C117.04 157.15 112.08 152.72 112.08 147.28C112.08 141.84 117.04 137.41 123.13 137.41ZM123.13 137.16C116.89 137.16 111.83 141.69 111.83 147.28C111.83 152.87 116.89 157.4 123.13 157.4C129.37 157.4 134.43 152.87 134.43 147.28C134.43 141.69 129.37 137.16 123.13 137.16Z" fill="#00BFAC"/>
</g>
<path id="Vector_76" opacity="0.32" d="M119.38 139.96C118.82 140.04 117.02 140.36 115.53 141.77C113.99 143.22 113.77 144.89 113.73 145.38C114.13 144.86 115.14 142.93 115.65 142.41C117.21 140.82 117.69 140.71 119.38 139.97V139.96Z" fill="#FFF46C"/>
<path id="Vector_77" opacity="0.21" d="M116.84 142.73C116.44 143.04 114.28 144.78 113.94 147.7C113.59 150.65 115.24 153.61 118.08 154.96C117.44 154.5 115.83 153.23 115.13 150.88C113.88 146.7 116.62 143.01 116.84 142.73Z" fill="#7EFF15"/>
<path id="Vector_78" opacity="0.32" d="M129.6 141.14C130.21 142.17 131.95 145.08 131.85 147.73C131.64 153.17 126.26 155.49 125.65 155.89C126.15 155.83 130.26 155.23 132.19 151.84C134.06 148.56 133.1 144.02 129.6 141.13V141.14Z" fill="#B915FF"/>
<path id="Vector_79" d="M125.44 138.46C125.49 138.32 127.96 138.42 129.93 140.03C131.18 141.04 131.73 142.26 131.97 142.9C131.21 141.97 130.02 140.76 128.29 139.77C126.66 138.83 125.4 138.57 125.43 138.46H125.44Z" fill="white"/>
</g>
<g id="Group_23">
<path id="Vector_80" d="M144.82 182.13L139.47 166.96L133.82 134.4L142.31 130.78L142.82 130.67C143.41 130.42 144.04 130.29 144.69 130.28L161.91 134.26H161.97C164.86 134.26 167.21 136.71 167.21 139.72V180.47C167.21 182.52 166.12 184.38 164.36 185.33L163.19 185.79L153.92 188.71L144.82 182.14V182.13Z" fill="#98E2B9"/>
<path id="Vector_81" d="M144.63 130.78L161.74 134.73L161.85 134.76H161.96C164.57 134.76 166.7 136.99 166.7 139.72V180.47C166.7 182.34 165.71 184.03 164.11 184.89L163.03 185.31L154 188.16L145.23 181.82L139.96 166.87L134.37 134.71L142.01 131.45L142.04 131.54L143 131.13C143.51 130.91 144.06 130.8 144.62 130.78M144.73 129.78C143.98 129.78 143.27 129.93 142.61 130.21L142.58 130.12L133.25 134.1L138.99 167.13L144.39 182.45L153.82 189.26L163.36 186.25L164.5 185.81C164.5 185.81 164.56 185.78 164.59 185.77C166.44 184.78 167.7 182.77 167.7 180.47V139.72C167.7 136.44 165.12 133.76 161.96 133.76L144.74 129.78H144.73Z" fill="#006837"/>
</g>
<g id="Group_24">
<path id="Vector_82" d="M136.42 185.03H136.36C133.47 185.03 131.12 182.58 131.12 179.57V138.82C131.12 135.83 133.44 133.39 136.31 133.36L153.53 137.34H153.59C156.48 137.34 158.83 139.79 158.83 142.8V183.55C158.83 186.54 156.51 188.98 153.64 189.01L136.42 185.03Z" fill="#B0FFD7"/>
<path id="Vector_83" d="M136.26 133.85L153.37 137.8L153.48 137.83H153.59C156.2 137.83 158.33 140.06 158.33 142.79V183.54C158.33 186.24 156.26 188.44 153.7 188.5L136.59 184.55L136.48 184.52H136.37C133.76 184.52 131.63 182.29 131.63 179.56V138.81C131.63 136.11 133.7 133.91 136.26 133.85ZM136.37 132.85C133.21 132.85 130.63 135.53 130.63 138.81V179.56C130.63 182.84 133.21 185.52 136.37 185.52L153.59 189.5C156.75 189.5 159.33 186.82 159.33 183.54V142.79C159.33 139.51 156.75 136.83 153.59 136.83L136.37 132.85Z" fill="#006837"/>
</g>
<g id="Group_25">
<path id="Vector_84" d="M150.03 135.64C147.9 135.64 145.78 135.25 143.73 134.48C142.48 134.01 141.64 132.75 141.64 131.34V128.25C141.64 126.4 143.08 124.9 144.84 124.9H155.13C156.9 124.9 158.33 126.4 158.33 128.25V131.35C158.33 132.75 157.49 134.01 156.25 134.49C154.67 135.09 153.03 135.46 151.38 135.59C150.91 135.63 150.46 135.64 150.01 135.64H150.03Z" fill="#F3F975"/>
<path id="Vector_85" d="M155.15 125.41C156.64 125.41 157.85 126.69 157.85 128.26V131.36C157.85 132.56 157.14 133.63 156.09 134.03C154.56 134.61 152.96 134.97 151.35 135.09C150.91 135.12 150.46 135.14 150.02 135.14C147.95 135.14 145.89 134.76 143.9 134.01C142.85 133.61 142.14 132.54 142.14 131.34V128.25C142.14 126.68 143.35 125.4 144.84 125.4H155.13M155.13 124.4H144.84C142.79 124.4 141.14 126.12 141.14 128.25V131.34C141.14 132.95 142.09 134.4 143.55 134.95C145.21 135.57 147.42 136.14 150.02 136.14C150.48 136.14 150.94 136.12 151.42 136.08C153.38 135.93 155.07 135.47 156.43 134.95C157.88 134.4 158.83 132.95 158.83 131.35V128.25C158.83 126.13 157.17 124.4 155.13 124.4Z" fill="#A67C52"/>
</g>
<g id="Group_26">
<path id="Vector_86" d="M149.52 130.86C142.54 130.86 136.86 126.07 136.86 120.18C136.86 114.29 142.54 109.5 149.52 109.5C156.5 109.5 162.18 114.29 162.18 120.18C162.18 126.07 156.5 130.86 149.52 130.86Z" fill="url(#paint17_radial_121_1694)"/>
<path id="Vector_87" d="M149.52 110C156.22 110 161.68 114.57 161.68 120.18C161.68 125.79 156.23 130.36 149.52 130.36C142.81 130.36 137.36 125.79 137.36 120.18C137.36 114.57 142.81 110 149.52 110ZM149.52 109C142.25 109 136.36 114.01 136.36 120.18C136.36 126.35 142.25 131.36 149.52 131.36C156.79 131.36 162.68 126.35 162.68 120.18C162.68 114.01 156.79 109 149.52 109Z" fill="#0071BC"/>
</g>
<g id="Group_27">
<g id="Group_28">
<path id="Vector_88" d="M143.86 170.56C143.86 170.63 143.89 170.69 143.93 170.74C143.97 170.79 144.04 170.81 144.11 170.81H146.24L148.11 171.69C148.23 171.75 148.38 171.69 148.44 171.57C148.45 171.54 148.46 171.5 148.46 171.46C148.46 171.37 148.41 171.27 148.32 171.23L147.41 170.8H148.83C148.97 170.8 149.08 170.69 149.08 170.55C149.08 170.48 149.05 170.42 149.01 170.37C148.97 170.32 148.9 170.3 148.83 170.3H147.18L148.81 169.94C148.94 169.91 149.03 169.78 149 169.64C148.98 169.52 148.87 169.44 148.76 169.44C148.74 169.44 148.73 169.44 148.71 169.44C148.71 169.44 147.31 169.84 146.44 170.09C146.44 170.02 146.44 169.94 146.42 169.87L145.78 167.71C145.69 167.41 145.38 167.24 145.08 167.33C144.84 167.4 144.68 167.63 144.68 167.87C144.68 167.92 144.68 167.98 144.7 168.03L145.34 170.19C145.34 170.19 145.36 170.26 145.38 170.29H144.11C143.97 170.29 143.86 170.4 143.86 170.54V170.56Z" fill="#FF9700"/>
<path id="Vector_89" d="M139.4 169.75C139.4 169.82 139.44 169.88 139.49 169.92L141.15 171.27L142.05 173.14C142.11 173.26 142.26 173.32 142.38 173.26C142.41 173.24 142.44 173.22 142.46 173.19C142.52 173.12 142.54 173.01 142.49 172.92L142.05 172.01L143.15 172.91C143.26 173 143.41 172.98 143.5 172.87C143.54 172.82 143.56 172.75 143.55 172.69C143.55 172.62 143.51 172.56 143.46 172.52L142.18 171.47L143.67 172.22C143.79 172.28 143.94 172.23 144 172.11C144.05 172 144.02 171.88 143.94 171.8C143.93 171.79 143.91 171.78 143.89 171.77C143.89 171.77 142.88 171.33 142.06 170.98C142.13 170.92 142.19 170.83 142.22 170.73L142.91 168.59C143 168.29 142.84 167.97 142.55 167.88C142.49 167.86 142.44 167.85 142.38 167.85C142.14 167.85 141.92 168 141.85 168.24L141.16 170.38C141.14 170.45 141.13 170.51 141.13 170.58C141.08 170.56 141.05 170.55 141.05 170.55L139.78 169.52C139.67 169.43 139.52 169.45 139.43 169.56C139.39 169.61 139.37 169.68 139.38 169.74L139.4 169.75Z" fill="#FF9700"/>
<path id="Vector_90" d="M147.12 165.6C146.29 166.54 146.14 167.28 146.15 167.79C146.17 168.38 146.43 168.81 146.18 169.14C145.92 169.49 145.28 169.49 144.94 169.4C143.37 169.01 143.07 165.74 143.05 165.58" fill="#FFF200"/>
<path id="Vector_91" d="M145.62 169.01C145.5 169.04 145.31 169.07 145.11 169.01C144.24 168.74 144.08 167.08 143.89 167.11C143.8 167.13 143.76 167.53 143.82 167.9C143.92 168.5 144.36 169.33 145.07 169.4C145.2 169.41 145.46 169.42 145.8 169.22C145.85 169.1 145.8 169 145.74 168.98C145.69 168.96 145.63 169 145.62 169.01Z" fill="#DDB800"/>
<path id="Vector_92" d="M146.24 162.29C147.35 161.34 147.65 160.4 147.75 159.99C148.3 157.68 146.39 155.36 144.37 154.57C143.33 154.16 142.35 154.19 141.77 154.26C142.46 155.33 143.01 156.27 143.43 157.02C144.33 158.63 144.62 159.33 144.81 160.14C144.95 160.74 145 161.26 145.02 161.61" fill="#FFF200"/>
<path id="Vector_93" d="M139.26 163.04C139.47 163.31 139.72 163.51 139.97 163.65C139.96 163.78 139.95 163.91 139.95 164.04C139.95 166.43 142.34 168.36 145.29 168.36C148.24 168.36 150.63 166.42 150.63 164.04C150.63 161.66 148.24 159.72 145.29 159.72C143.37 159.72 141.69 160.54 140.75 161.76C140.53 161.68 140.32 161.57 140.13 161.41C139.35 160.77 139.37 159.76 139.14 159.78C138.82 159.82 138.27 161.76 139.26 163.04Z" fill="#FFF200"/>
<path id="Vector_94" d="M145.85 158.53C145.92 158.76 146.05 158.95 146.19 159.1C146.01 159.45 145.91 159.83 145.91 160.23C145.91 161.82 147.5 163.11 149.45 163.11C151.4 163.11 152.99 161.82 152.99 160.23C152.99 158.64 151.4 157.35 149.45 157.35C148.28 157.35 147.24 157.81 146.59 158.53C146.49 158.5 146.41 158.46 146.34 158.41C146.06 158.22 145.94 157.87 145.84 157.91C145.75 157.94 145.76 158.27 145.84 158.54L145.85 158.53Z" fill="#FFF200"/>
<path id="Vector_95" d="M150.82 162.04C150.82 162.04 150.82 162.04 150.82 162.05C150.89 162.2 151.22 162.95 151.93 163.29C152.23 163.44 152.62 163.51 152.68 163.42C152.72 163.34 152.51 163.18 152.31 162.92C152.1 162.65 151.91 162.29 151.81 161.79L150.82 162.04Z" fill="#FF9700"/>
<path id="Vector_96" d="M152.25 163.1C152.34 163.01 152.05 162.57 151.88 162.35C151.7 162.13 151.37 161.78 151.26 161.85C151.17 161.91 151.26 162.24 151.38 162.48C151.63 162.93 152.15 163.2 152.25 163.11V163.1Z" fill="#E07F00"/>
<path id="Vector_97" d="M142.43 154.71C142.56 154.59 144.08 155.78 145.04 157.59C145.44 158.34 145.88 159.46 145.66 159.6C145.49 159.71 144.96 159.2 144.67 158.85C144.06 158.13 144.02 157.59 143.55 156.59C142.94 155.29 142.35 154.78 142.43 154.71Z" fill="#DDB800"/>
<path id="Vector_98" d="M145.04 167.12C145.74 167.07 146.59 167.02 147.65 166.74C148.38 166.55 148.82 166.36 148.89 166.49C148.98 166.64 148.49 167.16 148.02 167.49C146.87 168.33 145.18 168.59 143.79 167.99C143.34 167.8 142.74 167.43 142.8 167.24C142.86 167.03 143.6 167.21 145.04 167.11V167.12Z" fill="#DDB800"/>
<path id="Vector_99" d="M150.57 161.91C151.02 161.78 151.28 161.57 151.44 161.41C151.76 161.08 151.84 160.72 152.31 160.41C152.46 160.31 152.57 160.27 152.68 160.28C152.95 160.32 153.1 160.64 153.18 160.78C153.36 161.1 153.72 161.52 154.55 161.91C154.3 162.08 153.58 162.54 152.56 162.54C151.54 162.54 150.82 162.09 150.57 161.91Z" fill="#FF9700"/>
<path id="Vector_100" d="M144.85 167.05C143.72 167.58 143.29 168.2 143.11 168.68C142.9 169.23 142.97 169.73 142.61 169.93C142.23 170.15 141.65 169.89 141.37 169.68C140.08 168.7 141.07 165.57 141.12 165.42" fill="#FFF200"/>
<path id="Vector_101" d="M145.6 162.42C145.95 160.85 145.55 159.83 145.35 159.41C144.21 157.03 140.81 156.34 138.39 157.03C137.14 157.39 136.27 158.08 135.78 158.53C137.17 158.99 138.34 159.42 139.26 159.78C141.23 160.55 141.99 160.97 142.74 161.53C143.3 161.96 143.71 162.37 143.98 162.66" fill="#FFF200"/>
<path id="Vector_102" d="M144.85 162.29C145.06 161.56 144.99 161.04 144.85 160.66C144.08 158.65 141.61 157.51 136.27 158.4" fill="#FFF200"/>
<path id="Vector_103" d="M150.39 159.63C150.59 159.66 150.72 159.78 150.77 159.84C151.01 160.12 151.03 160.61 150.82 160.8C150.75 160.86 150.56 160.87 150.16 160.88C149.83 160.89 149.77 160.88 149.72 160.84C149.54 160.72 149.51 160.43 149.56 160.22C149.65 159.86 150.03 159.58 150.39 159.62V159.63Z" fill="white"/>
<path id="Vector_104" d="M150.729 160.861C150.89 160.803 150.964 160.6 150.894 160.408C150.824 160.215 150.637 160.107 150.477 160.165C150.316 160.224 150.241 160.427 150.311 160.619C150.381 160.811 150.568 160.919 150.729 160.861Z" fill="black"/>
<path id="Vector_105" d="M152.75 162.35C152.47 162.28 152.13 162.14 152 161.85C151.86 161.52 152.06 161.12 152 161.1C151.94 161.08 151.82 161.65 151.38 161.85C151.19 161.94 151.01 161.92 151.01 161.98C151 162.08 151.56 162.21 151.63 162.23C151.89 162.29 152.27 162.36 152.75 162.36V162.35Z" fill="#E07F00"/>
<path id="Vector_106" d="M148.52 162.6C148.21 162.37 147.79 162.01 147.4 161.47C146.65 160.43 146.54 159.44 146.41 159.46C146.29 159.48 146.19 160.33 146.53 161.09C147.04 162.2 148.26 162.53 148.52 162.59V162.6Z" fill="#DDB800"/>
<path id="Vector_107" d="M144.67 162.23C144.94 162.11 144.92 160.94 144.42 160.1C142.79 157.31 136.34 158.41 136.34 158.47C136.34 158.52 139.77 157.72 142.31 159.72C143.71 160.83 144.33 162.38 144.67 162.23Z" fill="#DDB800"/>
<path id="Vector_108" d="M140.44 162.98C140.19 162.9 139.86 162.75 139.57 162.48C138.96 161.92 138.88 161.21 138.82 161.23C138.75 161.25 138.75 162.27 139.44 162.98C139.7 163.25 139.98 163.4 140.19 163.48C140.27 163.31 140.36 163.15 140.44 162.98Z" fill="#DDB800"/>
<path id="Vector_109" d="M142.3 169.5C142.18 169.5 141.99 169.49 141.8 169.37C141.01 168.9 141.25 167.25 141.05 167.24C140.96 167.24 140.82 167.62 140.8 167.99C140.76 168.6 140.99 169.5 141.67 169.74C141.79 169.78 142.05 169.85 142.42 169.74C142.49 169.64 142.48 169.53 142.42 169.49C142.37 169.46 142.31 169.49 142.3 169.49V169.5Z" fill="#DDB800"/>
<path id="Vector_110" d="M149.41 163.11C149.63 162.91 150.13 162.77 150.47 162.91C151 163.14 150.92 163.93 150.76 164.26C150.7 164.39 150.6 164.49 150.41 164.52C150.39 164.52 150.16 164.56 149.94 164.48C149.44 164.3 148.98 163.5 149.41 163.11Z" fill="#0DD1CB"/>
<path id="Vector_111" d="M149.04 162.98C148.88 162.68 148.45 162.28 148.09 162.23C147.54 162.16 147.44 162.95 147.51 163.34C147.54 163.49 147.6 163.64 147.78 163.77C147.8 163.78 148.01 163.94 148.23 163.98C148.74 164.08 149.35 163.58 149.04 162.98Z" fill="#0DD1CB"/>
<path id="Vector_112" d="M149.459 163.915C149.671 163.835 149.759 163.549 149.655 163.275C149.552 163.001 149.296 162.844 149.084 162.924C148.873 163.004 148.785 163.291 148.888 163.565C148.992 163.839 149.247 163.996 149.459 163.915Z" fill="#0DD1CB"/>
<path id="Vector_113" d="M148.12 162.61C148.18 162.64 147.64 163.07 148 163.49C148.05 163.55 148.14 163.64 148.13 163.64C148.11 163.64 147.83 163.47 147.7 163.28C147.42 162.86 148.06 162.58 148.12 162.6V162.61Z" fill="#038787"/>
</g>
<path id="Vector_114" d="M150.687 160.46C150.789 160.384 150.818 160.251 150.752 160.162C150.686 160.074 150.55 160.064 150.448 160.139C150.346 160.215 150.317 160.349 150.383 160.437C150.449 160.526 150.585 160.536 150.687 160.46Z" fill="#F7F8F9"/>
</g>
<g id="Group_29">
<g id="Group_30">
<path id="Vector_115" d="M137.84 154.16C136.6 154.16 135.59 153.15 135.59 151.91C135.59 150.67 136.6 149.65 137.84 149.65C139.08 149.65 140.09 150.66 140.09 151.91C140.09 153.16 139.08 154.16 137.84 154.16Z" fill="#EEFFFE"/>
<path id="Vector_116" d="M137.84 149.77C139.01 149.77 139.96 150.73 139.96 151.9C139.96 153.07 139.01 154.03 137.84 154.03C136.67 154.03 135.72 153.07 135.72 151.9C135.72 150.73 136.67 149.77 137.84 149.77ZM137.84 149.52C136.53 149.52 135.47 150.59 135.47 151.9C135.47 153.21 136.53 154.28 137.84 154.28C139.15 154.28 140.21 153.21 140.21 151.9C140.21 150.59 139.15 149.52 137.84 149.52Z" fill="#00BFAC"/>
</g>
<path id="Vector_117" opacity="0.32" d="M137.05 150.18C136.93 150.2 136.56 150.27 136.24 150.6C135.92 150.94 135.87 151.33 135.86 151.45C135.94 151.33 136.16 150.87 136.26 150.75C136.59 150.38 136.69 150.35 137.04 150.18H137.05Z" fill="#FFF46C"/>
<path id="Vector_118" opacity="0.21" d="M136.52 150.83C136.44 150.9 135.98 151.31 135.91 152C135.84 152.69 136.18 153.39 136.78 153.71C136.64 153.6 136.31 153.3 136.16 152.75C135.9 151.77 136.47 150.9 136.52 150.83Z" fill="#7EFF15"/>
<path id="Vector_119" opacity="0.32" d="M139.2 150.46C139.33 150.7 139.69 151.39 139.67 152.01C139.63 153.29 138.5 153.84 138.37 153.93C138.47 153.91 139.34 153.77 139.74 152.98C140.13 152.21 139.93 151.14 139.2 150.46Z" fill="#B915FF"/>
<path id="Vector_120" d="M138.33 149.83C138.33 149.83 138.86 149.83 139.27 150.2C139.53 150.44 139.65 150.72 139.7 150.88C139.54 150.66 139.29 150.38 138.93 150.14C138.59 149.92 138.32 149.86 138.33 149.83Z" fill="white"/>
</g>
<g id="Group_31">
<g id="Group_32">
<path id="Vector_121" d="M148.38 150.88C146.7 150.88 145.34 149.66 145.34 148.15C145.34 146.64 146.7 145.42 148.38 145.42C150.06 145.42 151.42 146.64 151.42 148.15C151.42 149.66 150.06 150.88 148.38 150.88Z" fill="#EEFFFE"/>
<path id="Vector_122" d="M148.38 145.54C149.99 145.54 151.29 146.71 151.29 148.14C151.29 149.57 149.98 150.74 148.38 150.74C146.78 150.74 145.47 149.57 145.47 148.14C145.47 146.71 146.78 145.54 148.38 145.54ZM148.38 145.29C146.63 145.29 145.22 146.57 145.22 148.14C145.22 149.71 146.64 150.99 148.38 150.99C150.12 150.99 151.54 149.71 151.54 148.14C151.54 146.57 150.12 145.29 148.38 145.29Z" fill="#00BFAC"/>
</g>
<path id="Vector_123" opacity="0.32" d="M147.33 146.09C147.17 146.11 146.67 146.2 146.25 146.6C145.82 147.01 145.76 147.48 145.75 147.62C145.86 147.47 146.15 146.93 146.29 146.78C146.73 146.33 146.86 146.3 147.33 146.09Z" fill="#FFF46C"/>
<path id="Vector_124" opacity="0.21" d="M146.62 146.86C146.51 146.95 145.9 147.44 145.81 148.26C145.71 149.09 146.17 149.93 146.97 150.31C146.79 150.18 146.34 149.82 146.14 149.16C145.79 147.98 146.56 146.94 146.62 146.86Z" fill="#7EFF15"/>
<path id="Vector_125" opacity="0.32" d="M150.19 146.42C150.36 146.71 150.85 147.53 150.82 148.28C150.76 149.81 149.26 150.47 149.09 150.58C149.23 150.56 150.38 150.39 150.92 149.44C151.44 148.51 151.17 147.23 150.2 146.42H150.19Z" fill="#B915FF"/>
<path id="Vector_126" d="M149.03 145.66C149.03 145.66 149.73 145.65 150.29 146.1C150.64 146.39 150.8 146.73 150.86 146.91C150.65 146.65 150.31 146.31 149.83 146.03C149.37 145.76 149.02 145.69 149.03 145.66Z" fill="white"/>
</g>
<g id="Group_33">
<g id="Group_34">
<path id="Vector_127" d="M151.01 178.94C149.22 178.94 147.76 177.65 147.76 176.07C147.76 174.49 149.22 173.2 151.01 173.2C152.8 173.2 154.26 174.49 154.26 176.07C154.26 177.65 152.8 178.94 151.01 178.94Z" fill="#EEFFFE"/>
<path id="Vector_128" d="M151.01 173.33C152.74 173.33 154.14 174.56 154.14 176.07C154.14 177.58 152.74 178.81 151.01 178.81C149.28 178.81 147.88 177.58 147.88 176.07C147.88 174.56 149.28 173.33 151.01 173.33ZM151.01 173.08C149.14 173.08 147.63 174.42 147.63 176.07C147.63 177.72 149.14 179.06 151.01 179.06C152.88 179.06 154.39 177.72 154.39 176.07C154.39 174.42 152.88 173.08 151.01 173.08Z" fill="#00BFAC"/>
</g>
<path id="Vector_129" opacity="0.32" d="M149.89 173.91C149.72 173.93 149.19 174.03 148.74 174.44C148.28 174.87 148.21 175.36 148.2 175.51C148.32 175.36 148.62 174.78 148.78 174.63C149.25 174.16 149.39 174.13 149.89 173.91Z" fill="#FFF46C"/>
<path id="Vector_130" opacity="0.21" d="M149.13 174.73C149.01 174.82 148.37 175.34 148.26 176.2C148.16 177.07 148.65 177.95 149.5 178.35C149.31 178.22 148.83 177.84 148.62 177.14C148.25 175.9 149.07 174.81 149.13 174.73Z" fill="#7EFF15"/>
<path id="Vector_131" opacity="0.32" d="M152.94 174.26C153.12 174.57 153.64 175.42 153.61 176.21C153.55 177.82 151.94 178.51 151.76 178.62C151.91 178.6 153.14 178.42 153.71 177.42C154.27 176.45 153.98 175.11 152.94 174.25V174.26Z" fill="#B915FF"/>
<path id="Vector_132" d="M151.7 173.46C151.7 173.46 152.45 173.45 153.04 173.92C153.41 174.22 153.58 174.58 153.65 174.77C153.42 174.5 153.07 174.14 152.55 173.84C152.06 173.56 151.68 173.48 151.69 173.45L151.7 173.46Z" fill="white"/>
</g>
<g id="Group_35">
<g id="Group_36">
<path id="Vector_133" d="M173.6 183.56C167.44 183.56 162.42 179.08 162.42 173.57C162.42 168.06 167.44 163.58 173.6 163.58C179.76 163.58 184.78 168.06 184.78 173.57C184.78 179.08 179.76 183.56 173.6 183.56Z" fill="#EEFFFE"/>
<path id="Vector_134" d="M173.6 163.7C179.7 163.7 184.65 168.13 184.65 173.57C184.65 179.01 179.69 183.44 173.6 183.44C167.51 183.44 162.55 179.01 162.55 173.57C162.55 168.13 167.51 163.7 173.6 163.7ZM173.6 163.45C167.36 163.45 162.3 167.98 162.3 173.57C162.3 179.16 167.36 183.69 173.6 183.69C179.84 183.69 184.9 179.16 184.9 173.57C184.9 167.98 179.84 163.45 173.6 163.45Z" fill="#00BFAC"/>
</g>
<path id="Vector_135" opacity="0.32" d="M169.85 166.26C169.29 166.34 167.49 166.66 166 168.07C164.46 169.52 164.24 171.19 164.2 171.68C164.6 171.16 165.61 169.23 166.12 168.71C167.68 167.12 168.16 167.01 169.85 166.27V166.26Z" fill="#FFF46C"/>
<path id="Vector_136" opacity="0.21" d="M167.31 169.02C166.91 169.33 164.75 171.07 164.41 173.99C164.06 176.94 165.71 179.9 168.55 181.25C167.91 180.79 166.3 179.52 165.6 177.17C164.35 172.99 167.09 169.3 167.31 169.02Z" fill="#7EFF15"/>
<path id="Vector_137" opacity="0.32" d="M180.07 167.43C180.68 168.46 182.42 171.37 182.32 174.02C182.11 179.46 176.73 181.78 176.12 182.18C176.62 182.12 180.73 181.52 182.66 178.13C184.53 174.85 183.57 170.31 180.07 167.42V167.43Z" fill="#B915FF"/>
<path id="Vector_138" d="M175.91 164.75C175.96 164.61 178.43 164.71 180.4 166.32C181.65 167.33 182.2 168.55 182.44 169.19C181.68 168.26 180.49 167.05 178.76 166.06C177.13 165.12 175.87 164.86 175.9 164.75H175.91Z" fill="white"/>
</g>
<g id="Group_37">
<g id="Group_38">
<path id="Vector_139" d="M129.49 197.32C122.4 197.32 116.62 192.48 116.62 186.54C116.62 180.6 122.39 175.76 129.49 175.76C136.59 175.76 142.35 180.6 142.35 186.54C142.35 192.48 136.58 197.32 129.49 197.32Z" fill="#EEFFFE"/>
<path id="Vector_140" d="M129.48 175.88C136.5 175.88 142.22 180.66 142.22 186.54C142.22 192.42 136.5 197.2 129.48 197.2C122.46 197.2 116.74 192.42 116.74 186.54C116.74 180.66 122.46 175.88 129.48 175.88ZM129.48 175.63C122.31 175.63 116.49 180.51 116.49 186.54C116.49 192.57 122.31 197.45 129.48 197.45C136.65 197.45 142.47 192.57 142.47 186.54C142.47 180.51 136.65 175.63 129.48 175.63Z" fill="#00BFAC"/>
</g>
<path id="Vector_141" opacity="0.32" d="M125.18 178.66C124.54 178.75 122.47 179.09 120.76 180.61C118.99 182.18 118.74 183.98 118.69 184.5C119.14 183.94 120.31 181.86 120.9 181.29C122.7 179.57 123.25 179.46 125.18 178.66Z" fill="#FFF46C"/>
<path id="Vector_142" opacity="0.21" d="M122.26 181.64C121.8 181.97 119.32 183.85 118.93 187C118.53 190.18 120.42 193.37 123.69 194.83C122.95 194.34 121.11 192.96 120.3 190.43C118.86 185.93 122.02 181.95 122.27 181.64H122.26Z" fill="#7EFF15"/>
<path id="Vector_143" opacity="0.32" d="M136.92 179.92C137.62 181.03 139.62 184.16 139.5 187.03C139.26 192.89 133.08 195.39 132.38 195.82C132.95 195.75 137.67 195.11 139.89 191.46C142.04 187.92 140.94 183.03 136.92 179.92Z" fill="#B915FF"/>
<path id="Vector_144" d="M132.15 177.04C132.2 176.89 135.04 177 137.31 178.73C138.75 179.82 139.38 181.13 139.66 181.83C138.78 180.83 137.42 179.53 135.43 178.45C133.56 177.44 132.1 177.15 132.14 177.04H132.15Z" fill="white"/>
</g>
<g id="Group_39">
<g id="Group_40">
<path id="Vector_145" d="M170.74 144.51C174.473 144.51 177.5 141.725 177.5 138.29C177.5 134.855 174.473 132.07 170.74 132.07C167.007 132.07 163.98 134.855 163.98 138.29C163.98 141.725 167.007 144.51 170.74 144.51Z" fill="#EEFFFE"/>
<path id="Vector_146" d="M170.74 132.19C174.4 132.19 177.37 134.92 177.37 138.29C177.37 141.66 174.39 144.39 170.74 144.39C167.09 144.39 164.11 141.66 164.11 138.29C164.11 134.92 167.09 132.19 170.74 132.19ZM170.74 131.94C166.94 131.94 163.86 134.78 163.86 138.29C163.86 141.8 166.94 144.64 170.74 144.64C174.54 144.64 177.62 141.8 177.62 138.29C177.62 134.78 174.54 131.94 170.74 131.94Z" fill="#00BFAC"/>
</g>
<path id="Vector_147" opacity="0.32" d="M168.46 133.7C168.12 133.75 167.03 133.95 166.12 134.83C165.18 135.74 165.05 136.79 165.02 137.1C165.26 136.77 165.88 135.56 166.19 135.23C167.14 134.23 167.43 134.16 168.46 133.7Z" fill="#FFF46C"/>
<path id="Vector_148" opacity="0.21" d="M166.91 135.44C166.67 135.63 165.35 136.73 165.14 138.56C164.93 140.41 165.93 142.27 167.66 143.11C167.27 142.82 166.29 142.02 165.86 140.55C165.1 137.93 166.77 135.62 166.9 135.44H166.91Z" fill="#7EFF15"/>
<path id="Vector_149" opacity="0.32" d="M174.68 134.44C175.05 135.09 176.11 136.91 176.05 138.58C175.92 141.99 172.65 143.45 172.28 143.7C172.58 143.66 175.09 143.28 176.26 141.16C177.4 139.1 176.81 136.26 174.68 134.45V134.44Z" fill="#B915FF"/>
<path id="Vector_150" d="M172.15 132.76C172.18 132.67 173.68 132.74 174.89 133.74C175.65 134.38 175.99 135.14 176.13 135.54C175.67 134.96 174.94 134.2 173.89 133.57C172.9 132.98 172.13 132.82 172.15 132.75V132.76Z" fill="white"/>
</g>
<g id="Group_41">
<g id="Group_42">
<path id="Vector_151" d="M189.1 158.84C185.37 158.84 182.34 156.05 182.34 152.62C182.34 149.19 185.37 146.4 189.1 146.4C192.83 146.4 195.86 149.19 195.86 152.62C195.86 156.05 192.83 158.84 189.1 158.84Z" fill="#EEFFFE"/>
<path id="Vector_152" d="M189.1 146.52C192.76 146.52 195.73 149.25 195.73 152.62C195.73 155.99 192.75 158.72 189.1 158.72C185.45 158.72 182.47 155.99 182.47 152.62C182.47 149.25 185.45 146.52 189.1 146.52ZM189.1 146.27C185.3 146.27 182.22 149.11 182.22 152.62C182.22 156.13 185.3 158.97 189.1 158.97C192.9 158.97 195.98 156.13 195.98 152.62C195.98 149.11 192.9 146.27 189.1 146.27Z" fill="#00BFAC"/>
</g>
<path id="Vector_153" opacity="0.32" d="M186.82 148.03C186.48 148.08 185.39 148.28 184.48 149.16C183.54 150.07 183.41 151.12 183.38 151.43C183.62 151.1 184.24 149.89 184.55 149.56C185.5 148.56 185.79 148.49 186.82 148.03Z" fill="#FFF46C"/>
<path id="Vector_154" opacity="0.21" d="M185.27 149.77C185.03 149.96 183.71 151.06 183.5 152.89C183.29 154.74 184.29 156.6 186.02 157.44C185.63 157.15 184.65 156.35 184.22 154.88C183.46 152.26 185.13 149.95 185.26 149.77H185.27Z" fill="#7EFF15"/>
<path id="Vector_155" opacity="0.32" d="M193.04 148.77C193.41 149.42 194.47 151.24 194.41 152.91C194.28 156.32 191.01 157.78 190.64 158.03C190.94 157.99 193.45 157.61 194.62 155.49C195.76 153.43 195.17 150.59 193.04 148.78V148.77Z" fill="#B915FF"/>
<path id="Vector_156" d="M190.51 147.09C190.54 147 192.04 147.07 193.25 148.07C194.01 148.71 194.35 149.47 194.49 149.87C194.03 149.29 193.3 148.53 192.25 147.9C191.26 147.31 190.49 147.15 190.51 147.08V147.09Z" fill="white"/>
</g>
<g id="Group_43">
<g id="Group_44">
<path id="Vector_157" d="M116.38 176.23C120.113 176.23 123.14 173.445 123.14 170.01C123.14 166.575 120.113 163.79 116.38 163.79C112.647 163.79 109.62 166.575 109.62 170.01C109.62 173.445 112.647 176.23 116.38 176.23Z" fill="#EEFFFE"/>
<path id="Vector_158" d="M116.38 163.92C120.04 163.92 123.01 166.65 123.01 170.02C123.01 173.39 120.03 176.12 116.38 176.12C112.73 176.12 109.75 173.39 109.75 170.02C109.75 166.65 112.73 163.92 116.38 163.92ZM116.38 163.67C112.58 163.67 109.5 166.51 109.5 170.02C109.5 173.53 112.58 176.37 116.38 176.37C120.18 176.37 123.26 173.53 123.26 170.02C123.26 166.51 120.18 163.67 116.38 163.67Z" fill="#00BFAC"/>
</g>
<path id="Vector_159" opacity="0.32" d="M114.1 165.43C113.76 165.48 112.67 165.68 111.76 166.56C110.82 167.47 110.69 168.52 110.66 168.83C110.9 168.5 111.52 167.29 111.83 166.96C112.78 165.96 113.07 165.89 114.1 165.43Z" fill="#FFF46C"/>
<path id="Vector_160" opacity="0.21" d="M112.55 167.16C112.31 167.35 110.99 168.45 110.78 170.28C110.57 172.13 111.57 173.99 113.3 174.83C112.91 174.54 111.93 173.74 111.5 172.27C110.74 169.65 112.41 167.34 112.54 167.16H112.55Z" fill="#7EFF15"/>
<path id="Vector_161" opacity="0.32" d="M120.32 166.16C120.69 166.81 121.75 168.63 121.69 170.3C121.56 173.71 118.29 175.17 117.92 175.42C118.22 175.38 120.73 175 121.9 172.88C123.04 170.82 122.45 167.98 120.32 166.17V166.16Z" fill="#B915FF"/>
<path id="Vector_162" d="M117.79 164.48C117.82 164.39 119.32 164.46 120.53 165.46C121.29 166.1 121.63 166.86 121.77 167.26C121.31 166.68 120.58 165.92 119.53 165.29C118.54 164.7 117.77 164.54 117.79 164.47V164.48Z" fill="white"/>
</g>
<g id="Group_45">
<g id="Group_46">
<path id="Vector_163" d="M128.87 128.83C126.05 128.83 123.76 126.57 123.76 123.79C123.76 121.01 126.05 118.75 128.87 118.75C131.69 118.75 133.98 121.01 133.98 123.79C133.98 126.57 131.69 128.83 128.87 128.83Z" fill="#EEFFFE"/>
<path id="Vector_164" d="M128.87 118.87C131.62 118.87 133.86 121.08 133.86 123.79C133.86 126.5 131.62 128.71 128.87 128.71C126.12 128.71 123.88 126.5 123.88 123.79C123.88 121.08 126.12 118.87 128.87 118.87ZM128.87 118.62C125.98 118.62 123.63 120.93 123.63 123.79C123.63 126.65 125.97 128.96 128.87 128.96C131.77 128.96 134.11 126.65 134.11 123.79C134.11 120.93 131.77 118.62 128.87 118.62Z" fill="#00BFAC"/>
</g>
<path id="Vector_165" opacity="0.32" d="M127.13 120.05C126.87 120.09 126.04 120.25 125.35 120.97C124.64 121.71 124.53 122.56 124.51 122.82C124.69 122.55 125.16 121.57 125.4 121.3C126.12 120.49 126.35 120.43 127.13 120.05Z" fill="#FFF46C"/>
<path id="Vector_166" opacity="0.21" d="M125.95 121.46C125.77 121.62 124.77 122.51 124.61 124C124.45 125.51 125.21 127.02 126.53 127.71C126.23 127.48 125.49 126.83 125.16 125.62C124.58 123.49 125.85 121.6 125.95 121.46Z" fill="#7EFF15"/>
<path id="Vector_167" opacity="0.32" d="M131.86 120.65C132.14 121.18 132.95 122.66 132.9 124.02C132.8 126.8 130.31 127.98 130.03 128.19C130.26 128.16 132.16 127.85 133.06 126.12C133.93 124.44 133.48 122.13 131.86 120.65Z" fill="#B915FF"/>
<path id="Vector_168" d="M129.94 119.29C129.96 119.22 131.11 119.27 132.02 120.09C132.6 120.61 132.86 121.23 132.97 121.56C132.62 121.09 132.07 120.47 131.27 119.96C130.51 119.48 129.93 119.35 129.94 119.29Z" fill="white"/>
</g>
<g id="Group_47">
<g id="Group_48">
<path id="Vector_169" d="M168.03 199.86C165.21 199.86 162.92 197.6 162.92 194.82C162.92 192.04 165.21 189.78 168.03 189.78C170.85 189.78 173.14 192.04 173.14 194.82C173.14 197.6 170.85 199.86 168.03 199.86Z" fill="#EEFFFE"/>
<path id="Vector_170" d="M168.03 189.9C170.78 189.9 173.02 192.11 173.02 194.82C173.02 197.53 170.78 199.74 168.03 199.74C165.28 199.74 163.04 197.53 163.04 194.82C163.04 192.11 165.28 189.9 168.03 189.9ZM168.03 189.65C165.14 189.65 162.79 191.96 162.79 194.82C162.79 197.68 165.13 199.99 168.03 199.99C170.93 199.99 173.27 197.68 173.27 194.82C173.27 191.96 170.93 189.65 168.03 189.65Z" fill="#00BFAC"/>
</g>
<path id="Vector_171" opacity="0.32" d="M166.29 191.09C166.03 191.13 165.2 191.29 164.51 192.01C163.8 192.75 163.69 193.6 163.67 193.86C163.85 193.59 164.32 192.61 164.56 192.34C165.28 191.53 165.51 191.47 166.29 191.09Z" fill="#FFF46C"/>
<path id="Vector_172" opacity="0.21" d="M165.11 192.5C164.93 192.66 163.93 193.55 163.77 195.04C163.61 196.55 164.37 198.06 165.69 198.75C165.39 198.52 164.65 197.87 164.32 196.66C163.74 194.53 165.01 192.64 165.11 192.5Z" fill="#7EFF15"/>
<path id="Vector_173" opacity="0.32" d="M171.02 191.69C171.3 192.22 172.11 193.7 172.06 195.06C171.96 197.84 169.47 199.02 169.19 199.23C169.42 199.2 171.32 198.89 172.22 197.16C173.09 195.48 172.64 193.17 171.02 191.69Z" fill="#B915FF"/>
<path id="Vector_174" d="M169.1 190.32C169.12 190.25 170.27 190.3 171.18 191.12C171.76 191.64 172.02 192.26 172.13 192.59C171.78 192.12 171.23 191.5 170.43 190.99C169.67 190.51 169.09 190.38 169.1 190.32Z" fill="white"/>
</g>
</g>
<g id="Group_49">
<g id="Group_50">
<path id="Vector_175" d="M24.18 59.54C14.16 59.54 6.01001 52.06 6.01001 42.88C6.01001 33.7 14.16 26.21 24.18 26.21C34.2 26.21 42.35 33.69 42.35 42.88C42.35 52.07 34.2 59.54 24.18 59.54Z" fill="#EEFFFE"/>
<path id="Vector_176" d="M24.18 26.34C34.13 26.34 42.22 33.76 42.22 42.88C42.22 52 34.13 59.42 24.18 59.42C14.23 59.42 6.14001 52 6.14001 42.88C6.14001 33.76 14.23 26.34 24.18 26.34ZM24.18 26.09C14.08 26.09 5.89001 33.61 5.89001 42.88C5.89001 52.15 14.08 59.67 24.18 59.67C34.28 59.67 42.47 52.15 42.47 42.88C42.47 33.61 34.28 26.09 24.18 26.09Z" fill="#00BFAC"/>
</g>
<path id="Vector_177" opacity="0.32" d="M18.1201 30.75C17.2101 30.88 14.3101 31.41 11.8901 33.75C9.39009 36.16 9.04009 38.93 8.97009 39.74C9.61009 38.88 11.2501 35.67 12.0801 34.8C14.6101 32.16 15.3901 31.98 18.1101 30.75H18.1201Z" fill="#FFF46C"/>
<path id="Vector_178" opacity="0.21" d="M14 35.33C13.35 35.85 9.85999 38.73 9.30999 43.59C8.74999 48.49 11.41 53.39 16.01 55.64C14.97 54.88 12.37 52.77 11.23 48.86C9.20999 41.93 13.65 35.8 14 35.33Z" fill="#7EFF15"/>
<path id="Vector_179" opacity="0.32" d="M34.65 32.69C35.63 34.4 38.45 39.22 38.29 43.63C37.95 52.65 29.24 56.51 28.26 57.17C29.06 57.06 35.72 56.07 38.84 50.45C41.87 45 40.31 37.48 34.65 32.69Z" fill="#B915FF"/>
<path id="Vector_180" d="M27.9301 28.25C28.0001 28.02 32.0101 28.19 35.2001 30.85C37.2201 32.53 38.1201 34.54 38.5101 35.62C37.2701 34.08 35.3601 32.08 32.5601 30.42C29.9201 28.86 27.8801 28.42 27.9301 28.25Z" fill="white"/>
</g>
<g id="Group_51">
<g id="Group_52">
<path id="Vector_181" d="M146.6 60.45C140.48 60.45 135.49 56.29 135.49 51.19C135.49 46.09 140.47 41.92 146.6 41.92C152.73 41.92 157.71 46.08 157.71 51.19C157.71 56.3 152.73 60.45 146.6 60.45Z" fill="#EEFFFE"/>
<path id="Vector_182" d="M146.6 42.05C152.66 42.05 157.58 46.15 157.58 51.19C157.58 56.23 152.65 60.33 146.6 60.33C140.55 60.33 135.62 56.23 135.62 51.19C135.62 46.15 140.55 42.05 146.6 42.05ZM146.6 41.8C140.4 41.8 135.37 46 135.37 51.19C135.37 56.38 140.4 60.58 146.6 60.58C152.8 60.58 157.83 56.38 157.83 51.19C157.83 46 152.8 41.8 146.6 41.8Z" fill="#00BFAC"/>
</g>
<path id="Vector_183" opacity="0.32" d="M142.88 44.4C142.32 44.47 140.54 44.77 139.06 46.08C137.53 47.43 137.31 48.98 137.27 49.43C137.66 48.95 138.67 47.15 139.18 46.67C140.73 45.19 141.21 45.09 142.88 44.4Z" fill="#FFF46C"/>
<path id="Vector_184" opacity="0.21" d="M140.35 46.97C139.95 47.26 137.81 48.87 137.47 51.59C137.13 54.33 138.76 57.07 141.58 58.33C140.94 57.91 139.35 56.72 138.65 54.54C137.41 50.66 140.13 47.24 140.35 46.97Z" fill="#7EFF15"/>
<path id="Vector_185" opacity="0.32" d="M153.03 45.49C153.63 46.45 155.37 49.14 155.26 51.61C155.05 56.66 149.7 58.81 149.1 59.18C149.59 59.12 153.68 58.57 155.6 55.42C157.46 52.37 156.5 48.16 153.03 45.48V45.49Z" fill="#B915FF"/>
<path id="Vector_186" d="M148.9 43.01C148.95 42.88 151.4 42.98 153.37 44.46C154.61 45.4 155.16 46.53 155.4 47.13C154.64 46.27 153.46 45.15 151.75 44.22C150.13 43.35 148.87 43.1 148.91 43.01H148.9Z" fill="white"/>
</g>
<g id="Group_53">
<g id="Group_54">
<path id="Vector_187" d="M185.11 75C178.99 75 174 70.84 174 65.74C174 60.64 178.98 56.47 185.11 56.47C191.24 56.47 196.22 60.63 196.22 65.74C196.22 70.85 191.24 75 185.11 75Z" fill="#EEFFFE"/>
<path id="Vector_188" d="M185.11 56.6C191.17 56.6 196.09 60.7 196.09 65.74C196.09 70.78 191.16 74.88 185.11 74.88C179.06 74.88 174.13 70.78 174.13 65.74C174.13 60.7 179.06 56.6 185.11 56.6ZM185.11 56.35C178.91 56.35 173.88 60.55 173.88 65.74C173.88 70.93 178.91 75.13 185.11 75.13C191.31 75.13 196.34 70.93 196.34 65.74C196.34 60.55 191.31 56.35 185.11 56.35Z" fill="#00BFAC"/>
</g>
<path id="Vector_189" opacity="0.32" d="M181.39 58.95C180.83 59.02 179.05 59.32 177.57 60.63C176.04 61.98 175.82 63.53 175.78 63.98C176.17 63.5 177.18 61.7 177.69 61.22C179.24 59.74 179.72 59.64 181.39 58.95Z" fill="#FFF46C"/>
<path id="Vector_190" opacity="0.21" d="M178.86 61.52C178.46 61.81 176.32 63.42 175.98 66.14C175.64 68.88 177.27 71.62 180.09 72.88C179.45 72.46 177.86 71.27 177.16 69.09C175.92 65.21 178.64 61.79 178.86 61.52Z" fill="#7EFF15"/>
<path id="Vector_191" opacity="0.32" d="M191.54 60.04C192.14 61 193.88 63.69 193.77 66.16C193.56 71.21 188.21 73.36 187.61 73.73C188.1 73.67 192.19 73.12 194.11 69.97C195.97 66.92 195.01 62.71 191.54 60.03V60.04Z" fill="#B915FF"/>
<path id="Vector_192" d="M187.41 57.56C187.46 57.43 189.91 57.53 191.88 59.01C193.12 59.95 193.67 61.08 193.91 61.68C193.15 60.82 191.97 59.7 190.26 58.77C188.64 57.9 187.38 57.65 187.42 57.56H187.41Z" fill="white"/>
</g>
<g id="Group_55">
<g id="Group_56">
<path id="Vector_193" d="M116.31 23.11C112.36 23.11 109.15 20.09 109.15 16.38C109.15 12.67 112.36 9.65 116.31 9.65C120.26 9.65 123.47 12.67 123.47 16.38C123.47 20.09 120.26 23.11 116.31 23.11Z" fill="#EEFFFE"/>
<path id="Vector_194" d="M116.31 9.78C120.19 9.78 123.35 12.74 123.35 16.38C123.35 20.02 120.19 22.98 116.31 22.98C112.43 22.98 109.27 20.02 109.27 16.38C109.27 12.74 112.43 9.78 116.31 9.78ZM116.31 9.53C112.29 9.53 109.02 12.6 109.02 16.38C109.02 20.16 112.28 23.23 116.31 23.23C120.34 23.23 123.6 20.16 123.6 16.38C123.6 12.6 120.34 9.53 116.31 9.53Z" fill="#00BFAC"/>
</g>
<path id="Vector_195" opacity="0.32" d="M113.89 11.43C113.53 11.48 112.37 11.7 111.41 12.65C110.42 13.63 110.28 14.76 110.25 15.1C110.5 14.75 111.16 13.44 111.49 13.09C112.5 12.01 112.81 11.94 113.89 11.44V11.43Z" fill="#FFF46C"/>
<path id="Vector_196" opacity="0.21" d="M112.25 13.3C111.99 13.51 110.6 14.69 110.38 16.67C110.16 18.67 111.22 20.67 113.05 21.59C112.63 21.28 111.6 20.42 111.15 18.82C110.34 15.99 112.11 13.49 112.25 13.3Z" fill="#7EFF15"/>
<path id="Vector_197" opacity="0.32" d="M120.48 12.22C120.87 12.92 122 14.89 121.93 16.69C121.79 20.37 118.33 21.94 117.94 22.22C118.26 22.18 120.91 21.77 122.15 19.48C123.36 17.26 122.74 14.18 120.48 12.23V12.22Z" fill="#B915FF"/>
<path id="Vector_198" d="M117.8 10.41C117.83 10.32 119.42 10.38 120.7 11.47C121.51 12.16 121.86 12.98 122.02 13.42C121.53 12.79 120.76 11.97 119.65 11.3C118.6 10.66 117.78 10.49 117.81 10.42L117.8 10.41Z" fill="white"/>
</g>
<g id="Group_57">
<g id="Group_58">
<path id="Vector_199" d="M178.43 111.77C168.99 111.77 161.31 105.47 161.31 97.73C161.31 89.99 168.99 83.69 178.43 83.69C187.87 83.69 195.55 89.99 195.55 97.73C195.55 105.47 187.87 111.77 178.43 111.77Z" fill="#EEFFFE"/>
<path id="Vector_200" d="M178.43 83.82C187.8 83.82 195.43 90.06 195.43 97.73C195.43 105.4 187.81 111.64 178.43 111.64C169.05 111.64 161.43 105.4 161.43 97.73C161.43 90.06 169.05 83.82 178.43 83.82ZM178.43 83.57C168.9 83.57 161.18 89.91 161.18 97.73C161.18 105.55 168.9 111.89 178.43 111.89C187.96 111.89 195.68 105.55 195.68 97.73C195.68 89.91 187.96 83.57 178.43 83.57Z" fill="#00BFAC"/>
</g>
<path id="Vector_201" opacity="0.32" d="M172.71 87.5C171.86 87.61 169.12 88.06 166.84 90.03C164.49 92.06 164.15 94.4 164.09 95.09C164.69 94.36 166.24 91.66 167.03 90.93C169.42 88.7 170.15 88.55 172.72 87.51L172.71 87.5Z" fill="#FFF46C"/>
<path id="Vector_202" opacity="0.21" d="M168.83 91.37C168.22 91.8 164.93 94.24 164.41 98.33C163.88 102.46 166.39 106.6 170.73 108.49C169.75 107.85 167.3 106.07 166.23 102.77C164.32 96.92 168.51 91.76 168.84 91.36L168.83 91.37Z" fill="#7EFF15"/>
<path id="Vector_203" opacity="0.32" d="M188.3 89.14C189.22 90.58 191.89 94.65 191.73 98.37C191.41 105.98 183.2 109.23 182.28 109.79C183.04 109.7 189.31 108.86 192.25 104.13C195.11 99.53 193.64 93.19 188.3 89.15V89.14Z" fill="#B915FF"/>
<path id="Vector_204" d="M181.96 85.4C182.03 85.2 185.8 85.35 188.82 87.59C190.73 89.01 191.57 90.71 191.94 91.61C190.78 90.31 188.97 88.62 186.33 87.22C183.84 85.9 181.91 85.54 181.97 85.39L181.96 85.4Z" fill="white"/>
</g>
<g id="Group_59">
<g id="Group_60">
<path id="Vector_205" d="M145.11 94C138.99 94 134 89.84 134 84.74C134 79.64 138.98 75.47 145.11 75.47C151.24 75.47 156.22 79.63 156.22 84.74C156.22 89.85 151.24 94 145.11 94Z" fill="#EEFFFE"/>
<path id="Vector_206" d="M145.11 75.6C151.17 75.6 156.09 79.7 156.09 84.74C156.09 89.78 151.16 93.88 145.11 93.88C139.06 93.88 134.13 89.78 134.13 84.74C134.13 79.7 139.06 75.6 145.11 75.6ZM145.11 75.35C138.91 75.35 133.88 79.55 133.88 84.74C133.88 89.93 138.91 94.13 145.11 94.13C151.31 94.13 156.34 89.93 156.34 84.74C156.34 79.55 151.31 75.35 145.11 75.35Z" fill="#00BFAC"/>
</g>
<path id="Vector_207" opacity="0.32" d="M141.39 77.95C140.83 78.02 139.05 78.32 137.57 79.63C136.04 80.98 135.82 82.53 135.78 82.98C136.17 82.5 137.18 80.7 137.69 80.22C139.24 78.74 139.72 78.64 141.39 77.95Z" fill="#FFF46C"/>
<path id="Vector_208" opacity="0.21" d="M138.86 80.52C138.46 80.81 136.32 82.42 135.98 85.14C135.64 87.88 137.27 90.62 140.09 91.88C139.45 91.46 137.86 90.27 137.16 88.09C135.92 84.21 138.64 80.79 138.86 80.52Z" fill="#7EFF15"/>
<path id="Vector_209" opacity="0.32" d="M151.54 79.04C152.14 80 153.88 82.69 153.77 85.16C153.56 90.21 148.21 92.36 147.61 92.73C148.1 92.67 152.19 92.12 154.11 88.97C155.97 85.92 155.01 81.71 151.54 79.03V79.04Z" fill="#B915FF"/>
<path id="Vector_210" d="M147.41 76.56C147.46 76.43 149.91 76.53 151.88 78.01C153.12 78.95 153.67 80.08 153.91 80.68C153.15 79.82 151.97 78.7 150.26 77.77C148.64 76.9 147.38 76.65 147.42 76.56H147.41Z" fill="white"/>
</g>
<g id="Group_61">
<g id="Group_62">
<path id="Vector_211" d="M71.3599 31.73C65.2399 31.73 60.2499 27.57 60.2499 22.46C60.2499 17.35 65.2299 13.2 71.3599 13.2C77.4899 13.2 82.4699 17.36 82.4699 22.46C82.4699 27.56 77.4899 31.73 71.3599 31.73Z" fill="#EEFFFE"/>
<path id="Vector_212" d="M71.3599 13.32C77.4199 13.32 82.3399 17.42 82.3399 22.46C82.3399 27.5 77.4099 31.6 71.3599 31.6C65.3099 31.6 60.3799 27.5 60.3799 22.46C60.3799 17.42 65.3099 13.32 71.3599 13.32ZM71.3599 13.07C65.1599 13.07 60.1299 17.27 60.1299 22.46C60.1299 27.65 65.1599 31.85 71.3599 31.85C77.5599 31.85 82.5899 27.65 82.5899 22.46C82.5899 17.27 77.5599 13.07 71.3599 13.07Z" fill="#00BFAC"/>
</g>
<path id="Vector_213" opacity="0.32" d="M67.6299 15.68C67.0699 15.75 65.2899 16.05 63.8099 17.36C62.2799 18.71 62.0599 20.26 62.0199 20.71C62.4099 20.23 63.4199 18.43 63.9299 17.95C65.4799 16.47 65.9599 16.37 67.6299 15.68Z" fill="#FFF46C"/>
<path id="Vector_214" opacity="0.21" d="M65.11 18.24C64.71 18.53 62.5699 20.14 62.2299 22.86C61.8899 25.6 63.5199 28.34 66.3399 29.6C65.6999 29.18 64.1099 27.99 63.4099 25.81C62.1699 21.93 64.89 18.51 65.11 18.24Z" fill="#7EFF15"/>
<path id="Vector_215" opacity="0.32" d="M77.78 16.77C78.38 17.73 80.12 20.42 80.01 22.89C79.8 27.94 74.45 30.09 73.85 30.46C74.34 30.4 78.43 29.85 80.35 26.7C82.21 23.65 81.25 19.44 77.78 16.76V16.77Z" fill="#B915FF"/>
<path id="Vector_216" d="M73.6599 14.28C73.7099 14.15 76.1599 14.25 78.1299 15.73C79.3699 16.67 79.9199 17.8 80.1599 18.4C79.3999 17.54 78.2199 16.42 76.5099 15.49C74.8899 14.62 73.6299 14.37 73.6699 14.28H73.6599Z" fill="white"/>
</g>
<g id="Group_63">
<g id="Group_64">
<path id="Vector_217" d="M77.8599 172.27C71.7399 172.27 66.7499 168.11 66.7499 163C66.7499 157.89 71.7299 153.74 77.8599 153.74C83.9899 153.74 88.9699 157.9 88.9699 163C88.9699 168.1 83.9899 172.27 77.8599 172.27Z" fill="#EEFFFE"/>
<path id="Vector_218" d="M77.8599 153.87C83.9199 153.87 88.8399 157.97 88.8399 163.01C88.8399 168.05 83.9099 172.15 77.8599 172.15C71.8099 172.15 66.8799 168.05 66.8799 163.01C66.8799 157.97 71.8099 153.87 77.8599 153.87ZM77.8599 153.62C71.6599 153.62 66.6299 157.82 66.6299 163.01C66.6299 168.2 71.6599 172.4 77.8599 172.4C84.0599 172.4 89.0899 168.2 89.0899 163.01C89.0899 157.82 84.0599 153.62 77.8599 153.62Z" fill="#00BFAC"/>
</g>
<path id="Vector_219" opacity="0.32" d="M74.1399 156.22C73.5799 156.29 71.7999 156.59 70.3199 157.9C68.7899 159.25 68.5699 160.8 68.5299 161.25C68.9199 160.77 69.9299 158.97 70.4399 158.49C71.9899 157.01 72.4699 156.91 74.1399 156.22Z" fill="#FFF46C"/>
<path id="Vector_220" opacity="0.21" d="M71.6099 158.79C71.2099 159.08 69.0699 160.69 68.7299 163.41C68.3899 166.15 70.0199 168.89 72.8399 170.15C72.1999 169.73 70.6099 168.54 69.9099 166.36C68.6699 162.48 71.3899 159.06 71.6099 158.79Z" fill="#7EFF15"/>
<path id="Vector_221" opacity="0.32" d="M84.29 157.31C84.89 158.27 86.63 160.96 86.52 163.43C86.31 168.48 80.96 170.63 80.36 171C80.85 170.94 84.94 170.39 86.86 167.24C88.72 164.19 87.76 159.98 84.29 157.3V157.31Z" fill="#B915FF"/>
<path id="Vector_222" d="M80.1599 154.83C80.2099 154.7 82.6599 154.8 84.6299 156.28C85.8699 157.22 86.4199 158.35 86.6599 158.95C85.8999 158.09 84.7199 156.97 83.0099 156.04C81.3899 155.17 80.1299 154.92 80.1699 154.83H80.1599Z" fill="white"/>
</g>
<g id="Group_65">
<g id="Group_66">
<path id="Vector_223" d="M167.18 37.04C157.74 37.04 150.06 30.74 150.06 23C150.06 15.26 157.74 8.96 167.18 8.96C176.62 8.96 184.3 15.26 184.3 23C184.3 30.74 176.62 37.04 167.18 37.04Z" fill="#EEFFFE"/>
<path id="Vector_224" d="M167.18 9.09C176.55 9.09 184.18 15.33 184.18 23C184.18 30.67 176.56 36.91 167.18 36.91C157.8 36.91 150.18 30.67 150.18 23C150.18 15.33 157.8 9.09 167.18 9.09ZM167.18 8.84C157.65 8.84 149.93 15.18 149.93 23C149.93 30.82 157.65 37.16 167.18 37.16C176.71 37.16 184.43 30.82 184.43 23C184.43 15.18 176.71 8.84 167.18 8.84Z" fill="#00BFAC"/>
</g>
<path id="Vector_225" opacity="0.32" d="M161.47 12.77C160.62 12.88 157.88 13.33 155.6 15.3C153.25 17.33 152.91 19.67 152.85 20.36C153.45 19.63 155 16.93 155.79 16.2C158.18 13.97 158.91 13.82 161.48 12.78L161.47 12.77Z" fill="#FFF46C"/>
<path id="Vector_226" opacity="0.21" d="M157.59 16.64C156.98 17.07 153.69 19.51 153.17 23.6C152.64 27.73 155.15 31.87 159.49 33.76C158.51 33.12 156.06 31.34 154.99 28.04C153.08 22.19 157.27 17.03 157.6 16.63L157.59 16.64Z" fill="#7EFF15"/>
<path id="Vector_227" opacity="0.32" d="M177.05 14.42C177.97 15.86 180.64 19.93 180.48 23.65C180.16 31.26 171.95 34.51 171.03 35.07C171.79 34.98 178.06 34.14 181 29.41C183.86 24.81 182.39 18.47 177.05 14.43V14.42Z" fill="#B915FF"/>
<path id="Vector_228" d="M170.71 10.67C170.78 10.47 174.55 10.62 177.57 12.86C179.48 14.28 180.32 15.98 180.69 16.88C179.53 15.58 177.72 13.89 175.08 12.49C172.59 11.17 170.66 10.81 170.72 10.66L170.71 10.67Z" fill="white"/>
</g>
<g id="Group_67">
<g id="Group_68">
<path id="Vector_229" d="M10.8599 100.27C4.73988 100.27 -0.250122 96.11 -0.250122 91.01C-0.250122 85.91 4.72988 81.74 10.8599 81.74C16.9899 81.74 21.9699 85.9 21.9699 91.01C21.9699 96.12 16.9899 100.27 10.8599 100.27Z" fill="#EEFFFE"/>
<path id="Vector_230" d="M10.8599 81.87C16.9199 81.87 21.8399 85.97 21.8399 91.01C21.8399 96.05 16.9099 100.15 10.8599 100.15C4.80988 100.15 -0.120117 96.05 -0.120117 91.01C-0.120117 85.97 4.80988 81.87 10.8599 81.87ZM10.8599 81.62C4.65988 81.62 -0.370117 85.82 -0.370117 91.01C-0.370117 96.2 4.65988 100.4 10.8599 100.4C17.0599 100.4 22.0899 96.2 22.0899 91.01C22.0899 85.82 17.0599 81.62 10.8599 81.62Z" fill="#00BFAC"/>
</g>
<path id="Vector_231" opacity="0.32" d="M7.13991 84.22C6.57991 84.29 4.79991 84.59 3.31991 85.9C1.78991 87.25 1.56991 88.8 1.52991 89.25C1.91991 88.77 2.92991 86.97 3.43991 86.49C4.98991 85.01 5.46991 84.91 7.13991 84.22Z" fill="#FFF46C"/>
<path id="Vector_232" opacity="0.21" d="M4.60995 86.79C4.20995 87.08 2.06995 88.69 1.72995 91.41C1.38995 94.15 3.01995 96.89 5.83995 98.15C5.19995 97.73 3.60995 96.54 2.90995 94.36C1.66995 90.48 4.38995 87.06 4.60995 86.79Z" fill="#7EFF15"/>
<path id="Vector_233" opacity="0.32" d="M17.29 85.31C17.89 86.27 19.63 88.96 19.52 91.43C19.31 96.48 13.96 98.63 13.36 99C13.85 98.94 17.94 98.39 19.86 95.24C21.72 92.19 20.76 87.98 17.29 85.3V85.31Z" fill="#B915FF"/>
<path id="Vector_234" d="M13.1599 82.83C13.2099 82.7 15.6599 82.8 17.6299 84.28C18.8699 85.22 19.4199 86.35 19.6599 86.95C18.8999 86.09 17.7199 84.97 16.0099 84.04C14.3899 83.17 13.1299 82.92 13.1699 82.83H13.1599Z" fill="white"/>
</g>
</g>
<defs>
<radialGradient id="paint0_radial_121_1694" cx="0" cy="0" r="1" gradientUnits="userSpaceOnUse" gradientTransform="translate(96.6717 72.3335) rotate(21.56) scale(3.429 3.321)">
<stop offset="0.36" stop-color="#7A3A1B" stop-opacity="0.72"/>
<stop offset="0.98" stop-color="#422918"/>
</radialGradient>
<radialGradient id="paint1_radial_121_1694" cx="0" cy="0" r="1" gradientUnits="userSpaceOnUse" gradientTransform="translate(68.9636 51.311) scale(8.9088 8.5608)">
<stop offset="0.36" stop-color="#F6B8A3"/>
<stop offset="0.99" stop-color="white"/>
</radialGradient>
<radialGradient id="paint2_radial_121_1694" cx="0" cy="0" r="1" gradientUnits="userSpaceOnUse" gradientTransform="translate(128.343 70.8695) rotate(-156.25) scale(7.5864 6.6816)">
<stop offset="0.36" stop-color="#F6B8A3"/>
<stop offset="0.99" stop-color="white"/>
</radialGradient>
<radialGradient id="paint3_radial_121_1694" cx="0" cy="0" r="1" gradientUnits="userSpaceOnUse" gradientTransform="translate(90.4734 62.1219) rotate(28.45) scale(3.051 3.7629)">
<stop offset="0.78" stop-color="#F3EE9E"/>
<stop offset="0.97" stop-color="#88AF6D"/>
<stop offset="0.99" stop-color="#7EA969"/>
</radialGradient>
<radialGradient id="paint4_radial_121_1694" cx="0" cy="0" r="1" gradientUnits="userSpaceOnUse" gradientTransform="translate(106.639 69.4646) rotate(-152.55) scale(0.45 0.535)">
<stop offset="0.78" stop-color="#F3EE9E"/>
<stop offset="0.97" stop-color="#88AF6D"/>
<stop offset="0.99" stop-color="#7EA969"/>
</radialGradient>
<radialGradient id="paint5_radial_121_1694" cx="0" cy="0" r="1" gradientUnits="userSpaceOnUse" gradientTransform="translate(93.7262 53.3107) rotate(16.54) scale(1.695 1.1413)">
<stop offset="0.63" stop-color="#3E3634" stop-opacity="0.72"/>
<stop offset="0.99" stop-color="white" stop-opacity="0.1"/>
</radialGradient>
<radialGradient id="paint6_radial_121_1694" cx="0" cy="0" r="1" gradientUnits="userSpaceOnUse" gradientTransform="translate(97.2356 55.9657) rotate(16.54) scale(1.695 1.1413)">
<stop offset="0.63" stop-color="#3E3634" stop-opacity="0.72"/>
<stop offset="0.99" stop-color="white" stop-opacity="0.1"/>
</radialGradient>
<radialGradient id="paint7_radial_121_1694" cx="0" cy="0" r="1" gradientUnits="userSpaceOnUse" gradientTransform="translate(102.944 55.7162) rotate(24.4) scale(1.6837 1.1526)">
<stop offset="0.63" stop-color="#3E3634" stop-opacity="0.72"/>
<stop offset="0.99" stop-color="white" stop-opacity="0.1"/>
</radialGradient>
<radialGradient id="paint8_radial_121_1694" cx="0" cy="0" r="1" gradientUnits="userSpaceOnUse" gradientTransform="translate(108.6 62.4415) rotate(37.91) scale(1.6837 1.1413)">
<stop offset="0.63" stop-color="#3E3634" stop-opacity="0.72"/>
<stop offset="0.99" stop-color="white" stop-opacity="0.1"/>
</radialGradient>
<radialGradient id="paint9_radial_121_1694" cx="0" cy="0" r="1" gradientUnits="userSpaceOnUse" gradientTransform="translate(117.789 70.2788) rotate(51.05) scale(1.7402 1.1187)">
<stop offset="0.63" stop-color="#3E3634" stop-opacity="0.72"/>
<stop offset="0.99" stop-color="white" stop-opacity="0.1"/>
</radialGradient>
<radialGradient id="paint10_radial_121_1694" cx="0" cy="0" r="1" gradientUnits="userSpaceOnUse" gradientTransform="translate(114.124 66.1495) rotate(-156.7) scale(0.75 0.504999)">
<stop offset="0.63" stop-color="#3E3634" stop-opacity="0.72"/>
<stop offset="0.99" stop-color="white" stop-opacity="0.1"/>
</radialGradient>
<radialGradient id="paint11_radial_121_1694" cx="0" cy="0" r="1" gradientUnits="userSpaceOnUse" gradientTransform="translate(110.944 63.107) rotate(-156.7) scale(1.695 1.1413)">
<stop offset="0.63" stop-color="#3E3634" stop-opacity="0.72"/>
<stop offset="0.99" stop-color="white" stop-opacity="0.1"/>
</radialGradient>
<radialGradient id="paint12_radial_121_1694" cx="0" cy="0" r="1" gradientUnits="userSpaceOnUse" gradientTransform="translate(100.141 60.7072) rotate(-148.8) scale(1.6724 1.1526)">
<stop offset="0.63" stop-color="#3E3634" stop-opacity="0.72"/>
<stop offset="0.99" stop-color="white" stop-opacity="0.1"/>
</radialGradient>
<radialGradient id="paint13_radial_121_1694" cx="0" cy="0" r="1" gradientUnits="userSpaceOnUse" gradientTransform="translate(109.519 66.8487) rotate(-156.91) scale(0.903999 0.723201)">
<stop offset="0.63" stop-color="#3E3634" stop-opacity="0.72"/>
<stop offset="0.99" stop-color="white" stop-opacity="0.1"/>
</radialGradient>
<radialGradient id="paint14_radial_121_1694" cx="0" cy="0" r="1" gradientUnits="userSpaceOnUse" gradientTransform="translate(107.877 65.0801) rotate(-156.91) scale(0.904 0.723201)">
<stop offset="0.63" stop-color="#3E3634" stop-opacity="0.72"/>
<stop offset="0.99" stop-color="white" stop-opacity="0.1"/>
</radialGradient>
<radialGradient id="paint15_radial_121_1694" cx="0" cy="0" r="1" gradientUnits="userSpaceOnUse" gradientTransform="translate(97.7169 62.3603) rotate(-147.51) scale(0.8927 0.734499)">
<stop offset="0.63" stop-color="#3E3634" stop-opacity="0.72"/>
<stop offset="0.99" stop-color="white" stop-opacity="0.1"/>
</radialGradient>
<radialGradient id="paint16_radial_121_1694" cx="0" cy="0" r="1" gradientUnits="userSpaceOnUse" gradientTransform="translate(106.916 67.4897) rotate(-156.92) scale(1.1413 0.9266)">
<stop offset="0.63" stop-color="#3E3634" stop-opacity="0.72"/>
<stop offset="0.99" stop-color="white" stop-opacity="0.1"/>
</radialGradient>
<radialGradient id="paint17_radial_121_1694" cx="0" cy="0" r="1" gradientUnits="userSpaceOnUse" gradientTransform="translate(149.841 119.799) scale(11.5552 11.932)">
<stop stop-color="white"/>
<stop offset="0.13" stop-color="#F8FCFD"/>
<stop offset="0.32" stop-color="#E6F5F8"/>
<stop offset="0.53" stop-color="#C9E9F0"/>
<stop offset="0.77" stop-color="#A0D8E5"/>
<stop offset="1" stop-color="#71C5D8"/>
</radialGradient>
<clipPath id="clip0_121_1694">
<rect width="200" height="200" fill="white"/>
</clipPath>
</defs>
</svg>
