<svg width="46" height="40" viewBox="0 0 46 40" fill="none" xmlns="http://www.w3.org/2000/svg">
<g clip-path="url(#clip0_871_7)">
<path d="M45.9755 19.5C46.3143 22.9907 43.0606 25.8613 39.031 25.8613H29.7773C29.7574 25.8613 29.7405 25.876 29.7405 25.8933V33.94C29.7405 37.444 26.4393 40.2733 22.425 39.9787C18.9704 39.7253 16.2579 37.2067 16.2579 34.1373V25.8933C16.2579 25.876 16.2411 25.8613 16.2211 25.8613H6.94753C3.19087 25.8627 0 23.268 0 20.0013C0 18.38 0.752867 16.9173 1.97493 15.856C3.197 14.7933 4.87753 14.1387 6.74207 14.1387H16.2227C16.2426 14.1387 16.2595 14.124 16.2595 14.1067V6.04267C16.2579 2.77467 19.2418 0 22.9985 0C24.863 0 26.5451 0.654667 27.7656 1.71733C28.9877 2.78 29.7405 4.24133 29.7405 5.86267V14.1067C29.7405 14.124 29.7574 14.1387 29.7773 14.1387H39.2579C42.7877 14.1387 45.6841 16.4973 45.9755 19.5013V19.5Z" fill="url(#paint0_linear_871_7)"/>
</g>
<defs>
<linearGradient id="paint0_linear_871_7" x1="23" y1="40" x2="23" y2="0" gradientUnits="userSpaceOnUse">
<stop stop-color="#009EE2"/>
<stop offset="0.08" stop-color="#08A0D0"/>
<stop offset="0.25" stop-color="#1AA5AE"/>
<stop offset="0.43" stop-color="#27A994"/>
<stop offset="0.61" stop-color="#31AB81"/>
<stop offset="0.8" stop-color="#37AD75"/>
<stop offset="1" stop-color="#39AE72"/>
</linearGradient>
<clipPath id="clip0_871_7">
<rect width="46" height="40" fill="white"/>
</clipPath>
</defs>
</svg>
