<svg width="200" height="200" viewBox="0 0 200 200" fill="none" xmlns="http://www.w3.org/2000/svg">
<g id="shovel 1" clip-path="url(#clip0_121_2148)">
<path id="Vector" d="M175.989 86.8229C187.207 44.1222 180.998 5.48619 162.121 0.526822C143.244 -4.43255 118.847 26.1628 107.628 68.8634C96.4102 111.564 102.619 150.2 121.496 155.159C140.373 160.119 164.77 129.523 175.989 86.8229Z" fill="#593218" stroke="#1D1D1B" stroke-miterlimit="10"/>
<g id="Group">
<path id="Vector_2" d="M117.89 185.72C117.89 190.1 124.16 193.66 131.9 193.66C134.43 193.66 136.81 193.28 138.85 192.6C140.35 194.76 142.95 196.19 145.91 196.19C150.58 196.19 154.36 192.64 154.36 188.25C154.36 183.87 150.58 180.31 145.91 180.31C144.85 180.31 143.85 180.49 142.93 180.83C140.36 178.96 136.38 177.78 131.9 177.78C124.16 177.78 117.89 181.33 117.89 185.72Z" fill="#9F6134" stroke="#1D1D1B" stroke-miterlimit="10"/>
<path id="Vector_3" d="M141.81 199.03C146.477 199.03 150.26 195.475 150.26 191.09C150.26 186.705 146.477 183.15 141.81 183.15C137.143 183.15 133.36 186.705 133.36 191.09C133.36 195.475 137.143 199.03 141.81 199.03Z" fill="#9F6134" stroke="#1D1D1B" stroke-miterlimit="10"/>
<path id="Vector_4" d="M134.77 199.78C139.437 199.78 143.22 196.225 143.22 191.84C143.22 187.455 139.437 183.9 134.77 183.9C130.103 183.9 126.32 187.455 126.32 191.84C126.32 196.225 130.103 199.78 134.77 199.78Z" fill="#9F6134"/>
<g id="Vector_5">
<path d="M126.76 192.28C126.91 193.91 127.56 195.49 128.73 196.76C131.7 199.99 136.89 200.04 140.32 196.88C143.75 193.72 144.13 188.54 141.16 185.32C139.96 184.02 138.4 183.23 136.75 182.97" fill="#9F6134"/>
<path d="M126.76 192.28C126.91 193.91 127.56 195.49 128.73 196.76C131.7 199.99 136.89 200.04 140.32 196.88C143.75 193.72 144.13 188.54 141.16 185.32C139.96 184.02 138.4 183.23 136.75 182.97" stroke="#1D1D1B" stroke-miterlimit="10"/>
</g>
</g>
<g id="Group_2">
<path id="Vector_6" d="M55.31 185.41C55.31 189.79 49.04 193.35 41.3 193.35C38.77 193.35 36.39 192.97 34.35 192.29C32.85 194.45 30.25 195.88 27.29 195.88C22.62 195.88 18.84 192.33 18.84 187.94C18.84 183.55 22.62 180 27.29 180C28.35 180 29.35 180.18 30.27 180.52C32.84 178.65 36.82 177.47 41.3 177.47C49.04 177.47 55.31 181.02 55.31 185.41Z" fill="#9F6134" stroke="#1D1D1B" stroke-miterlimit="10"/>
<path id="Vector_7" d="M31.3799 198.72C36.0467 198.72 39.8299 195.165 39.8299 190.78C39.8299 186.395 36.0467 182.84 31.3799 182.84C26.7131 182.84 22.9299 186.395 22.9299 190.78C22.9299 195.165 26.7131 198.72 31.3799 198.72Z" fill="#9F6134" stroke="#1D1D1B" stroke-miterlimit="10"/>
<path id="Vector_8" d="M38.42 199.47C43.0868 199.47 46.87 195.915 46.87 191.53C46.87 187.145 43.0868 183.59 38.42 183.59C33.7532 183.59 29.97 187.145 29.97 191.53C29.97 195.915 33.7532 199.47 38.42 199.47Z" fill="#9F6134"/>
<g id="Vector_9">
<path d="M46.43 191.97C46.28 193.6 45.63 195.18 44.46 196.45C41.49 199.68 36.3 199.73 32.87 196.57C29.44 193.41 29.06 188.23 32.03 185.01C33.23 183.71 34.79 182.92 36.44 182.66" fill="#9F6134"/>
<path d="M46.43 191.97C46.28 193.6 45.63 195.18 44.46 196.45C41.49 199.68 36.3 199.73 32.87 196.57C29.44 193.41 29.06 188.23 32.03 185.01C33.23 183.71 34.79 182.92 36.44 182.66" stroke="#1D1D1B" stroke-miterlimit="10"/>
</g>
</g>
<path id="Vector_10" d="M173.18 88.34C161.96 131.04 137.56 161.63 118.68 156.67C114.37 155.54 130.85 144.75 140.66 131.03C151.45 115.95 156.09 97.06 160.99 77.64C166.93 54.05 168.7 31.27 165.54 16.97C163.3 6.85 155.24 0.98 159.31 2.05C178.19 7.01 184.4 45.65 173.18 88.34Z" fill="#2C1A10"/>
<g id="Vector_11">
<path d="M84.64 189.48C81.86 193.86 78.13 195.28 75.14 190.14C73.04 192.81 68.75 195.76 66.98 191.39C62.75 193.39 60.69 196.71 58.13 189.31C56.58 190.39 54.86 191.51 53.28 192.47C51.57 190.25 51.61 187.42 53.22 185.06C52.01 187.88 49.54 189.58 46.85 188.67C47.22 187.16 46.49 185.42 47.13 183.81C43.26 186.34 37.13 184.07 40.18 178.87C35.87 181.04 31.32 177.09 36.1 173.01C30.88 177.26 30.55 167.85 30.6 163.77C25.77 166.4 26.69 157.77 30.74 156.01C25.76 156.76 27.23 150.64 30.74 149.35C24.89 146.16 34.3 143.06 35.88 140.52C32.35 141.96 34.81 134.64 36.4 132.92C32.22 130.96 36.31 125.47 39.51 125.2C33.07 127.78 36.49 118.56 40.7 116.56L39.46 115.4C37.84 113.41 37.92 111.01 40.13 109.62C34.29 105.31 42.04 104.76 45.48 106.87C45.65 99.21 52.56 97.66 57.71 100.65C53.27 97.11 64.03 94.96 66.78 95.97C68.79 92.09 73.14 93.17 76.67 94.6C77.76 90.08 81.5 91.28 84.65 93.05L86.39 92.97C89.54 91.2 93.97 90.17 95.06 94.69C98.59 93.26 102.94 92.18 104.95 96.06C107.7 95.04 118.46 97.2 114.02 100.74C119.16 97.76 126.07 99.3 126.25 106.96C129.69 104.85 137.44 105.39 131.6 109.71C133.81 111.1 133.4 114.05 131.78 116.04L130.55 116.86C134.76 118.85 138.17 128.07 131.74 125.5C134.94 125.77 139.03 131.26 134.85 133.22C136.44 134.94 138.89 142.25 135.37 140.82C136.95 143.36 146.36 146.46 140.51 149.65C144.01 150.94 145.49 157.06 140.51 156.31C144.56 158.07 145.48 166.7 140.65 164.07C140.7 168.15 140.37 177.56 135.15 173.31C139.93 177.39 135.38 181.34 131.07 179.17C134.12 184.38 127.99 186.65 124.12 184.11C124.76 185.72 124.03 187.46 124.4 188.97C121.7 189.88 119.23 188.18 118.03 185.36C119.65 187.72 119.68 190.55 117.97 192.77C116.39 191.81 114.67 190.68 113.12 189.61C110.55 197 108.5 193.69 104.27 191.69C102.5 196.06 98.21 193.1 96.11 190.44C93.12 195.58 87.45 193.87 84.67 189.48" fill="#9F6134"/>
<path d="M84.64 189.48C81.86 193.86 78.13 195.28 75.14 190.14C73.04 192.81 68.75 195.76 66.98 191.39C62.75 193.39 60.69 196.71 58.13 189.31C56.58 190.39 54.86 191.51 53.28 192.47C51.57 190.25 51.61 187.42 53.22 185.06C52.01 187.88 49.54 189.58 46.85 188.67C47.22 187.16 46.49 185.42 47.13 183.81C43.26 186.34 37.13 184.07 40.18 178.87C35.87 181.04 31.32 177.09 36.1 173.01C30.88 177.26 30.55 167.85 30.6 163.77C25.77 166.4 26.69 157.77 30.74 156.01C25.76 156.76 27.23 150.64 30.74 149.35C24.89 146.16 34.3 143.06 35.88 140.52C32.35 141.96 34.81 134.64 36.4 132.92C32.22 130.96 36.31 125.47 39.51 125.2C33.07 127.78 36.49 118.56 40.7 116.56L39.46 115.4C37.84 113.41 37.92 111.01 40.13 109.62C34.29 105.31 42.04 104.76 45.48 106.87C45.65 99.21 52.56 97.66 57.71 100.65C53.27 97.11 64.03 94.96 66.78 95.97C68.79 92.09 73.14 93.17 76.67 94.6C77.76 90.08 81.5 91.28 84.65 93.05L86.39 92.97C89.54 91.2 93.97 90.17 95.06 94.69C98.59 93.26 102.94 92.18 104.95 96.06C107.7 95.04 118.46 97.2 114.02 100.74C119.16 97.76 126.07 99.3 126.25 106.96C129.69 104.85 137.44 105.39 131.6 109.71C133.81 111.1 133.4 114.05 131.78 116.04L130.55 116.86C134.76 118.85 138.17 128.07 131.74 125.5C134.94 125.77 139.03 131.26 134.85 133.22C136.44 134.94 138.89 142.25 135.37 140.82C136.95 143.36 146.36 146.46 140.51 149.65C144.01 150.94 145.49 157.06 140.51 156.31C144.56 158.07 145.48 166.7 140.65 164.07C140.7 168.15 140.37 177.56 135.15 173.31C139.93 177.39 135.38 181.34 131.07 179.17C134.12 184.38 127.99 186.65 124.12 184.11C124.76 185.72 124.03 187.46 124.4 188.97C121.7 189.88 119.23 188.18 118.03 185.36C119.65 187.72 119.68 190.55 117.97 192.77C116.39 191.81 114.67 190.68 113.12 189.61C110.55 197 108.5 193.69 104.27 191.69C102.5 196.06 98.21 193.1 96.11 190.44C93.12 195.58 87.45 193.87 84.67 189.48" stroke="#1D1D1B" stroke-miterlimit="10"/>
</g>
<g id="Group_3">
<path id="Vector_12" d="M55.5084 47.4102C60.3823 44.5746 62.4063 38.9633 60.0289 34.8769C57.6516 30.7906 51.7732 29.7767 46.8992 32.6123C42.0252 35.4479 40.0013 41.0592 42.3787 45.1455C44.756 49.2318 50.6344 50.2458 55.5084 47.4102Z" fill="#9F6134" stroke="#1D1D1B" stroke-miterlimit="10"/>
<path id="Vector_13" d="M55.5142 47.4164C59.1853 45.2806 60.592 40.852 58.6562 37.5247C56.7204 34.1974 52.1753 33.2314 48.5042 35.3671C44.8332 37.5029 43.4265 41.9315 45.3623 45.2588C47.2981 48.5861 51.8432 49.5521 55.5142 47.4164Z" fill="url(#paint0_linear_121_2148)" stroke="#1D1D1B" stroke-miterlimit="10"/>
</g>
<g id="Group_4">
<path id="Vector_14" d="M126.298 46.5127C128.675 42.4264 126.652 36.8151 121.778 33.9795C116.904 31.1439 111.025 32.1578 108.648 36.2441C106.27 40.3305 108.294 45.9418 113.168 48.7774C118.042 51.613 123.921 50.5991 126.298 46.5127Z" fill="#9F6134" stroke="#1D1D1B" stroke-miterlimit="10"/>
<path id="Vector_15" d="M123.322 46.6259C125.258 43.2986 123.851 38.87 120.18 36.7342C116.509 34.5985 111.964 35.5645 110.028 38.8918C108.092 42.2191 109.499 46.6477 113.17 48.7835C116.841 50.9192 121.386 49.9532 123.322 46.6259Z" fill="url(#paint1_linear_121_2148)" stroke="#1D1D1B" stroke-miterlimit="10"/>
</g>
<path id="Vector_16" d="M84.83 83.69C84.83 83.69 84.78 83.65 84.75 83.63" stroke="#1D1D1B" stroke-miterlimit="10"/>
<path id="Vector_17" d="M139.76 149.57C140.03 149.67 140.29 149.8 140.53 149.95C143.45 151.77 144.35 156.92 139.75 156.23C143.8 157.99 144.72 166.62 139.89 163.99C139.94 168.07 139.61 177.48 134.39 173.23C139.17 177.31 134.62 181.26 130.31 179.09C133.36 184.3 127.23 186.57 123.36 184.03C124 185.64 123.27 187.38 123.64 188.89C120.94 189.8 118.47 188.1 117.27 185.28C118.89 187.64 118.92 190.47 117.21 192.69C115.63 191.73 113.91 190.6 112.36 189.53C109.79 196.92 107.74 193.61 103.51 191.61C101.74 195.98 97.45 193.02 95.35 190.36C92.36 195.5 86.69 193.79 83.91 189.4C87.13 190.02 103.57 192.82 119.32 182.24C136.39 170.77 139.35 152.49 139.77 149.56L139.76 149.57Z" fill="#704223"/>
<path id="Vector_18" d="M30.73 149.48C30.46 149.58 30.2 149.71 29.96 149.86C27.04 151.68 26.14 156.83 30.74 156.14C26.69 157.9 25.77 166.53 30.6 163.9C30.55 167.98 30.88 177.39 36.1 173.14C31.32 177.22 35.87 181.17 40.18 179C37.13 184.21 43.26 186.48 47.13 183.94C46.49 185.55 47.22 187.29 46.85 188.8C49.55 189.71 52.02 188.01 53.22 185.19C51.6 187.55 51.57 190.38 53.28 192.6C54.86 191.64 56.58 190.51 58.13 189.44C60.7 196.83 62.75 193.52 66.98 191.52C68.75 195.89 73.04 192.93 75.14 190.27C78.13 195.41 83.8 193.7 86.58 189.31C83.36 189.93 66.92 192.73 51.17 182.15C34.1 170.68 31.14 152.4 30.72 149.47L30.73 149.48Z" fill="#704223"/>
<path id="Vector_19" d="M84.64 189.48C81.86 193.86 78.13 195.28 75.14 190.14C73.04 192.81 68.75 195.76 66.98 191.39C62.75 193.39 60.69 196.71 58.13 189.31C56.58 190.39 54.86 191.51 53.28 192.47C51.57 190.25 51.61 187.42 53.22 185.06C52.01 187.88 49.54 189.58 46.85 188.67C47.22 187.16 46.49 185.42 47.13 183.81C43.26 186.34 37.13 184.07 40.18 178.87C35.87 181.04 31.32 177.09 36.1 173.01C30.88 177.26 30.55 167.85 30.6 163.77C25.77 166.4 26.69 157.77 30.74 156.01C25.76 156.76 27.23 150.64 30.74 149.35C24.89 146.16 34.3 143.06 35.88 140.52C32.35 141.96 34.81 134.64 36.4 132.92C32.22 130.96 36.31 125.47 39.51 125.2C33.07 127.78 36.49 118.56 40.7 116.56L39.46 115.4C37.84 113.41 37.92 111.01 40.13 109.62C34.29 105.31 42.04 104.76 45.48 106.87C45.65 99.21 52.56 97.66 57.71 100.65C53.27 97.11 64.03 94.96 66.78 95.97C68.79 92.09 73.14 93.17 76.67 94.6C77.76 90.08 81.5 91.28 84.65 93.05L86.39 92.97C89.54 91.2 93.97 90.17 95.06 94.69C98.59 93.26 102.94 92.18 104.95 96.06C107.7 95.04 118.46 97.2 114.02 100.74C119.16 97.76 126.07 99.3 126.25 106.96C129.69 104.85 137.44 105.39 131.6 109.71C133.81 111.1 133.4 114.05 131.78 116.04L130.55 116.86C134.76 118.85 138.17 128.07 131.74 125.5C134.94 125.77 139.03 131.26 134.85 133.22C136.44 134.94 138.89 142.25 135.37 140.82C136.95 143.36 146.36 146.46 140.51 149.65C144.01 150.94 145.49 157.06 140.51 156.31C144.56 158.07 145.48 166.7 140.65 164.07C140.7 168.15 140.37 177.56 135.15 173.31C139.93 177.39 135.38 181.34 131.07 179.17C134.12 184.38 127.99 186.65 124.12 184.11C124.76 185.72 124.03 187.46 124.4 188.97C121.7 189.88 119.23 188.18 118.03 185.36C119.65 187.72 119.68 190.55 117.97 192.77C116.39 191.81 114.67 190.68 113.12 189.61C110.55 197 108.5 193.69 104.27 191.69C102.5 196.06 98.21 193.1 96.11 190.44C93.12 195.58 87.45 193.87 84.67 189.48" stroke="#1D1D1B" stroke-miterlimit="10"/>
<g id="Group_5">
<path id="Vector_20" d="M84.75 117.87H80.96V127.98H84.75V117.87Z" fill="#FFF3CF" stroke="#1D1D1B" stroke-width="0.25" stroke-miterlimit="10"/>
<path id="Vector_21" d="M88.54 117.87H84.75V127.98H88.54V117.87Z" fill="#FFF3CF" stroke="#1D1D1B" stroke-width="0.25" stroke-miterlimit="10"/>
</g>
<g id="Vector_22">
<path d="M40.78 104.99C36.75 99.83 36.06 93.8 38.47 88.9C39.97 85.84 41.9 84.18 40.18 81.46C38.88 79.41 41.42 73.98 42.71 73.86C41.83 71.92 38.57 70.2 39.88 68.62C40.31 68.74 41.96 65.95 42.34 66.19C41.31 63.03 42.59 56.83 44.51 54.38C43.86 52.65 44.21 51.41 44.97 50.04C45.36 50.43 46.19 50.81 46.65 51.32C46.43 50.02 47.18 48.48 47.23 47.69C47.61 47.87 47.97 48.09 48.32 48.36C47.88 47.03 48.32 45.81 48.12 44.55C49.68 43.69 50.85 44.5 51.48 46.4C50.93 43.69 52.44 41.72 54.89 41.97C54.38 36.41 59.24 39.71 61.48 41.13C60.26 38 61.76 34.35 64.51 37.56C64.69 33.12 68.15 34.23 70.22 36.59C69.53 34.84 69.94 32.98 71.25 31.63C72.99 32.4 74.11 33.79 75.31 35.45C75.43 31.78 78.18 27.93 80.53 32.24C80.74 32.31 82.37 29.86 83.51 29.88C85.13 29.91 86.39 32.39 86.63 32.24C87.86 31.46 88.13 30.28 88.86 30.33C90.35 30.44 90.71 35.45 91.84 35.44C92.3 35.44 92.38 34.61 93.67 33.19C94.48 32.3 95.22 31.48 95.9 31.62C96.71 31.78 97.12 33.18 97.19 34.1C97.29 35.53 96.61 36.35 96.92 36.58C97.51 37.01 100.03 34.1 101.3 34.68C102.28 35.12 101.77 37.32 102.63 37.56C103.39 37.77 104.24 36.15 104.84 36.35C105.74 36.64 104.42 40.45 105.66 41.13C107.01 41.87 110.35 38.3 111.47 39.07C112.17 39.55 111.26 41.23 112.25 41.97C112.88 42.44 113.51 41.94 114.25 42.35C115.76 43.18 115.14 46.34 115.67 46.41C116.07 46.46 116.25 44.63 117.5 44.25C118.03 44.09 118.72 44.19 119.03 44.56C119.2 44.76 119.25 45.01 119.02 46.44C118.84 47.57 118.66 48.32 118.83 48.37C118.9 48.39 118.96 48.28 119.36 48C119.67 47.79 119.82 47.68 119.92 47.7C120.06 47.73 120.23 47.93 120.31 49.32C120.39 50.62 120.28 51.26 120.5 51.32C120.61 51.35 120.71 51.21 121.37 50.64C122.04 50.06 122.12 50.04 122.18 50.05C122.64 50.1 122.97 51.34 122.97 52.45C122.97 53.38 122.74 53.95 122.63 54.39C122.15 56.45 124.09 57.34 124.82 60.03C125.63 63.01 124.39 66.13 124.8 66.2C124.88 66.21 124.94 66.1 125.39 65.88C125.73 65.72 125.9 65.64 126.01 65.65C126.46 65.71 126.92 67.1 126.69 68.55C126.41 70.3 125.3 71.09 125.73 71.72C126.05 72.19 126.75 71.87 127.23 72.33C128.3 73.35 126.45 76.56 126.09 77.19C124.33 80.25 128.3 84.85 130.95 88.67C135.16 94.73 129.16 104.37 128.76 104.99C124.73 111.28 118.35 113.78 114.06 115.47C104.86 119.08 94.71 119.13 85.47 119.18C85.01 119.18 84.56 119.18 84.09 119.18C74.95 119.13 64.51 119.08 55.5 115.47C51.9 114.03 46.32 111.14 40.8 104.99" fill="#9F6134"/>
<path d="M40.78 104.99C36.75 99.83 36.06 93.8 38.47 88.9C39.97 85.84 41.9 84.18 40.18 81.46C38.88 79.41 41.42 73.98 42.71 73.86C41.83 71.92 38.57 70.2 39.88 68.62C40.31 68.74 41.96 65.95 42.34 66.19C41.31 63.03 42.59 56.83 44.51 54.38C43.86 52.65 44.21 51.41 44.97 50.04C45.36 50.43 46.19 50.81 46.65 51.32C46.43 50.02 47.18 48.48 47.23 47.69C47.61 47.87 47.97 48.09 48.32 48.36C47.88 47.03 48.32 45.81 48.12 44.55C49.68 43.69 50.85 44.5 51.48 46.4C50.93 43.69 52.44 41.72 54.89 41.97C54.38 36.41 59.24 39.71 61.48 41.13C60.26 38 61.76 34.35 64.51 37.56C64.69 33.12 68.15 34.23 70.22 36.59C69.53 34.84 69.94 32.98 71.25 31.63C72.99 32.4 74.11 33.79 75.31 35.45C75.43 31.78 78.18 27.93 80.53 32.24C80.74 32.31 82.37 29.86 83.51 29.88C85.13 29.91 86.39 32.39 86.63 32.24C87.86 31.46 88.13 30.28 88.86 30.33C90.35 30.44 90.71 35.45 91.84 35.44C92.3 35.44 92.38 34.61 93.67 33.19C94.48 32.3 95.22 31.48 95.9 31.62C96.71 31.78 97.12 33.18 97.19 34.1C97.29 35.53 96.61 36.35 96.92 36.58C97.51 37.01 100.03 34.1 101.3 34.68C102.28 35.12 101.77 37.32 102.63 37.56C103.39 37.77 104.24 36.15 104.84 36.35C105.74 36.64 104.42 40.45 105.66 41.13C107.01 41.87 110.35 38.3 111.47 39.07C112.17 39.55 111.26 41.23 112.25 41.97C112.88 42.44 113.51 41.94 114.25 42.35C115.76 43.18 115.14 46.34 115.67 46.41C116.07 46.46 116.25 44.63 117.5 44.25C118.03 44.09 118.72 44.19 119.03 44.56C119.2 44.76 119.25 45.01 119.02 46.44C118.84 47.57 118.66 48.32 118.83 48.37C118.9 48.39 118.96 48.28 119.36 48C119.67 47.79 119.82 47.68 119.92 47.7C120.06 47.73 120.23 47.93 120.31 49.32C120.39 50.62 120.28 51.26 120.5 51.32C120.61 51.35 120.71 51.21 121.37 50.64C122.04 50.06 122.12 50.04 122.18 50.05C122.64 50.1 122.97 51.34 122.97 52.45C122.97 53.38 122.74 53.95 122.63 54.39C122.15 56.45 124.09 57.34 124.82 60.03C125.63 63.01 124.39 66.13 124.8 66.2C124.88 66.21 124.94 66.1 125.39 65.88C125.73 65.72 125.9 65.64 126.01 65.65C126.46 65.71 126.92 67.1 126.69 68.55C126.41 70.3 125.3 71.09 125.73 71.72C126.05 72.19 126.75 71.87 127.23 72.33C128.3 73.35 126.45 76.56 126.09 77.19C124.33 80.25 128.3 84.85 130.95 88.67C135.16 94.73 129.16 104.37 128.76 104.99C124.73 111.28 118.35 113.78 114.06 115.47C104.86 119.08 94.71 119.13 85.47 119.18C85.01 119.18 84.56 119.18 84.09 119.18C74.95 119.13 64.51 119.08 55.5 115.47C51.9 114.03 46.32 111.14 40.8 104.99" stroke="#1D1D1B" stroke-miterlimit="10"/>
</g>
<path id="Vector_23" d="M84.83 99.92C80.9 96.35 71.08 96 72.48 90.01C73.58 85.23 81.58 84.21 84.83 86.82C88.08 84.21 96.08 85.23 97.19 90.01C98.58 96 88.76 96.35 84.83 99.92Z" fill="url(#paint2_radial_121_2148)" stroke="#1D1D1B" stroke-miterlimit="10"/>
<g id="Group_6">
<g id="Vector_24">
<path d="M64.6099 113.07C64.1599 119.92 71.1999 126.43 78.7899 124.65C81.4599 124.03 83.4699 121.8 84.8499 118.9" fill="#9F6134"/>
<path d="M64.6099 113.07C64.1599 119.92 71.1999 126.43 78.7899 124.65C81.4599 124.03 83.4699 121.8 84.8499 118.9" stroke="#1D1D1B" stroke-miterlimit="10"/>
</g>
<g id="Vector_25">
<path d="M105.06 113.07C105.53 119.92 98.48 126.43 90.89 124.65C88.22 124.03 86.22 121.8 84.84 118.9" fill="#9F6134"/>
<path d="M105.06 113.07C105.53 119.92 98.48 126.43 90.89 124.65C88.22 124.03 86.22 121.8 84.84 118.9" stroke="#1D1D1B" stroke-miterlimit="10"/>
</g>
<path id="Vector_26" d="M84.8299 99.92L84.7899 119.85" stroke="#1D1D1B" stroke-miterlimit="10"/>
</g>
<path id="Vector_27" d="M70.43 78.51C73.4179 78.51 75.84 76.0879 75.84 73.1C75.84 70.1121 73.4179 67.69 70.43 67.69C67.4422 67.69 65.02 70.1121 65.02 73.1C65.02 76.0879 67.4422 78.51 70.43 78.51Z" fill="white" stroke="#1D1D1B" stroke-miterlimit="10"/>
<path id="Vector_28" d="M70.43 73.86C70.7835 73.86 71.07 73.5197 71.07 73.1C71.07 72.6803 70.7835 72.34 70.43 72.34C70.0766 72.34 69.79 72.6803 69.79 73.1C69.79 73.5197 70.0766 73.86 70.43 73.86Z" fill="white"/>
<path id="Vector_29" d="M39.34 92.16C39.02 96.22 38.93 100.23 41.91 104.08L41.97 104.16C45.4 107.9 48.79 110.44 51.73 112.18C52.49 112.63 53.26 111.63 52.64 111.01C50.28 108.64 47.69 105.59 45.36 101.74C43.23 98.24 41.78 94.88 40.79 91.98C40.53 91.2 39.4 91.34 39.34 92.16Z" fill="#704223"/>
<path id="Vector_30" d="M129.29 92.16C129.61 96.22 129.7 100.23 126.72 104.08L126.66 104.16C123.23 107.9 119.84 110.44 116.9 112.18C116.14 112.63 115.37 111.63 115.99 111.01C118.35 108.64 120.94 105.59 123.27 101.74C125.4 98.24 126.85 94.88 127.84 91.98C128.1 91.2 129.23 91.34 129.29 92.16Z" fill="#704223"/>
<g id="Group_7">
<g id="Vector_31">
<path d="M128.06 141.41C127.3 143.17 126.92 145.08 126.2 146.85C126.02 146.99 125.82 147.02 125.61 146.94C125.48 146.43 124.87 145.69 124.77 145.3C124.05 146.67 123.17 148.97 121.53 148.11C121.36 149.82 119.96 150.9 118.7 149.86C117.98 151.43 117.19 153.37 115.68 154.24C115.03 153.48 114.67 152.59 114.81 151.54C114.76 153.39 113.56 156.07 111.29 156.25C111.39 155.8 111.4 155.47 111.64 154.95C110.95 155.94 109.03 160.49 108.23 157.23C107.45 159.32 104.46 161.37 102.29 161.67C102.15 161.29 101.84 160.89 101.73 160.51C101.07 161.29 100.39 162.08 99.73 162.85L92.64 158.42C92.64 158.42 92.62 158.41 92.61 158.41L92.44 158.36C91.64 157.52 91.63 156.1 92.66 155.39C92.31 154.48 90.94 151.44 92.86 151.93C92.18 151.74 91.7 151.02 91.1 150.77C91.37 149.74 92.1 148.96 93.08 148.7C92.15 147.05 92.99 145.51 94.8 145.66C93.96 144.57 95.79 143.58 97.08 143.5C95 141.7 98.23 140.34 99.88 139.98C99.52 139.81 98.9 138.88 98.51 138.65C99.23 137.28 101.22 136.78 102.57 136.35C100.63 134.48 103.09 132.71 104.69 131.67C104.25 131.77 103.77 131.76 103.34 131.86C104.16 130.5 105.32 129.19 106.92 129.01C106.41 129.01 105.86 128.76 105.36 128.77C106.46 127.62 107.85 126.84 109.35 127.08C108.9 127.05 108.49 126.87 108.1 126.83C108.96 126.08 110.13 125.74 111.18 125.4" fill="#9F6134"/>
<path d="M128.06 141.41C127.3 143.17 126.92 145.08 126.2 146.85C126.02 146.99 125.82 147.02 125.61 146.94C125.48 146.43 124.87 145.69 124.77 145.3C124.05 146.67 123.17 148.97 121.53 148.11C121.36 149.82 119.96 150.9 118.7 149.86C117.98 151.43 117.19 153.37 115.68 154.24C115.03 153.48 114.67 152.59 114.81 151.54C114.76 153.39 113.56 156.07 111.29 156.25C111.39 155.8 111.4 155.47 111.64 154.95C110.95 155.94 109.03 160.49 108.23 157.23C107.45 159.32 104.46 161.37 102.29 161.67C102.15 161.29 101.84 160.89 101.73 160.51C101.07 161.29 100.39 162.08 99.73 162.85L92.64 158.42C92.64 158.42 92.62 158.41 92.61 158.41L92.44 158.36C91.64 157.52 91.63 156.1 92.66 155.39C92.31 154.48 90.94 151.44 92.86 151.93C92.18 151.74 91.7 151.02 91.1 150.77C91.37 149.74 92.1 148.96 93.08 148.7C92.15 147.05 92.99 145.51 94.8 145.66C93.96 144.57 95.79 143.58 97.08 143.5C95 141.7 98.23 140.34 99.88 139.98C99.52 139.81 98.9 138.88 98.51 138.65C99.23 137.28 101.22 136.78 102.57 136.35C100.63 134.48 103.09 132.71 104.69 131.67C104.25 131.77 103.77 131.76 103.34 131.86C104.16 130.5 105.32 129.19 106.92 129.01C106.41 129.01 105.86 128.76 105.36 128.77C106.46 127.62 107.85 126.84 109.35 127.08C108.9 127.05 108.49 126.87 108.1 126.83C108.96 126.08 110.13 125.74 111.18 125.4" stroke="#1D1D1B" stroke-miterlimit="10"/>
</g>
<g id="Vector_32">
<path d="M103.64 159.35C103.99 160.35 103.77 161.62 102.94 162.64C101.77 164.1 99.86 164.51 98.67 163.56C97.64 162.74 97.5 161.17 98.23 159.81" fill="#9F6134"/>
<path d="M103.64 159.35C103.99 160.35 103.77 161.62 102.94 162.64C101.77 164.1 99.86 164.51 98.67 163.56C97.64 162.74 97.5 161.17 98.23 159.81" stroke="#1D1D1B" stroke-miterlimit="10"/>
</g>
<g id="Vector_33">
<path d="M94.56 156.89C93.38 158.12 91.65 158.42 90.55 157.54C89.36 156.59 89.35 154.63 90.52 153.17C91.25 152.26 92.27 151.76 93.22 151.74" fill="#9F6134"/>
<path d="M94.56 156.89C93.38 158.12 91.65 158.42 90.55 157.54C89.36 156.59 89.35 154.63 90.52 153.17C91.25 152.26 92.27 151.76 93.22 151.74" stroke="#1D1D1B" stroke-miterlimit="10"/>
</g>
<g id="Vector_34">
<path d="M98.75 159.56C98.61 159.94 98.4 160.31 98.12 160.66C96.95 162.12 95.04 162.53 93.85 161.58C92.66 160.63 92.65 158.67 93.82 157.21C94.05 156.92 94.31 156.69 94.59 156.48" fill="#9F6134"/>
<path d="M98.75 159.56C98.61 159.94 98.4 160.31 98.12 160.66C96.95 162.12 95.04 162.53 93.85 161.58C92.66 160.63 92.65 158.67 93.82 157.21C94.05 156.92 94.31 156.69 94.59 156.48" stroke="#1D1D1B" stroke-miterlimit="10"/>
</g>
</g>
<path id="Vector_35" d="M73.642 76.7357C75.3954 75.2003 75.5749 72.5375 74.0431 70.7883C72.5112 69.0391 69.8481 68.8659 68.0948 70.4014C66.3414 71.9368 66.1618 74.5996 67.6937 76.3488C69.2255 78.098 71.8887 78.2712 73.642 76.7357Z" fill="#231000"/>
<path id="Vector_36" d="M71.31 76.64C72.7349 76.64 73.89 75.4849 73.89 74.06C73.89 72.6351 72.7349 71.48 71.31 71.48C69.8851 71.48 68.73 72.6351 68.73 74.06C68.73 75.4849 69.8851 76.64 71.31 76.64Z" fill="black"/>
<path id="Vector_37" d="M68.5 73C69.3284 73 70 72.3284 70 71.5C70 70.6716 69.3284 70 68.5 70C67.6716 70 67 70.6716 67 71.5C67 72.3284 67.6716 73 68.5 73Z" fill="white"/>
<path id="Vector_38" d="M94.83 77.62C97.8179 77.62 100.24 75.1979 100.24 72.21C100.24 69.2221 97.8179 66.8 94.83 66.8C91.8422 66.8 89.42 69.2221 89.42 72.21C89.42 75.1979 91.8422 77.62 94.83 77.62Z" fill="white" stroke="#1D1D1B" stroke-miterlimit="10"/>
<path id="Vector_39" d="M97.577 75.4396C99.1089 73.6904 98.9293 71.0277 97.176 69.4922C95.4226 67.9567 92.7595 68.13 91.2276 69.8792C89.6958 71.6284 89.8753 74.2911 91.6287 75.8266C93.382 77.362 96.0452 77.1888 97.577 75.4396Z" fill="#231000"/>
<path id="Vector_40" d="M93.96 75.74C95.3849 75.74 96.54 74.5849 96.54 73.16C96.54 71.7351 95.3849 70.58 93.96 70.58C92.5351 70.58 91.38 71.7351 91.38 73.16C91.38 74.5849 92.5351 75.74 93.96 75.74Z" fill="black"/>
<path id="Vector_41" d="M92.5 72C93.3284 72 94 71.3284 94 70.5C94 69.6716 93.3284 69 92.5 69C91.6716 69 91 69.6716 91 70.5C91 71.3284 91.6716 72 92.5 72Z" fill="white"/>
<g id="Group_8">
<g id="Group_9">
<path id="Vector_42" d="M42.33 123.11C39.31 120.09 39.08 115.42 41.81 112.69C43.03 111.47 44.71 110.79 46.52 110.79C46.64 110.79 46.76 110.79 46.88 110.79C48.86 110.88 50.76 111.73 52.22 113.2L97.18 158.16L87.28 168.05L42.32 123.09L42.33 123.11Z" fill="#F4B516"/>
<path id="Vector_43" d="M46.53 111.3C46.64 111.3 46.76 111.3 46.87 111.3C48.72 111.38 50.5 112.19 51.88 113.56L96.49 158.17L87.3 167.36L42.69 122.75C41.32 121.38 40.51 119.6 40.43 117.74C40.34 115.92 40.96 114.25 42.17 113.04C43.3 111.91 44.85 111.29 46.53 111.29M46.53 110.29C44.65 110.29 42.83 110.97 41.46 112.33C38.54 115.25 38.78 120.25 41.98 123.45L87.29 168.76L97.89 158.16L52.58 112.85C50.98 111.25 48.93 110.39 46.91 110.3C46.78 110.3 46.65 110.3 46.52 110.3L46.53 110.29Z" fill="black"/>
</g>
<g id="Group_10">
<path id="Vector_44" d="M108.81 199.15C102.2 199.15 95.73 196.79 91.94 193C91.59 192.65 91.28 192.31 91.01 191.97L90.97 191.92L90.92 191.88C90.66 191.69 90.42 191.47 90.17 191.22L82.57 183.63C81.05 182.11 80.21 180.08 80.21 177.91C80.21 175.74 81.05 173.71 82.57 172.19L101.3 153.46C102.82 151.94 104.85 151.1 107.02 151.1C109.19 151.1 111.22 151.94 112.74 153.46L120.33 161.05C120.58 161.3 120.8 161.55 120.99 161.8L121.03 161.85L121.08 161.89C121.42 162.17 121.76 162.47 122.11 162.82C129.36 170.07 131.37 185.77 123.38 193.76C119.9 197.24 114.73 199.15 108.81 199.15Z" fill="#19A4F2"/>
<path id="Vector_45" d="M107.03 150.59V151.59C109.06 151.59 110.97 152.38 112.4 153.8L119.99 161.39C120.23 161.63 120.43 161.85 120.6 162.09L120.67 162.19L120.77 162.27C121.1 162.54 121.42 162.83 121.76 163.17C128.85 170.26 130.83 185.6 123.03 193.4C119.65 196.78 114.6 198.65 108.81 198.65C102.43 198.65 95.94 196.29 92.29 192.64C91.95 192.3 91.66 191.98 91.39 191.65L91.31 191.55L91.21 191.48C90.98 191.3 90.75 191.1 90.51 190.87L82.92 183.28C79.96 180.32 79.96 175.5 82.92 172.54L101.65 153.81C103.08 152.38 104.98 151.6 107.02 151.6V150.6M107.02 150.6C104.82 150.6 102.62 151.44 100.94 153.11L82.21 171.84C78.87 175.18 78.87 180.65 82.21 183.99L89.8 191.58C90.06 191.84 90.32 192.07 90.61 192.28C90.91 192.65 91.23 193 91.58 193.35C95.47 197.24 102.15 199.65 108.81 199.65C114.35 199.65 119.86 197.98 123.74 194.11C132.27 185.58 129.6 169.59 122.47 162.47C122.13 162.13 121.77 161.8 121.4 161.5C121.19 161.22 120.95 160.95 120.7 160.69L113.11 153.1C111.44 151.43 109.24 150.59 107.03 150.59L107.02 150.6Z" fill="black"/>
</g>
<path id="Vector_46" d="M97.39 157.67L107.77 168.05C110.97 171.25 111.21 176.26 108.29 179.17C105.37 182.08 100.37 181.85 97.17 178.65L86.79 168.27L97.39 157.67Z" fill="#3384A0"/>
<path id="Vector_47" d="M92.85 188.54C94.15 190.13 97.84 194.2 103.99 195.63C112.98 197.72 120.86 192.71 120.7 192.09C120.57 191.59 115.28 193.77 107.54 193.1C101.29 192.56 96.27 190.41 92.86 188.54H92.85Z" fill="#3384A0"/>
<path id="Vector_48" d="M124.75 179.94C125.54 179.75 125.62 173.98 123.23 168.29C122.39 166.28 117.57 155.55 109.56 155.63C106.63 155.66 104.31 157.13 102.98 158.16C105.15 158.19 108.92 158.52 112.6 160.69C122.27 166.4 123.51 180.23 124.75 179.93V179.94Z" fill="#3384A0"/>
<path id="Vector_49" d="M90.32 166.77C90.39 166.72 92.81 170.4 97.91 174.36C101.06 176.8 103.01 177.63 105 177.4C106.69 177.2 107.98 176.28 108.04 176.39C108.12 176.54 105.83 178.61 103.48 178.92C96.93 179.78 90.18 166.87 90.32 166.77Z" fill="#B9E4EF"/>
<path id="Vector_50" d="M87.79 170.32C87.35 170.48 82.9 172.18 82.22 175.89C81.65 179.03 84.12 181.68 86.27 183.99C88.04 185.89 90.07 187.28 90.32 187.03C90.77 186.58 84.46 181.97 84.75 176.4C84.89 173.73 86.51 171.63 87.79 170.32Z" fill="#B9E4EF"/>
<path id="Vector_51" d="M99.9399 158.16C100.18 157.58 101.43 154.7 104.5 153.6C108.05 152.33 111.64 154.31 111.59 154.61C111.55 154.81 109.87 154.34 107.54 154.61C104.19 155.01 101.63 156.71 99.9499 158.15L99.9399 158.16Z" fill="#B9E4EF"/>
<path id="Vector_52" d="M43.23 120.7C41.74 118.37 41.5 115.68 42.72 114.12C44.76 111.51 49.76 113.4 50.31 113.61C52.23 114.36 53.22 115.44 55.88 118.17C58.05 120.39 60.37 122.46 62.46 124.75C71.14 134.23 75.35 138.17 75.12 138.42C74.86 138.7 69.18 134.25 63.47 128.8C55.17 120.87 52.3 116.06 48.28 116.65C46.62 116.89 44.89 118.04 43.22 120.7H43.23Z" fill="#AF8015"/>
</g>
<g id="Group_11">
<g id="Vector_53">
<path d="M44.49 159.29C46.3 159.92 47.97 160.93 49.75 161.59C49.97 161.55 50.13 161.42 50.22 161.22C49.93 160.78 49.8 159.83 49.58 159.49C51.08 159.89 53.37 160.79 53.84 159C55.22 160.02 56.96 159.73 57.05 158.1C58.7 158.63 60.66 159.36 62.32 158.83C62.2 157.84 61.79 156.97 60.92 156.36C62.31 157.57 65.1 158.5 66.77 156.95C66.37 156.72 66.12 156.51 65.58 156.33C66.78 156.49 71.43 158.15 69.57 155.36C71.64 156.2 75.16 155.38 76.86 153.98C76.68 153.62 76.59 153.12 76.39 152.78C77.41 152.82 78.45 152.85 79.47 152.89L80.99 144.67C80.99 144.67 80.99 144.65 80.99 144.64L81.07 144.48C80.99 143.32 79.95 142.36 78.73 142.63C78.3 141.75 76.98 138.69 76.04 140.44C76.36 139.81 76.15 138.96 76.37 138.36C75.43 137.87 74.37 137.87 73.51 138.42C72.93 136.62 71.22 136.2 70.1 137.63C69.86 136.27 67.9 136.96 66.96 137.85C67.04 135.1 63.85 136.56 62.48 137.53C62.6 137.16 62.33 136.06 62.43 135.62C60.93 135.22 59.23 136.35 57.99 137.06C57.92 134.37 54.96 134.98 53.11 135.46C53.48 135.21 53.8 134.85 54.16 134.59C52.61 134.28 50.86 134.25 49.64 135.3C49.99 134.92 50.18 134.35 50.51 133.99C48.92 134.02 47.41 134.52 46.57 135.79C46.85 135.44 47 135.02 47.23 134.7C46.09 134.82 45.05 135.46 44.1 136.01" fill="#9F6134"/>
<path d="M44.49 159.29C46.3 159.92 47.97 160.93 49.75 161.59C49.97 161.55 50.13 161.42 50.22 161.22C49.93 160.78 49.8 159.83 49.58 159.49C51.08 159.89 53.37 160.79 53.84 159C55.22 160.02 56.96 159.73 57.05 158.1C58.7 158.63 60.66 159.36 62.32 158.83C62.2 157.84 61.79 156.97 60.92 156.36C62.31 157.57 65.1 158.5 66.77 156.95C66.37 156.72 66.12 156.51 65.58 156.33C66.78 156.49 71.43 158.15 69.57 155.36C71.64 156.2 75.16 155.38 76.86 153.98C76.68 153.62 76.59 153.12 76.39 152.78C77.41 152.82 78.45 152.85 79.47 152.89L80.99 144.67C80.99 144.67 80.99 144.65 80.99 144.64L81.07 144.48C80.99 143.32 79.95 142.36 78.73 142.63C78.3 141.75 76.98 138.69 76.04 140.44C76.36 139.81 76.15 138.96 76.37 138.36C75.43 137.87 74.37 137.87 73.51 138.42C72.93 136.62 71.22 136.2 70.1 137.63C69.86 136.27 67.9 136.96 66.96 137.85C67.04 135.1 63.85 136.56 62.48 137.53C62.6 137.16 62.33 136.06 62.43 135.62C60.93 135.22 59.23 136.35 57.99 137.06C57.92 134.37 54.96 134.98 53.11 135.46C53.48 135.21 53.8 134.85 54.16 134.59C52.61 134.28 50.86 134.25 49.64 135.3C49.99 134.92 50.18 134.35 50.51 133.99C48.92 134.02 47.41 134.52 46.57 135.79C46.85 135.44 47 135.02 47.23 134.7C46.09 134.82 45.05 135.46 44.1 136.01" stroke="#1D1D1B" stroke-miterlimit="10"/>
</g>
<g id="Vector_54">
<path d="M74.21 153.41C74.71 154.34 75.8 155.03 77.11 155.12C78.98 155.24 80.57 154.11 80.67 152.59C80.76 151.28 79.7 150.11 78.2 149.73" fill="#9F6134"/>
<path d="M74.21 153.41C74.71 154.34 75.8 155.03 77.11 155.12C78.98 155.24 80.57 154.11 80.67 152.59C80.76 151.28 79.7 150.11 78.2 149.73" stroke="#1D1D1B" stroke-miterlimit="10"/>
</g>
<g id="Vector_55">
<path d="M78.53 145.05C80.23 145.01 81.62 143.94 81.72 142.53C81.82 141.01 80.39 139.68 78.52 139.56C77.35 139.48 76.29 139.9 75.64 140.59" fill="#9F6134"/>
<path d="M78.53 145.05C80.23 145.01 81.62 143.94 81.72 142.53C81.82 141.01 80.39 139.68 78.52 139.56C77.35 139.48 76.29 139.9 75.64 140.59" stroke="#1D1D1B" stroke-miterlimit="10"/>
</g>
<g id="Vector_56">
<path d="M77.6699 149.94C78.0499 150.09 78.4599 150.19 78.8999 150.22C80.7699 150.34 82.3599 149.21 82.4599 147.69C82.5599 146.17 81.1299 144.84 79.2599 144.72C78.8899 144.7 78.5399 144.73 78.1999 144.8" fill="#9F6134"/>
<path d="M77.6699 149.94C78.0499 150.09 78.4599 150.19 78.8999 150.22C80.7699 150.34 82.3599 149.21 82.4599 147.69C82.5599 146.17 81.1299 144.84 79.2599 144.72C78.8899 144.7 78.5399 144.73 78.1999 144.8" stroke="#1D1D1B" stroke-miterlimit="10"/>
</g>
</g>
</g>
<defs>
<linearGradient id="paint0_linear_121_2148" x1="55.0035" y1="48.7867" x2="48.3543" y2="31.3537" gradientUnits="userSpaceOnUse">
<stop offset="0.04" stop-color="white"/>
<stop offset="0.05" stop-color="#FDF5F5"/>
<stop offset="0.12" stop-color="#F9D7D8"/>
<stop offset="0.2" stop-color="#F6BFC0"/>
<stop offset="0.29" stop-color="#F4ACAE"/>
<stop offset="0.39" stop-color="#F29FA1"/>
<stop offset="0.52" stop-color="#F1989A"/>
<stop offset="0.78" stop-color="#F19698"/>
</linearGradient>
<linearGradient id="paint1_linear_121_2148" x1="113.603" y1="49.8634" x2="120.252" y2="32.4305" gradientUnits="userSpaceOnUse">
<stop offset="0.04" stop-color="white"/>
<stop offset="0.05" stop-color="#FDF5F5"/>
<stop offset="0.12" stop-color="#F9D7D8"/>
<stop offset="0.2" stop-color="#F6BFC0"/>
<stop offset="0.29" stop-color="#F4ACAE"/>
<stop offset="0.39" stop-color="#F29FA1"/>
<stop offset="0.52" stop-color="#F1989A"/>
<stop offset="0.78" stop-color="#F19698"/>
</linearGradient>
<radialGradient id="paint2_radial_121_2148" cx="0" cy="0" r="1" gradientUnits="userSpaceOnUse" gradientTransform="translate(85.43 94.45) scale(21.5 21.5)">
<stop stop-color="#663A1C"/>
<stop offset="0.7"/>
</radialGradient>
<clipPath id="clip0_121_2148">
<rect width="200" height="200" fill="white"/>
</clipPath>
</defs>
</svg>
