<?xml version="1.0" encoding="UTF-8"?>
<svg id="_Слой_1" data-name="Слой 1" xmlns="http://www.w3.org/2000/svg" xmlns:xlink="http://www.w3.org/1999/xlink" viewBox="0 0 140 140">
  <defs>
    <style>
      .cls-1 {
        fill: url(#_Безымянный_градиент_24-19);
      }

      .cls-2 {
        fill: url(#_Безымянный_градиент_24-7);
      }

      .cls-3 {
        fill: url(#_Безымянный_градиент_24-14);
      }

      .cls-4, .cls-5 {
        fill: #fff;
      }

      .cls-6 {
        fill: url(#_Безымянный_градиент_24);
      }

      .cls-7 {
        fill: url(#_Безымянный_градиент_24-17);
      }

      .cls-5 {
        font-family: Bahnschrift, Bahnschrift;
        font-size: 11.74px;
        font-variation-settings: 'wght' 400, 'wdth' 100;
      }

      .cls-8 {
        fill: url(#_Безымянный_градиент_24-15);
      }

      .cls-9 {
        fill: url(#_Безымянный_градиент_24-5);
      }

      .cls-10 {
        fill: url(#_Безымянный_градиент_24-10);
      }

      .cls-11 {
        fill: url(#_Безымянный_градиент_24-11);
      }

      .cls-12 {
        fill: url(#_Безымянный_градиент_24-8);
      }

      .cls-13 {
        fill: url(#_Безымянный_градиент_24-6);
      }

      .cls-14 {
        fill: #115f68;
      }

      .cls-15 {
        fill: url(#_Безымянный_градиент_24-4);
      }

      .cls-16 {
        fill: #00796b;
      }

      .cls-17 {
        fill: url(#_Безымянный_градиент_24-12);
      }

      .cls-18 {
        opacity: .41;
      }

      .cls-19 {
        fill: url(#_Безымянный_градиент_24-2);
      }

      .cls-20 {
        fill: url(#_Безымянный_градиент_24-9);
      }

      .cls-21 {
        fill: url(#_Безымянный_градиент_24-18);
      }

      .cls-22 {
        fill: #1d1d1b;
      }

      .cls-23 {
        fill: url(#_Безымянный_градиент_24-3);
      }

      .cls-24 {
        fill: url(#_Безымянный_градиент_24-16);
      }

      .cls-25 {
        fill: url(#_Безымянный_градиент_24-13);
      }
    </style>
    <linearGradient id="_Безымянный_градиент_24" data-name="Безымянный градиент 24" x1="67.69" y1="-25.56" x2="84.11" y2="-25.56" gradientTransform="translate(-28.09 59.55) rotate(20.96)" gradientUnits="userSpaceOnUse">
      <stop offset="0" stop-color="#149bd7"/>
      <stop offset=".03" stop-color="#169cd0"/>
      <stop offset=".21" stop-color="#22a2ae"/>
      <stop offset=".4" stop-color="#2ca794"/>
      <stop offset=".59" stop-color="#33ab81"/>
      <stop offset=".79" stop-color="#37ad75"/>
      <stop offset="1" stop-color="#39ae72"/>
    </linearGradient>
    <linearGradient id="_Безымянный_градиент_24-2" data-name="Безымянный градиент 24" x1="27.39" y1="120.9" x2="43.61" y2="120.9" gradientTransform="translate(10.22 -33.63) rotate(-21.53)" xlink:href="#_Безымянный_градиент_24"/>
    <linearGradient id="_Безымянный_градиент_24-3" data-name="Безымянный градиент 24" x1="68.31" y1="-22.61" x2="84.53" y2="-22.61" xlink:href="#_Безымянный_градиент_24"/>
    <linearGradient id="_Безымянный_градиент_24-4" data-name="Безымянный градиент 24" x1="29.41" y1="118.46" x2="45.84" y2="118.46" gradientTransform="translate(9.85 -33.8) rotate(-20.99)" xlink:href="#_Безымянный_градиент_24"/>
    <linearGradient id="_Безымянный_градиент_24-5" data-name="Безымянный градиент 24" x1="63.32" y1="77.73" x2="66.1" y2="77.73" gradientTransform="matrix(1, 0, 0, 1, 0, 0)" xlink:href="#_Безымянный_градиент_24"/>
    <linearGradient id="_Безымянный_градиент_24-6" data-name="Безымянный градиент 24" x1="71.77" y1="77.67" x2="74.85" y2="77.67" gradientTransform="matrix(1, 0, 0, 1, 0, 0)" xlink:href="#_Безымянный_градиент_24"/>
    <linearGradient id="_Безымянный_градиент_24-7" data-name="Безымянный градиент 24" x1="1.5" y1="47.65" x2="132.06" y2="47.65" gradientTransform="matrix(1, 0, 0, 1, 0, 0)" xlink:href="#_Безымянный_градиент_24"/>
    <linearGradient id="_Безымянный_градиент_24-8" data-name="Безымянный градиент 24" x1="-8.43" y1="7.5" x2="-5.44" y2="7.5" gradientTransform="translate(77.01 39.91) scale(1.57 1.55)" xlink:href="#_Безымянный_градиент_24"/>
    <linearGradient id="_Безымянный_градиент_24-9" data-name="Безымянный градиент 24" x1="21.35" y1="-20.53" x2="24.34" y2="-20.53" gradientTransform="translate(39.99 15.76) rotate(90) scale(1.57 1.55)" xlink:href="#_Безымянный_градиент_24"/>
    <linearGradient id="_Безымянный_градиент_24-10" data-name="Безымянный градиент 24" x1="16.53" y1="7.66" x2="19.52" y2="7.66" gradientTransform="translate(42.54 40.84) rotate(2) scale(1.18 1.61) skewX(-5.33)" xlink:href="#_Безымянный_градиент_24"/>
    <linearGradient id="_Безымянный_градиент_24-11" data-name="Безымянный градиент 24" x1="19.79" y1="9.21" x2="22.78" y2="9.21" gradientTransform="translate(43.12 39.28) rotate(2) scale(1.18 1.61) skewX(-5.33)" xlink:href="#_Безымянный_градиент_24"/>
    <linearGradient id="_Безымянный_градиент_24-12" data-name="Безымянный градиент 24" x1="49.31" y1="-26.87" x2="52.3" y2="-26.87" gradientTransform="translate(25.56 1.77) rotate(86.82) scale(1.19 1.59) skewX(8.78)" xlink:href="#_Безымянный_градиент_24"/>
    <linearGradient id="_Безымянный_градиент_24-13" data-name="Безымянный градиент 24" x1="63.58" y1="-52.31" x2="66.57" y2="-52.31" gradientTransform="translate(-9.37 -1.59) rotate(85.28) scale(1.23 1.53) skewX(15.09)" xlink:href="#_Безымянный_градиент_24"/>
    <linearGradient id="_Безымянный_градиент_24-14" data-name="Безымянный градиент 24" x1="-235.39" y1="-178.07" x2="-232.4" y2="-178.07" gradientTransform="translate(-173.95 -237.16) rotate(-178) scale(1.18 1.61) skewX(-5.33)" xlink:href="#_Безымянный_градиент_24"/>
    <linearGradient id="_Безымянный_градиент_24-15" data-name="Безымянный градиент 24" x1="-237.94" y1="-163.33" x2="-234.95" y2="-163.33" gradientTransform="translate(329.95 -218.83) rotate(-90) scale(1.17 1.62)" xlink:href="#_Безымянный_градиент_24"/>
    <linearGradient id="_Безымянный_градиент_24-16" data-name="Безымянный градиент 24" x1="-302.08" y1="-201.91" x2="-299.09" y2="-201.91" gradientTransform="translate(-135.25 -214.37) rotate(-176.56) scale(.79 1.3) skewX(-5.99)" xlink:href="#_Безымянный_градиент_24"/>
    <linearGradient id="_Безымянный_градиент_24-17" data-name="Безымянный градиент 24" x1="-307.23" y1="-180.15" x2="-304.24" y2="-180.15" gradientTransform="translate(290.78 -201.32) rotate(-92.38) scale(.79 1.3) skewX(4.08)" xlink:href="#_Безымянный_градиент_24"/>
    <linearGradient id="_Безымянный_градиент_24-18" data-name="Безымянный градиент 24" x1="58.53" y1="63.32" x2="64.28" y2="63.32" gradientTransform="matrix(1, 0, 0, 1, 0, 0)" xlink:href="#_Безымянный_градиент_24"/>
    <linearGradient id="_Безымянный_градиент_24-19" data-name="Безымянный градиент 24" x1="-277.15" y1="63.66" x2="-271.4" y2="63.66" gradientTransform="translate(-197.48) rotate(-180) scale(1 -1)" xlink:href="#_Безымянный_градиент_24"/>
  </defs>
  <g>
    <g class="cls-18">
      <path class="cls-6" d="m62.01,59.49l-3.72.09c-3,.25-6.04.51-8.94,1.43-2.9.93-5.7,2.59-7.49,5.16.73-.07,3.11-2.35,6.19-3.28,5.29-1.6,11.12-1.51,12.04-1.44l1.92-1.97Z"/>
    </g>
    <g class="cls-18">
      <path class="cls-19" d="m79.23,65.02l-.3.87,1.16-.2c2.09-.19,4.17-.39,6.26-.58,1.46-.13,2.93-.27,4.39-.06,1.97.29,3.86,1.2,5.84,1.37-.4-.44-1.3-.63-2.06-.92-4.84-1.84-15.42-.96-15.29-.48Z"/>
    </g>
    <g class="cls-18">
      <path class="cls-23" d="m59.74,64.9l.31.87-1.16-.19c-2.09-.17-4.18-.34-6.27-.52-1.46-.12-2.93-.24-4.39-.01-1.97.31-3.85,1.24-5.83,1.43.39-.45,1.29-.64,2.05-.94,4.82-1.89,15.41-1.12,15.28-.64Z"/>
    </g>
    <g class="cls-18">
      <path class="cls-15" d="m77.33,59.98l3.72.09c3,.25,6.04.5,8.94,1.43,2.9.92,5.7,2.59,7.49,5.16-.73-.07-3.12-2.35-6.19-3.28-5.29-1.6-11.12-1.51-12.04-1.43l-1.92-1.97Z"/>
    </g>
    <g>
      <path class="cls-16" d="m3.95,92.57h1.2c.51,0,1.02-.04,1.54-.13.52-.08,1-.24,1.43-.46.43-.23.78-.53,1.06-.92s.41-.87.41-1.46c0-.75-.3-1.37-.89-1.85-.59-.48-1.38-.72-2.36-.72-.84,0-1.6.1-2.28.31-.68.21-1.17.42-1.5.64l-.71-1.99c.18-.13.43-.26.75-.39.31-.13.67-.24,1.06-.34.39-.1.82-.18,1.28-.24s.94-.09,1.43-.09c.8,0,1.53.09,2.21.28.68.19,1.26.47,1.75.84.49.38.88.86,1.15,1.43.28.58.41,1.26.41,2.05s-.23,1.56-.7,2.26c-.47.71-1.15,1.22-2.06,1.54.46.13.9.32,1.32.57.42.24.79.55,1.1.93.31.38.57.82.76,1.32.19.5.29,1.09.29,1.76,0,.92-.16,1.72-.47,2.38-.31.66-.75,1.2-1.31,1.62-.56.42-1.24.73-2.04.92-.8.19-1.68.29-2.65.29-.58,0-1.14-.05-1.66-.14-.52-.09-.99-.2-1.4-.33-.41-.13-.78-.26-1.08-.42-.31-.15-.54-.28-.71-.38l.67-2.01c.17.1.4.22.68.35.28.13.6.26.96.38.35.12.74.22,1.17.3s.88.13,1.36.13c1.3,0,2.32-.24,3.05-.72.73-.48,1.09-1.29,1.09-2.43,0-.67-.13-1.22-.38-1.65s-.6-.77-1.04-1.02c-.44-.25-.95-.42-1.54-.52-.59-.09-1.23-.14-1.92-.14h-1.43v-1.99Z"/>
      <path class="cls-16" d="m20.06,102.91c-.32,0-.67,0-1.05-.03-.38-.02-.75-.04-1.13-.08-.38-.03-.75-.08-1.12-.13-.37-.05-.71-.12-1.01-.2v-16.91c.31-.08.65-.15,1.01-.2.37-.05.74-.09,1.12-.13.38-.03.75-.06,1.12-.08s.71-.03,1.04-.03c.92,0,1.78.08,2.59.23s1.5.41,2.1.77c.59.36,1.05.83,1.39,1.42.34.59.51,1.31.51,2.16,0,.96-.21,1.74-.62,2.35s-.97,1.07-1.66,1.37c.94.3,1.68.78,2.23,1.43.55.65.83,1.58.83,2.77,0,1.75-.59,3.06-1.76,3.94-1.17.88-3.03,1.32-5.58,1.32Zm-2.1-10.24h2.35c.55,0,1.07-.04,1.57-.13.49-.08.92-.23,1.28-.45.36-.22.64-.5.85-.86.21-.35.31-.8.31-1.33,0-.5-.11-.93-.32-1.27s-.51-.62-.89-.83-.82-.37-1.32-.47c-.51-.1-1.04-.15-1.61-.15s-1.01,0-1.33.03-.61.04-.88.08v5.39Zm0,1.96v6.14c.17.02.37.03.6.05.2.02.43.03.7.04.27,0,.58.01.93.01.66,0,1.29-.05,1.88-.14.59-.09,1.11-.26,1.55-.49.44-.23.8-.56,1.07-.98.27-.42.4-.95.4-1.59,0-.57-.1-1.05-.3-1.45-.2-.39-.49-.71-.86-.94-.38-.23-.83-.4-1.35-.5-.52-.1-1.1-.15-1.75-.15h-2.88Z"/>
      <path class="cls-16" d="m37.35,97.43c-.31.77-.63,1.5-.96,2.18-.33.68-.72,1.27-1.17,1.77-.45.5-1,.9-1.63,1.18-.64.29-1.42.43-2.36.43-.18,0-.38-.01-.58-.04-.2-.02-.39-.06-.58-.1s-.35-.09-.48-.14c-.14-.05-.24-.1-.3-.15l.39-2.06c.2.08.44.17.73.25.28.08.58.13.89.13.46,0,.86-.06,1.21-.19s.66-.3.93-.53c.28-.23.52-.5.74-.83s.42-.69.62-1.09c-.68-1.19-1.31-2.38-1.91-3.56s-1.15-2.33-1.66-3.44c-.51-1.11-.97-2.16-1.38-3.16-.41-1-.78-1.92-1.1-2.76h2.53c.51,1.46,1.15,3.09,1.95,4.88.79,1.79,1.67,3.67,2.64,5.64.61-1.53,1.2-3.21,1.76-5.05.56-1.84,1.09-3.66,1.58-5.47h2.42c-.35,1.21-.71,2.34-1.06,3.41s-.71,2.09-1.06,3.07c-.35.98-.71,1.94-1.06,2.87-.35.93-.71,1.85-1.08,2.76Z"/>
      <path class="cls-16" d="m55.58,85.32c-.48.57-1.01,1.2-1.61,1.9s-1.22,1.41-1.88,2.14c-.65.73-1.3,1.45-1.94,2.15-.64.7-1.25,1.36-1.82,1.96.66.5,1.36,1.12,2.09,1.86.74.74,1.46,1.53,2.16,2.37.71.84,1.37,1.7,1.99,2.57s1.14,1.7,1.55,2.49h-2.62c-.46-.79-.99-1.58-1.59-2.38s-1.23-1.56-1.9-2.29c-.67-.73-1.34-1.41-2.03-2.03-.68-.62-1.35-1.15-1.99-1.58v8.28h-2.23v-17.44h2.23v7.7c.54-.55,1.13-1.18,1.77-1.88s1.28-1.4,1.91-2.1c.63-.7,1.22-1.38,1.78-2.03.56-.65,1.03-1.21,1.42-1.7h2.69Z"/>
      <path class="cls-16" d="m58.25,102.76v-17.44h2.19v12.91c.49-.89,1.09-1.9,1.81-3.04.71-1.14,1.47-2.3,2.28-3.49.81-1.18,1.62-2.33,2.44-3.45.82-1.12,1.59-2.09,2.31-2.93h1.77v17.44h-2.19v-13.62c-.43.54-.9,1.16-1.4,1.86-.51.71-1.03,1.46-1.57,2.25-.54.8-1.08,1.62-1.62,2.48-.54.86-1.07,1.7-1.58,2.53-.51.83-.98,1.63-1.42,2.4-.44.77-.83,1.47-1.16,2.09h-1.86Z"/>
    </g>
    <g>
      <path class="cls-16" d="m88.01,85.42c2.24,0,3.96.47,5.17,1.4,1.2.93,1.81,2.32,1.81,4.17,0,1.01-.17,1.87-.5,2.58s-.81,1.29-1.43,1.74c-.62.44-1.38.77-2.27.97-.89.2-1.9.3-3.02.3h-1.77v6.47h-2.23v-17.19c.63-.17,1.33-.28,2.11-.34.77-.06,1.49-.09,2.13-.09Zm.18,2.14c-.95,0-1.68.03-2.19.08v6.84h1.68c.77,0,1.46-.05,2.07-.16.61-.11,1.13-.29,1.55-.55s.75-.62.98-1.07c.23-.45.35-1.03.35-1.74s-.12-1.22-.36-1.66-.56-.78-.97-1.04c-.41-.26-.88-.44-1.42-.54-.54-.1-1.11-.15-1.7-.15Z"/>
      <path class="cls-16" d="m97.77,103.04v-17.44h9.74v2.09h-7.5v5.18h6.68v2.04h-6.68v6.04h8.08v2.09h-10.31Z"/>
      <path class="cls-16" d="m112.48,90.63c0,.71.06,1.32.17,1.85.12.53.31.97.6,1.31.28.34.67.6,1.15.77.48.17,1.09.25,1.83.25.29,0,.59-.01.89-.04.3-.03.59-.05.86-.09.28-.03.52-.08.74-.12.21-.05.39-.09.53-.13v-8.83h2.23v17.44h-2.23v-6.49c-.29.08-.74.17-1.35.25-.61.08-1.25.13-1.95.13-1.17,0-2.12-.15-2.85-.44-.74-.29-1.32-.71-1.74-1.26-.42-.54-.71-1.21-.86-1.99-.15-.78-.23-1.65-.23-2.61v-5.03h2.21v5.03Z"/>
      <path class="cls-16" d="m125.44,103.04v-17.44h2.19v12.91c.49-.89,1.09-1.9,1.81-3.04.71-1.14,1.47-2.3,2.28-3.49s1.62-2.33,2.44-3.45c.82-1.12,1.59-2.09,2.31-2.93h1.77v17.44h-2.19v-13.62c-.43.54-.9,1.16-1.4,1.86-.51.71-1.03,1.46-1.57,2.25s-1.08,1.62-1.62,2.48-1.07,1.7-1.58,2.53c-.51.83-.98,1.63-1.42,2.4-.44.77-.83,1.47-1.16,2.09h-1.87Z"/>
    </g>
    <g>
      <path class="cls-9" d="m63.32,76.88c.08.37.22.84.5,1.35.23.43.5.78.75,1.07.28-.15.89-.51,1.26-1.14.38-.65.26-1.75.21-1.99-.92.06-1.8.65-2.72.71Z"/>
      <path class="cls-13" d="m74.85,76.87c-.08.36-.22.79-.5,1.28-.23.4-.5.74-.75,1.02-.28-.14-.89-.49-1.26-1.08-.38-.61-.62-1.68-.57-1.92.92.06,2.16.65,3.08.7Z"/>
      <g>
        <path class="cls-14" d="m68.4,71.63c.16,2.31-1.75,3.97-3.82,4.53-1.86.5-5.29.65-5.69-1.89-.08-.48-.8-.27-.72.2.46,2.92,4.22,3,6.45,2.45,2.44-.6,4.73-2.58,4.54-5.3-.03-.48-.78-.48-.75,0h0Z"/>
        <path class="cls-14" d="m78.57,74.27c-.4,2.54-3.82,2.39-5.69,1.89-2.07-.56-3.99-2.22-3.82-4.53.03-.48-.72-.48-.75,0-.19,2.71,2.1,4.7,4.54,5.3,2.23.55,5.98.48,6.45-2.45.08-.47-.65-.68-.72-.2h0Z"/>
      </g>
      <g>
        <path class="cls-2" d="m38.79,44.08c.64-.1,1.66-.22,2.07-.22,2.92,0,10.28,2.32,10.64,2.5h0c1.02-.41,1.85-.47,2.42-.46.96.02,2,.3,2.37-.22.05-.07.08-.14.09-.18.32-.66.65-1.33.97-1.99,0,.1.06,1.7.79,1.93.48.15,1.06-.36,1.73-.95.98-.85,1.08-1.36,1.63-1.4.38-.02.68.19,1.3.63.45.32.78.65.99.88,1.82-.82,2.98-1.35,2.98-1.35,0,0,.61.39,1.02.67.27.19.65.47,1.09.85.14-.19.36-.49.61-.87.5-.74.53-.89.68-.91.59-.1,1.03,2.04,1.92,2.09.44.03.85-.47,1.16-.99.44.29,2.1,1.61,2.35,1.62.36.02.75-.71.89-.97.2,2.19,3.08,1.81,3.74,1.98.7.18,1.97-.87,2.08-1.21.59.33,2.95,2.43,2.83,2.74,3.29-1.32,7.63-2.74,11.64-3.03.47-.03,1.21-.07,2.07.22,2.63.9,4.53,4.23,4.34,7.4-.25,4.21-4.06,6.4-4.35,6.56,0,0,.92.53,1.48,3.48.56,2.96.54,3.35.54,3.35-.89-.54-1.77-1.09-2.66-1.63,1.67,1.48,2.49,3.86,2.09,6.06-.67-.75-1.34-1.5-2.02-2.25,1.14,1.57,1.65,3.57,1.4,5.49-.5-.41-1.13-.65-1.77-.68.63,1.96,1.01,4,1.11,6.06h26.61c.13-.02.35-.05.62-.13,3.24-.91,4.62-5.2,5.05-6.53.14-.44.74-2.39.74-4.48,0-5.32-3.27-10.19-8.7-13.99.76-2.51,1.17-5.15,1.17-7.89,0-15.63-23.66-30.27-40.1-30.27-3.14,0-23.37.85-26.98,7.13-3.38-1.66-7.17-2.59-11.16-2.59-12.77,0-23.4,9.48-25.67,22-11.15,3.25-19.11,11.76-19.11,21.75,0,5.72,2.61,10.97,6.95,15.01h0s31.62-.01,31.62-.01c.11-2.06.49-4.1,1.12-6.06-.64.04-1.27.27-1.77.68-.25-1.92.26-3.92,1.39-5.49-.67.75-1.34,1.5-2.01,2.25-.4-2.2.43-4.58,2.09-6.06-.89.54-1.78,1.09-2.66,1.63,0,0,.27-2.38.78-3.67.5-1.3,1.34-2.86,1.34-2.86,0,0-5.39-5.27-5.89-8.22-.49-2.91,1.03-6.24,3.83-7.17m0-.13c.07-.02.22-.05.42-.09l-.42.09Z"/>
        <ellipse class="cls-12" cx="66.13" cy="51.57" rx="2.34" ry=".99" transform="translate(-4.91 7) rotate(-5.84)"/>
        <ellipse class="cls-20" cx="71.91" cy="51.57" rx=".99" ry="2.34" transform="translate(8.65 113.44) rotate(-80.01)"/>
        <path class="cls-14" d="m68.5,71.61c-.45-1.57-1.44-2.86-3.06-2.06-.38-1.24,2.04-1.8,3.18-1.74,1.31-.09,3.72.41,3.4,1.74-2.91-1.19-2.04,1.8-3.53,2.07Z"/>
        <ellipse class="cls-10" cx="62.45" cy="53.85" rx="1.76" ry="1.02" transform="translate(-8.48 11.8) rotate(-10.11)"/>
        <ellipse class="cls-11" cx="66.6" cy="54.91" rx="1.76" ry="1.02" transform="translate(-8.6 12.54) rotate(-10.11)"/>
        <ellipse class="cls-17" cx="71.36" cy="54.66" rx="1.01" ry="1.78" transform="translate(-1.73 106.98) rotate(-73.05)"/>
        <ellipse class="cls-25" cx="75.73" cy="54.42" rx=".97" ry="1.86" transform="translate(-10.32 90.37) rotate(-58.37)"/>
        <ellipse class="cls-3" cx="71.36" cy="57.82" rx="1.76" ry="1.02" transform="translate(-3.05 3.99) rotate(-3.13)"/>
        <ellipse class="cls-8" cx="66.13" cy="57.82" rx="1.03" ry="1.75" transform="translate(.71 116.44) rotate(-83.03)"/>
        <ellipse class="cls-24" cx="70.32" cy="60.55" rx="1.19" ry=".83" transform="translate(-4.82 6.1) rotate(-4.8)"/>
        <ellipse class="cls-7" cx="67.22" cy="60.55" rx=".83" ry="1.18" transform="translate(-4.77 115.35) rotate(-79.29)"/>
        <ellipse class="cls-21" cx="61.4" cy="63.32" rx="2.88" ry="3.93"/>
        <ellipse class="cls-14" cx="61.66" cy="63.03" rx="2.48" ry="2.82"/>
        <ellipse class="cls-1" cx="76.8" cy="63.66" rx="2.88" ry="3.93"/>
        <ellipse class="cls-14" cx="76.57" cy="63.37" rx="2.45" ry="2.82"/>
        <ellipse class="cls-4" cx="61.4" cy="61.66" rx=".61" ry=".77"/>
        <ellipse class="cls-4" cx="77.05" cy="61.86" rx=".61" ry=".77"/>
        <text/>
        <text class="cls-5" transform="translate(30.34 49.44) rotate(-49.98) scale(.71 1)"><tspan x="0" y="0">Р</tspan></text>
        <text class="cls-5" transform="translate(33.61 45.64) rotate(-44.1) scale(.71 1)"><tspan x="0" y="0"> </tspan></text>
        <text class="cls-5" transform="translate(35.05 44.16) rotate(-38.44) scale(.71 1)"><tspan x="0" y="0">-</tspan></text>
        <text class="cls-5" transform="translate(38.04 41.82) rotate(-31.9) scale(.71 1)"><tspan x="0" y="0"> </tspan></text>
        <text class="cls-5" transform="translate(39.62 40.66) rotate(-22.76) scale(.71 1)"><tspan x="0" y="0">Р</tspan></text>
        <text class="cls-5" transform="translate(44.15 38.88) rotate(-12.86) scale(.71 1)"><tspan x="0" y="0"> </tspan></text>
        <text class="cls-5" transform="translate(46.21 38.4) rotate(-8.75) scale(.71 1)"><tspan x="0" y="0">-</tspan></text>
        <text class="cls-5" transform="translate(50.13 37.82) rotate(-6.59) scale(.71 1)"><tspan x="0" y="0"> </tspan></text>
        <text class="cls-5" transform="translate(52.31 37.54) rotate(-4.67) scale(.71 1)"><tspan x="0" y="0">Р</tspan></text>
      </g>
    </g>
  </g>
  <g>
    <path class="cls-22" d="m11.18,115.92c-.44,0-.85-.07-1.21-.22-.37-.15-.68-.36-.94-.65-.26-.28-.46-.63-.61-1.05-.14-.42-.21-.89-.21-1.43s.08-1.01.24-1.43c.16-.42.38-.77.65-1.05.27-.28.59-.5.96-.65s.75-.22,1.17-.22c.26,0,.5.02.71.06.21.04.39.08.55.13s.28.1.38.15c.1.05.16.09.2.11l-.26.74c-.05-.04-.13-.08-.24-.12-.1-.04-.22-.09-.35-.13-.13-.04-.27-.08-.43-.11-.16-.03-.31-.04-.47-.04-.33,0-.64.06-.9.18-.27.12-.5.29-.69.51-.19.22-.33.49-.43.81-.1.32-.15.67-.15,1.07s.04.73.13,1.04c.09.31.22.58.4.81.18.22.4.4.66.52.26.12.57.18.93.18.41,0,.75-.04,1.01-.13.27-.09.47-.16.6-.23l.23.74s-.12.07-.23.12-.25.09-.41.13c-.16.04-.36.08-.58.11-.22.03-.46.05-.71.05Z"/>
    <path class="cls-22" d="m13.69,112.57c0-.55.08-1.03.24-1.45.16-.42.38-.77.66-1.05.28-.28.6-.49.97-.63.37-.14.76-.21,1.17-.21s.79.07,1.16.21.68.35.95.63c.27.28.49.63.65,1.05.16.42.24.9.24,1.45s-.08,1.03-.24,1.45c-.16.42-.38.77-.65,1.05s-.59.49-.95.63c-.36.14-.75.21-1.16.21s-.81-.07-1.17-.21c-.37-.14-.69-.35-.97-.63-.28-.28-.5-.63-.66-1.05-.16-.42-.24-.9-.24-1.45Zm.93,0c0,.39.05.74.15,1.06.1.32.24.59.42.81s.4.39.66.51c.26.12.55.18.87.18s.61-.06.87-.18c.26-.12.47-.29.65-.51s.32-.49.42-.81.15-.67.15-1.06-.05-.74-.15-1.06-.24-.59-.42-.81c-.18-.22-.4-.39-.65-.51s-.55-.18-.87-.18-.61.06-.87.18c-.26.12-.48.29-.66.51-.18.22-.32.49-.42.81-.1.32-.15.67-.15,1.06Z"/>
    <path class="cls-22" d="m22.75,115.84c-.13,0-.27,0-.42,0-.15,0-.3-.02-.45-.03-.15-.01-.3-.03-.44-.05-.15-.02-.28-.04-.4-.07v-6.21c.12-.03.26-.06.4-.07.15-.02.29-.03.44-.05.15-.01.3-.02.44-.03.15,0,.28,0,.41,0,.37,0,.71.03,1.03.08.32.06.6.15.83.28.23.13.42.31.55.52.13.22.2.48.2.79,0,.35-.08.64-.25.86-.16.23-.38.39-.66.5.37.11.67.29.89.53.22.24.33.58.33,1.02,0,.64-.23,1.12-.7,1.45s-1.2.49-2.21.49Zm-.83-3.76h.93c.22,0,.43-.02.62-.05.19-.03.36-.09.51-.17.14-.08.26-.18.34-.31.08-.13.12-.29.12-.49,0-.18-.04-.34-.13-.47-.09-.13-.2-.23-.35-.3-.15-.08-.32-.13-.53-.17-.2-.04-.41-.06-.64-.06s-.4,0-.53,0c-.13,0-.24.02-.35.03v1.98Zm0,.72v2.25c.07,0,.15.01.24.02.08,0,.17.01.28.01s.23,0,.37,0c.26,0,.51-.02.74-.05.23-.03.44-.09.62-.18.18-.09.32-.21.42-.36s.16-.35.16-.58c0-.21-.04-.39-.12-.53-.08-.14-.19-.26-.34-.35-.15-.09-.33-.15-.53-.18s-.44-.06-.69-.06h-1.14Z"/>
    <path class="cls-22" d="m28.6,109.31c.89,0,1.57.17,2.05.51.48.34.72.85.72,1.53,0,.37-.07.69-.2.95s-.32.47-.57.64c-.25.16-.55.28-.9.36-.35.07-.75.11-1.2.11h-.7v2.37h-.89v-6.31c.25-.06.53-.1.84-.12.31-.02.59-.03.84-.03Zm.07.79c-.38,0-.67,0-.87.03v2.51h.67c.3,0,.58-.02.82-.06.24-.04.45-.11.62-.2s.3-.23.39-.39c.09-.17.14-.38.14-.64s-.05-.45-.14-.61c-.09-.16-.22-.29-.38-.38s-.35-.16-.56-.2c-.21-.04-.44-.06-.68-.06Z"/>
    <path class="cls-22" d="m32.47,115.78v-6.4h3.86v.77h-2.98v1.9h2.65v.75h-2.65v2.22h3.21v.77h-4.09Z"/>
    <path class="cls-22" d="m40.53,114.89c-.06-.15-.14-.34-.24-.56-.1-.23-.21-.47-.32-.74-.12-.26-.24-.54-.37-.82-.13-.28-.25-.55-.37-.79-.12-.25-.22-.47-.32-.67s-.18-.35-.24-.45c-.07.73-.12,1.51-.16,2.36-.04.85-.08,1.7-.11,2.56h-.87c.02-.55.05-1.11.08-1.68.03-.56.07-1.12.11-1.66.04-.55.08-1.08.13-1.59.05-.52.1-1.01.15-1.47h.78c.16.27.34.59.53.96.19.37.38.76.57,1.16.19.4.37.81.55,1.21.18.4.34.77.48,1.1.15-.33.31-.7.48-1.1.18-.4.36-.81.55-1.21.19-.4.38-.79.57-1.16.19-.37.37-.69.53-.96h.78c.21,2.06.36,4.2.47,6.4h-.87c-.03-.86-.07-1.72-.11-2.56-.04-.85-.1-1.63-.16-2.36-.06.11-.14.26-.24.45s-.21.42-.32.67c-.12.25-.24.51-.37.79-.13.28-.25.55-.37.82-.12.26-.22.51-.32.74s-.18.42-.24.56h-.71Z"/>
    <path class="cls-22" d="m45.64,115.78v-6.4h3.86v.77h-2.98v1.9h2.65v.75h-2.65v2.22h3.21v.77h-4.09Z"/>
    <path class="cls-22" d="m54.84,109.38h.89v6.4h-.89v-2.96h-3.1v2.96h-.89v-6.4h.89v2.67h3.1v-2.67Z"/>
    <path class="cls-22" d="m61.28,109.38h.89v6.4h-.89v-2.96h-3.1v2.96h-.89v-6.4h.89v2.67h3.1v-2.67Z"/>
    <path class="cls-22" d="m67.97,115.78c-.1-.28-.2-.55-.29-.82-.09-.27-.19-.54-.28-.82h-2.87l-.58,1.64h-.92c.24-.68.47-1.3.69-1.88.21-.58.42-1.12.63-1.64.2-.52.41-1.01.61-1.48s.41-.94.63-1.4h.81c.22.46.43.93.63,1.4s.4.97.61,1.48c.2.52.41,1.06.63,1.64s.44,1.2.69,1.88h-.97Zm-.83-2.37c-.19-.54-.39-1.05-.58-1.56-.19-.5-.39-.98-.6-1.45-.21.46-.42.94-.61,1.45-.19.5-.38,1.02-.57,1.56h2.36Z"/>
    <path class="cls-22" d="m72.47,109.31c.13,0,.26,0,.41,0,.15,0,.29.02.44.03.15.01.3.03.44.05.15.02.28.04.4.07v6.31h-.89v-2.5h-.76c-.09,0-.18,0-.27,0s-.22-.01-.38-.03c-.11.15-.23.32-.36.52s-.26.41-.38.63c-.13.22-.25.45-.38.69-.12.24-.24.47-.34.7h-.93c.1-.24.21-.49.35-.75s.27-.5.42-.74c.14-.23.28-.45.41-.65.13-.2.25-.37.34-.49-.14-.04-.29-.1-.44-.18-.15-.08-.29-.19-.42-.33-.13-.14-.23-.32-.32-.53-.08-.21-.12-.47-.12-.76,0-.33.06-.62.19-.88s.31-.46.55-.63c.24-.17.53-.3.87-.38.34-.09.72-.13,1.15-.13Zm-.07.79c-.23,0-.45.02-.66.06s-.4.1-.56.19c-.16.09-.3.22-.39.38s-.15.36-.15.6c0,.46.14.77.43.95.29.18.72.26,1.3.26h.91v-2.41c-.07,0-.15,0-.24,0-.08,0-.17-.01-.28-.01s-.23,0-.37,0Z"/>
    <path class="cls-22" d="m80.01,110.14c-.01.35-.02.68-.04,1-.01.32-.03.64-.05.94-.02.3-.06.6-.11.89-.05.29-.12.57-.2.85-.09.28-.19.54-.32.78-.12.24-.28.46-.47.64-.19.18-.4.33-.66.44s-.55.17-.89.18l-.1-.78c.43-.05.76-.18.99-.41.23-.22.43-.56.58-1.02.17-.52.28-1.14.32-1.87s.07-1.54.07-2.43h3.59v6.4h-.89v-5.64h-1.84Z"/>
    <path class="cls-22" d="m84.05,112.57c0-.55.08-1.03.24-1.45.16-.42.38-.77.66-1.05.28-.28.6-.49.97-.63s.76-.21,1.17-.21.79.07,1.16.21.68.35.95.63c.27.28.49.63.65,1.05.16.42.24.9.24,1.45s-.08,1.03-.24,1.45c-.16.42-.38.77-.65,1.05s-.59.49-.95.63c-.36.14-.75.21-1.16.21s-.81-.07-1.17-.21c-.37-.14-.69-.35-.97-.63-.28-.28-.5-.63-.66-1.05s-.24-.9-.24-1.45Zm.93,0c0,.39.05.74.15,1.06s.24.59.42.81c.18.22.4.39.66.51.26.12.55.18.87.18s.61-.06.87-.18c.26-.12.47-.29.65-.51.18-.22.32-.49.42-.81.1-.32.15-.67.15-1.06s-.05-.74-.15-1.06c-.1-.32-.24-.59-.42-.81-.18-.22-.4-.39-.65-.51s-.55-.18-.87-.18-.61.06-.87.18-.48.29-.66.51c-.18.22-.32.49-.42.81s-.15.67-.15,1.06Z"/>
    <path class="cls-22" d="m95.13,109.38v.78h-2.83v5.63h-.89v-6.4h3.72Z"/>
    <path class="cls-22" d="m95.56,112.57c0-.55.08-1.03.24-1.45.16-.42.38-.77.66-1.05.28-.28.6-.49.97-.63s.76-.21,1.17-.21.79.07,1.16.21.68.35.95.63c.27.28.49.63.65,1.05.16.42.24.9.24,1.45s-.08,1.03-.24,1.45c-.16.42-.38.77-.65,1.05s-.59.49-.95.63c-.36.14-.75.21-1.16.21s-.81-.07-1.17-.21c-.37-.14-.69-.35-.97-.63-.28-.28-.5-.63-.66-1.05s-.24-.9-.24-1.45Zm.93,0c0,.39.05.74.15,1.06s.24.59.42.81c.18.22.4.39.66.51.26.12.55.18.87.18s.61-.06.87-.18c.26-.12.47-.29.65-.51.18-.22.32-.49.42-.81.1-.32.15-.67.15-1.06s-.05-.74-.15-1.06c-.1-.32-.24-.59-.42-.81-.18-.22-.4-.39-.65-.51s-.55-.18-.87-.18-.61.06-.87.18-.48.29-.66.51c-.18.22-.32.49-.42.81s-.15.67-.15,1.06Z"/>
    <path class="cls-22" d="m107.73,109.38v6.4h-.89v-5.64h-3.04v5.64h-.89v-6.4h4.81Z"/>
    <path class="cls-22" d="m109.3,115.78v-6.4h3.86v.77h-2.98v1.9h2.65v.75h-2.65v2.22h3.21v.77h-4.09Z"/>
    <path class="cls-22" d="m114.72,115.78v1.71h-.84v-2.48h.67c.31-.36.55-.75.72-1.19s.29-.89.37-1.38c.08-.48.12-.98.14-1.5.02-.52.03-1.04.03-1.57h3.58v5.64h.79v2.48h-.84v-1.71h-4.61Zm1.95-5.64c-.02.41-.04.82-.06,1.24-.02.42-.07.84-.14,1.26-.07.42-.17.82-.31,1.22-.13.4-.32.78-.57,1.15h2.9v-4.87h-1.83Z"/>
    <path class="cls-22" d="m121.12,115.78v-6.4h.87v4.74c.19-.33.43-.7.72-1.12s.58-.85.9-1.28c.32-.43.64-.86.97-1.27s.63-.77.92-1.08h.7v6.4h-.87v-5c-.17.2-.36.43-.56.68-.2.26-.41.53-.62.83-.21.29-.43.6-.64.91-.22.31-.42.62-.63.93-.2.3-.39.6-.56.88-.17.28-.33.54-.46.77h-.74Z"/>
    <path class="cls-22" d="m130.3,109.31c.13,0,.26,0,.41,0,.15,0,.29.02.44.03.15.01.3.03.44.05.15.02.28.04.4.07v6.31h-.89v-2.5h-.76c-.09,0-.18,0-.27,0s-.22-.01-.38-.03c-.11.15-.23.32-.36.52s-.26.41-.38.63c-.13.22-.25.45-.38.69-.12.24-.24.47-.34.7h-.93c.1-.24.21-.49.35-.75s.27-.5.42-.74c.14-.23.28-.45.41-.65.13-.2.25-.37.34-.49-.14-.04-.29-.1-.44-.18-.15-.08-.29-.19-.42-.33-.13-.14-.23-.32-.32-.53-.08-.21-.12-.47-.12-.76,0-.33.06-.62.19-.88s.31-.46.55-.63c.24-.17.53-.3.87-.38.34-.09.72-.13,1.15-.13Zm-.07.79c-.23,0-.45.02-.66.06s-.4.1-.56.19c-.16.09-.3.22-.39.38s-.15.36-.15.6c0,.46.14.77.43.95.29.18.72.26,1.3.26h.91v-2.41c-.07,0-.15,0-.24,0-.08,0-.17-.01-.28-.01s-.23,0-.37,0Z"/>
  </g>
</svg>