<svg width="64" height="63" viewBox="0 0 64 63" fill="none" xmlns="http://www.w3.org/2000/svg">
<g clip-path="url(#clip0_77_26)">
<path d="M45.7085 13.6546C47.1144 15.8747 47.6432 18.9154 47.6432 20.0968C47.6432 27.114 39.4992 33.6737 31.4348 33.6779C23.2782 33.68 15.1908 26.9713 15.2264 20.0968C15.2411 17.4905 15.8434 15.9251 16.9786 14.4016" stroke="#333333" stroke-linecap="round" stroke-linejoin="round"/>
<path d="M23.1125 8.26787C26.3588 6.43592 29.6912 6.48838 31.435 6.51566C37.2435 6.60799 41.2599 9.14082 42.3868 10.0201" stroke="#333333" stroke-linecap="round" stroke-linejoin="round"/>
<path d="M16.2087 14.5737C14.1627 13.5098 12.5763 11.2351 12.5994 8.70645C12.6329 5.08034 15.9989 2.34186 19.1696 2.13622C19.6439 2.10474 23.1126 1.25907 24.8648 4.76557" stroke="#333333" stroke-linecap="round" stroke-linejoin="round"/>
<path d="M38.0073 7.39282C38.0073 3.76461 40.9493 1.25906 44.5776 1.25906C48.4135 1.25906 51.0156 4.67324 51.1478 7.8293C51.2716 10.7377 49.3117 13.7553 46.7662 14.3995" stroke="#333333" stroke-linecap="round" stroke-linejoin="round"/>
<path d="M31.435 17.906C36.0327 17.906 39.7575 20.8481 39.7575 24.4763C39.7575 28.1045 36.0306 31.0465 31.435 31.0465C26.8394 31.0465 23.1126 28.1045 23.1126 24.4763C23.1126 20.8481 26.8394 17.906 31.435 17.906ZM31.435 16.647C28.9295 16.647 26.5624 17.4276 24.7704 18.8419C22.8901 20.3276 21.8535 22.3275 21.8535 24.4763C21.8535 26.6251 22.8901 28.627 24.7704 30.1106C26.5645 31.5271 28.9316 32.3056 31.435 32.3056C33.9385 32.3056 36.3076 31.525 38.0997 30.1106C39.9799 28.6249 41.0165 26.6251 41.0165 24.4763C41.0165 22.3275 39.9799 20.3255 38.0997 18.8419C36.3055 17.4255 33.9385 16.647 31.435 16.647Z" fill="#333333"/>
<path d="M18.7309 48.1321C22.3591 48.1321 25.3011 51.0741 25.3011 54.7023C25.3011 58.3305 22.3591 61.2725 18.7309 61.2725C15.1027 61.2725 12.1607 58.3305 12.1607 54.7023C12.1607 51.0741 15.1027 48.1321 18.7309 48.1321ZM18.7309 46.873C14.4144 46.873 10.9016 50.3858 10.9016 54.7023C10.9016 59.0188 14.4144 62.5316 18.7309 62.5316C23.0474 62.5316 26.5602 59.0188 26.5602 54.7023C26.5602 50.3858 23.0474 46.873 18.7309 46.873Z" fill="#333333"/>
<path d="M18.1538 46.1973C18.7624 43.1335 19.8745 40.9722 20.4831 39.8096C21.2763 38.2966 22.5291 36.2653 24.4638 34.1732" stroke="#333333" stroke-linecap="round" stroke-linejoin="round"/>
<path d="M37.021 58.8866C35.4555 59.0797 34.1755 59.0818 32.312 59.0859C29.8506 59.0901 28.2306 59.0922 26.2161 58.746" stroke="#333333" stroke-linecap="round" stroke-linejoin="round"/>
<path d="M40.6345 34.553C41.9985 36.0933 46.25 41.9102 47.2278 46.1008" stroke="#333333" stroke-linecap="round" stroke-linejoin="round"/>
<path d="M45.8911 48.1321C49.5193 48.1321 52.4613 51.0741 52.4613 54.7023C52.4613 58.3305 49.5193 61.2725 45.8911 61.2725C42.2629 61.2725 39.3208 58.3305 39.3208 54.7023C39.3208 51.0741 42.2629 48.1321 45.8911 48.1321ZM45.8911 46.873C41.5746 46.873 38.0618 50.3858 38.0618 54.7023C38.0618 59.0188 41.5746 62.5316 45.8911 62.5316C50.2076 62.5316 53.7204 59.0188 53.7204 54.7023C53.7204 50.3858 50.2076 46.873 45.8911 46.873Z" fill="#333333"/>
<path d="M22.2354 32.8008C20.9301 33.1366 18.9177 33.8395 16.9788 35.4302C14.0913 37.7972 11.0444 42.4012 12.5972 45.0683C12.8847 45.5615 13.5436 46.3547 15.2266 46.8205" stroke="#333333" stroke-linecap="round" stroke-linejoin="round"/>
<path d="M42.1936 33.0988C43.4988 33.4345 45.5112 34.1375 47.4502 35.7281C50.3377 38.0952 53.3846 42.6992 51.8318 45.3663C51.5443 45.8594 50.8854 46.6526 49.2024 47.1185" stroke="#333333" stroke-linecap="round" stroke-linejoin="round"/>
<path d="M25.3032 16.5924C26.2709 16.5924 27.0554 15.8079 27.0554 14.8402C27.0554 13.8725 26.2709 13.088 25.3032 13.088C24.3355 13.088 23.551 13.8725 23.551 14.8402C23.551 15.8079 24.3355 16.5924 25.3032 16.5924Z" fill="#4D4D4D"/>
<path d="M36.6936 16.5924C37.6613 16.5924 38.4458 15.8079 38.4458 14.8402C38.4458 13.8725 37.6613 13.088 36.6936 13.088C35.7259 13.088 34.9414 13.8725 34.9414 14.8402C34.9414 15.8079 35.7259 16.5924 36.6936 16.5924Z" fill="#4D4D4D"/>
<path d="M31.4348 25.3534C32.4025 25.3534 33.187 24.5689 33.187 23.6012C33.187 22.6335 32.4025 21.849 31.4348 21.849C30.4671 21.849 29.6826 22.6335 29.6826 23.6012C29.6826 24.5689 30.4671 25.3534 31.4348 25.3534Z" fill="#4D4D4D"/>
</g>
<defs>
<clipPath id="clip0_77_26">
<rect width="62.9534" height="62.9534" fill="white" transform="translate(0.829102)"/>
</clipPath>
</defs>
</svg>
