<svg width="63" height="63" viewBox="0 0 63 63" fill="none" xmlns="http://www.w3.org/2000/svg">
<g id="drum 1" clip-path="url(#clip0_89_71)">
<path id="Vector" d="M52.3815 17.1506C59.9737 19.9226 61.7175 22.1134 61.6692 23.6915C61.5286 28.3689 45.5196 32.4567 31.7118 32.4567C15.1677 32.4567 1.75439 28.5326 1.75439 23.6915C1.75439 18.8503 15.1656 14.9262 31.7118 14.9262C33.976 14.9262 38.9997 14.7752 43.5953 15.3753" stroke="#333333" stroke-linecap="round" stroke-linejoin="round"/>
<g id="Group">
<path id="Vector_2" d="M61.2767 27.3532V47.3682C61.2767 47.4123 61.2767 47.4564 61.2725 47.4983C61.0354 52.2786 47.7166 56.1313 31.3214 56.1313C14.9263 56.1313 1.60743 52.2786 1.36821 47.5004C1.36401 47.4584 1.36401 47.4144 1.36401 47.3703V27.3553" stroke="#333333" stroke-linecap="round" stroke-linejoin="round"/>
<path id="Vector_3" d="M12.876 53.2564V32.7169" stroke="#333333" stroke-linecap="round" stroke-linejoin="round"/>
<path id="Vector_4" d="M30.7212 55.5123V34.9727" stroke="#333333" stroke-linecap="round" stroke-linejoin="round"/>
<path id="Vector_5" d="M49.8193 53.1578V32.6183" stroke="#333333" stroke-linecap="round" stroke-linejoin="round"/>
</g>
<path id="Vector_6" d="M34.853 20.0276L62.3238 11.3946" stroke="#333333" stroke-linecap="round" stroke-linejoin="round"/>
<path id="Vector_7" d="M31.3213 24.9988C33.4167 24.9988 35.1153 23.3002 35.1153 21.2048C35.1153 19.1094 33.4167 17.4108 31.3213 17.4108C29.226 17.4108 27.5273 19.1094 27.5273 21.2048C27.5273 23.3002 29.226 24.9988 31.3213 24.9988Z" stroke="#333333" stroke-linecap="round" stroke-linejoin="round"/>
</g>
<defs>
<clipPath id="clip0_89_71">
<rect width="62.9534" height="62.9534" fill="white"/>
</clipPath>
</defs>
</svg>
