<svg width="61" height="61" viewBox="0 0 61 61" fill="none" xmlns="http://www.w3.org/2000/svg">
<g clip-path="url(#clip0_133_938)">
<path d="M57.2852 60.2417C56.2217 61.1811 54.5971 61.0835 53.6536 60.0201L25.8966 28.7413L22.3098 37.6046C21.8116 38.8348 20.1138 38.9608 19.4367 37.8201L13.8105 28.3163C13.5421 27.8629 13.0663 27.5701 12.5376 27.5315L1.49864 26.7649C0.170872 26.6734 -0.475727 25.1016 0.406739 24.1033L7.73081 15.8317C8.08257 15.4372 8.21271 14.8943 8.08664 14.3819L5.40671 3.67642C5.08544 2.38728 6.38271 1.28928 7.60474 1.81795L17.7572 6.20792C18.2431 6.41735 18.8003 6.37668 19.2496 6.09608L28.6274 0.248216C29.7559 -0.455318 31.2056 0.437316 31.0775 1.75898L30.0283 12.7451C29.9775 13.2717 30.191 13.7861 30.5956 14.1257L39.0746 21.2159C40.0954 22.0699 39.6928 23.719 38.3914 24.0077L30.1808 25.8316L57.5068 56.6203C58.4482 57.6797 58.3506 59.3023 57.2852 60.2417Z" stroke="#333333" stroke-linecap="round" stroke-linejoin="round"/>
<path d="M33.5766 22.3118L25.3416 24.1357C25.0508 24.2007 24.8109 24.402 24.699 24.6786L21.5372 32.4784C21.2566 33.1718 20.3009 33.243 19.9207 32.5984L15.6365 25.3516C15.486 25.0954 15.2176 24.9307 14.9207 24.9104L6.50679 24.3227C5.75852 24.2699 5.39659 23.3854 5.89272 22.8262L11.4803 16.5229C11.6776 16.3012 11.7528 15.9962 11.6796 15.7075L9.64016 7.54366C9.45919 6.81776 10.1912 6.20167 10.8785 6.49853L18.6153 9.84946C18.8878 9.9674 19.2029 9.94503 19.4551 9.78643L26.6104 5.32937C27.2468 4.93287 28.0601 5.43713 27.989 6.1793L27.1838 14.5546C27.1553 14.8494 27.2753 15.1402 27.503 15.3313L33.9649 20.74C34.5383 21.2199 34.3106 22.1491 33.5806 22.3118H33.5766Z" stroke="#333333" stroke-linecap="round" stroke-linejoin="round"/>
</g>
<defs>
<clipPath id="clip0_133_938">
<rect width="61" height="61" fill="white"/>
</clipPath>
</defs>
</svg>
