<svg width="63" height="63" viewBox="0 0 63 63" fill="none" xmlns="http://www.w3.org/2000/svg">
<g clip-path="url(#clip0_88_52)">
<path d="M9.6913 42.462C6.33169 42.462 3.60791 45.1858 3.60791 48.5454C3.60791 51.905 6.33169 54.6288 9.6913 54.6288C13.0509 54.6288 15.7747 51.905 15.7747 48.5454C15.7747 45.1858 13.0509 42.462 9.6913 42.462ZM9.71439 54.0245C6.69682 54.0245 4.25003 51.5777 4.25003 48.5601C4.25003 45.5426 6.69682 43.0958 9.71439 43.0958C12.732 43.0958 15.1787 45.5426 15.1787 48.5601C15.1787 51.5777 12.732 54.0245 9.71439 54.0245Z" fill="#333333"/>
<path d="M8.85812 35.3504L2.76214 32.9267C1.77587 32.5343 1.04771 31.6341 0.970064 30.5744C0.965867 30.5051 0.96167 30.4359 0.96167 30.3666V14.8507C0.96167 14.0071 1.77167 13.3251 2.76843 13.3251H16.9057C17.9045 13.3251 18.7124 14.0092 18.7124 14.8507V30.3666C18.7124 30.5072 18.7019 30.6478 18.6809 30.7863C18.5362 31.7537 17.8479 32.5532 16.9413 32.9225L11.0027 35.342C10.3165 35.6211 9.54851 35.6253 8.85812 35.3504Z" stroke="#333333" stroke-miterlimit="10"/>
<path d="M9.79419 35.7785V40.7099" stroke="#333333" stroke-miterlimit="10"/>
<path d="M31.339 42.6887C27.9794 42.6887 25.2556 45.4125 25.2556 48.7721C25.2556 52.1317 27.9794 54.8555 31.339 54.8555C34.6986 54.8555 37.4224 52.1317 37.4224 48.7721C37.4224 45.4125 34.6986 42.6887 31.339 42.6887ZM31.3621 54.2511C28.3445 54.2511 25.8977 51.8043 25.8977 48.7868C25.8977 45.7692 28.3445 43.3224 31.3621 43.3224C34.3797 43.3224 36.8264 45.7692 36.8264 48.7868C36.8264 51.8043 34.3797 54.2511 31.3621 54.2511Z" fill="#333333"/>
<path d="M31.578 36.0051L24.4076 33.1533C23.4214 32.7609 22.6932 31.8607 22.6156 30.801C22.6114 30.7317 22.6072 30.6625 22.6072 30.5932V15.0773C22.6072 14.2338 23.4172 13.5518 24.4139 13.5518H38.5512C39.55 13.5518 40.3579 14.2359 40.3579 15.0773V30.5932C40.3579 30.6625 40.3558 30.7317 40.3495 30.801C40.2719 31.8565 39.55 32.7546 38.5722 33.1533L31.578 36.003V36.0051Z" stroke="#333333" stroke-miterlimit="10"/>
<path d="M31.4417 36.0051V40.9365" stroke="#333333" stroke-miterlimit="10"/>
<path d="M52.9528 43.1084C49.5932 43.1084 46.8694 45.8322 46.8694 49.1918C46.8694 52.5514 49.5932 55.2752 52.9528 55.2752C56.3124 55.2752 59.0362 52.5514 59.0362 49.1918C59.0362 45.8322 56.3124 43.1084 52.9528 43.1084ZM52.9759 54.6708C49.9583 54.6708 47.5115 52.224 47.5115 49.2065C47.5115 46.1889 49.9583 43.7421 52.9759 43.7421C55.9934 43.7421 58.4402 46.1889 58.4402 49.2065C58.4402 52.224 55.9934 54.6708 52.9759 54.6708Z" fill="#333333"/>
<path d="M53.192 36.4248L46.0217 33.573C45.0354 33.1806 44.3072 32.2804 44.2296 31.2207C44.2254 31.1514 44.2212 31.0822 44.2212 31.0129V15.497C44.2212 14.6535 45.0312 13.9715 46.028 13.9715H60.1652C61.164 13.9715 61.9719 14.6556 61.9719 15.497V31.0129C61.9719 31.0822 61.9698 31.1514 61.9635 31.2207C61.8859 32.2762 61.164 33.1743 60.1862 33.573L53.192 36.4227V36.4248Z" stroke="#333333" stroke-miterlimit="10"/>
<path d="M53.0557 36.4248V41.3562" stroke="#333333" stroke-miterlimit="10"/>
<path d="M20.4437 45.8007C18.7775 45.8007 17.4282 47.15 17.4282 48.8161C17.4282 50.4823 18.7775 51.8316 20.4437 51.8316C22.1099 51.8316 23.4592 50.4823 23.4592 48.8161C23.4592 47.15 22.1099 45.8007 20.4437 45.8007ZM20.4563 51.5336C18.9601 51.5336 17.7472 50.3207 17.7472 48.8245C17.7472 47.3283 18.9601 46.1154 20.4563 46.1154C21.9525 46.1154 23.1654 47.3283 23.1654 48.8245C23.1654 50.3207 21.9525 51.5336 20.4563 51.5336Z" fill="#333333" stroke="#333333" stroke-miterlimit="10"/>
<path d="M42.1859 45.7188C40.5197 45.7188 39.1704 47.0681 39.1704 48.7343C39.1704 50.4005 40.5197 51.7498 42.1859 51.7498C43.852 51.7498 45.2013 50.4005 45.2013 48.7343C45.2013 47.0681 43.852 45.7188 42.1859 45.7188ZM42.1985 51.4518C40.7023 51.4518 39.4894 50.2389 39.4894 48.7427C39.4894 47.2465 40.7023 46.0336 42.1985 46.0336C43.6947 46.0336 44.9076 47.2465 44.9076 48.7427C44.9076 50.2389 43.6947 51.4518 42.1985 51.4518Z" fill="#333333" stroke="#333333" stroke-miterlimit="10"/>
<path d="M15.7747 48.5245H17.4534" stroke="#333333" stroke-miterlimit="10"/>
<path d="M23.5095 48.7343H25.4275" stroke="#333333" stroke-miterlimit="10"/>
<path d="M37.5986 48.8791H39.1767" stroke="#333333" stroke-miterlimit="10"/>
<path d="M45.3125 48.8791H46.8884" stroke="#333333" stroke-miterlimit="10"/>
<path d="M8.87506 19.9688H8.83729L6.6696 21.1376L6.34644 19.8534L9.07232 18.3992H10.5056V30.8807H8.87716V19.9667L8.87506 19.9688Z" fill="#1A1A1A"/>
<path d="M27.2847 30.8828V29.8546L28.6109 28.5682C31.7963 25.5297 33.2484 23.9097 33.2568 22.0274C33.2568 20.7599 32.6546 19.5848 30.7975 19.5848C29.658 19.5848 28.7221 20.1703 28.1429 20.6403L27.6057 19.4589C28.4598 18.7349 29.6979 18.1893 31.1353 18.1893C33.8192 18.1893 34.9482 20.0339 34.9482 21.8112C34.9482 24.13 33.2778 25.9914 30.6506 28.5137L29.6622 29.4475V29.4853H35.2546V30.8849H27.2847V30.8828Z" fill="#1A1A1A"/>
<path d="M49.7296 28.9523C50.206 29.2502 51.3161 29.7266 52.4996 29.7266C54.6568 29.7266 55.3325 28.3542 55.3241 27.3092C55.3031 25.5549 53.7209 24.812 52.0946 24.812H51.1503V23.5446H52.0967C53.3243 23.5446 54.8792 22.9108 54.8792 21.4377C54.8792 20.4347 54.2413 19.5554 52.6842 19.5554C51.6938 19.5554 50.7285 19.994 50.1934 20.378L49.7401 19.1567C50.3948 18.672 51.6644 18.1914 53.0053 18.1914C55.4752 18.1914 56.5936 19.6457 56.5936 21.1733C56.5936 22.4639 55.8067 23.5572 54.2896 24.1133V24.151C55.8256 24.4448 57.0637 25.6073 57.0637 27.3512C57.0637 29.3447 55.5004 31.0948 52.5101 31.0948C51.1083 31.0948 49.8849 30.6604 49.2764 30.2428L49.7275 28.9544L49.7296 28.9523Z" fill="#1A1A1A"/>
</g>
<defs>
<clipPath id="clip0_88_52">
<rect width="62.9534" height="62.9534" fill="white" transform="translate(0.036377)"/>
</clipPath>
</defs>
</svg>
