<svg width="280" height="79" viewBox="0 0 280 79" fill="none" xmlns="http://www.w3.org/2000/svg">
<path d="M0 10.4564C0 4.7585 4.75376 0.212222 10.446 0.466339L270.446 12.0735C275.79 12.3121 280 16.7141 280 22.0635V57.9023C280 63.2655 275.769 67.6738 270.41 67.8939L10.4104 78.5724C4.73131 78.8057 0 74.2647 0 68.5809V10.4564Z" fill="url(#paint0_linear_607_15)"/>
<path d="M15.6975 37.0278H19.9105C20.6327 37.0278 21.3014 36.9743 21.9166 36.8673C22.5586 36.7603 23.107 36.5731 23.5617 36.3056C24.0432 36.0381 24.4177 35.6904 24.6851 35.2624C24.9526 34.8344 25.0864 34.2994 25.0864 33.6575C25.0864 32.748 24.7253 32.0659 24.003 31.6112C23.2808 31.1564 22.2644 30.9291 20.9537 30.9291C19.4825 30.9291 18.1985 31.1029 17.1018 31.4507C16.0051 31.7717 14.9619 32.213 13.9722 32.7747L11.966 27.8396C13.036 27.1709 14.3199 26.6359 15.8179 26.2346C17.3426 25.8067 19.0679 25.5927 20.9938 25.5927C22.4917 25.5927 23.8827 25.7665 25.1666 26.1143C26.4506 26.4353 27.5607 26.9301 28.4969 27.5988C29.4331 28.2408 30.1553 29.07 30.6635 30.0865C31.1985 31.0762 31.466 32.2398 31.466 33.5772C31.466 34.5937 31.1851 35.6101 30.6234 36.6266C30.0884 37.6163 29.2592 38.4589 28.1358 39.1544C28.751 39.4753 29.3261 39.8498 29.8611 40.2778C30.4228 40.7058 30.9043 41.2007 31.3055 41.7624C31.7335 42.3241 32.0678 42.9661 32.3086 43.6883C32.5493 44.3838 32.6697 45.1729 32.6697 46.0556C32.6697 49.0247 31.6131 51.1914 29.4999 52.5556C27.4135 53.893 24.4979 54.5617 20.7531 54.5617C19.8168 54.5617 18.8806 54.4949 17.9444 54.3611C17.035 54.2274 16.1522 54.0669 15.2963 53.8796C14.4671 53.6656 13.678 53.4249 12.929 53.1574C12.2068 52.8899 11.5648 52.6091 11.0031 52.3148L12.8488 47.4198C13.2232 47.5803 13.678 47.7675 14.213 47.9815C14.7747 48.1687 15.3899 48.356 16.0586 48.5432C16.7273 48.7305 17.4228 48.891 18.145 49.0247C18.8673 49.1584 19.5895 49.2253 20.3117 49.2253C22.0771 49.2253 23.4948 48.9712 24.5648 48.463C25.6615 47.9547 26.2098 47.072 26.2098 45.8148C26.2098 45.0391 26.036 44.4105 25.6882 43.929C25.3405 43.4476 24.859 43.0864 24.2438 42.8457C23.6553 42.5782 22.9465 42.4044 22.1173 42.3241C21.3148 42.2171 20.4321 42.1636 19.4691 42.1636H15.6975V37.0278ZM46.9677 54.3611C45.443 54.3611 43.9183 54.3076 42.3936 54.2006C40.8957 54.1204 39.3309 53.9064 37.6992 53.5586V26.5958C38.9832 26.355 40.3875 26.1811 41.9122 26.0741C43.4369 25.9404 44.8545 25.8735 46.1652 25.8735C47.9307 25.8735 49.549 26.0073 51.0202 26.2748C52.5181 26.5155 53.8021 26.9435 54.872 27.5587C55.942 28.1739 56.7712 28.9898 57.3597 30.0062C57.9749 30.9959 58.2825 32.2264 58.2825 33.6976C58.2825 35.9177 57.2125 37.6698 55.0726 38.9537C56.8381 39.6225 58.0418 40.5319 58.6837 41.6821C59.3257 42.8323 59.6467 44.1297 59.6467 45.5741C59.6467 48.4897 58.5767 50.6831 56.4368 52.1543C54.3237 53.6255 51.1673 54.3611 46.9677 54.3611ZM43.798 41.8827V49.0648C44.2527 49.1183 44.7476 49.1584 45.2825 49.1852C45.8175 49.2119 46.406 49.2253 47.048 49.2253C48.9204 49.2253 50.4317 48.9578 51.5819 48.4229C52.7321 47.8879 53.3072 46.8982 53.3072 45.4537C53.3072 44.1698 52.8257 43.2603 51.8628 42.7253C50.8998 42.1636 49.5222 41.8827 47.7301 41.8827H43.798ZM43.798 37.1081H46.8473C48.7733 37.1081 50.1508 36.8673 50.98 36.3858C51.8093 35.8776 52.2239 35.0752 52.2239 33.9784C52.2239 32.855 51.7959 32.0659 50.9399 31.6112C50.084 31.1564 48.8268 30.9291 47.1683 30.9291C46.6333 30.9291 46.0582 30.9424 45.443 30.9692C44.8278 30.9692 44.2794 30.9959 43.798 31.0494V37.1081ZM79.4626 45.855C78.6869 47.6204 77.871 49.0782 77.0151 50.2284C76.1591 51.3519 75.2764 52.2346 74.3669 52.8765C73.4575 53.5185 72.5346 53.9599 71.5984 54.2006C70.6622 54.4414 69.7126 54.5617 68.7497 54.5617C67.8402 54.5617 66.8906 54.4681 65.9009 54.2809C64.938 54.1204 64.0285 53.8796 63.1725 53.5586L64.296 48.5432C65.6067 49.0247 66.904 49.2654 68.1879 49.2654C69.0172 49.2654 69.8063 49.0782 70.5552 48.7037C71.3309 48.3292 72.0665 47.5268 72.762 46.2963C71.6653 44.5844 70.6087 42.8323 69.5923 41.0402C68.6026 39.2212 67.653 37.4424 66.7435 35.7038C65.8608 33.9383 65.0316 32.2531 64.2559 30.6482C63.5069 29.0165 62.8382 27.532 62.2497 26.1945H69.191C69.619 27.2377 70.0871 28.3612 70.5953 29.5649C71.1303 30.7418 71.692 31.9723 72.2805 33.2562C72.869 34.5134 73.4575 35.784 74.046 37.0679C74.6612 38.3251 75.2497 39.5556 75.8114 40.7593C76.6673 38.4054 77.4832 35.998 78.2589 33.5371C79.0346 31.0762 79.7836 28.6287 80.5058 26.1945H87.2064C86.5109 28.2542 85.8288 30.1801 85.1601 31.9723C84.4914 33.7645 83.8361 35.463 83.1941 37.0679C82.5521 38.6729 81.9101 40.1976 81.2682 41.642C80.6529 43.0864 80.0511 44.4908 79.4626 45.855ZM107.242 54C106.68 53.0905 106.011 52.1142 105.236 51.071C104.487 50.001 103.657 48.9445 102.748 47.9013C101.865 46.8313 100.942 45.8148 99.9794 44.8519C99.0165 43.8622 98.0535 42.9928 97.0905 42.2439V54H90.8313V26.1945H97.0905V36.7068C98.7222 34.9949 100.354 33.2161 101.986 31.3704C103.644 29.498 105.182 27.7727 106.6 26.1945H114.023C112.123 28.4414 110.211 30.6081 108.285 32.6945C106.386 34.7809 104.38 36.8807 102.266 38.9939C104.487 40.8395 106.627 43.033 108.686 45.5741C110.773 48.1152 112.765 50.9239 114.665 54H107.242ZM118.259 54V26.1945H124.478V42.605C125.441 41.1605 126.471 39.6626 127.568 38.1112C128.665 36.533 129.761 35.0217 130.858 33.5772C131.982 32.106 133.078 30.7285 134.148 29.4445C135.218 28.1606 136.195 27.0772 137.077 26.1945H142.173V54H135.994V35.784C133.64 38.5391 131.42 41.4681 129.333 44.571C127.247 47.6739 125.308 50.8169 123.516 54H118.259ZM166.572 25.8735C170.718 25.8735 173.901 26.6091 176.121 28.0803C178.341 29.5248 179.451 31.9054 179.451 35.2223C179.451 38.5659 178.328 40.9867 176.081 42.4846C173.834 43.9558 170.624 44.6914 166.451 44.6914H164.485V54H158.226V26.5958C159.59 26.3283 161.035 26.141 162.559 26.034C164.084 25.927 165.421 25.8735 166.572 25.8735ZM166.973 31.2099C166.518 31.2099 166.063 31.2233 165.609 31.2501C165.181 31.2768 164.806 31.3036 164.485 31.3303V39.355H166.451C168.618 39.355 170.25 39.0607 171.346 38.4723C172.443 37.8838 172.991 36.7871 172.991 35.1821C172.991 34.4064 172.844 33.7645 172.55 33.2562C172.283 32.748 171.881 32.3468 171.346 32.0525C170.838 31.7315 170.21 31.5175 169.461 31.4106C168.712 31.2768 167.882 31.2099 166.973 31.2099ZM184.048 54V26.1945H202.825V31.4507H190.307V36.9075H201.421V42.0432H190.307V48.7438H203.748V54H184.048ZM213.034 34.3797C213.034 35.4764 213.168 36.3725 213.436 37.0679C213.703 37.7367 214.078 38.2716 214.559 38.6729C215.067 39.0741 215.669 39.355 216.365 39.5155C217.06 39.6492 217.823 39.7161 218.652 39.7161C219.294 39.7161 219.976 39.6893 220.698 39.6358C221.447 39.5823 222.209 39.5021 222.985 39.3951V26.1945H229.244V54H222.985V44.6914C222.076 44.7984 221.193 44.8786 220.337 44.9321C219.481 44.9856 218.665 45.0124 217.889 45.0124C216.204 45.0124 214.666 44.8653 213.275 44.571C211.911 44.25 210.747 43.7017 209.784 42.926C208.822 42.1235 208.073 41.0669 207.538 39.7562C207.029 38.4188 206.775 36.7336 206.775 34.7007V26.1945H213.034V34.3797ZM235.652 54V26.1945H241.871V42.605C242.834 41.1605 243.863 39.6626 244.96 38.1112C246.057 36.533 247.154 35.0217 248.25 33.5772C249.374 32.106 250.47 30.7285 251.54 29.4445C252.61 28.1606 253.587 27.0772 254.469 26.1945H259.565V54H253.386V35.784C251.032 38.5391 248.812 41.4681 246.726 44.571C244.639 47.6739 242.7 50.8169 240.908 54H235.652Z" fill="white"/>
<defs>
<linearGradient id="paint0_linear_607_15" x1="301.5" y1="27.5" x2="-24.5" y2="40" gradientUnits="userSpaceOnUse">
<stop stop-color="#34AE76"/>
<stop offset="1" stop-color="#01A4C9"/>
</linearGradient>
</defs>
</svg>
