<?xml version="1.0" encoding="UTF-8"?>
<svg id="_Слой_1" data-name="Слой 1" xmlns="http://www.w3.org/2000/svg" xmlns:xlink="http://www.w3.org/1999/xlink" viewBox="0 0 300 300">
  <defs>
    <style>
      .cls-1 {
        fill: url(#_Безымянный_градиент_24);
      }
    </style>
    <linearGradient id="_Безымянный_градиент_24" data-name="Безымянный градиент 24" x1="150.03" y1="296.08" x2="150.03" y2="3" gradientUnits="userSpaceOnUse">
      <stop offset="0" stop-color="#009ee2"/>
      <stop offset=".08" stop-color="#08a0d0"/>
      <stop offset=".25" stop-color="#1aa5ae"/>
      <stop offset=".43" stop-color="#27a994"/>
      <stop offset=".61" stop-color="#31ab81"/>
      <stop offset=".8" stop-color="#37ad75"/>
      <stop offset="1" stop-color="#39ae72"/>
    </linearGradient>
  </defs>
  <path class="cls-1" d="m299,102.73v93.43c0,7.58-6.45,13.73-14.4,13.73h-124.85c-3.03,0-5.48,2.34-5.48,5.23v75.84c0,4.55-5.76,6.83-9.14,3.62l-.08-.08L6.8,162.68c-7.66-7.31-7.66-19.15,0-26.46L144.09,5.3c.38-.36.77-.71,1.17-1.04,3.51-2.91,9.01-.42,9.01,4.01,0,18.28,0,60.7,0,75.51,0,2.89,2.45,5.22,5.48,5.22h124.85c7.95,0,14.4,6.15,14.4,13.73Z"/>
</svg>