<?xml version="1.0" encoding="UTF-8"?>
<svg id="_Слой_1" data-name="Слой 1" xmlns="http://www.w3.org/2000/svg" viewBox="0 0 300 300">
  <defs>
    <style>
      .cls-1 {
        fill: #38af74;
      }
    </style>
  </defs>
  <path class="cls-1" d="m165.28,262.05l-85.94-51.74-60.68-.9c-7.27,0-13.16-6.71-13.16-14.99v-69.99c0-8.28,5.89-14.99,13.16-14.99l61.43.9,84.88-63.05c27.32-7.88,24.99,70.19,25.19,104.77.21,36.86,0,121.66-24.89,109.98Z"/>
  <path class="cls-1" d="m261.56,243.2c-4.52,3.01-9.63-1.8-11.9-7.44-1.15-2.85-.98-6.05.28-8.86,6.07-13.58,14.4-37.33,13.88-67.69-.47-27.36-7.92-48.88-13.74-61.97-1.81-4.06-1.26-8.87,1.69-12.2.17-.19.35-.38.54-.57,2.37-2.37,5.73-4.6,9.26-3.84,16.71,3.61,25.21,49.67,25.74,77.67.6,31.72-8.13,73.16-25.74,84.9Z"/>
  <path class="cls-1" d="m212.45,116.49c-2.19-7.69,6.11-14.37,12.99-10.31,23.96,14.13,22.93,104.53-2.89,118.02-7.2,4.51-14.6-6.26-10.56-13.2,3.84-6.6,3.07-4.62,7-14,6.69-15.95,5.24-49.06,3-58-1-4-3.16-10.07-9.55-22.51Z"/>
</svg>